<?xml version="1.0" encoding="utf-8" standalone="no"?>
<!DOCTYPE svg PUBLIC "-//W3C//DTD SVG 1.1//EN"
  "http://www.w3.org/Graphics/SVG/1.1/DTD/svg11.dtd">
<svg xmlns:xlink="http://www.w3.org/1999/xlink" width="720pt" height="504pt" viewBox="0 0 720 504" xmlns="http://www.w3.org/2000/svg" version="1.1">
 <metadata>
  <rdf:RDF xmlns:dc="http://purl.org/dc/elements/1.1/" xmlns:cc="http://creativecommons.org/ns#" xmlns:rdf="http://www.w3.org/1999/02/22-rdf-syntax-ns#">
   <cc:Work>
    <dc:type rdf:resource="http://purl.org/dc/dcmitype/StillImage"/>
    <dc:date>2025-08-10T09:12:28.043998</dc:date>
    <dc:format>image/svg+xml</dc:format>
    <dc:creator>
     <cc:Agent>
      <dc:title>Matplotlib v3.10.1, https://matplotlib.org/</dc:title>
     </cc:Agent>
    </dc:creator>
   </cc:Work>
  </rdf:RDF>
 </metadata>
 <defs>
  <style type="text/css">*{stroke-linejoin: round; stroke-linecap: butt}</style>
 </defs>
 <g id="figure_1">
  <g id="patch_1">
   <path d="M 0 504 
L 720 504 
L 720 0 
L 0 0 
z
" style="fill: #ffffff"/>
  </g>
  <g id="axes_1">
   <g id="patch_2">
    <path d="M 46.911803 230.658119 
L 348.448437 230.658119 
L 348.448437 18.118365 
L 46.911803 18.118365 
z
" style="fill: #ffffff"/>
   </g>
   <g id="matplotlib.axis_1">
    <g id="xtick_1">
     <g id="line2d_1">
      <path d="M 59.517113 230.658119 
L 59.517113 18.118365 
" clip-path="url(#p7fbefe32b7)" style="fill: none; stroke: #b0b0b0; stroke-opacity: 0.25; stroke-width: 0.8; stroke-linecap: square"/>
     </g>
     <g id="line2d_2">
      <defs>
       <path id="meba69a8d75" d="M 0 0 
L 0 3.5 
" style="stroke: #000000; stroke-width: 0.8"/>
      </defs>
      <g>
       <use xlink:href="#meba69a8d75" x="59.517113" y="230.658119" style="stroke: #000000; stroke-width: 0.8"/>
      </g>
     </g>
     <g id="text_1">
      <!-- 0 -->
      <g transform="translate(56.335863 245.256557) scale(0.1 -0.1)">
       <defs>
        <path id="DejaVuSans-30" d="M 2034 4250 
Q 1547 4250 1301 3770 
Q 1056 3291 1056 2328 
Q 1056 1369 1301 889 
Q 1547 409 2034 409 
Q 2525 409 2770 889 
Q 3016 1369 3016 2328 
Q 3016 3291 2770 3770 
Q 2525 4250 2034 4250 
z
M 2034 4750 
Q 2819 4750 3233 4129 
Q 3647 3509 3647 2328 
Q 3647 1150 3233 529 
Q 2819 -91 2034 -91 
Q 1250 -91 836 529 
Q 422 1150 422 2328 
Q 422 3509 836 4129 
Q 1250 4750 2034 4750 
z
" transform="scale(0.015625)"/>
       </defs>
       <use xlink:href="#DejaVuSans-30"/>
      </g>
     </g>
    </g>
    <g id="xtick_2">
     <g id="line2d_3">
      <path d="M 114.562136 230.658119 
L 114.562136 18.118365 
" clip-path="url(#p7fbefe32b7)" style="fill: none; stroke: #b0b0b0; stroke-opacity: 0.25; stroke-width: 0.8; stroke-linecap: square"/>
     </g>
     <g id="line2d_4">
      <g>
       <use xlink:href="#meba69a8d75" x="114.562136" y="230.658119" style="stroke: #000000; stroke-width: 0.8"/>
      </g>
     </g>
     <g id="text_2">
      <!-- 50 -->
      <g transform="translate(108.199636 245.256557) scale(0.1 -0.1)">
       <defs>
        <path id="DejaVuSans-35" d="M 691 4666 
L 3169 4666 
L 3169 4134 
L 1269 4134 
L 1269 2991 
Q 1406 3038 1543 3061 
Q 1681 3084 1819 3084 
Q 2600 3084 3056 2656 
Q 3513 2228 3513 1497 
Q 3513 744 3044 326 
Q 2575 -91 1722 -91 
Q 1428 -91 1123 -41 
Q 819 9 494 109 
L 494 744 
Q 775 591 1075 516 
Q 1375 441 1709 441 
Q 2250 441 2565 725 
Q 2881 1009 2881 1497 
Q 2881 1984 2565 2268 
Q 2250 2553 1709 2553 
Q 1456 2553 1204 2497 
Q 953 2441 691 2322 
L 691 4666 
z
" transform="scale(0.015625)"/>
       </defs>
       <use xlink:href="#DejaVuSans-35"/>
       <use xlink:href="#DejaVuSans-30" transform="translate(63.623047 0)"/>
      </g>
     </g>
    </g>
    <g id="xtick_3">
     <g id="line2d_5">
      <path d="M 169.607158 230.658119 
L 169.607158 18.118365 
" clip-path="url(#p7fbefe32b7)" style="fill: none; stroke: #b0b0b0; stroke-opacity: 0.25; stroke-width: 0.8; stroke-linecap: square"/>
     </g>
     <g id="line2d_6">
      <g>
       <use xlink:href="#meba69a8d75" x="169.607158" y="230.658119" style="stroke: #000000; stroke-width: 0.8"/>
      </g>
     </g>
     <g id="text_3">
      <!-- 100 -->
      <g transform="translate(160.063408 245.256557) scale(0.1 -0.1)">
       <defs>
        <path id="DejaVuSans-31" d="M 794 531 
L 1825 531 
L 1825 4091 
L 703 3866 
L 703 4441 
L 1819 4666 
L 2450 4666 
L 2450 531 
L 3481 531 
L 3481 0 
L 794 0 
L 794 531 
z
" transform="scale(0.015625)"/>
       </defs>
       <use xlink:href="#DejaVuSans-31"/>
       <use xlink:href="#DejaVuSans-30" transform="translate(63.623047 0)"/>
       <use xlink:href="#DejaVuSans-30" transform="translate(127.246094 0)"/>
      </g>
     </g>
    </g>
    <g id="xtick_4">
     <g id="line2d_7">
      <path d="M 224.652181 230.658119 
L 224.652181 18.118365 
" clip-path="url(#p7fbefe32b7)" style="fill: none; stroke: #b0b0b0; stroke-opacity: 0.25; stroke-width: 0.8; stroke-linecap: square"/>
     </g>
     <g id="line2d_8">
      <g>
       <use xlink:href="#meba69a8d75" x="224.652181" y="230.658119" style="stroke: #000000; stroke-width: 0.8"/>
      </g>
     </g>
     <g id="text_4">
      <!-- 150 -->
      <g transform="translate(215.108431 245.256557) scale(0.1 -0.1)">
       <use xlink:href="#DejaVuSans-31"/>
       <use xlink:href="#DejaVuSans-35" transform="translate(63.623047 0)"/>
       <use xlink:href="#DejaVuSans-30" transform="translate(127.246094 0)"/>
      </g>
     </g>
    </g>
    <g id="xtick_5">
     <g id="line2d_9">
      <path d="M 279.697204 230.658119 
L 279.697204 18.118365 
" clip-path="url(#p7fbefe32b7)" style="fill: none; stroke: #b0b0b0; stroke-opacity: 0.25; stroke-width: 0.8; stroke-linecap: square"/>
     </g>
     <g id="line2d_10">
      <g>
       <use xlink:href="#meba69a8d75" x="279.697204" y="230.658119" style="stroke: #000000; stroke-width: 0.8"/>
      </g>
     </g>
     <g id="text_5">
      <!-- 200 -->
      <g transform="translate(270.153454 245.256557) scale(0.1 -0.1)">
       <defs>
        <path id="DejaVuSans-32" d="M 1228 531 
L 3431 531 
L 3431 0 
L 469 0 
L 469 531 
Q 828 903 1448 1529 
Q 2069 2156 2228 2338 
Q 2531 2678 2651 2914 
Q 2772 3150 2772 3378 
Q 2772 3750 2511 3984 
Q 2250 4219 1831 4219 
Q 1534 4219 1204 4116 
Q 875 4013 500 3803 
L 500 4441 
Q 881 4594 1212 4672 
Q 1544 4750 1819 4750 
Q 2544 4750 2975 4387 
Q 3406 4025 3406 3419 
Q 3406 3131 3298 2873 
Q 3191 2616 2906 2266 
Q 2828 2175 2409 1742 
Q 1991 1309 1228 531 
z
" transform="scale(0.015625)"/>
       </defs>
       <use xlink:href="#DejaVuSans-32"/>
       <use xlink:href="#DejaVuSans-30" transform="translate(63.623047 0)"/>
       <use xlink:href="#DejaVuSans-30" transform="translate(127.246094 0)"/>
      </g>
     </g>
    </g>
    <g id="xtick_6">
     <g id="line2d_11">
      <path d="M 334.742227 230.658119 
L 334.742227 18.118365 
" clip-path="url(#p7fbefe32b7)" style="fill: none; stroke: #b0b0b0; stroke-opacity: 0.25; stroke-width: 0.8; stroke-linecap: square"/>
     </g>
     <g id="line2d_12">
      <g>
       <use xlink:href="#meba69a8d75" x="334.742227" y="230.658119" style="stroke: #000000; stroke-width: 0.8"/>
      </g>
     </g>
     <g id="text_6">
      <!-- 250 -->
      <g transform="translate(325.198477 245.256557) scale(0.1 -0.1)">
       <use xlink:href="#DejaVuSans-32"/>
       <use xlink:href="#DejaVuSans-35" transform="translate(63.623047 0)"/>
       <use xlink:href="#DejaVuSans-30" transform="translate(127.246094 0)"/>
      </g>
     </g>
    </g>
    <g id="text_7">
     <!-- Input -->
     <g transform="translate(183.438557 259.694526) scale(0.11 -0.11)">
      <defs>
       <path id="DejaVuSans-49" d="M 628 4666 
L 1259 4666 
L 1259 0 
L 628 0 
L 628 4666 
z
" transform="scale(0.015625)"/>
       <path id="DejaVuSans-6e" d="M 3513 2113 
L 3513 0 
L 2938 0 
L 2938 2094 
Q 2938 2591 2744 2837 
Q 2550 3084 2163 3084 
Q 1697 3084 1428 2787 
Q 1159 2491 1159 1978 
L 1159 0 
L 581 0 
L 581 3500 
L 1159 3500 
L 1159 2956 
Q 1366 3272 1645 3428 
Q 1925 3584 2291 3584 
Q 2894 3584 3203 3211 
Q 3513 2838 3513 2113 
z
" transform="scale(0.015625)"/>
       <path id="DejaVuSans-70" d="M 1159 525 
L 1159 -1331 
L 581 -1331 
L 581 3500 
L 1159 3500 
L 1159 2969 
Q 1341 3281 1617 3432 
Q 1894 3584 2278 3584 
Q 2916 3584 3314 3078 
Q 3713 2572 3713 1747 
Q 3713 922 3314 415 
Q 2916 -91 2278 -91 
Q 1894 -91 1617 61 
Q 1341 213 1159 525 
z
M 3116 1747 
Q 3116 2381 2855 2742 
Q 2594 3103 2138 3103 
Q 1681 3103 1420 2742 
Q 1159 2381 1159 1747 
Q 1159 1113 1420 752 
Q 1681 391 2138 391 
Q 2594 391 2855 752 
Q 3116 1113 3116 1747 
z
" transform="scale(0.015625)"/>
       <path id="DejaVuSans-75" d="M 544 1381 
L 544 3500 
L 1119 3500 
L 1119 1403 
Q 1119 906 1312 657 
Q 1506 409 1894 409 
Q 2359 409 2629 706 
Q 2900 1003 2900 1516 
L 2900 3500 
L 3475 3500 
L 3475 0 
L 2900 0 
L 2900 538 
Q 2691 219 2414 64 
Q 2138 -91 1772 -91 
Q 1169 -91 856 284 
Q 544 659 544 1381 
z
M 1991 3584 
L 1991 3584 
z
" transform="scale(0.015625)"/>
       <path id="DejaVuSans-74" d="M 1172 4494 
L 1172 3500 
L 2356 3500 
L 2356 3053 
L 1172 3053 
L 1172 1153 
Q 1172 725 1289 603 
Q 1406 481 1766 481 
L 2356 481 
L 2356 0 
L 1766 0 
Q 1100 0 847 248 
Q 594 497 594 1153 
L 594 3053 
L 172 3053 
L 172 3500 
L 594 3500 
L 594 4494 
L 1172 4494 
z
" transform="scale(0.015625)"/>
      </defs>
      <use xlink:href="#DejaVuSans-49"/>
      <use xlink:href="#DejaVuSans-6e" transform="translate(29.492188 0)"/>
      <use xlink:href="#DejaVuSans-70" transform="translate(92.871094 0)"/>
      <use xlink:href="#DejaVuSans-75" transform="translate(156.347656 0)"/>
      <use xlink:href="#DejaVuSans-74" transform="translate(219.726562 0)"/>
     </g>
    </g>
   </g>
   <g id="matplotlib.axis_2">
    <g id="ytick_1">
     <g id="line2d_13">
      <path d="M 46.911803 202.716082 
L 348.448437 202.716082 
" clip-path="url(#p7fbefe32b7)" style="fill: none; stroke: #b0b0b0; stroke-opacity: 0.25; stroke-width: 0.8; stroke-linecap: square"/>
     </g>
     <g id="line2d_14">
      <defs>
       <path id="mfda5ac9e76" d="M 0 0 
L -3.5 0 
" style="stroke: #000000; stroke-width: 0.8"/>
      </defs>
      <g>
       <use xlink:href="#mfda5ac9e76" x="46.911803" y="202.716082" style="stroke: #000000; stroke-width: 0.8"/>
      </g>
     </g>
     <g id="text_8">
      <!-- 0.90 -->
      <g transform="translate(17.646178 206.515301) scale(0.1 -0.1)">
       <defs>
        <path id="DejaVuSans-2e" d="M 684 794 
L 1344 794 
L 1344 0 
L 684 0 
L 684 794 
z
" transform="scale(0.015625)"/>
        <path id="DejaVuSans-39" d="M 703 97 
L 703 672 
Q 941 559 1184 500 
Q 1428 441 1663 441 
Q 2288 441 2617 861 
Q 2947 1281 2994 2138 
Q 2813 1869 2534 1725 
Q 2256 1581 1919 1581 
Q 1219 1581 811 2004 
Q 403 2428 403 3163 
Q 403 3881 828 4315 
Q 1253 4750 1959 4750 
Q 2769 4750 3195 4129 
Q 3622 3509 3622 2328 
Q 3622 1225 3098 567 
Q 2575 -91 1691 -91 
Q 1453 -91 1209 -44 
Q 966 3 703 97 
z
M 1959 2075 
Q 2384 2075 2632 2365 
Q 2881 2656 2881 3163 
Q 2881 3666 2632 3958 
Q 2384 4250 1959 4250 
Q 1534 4250 1286 3958 
Q 1038 3666 1038 3163 
Q 1038 2656 1286 2365 
Q 1534 2075 1959 2075 
z
" transform="scale(0.015625)"/>
       </defs>
       <use xlink:href="#DejaVuSans-30"/>
       <use xlink:href="#DejaVuSans-2e" transform="translate(63.623047 0)"/>
       <use xlink:href="#DejaVuSans-39" transform="translate(95.410156 0)"/>
       <use xlink:href="#DejaVuSans-30" transform="translate(159.033203 0)"/>
      </g>
     </g>
    </g>
    <g id="ytick_2">
     <g id="line2d_15">
      <path d="M 46.911803 168.933597 
L 348.448437 168.933597 
" clip-path="url(#p7fbefe32b7)" style="fill: none; stroke: #b0b0b0; stroke-opacity: 0.25; stroke-width: 0.8; stroke-linecap: square"/>
     </g>
     <g id="line2d_16">
      <g>
       <use xlink:href="#mfda5ac9e76" x="46.911803" y="168.933597" style="stroke: #000000; stroke-width: 0.8"/>
      </g>
     </g>
     <g id="text_9">
      <!-- 0.95 -->
      <g transform="translate(17.646178 172.732816) scale(0.1 -0.1)">
       <use xlink:href="#DejaVuSans-30"/>
       <use xlink:href="#DejaVuSans-2e" transform="translate(63.623047 0)"/>
       <use xlink:href="#DejaVuSans-39" transform="translate(95.410156 0)"/>
       <use xlink:href="#DejaVuSans-35" transform="translate(159.033203 0)"/>
      </g>
     </g>
    </g>
    <g id="ytick_3">
     <g id="line2d_17">
      <path d="M 46.911803 135.151113 
L 348.448437 135.151113 
" clip-path="url(#p7fbefe32b7)" style="fill: none; stroke: #b0b0b0; stroke-opacity: 0.25; stroke-width: 0.8; stroke-linecap: square"/>
     </g>
     <g id="line2d_18">
      <g>
       <use xlink:href="#mfda5ac9e76" x="46.911803" y="135.151113" style="stroke: #000000; stroke-width: 0.8"/>
      </g>
     </g>
     <g id="text_10">
      <!-- 1.00 -->
      <g transform="translate(17.646178 138.950332) scale(0.1 -0.1)">
       <use xlink:href="#DejaVuSans-31"/>
       <use xlink:href="#DejaVuSans-2e" transform="translate(63.623047 0)"/>
       <use xlink:href="#DejaVuSans-30" transform="translate(95.410156 0)"/>
       <use xlink:href="#DejaVuSans-30" transform="translate(159.033203 0)"/>
      </g>
     </g>
    </g>
    <g id="ytick_4">
     <g id="line2d_19">
      <path d="M 46.911803 101.368628 
L 348.448437 101.368628 
" clip-path="url(#p7fbefe32b7)" style="fill: none; stroke: #b0b0b0; stroke-opacity: 0.25; stroke-width: 0.8; stroke-linecap: square"/>
     </g>
     <g id="line2d_20">
      <g>
       <use xlink:href="#mfda5ac9e76" x="46.911803" y="101.368628" style="stroke: #000000; stroke-width: 0.8"/>
      </g>
     </g>
     <g id="text_11">
      <!-- 1.05 -->
      <g transform="translate(17.646178 105.167847) scale(0.1 -0.1)">
       <use xlink:href="#DejaVuSans-31"/>
       <use xlink:href="#DejaVuSans-2e" transform="translate(63.623047 0)"/>
       <use xlink:href="#DejaVuSans-30" transform="translate(95.410156 0)"/>
       <use xlink:href="#DejaVuSans-35" transform="translate(159.033203 0)"/>
      </g>
     </g>
    </g>
    <g id="ytick_5">
     <g id="line2d_21">
      <path d="M 46.911803 67.586144 
L 348.448437 67.586144 
" clip-path="url(#p7fbefe32b7)" style="fill: none; stroke: #b0b0b0; stroke-opacity: 0.25; stroke-width: 0.8; stroke-linecap: square"/>
     </g>
     <g id="line2d_22">
      <g>
       <use xlink:href="#mfda5ac9e76" x="46.911803" y="67.586144" style="stroke: #000000; stroke-width: 0.8"/>
      </g>
     </g>
     <g id="text_12">
      <!-- 1.10 -->
      <g transform="translate(17.646178 71.385363) scale(0.1 -0.1)">
       <use xlink:href="#DejaVuSans-31"/>
       <use xlink:href="#DejaVuSans-2e" transform="translate(63.623047 0)"/>
       <use xlink:href="#DejaVuSans-31" transform="translate(95.410156 0)"/>
       <use xlink:href="#DejaVuSans-30" transform="translate(159.033203 0)"/>
      </g>
     </g>
    </g>
    <g id="ytick_6">
     <g id="line2d_23">
      <path d="M 46.911803 33.80366 
L 348.448437 33.80366 
" clip-path="url(#p7fbefe32b7)" style="fill: none; stroke: #b0b0b0; stroke-opacity: 0.25; stroke-width: 0.8; stroke-linecap: square"/>
     </g>
     <g id="line2d_24">
      <g>
       <use xlink:href="#mfda5ac9e76" x="46.911803" y="33.80366" style="stroke: #000000; stroke-width: 0.8"/>
      </g>
     </g>
     <g id="text_13">
      <!-- 1.15 -->
      <g transform="translate(17.646178 37.602878) scale(0.1 -0.1)">
       <use xlink:href="#DejaVuSans-31"/>
       <use xlink:href="#DejaVuSans-2e" transform="translate(63.623047 0)"/>
       <use xlink:href="#DejaVuSans-31" transform="translate(95.410156 0)"/>
       <use xlink:href="#DejaVuSans-35" transform="translate(159.033203 0)"/>
      </g>
     </g>
    </g>
    <g id="text_14">
     <!-- Speedup vs untouched -->
     <g transform="translate(11.358521 187.589258) rotate(-90) scale(0.11 -0.11)">
      <defs>
       <path id="DejaVuSans-53" d="M 3425 4513 
L 3425 3897 
Q 3066 4069 2747 4153 
Q 2428 4238 2131 4238 
Q 1616 4238 1336 4038 
Q 1056 3838 1056 3469 
Q 1056 3159 1242 3001 
Q 1428 2844 1947 2747 
L 2328 2669 
Q 3034 2534 3370 2195 
Q 3706 1856 3706 1288 
Q 3706 609 3251 259 
Q 2797 -91 1919 -91 
Q 1588 -91 1214 -16 
Q 841 59 441 206 
L 441 856 
Q 825 641 1194 531 
Q 1563 422 1919 422 
Q 2459 422 2753 634 
Q 3047 847 3047 1241 
Q 3047 1584 2836 1778 
Q 2625 1972 2144 2069 
L 1759 2144 
Q 1053 2284 737 2584 
Q 422 2884 422 3419 
Q 422 4038 858 4394 
Q 1294 4750 2059 4750 
Q 2388 4750 2728 4690 
Q 3069 4631 3425 4513 
z
" transform="scale(0.015625)"/>
       <path id="DejaVuSans-65" d="M 3597 1894 
L 3597 1613 
L 953 1613 
Q 991 1019 1311 708 
Q 1631 397 2203 397 
Q 2534 397 2845 478 
Q 3156 559 3463 722 
L 3463 178 
Q 3153 47 2828 -22 
Q 2503 -91 2169 -91 
Q 1331 -91 842 396 
Q 353 884 353 1716 
Q 353 2575 817 3079 
Q 1281 3584 2069 3584 
Q 2775 3584 3186 3129 
Q 3597 2675 3597 1894 
z
M 3022 2063 
Q 3016 2534 2758 2815 
Q 2500 3097 2075 3097 
Q 1594 3097 1305 2825 
Q 1016 2553 972 2059 
L 3022 2063 
z
" transform="scale(0.015625)"/>
       <path id="DejaVuSans-64" d="M 2906 2969 
L 2906 4863 
L 3481 4863 
L 3481 0 
L 2906 0 
L 2906 525 
Q 2725 213 2448 61 
Q 2172 -91 1784 -91 
Q 1150 -91 751 415 
Q 353 922 353 1747 
Q 353 2572 751 3078 
Q 1150 3584 1784 3584 
Q 2172 3584 2448 3432 
Q 2725 3281 2906 2969 
z
M 947 1747 
Q 947 1113 1208 752 
Q 1469 391 1925 391 
Q 2381 391 2643 752 
Q 2906 1113 2906 1747 
Q 2906 2381 2643 2742 
Q 2381 3103 1925 3103 
Q 1469 3103 1208 2742 
Q 947 2381 947 1747 
z
" transform="scale(0.015625)"/>
       <path id="DejaVuSans-20" transform="scale(0.015625)"/>
       <path id="DejaVuSans-76" d="M 191 3500 
L 800 3500 
L 1894 563 
L 2988 3500 
L 3597 3500 
L 2284 0 
L 1503 0 
L 191 3500 
z
" transform="scale(0.015625)"/>
       <path id="DejaVuSans-73" d="M 2834 3397 
L 2834 2853 
Q 2591 2978 2328 3040 
Q 2066 3103 1784 3103 
Q 1356 3103 1142 2972 
Q 928 2841 928 2578 
Q 928 2378 1081 2264 
Q 1234 2150 1697 2047 
L 1894 2003 
Q 2506 1872 2764 1633 
Q 3022 1394 3022 966 
Q 3022 478 2636 193 
Q 2250 -91 1575 -91 
Q 1294 -91 989 -36 
Q 684 19 347 128 
L 347 722 
Q 666 556 975 473 
Q 1284 391 1588 391 
Q 1994 391 2212 530 
Q 2431 669 2431 922 
Q 2431 1156 2273 1281 
Q 2116 1406 1581 1522 
L 1381 1569 
Q 847 1681 609 1914 
Q 372 2147 372 2553 
Q 372 3047 722 3315 
Q 1072 3584 1716 3584 
Q 2034 3584 2315 3537 
Q 2597 3491 2834 3397 
z
" transform="scale(0.015625)"/>
       <path id="DejaVuSans-6f" d="M 1959 3097 
Q 1497 3097 1228 2736 
Q 959 2375 959 1747 
Q 959 1119 1226 758 
Q 1494 397 1959 397 
Q 2419 397 2687 759 
Q 2956 1122 2956 1747 
Q 2956 2369 2687 2733 
Q 2419 3097 1959 3097 
z
M 1959 3584 
Q 2709 3584 3137 3096 
Q 3566 2609 3566 1747 
Q 3566 888 3137 398 
Q 2709 -91 1959 -91 
Q 1206 -91 779 398 
Q 353 888 353 1747 
Q 353 2609 779 3096 
Q 1206 3584 1959 3584 
z
" transform="scale(0.015625)"/>
       <path id="DejaVuSans-63" d="M 3122 3366 
L 3122 2828 
Q 2878 2963 2633 3030 
Q 2388 3097 2138 3097 
Q 1578 3097 1268 2742 
Q 959 2388 959 1747 
Q 959 1106 1268 751 
Q 1578 397 2138 397 
Q 2388 397 2633 464 
Q 2878 531 3122 666 
L 3122 134 
Q 2881 22 2623 -34 
Q 2366 -91 2075 -91 
Q 1284 -91 818 406 
Q 353 903 353 1747 
Q 353 2603 823 3093 
Q 1294 3584 2113 3584 
Q 2378 3584 2631 3529 
Q 2884 3475 3122 3366 
z
" transform="scale(0.015625)"/>
       <path id="DejaVuSans-68" d="M 3513 2113 
L 3513 0 
L 2938 0 
L 2938 2094 
Q 2938 2591 2744 2837 
Q 2550 3084 2163 3084 
Q 1697 3084 1428 2787 
Q 1159 2491 1159 1978 
L 1159 0 
L 581 0 
L 581 4863 
L 1159 4863 
L 1159 2956 
Q 1366 3272 1645 3428 
Q 1925 3584 2291 3584 
Q 2894 3584 3203 3211 
Q 3513 2838 3513 2113 
z
" transform="scale(0.015625)"/>
      </defs>
      <use xlink:href="#DejaVuSans-53"/>
      <use xlink:href="#DejaVuSans-70" transform="translate(63.476562 0)"/>
      <use xlink:href="#DejaVuSans-65" transform="translate(126.953125 0)"/>
      <use xlink:href="#DejaVuSans-65" transform="translate(188.476562 0)"/>
      <use xlink:href="#DejaVuSans-64" transform="translate(250 0)"/>
      <use xlink:href="#DejaVuSans-75" transform="translate(313.476562 0)"/>
      <use xlink:href="#DejaVuSans-70" transform="translate(376.855469 0)"/>
      <use xlink:href="#DejaVuSans-20" transform="translate(440.332031 0)"/>
      <use xlink:href="#DejaVuSans-76" transform="translate(472.119141 0)"/>
      <use xlink:href="#DejaVuSans-73" transform="translate(531.298828 0)"/>
      <use xlink:href="#DejaVuSans-20" transform="translate(583.398438 0)"/>
      <use xlink:href="#DejaVuSans-75" transform="translate(615.185547 0)"/>
      <use xlink:href="#DejaVuSans-6e" transform="translate(678.564453 0)"/>
      <use xlink:href="#DejaVuSans-74" transform="translate(741.943359 0)"/>
      <use xlink:href="#DejaVuSans-6f" transform="translate(781.152344 0)"/>
      <use xlink:href="#DejaVuSans-75" transform="translate(842.333984 0)"/>
      <use xlink:href="#DejaVuSans-63" transform="translate(905.712891 0)"/>
      <use xlink:href="#DejaVuSans-68" transform="translate(960.693359 0)"/>
      <use xlink:href="#DejaVuSans-65" transform="translate(1024.072266 0)"/>
      <use xlink:href="#DejaVuSans-64" transform="translate(1085.595703 0)"/>
     </g>
    </g>
   </g>
   <g id="line2d_25">
    <path d="M 60.618013 162.820614 
L 61.718914 161.648333 
L 62.819814 155.17138 
L 63.920715 155.787494 
L 65.021615 165.252867 
L 66.122515 153.454469 
L 67.223416 153.787014 
L 68.324316 178.012146 
L 69.425217 178.624027 
L 70.526117 175.142409 
L 71.627018 172.279693 
L 72.727918 172.224527 
L 73.828819 178.065347 
L 74.929719 166.589087 
L 76.03062 181.851343 
L 77.13152 178.270554 
L 78.23242 169.08578 
L 79.333321 182.401233 
L 80.434221 176.763691 
L 81.535122 169.613543 
L 82.636022 172.121666 
L 83.736923 181.567554 
L 84.837823 172.092355 
L 85.938724 145.831792 
L 87.039624 152.001757 
L 88.140525 152.586238 
L 89.241425 176.076383 
L 90.342326 136.65221 
L 91.443226 134.705995 
L 92.544126 134.413758 
L 93.645027 164.284664 
L 94.745927 134.838791 
L 95.846828 146.528658 
L 96.947728 137.22594 
L 98.048629 161.632216 
L 99.149529 162.114631 
L 100.25043 173.710003 
L 101.35133 172.492142 
L 102.452231 172.266793 
L 103.553131 174.922568 
L 104.654031 198.756828 
L 105.754932 164.531315 
L 106.855832 161.488254 
L 107.956733 162.931325 
L 109.057633 159.937768 
L 110.158534 140.068726 
L 111.259434 169.630351 
L 112.360335 136.708259 
L 113.461235 148.146184 
L 114.562136 144.757327 
L 116.763936 139.130427 
L 118.965737 199.556725 
L 121.167538 149.41451 
L 123.369339 147.211911 
L 125.57114 148.217941 
L 127.772941 167.683565 
L 129.974742 148.906741 
L 132.176543 128.918838 
L 134.378344 130.907582 
L 136.580145 136.168686 
L 138.781946 125.871498 
L 140.983746 124.95918 
L 143.185547 136.104101 
L 145.387348 132.488436 
L 147.589149 127.661135 
L 149.79095 163.948385 
L 151.992751 141.587141 
L 154.194552 142.03238 
L 156.396353 141.47994 
L 158.598154 157.87777 
L 160.799955 159.365781 
L 163.001756 190.552286 
L 165.203557 166.882999 
L 167.405357 157.75309 
L 169.607158 160.112486 
L 175.111661 169.039557 
L 180.616163 183.408069 
L 186.120665 169.155527 
L 191.625167 155.411671 
L 197.12967 179.251509 
L 202.634172 158.110356 
L 208.138674 161.897135 
L 213.643177 146.219119 
L 219.147679 180.899953 
L 224.652181 150.140876 
L 230.156683 170.037422 
L 235.661186 156.12732 
L 241.165688 185.383608 
L 246.67019 142.985739 
L 252.174693 163.900992 
L 257.679195 157.788129 
L 263.183697 157.780441 
L 268.688199 174.849063 
L 274.192702 174.965473 
L 279.697204 134.673136 
L 290.706209 136.686207 
L 301.715213 166.633562 
L 312.724218 142.282721 
L 323.733222 143.874643 
L 334.742227 169.094689 
" clip-path="url(#p7fbefe32b7)" style="fill: none; stroke: #1f77b4; stroke-width: 1.8; stroke-linecap: square"/>
   </g>
   <g id="line2d_26">
    <path d="M 60.618013 172.437334 
L 61.718914 170.624076 
L 62.819814 166.355701 
L 63.920715 171.479668 
L 65.021615 177.278641 
L 66.122515 175.387607 
L 67.223416 175.183837 
L 68.324316 195.11649 
L 69.425217 199.904735 
L 70.526117 191.243729 
L 71.627018 193.377432 
L 72.727918 192.912627 
L 73.828819 199.471693 
L 74.929719 193.004387 
L 76.03062 195.007505 
L 77.13152 199.456034 
L 78.23242 197.228341 
L 79.333321 202.506821 
L 80.434221 202.975438 
L 81.535122 190.898671 
L 82.636022 191.66403 
L 83.736923 201.960923 
L 84.837823 190.12236 
L 85.938724 163.840481 
L 87.039624 167.464388 
L 88.140525 162.77864 
L 89.241425 203.133623 
L 90.342326 157.043229 
L 91.443226 147.10094 
L 92.544126 153.773606 
L 93.645027 192.210206 
L 94.745927 151.468302 
L 95.846828 163.441081 
L 96.947728 158.156392 
L 98.048629 168.164912 
L 99.149529 170.160987 
L 100.25043 173.37497 
L 101.35133 172.667602 
L 102.452231 172.004396 
L 103.553131 168.878199 
L 104.654031 204.612971 
L 105.754932 171.201301 
L 106.855832 169.220281 
L 107.956733 176.130582 
L 109.057633 165.552247 
L 110.158534 149.673969 
L 111.259434 192.741788 
L 112.360335 142.716884 
L 113.461235 163.127032 
L 114.562136 165.070804 
L 116.763936 141.458184 
L 118.965737 220.997221 
L 121.167538 159.953871 
L 123.369339 156.644836 
L 125.57114 157.122245 
L 127.772941 192.56775 
L 129.974742 158.188906 
L 132.176543 135.892079 
L 134.378344 134.416097 
L 136.580145 136.112235 
L 138.781946 129.312879 
L 140.983746 134.443821 
L 143.185547 136.048117 
L 145.387348 134.649972 
L 147.589149 132.33543 
L 149.79095 178.870122 
L 151.992751 143.674086 
L 154.194552 150.895131 
L 156.396353 141.047926 
L 158.598154 155.362856 
L 160.799955 158.526985 
L 163.001756 191.877839 
L 165.203557 162.574896 
L 167.405357 157.644746 
L 169.607158 157.269874 
L 175.111661 170.325934 
L 180.616163 194.507862 
L 186.120665 168.007081 
L 191.625167 162.992426 
L 197.12967 196.255189 
L 202.634172 163.296991 
L 208.138674 166.683531 
L 213.643177 161.25289 
L 219.147679 193.858713 
L 224.652181 163.169472 
L 230.156683 191.424518 
L 235.661186 158.685423 
L 241.165688 198.058957 
L 246.67019 158.01293 
L 252.174693 177.722609 
L 257.679195 162.902117 
L 263.183697 167.599507 
L 268.688199 192.013644 
L 274.192702 180.600479 
L 279.697204 152.627218 
L 290.706209 150.557411 
L 301.715213 179.464993 
L 312.724218 154.268938 
L 323.733222 154.849841 
L 334.742227 187.212341 
" clip-path="url(#p7fbefe32b7)" style="fill: none; stroke: #ff7f0e; stroke-width: 1.8; stroke-linecap: square"/>
   </g>
   <g id="line2d_27">
    <path d="M 60.618013 91.958295 
L 61.718914 83.039366 
L 62.819814 81.352206 
L 63.920715 79.542447 
L 65.021615 88.145405 
L 66.122515 83.851099 
L 67.223416 88.676025 
L 68.324316 108.068016 
L 69.425217 108.910603 
L 70.526117 110.840759 
L 71.627018 106.089278 
L 72.727918 109.955784 
L 73.828819 109.942406 
L 74.929719 106.010018 
L 76.03062 108.616397 
L 77.13152 113.380517 
L 78.23242 105.11451 
L 79.333321 121.969872 
L 80.434221 112.005226 
L 81.535122 106.312141 
L 82.636022 105.909466 
L 83.736923 121.545559 
L 84.837823 99.78188 
L 85.938724 75.919235 
L 87.039624 72.035915 
L 88.140525 71.246211 
L 89.241425 108.317414 
L 90.342326 64.85093 
L 91.443226 54.897968 
L 92.544126 57.263868 
L 93.645027 95.279799 
L 94.745927 54.201621 
L 95.846828 69.528072 
L 96.947728 63.942137 
L 98.048629 74.754944 
L 99.149529 72.511641 
L 100.25043 86.170656 
L 101.35133 78.87005 
L 102.452231 76.234239 
L 103.553131 77.183709 
L 104.654031 109.322081 
L 105.754932 78.32499 
L 106.855832 76.675934 
L 107.956733 72.76681 
L 109.057633 73.165692 
L 110.158534 48.244862 
L 111.259434 89.014752 
L 112.360335 40.842129 
L 113.461235 62.02922 
L 114.562136 58.755127 
L 116.763936 47.215836 
L 118.965737 122.528375 
L 121.167538 66.544038 
L 123.369339 50.295352 
L 125.57114 57.490477 
L 127.772941 89.823065 
L 129.974742 57.190697 
L 132.176543 43.641092 
L 134.378344 36.017542 
L 136.580145 38.238218 
L 138.781946 27.779263 
L 140.983746 34.558796 
L 143.185547 44.484379 
L 145.387348 36.019811 
L 147.589149 41.336051 
L 149.79095 77.118884 
L 151.992751 47.199544 
L 154.194552 57.656631 
L 156.396353 53.295122 
L 158.598154 67.745506 
L 160.799955 67.049178 
L 163.001756 103.092445 
L 165.203557 70.984706 
L 167.405357 74.013878 
L 169.607158 57.862057 
L 175.111661 77.572642 
L 180.616163 102.766518 
L 186.120665 78.150725 
L 191.625167 62.112598 
L 197.12967 96.689006 
L 202.634172 72.883448 
L 208.138674 75.694786 
L 213.643177 70.004168 
L 219.147679 100.407122 
L 224.652181 70.165812 
L 230.156683 81.52845 
L 235.661186 66.538008 
L 241.165688 111.646193 
L 246.67019 70.834069 
L 252.174693 83.899622 
L 257.679195 67.185587 
L 263.183697 66.334941 
L 268.688199 92.100414 
L 274.192702 97.003956 
L 279.697204 55.508385 
L 290.706209 59.069196 
L 301.715213 86.323408 
L 312.724218 49.623947 
L 323.733222 60.118984 
L 334.742227 93.112526 
" clip-path="url(#p7fbefe32b7)" style="fill: none; stroke: #d62728; stroke-width: 1.8; stroke-linecap: square"/>
   </g>
   <g id="line2d_28">
    <path d="M 60.618013 168.271196 
L 61.718914 161.497547 
L 62.819814 159.086545 
L 63.920715 159.730503 
L 65.021615 170.525138 
L 66.122515 169.099786 
L 67.223416 164.523823 
L 68.324316 189.292449 
L 69.425217 180.88584 
L 70.526117 181.718692 
L 71.627018 181.601302 
L 72.727918 187.995652 
L 73.828819 190.49764 
L 74.929719 185.374023 
L 76.03062 187.826345 
L 77.13152 187.065813 
L 78.23242 187.447585 
L 79.333321 189.869087 
L 80.434221 196.443512 
L 81.535122 187.171557 
L 82.636022 190.663497 
L 83.736923 192.627456 
L 84.837823 172.459545 
L 85.938724 142.270791 
L 87.039624 150.994276 
L 88.140525 151.72081 
L 89.241425 150.756272 
L 90.342326 149.736919 
L 91.443226 143.837765 
L 92.544126 147.650109 
L 93.645027 144.921394 
L 94.745927 172.530538 
L 95.846828 155.479659 
L 96.947728 163.101632 
L 98.048629 175.604595 
L 99.149529 176.959799 
L 100.25043 181.5433 
L 101.35133 175.948403 
L 102.452231 165.034035 
L 103.553131 167.50145 
L 104.654031 171.636842 
L 105.754932 180.839894 
L 106.855832 179.264696 
L 107.956733 189.439839 
L 109.057633 174.720777 
L 110.158534 157.43788 
L 111.259434 165.505726 
L 112.360335 140.157605 
L 113.461235 163.901382 
L 114.562136 156.135639 
L 116.763936 147.556766 
L 118.965737 205.606331 
L 121.167538 164.857993 
L 123.369339 163.056383 
L 125.57114 158.439091 
L 127.772941 161.082382 
L 129.974742 162.885515 
L 132.176543 143.972847 
L 134.378344 141.916556 
L 136.580145 165.28056 
L 138.781946 131.731231 
L 140.983746 124.095955 
L 143.185547 145.887111 
L 145.387348 134.909915 
L 147.589149 142.033442 
L 149.79095 135.495841 
L 151.992751 157.710554 
L 154.194552 145.031509 
L 156.396353 156.113416 
L 158.598154 156.760378 
L 160.799955 175.388315 
L 163.001756 161.480982 
L 165.203557 173.797742 
L 167.405357 167.043443 
L 169.607158 153.361631 
L 175.111661 181.16591 
L 180.616163 156.549232 
L 186.120665 182.454411 
L 191.625167 163.028449 
L 197.12967 167.388836 
L 202.634172 158.255048 
L 208.138674 168.023056 
L 213.643177 169.110469 
L 219.147679 146.857278 
L 224.652181 167.298269 
L 230.156683 164.352642 
L 235.661186 158.630817 
L 241.165688 166.084299 
L 246.67019 164.186804 
L 252.174693 162.598462 
L 257.679195 161.766591 
L 263.183697 166.409894 
L 268.688199 144.197056 
L 274.192702 153.6851 
L 279.697204 148.37564 
L 290.706209 164.981883 
L 301.715213 138.923147 
L 312.724218 140.648929 
L 323.733222 142.75689 
L 334.742227 161.652068 
" clip-path="url(#p7fbefe32b7)" style="fill: none; stroke: #9467bd; stroke-width: 1.8; stroke-linecap: square"/>
   </g>
   <g id="line2d_29">
    <path d="M 46.911803 135.151113 
L 348.448437 135.151113 
" clip-path="url(#p7fbefe32b7)" style="fill: none; stroke-dasharray: 3.7,1.6; stroke-dashoffset: 0; stroke: #777777"/>
   </g>
   <g id="patch_3">
    <path d="M 46.911803 230.658119 
L 46.911803 18.118365 
" style="fill: none; stroke: #000000; stroke-width: 0.8; stroke-linejoin: miter; stroke-linecap: square"/>
   </g>
   <g id="patch_4">
    <path d="M 348.448437 230.658119 
L 348.448437 18.118365 
" style="fill: none; stroke: #000000; stroke-width: 0.8; stroke-linejoin: miter; stroke-linecap: square"/>
   </g>
   <g id="patch_5">
    <path d="M 46.911803 230.658119 
L 348.448437 230.658119 
" style="fill: none; stroke: #000000; stroke-width: 0.8; stroke-linejoin: miter; stroke-linecap: square"/>
   </g>
   <g id="patch_6">
    <path d="M 46.911803 18.118365 
L 348.448437 18.118365 
" style="fill: none; stroke: #000000; stroke-width: 0.8; stroke-linejoin: miter; stroke-linecap: square"/>
   </g>
   <g id="text_15">
    <!-- Collatz -->
    <g transform="translate(177.307307 12.118365) scale(0.12 -0.12)">
     <defs>
      <path id="DejaVuSans-43" d="M 4122 4306 
L 4122 3641 
Q 3803 3938 3442 4084 
Q 3081 4231 2675 4231 
Q 1875 4231 1450 3742 
Q 1025 3253 1025 2328 
Q 1025 1406 1450 917 
Q 1875 428 2675 428 
Q 3081 428 3442 575 
Q 3803 722 4122 1019 
L 4122 359 
Q 3791 134 3420 21 
Q 3050 -91 2638 -91 
Q 1578 -91 968 557 
Q 359 1206 359 2328 
Q 359 3453 968 4101 
Q 1578 4750 2638 4750 
Q 3056 4750 3426 4639 
Q 3797 4528 4122 4306 
z
" transform="scale(0.015625)"/>
      <path id="DejaVuSans-6c" d="M 603 4863 
L 1178 4863 
L 1178 0 
L 603 0 
L 603 4863 
z
" transform="scale(0.015625)"/>
      <path id="DejaVuSans-61" d="M 2194 1759 
Q 1497 1759 1228 1600 
Q 959 1441 959 1056 
Q 959 750 1161 570 
Q 1363 391 1709 391 
Q 2188 391 2477 730 
Q 2766 1069 2766 1631 
L 2766 1759 
L 2194 1759 
z
M 3341 1997 
L 3341 0 
L 2766 0 
L 2766 531 
Q 2569 213 2275 61 
Q 1981 -91 1556 -91 
Q 1019 -91 701 211 
Q 384 513 384 1019 
Q 384 1609 779 1909 
Q 1175 2209 1959 2209 
L 2766 2209 
L 2766 2266 
Q 2766 2663 2505 2880 
Q 2244 3097 1772 3097 
Q 1472 3097 1187 3025 
Q 903 2953 641 2809 
L 641 3341 
Q 956 3463 1253 3523 
Q 1550 3584 1831 3584 
Q 2591 3584 2966 3190 
Q 3341 2797 3341 1997 
z
" transform="scale(0.015625)"/>
      <path id="DejaVuSans-7a" d="M 353 3500 
L 3084 3500 
L 3084 2975 
L 922 459 
L 3084 459 
L 3084 0 
L 275 0 
L 275 525 
L 2438 3041 
L 353 3041 
L 353 3500 
z
" transform="scale(0.015625)"/>
     </defs>
     <use xlink:href="#DejaVuSans-43"/>
     <use xlink:href="#DejaVuSans-6f" transform="translate(69.824219 0)"/>
     <use xlink:href="#DejaVuSans-6c" transform="translate(131.005859 0)"/>
     <use xlink:href="#DejaVuSans-6c" transform="translate(158.789062 0)"/>
     <use xlink:href="#DejaVuSans-61" transform="translate(186.572266 0)"/>
     <use xlink:href="#DejaVuSans-74" transform="translate(247.851562 0)"/>
     <use xlink:href="#DejaVuSans-7a" transform="translate(287.060547 0)"/>
    </g>
   </g>
   <g id="legend_1">
    <g id="line2d_30">
     <path d="M 253.973437 31.216803 
L 263.973437 31.216803 
L 273.973437 31.216803 
" style="fill: none; stroke: #1f77b4; stroke-width: 1.8; stroke-linecap: square"/>
    </g>
    <g id="text_16">
     <!-- 32-reg -->
     <g transform="translate(281.973437 34.716803) scale(0.1 -0.1)">
      <defs>
       <path id="DejaVuSans-33" d="M 2597 2516 
Q 3050 2419 3304 2112 
Q 3559 1806 3559 1356 
Q 3559 666 3084 287 
Q 2609 -91 1734 -91 
Q 1441 -91 1130 -33 
Q 819 25 488 141 
L 488 750 
Q 750 597 1062 519 
Q 1375 441 1716 441 
Q 2309 441 2620 675 
Q 2931 909 2931 1356 
Q 2931 1769 2642 2001 
Q 2353 2234 1838 2234 
L 1294 2234 
L 1294 2753 
L 1863 2753 
Q 2328 2753 2575 2939 
Q 2822 3125 2822 3475 
Q 2822 3834 2567 4026 
Q 2313 4219 1838 4219 
Q 1578 4219 1281 4162 
Q 984 4106 628 3988 
L 628 4550 
Q 988 4650 1302 4700 
Q 1616 4750 1894 4750 
Q 2613 4750 3031 4423 
Q 3450 4097 3450 3541 
Q 3450 3153 3228 2886 
Q 3006 2619 2597 2516 
z
" transform="scale(0.015625)"/>
       <path id="DejaVuSans-2d" d="M 313 2009 
L 1997 2009 
L 1997 1497 
L 313 1497 
L 313 2009 
z
" transform="scale(0.015625)"/>
       <path id="DejaVuSans-72" d="M 2631 2963 
Q 2534 3019 2420 3045 
Q 2306 3072 2169 3072 
Q 1681 3072 1420 2755 
Q 1159 2438 1159 1844 
L 1159 0 
L 581 0 
L 581 3500 
L 1159 3500 
L 1159 2956 
Q 1341 3275 1631 3429 
Q 1922 3584 2338 3584 
Q 2397 3584 2469 3576 
Q 2541 3569 2628 3553 
L 2631 2963 
z
" transform="scale(0.015625)"/>
       <path id="DejaVuSans-67" d="M 2906 1791 
Q 2906 2416 2648 2759 
Q 2391 3103 1925 3103 
Q 1463 3103 1205 2759 
Q 947 2416 947 1791 
Q 947 1169 1205 825 
Q 1463 481 1925 481 
Q 2391 481 2648 825 
Q 2906 1169 2906 1791 
z
M 3481 434 
Q 3481 -459 3084 -895 
Q 2688 -1331 1869 -1331 
Q 1566 -1331 1297 -1286 
Q 1028 -1241 775 -1147 
L 775 -588 
Q 1028 -725 1275 -790 
Q 1522 -856 1778 -856 
Q 2344 -856 2625 -561 
Q 2906 -266 2906 331 
L 2906 616 
Q 2728 306 2450 153 
Q 2172 0 1784 0 
Q 1141 0 747 490 
Q 353 981 353 1791 
Q 353 2603 747 3093 
Q 1141 3584 1784 3584 
Q 2172 3584 2450 3431 
Q 2728 3278 2906 2969 
L 2906 3500 
L 3481 3500 
L 3481 434 
z
" transform="scale(0.015625)"/>
      </defs>
      <use xlink:href="#DejaVuSans-33"/>
      <use xlink:href="#DejaVuSans-32" transform="translate(63.623047 0)"/>
      <use xlink:href="#DejaVuSans-2d" transform="translate(127.246094 0)"/>
      <use xlink:href="#DejaVuSans-72" transform="translate(163.330078 0)"/>
      <use xlink:href="#DejaVuSans-65" transform="translate(202.193359 0)"/>
      <use xlink:href="#DejaVuSans-67" transform="translate(263.716797 0)"/>
     </g>
    </g>
    <g id="line2d_31">
     <path d="M 253.973437 45.894928 
L 263.973437 45.894928 
L 273.973437 45.894928 
" style="fill: none; stroke: #ff7f0e; stroke-width: 1.8; stroke-linecap: square"/>
    </g>
    <g id="text_17">
     <!-- v-reg -->
     <g transform="translate(281.973437 49.394928) scale(0.1 -0.1)">
      <use xlink:href="#DejaVuSans-76"/>
      <use xlink:href="#DejaVuSans-2d" transform="translate(56.554688 0)"/>
      <use xlink:href="#DejaVuSans-72" transform="translate(92.638672 0)"/>
      <use xlink:href="#DejaVuSans-65" transform="translate(131.501953 0)"/>
      <use xlink:href="#DejaVuSans-67" transform="translate(193.025391 0)"/>
     </g>
    </g>
    <g id="line2d_32">
     <path d="M 253.973437 60.573053 
L 263.973437 60.573053 
L 273.973437 60.573053 
" style="fill: none; stroke: #d62728; stroke-width: 1.8; stroke-linecap: square"/>
    </g>
    <g id="text_18">
     <!-- no-reg -->
     <g transform="translate(281.973437 64.073053) scale(0.1 -0.1)">
      <use xlink:href="#DejaVuSans-6e"/>
      <use xlink:href="#DejaVuSans-6f" transform="translate(63.378906 0)"/>
      <use xlink:href="#DejaVuSans-2d" transform="translate(126.435547 0)"/>
      <use xlink:href="#DejaVuSans-72" transform="translate(162.519531 0)"/>
      <use xlink:href="#DejaVuSans-65" transform="translate(201.382812 0)"/>
      <use xlink:href="#DejaVuSans-67" transform="translate(262.90625 0)"/>
     </g>
    </g>
    <g id="line2d_33">
     <path d="M 253.973437 75.251178 
L 263.973437 75.251178 
L 273.973437 75.251178 
" style="fill: none; stroke: #9467bd; stroke-width: 1.8; stroke-linecap: square"/>
    </g>
    <g id="text_19">
     <!-- mem-batch -->
     <g transform="translate(281.973437 78.751178) scale(0.1 -0.1)">
      <defs>
       <path id="DejaVuSans-6d" d="M 3328 2828 
Q 3544 3216 3844 3400 
Q 4144 3584 4550 3584 
Q 5097 3584 5394 3201 
Q 5691 2819 5691 2113 
L 5691 0 
L 5113 0 
L 5113 2094 
Q 5113 2597 4934 2840 
Q 4756 3084 4391 3084 
Q 3944 3084 3684 2787 
Q 3425 2491 3425 1978 
L 3425 0 
L 2847 0 
L 2847 2094 
Q 2847 2600 2669 2842 
Q 2491 3084 2119 3084 
Q 1678 3084 1418 2786 
Q 1159 2488 1159 1978 
L 1159 0 
L 581 0 
L 581 3500 
L 1159 3500 
L 1159 2956 
Q 1356 3278 1631 3431 
Q 1906 3584 2284 3584 
Q 2666 3584 2933 3390 
Q 3200 3197 3328 2828 
z
" transform="scale(0.015625)"/>
       <path id="DejaVuSans-62" d="M 3116 1747 
Q 3116 2381 2855 2742 
Q 2594 3103 2138 3103 
Q 1681 3103 1420 2742 
Q 1159 2381 1159 1747 
Q 1159 1113 1420 752 
Q 1681 391 2138 391 
Q 2594 391 2855 752 
Q 3116 1113 3116 1747 
z
M 1159 2969 
Q 1341 3281 1617 3432 
Q 1894 3584 2278 3584 
Q 2916 3584 3314 3078 
Q 3713 2572 3713 1747 
Q 3713 922 3314 415 
Q 2916 -91 2278 -91 
Q 1894 -91 1617 61 
Q 1341 213 1159 525 
L 1159 0 
L 581 0 
L 581 4863 
L 1159 4863 
L 1159 2969 
z
" transform="scale(0.015625)"/>
      </defs>
      <use xlink:href="#DejaVuSans-6d"/>
      <use xlink:href="#DejaVuSans-65" transform="translate(97.412109 0)"/>
      <use xlink:href="#DejaVuSans-6d" transform="translate(158.935547 0)"/>
      <use xlink:href="#DejaVuSans-2d" transform="translate(256.347656 0)"/>
      <use xlink:href="#DejaVuSans-62" transform="translate(292.431641 0)"/>
      <use xlink:href="#DejaVuSans-61" transform="translate(355.908203 0)"/>
      <use xlink:href="#DejaVuSans-74" transform="translate(417.1875 0)"/>
      <use xlink:href="#DejaVuSans-63" transform="translate(456.396484 0)"/>
      <use xlink:href="#DejaVuSans-68" transform="translate(511.376953 0)"/>
     </g>
    </g>
   </g>
  </g>
  <g id="axes_2">
   <g id="patch_7">
    <path d="M 407.511563 230.658119 
L 709.048197 230.658119 
L 709.048197 18.118365 
L 407.511563 18.118365 
z
" style="fill: #ffffff"/>
   </g>
   <g id="matplotlib.axis_3">
    <g id="xtick_7">
     <g id="line2d_34">
      <path d="M 420.116873 230.658119 
L 420.116873 18.118365 
" clip-path="url(#p74d6587e92)" style="fill: none; stroke: #b0b0b0; stroke-opacity: 0.25; stroke-width: 0.8; stroke-linecap: square"/>
     </g>
     <g id="line2d_35">
      <g>
       <use xlink:href="#meba69a8d75" x="420.116873" y="230.658119" style="stroke: #000000; stroke-width: 0.8"/>
      </g>
     </g>
     <g id="text_20">
      <!-- 0 -->
      <g transform="translate(416.935623 245.256557) scale(0.1 -0.1)">
       <use xlink:href="#DejaVuSans-30"/>
      </g>
     </g>
    </g>
    <g id="xtick_8">
     <g id="line2d_36">
      <path d="M 475.161896 230.658119 
L 475.161896 18.118365 
" clip-path="url(#p74d6587e92)" style="fill: none; stroke: #b0b0b0; stroke-opacity: 0.25; stroke-width: 0.8; stroke-linecap: square"/>
     </g>
     <g id="line2d_37">
      <g>
       <use xlink:href="#meba69a8d75" x="475.161896" y="230.658119" style="stroke: #000000; stroke-width: 0.8"/>
      </g>
     </g>
     <g id="text_21">
      <!-- 50 -->
      <g transform="translate(468.799396 245.256557) scale(0.1 -0.1)">
       <use xlink:href="#DejaVuSans-35"/>
       <use xlink:href="#DejaVuSans-30" transform="translate(63.623047 0)"/>
      </g>
     </g>
    </g>
    <g id="xtick_9">
     <g id="line2d_38">
      <path d="M 530.206918 230.658119 
L 530.206918 18.118365 
" clip-path="url(#p74d6587e92)" style="fill: none; stroke: #b0b0b0; stroke-opacity: 0.25; stroke-width: 0.8; stroke-linecap: square"/>
     </g>
     <g id="line2d_39">
      <g>
       <use xlink:href="#meba69a8d75" x="530.206918" y="230.658119" style="stroke: #000000; stroke-width: 0.8"/>
      </g>
     </g>
     <g id="text_22">
      <!-- 100 -->
      <g transform="translate(520.663168 245.256557) scale(0.1 -0.1)">
       <use xlink:href="#DejaVuSans-31"/>
       <use xlink:href="#DejaVuSans-30" transform="translate(63.623047 0)"/>
       <use xlink:href="#DejaVuSans-30" transform="translate(127.246094 0)"/>
      </g>
     </g>
    </g>
    <g id="xtick_10">
     <g id="line2d_40">
      <path d="M 585.251941 230.658119 
L 585.251941 18.118365 
" clip-path="url(#p74d6587e92)" style="fill: none; stroke: #b0b0b0; stroke-opacity: 0.25; stroke-width: 0.8; stroke-linecap: square"/>
     </g>
     <g id="line2d_41">
      <g>
       <use xlink:href="#meba69a8d75" x="585.251941" y="230.658119" style="stroke: #000000; stroke-width: 0.8"/>
      </g>
     </g>
     <g id="text_23">
      <!-- 150 -->
      <g transform="translate(575.708191 245.256557) scale(0.1 -0.1)">
       <use xlink:href="#DejaVuSans-31"/>
       <use xlink:href="#DejaVuSans-35" transform="translate(63.623047 0)"/>
       <use xlink:href="#DejaVuSans-30" transform="translate(127.246094 0)"/>
      </g>
     </g>
    </g>
    <g id="xtick_11">
     <g id="line2d_42">
      <path d="M 640.296964 230.658119 
L 640.296964 18.118365 
" clip-path="url(#p74d6587e92)" style="fill: none; stroke: #b0b0b0; stroke-opacity: 0.25; stroke-width: 0.8; stroke-linecap: square"/>
     </g>
     <g id="line2d_43">
      <g>
       <use xlink:href="#meba69a8d75" x="640.296964" y="230.658119" style="stroke: #000000; stroke-width: 0.8"/>
      </g>
     </g>
     <g id="text_24">
      <!-- 200 -->
      <g transform="translate(630.753214 245.256557) scale(0.1 -0.1)">
       <use xlink:href="#DejaVuSans-32"/>
       <use xlink:href="#DejaVuSans-30" transform="translate(63.623047 0)"/>
       <use xlink:href="#DejaVuSans-30" transform="translate(127.246094 0)"/>
      </g>
     </g>
    </g>
    <g id="xtick_12">
     <g id="line2d_44">
      <path d="M 695.341987 230.658119 
L 695.341987 18.118365 
" clip-path="url(#p74d6587e92)" style="fill: none; stroke: #b0b0b0; stroke-opacity: 0.25; stroke-width: 0.8; stroke-linecap: square"/>
     </g>
     <g id="line2d_45">
      <g>
       <use xlink:href="#meba69a8d75" x="695.341987" y="230.658119" style="stroke: #000000; stroke-width: 0.8"/>
      </g>
     </g>
     <g id="text_25">
      <!-- 250 -->
      <g transform="translate(685.798237 245.256557) scale(0.1 -0.1)">
       <use xlink:href="#DejaVuSans-32"/>
       <use xlink:href="#DejaVuSans-35" transform="translate(63.623047 0)"/>
       <use xlink:href="#DejaVuSans-30" transform="translate(127.246094 0)"/>
      </g>
     </g>
    </g>
    <g id="text_26">
     <!-- Input -->
     <g transform="translate(544.038317 259.694526) scale(0.11 -0.11)">
      <use xlink:href="#DejaVuSans-49"/>
      <use xlink:href="#DejaVuSans-6e" transform="translate(29.492188 0)"/>
      <use xlink:href="#DejaVuSans-70" transform="translate(92.871094 0)"/>
      <use xlink:href="#DejaVuSans-75" transform="translate(156.347656 0)"/>
      <use xlink:href="#DejaVuSans-74" transform="translate(219.726562 0)"/>
     </g>
    </g>
   </g>
   <g id="matplotlib.axis_4">
    <g id="ytick_7">
     <g id="line2d_46">
      <path d="M 407.511563 185.693195 
L 709.048197 185.693195 
" clip-path="url(#p74d6587e92)" style="fill: none; stroke: #b0b0b0; stroke-opacity: 0.25; stroke-width: 0.8; stroke-linecap: square"/>
     </g>
     <g id="line2d_47">
      <g>
       <use xlink:href="#mfda5ac9e76" x="407.511563" y="185.693195" style="stroke: #000000; stroke-width: 0.8"/>
      </g>
     </g>
     <g id="text_27">
      <!-- 0.95 -->
      <g transform="translate(378.245938 189.492414) scale(0.1 -0.1)">
       <use xlink:href="#DejaVuSans-30"/>
       <use xlink:href="#DejaVuSans-2e" transform="translate(63.623047 0)"/>
       <use xlink:href="#DejaVuSans-39" transform="translate(95.410156 0)"/>
       <use xlink:href="#DejaVuSans-35" transform="translate(159.033203 0)"/>
      </g>
     </g>
    </g>
    <g id="ytick_8">
     <g id="line2d_48">
      <path d="M 407.511563 139.23436 
L 709.048197 139.23436 
" clip-path="url(#p74d6587e92)" style="fill: none; stroke: #b0b0b0; stroke-opacity: 0.25; stroke-width: 0.8; stroke-linecap: square"/>
     </g>
     <g id="line2d_49">
      <g>
       <use xlink:href="#mfda5ac9e76" x="407.511563" y="139.23436" style="stroke: #000000; stroke-width: 0.8"/>
      </g>
     </g>
     <g id="text_28">
      <!-- 1.00 -->
      <g transform="translate(378.245938 143.033579) scale(0.1 -0.1)">
       <use xlink:href="#DejaVuSans-31"/>
       <use xlink:href="#DejaVuSans-2e" transform="translate(63.623047 0)"/>
       <use xlink:href="#DejaVuSans-30" transform="translate(95.410156 0)"/>
       <use xlink:href="#DejaVuSans-30" transform="translate(159.033203 0)"/>
      </g>
     </g>
    </g>
    <g id="ytick_9">
     <g id="line2d_50">
      <path d="M 407.511563 92.775525 
L 709.048197 92.775525 
" clip-path="url(#p74d6587e92)" style="fill: none; stroke: #b0b0b0; stroke-opacity: 0.25; stroke-width: 0.8; stroke-linecap: square"/>
     </g>
     <g id="line2d_51">
      <g>
       <use xlink:href="#mfda5ac9e76" x="407.511563" y="92.775525" style="stroke: #000000; stroke-width: 0.8"/>
      </g>
     </g>
     <g id="text_29">
      <!-- 1.05 -->
      <g transform="translate(378.245938 96.574744) scale(0.1 -0.1)">
       <use xlink:href="#DejaVuSans-31"/>
       <use xlink:href="#DejaVuSans-2e" transform="translate(63.623047 0)"/>
       <use xlink:href="#DejaVuSans-30" transform="translate(95.410156 0)"/>
       <use xlink:href="#DejaVuSans-35" transform="translate(159.033203 0)"/>
      </g>
     </g>
    </g>
    <g id="ytick_10">
     <g id="line2d_52">
      <path d="M 407.511563 46.31669 
L 709.048197 46.31669 
" clip-path="url(#p74d6587e92)" style="fill: none; stroke: #b0b0b0; stroke-opacity: 0.25; stroke-width: 0.8; stroke-linecap: square"/>
     </g>
     <g id="line2d_53">
      <g>
       <use xlink:href="#mfda5ac9e76" x="407.511563" y="46.31669" style="stroke: #000000; stroke-width: 0.8"/>
      </g>
     </g>
     <g id="text_30">
      <!-- 1.10 -->
      <g transform="translate(378.245938 50.115909) scale(0.1 -0.1)">
       <use xlink:href="#DejaVuSans-31"/>
       <use xlink:href="#DejaVuSans-2e" transform="translate(63.623047 0)"/>
       <use xlink:href="#DejaVuSans-31" transform="translate(95.410156 0)"/>
       <use xlink:href="#DejaVuSans-30" transform="translate(159.033203 0)"/>
      </g>
     </g>
    </g>
    <g id="text_31">
     <!-- Speedup vs untouched -->
     <g transform="translate(371.958281 187.589258) rotate(-90) scale(0.11 -0.11)">
      <use xlink:href="#DejaVuSans-53"/>
      <use xlink:href="#DejaVuSans-70" transform="translate(63.476562 0)"/>
      <use xlink:href="#DejaVuSans-65" transform="translate(126.953125 0)"/>
      <use xlink:href="#DejaVuSans-65" transform="translate(188.476562 0)"/>
      <use xlink:href="#DejaVuSans-64" transform="translate(250 0)"/>
      <use xlink:href="#DejaVuSans-75" transform="translate(313.476562 0)"/>
      <use xlink:href="#DejaVuSans-70" transform="translate(376.855469 0)"/>
      <use xlink:href="#DejaVuSans-20" transform="translate(440.332031 0)"/>
      <use xlink:href="#DejaVuSans-76" transform="translate(472.119141 0)"/>
      <use xlink:href="#DejaVuSans-73" transform="translate(531.298828 0)"/>
      <use xlink:href="#DejaVuSans-20" transform="translate(583.398438 0)"/>
      <use xlink:href="#DejaVuSans-75" transform="translate(615.185547 0)"/>
      <use xlink:href="#DejaVuSans-6e" transform="translate(678.564453 0)"/>
      <use xlink:href="#DejaVuSans-74" transform="translate(741.943359 0)"/>
      <use xlink:href="#DejaVuSans-6f" transform="translate(781.152344 0)"/>
      <use xlink:href="#DejaVuSans-75" transform="translate(842.333984 0)"/>
      <use xlink:href="#DejaVuSans-63" transform="translate(905.712891 0)"/>
      <use xlink:href="#DejaVuSans-68" transform="translate(960.693359 0)"/>
      <use xlink:href="#DejaVuSans-65" transform="translate(1024.072266 0)"/>
      <use xlink:href="#DejaVuSans-64" transform="translate(1085.595703 0)"/>
     </g>
    </g>
   </g>
   <g id="line2d_54">
    <path d="M 421.217773 187.921497 
L 422.318674 181.12812 
L 423.419574 178.572039 
L 424.520475 171.129032 
L 425.621375 182.03886 
L 426.722275 165.97823 
L 427.823176 158.458705 
L 428.924076 149.718421 
L 430.024977 160.691848 
L 431.125877 150.298225 
L 432.226778 149.431492 
L 433.327678 142.193348 
L 434.428579 150.640607 
L 435.529479 160.56982 
L 436.63038 171.925539 
L 437.73128 169.100177 
L 438.83218 161.200585 
L 439.933081 165.2743 
L 441.033981 138.641893 
L 442.134882 140.092524 
L 443.235782 139.021758 
L 444.336683 153.738608 
L 445.437583 145.529161 
L 446.538484 141.459772 
L 447.639384 138.569504 
L 448.740285 154.674529 
L 449.841185 143.448854 
L 450.942086 141.181984 
L 452.042986 124.085616 
L 453.143886 133.132014 
L 454.244787 160.970429 
L 455.345687 183.845915 
L 456.446588 180.558391 
L 457.547488 169.049382 
L 458.648389 167.046084 
L 459.749289 173.364861 
L 460.85019 194.422784 
L 461.95109 174.060473 
L 463.051991 178.126293 
L 464.152891 167.793205 
L 465.253791 168.780666 
L 466.354692 176.302369 
L 467.455592 165.034512 
L 468.556493 174.175582 
L 469.657393 173.126679 
L 470.758294 158.569952 
L 471.859194 165.368375 
L 472.960095 168.11598 
L 474.060995 156.908263 
L 475.161896 163.990209 
L 477.363696 160.267761 
L 479.565497 162.830382 
L 481.767298 159.944213 
L 483.969099 149.992295 
L 486.1709 133.645247 
L 488.372701 131.973505 
L 490.574502 143.659764 
L 492.776303 144.454306 
L 494.978104 152.124642 
L 497.179905 169.850168 
L 499.381706 170.025536 
L 501.583506 158.371689 
L 503.785307 166.754078 
L 505.987108 162.16429 
L 508.188909 166.878593 
L 510.39071 195.535635 
L 512.592511 188.839623 
L 514.794312 191.448498 
L 516.996113 183.807607 
L 519.197914 176.376122 
L 521.399715 180.958957 
L 523.601516 187.017284 
L 525.803317 173.935657 
L 528.005117 165.140229 
L 530.206918 174.320528 
L 535.711421 189.651999 
L 541.215923 143.799179 
L 546.720425 168.528626 
L 552.224927 152.332817 
L 557.72943 170.866349 
L 563.233932 174.653226 
L 568.738434 168.298903 
L 574.242937 173.352751 
L 579.747439 176.336766 
L 585.251941 178.769933 
L 590.756443 178.078715 
L 596.260946 174.277 
L 601.765448 198.071025 
L 607.26995 174.73353 
L 612.774453 167.23919 
L 618.278955 168.534907 
L 623.783457 172.881923 
L 629.287959 179.001906 
L 634.792462 183.442507 
L 640.296964 176.045243 
L 651.305969 174.387 
L 662.314973 183.954778 
L 673.323978 185.441572 
L 684.332982 165.824513 
L 695.341987 167.000717 
" clip-path="url(#p74d6587e92)" style="fill: none; stroke: #1f77b4; stroke-width: 1.8; stroke-linecap: square"/>
   </g>
   <g id="line2d_55">
    <path d="M 421.217773 184.150448 
L 422.318674 190.395823 
L 423.419574 189.749344 
L 424.520475 189.593398 
L 425.621375 201.340721 
L 426.722275 186.640009 
L 427.823176 175.948912 
L 428.924076 184.889409 
L 430.024977 195.846863 
L 431.125877 187.396522 
L 432.226778 185.700948 
L 433.327678 181.352669 
L 434.428579 189.502102 
L 435.529479 183.265851 
L 436.63038 201.600927 
L 437.73128 200.999541 
L 438.83218 201.438443 
L 439.933081 199.741162 
L 441.033981 180.781344 
L 442.134882 173.514264 
L 443.235782 167.319397 
L 444.336683 181.552941 
L 445.437583 171.557381 
L 446.538484 195.252678 
L 447.639384 167.825205 
L 448.740285 174.893638 
L 449.841185 176.106857 
L 450.942086 173.283911 
L 452.042986 157.525648 
L 453.143886 170.522302 
L 454.244787 195.119251 
L 455.345687 205.693132 
L 456.446588 210.838414 
L 457.547488 196.156193 
L 458.648389 206.424645 
L 459.749289 204.378346 
L 460.85019 214.269061 
L 461.95109 202.246037 
L 463.051991 211.207967 
L 464.152891 194.965289 
L 465.253791 192.709544 
L 466.354692 195.847167 
L 467.455592 186.10885 
L 468.556493 194.228725 
L 469.657393 213.519684 
L 470.758294 197.255163 
L 471.859194 199.44971 
L 472.960095 201.871444 
L 474.060995 185.515787 
L 475.161896 199.662955 
L 477.363696 201.471812 
L 479.565497 198.524439 
L 481.767298 207.881331 
L 483.969099 183.883877 
L 486.1709 164.832577 
L 488.372701 159.018915 
L 490.574502 171.600865 
L 492.776303 169.053005 
L 494.978104 188.353389 
L 497.179905 198.844693 
L 499.381706 198.509556 
L 501.583506 181.00986 
L 503.785307 184.269479 
L 505.987108 198.716457 
L 508.188909 190.856706 
L 510.39071 202.388482 
L 512.592511 205.150771 
L 514.794312 211.786443 
L 516.996113 214.487636 
L 519.197914 210.686094 
L 521.399715 209.814432 
L 523.601516 216.108417 
L 525.803317 207.481846 
L 528.005117 201.935462 
L 530.206918 209.344643 
L 535.711421 204.957295 
L 541.215923 169.804918 
L 546.720425 195.155981 
L 552.224927 197.317264 
L 557.72943 185.791357 
L 563.233932 212.504119 
L 568.738434 208.292597 
L 574.242937 207.509545 
L 579.747439 205.162584 
L 585.251941 215.489285 
L 590.756443 212.84239 
L 596.260946 214.861843 
L 601.765448 220.630239 
L 607.26995 196.414465 
L 612.774453 188.64084 
L 618.278955 189.896809 
L 623.783457 196.525784 
L 629.287959 198.831916 
L 634.792462 189.065288 
L 640.296964 192.85076 
L 651.305969 195.270016 
L 662.314973 203.040163 
L 673.323978 197.025719 
L 684.332982 202.985294 
L 695.341987 194.738666 
" clip-path="url(#p74d6587e92)" style="fill: none; stroke: #ff7f0e; stroke-width: 1.8; stroke-linecap: square"/>
   </g>
   <g id="line2d_56">
    <path d="M 421.217773 73.664026 
L 422.318674 61.503774 
L 423.419574 64.367947 
L 424.520475 63.212994 
L 425.621375 66.087174 
L 426.722275 53.845385 
L 427.823176 47.146767 
L 428.924076 39.055764 
L 430.024977 79.701903 
L 431.125877 57.926226 
L 432.226778 51.037783 
L 433.327678 55.549085 
L 434.428579 60.353202 
L 435.529479 56.556669 
L 436.63038 91.115813 
L 437.73128 93.804833 
L 438.83218 65.169335 
L 439.933081 57.476147 
L 441.033981 45.35957 
L 442.134882 35.083703 
L 443.235782 45.424516 
L 444.336683 53.219719 
L 445.437583 39.363181 
L 446.538484 41.37938 
L 447.639384 37.970368 
L 448.740285 53.707735 
L 449.841185 44.682644 
L 450.942086 47.13949 
L 452.042986 32.876955 
L 453.143886 57.295401 
L 454.244787 75.833372 
L 455.345687 94.298309 
L 456.446588 93.691367 
L 457.547488 79.635816 
L 458.648389 86.416449 
L 459.749289 84.224312 
L 460.85019 96.653575 
L 461.95109 82.047463 
L 463.051991 83.214107 
L 464.152891 73.828856 
L 465.253791 74.791982 
L 466.354692 69.877851 
L 467.455592 64.44287 
L 468.556493 75.190776 
L 469.657393 73.01683 
L 470.758294 62.973637 
L 471.859194 81.528428 
L 472.960095 72.216911 
L 474.060995 67.885658 
L 475.161896 73.231792 
L 477.363696 73.772446 
L 479.565497 69.535079 
L 481.767298 76.970697 
L 483.969099 50.907111 
L 486.1709 29.160564 
L 488.372701 27.779263 
L 490.574502 41.860291 
L 492.776303 51.998069 
L 494.978104 49.012538 
L 497.179905 58.983406 
L 499.381706 65.587054 
L 501.583506 53.768468 
L 503.785307 59.130899 
L 505.987108 66.289102 
L 508.188909 62.597912 
L 510.39071 82.032355 
L 512.592511 81.042377 
L 514.794312 83.837244 
L 516.996113 85.453193 
L 519.197914 85.315152 
L 521.399715 89.147816 
L 523.601516 82.490071 
L 525.803317 70.015909 
L 528.005117 75.740424 
L 530.206918 78.885319 
L 535.711421 75.157233 
L 541.215923 32.969709 
L 546.720425 60.891098 
L 552.224927 49.260338 
L 557.72943 72.920056 
L 563.233932 66.221548 
L 568.738434 67.034524 
L 574.242937 66.986854 
L 579.747439 65.513441 
L 585.251941 79.525449 
L 590.756443 75.143226 
L 596.260946 70.298818 
L 601.765448 78.845249 
L 607.26995 60.895804 
L 612.774453 53.274774 
L 618.278955 52.42905 
L 623.783457 42.681377 
L 629.287959 52.972269 
L 634.792462 48.761968 
L 640.296964 44.161908 
L 651.305969 62.273588 
L 662.314973 68.704608 
L 673.323978 64.910623 
L 684.332982 66.24593 
L 695.341987 63.039215 
" clip-path="url(#p74d6587e92)" style="fill: none; stroke: #d62728; stroke-width: 1.8; stroke-linecap: square"/>
   </g>
   <g id="line2d_57">
    <path d="M 421.217773 189.296168 
L 422.318674 184.913499 
L 423.419574 191.136066 
L 424.520475 188.898248 
L 425.621375 214.156806 
L 426.722275 187.231223 
L 427.823176 183.752813 
L 428.924076 165.723701 
L 430.024977 189.317421 
L 431.125877 171.350032 
L 432.226778 176.848306 
L 433.327678 161.949694 
L 434.428579 173.471625 
L 435.529479 167.190713 
L 436.63038 179.634497 
L 437.73128 186.065415 
L 438.83218 179.813331 
L 439.933081 167.477705 
L 441.033981 131.746469 
L 442.134882 151.707419 
L 443.235782 136.249053 
L 444.336683 148.362832 
L 445.437583 153.044229 
L 446.538484 164.974413 
L 447.639384 144.781841 
L 448.740285 160.032327 
L 449.841185 133.393178 
L 450.942086 145.448701 
L 452.042986 135.306392 
L 453.143886 154.510883 
L 454.244787 170.256495 
L 455.345687 205.186658 
L 456.446588 220.997221 
L 457.547488 196.986122 
L 458.648389 178.396394 
L 459.749289 177.330712 
L 460.85019 183.692064 
L 461.95109 181.801563 
L 463.051991 197.011726 
L 464.152891 179.790212 
L 465.253791 174.088749 
L 466.354692 156.39096 
L 467.455592 151.161379 
L 468.556493 167.54419 
L 469.657393 177.720499 
L 470.758294 170.416909 
L 471.859194 182.348621 
L 472.960095 189.082448 
L 474.060995 177.995765 
L 475.161896 177.658066 
L 477.363696 160.818771 
L 479.565497 156.814104 
L 481.767298 164.620971 
L 483.969099 170.224278 
L 486.1709 148.272789 
L 488.372701 124.434881 
L 490.574502 125.045995 
L 492.776303 129.969637 
L 494.978104 139.766504 
L 497.179905 153.488806 
L 499.381706 167.717887 
L 501.583506 174.322587 
L 503.785307 157.331597 
L 505.987108 157.378094 
L 508.188909 163.840121 
L 510.39071 182.321393 
L 512.592511 183.198331 
L 514.794312 194.321933 
L 516.996113 206.046994 
L 519.197914 210.545687 
L 521.399715 189.29348 
L 523.601516 204.475468 
L 525.803317 198.805521 
L 528.005117 183.870718 
L 530.206918 173.278553 
L 535.711421 176.820507 
L 541.215923 130.102598 
L 546.720425 165.244107 
L 552.224927 149.919695 
L 557.72943 153.376074 
L 563.233932 168.220945 
L 568.738434 157.926291 
L 574.242937 170.419543 
L 579.747439 170.922166 
L 585.251941 168.424393 
L 590.756443 160.198009 
L 596.260946 178.887866 
L 601.765448 170.135156 
L 607.26995 150.46793 
L 612.774453 144.665994 
L 618.278955 144.31469 
L 623.783457 153.381751 
L 629.287959 151.463464 
L 634.792462 143.130058 
L 640.296964 124.992563 
L 651.305969 149.497435 
L 662.314973 158.835579 
L 673.323978 150.542584 
L 684.332982 149.403586 
L 695.341987 153.41866 
" clip-path="url(#p74d6587e92)" style="fill: none; stroke: #9467bd; stroke-width: 1.8; stroke-linecap: square"/>
   </g>
   <g id="line2d_58">
    <path d="M 407.511563 139.23436 
L 709.048197 139.23436 
" clip-path="url(#p74d6587e92)" style="fill: none; stroke-dasharray: 3.7,1.6; stroke-dashoffset: 0; stroke: #777777"/>
   </g>
   <g id="patch_8">
    <path d="M 407.511563 230.658119 
L 407.511563 18.118365 
" style="fill: none; stroke: #000000; stroke-width: 0.8; stroke-linejoin: miter; stroke-linecap: square"/>
   </g>
   <g id="patch_9">
    <path d="M 709.048197 230.658119 
L 709.048197 18.118365 
" style="fill: none; stroke: #000000; stroke-width: 0.8; stroke-linejoin: miter; stroke-linecap: square"/>
   </g>
   <g id="patch_10">
    <path d="M 407.511563 230.658119 
L 709.048197 230.658119 
" style="fill: none; stroke: #000000; stroke-width: 0.8; stroke-linejoin: miter; stroke-linecap: square"/>
   </g>
   <g id="patch_11">
    <path d="M 407.511563 18.118365 
L 709.048197 18.118365 
" style="fill: none; stroke: #000000; stroke-width: 0.8; stroke-linejoin: miter; stroke-linecap: square"/>
   </g>
   <g id="text_32">
    <!-- Fibonacci -->
    <g transform="translate(530.37238 12.118365) scale(0.12 -0.12)">
     <defs>
      <path id="DejaVuSans-46" d="M 628 4666 
L 3309 4666 
L 3309 4134 
L 1259 4134 
L 1259 2759 
L 3109 2759 
L 3109 2228 
L 1259 2228 
L 1259 0 
L 628 0 
L 628 4666 
z
" transform="scale(0.015625)"/>
      <path id="DejaVuSans-69" d="M 603 3500 
L 1178 3500 
L 1178 0 
L 603 0 
L 603 3500 
z
M 603 4863 
L 1178 4863 
L 1178 4134 
L 603 4134 
L 603 4863 
z
" transform="scale(0.015625)"/>
     </defs>
     <use xlink:href="#DejaVuSans-46"/>
     <use xlink:href="#DejaVuSans-69" transform="translate(50.269531 0)"/>
     <use xlink:href="#DejaVuSans-62" transform="translate(78.052734 0)"/>
     <use xlink:href="#DejaVuSans-6f" transform="translate(141.529297 0)"/>
     <use xlink:href="#DejaVuSans-6e" transform="translate(202.710938 0)"/>
     <use xlink:href="#DejaVuSans-61" transform="translate(266.089844 0)"/>
     <use xlink:href="#DejaVuSans-63" transform="translate(327.369141 0)"/>
     <use xlink:href="#DejaVuSans-63" transform="translate(382.349609 0)"/>
     <use xlink:href="#DejaVuSans-69" transform="translate(437.330078 0)"/>
    </g>
   </g>
   <g id="legend_2">
    <g id="line2d_59">
     <path d="M 515.54238 101.63043 
L 525.54238 101.63043 
L 535.54238 101.63043 
" style="fill: none; stroke: #1f77b4; stroke-width: 1.8; stroke-linecap: square"/>
    </g>
    <g id="text_33">
     <!-- 32-reg -->
     <g transform="translate(543.54238 105.13043) scale(0.1 -0.1)">
      <use xlink:href="#DejaVuSans-33"/>
      <use xlink:href="#DejaVuSans-32" transform="translate(63.623047 0)"/>
      <use xlink:href="#DejaVuSans-2d" transform="translate(127.246094 0)"/>
      <use xlink:href="#DejaVuSans-72" transform="translate(163.330078 0)"/>
      <use xlink:href="#DejaVuSans-65" transform="translate(202.193359 0)"/>
      <use xlink:href="#DejaVuSans-67" transform="translate(263.716797 0)"/>
     </g>
    </g>
    <g id="line2d_60">
     <path d="M 515.54238 116.308555 
L 525.54238 116.308555 
L 535.54238 116.308555 
" style="fill: none; stroke: #ff7f0e; stroke-width: 1.8; stroke-linecap: square"/>
    </g>
    <g id="text_34">
     <!-- v-reg -->
     <g transform="translate(543.54238 119.808555) scale(0.1 -0.1)">
      <use xlink:href="#DejaVuSans-76"/>
      <use xlink:href="#DejaVuSans-2d" transform="translate(56.554688 0)"/>
      <use xlink:href="#DejaVuSans-72" transform="translate(92.638672 0)"/>
      <use xlink:href="#DejaVuSans-65" transform="translate(131.501953 0)"/>
      <use xlink:href="#DejaVuSans-67" transform="translate(193.025391 0)"/>
     </g>
    </g>
    <g id="line2d_61">
     <path d="M 515.54238 130.98668 
L 525.54238 130.98668 
L 535.54238 130.98668 
" style="fill: none; stroke: #d62728; stroke-width: 1.8; stroke-linecap: square"/>
    </g>
    <g id="text_35">
     <!-- no-reg -->
     <g transform="translate(543.54238 134.48668) scale(0.1 -0.1)">
      <use xlink:href="#DejaVuSans-6e"/>
      <use xlink:href="#DejaVuSans-6f" transform="translate(63.378906 0)"/>
      <use xlink:href="#DejaVuSans-2d" transform="translate(126.435547 0)"/>
      <use xlink:href="#DejaVuSans-72" transform="translate(162.519531 0)"/>
      <use xlink:href="#DejaVuSans-65" transform="translate(201.382812 0)"/>
      <use xlink:href="#DejaVuSans-67" transform="translate(262.90625 0)"/>
     </g>
    </g>
    <g id="line2d_62">
     <path d="M 515.54238 145.664805 
L 525.54238 145.664805 
L 535.54238 145.664805 
" style="fill: none; stroke: #9467bd; stroke-width: 1.8; stroke-linecap: square"/>
    </g>
    <g id="text_36">
     <!-- mem-batch -->
     <g transform="translate(543.54238 149.164805) scale(0.1 -0.1)">
      <use xlink:href="#DejaVuSans-6d"/>
      <use xlink:href="#DejaVuSans-65" transform="translate(97.412109 0)"/>
      <use xlink:href="#DejaVuSans-6d" transform="translate(158.935547 0)"/>
      <use xlink:href="#DejaVuSans-2d" transform="translate(256.347656 0)"/>
      <use xlink:href="#DejaVuSans-62" transform="translate(292.431641 0)"/>
      <use xlink:href="#DejaVuSans-61" transform="translate(355.908203 0)"/>
      <use xlink:href="#DejaVuSans-74" transform="translate(417.1875 0)"/>
      <use xlink:href="#DejaVuSans-63" transform="translate(456.396484 0)"/>
      <use xlink:href="#DejaVuSans-68" transform="translate(511.376953 0)"/>
     </g>
    </g>
   </g>
  </g>
  <g id="axes_3">
   <g id="patch_12">
    <path d="M 46.911803 484.321635 
L 348.448437 484.321635 
L 348.448437 271.781881 
L 46.911803 271.781881 
z
" style="fill: #ffffff"/>
   </g>
   <g id="matplotlib.axis_5">
    <g id="xtick_13">
     <g id="line2d_63">
      <path d="M 46.911803 484.321635 
L 46.911803 271.781881 
" clip-path="url(#p5ee9f41d7c)" style="fill: none; stroke: #b0b0b0; stroke-opacity: 0.25; stroke-width: 0.8; stroke-linecap: square"/>
     </g>
     <g id="line2d_64">
      <g>
       <use xlink:href="#meba69a8d75" x="46.911803" y="484.321635" style="stroke: #000000; stroke-width: 0.8"/>
      </g>
     </g>
     <g id="text_37">
      <!-- 0.0 -->
      <g transform="translate(38.96024 498.920073) scale(0.1 -0.1)">
       <use xlink:href="#DejaVuSans-30"/>
       <use xlink:href="#DejaVuSans-2e" transform="translate(63.623047 0)"/>
       <use xlink:href="#DejaVuSans-30" transform="translate(95.410156 0)"/>
      </g>
     </g>
    </g>
    <g id="xtick_14">
     <g id="line2d_65">
      <path d="M 107.219129 484.321635 
L 107.219129 271.781881 
" clip-path="url(#p5ee9f41d7c)" style="fill: none; stroke: #b0b0b0; stroke-opacity: 0.25; stroke-width: 0.8; stroke-linecap: square"/>
     </g>
     <g id="line2d_66">
      <g>
       <use xlink:href="#meba69a8d75" x="107.219129" y="484.321635" style="stroke: #000000; stroke-width: 0.8"/>
      </g>
     </g>
     <g id="text_38">
      <!-- 0.2 -->
      <g transform="translate(99.267567 498.920073) scale(0.1 -0.1)">
       <use xlink:href="#DejaVuSans-30"/>
       <use xlink:href="#DejaVuSans-2e" transform="translate(63.623047 0)"/>
       <use xlink:href="#DejaVuSans-32" transform="translate(95.410156 0)"/>
      </g>
     </g>
    </g>
    <g id="xtick_15">
     <g id="line2d_67">
      <path d="M 167.526456 484.321635 
L 167.526456 271.781881 
" clip-path="url(#p5ee9f41d7c)" style="fill: none; stroke: #b0b0b0; stroke-opacity: 0.25; stroke-width: 0.8; stroke-linecap: square"/>
     </g>
     <g id="line2d_68">
      <g>
       <use xlink:href="#meba69a8d75" x="167.526456" y="484.321635" style="stroke: #000000; stroke-width: 0.8"/>
      </g>
     </g>
     <g id="text_39">
      <!-- 0.4 -->
      <g transform="translate(159.574894 498.920073) scale(0.1 -0.1)">
       <defs>
        <path id="DejaVuSans-34" d="M 2419 4116 
L 825 1625 
L 2419 1625 
L 2419 4116 
z
M 2253 4666 
L 3047 4666 
L 3047 1625 
L 3713 1625 
L 3713 1100 
L 3047 1100 
L 3047 0 
L 2419 0 
L 2419 1100 
L 313 1100 
L 313 1709 
L 2253 4666 
z
" transform="scale(0.015625)"/>
       </defs>
       <use xlink:href="#DejaVuSans-30"/>
       <use xlink:href="#DejaVuSans-2e" transform="translate(63.623047 0)"/>
       <use xlink:href="#DejaVuSans-34" transform="translate(95.410156 0)"/>
      </g>
     </g>
    </g>
    <g id="xtick_16">
     <g id="line2d_69">
      <path d="M 227.833783 484.321635 
L 227.833783 271.781881 
" clip-path="url(#p5ee9f41d7c)" style="fill: none; stroke: #b0b0b0; stroke-opacity: 0.25; stroke-width: 0.8; stroke-linecap: square"/>
     </g>
     <g id="line2d_70">
      <g>
       <use xlink:href="#meba69a8d75" x="227.833783" y="484.321635" style="stroke: #000000; stroke-width: 0.8"/>
      </g>
     </g>
     <g id="text_40">
      <!-- 0.6 -->
      <g transform="translate(219.882221 498.920073) scale(0.1 -0.1)">
       <defs>
        <path id="DejaVuSans-36" d="M 2113 2584 
Q 1688 2584 1439 2293 
Q 1191 2003 1191 1497 
Q 1191 994 1439 701 
Q 1688 409 2113 409 
Q 2538 409 2786 701 
Q 3034 994 3034 1497 
Q 3034 2003 2786 2293 
Q 2538 2584 2113 2584 
z
M 3366 4563 
L 3366 3988 
Q 3128 4100 2886 4159 
Q 2644 4219 2406 4219 
Q 1781 4219 1451 3797 
Q 1122 3375 1075 2522 
Q 1259 2794 1537 2939 
Q 1816 3084 2150 3084 
Q 2853 3084 3261 2657 
Q 3669 2231 3669 1497 
Q 3669 778 3244 343 
Q 2819 -91 2113 -91 
Q 1303 -91 875 529 
Q 447 1150 447 2328 
Q 447 3434 972 4092 
Q 1497 4750 2381 4750 
Q 2619 4750 2861 4703 
Q 3103 4656 3366 4563 
z
" transform="scale(0.015625)"/>
       </defs>
       <use xlink:href="#DejaVuSans-30"/>
       <use xlink:href="#DejaVuSans-2e" transform="translate(63.623047 0)"/>
       <use xlink:href="#DejaVuSans-36" transform="translate(95.410156 0)"/>
      </g>
     </g>
    </g>
    <g id="xtick_17">
     <g id="line2d_71">
      <path d="M 288.14111 484.321635 
L 288.14111 271.781881 
" clip-path="url(#p5ee9f41d7c)" style="fill: none; stroke: #b0b0b0; stroke-opacity: 0.25; stroke-width: 0.8; stroke-linecap: square"/>
     </g>
     <g id="line2d_72">
      <g>
       <use xlink:href="#meba69a8d75" x="288.14111" y="484.321635" style="stroke: #000000; stroke-width: 0.8"/>
      </g>
     </g>
     <g id="text_41">
      <!-- 0.8 -->
      <g transform="translate(280.189548 498.920073) scale(0.1 -0.1)">
       <defs>
        <path id="DejaVuSans-38" d="M 2034 2216 
Q 1584 2216 1326 1975 
Q 1069 1734 1069 1313 
Q 1069 891 1326 650 
Q 1584 409 2034 409 
Q 2484 409 2743 651 
Q 3003 894 3003 1313 
Q 3003 1734 2745 1975 
Q 2488 2216 2034 2216 
z
M 1403 2484 
Q 997 2584 770 2862 
Q 544 3141 544 3541 
Q 544 4100 942 4425 
Q 1341 4750 2034 4750 
Q 2731 4750 3128 4425 
Q 3525 4100 3525 3541 
Q 3525 3141 3298 2862 
Q 3072 2584 2669 2484 
Q 3125 2378 3379 2068 
Q 3634 1759 3634 1313 
Q 3634 634 3220 271 
Q 2806 -91 2034 -91 
Q 1263 -91 848 271 
Q 434 634 434 1313 
Q 434 1759 690 2068 
Q 947 2378 1403 2484 
z
M 1172 3481 
Q 1172 3119 1398 2916 
Q 1625 2713 2034 2713 
Q 2441 2713 2670 2916 
Q 2900 3119 2900 3481 
Q 2900 3844 2670 4047 
Q 2441 4250 2034 4250 
Q 1625 4250 1398 4047 
Q 1172 3844 1172 3481 
z
" transform="scale(0.015625)"/>
       </defs>
       <use xlink:href="#DejaVuSans-30"/>
       <use xlink:href="#DejaVuSans-2e" transform="translate(63.623047 0)"/>
       <use xlink:href="#DejaVuSans-38" transform="translate(95.410156 0)"/>
      </g>
     </g>
    </g>
    <g id="xtick_18">
     <g id="line2d_73">
      <path d="M 348.448437 484.321635 
L 348.448437 271.781881 
" clip-path="url(#p5ee9f41d7c)" style="fill: none; stroke: #b0b0b0; stroke-opacity: 0.25; stroke-width: 0.8; stroke-linecap: square"/>
     </g>
     <g id="line2d_74">
      <g>
       <use xlink:href="#meba69a8d75" x="348.448437" y="484.321635" style="stroke: #000000; stroke-width: 0.8"/>
      </g>
     </g>
     <g id="text_42">
      <!-- 1.0 -->
      <g transform="translate(340.496875 498.920073) scale(0.1 -0.1)">
       <use xlink:href="#DejaVuSans-31"/>
       <use xlink:href="#DejaVuSans-2e" transform="translate(63.623047 0)"/>
       <use xlink:href="#DejaVuSans-30" transform="translate(95.410156 0)"/>
      </g>
     </g>
    </g>
   </g>
   <g id="matplotlib.axis_6">
    <g id="ytick_11">
     <g id="line2d_75">
      <path d="M 46.911803 484.321635 
L 348.448437 484.321635 
" clip-path="url(#p5ee9f41d7c)" style="fill: none; stroke: #b0b0b0; stroke-opacity: 0.25; stroke-width: 0.8; stroke-linecap: square"/>
     </g>
     <g id="line2d_76">
      <g>
       <use xlink:href="#mfda5ac9e76" x="46.911803" y="484.321635" style="stroke: #000000; stroke-width: 0.8"/>
      </g>
     </g>
     <g id="text_43">
      <!-- 0.0 -->
      <g transform="translate(24.008677 488.120854) scale(0.1 -0.1)">
       <use xlink:href="#DejaVuSans-30"/>
       <use xlink:href="#DejaVuSans-2e" transform="translate(63.623047 0)"/>
       <use xlink:href="#DejaVuSans-30" transform="translate(95.410156 0)"/>
      </g>
     </g>
    </g>
    <g id="ytick_12">
     <g id="line2d_77">
      <path d="M 46.911803 441.813684 
L 348.448437 441.813684 
" clip-path="url(#p5ee9f41d7c)" style="fill: none; stroke: #b0b0b0; stroke-opacity: 0.25; stroke-width: 0.8; stroke-linecap: square"/>
     </g>
     <g id="line2d_78">
      <g>
       <use xlink:href="#mfda5ac9e76" x="46.911803" y="441.813684" style="stroke: #000000; stroke-width: 0.8"/>
      </g>
     </g>
     <g id="text_44">
      <!-- 0.2 -->
      <g transform="translate(24.008677 445.612903) scale(0.1 -0.1)">
       <use xlink:href="#DejaVuSans-30"/>
       <use xlink:href="#DejaVuSans-2e" transform="translate(63.623047 0)"/>
       <use xlink:href="#DejaVuSans-32" transform="translate(95.410156 0)"/>
      </g>
     </g>
    </g>
    <g id="ytick_13">
     <g id="line2d_79">
      <path d="M 46.911803 399.305733 
L 348.448437 399.305733 
" clip-path="url(#p5ee9f41d7c)" style="fill: none; stroke: #b0b0b0; stroke-opacity: 0.25; stroke-width: 0.8; stroke-linecap: square"/>
     </g>
     <g id="line2d_80">
      <g>
       <use xlink:href="#mfda5ac9e76" x="46.911803" y="399.305733" style="stroke: #000000; stroke-width: 0.8"/>
      </g>
     </g>
     <g id="text_45">
      <!-- 0.4 -->
      <g transform="translate(24.008677 403.104952) scale(0.1 -0.1)">
       <use xlink:href="#DejaVuSans-30"/>
       <use xlink:href="#DejaVuSans-2e" transform="translate(63.623047 0)"/>
       <use xlink:href="#DejaVuSans-34" transform="translate(95.410156 0)"/>
      </g>
     </g>
    </g>
    <g id="ytick_14">
     <g id="line2d_81">
      <path d="M 46.911803 356.797782 
L 348.448437 356.797782 
" clip-path="url(#p5ee9f41d7c)" style="fill: none; stroke: #b0b0b0; stroke-opacity: 0.25; stroke-width: 0.8; stroke-linecap: square"/>
     </g>
     <g id="line2d_82">
      <g>
       <use xlink:href="#mfda5ac9e76" x="46.911803" y="356.797782" style="stroke: #000000; stroke-width: 0.8"/>
      </g>
     </g>
     <g id="text_46">
      <!-- 0.6 -->
      <g transform="translate(24.008677 360.597001) scale(0.1 -0.1)">
       <use xlink:href="#DejaVuSans-30"/>
       <use xlink:href="#DejaVuSans-2e" transform="translate(63.623047 0)"/>
       <use xlink:href="#DejaVuSans-36" transform="translate(95.410156 0)"/>
      </g>
     </g>
    </g>
    <g id="ytick_15">
     <g id="line2d_83">
      <path d="M 46.911803 314.289831 
L 348.448437 314.289831 
" clip-path="url(#p5ee9f41d7c)" style="fill: none; stroke: #b0b0b0; stroke-opacity: 0.25; stroke-width: 0.8; stroke-linecap: square"/>
     </g>
     <g id="line2d_84">
      <g>
       <use xlink:href="#mfda5ac9e76" x="46.911803" y="314.289831" style="stroke: #000000; stroke-width: 0.8"/>
      </g>
     </g>
     <g id="text_47">
      <!-- 0.8 -->
      <g transform="translate(24.008677 318.08905) scale(0.1 -0.1)">
       <use xlink:href="#DejaVuSans-30"/>
       <use xlink:href="#DejaVuSans-2e" transform="translate(63.623047 0)"/>
       <use xlink:href="#DejaVuSans-38" transform="translate(95.410156 0)"/>
      </g>
     </g>
    </g>
    <g id="ytick_16">
     <g id="line2d_85">
      <path d="M 46.911803 271.781881 
L 348.448437 271.781881 
" clip-path="url(#p5ee9f41d7c)" style="fill: none; stroke: #b0b0b0; stroke-opacity: 0.25; stroke-width: 0.8; stroke-linecap: square"/>
     </g>
     <g id="line2d_86">
      <g>
       <use xlink:href="#mfda5ac9e76" x="46.911803" y="271.781881" style="stroke: #000000; stroke-width: 0.8"/>
      </g>
     </g>
     <g id="text_48">
      <!-- 1.0 -->
      <g transform="translate(24.008677 275.581099) scale(0.1 -0.1)">
       <use xlink:href="#DejaVuSans-31"/>
       <use xlink:href="#DejaVuSans-2e" transform="translate(63.623047 0)"/>
       <use xlink:href="#DejaVuSans-30" transform="translate(95.410156 0)"/>
      </g>
     </g>
    </g>
   </g>
   <g id="patch_13">
    <path d="M 46.911803 484.321635 
L 46.911803 271.781881 
" style="fill: none; stroke: #000000; stroke-width: 0.8; stroke-linejoin: miter; stroke-linecap: square"/>
   </g>
   <g id="patch_14">
    <path d="M 348.448437 484.321635 
L 348.448437 271.781881 
" style="fill: none; stroke: #000000; stroke-width: 0.8; stroke-linejoin: miter; stroke-linecap: square"/>
   </g>
   <g id="patch_15">
    <path d="M 46.911803 484.321635 
L 348.448437 484.321635 
" style="fill: none; stroke: #000000; stroke-width: 0.8; stroke-linejoin: miter; stroke-linecap: square"/>
   </g>
   <g id="patch_16">
    <path d="M 46.911803 271.781881 
L 348.448437 271.781881 
" style="fill: none; stroke: #000000; stroke-width: 0.8; stroke-linejoin: miter; stroke-linecap: square"/>
   </g>
  </g>
  <g id="axes_4">
   <g id="patch_17">
    <path d="M 407.511563 484.321635 
L 709.048197 484.321635 
L 709.048197 271.781881 
L 407.511563 271.781881 
z
" style="fill: #ffffff"/>
   </g>
   <g id="matplotlib.axis_7">
    <g id="xtick_19">
     <g id="line2d_87">
      <path d="M 407.511563 484.321635 
L 407.511563 271.781881 
" clip-path="url(#pc1e10f7395)" style="fill: none; stroke: #b0b0b0; stroke-opacity: 0.25; stroke-width: 0.8; stroke-linecap: square"/>
     </g>
     <g id="line2d_88">
      <g>
       <use xlink:href="#meba69a8d75" x="407.511563" y="484.321635" style="stroke: #000000; stroke-width: 0.8"/>
      </g>
     </g>
     <g id="text_49">
      <!-- 0.0 -->
      <g transform="translate(399.56 498.920073) scale(0.1 -0.1)">
       <use xlink:href="#DejaVuSans-30"/>
       <use xlink:href="#DejaVuSans-2e" transform="translate(63.623047 0)"/>
       <use xlink:href="#DejaVuSans-30" transform="translate(95.410156 0)"/>
      </g>
     </g>
    </g>
    <g id="xtick_20">
     <g id="line2d_89">
      <path d="M 467.81889 484.321635 
L 467.81889 271.781881 
" clip-path="url(#pc1e10f7395)" style="fill: none; stroke: #b0b0b0; stroke-opacity: 0.25; stroke-width: 0.8; stroke-linecap: square"/>
     </g>
     <g id="line2d_90">
      <g>
       <use xlink:href="#meba69a8d75" x="467.81889" y="484.321635" style="stroke: #000000; stroke-width: 0.8"/>
      </g>
     </g>
     <g id="text_50">
      <!-- 0.2 -->
      <g transform="translate(459.867327 498.920073) scale(0.1 -0.1)">
       <use xlink:href="#DejaVuSans-30"/>
       <use xlink:href="#DejaVuSans-2e" transform="translate(63.623047 0)"/>
       <use xlink:href="#DejaVuSans-32" transform="translate(95.410156 0)"/>
      </g>
     </g>
    </g>
    <g id="xtick_21">
     <g id="line2d_91">
      <path d="M 528.126216 484.321635 
L 528.126216 271.781881 
" clip-path="url(#pc1e10f7395)" style="fill: none; stroke: #b0b0b0; stroke-opacity: 0.25; stroke-width: 0.8; stroke-linecap: square"/>
     </g>
     <g id="line2d_92">
      <g>
       <use xlink:href="#meba69a8d75" x="528.126216" y="484.321635" style="stroke: #000000; stroke-width: 0.8"/>
      </g>
     </g>
     <g id="text_51">
      <!-- 0.4 -->
      <g transform="translate(520.174654 498.920073) scale(0.1 -0.1)">
       <use xlink:href="#DejaVuSans-30"/>
       <use xlink:href="#DejaVuSans-2e" transform="translate(63.623047 0)"/>
       <use xlink:href="#DejaVuSans-34" transform="translate(95.410156 0)"/>
      </g>
     </g>
    </g>
    <g id="xtick_22">
     <g id="line2d_93">
      <path d="M 588.433544 484.321635 
L 588.433544 271.781881 
" clip-path="url(#pc1e10f7395)" style="fill: none; stroke: #b0b0b0; stroke-opacity: 0.25; stroke-width: 0.8; stroke-linecap: square"/>
     </g>
     <g id="line2d_94">
      <g>
       <use xlink:href="#meba69a8d75" x="588.433544" y="484.321635" style="stroke: #000000; stroke-width: 0.8"/>
      </g>
     </g>
     <g id="text_52">
      <!-- 0.6 -->
      <g transform="translate(580.481981 498.920073) scale(0.1 -0.1)">
       <use xlink:href="#DejaVuSans-30"/>
       <use xlink:href="#DejaVuSans-2e" transform="translate(63.623047 0)"/>
       <use xlink:href="#DejaVuSans-36" transform="translate(95.410156 0)"/>
      </g>
     </g>
    </g>
    <g id="xtick_23">
     <g id="line2d_95">
      <path d="M 648.74087 484.321635 
L 648.74087 271.781881 
" clip-path="url(#pc1e10f7395)" style="fill: none; stroke: #b0b0b0; stroke-opacity: 0.25; stroke-width: 0.8; stroke-linecap: square"/>
     </g>
     <g id="line2d_96">
      <g>
       <use xlink:href="#meba69a8d75" x="648.74087" y="484.321635" style="stroke: #000000; stroke-width: 0.8"/>
      </g>
     </g>
     <g id="text_53">
      <!-- 0.8 -->
      <g transform="translate(640.789308 498.920073) scale(0.1 -0.1)">
       <use xlink:href="#DejaVuSans-30"/>
       <use xlink:href="#DejaVuSans-2e" transform="translate(63.623047 0)"/>
       <use xlink:href="#DejaVuSans-38" transform="translate(95.410156 0)"/>
      </g>
     </g>
    </g>
    <g id="xtick_24">
     <g id="line2d_97">
      <path d="M 709.048197 484.321635 
L 709.048197 271.781881 
" clip-path="url(#pc1e10f7395)" style="fill: none; stroke: #b0b0b0; stroke-opacity: 0.25; stroke-width: 0.8; stroke-linecap: square"/>
     </g>
     <g id="line2d_98">
      <g>
       <use xlink:href="#meba69a8d75" x="709.048197" y="484.321635" style="stroke: #000000; stroke-width: 0.8"/>
      </g>
     </g>
     <g id="text_54">
      <!-- 1.0 -->
      <g transform="translate(701.096635 498.920073) scale(0.1 -0.1)">
       <use xlink:href="#DejaVuSans-31"/>
       <use xlink:href="#DejaVuSans-2e" transform="translate(63.623047 0)"/>
       <use xlink:href="#DejaVuSans-30" transform="translate(95.410156 0)"/>
      </g>
     </g>
    </g>
   </g>
   <g id="matplotlib.axis_8">
    <g id="ytick_17">
     <g id="line2d_99">
      <path d="M 407.511563 484.321635 
L 709.048197 484.321635 
" clip-path="url(#pc1e10f7395)" style="fill: none; stroke: #b0b0b0; stroke-opacity: 0.25; stroke-width: 0.8; stroke-linecap: square"/>
     </g>
     <g id="line2d_100">
      <g>
       <use xlink:href="#mfda5ac9e76" x="407.511563" y="484.321635" style="stroke: #000000; stroke-width: 0.8"/>
      </g>
     </g>
     <g id="text_55">
      <!-- 0.0 -->
      <g transform="translate(384.608438 488.120854) scale(0.1 -0.1)">
       <use xlink:href="#DejaVuSans-30"/>
       <use xlink:href="#DejaVuSans-2e" transform="translate(63.623047 0)"/>
       <use xlink:href="#DejaVuSans-30" transform="translate(95.410156 0)"/>
      </g>
     </g>
    </g>
    <g id="ytick_18">
     <g id="line2d_101">
      <path d="M 407.511563 441.813684 
L 709.048197 441.813684 
" clip-path="url(#pc1e10f7395)" style="fill: none; stroke: #b0b0b0; stroke-opacity: 0.25; stroke-width: 0.8; stroke-linecap: square"/>
     </g>
     <g id="line2d_102">
      <g>
       <use xlink:href="#mfda5ac9e76" x="407.511563" y="441.813684" style="stroke: #000000; stroke-width: 0.8"/>
      </g>
     </g>
     <g id="text_56">
      <!-- 0.2 -->
      <g transform="translate(384.608438 445.612903) scale(0.1 -0.1)">
       <use xlink:href="#DejaVuSans-30"/>
       <use xlink:href="#DejaVuSans-2e" transform="translate(63.623047 0)"/>
       <use xlink:href="#DejaVuSans-32" transform="translate(95.410156 0)"/>
      </g>
     </g>
    </g>
    <g id="ytick_19">
     <g id="line2d_103">
      <path d="M 407.511563 399.305733 
L 709.048197 399.305733 
" clip-path="url(#pc1e10f7395)" style="fill: none; stroke: #b0b0b0; stroke-opacity: 0.25; stroke-width: 0.8; stroke-linecap: square"/>
     </g>
     <g id="line2d_104">
      <g>
       <use xlink:href="#mfda5ac9e76" x="407.511563" y="399.305733" style="stroke: #000000; stroke-width: 0.8"/>
      </g>
     </g>
     <g id="text_57">
      <!-- 0.4 -->
      <g transform="translate(384.608438 403.104952) scale(0.1 -0.1)">
       <use xlink:href="#DejaVuSans-30"/>
       <use xlink:href="#DejaVuSans-2e" transform="translate(63.623047 0)"/>
       <use xlink:href="#DejaVuSans-34" transform="translate(95.410156 0)"/>
      </g>
     </g>
    </g>
    <g id="ytick_20">
     <g id="line2d_105">
      <path d="M 407.511563 356.797782 
L 709.048197 356.797782 
" clip-path="url(#pc1e10f7395)" style="fill: none; stroke: #b0b0b0; stroke-opacity: 0.25; stroke-width: 0.8; stroke-linecap: square"/>
     </g>
     <g id="line2d_106">
      <g>
       <use xlink:href="#mfda5ac9e76" x="407.511563" y="356.797782" style="stroke: #000000; stroke-width: 0.8"/>
      </g>
     </g>
     <g id="text_58">
      <!-- 0.6 -->
      <g transform="translate(384.608438 360.597001) scale(0.1 -0.1)">
       <use xlink:href="#DejaVuSans-30"/>
       <use xlink:href="#DejaVuSans-2e" transform="translate(63.623047 0)"/>
       <use xlink:href="#DejaVuSans-36" transform="translate(95.410156 0)"/>
      </g>
     </g>
    </g>
    <g id="ytick_21">
     <g id="line2d_107">
      <path d="M 407.511563 314.289831 
L 709.048197 314.289831 
" clip-path="url(#pc1e10f7395)" style="fill: none; stroke: #b0b0b0; stroke-opacity: 0.25; stroke-width: 0.8; stroke-linecap: square"/>
     </g>
     <g id="line2d_108">
      <g>
       <use xlink:href="#mfda5ac9e76" x="407.511563" y="314.289831" style="stroke: #000000; stroke-width: 0.8"/>
      </g>
     </g>
     <g id="text_59">
      <!-- 0.8 -->
      <g transform="translate(384.608438 318.08905) scale(0.1 -0.1)">
       <use xlink:href="#DejaVuSans-30"/>
       <use xlink:href="#DejaVuSans-2e" transform="translate(63.623047 0)"/>
       <use xlink:href="#DejaVuSans-38" transform="translate(95.410156 0)"/>
      </g>
     </g>
    </g>
    <g id="ytick_22">
     <g id="line2d_109">
      <path d="M 407.511563 271.781881 
L 709.048197 271.781881 
" clip-path="url(#pc1e10f7395)" style="fill: none; stroke: #b0b0b0; stroke-opacity: 0.25; stroke-width: 0.8; stroke-linecap: square"/>
     </g>
     <g id="line2d_110">
      <g>
       <use xlink:href="#mfda5ac9e76" x="407.511563" y="271.781881" style="stroke: #000000; stroke-width: 0.8"/>
      </g>
     </g>
     <g id="text_60">
      <!-- 1.0 -->
      <g transform="translate(384.608438 275.581099) scale(0.1 -0.1)">
       <use xlink:href="#DejaVuSans-31"/>
       <use xlink:href="#DejaVuSans-2e" transform="translate(63.623047 0)"/>
       <use xlink:href="#DejaVuSans-30" transform="translate(95.410156 0)"/>
      </g>
     </g>
    </g>
   </g>
   <g id="patch_18">
    <path d="M 407.511563 484.321635 
L 407.511563 271.781881 
" style="fill: none; stroke: #000000; stroke-width: 0.8; stroke-linejoin: miter; stroke-linecap: square"/>
   </g>
   <g id="patch_19">
    <path d="M 709.048197 484.321635 
L 709.048197 271.781881 
" style="fill: none; stroke: #000000; stroke-width: 0.8; stroke-linejoin: miter; stroke-linecap: square"/>
   </g>
   <g id="patch_20">
    <path d="M 407.511563 484.321635 
L 709.048197 484.321635 
" style="fill: none; stroke: #000000; stroke-width: 0.8; stroke-linejoin: miter; stroke-linecap: square"/>
   </g>
   <g id="patch_21">
    <path d="M 407.511563 271.781881 
L 709.048197 271.781881 
" style="fill: none; stroke: #000000; stroke-width: 0.8; stroke-linejoin: miter; stroke-linecap: square"/>
   </g>
  </g>
 </g>
 <defs>
  <clipPath id="p7fbefe32b7">
   <rect x="46.911803" y="18.118365" width="301.536635" height="212.539754"/>
  </clipPath>
  <clipPath id="p74d6587e92">
   <rect x="407.511563" y="18.118365" width="301.536635" height="212.539754"/>
  </clipPath>
  <clipPath id="p5ee9f41d7c">
   <rect x="46.911803" y="271.781881" width="301.536635" height="212.539754"/>
  </clipPath>
  <clipPath id="pc1e10f7395">
   <rect x="407.511563" y="271.781881" width="301.536635" height="212.539754"/>
  </clipPath>
 </defs>
</svg>
