<?xml version="1.0" encoding="utf-8" standalone="no"?>
<!DOCTYPE svg PUBLIC "-//W3C//DTD SVG 1.1//EN"
  "http://www.w3.org/Graphics/SVG/1.1/DTD/svg11.dtd">
<svg xmlns:xlink="http://www.w3.org/1999/xlink" width="720pt" height="288pt" viewBox="0 0 720 288" xmlns="http://www.w3.org/2000/svg" version="1.1">
 <metadata>
  <rdf:RDF xmlns:dc="http://purl.org/dc/elements/1.1/" xmlns:cc="http://creativecommons.org/ns#" xmlns:rdf="http://www.w3.org/1999/02/22-rdf-syntax-ns#">
   <cc:Work>
    <dc:type rdf:resource="http://purl.org/dc/dcmitype/StillImage"/>
    <dc:date>2025-09-07T06:57:21.252117</dc:date>
    <dc:format>image/svg+xml</dc:format>
    <dc:creator>
     <cc:Agent>
      <dc:title>Matplotlib v3.10.6, https://matplotlib.org/</dc:title>
     </cc:Agent>
    </dc:creator>
   </cc:Work>
  </rdf:RDF>
 </metadata>
 <defs>
  <style type="text/css">*{stroke-linejoin: round; stroke-linecap: butt}</style>
 </defs>
 <g id="figure_1">
  <g id="patch_1">
   <path d="M 0 288 
L 720 288 
L 720 0 
L 0 0 
z
" style="fill: #ffffff"/>
  </g>
  <g id="axes_1">
   <g id="patch_2">
    <path d="M 55.97 244.24 
L 708.12 244.24 
L 708.12 27 
L 55.97 27 
z
" style="fill: #ffffff"/>
   </g>
   <g id="patch_3">
    <path d="M 85.613182 244.24 
L 90.026559 244.24 
L 90.026559 244.24 
L 85.613182 244.24 
z
" clip-path="url(#pe575a22c5a)" style="fill: #1f77b4; stroke: #000000; stroke-width: 0.4; stroke-linejoin: miter"/>
   </g>
   <g id="patch_4">
    <path d="M 162.111716 244.24 
L 166.525092 244.24 
L 166.525092 244.24 
L 162.111716 244.24 
z
" clip-path="url(#pe575a22c5a)" style="fill: #1f77b4; stroke: #000000; stroke-width: 0.4; stroke-linejoin: miter"/>
   </g>
   <g id="patch_5">
    <path d="M 238.610249 244.24 
L 243.023626 244.24 
L 243.023626 244.24 
L 238.610249 244.24 
z
" clip-path="url(#pe575a22c5a)" style="fill: #1f77b4; stroke: #000000; stroke-width: 0.4; stroke-linejoin: miter"/>
   </g>
   <g id="patch_6">
    <path d="M 315.108783 244.24 
L 319.52216 244.24 
L 319.52216 244.24 
L 315.108783 244.24 
z
" clip-path="url(#pe575a22c5a)" style="fill: #1f77b4; stroke: #000000; stroke-width: 0.4; stroke-linejoin: miter"/>
   </g>
   <g id="patch_7">
    <path d="M 391.607317 244.24 
L 396.020694 244.24 
L 396.020694 244.24 
L 391.607317 244.24 
z
" clip-path="url(#pe575a22c5a)" style="fill: #1f77b4; stroke: #000000; stroke-width: 0.4; stroke-linejoin: miter"/>
   </g>
   <g id="patch_8">
    <path d="M 468.10585 244.24 
L 472.519227 244.24 
L 472.519227 244.24 
L 468.10585 244.24 
z
" clip-path="url(#pe575a22c5a)" style="fill: #1f77b4; stroke: #000000; stroke-width: 0.4; stroke-linejoin: miter"/>
   </g>
   <g id="patch_9">
    <path d="M 544.604384 244.24 
L 549.017761 244.24 
L 549.017761 244.24 
L 544.604384 244.24 
z
" clip-path="url(#pe575a22c5a)" style="fill: #1f77b4; stroke: #000000; stroke-width: 0.4; stroke-linejoin: miter"/>
   </g>
   <g id="patch_10">
    <path d="M 621.102918 244.24 
L 625.516295 244.24 
L 625.516295 244.24 
L 621.102918 244.24 
z
" clip-path="url(#pe575a22c5a)" style="fill: #1f77b4; stroke: #000000; stroke-width: 0.4; stroke-linejoin: miter"/>
   </g>
   <g id="patch_11">
    <path d="M 90.026559 244.24 
L 94.439936 244.24 
L 94.439936 242.237788 
L 90.026559 242.237788 
z
" clip-path="url(#pe575a22c5a)" style="fill: #ff7f0e; stroke: #000000; stroke-width: 0.4; stroke-linejoin: miter"/>
   </g>
   <g id="patch_12">
    <path d="M 166.525092 244.24 
L 170.938469 244.24 
L 170.938469 242.237788 
L 166.525092 242.237788 
z
" clip-path="url(#pe575a22c5a)" style="fill: #ff7f0e; stroke: #000000; stroke-width: 0.4; stroke-linejoin: miter"/>
   </g>
   <g id="patch_13">
    <path d="M 243.023626 244.24 
L 247.437003 244.24 
L 247.437003 242.237788 
L 243.023626 242.237788 
z
" clip-path="url(#pe575a22c5a)" style="fill: #ff7f0e; stroke: #000000; stroke-width: 0.4; stroke-linejoin: miter"/>
   </g>
   <g id="patch_14">
    <path d="M 319.52216 244.24 
L 323.935537 244.24 
L 323.935537 242.237788 
L 319.52216 242.237788 
z
" clip-path="url(#pe575a22c5a)" style="fill: #ff7f0e; stroke: #000000; stroke-width: 0.4; stroke-linejoin: miter"/>
   </g>
   <g id="patch_15">
    <path d="M 396.020694 244.24 
L 400.434071 244.24 
L 400.434071 242.237788 
L 396.020694 242.237788 
z
" clip-path="url(#pe575a22c5a)" style="fill: #ff7f0e; stroke: #000000; stroke-width: 0.4; stroke-linejoin: miter"/>
   </g>
   <g id="patch_16">
    <path d="M 472.519227 244.24 
L 476.932604 244.24 
L 476.932604 242.237788 
L 472.519227 242.237788 
z
" clip-path="url(#pe575a22c5a)" style="fill: #ff7f0e; stroke: #000000; stroke-width: 0.4; stroke-linejoin: miter"/>
   </g>
   <g id="patch_17">
    <path d="M 549.017761 244.24 
L 553.431138 244.24 
L 553.431138 242.237788 
L 549.017761 242.237788 
z
" clip-path="url(#pe575a22c5a)" style="fill: #ff7f0e; stroke: #000000; stroke-width: 0.4; stroke-linejoin: miter"/>
   </g>
   <g id="patch_18">
    <path d="M 625.516295 244.24 
L 629.929672 244.24 
L 629.929672 242.237788 
L 625.516295 242.237788 
z
" clip-path="url(#pe575a22c5a)" style="fill: #ff7f0e; stroke: #000000; stroke-width: 0.4; stroke-linejoin: miter"/>
   </g>
   <g id="patch_19">
    <path d="M 94.439936 244.24 
L 98.853313 244.24 
L 98.853313 243.572596 
L 94.439936 243.572596 
z
" clip-path="url(#pe575a22c5a)" style="fill: #2ca02c; stroke: #000000; stroke-width: 0.4; stroke-linejoin: miter"/>
   </g>
   <g id="patch_20">
    <path d="M 170.938469 244.24 
L 175.351846 244.24 
L 175.351846 243.572596 
L 170.938469 243.572596 
z
" clip-path="url(#pe575a22c5a)" style="fill: #2ca02c; stroke: #000000; stroke-width: 0.4; stroke-linejoin: miter"/>
   </g>
   <g id="patch_21">
    <path d="M 247.437003 244.24 
L 251.85038 244.24 
L 251.85038 243.572596 
L 247.437003 243.572596 
z
" clip-path="url(#pe575a22c5a)" style="fill: #2ca02c; stroke: #000000; stroke-width: 0.4; stroke-linejoin: miter"/>
   </g>
   <g id="patch_22">
    <path d="M 323.935537 244.24 
L 328.348914 244.24 
L 328.348914 243.572596 
L 323.935537 243.572596 
z
" clip-path="url(#pe575a22c5a)" style="fill: #2ca02c; stroke: #000000; stroke-width: 0.4; stroke-linejoin: miter"/>
   </g>
   <g id="patch_23">
    <path d="M 400.434071 244.24 
L 404.847448 244.24 
L 404.847448 243.572596 
L 400.434071 243.572596 
z
" clip-path="url(#pe575a22c5a)" style="fill: #2ca02c; stroke: #000000; stroke-width: 0.4; stroke-linejoin: miter"/>
   </g>
   <g id="patch_24">
    <path d="M 476.932604 244.24 
L 481.345981 244.24 
L 481.345981 243.572596 
L 476.932604 243.572596 
z
" clip-path="url(#pe575a22c5a)" style="fill: #2ca02c; stroke: #000000; stroke-width: 0.4; stroke-linejoin: miter"/>
   </g>
   <g id="patch_25">
    <path d="M 553.431138 244.24 
L 557.844515 244.24 
L 557.844515 243.572596 
L 553.431138 243.572596 
z
" clip-path="url(#pe575a22c5a)" style="fill: #2ca02c; stroke: #000000; stroke-width: 0.4; stroke-linejoin: miter"/>
   </g>
   <g id="patch_26">
    <path d="M 629.929672 244.24 
L 634.343049 244.24 
L 634.343049 243.572596 
L 629.929672 243.572596 
z
" clip-path="url(#pe575a22c5a)" style="fill: #2ca02c; stroke: #000000; stroke-width: 0.4; stroke-linejoin: miter"/>
   </g>
   <g id="patch_27">
    <path d="M 98.853313 244.24 
L 103.26669 244.24 
L 103.26669 244.24 
L 98.853313 244.24 
z
" clip-path="url(#pe575a22c5a)" style="fill: #d62728; stroke: #000000; stroke-width: 0.4; stroke-linejoin: miter"/>
   </g>
   <g id="patch_28">
    <path d="M 175.351846 244.24 
L 179.765223 244.24 
L 179.765223 244.24 
L 175.351846 244.24 
z
" clip-path="url(#pe575a22c5a)" style="fill: #d62728; stroke: #000000; stroke-width: 0.4; stroke-linejoin: miter"/>
   </g>
   <g id="patch_29">
    <path d="M 251.85038 244.24 
L 256.263757 244.24 
L 256.263757 244.24 
L 251.85038 244.24 
z
" clip-path="url(#pe575a22c5a)" style="fill: #d62728; stroke: #000000; stroke-width: 0.4; stroke-linejoin: miter"/>
   </g>
   <g id="patch_30">
    <path d="M 328.348914 244.24 
L 332.762291 244.24 
L 332.762291 244.24 
L 328.348914 244.24 
z
" clip-path="url(#pe575a22c5a)" style="fill: #d62728; stroke: #000000; stroke-width: 0.4; stroke-linejoin: miter"/>
   </g>
   <g id="patch_31">
    <path d="M 404.847448 244.24 
L 409.260824 244.24 
L 409.260824 244.24 
L 404.847448 244.24 
z
" clip-path="url(#pe575a22c5a)" style="fill: #d62728; stroke: #000000; stroke-width: 0.4; stroke-linejoin: miter"/>
   </g>
   <g id="patch_32">
    <path d="M 481.345981 244.24 
L 485.759358 244.24 
L 485.759358 244.24 
L 481.345981 244.24 
z
" clip-path="url(#pe575a22c5a)" style="fill: #d62728; stroke: #000000; stroke-width: 0.4; stroke-linejoin: miter"/>
   </g>
   <g id="patch_33">
    <path d="M 557.844515 244.24 
L 562.257892 244.24 
L 562.257892 244.24 
L 557.844515 244.24 
z
" clip-path="url(#pe575a22c5a)" style="fill: #d62728; stroke: #000000; stroke-width: 0.4; stroke-linejoin: miter"/>
   </g>
   <g id="patch_34">
    <path d="M 634.343049 244.24 
L 638.756426 244.24 
L 638.756426 244.24 
L 634.343049 244.24 
z
" clip-path="url(#pe575a22c5a)" style="fill: #d62728; stroke: #000000; stroke-width: 0.4; stroke-linejoin: miter"/>
   </g>
   <g id="patch_35">
    <path d="M 103.26669 244.24 
L 107.680067 244.24 
L 107.680067 241.570384 
L 103.26669 241.570384 
z
" clip-path="url(#pe575a22c5a)" style="fill: #9467bd; stroke: #000000; stroke-width: 0.4; stroke-linejoin: miter"/>
   </g>
   <g id="patch_36">
    <path d="M 179.765223 244.24 
L 184.1786 244.24 
L 184.1786 241.570384 
L 179.765223 241.570384 
z
" clip-path="url(#pe575a22c5a)" style="fill: #9467bd; stroke: #000000; stroke-width: 0.4; stroke-linejoin: miter"/>
   </g>
   <g id="patch_37">
    <path d="M 256.263757 244.24 
L 260.677134 244.24 
L 260.677134 241.570384 
L 256.263757 241.570384 
z
" clip-path="url(#pe575a22c5a)" style="fill: #9467bd; stroke: #000000; stroke-width: 0.4; stroke-linejoin: miter"/>
   </g>
   <g id="patch_38">
    <path d="M 332.762291 244.24 
L 337.175668 244.24 
L 337.175668 241.570384 
L 332.762291 241.570384 
z
" clip-path="url(#pe575a22c5a)" style="fill: #9467bd; stroke: #000000; stroke-width: 0.4; stroke-linejoin: miter"/>
   </g>
   <g id="patch_39">
    <path d="M 409.260824 244.24 
L 413.674201 244.24 
L 413.674201 241.570384 
L 409.260824 241.570384 
z
" clip-path="url(#pe575a22c5a)" style="fill: #9467bd; stroke: #000000; stroke-width: 0.4; stroke-linejoin: miter"/>
   </g>
   <g id="patch_40">
    <path d="M 485.759358 244.24 
L 490.172735 244.24 
L 490.172735 241.570384 
L 485.759358 241.570384 
z
" clip-path="url(#pe575a22c5a)" style="fill: #9467bd; stroke: #000000; stroke-width: 0.4; stroke-linejoin: miter"/>
   </g>
   <g id="patch_41">
    <path d="M 562.257892 244.24 
L 566.671269 244.24 
L 566.671269 241.570384 
L 562.257892 241.570384 
z
" clip-path="url(#pe575a22c5a)" style="fill: #9467bd; stroke: #000000; stroke-width: 0.4; stroke-linejoin: miter"/>
   </g>
   <g id="patch_42">
    <path d="M 638.756426 244.24 
L 643.169803 244.24 
L 643.169803 241.570384 
L 638.756426 241.570384 
z
" clip-path="url(#pe575a22c5a)" style="fill: #9467bd; stroke: #000000; stroke-width: 0.4; stroke-linejoin: miter"/>
   </g>
   <g id="patch_43">
    <path d="M 107.680067 244.24 
L 112.093443 244.24 
L 112.093443 243.572596 
L 107.680067 243.572596 
z
" clip-path="url(#pe575a22c5a)" style="fill: #8c564b; stroke: #000000; stroke-width: 0.4; stroke-linejoin: miter"/>
   </g>
   <g id="patch_44">
    <path d="M 184.1786 244.24 
L 188.591977 244.24 
L 188.591977 243.572596 
L 184.1786 243.572596 
z
" clip-path="url(#pe575a22c5a)" style="fill: #8c564b; stroke: #000000; stroke-width: 0.4; stroke-linejoin: miter"/>
   </g>
   <g id="patch_45">
    <path d="M 260.677134 244.24 
L 265.090511 244.24 
L 265.090511 243.572596 
L 260.677134 243.572596 
z
" clip-path="url(#pe575a22c5a)" style="fill: #8c564b; stroke: #000000; stroke-width: 0.4; stroke-linejoin: miter"/>
   </g>
   <g id="patch_46">
    <path d="M 337.175668 244.24 
L 341.589045 244.24 
L 341.589045 243.572596 
L 337.175668 243.572596 
z
" clip-path="url(#pe575a22c5a)" style="fill: #8c564b; stroke: #000000; stroke-width: 0.4; stroke-linejoin: miter"/>
   </g>
   <g id="patch_47">
    <path d="M 413.674201 244.24 
L 418.087578 244.24 
L 418.087578 243.572596 
L 413.674201 243.572596 
z
" clip-path="url(#pe575a22c5a)" style="fill: #8c564b; stroke: #000000; stroke-width: 0.4; stroke-linejoin: miter"/>
   </g>
   <g id="patch_48">
    <path d="M 490.172735 244.24 
L 494.586112 244.24 
L 494.586112 243.572596 
L 490.172735 243.572596 
z
" clip-path="url(#pe575a22c5a)" style="fill: #8c564b; stroke: #000000; stroke-width: 0.4; stroke-linejoin: miter"/>
   </g>
   <g id="patch_49">
    <path d="M 566.671269 244.24 
L 571.084646 244.24 
L 571.084646 243.572596 
L 566.671269 243.572596 
z
" clip-path="url(#pe575a22c5a)" style="fill: #8c564b; stroke: #000000; stroke-width: 0.4; stroke-linejoin: miter"/>
   </g>
   <g id="patch_50">
    <path d="M 643.169803 244.24 
L 647.58318 244.24 
L 647.58318 243.572596 
L 643.169803 243.572596 
z
" clip-path="url(#pe575a22c5a)" style="fill: #8c564b; stroke: #000000; stroke-width: 0.4; stroke-linejoin: miter"/>
   </g>
   <g id="patch_51">
    <path d="M 112.093443 244.24 
L 116.50682 244.24 
L 116.50682 244.24 
L 112.093443 244.24 
z
" clip-path="url(#pe575a22c5a)" style="fill: #e377c2; stroke: #000000; stroke-width: 0.4; stroke-linejoin: miter"/>
   </g>
   <g id="patch_52">
    <path d="M 188.591977 244.24 
L 193.005354 244.24 
L 193.005354 244.24 
L 188.591977 244.24 
z
" clip-path="url(#pe575a22c5a)" style="fill: #e377c2; stroke: #000000; stroke-width: 0.4; stroke-linejoin: miter"/>
   </g>
   <g id="patch_53">
    <path d="M 265.090511 244.24 
L 269.503888 244.24 
L 269.503888 244.24 
L 265.090511 244.24 
z
" clip-path="url(#pe575a22c5a)" style="fill: #e377c2; stroke: #000000; stroke-width: 0.4; stroke-linejoin: miter"/>
   </g>
   <g id="patch_54">
    <path d="M 341.589045 244.24 
L 346.002422 244.24 
L 346.002422 244.24 
L 341.589045 244.24 
z
" clip-path="url(#pe575a22c5a)" style="fill: #e377c2; stroke: #000000; stroke-width: 0.4; stroke-linejoin: miter"/>
   </g>
   <g id="patch_55">
    <path d="M 418.087578 244.24 
L 422.500955 244.24 
L 422.500955 244.24 
L 418.087578 244.24 
z
" clip-path="url(#pe575a22c5a)" style="fill: #e377c2; stroke: #000000; stroke-width: 0.4; stroke-linejoin: miter"/>
   </g>
   <g id="patch_56">
    <path d="M 494.586112 244.24 
L 498.999489 244.24 
L 498.999489 244.24 
L 494.586112 244.24 
z
" clip-path="url(#pe575a22c5a)" style="fill: #e377c2; stroke: #000000; stroke-width: 0.4; stroke-linejoin: miter"/>
   </g>
   <g id="patch_57">
    <path d="M 571.084646 244.24 
L 575.498023 244.24 
L 575.498023 244.24 
L 571.084646 244.24 
z
" clip-path="url(#pe575a22c5a)" style="fill: #e377c2; stroke: #000000; stroke-width: 0.4; stroke-linejoin: miter"/>
   </g>
   <g id="patch_58">
    <path d="M 647.58318 244.24 
L 651.996557 244.24 
L 651.996557 244.24 
L 647.58318 244.24 
z
" clip-path="url(#pe575a22c5a)" style="fill: #e377c2; stroke: #000000; stroke-width: 0.4; stroke-linejoin: miter"/>
   </g>
   <g id="patch_59">
    <path d="M 116.50682 244.24 
L 120.920197 244.24 
L 120.920197 236.898556 
L 116.50682 236.898556 
z
" clip-path="url(#pe575a22c5a)" style="fill: #7f7f7f; stroke: #000000; stroke-width: 0.4; stroke-linejoin: miter"/>
   </g>
   <g id="patch_60">
    <path d="M 193.005354 244.24 
L 197.418731 244.24 
L 197.418731 236.898556 
L 193.005354 236.898556 
z
" clip-path="url(#pe575a22c5a)" style="fill: #7f7f7f; stroke: #000000; stroke-width: 0.4; stroke-linejoin: miter"/>
   </g>
   <g id="patch_61">
    <path d="M 269.503888 244.24 
L 273.917265 244.24 
L 273.917265 236.898556 
L 269.503888 236.898556 
z
" clip-path="url(#pe575a22c5a)" style="fill: #7f7f7f; stroke: #000000; stroke-width: 0.4; stroke-linejoin: miter"/>
   </g>
   <g id="patch_62">
    <path d="M 346.002422 244.24 
L 350.415799 244.24 
L 350.415799 236.898556 
L 346.002422 236.898556 
z
" clip-path="url(#pe575a22c5a)" style="fill: #7f7f7f; stroke: #000000; stroke-width: 0.4; stroke-linejoin: miter"/>
   </g>
   <g id="patch_63">
    <path d="M 422.500955 244.24 
L 426.914332 244.24 
L 426.914332 236.898556 
L 422.500955 236.898556 
z
" clip-path="url(#pe575a22c5a)" style="fill: #7f7f7f; stroke: #000000; stroke-width: 0.4; stroke-linejoin: miter"/>
   </g>
   <g id="patch_64">
    <path d="M 498.999489 244.24 
L 503.412866 244.24 
L 503.412866 236.898556 
L 498.999489 236.898556 
z
" clip-path="url(#pe575a22c5a)" style="fill: #7f7f7f; stroke: #000000; stroke-width: 0.4; stroke-linejoin: miter"/>
   </g>
   <g id="patch_65">
    <path d="M 575.498023 244.24 
L 579.9114 244.24 
L 579.9114 236.898556 
L 575.498023 236.898556 
z
" clip-path="url(#pe575a22c5a)" style="fill: #7f7f7f; stroke: #000000; stroke-width: 0.4; stroke-linejoin: miter"/>
   </g>
   <g id="patch_66">
    <path d="M 651.996557 244.24 
L 656.409933 244.24 
L 656.409933 236.898556 
L 651.996557 236.898556 
z
" clip-path="url(#pe575a22c5a)" style="fill: #7f7f7f; stroke: #000000; stroke-width: 0.4; stroke-linejoin: miter"/>
   </g>
   <g id="patch_67">
    <path d="M 120.920197 244.24 
L 125.333574 244.24 
L 125.333574 239.568172 
L 120.920197 239.568172 
z
" clip-path="url(#pe575a22c5a)" style="fill: #bcbd22; stroke: #000000; stroke-width: 0.4; stroke-linejoin: miter"/>
   </g>
   <g id="patch_68">
    <path d="M 197.418731 244.24 
L 201.832108 244.24 
L 201.832108 239.568172 
L 197.418731 239.568172 
z
" clip-path="url(#pe575a22c5a)" style="fill: #bcbd22; stroke: #000000; stroke-width: 0.4; stroke-linejoin: miter"/>
   </g>
   <g id="patch_69">
    <path d="M 273.917265 244.24 
L 278.330642 244.24 
L 278.330642 239.568172 
L 273.917265 239.568172 
z
" clip-path="url(#pe575a22c5a)" style="fill: #bcbd22; stroke: #000000; stroke-width: 0.4; stroke-linejoin: miter"/>
   </g>
   <g id="patch_70">
    <path d="M 350.415799 244.24 
L 354.829176 244.24 
L 354.829176 239.568172 
L 350.415799 239.568172 
z
" clip-path="url(#pe575a22c5a)" style="fill: #bcbd22; stroke: #000000; stroke-width: 0.4; stroke-linejoin: miter"/>
   </g>
   <g id="patch_71">
    <path d="M 426.914332 244.24 
L 431.327709 244.24 
L 431.327709 239.568172 
L 426.914332 239.568172 
z
" clip-path="url(#pe575a22c5a)" style="fill: #bcbd22; stroke: #000000; stroke-width: 0.4; stroke-linejoin: miter"/>
   </g>
   <g id="patch_72">
    <path d="M 503.412866 244.24 
L 507.826243 244.24 
L 507.826243 239.568172 
L 503.412866 239.568172 
z
" clip-path="url(#pe575a22c5a)" style="fill: #bcbd22; stroke: #000000; stroke-width: 0.4; stroke-linejoin: miter"/>
   </g>
   <g id="patch_73">
    <path d="M 579.9114 244.24 
L 584.324777 244.24 
L 584.324777 239.568172 
L 579.9114 239.568172 
z
" clip-path="url(#pe575a22c5a)" style="fill: #bcbd22; stroke: #000000; stroke-width: 0.4; stroke-linejoin: miter"/>
   </g>
   <g id="patch_74">
    <path d="M 656.409933 244.24 
L 660.82331 244.24 
L 660.82331 239.568172 
L 656.409933 239.568172 
z
" clip-path="url(#pe575a22c5a)" style="fill: #bcbd22; stroke: #000000; stroke-width: 0.4; stroke-linejoin: miter"/>
   </g>
   <g id="patch_75">
    <path d="M 125.333574 244.24 
L 129.746951 244.24 
L 129.746951 37.344762 
L 125.333574 37.344762 
z
" clip-path="url(#pe575a22c5a)" style="fill: #17becf; stroke: #000000; stroke-width: 0.4; stroke-linejoin: miter"/>
   </g>
   <g id="patch_76">
    <path d="M 201.832108 244.24 
L 206.245485 244.24 
L 206.245485 40.014378 
L 201.832108 40.014378 
z
" clip-path="url(#pe575a22c5a)" style="fill: #17becf; stroke: #000000; stroke-width: 0.4; stroke-linejoin: miter"/>
   </g>
   <g id="patch_77">
    <path d="M 278.330642 244.24 
L 282.744019 244.24 
L 282.744019 38.67957 
L 278.330642 38.67957 
z
" clip-path="url(#pe575a22c5a)" style="fill: #17becf; stroke: #000000; stroke-width: 0.4; stroke-linejoin: miter"/>
   </g>
   <g id="patch_78">
    <path d="M 354.829176 244.24 
L 359.242552 244.24 
L 359.242552 38.67957 
L 354.829176 38.67957 
z
" clip-path="url(#pe575a22c5a)" style="fill: #17becf; stroke: #000000; stroke-width: 0.4; stroke-linejoin: miter"/>
   </g>
   <g id="patch_79">
    <path d="M 431.327709 244.24 
L 435.741086 244.24 
L 435.741086 39.346974 
L 431.327709 39.346974 
z
" clip-path="url(#pe575a22c5a)" style="fill: #17becf; stroke: #000000; stroke-width: 0.4; stroke-linejoin: miter"/>
   </g>
   <g id="patch_80">
    <path d="M 507.826243 244.24 
L 512.23962 244.24 
L 512.23962 38.67957 
L 507.826243 38.67957 
z
" clip-path="url(#pe575a22c5a)" style="fill: #17becf; stroke: #000000; stroke-width: 0.4; stroke-linejoin: miter"/>
   </g>
   <g id="patch_81">
    <path d="M 584.324777 244.24 
L 588.738154 244.24 
L 588.738154 38.67957 
L 584.324777 38.67957 
z
" clip-path="url(#pe575a22c5a)" style="fill: #17becf; stroke: #000000; stroke-width: 0.4; stroke-linejoin: miter"/>
   </g>
   <g id="patch_82">
    <path d="M 660.82331 244.24 
L 665.236687 244.24 
L 665.236687 38.67957 
L 660.82331 38.67957 
z
" clip-path="url(#pe575a22c5a)" style="fill: #17becf; stroke: #000000; stroke-width: 0.4; stroke-linejoin: miter"/>
   </g>
   <g id="patch_83">
    <path d="M 129.746951 244.24 
L 134.160328 244.24 
L 134.160328 206.865376 
L 129.746951 206.865376 
z
" clip-path="url(#pe575a22c5a)" style="fill: #1f77b4; stroke: #000000; stroke-width: 0.4; stroke-linejoin: miter"/>
   </g>
   <g id="patch_84">
    <path d="M 206.245485 244.24 
L 210.658862 244.24 
L 210.658862 206.865376 
L 206.245485 206.865376 
z
" clip-path="url(#pe575a22c5a)" style="fill: #1f77b4; stroke: #000000; stroke-width: 0.4; stroke-linejoin: miter"/>
   </g>
   <g id="patch_85">
    <path d="M 282.744019 244.24 
L 287.157396 244.24 
L 287.157396 206.197972 
L 282.744019 206.197972 
z
" clip-path="url(#pe575a22c5a)" style="fill: #1f77b4; stroke: #000000; stroke-width: 0.4; stroke-linejoin: miter"/>
   </g>
   <g id="patch_86">
    <path d="M 359.242552 244.24 
L 363.655929 244.24 
L 363.655929 206.197972 
L 359.242552 206.197972 
z
" clip-path="url(#pe575a22c5a)" style="fill: #1f77b4; stroke: #000000; stroke-width: 0.4; stroke-linejoin: miter"/>
   </g>
   <g id="patch_87">
    <path d="M 435.741086 244.24 
L 440.154463 244.24 
L 440.154463 206.197972 
L 435.741086 206.197972 
z
" clip-path="url(#pe575a22c5a)" style="fill: #1f77b4; stroke: #000000; stroke-width: 0.4; stroke-linejoin: miter"/>
   </g>
   <g id="patch_88">
    <path d="M 512.23962 244.24 
L 516.652997 244.24 
L 516.652997 206.865376 
L 512.23962 206.865376 
z
" clip-path="url(#pe575a22c5a)" style="fill: #1f77b4; stroke: #000000; stroke-width: 0.4; stroke-linejoin: miter"/>
   </g>
   <g id="patch_89">
    <path d="M 588.738154 244.24 
L 593.151531 244.24 
L 593.151531 206.865376 
L 588.738154 206.865376 
z
" clip-path="url(#pe575a22c5a)" style="fill: #1f77b4; stroke: #000000; stroke-width: 0.4; stroke-linejoin: miter"/>
   </g>
   <g id="patch_90">
    <path d="M 665.236687 244.24 
L 669.650064 244.24 
L 669.650064 206.197972 
L 665.236687 206.197972 
z
" clip-path="url(#pe575a22c5a)" style="fill: #1f77b4; stroke: #000000; stroke-width: 0.4; stroke-linejoin: miter"/>
   </g>
   <g id="patch_91">
    <path d="M 134.160328 244.24 
L 138.573705 244.24 
L 138.573705 236.231152 
L 134.160328 236.231152 
z
" clip-path="url(#pe575a22c5a)" style="fill: #ff7f0e; stroke: #000000; stroke-width: 0.4; stroke-linejoin: miter"/>
   </g>
   <g id="patch_92">
    <path d="M 210.658862 244.24 
L 215.072239 244.24 
L 215.072239 236.231152 
L 210.658862 236.231152 
z
" clip-path="url(#pe575a22c5a)" style="fill: #ff7f0e; stroke: #000000; stroke-width: 0.4; stroke-linejoin: miter"/>
   </g>
   <g id="patch_93">
    <path d="M 287.157396 244.24 
L 291.570773 244.24 
L 291.570773 236.231152 
L 287.157396 236.231152 
z
" clip-path="url(#pe575a22c5a)" style="fill: #ff7f0e; stroke: #000000; stroke-width: 0.4; stroke-linejoin: miter"/>
   </g>
   <g id="patch_94">
    <path d="M 363.655929 244.24 
L 368.069306 244.24 
L 368.069306 236.231152 
L 363.655929 236.231152 
z
" clip-path="url(#pe575a22c5a)" style="fill: #ff7f0e; stroke: #000000; stroke-width: 0.4; stroke-linejoin: miter"/>
   </g>
   <g id="patch_95">
    <path d="M 440.154463 244.24 
L 444.56784 244.24 
L 444.56784 236.231152 
L 440.154463 236.231152 
z
" clip-path="url(#pe575a22c5a)" style="fill: #ff7f0e; stroke: #000000; stroke-width: 0.4; stroke-linejoin: miter"/>
   </g>
   <g id="patch_96">
    <path d="M 516.652997 244.24 
L 521.066374 244.24 
L 521.066374 236.231152 
L 516.652997 236.231152 
z
" clip-path="url(#pe575a22c5a)" style="fill: #ff7f0e; stroke: #000000; stroke-width: 0.4; stroke-linejoin: miter"/>
   </g>
   <g id="patch_97">
    <path d="M 593.151531 244.24 
L 597.564908 244.24 
L 597.564908 236.231152 
L 593.151531 236.231152 
z
" clip-path="url(#pe575a22c5a)" style="fill: #ff7f0e; stroke: #000000; stroke-width: 0.4; stroke-linejoin: miter"/>
   </g>
   <g id="patch_98">
    <path d="M 669.650064 244.24 
L 674.063441 244.24 
L 674.063441 236.231152 
L 669.650064 236.231152 
z
" clip-path="url(#pe575a22c5a)" style="fill: #ff7f0e; stroke: #000000; stroke-width: 0.4; stroke-linejoin: miter"/>
   </g>
   <g id="patch_99">
    <path d="M 138.573705 244.24 
L 142.987082 244.24 
L 142.987082 122.772473 
L 138.573705 122.772473 
z
" clip-path="url(#pe575a22c5a)" style="fill: #2ca02c; stroke: #000000; stroke-width: 0.4; stroke-linejoin: miter"/>
   </g>
   <g id="patch_100">
    <path d="M 215.072239 244.24 
L 219.485616 244.24 
L 219.485616 122.772473 
L 215.072239 122.772473 
z
" clip-path="url(#pe575a22c5a)" style="fill: #2ca02c; stroke: #000000; stroke-width: 0.4; stroke-linejoin: miter"/>
   </g>
   <g id="patch_101">
    <path d="M 291.570773 244.24 
L 295.98415 244.24 
L 295.98415 122.105069 
L 291.570773 122.105069 
z
" clip-path="url(#pe575a22c5a)" style="fill: #2ca02c; stroke: #000000; stroke-width: 0.4; stroke-linejoin: miter"/>
   </g>
   <g id="patch_102">
    <path d="M 368.069306 244.24 
L 372.482683 244.24 
L 372.482683 122.772473 
L 368.069306 122.772473 
z
" clip-path="url(#pe575a22c5a)" style="fill: #2ca02c; stroke: #000000; stroke-width: 0.4; stroke-linejoin: miter"/>
   </g>
   <g id="patch_103">
    <path d="M 444.56784 244.24 
L 448.981217 244.24 
L 448.981217 122.772473 
L 444.56784 122.772473 
z
" clip-path="url(#pe575a22c5a)" style="fill: #2ca02c; stroke: #000000; stroke-width: 0.4; stroke-linejoin: miter"/>
   </g>
   <g id="patch_104">
    <path d="M 521.066374 244.24 
L 525.479751 244.24 
L 525.479751 122.105069 
L 521.066374 122.105069 
z
" clip-path="url(#pe575a22c5a)" style="fill: #2ca02c; stroke: #000000; stroke-width: 0.4; stroke-linejoin: miter"/>
   </g>
   <g id="patch_105">
    <path d="M 597.564908 244.24 
L 601.978284 244.24 
L 601.978284 122.772473 
L 597.564908 122.772473 
z
" clip-path="url(#pe575a22c5a)" style="fill: #2ca02c; stroke: #000000; stroke-width: 0.4; stroke-linejoin: miter"/>
   </g>
   <g id="patch_106">
    <path d="M 674.063441 244.24 
L 678.476818 244.24 
L 678.476818 123.439877 
L 674.063441 123.439877 
z
" clip-path="url(#pe575a22c5a)" style="fill: #2ca02c; stroke: #000000; stroke-width: 0.4; stroke-linejoin: miter"/>
   </g>
   <g id="matplotlib.axis_1">
    <g id="xtick_1">
     <g id="line2d_1">
      <path d="M 114.300132 244.24 
L 114.300132 27 
" clip-path="url(#pe575a22c5a)" style="fill: none; stroke: #b0b0b0; stroke-opacity: 0.25; stroke-width: 0.8; stroke-linecap: square"/>
     </g>
     <g id="line2d_2">
      <defs>
       <path id="me9347f2783" d="M 0 0 
L 0 3.5 
" style="stroke: #000000; stroke-width: 0.8"/>
      </defs>
      <g>
       <use xlink:href="#me9347f2783" x="114.300132" y="244.24" style="stroke: #000000; stroke-width: 0.8"/>
      </g>
     </g>
     <g id="text_1">
      <!-- 1 -->
      <g transform="translate(111.118882 258.838437) scale(0.1 -0.1)">
       <defs>
        <path id="DejaVuSans-31" d="M 794 531 
L 1825 531 
L 1825 4091 
L 703 3866 
L 703 4441 
L 1819 4666 
L 2450 4666 
L 2450 531 
L 3481 531 
L 3481 0 
L 794 0 
L 794 531 
z
" transform="scale(0.015625)"/>
       </defs>
       <use xlink:href="#DejaVuSans-31"/>
      </g>
     </g>
    </g>
    <g id="xtick_2">
     <g id="line2d_3">
      <path d="M 190.798666 244.24 
L 190.798666 27 
" clip-path="url(#pe575a22c5a)" style="fill: none; stroke: #b0b0b0; stroke-opacity: 0.25; stroke-width: 0.8; stroke-linecap: square"/>
     </g>
     <g id="line2d_4">
      <g>
       <use xlink:href="#me9347f2783" x="190.798666" y="244.24" style="stroke: #000000; stroke-width: 0.8"/>
      </g>
     </g>
     <g id="text_2">
      <!-- 2 -->
      <g transform="translate(187.617416 258.838437) scale(0.1 -0.1)">
       <defs>
        <path id="DejaVuSans-32" d="M 1228 531 
L 3431 531 
L 3431 0 
L 469 0 
L 469 531 
Q 828 903 1448 1529 
Q 2069 2156 2228 2338 
Q 2531 2678 2651 2914 
Q 2772 3150 2772 3378 
Q 2772 3750 2511 3984 
Q 2250 4219 1831 4219 
Q 1534 4219 1204 4116 
Q 875 4013 500 3803 
L 500 4441 
Q 881 4594 1212 4672 
Q 1544 4750 1819 4750 
Q 2544 4750 2975 4387 
Q 3406 4025 3406 3419 
Q 3406 3131 3298 2873 
Q 3191 2616 2906 2266 
Q 2828 2175 2409 1742 
Q 1991 1309 1228 531 
z
" transform="scale(0.015625)"/>
       </defs>
       <use xlink:href="#DejaVuSans-32"/>
      </g>
     </g>
    </g>
    <g id="xtick_3">
     <g id="line2d_5">
      <path d="M 267.297199 244.24 
L 267.297199 27 
" clip-path="url(#pe575a22c5a)" style="fill: none; stroke: #b0b0b0; stroke-opacity: 0.25; stroke-width: 0.8; stroke-linecap: square"/>
     </g>
     <g id="line2d_6">
      <g>
       <use xlink:href="#me9347f2783" x="267.297199" y="244.24" style="stroke: #000000; stroke-width: 0.8"/>
      </g>
     </g>
     <g id="text_3">
      <!-- 3 -->
      <g transform="translate(264.115949 258.838437) scale(0.1 -0.1)">
       <defs>
        <path id="DejaVuSans-33" d="M 2597 2516 
Q 3050 2419 3304 2112 
Q 3559 1806 3559 1356 
Q 3559 666 3084 287 
Q 2609 -91 1734 -91 
Q 1441 -91 1130 -33 
Q 819 25 488 141 
L 488 750 
Q 750 597 1062 519 
Q 1375 441 1716 441 
Q 2309 441 2620 675 
Q 2931 909 2931 1356 
Q 2931 1769 2642 2001 
Q 2353 2234 1838 2234 
L 1294 2234 
L 1294 2753 
L 1863 2753 
Q 2328 2753 2575 2939 
Q 2822 3125 2822 3475 
Q 2822 3834 2567 4026 
Q 2313 4219 1838 4219 
Q 1578 4219 1281 4162 
Q 984 4106 628 3988 
L 628 4550 
Q 988 4650 1302 4700 
Q 1616 4750 1894 4750 
Q 2613 4750 3031 4423 
Q 3450 4097 3450 3541 
Q 3450 3153 3228 2886 
Q 3006 2619 2597 2516 
z
" transform="scale(0.015625)"/>
       </defs>
       <use xlink:href="#DejaVuSans-33"/>
      </g>
     </g>
    </g>
    <g id="xtick_4">
     <g id="line2d_7">
      <path d="M 343.795733 244.24 
L 343.795733 27 
" clip-path="url(#pe575a22c5a)" style="fill: none; stroke: #b0b0b0; stroke-opacity: 0.25; stroke-width: 0.8; stroke-linecap: square"/>
     </g>
     <g id="line2d_8">
      <g>
       <use xlink:href="#me9347f2783" x="343.795733" y="244.24" style="stroke: #000000; stroke-width: 0.8"/>
      </g>
     </g>
     <g id="text_4">
      <!-- 4 -->
      <g transform="translate(340.614483 258.838437) scale(0.1 -0.1)">
       <defs>
        <path id="DejaVuSans-34" d="M 2419 4116 
L 825 1625 
L 2419 1625 
L 2419 4116 
z
M 2253 4666 
L 3047 4666 
L 3047 1625 
L 3713 1625 
L 3713 1100 
L 3047 1100 
L 3047 0 
L 2419 0 
L 2419 1100 
L 313 1100 
L 313 1709 
L 2253 4666 
z
" transform="scale(0.015625)"/>
       </defs>
       <use xlink:href="#DejaVuSans-34"/>
      </g>
     </g>
    </g>
    <g id="xtick_5">
     <g id="line2d_9">
      <path d="M 420.294267 244.24 
L 420.294267 27 
" clip-path="url(#pe575a22c5a)" style="fill: none; stroke: #b0b0b0; stroke-opacity: 0.25; stroke-width: 0.8; stroke-linecap: square"/>
     </g>
     <g id="line2d_10">
      <g>
       <use xlink:href="#me9347f2783" x="420.294267" y="244.24" style="stroke: #000000; stroke-width: 0.8"/>
      </g>
     </g>
     <g id="text_5">
      <!-- 5 -->
      <g transform="translate(417.113017 258.838437) scale(0.1 -0.1)">
       <defs>
        <path id="DejaVuSans-35" d="M 691 4666 
L 3169 4666 
L 3169 4134 
L 1269 4134 
L 1269 2991 
Q 1406 3038 1543 3061 
Q 1681 3084 1819 3084 
Q 2600 3084 3056 2656 
Q 3513 2228 3513 1497 
Q 3513 744 3044 326 
Q 2575 -91 1722 -91 
Q 1428 -91 1123 -41 
Q 819 9 494 109 
L 494 744 
Q 775 591 1075 516 
Q 1375 441 1709 441 
Q 2250 441 2565 725 
Q 2881 1009 2881 1497 
Q 2881 1984 2565 2268 
Q 2250 2553 1709 2553 
Q 1456 2553 1204 2497 
Q 953 2441 691 2322 
L 691 4666 
z
" transform="scale(0.015625)"/>
       </defs>
       <use xlink:href="#DejaVuSans-35"/>
      </g>
     </g>
    </g>
    <g id="xtick_6">
     <g id="line2d_11">
      <path d="M 496.792801 244.24 
L 496.792801 27 
" clip-path="url(#pe575a22c5a)" style="fill: none; stroke: #b0b0b0; stroke-opacity: 0.25; stroke-width: 0.8; stroke-linecap: square"/>
     </g>
     <g id="line2d_12">
      <g>
       <use xlink:href="#me9347f2783" x="496.792801" y="244.24" style="stroke: #000000; stroke-width: 0.8"/>
      </g>
     </g>
     <g id="text_6">
      <!-- 6 -->
      <g transform="translate(493.611551 258.838437) scale(0.1 -0.1)">
       <defs>
        <path id="DejaVuSans-36" d="M 2113 2584 
Q 1688 2584 1439 2293 
Q 1191 2003 1191 1497 
Q 1191 994 1439 701 
Q 1688 409 2113 409 
Q 2538 409 2786 701 
Q 3034 994 3034 1497 
Q 3034 2003 2786 2293 
Q 2538 2584 2113 2584 
z
M 3366 4563 
L 3366 3988 
Q 3128 4100 2886 4159 
Q 2644 4219 2406 4219 
Q 1781 4219 1451 3797 
Q 1122 3375 1075 2522 
Q 1259 2794 1537 2939 
Q 1816 3084 2150 3084 
Q 2853 3084 3261 2657 
Q 3669 2231 3669 1497 
Q 3669 778 3244 343 
Q 2819 -91 2113 -91 
Q 1303 -91 875 529 
Q 447 1150 447 2328 
Q 447 3434 972 4092 
Q 1497 4750 2381 4750 
Q 2619 4750 2861 4703 
Q 3103 4656 3366 4563 
z
" transform="scale(0.015625)"/>
       </defs>
       <use xlink:href="#DejaVuSans-36"/>
      </g>
     </g>
    </g>
    <g id="xtick_7">
     <g id="line2d_13">
      <path d="M 573.291334 244.24 
L 573.291334 27 
" clip-path="url(#pe575a22c5a)" style="fill: none; stroke: #b0b0b0; stroke-opacity: 0.25; stroke-width: 0.8; stroke-linecap: square"/>
     </g>
     <g id="line2d_14">
      <g>
       <use xlink:href="#me9347f2783" x="573.291334" y="244.24" style="stroke: #000000; stroke-width: 0.8"/>
      </g>
     </g>
     <g id="text_7">
      <!-- 7 -->
      <g transform="translate(570.110084 258.838437) scale(0.1 -0.1)">
       <defs>
        <path id="DejaVuSans-37" d="M 525 4666 
L 3525 4666 
L 3525 4397 
L 1831 0 
L 1172 0 
L 2766 4134 
L 525 4134 
L 525 4666 
z
" transform="scale(0.015625)"/>
       </defs>
       <use xlink:href="#DejaVuSans-37"/>
      </g>
     </g>
    </g>
    <g id="xtick_8">
     <g id="line2d_15">
      <path d="M 649.789868 244.24 
L 649.789868 27 
" clip-path="url(#pe575a22c5a)" style="fill: none; stroke: #b0b0b0; stroke-opacity: 0.25; stroke-width: 0.8; stroke-linecap: square"/>
     </g>
     <g id="line2d_16">
      <g>
       <use xlink:href="#me9347f2783" x="649.789868" y="244.24" style="stroke: #000000; stroke-width: 0.8"/>
      </g>
     </g>
     <g id="text_8">
      <!-- 8 -->
      <g transform="translate(646.608618 258.838437) scale(0.1 -0.1)">
       <defs>
        <path id="DejaVuSans-38" d="M 2034 2216 
Q 1584 2216 1326 1975 
Q 1069 1734 1069 1313 
Q 1069 891 1326 650 
Q 1584 409 2034 409 
Q 2484 409 2743 651 
Q 3003 894 3003 1313 
Q 3003 1734 2745 1975 
Q 2488 2216 2034 2216 
z
M 1403 2484 
Q 997 2584 770 2862 
Q 544 3141 544 3541 
Q 544 4100 942 4425 
Q 1341 4750 2034 4750 
Q 2731 4750 3128 4425 
Q 3525 4100 3525 3541 
Q 3525 3141 3298 2862 
Q 3072 2584 2669 2484 
Q 3125 2378 3379 2068 
Q 3634 1759 3634 1313 
Q 3634 634 3220 271 
Q 2806 -91 2034 -91 
Q 1263 -91 848 271 
Q 434 634 434 1313 
Q 434 1759 690 2068 
Q 947 2378 1403 2484 
z
M 1172 3481 
Q 1172 3119 1398 2916 
Q 1625 2713 2034 2713 
Q 2441 2713 2670 2916 
Q 2900 3119 2900 3481 
Q 2900 3844 2670 4047 
Q 2441 4250 2034 4250 
Q 1625 4250 1398 4047 
Q 1172 3844 1172 3481 
z
" transform="scale(0.015625)"/>
       </defs>
       <use xlink:href="#DejaVuSans-38"/>
      </g>
     </g>
    </g>
    <g id="text_9">
     <!-- Input -->
     <g transform="translate(367.803438 273.276406) scale(0.11 -0.11)">
      <defs>
       <path id="DejaVuSans-49" d="M 628 4666 
L 1259 4666 
L 1259 0 
L 628 0 
L 628 4666 
z
" transform="scale(0.015625)"/>
       <path id="DejaVuSans-6e" d="M 3513 2113 
L 3513 0 
L 2938 0 
L 2938 2094 
Q 2938 2591 2744 2837 
Q 2550 3084 2163 3084 
Q 1697 3084 1428 2787 
Q 1159 2491 1159 1978 
L 1159 0 
L 581 0 
L 581 3500 
L 1159 3500 
L 1159 2956 
Q 1366 3272 1645 3428 
Q 1925 3584 2291 3584 
Q 2894 3584 3203 3211 
Q 3513 2838 3513 2113 
z
" transform="scale(0.015625)"/>
       <path id="DejaVuSans-70" d="M 1159 525 
L 1159 -1331 
L 581 -1331 
L 581 3500 
L 1159 3500 
L 1159 2969 
Q 1341 3281 1617 3432 
Q 1894 3584 2278 3584 
Q 2916 3584 3314 3078 
Q 3713 2572 3713 1747 
Q 3713 922 3314 415 
Q 2916 -91 2278 -91 
Q 1894 -91 1617 61 
Q 1341 213 1159 525 
z
M 3116 1747 
Q 3116 2381 2855 2742 
Q 2594 3103 2138 3103 
Q 1681 3103 1420 2742 
Q 1159 2381 1159 1747 
Q 1159 1113 1420 752 
Q 1681 391 2138 391 
Q 2594 391 2855 752 
Q 3116 1113 3116 1747 
z
" transform="scale(0.015625)"/>
       <path id="DejaVuSans-75" d="M 544 1381 
L 544 3500 
L 1119 3500 
L 1119 1403 
Q 1119 906 1312 657 
Q 1506 409 1894 409 
Q 2359 409 2629 706 
Q 2900 1003 2900 1516 
L 2900 3500 
L 3475 3500 
L 3475 0 
L 2900 0 
L 2900 538 
Q 2691 219 2414 64 
Q 2138 -91 1772 -91 
Q 1169 -91 856 284 
Q 544 659 544 1381 
z
M 1991 3584 
L 1991 3584 
z
" transform="scale(0.015625)"/>
       <path id="DejaVuSans-74" d="M 1172 4494 
L 1172 3500 
L 2356 3500 
L 2356 3053 
L 1172 3053 
L 1172 1153 
Q 1172 725 1289 603 
Q 1406 481 1766 481 
L 2356 481 
L 2356 0 
L 1766 0 
Q 1100 0 847 248 
Q 594 497 594 1153 
L 594 3053 
L 172 3053 
L 172 3500 
L 594 3500 
L 594 4494 
L 1172 4494 
z
" transform="scale(0.015625)"/>
      </defs>
      <use xlink:href="#DejaVuSans-49"/>
      <use xlink:href="#DejaVuSans-6e" transform="translate(29.492188 0)"/>
      <use xlink:href="#DejaVuSans-70" transform="translate(92.871094 0)"/>
      <use xlink:href="#DejaVuSans-75" transform="translate(156.347656 0)"/>
      <use xlink:href="#DejaVuSans-74" transform="translate(219.726562 0)"/>
     </g>
    </g>
   </g>
   <g id="matplotlib.axis_2">
    <g id="ytick_1">
     <g id="line2d_17">
      <path d="M 55.97 244.24 
L 708.12 244.24 
" clip-path="url(#pe575a22c5a)" style="fill: none; stroke: #b0b0b0; stroke-opacity: 0.25; stroke-width: 0.8; stroke-linecap: square"/>
     </g>
     <g id="line2d_18">
      <defs>
       <path id="mbb0d84e6b8" d="M 0 0 
L -3.5 0 
" style="stroke: #000000; stroke-width: 0.8"/>
      </defs>
      <g>
       <use xlink:href="#mbb0d84e6b8" x="55.97" y="244.24" style="stroke: #000000; stroke-width: 0.8"/>
      </g>
     </g>
     <g id="text_10">
      <!-- 0.00 -->
      <g transform="translate(26.704375 248.039219) scale(0.1 -0.1)">
       <defs>
        <path id="DejaVuSans-30" d="M 2034 4250 
Q 1547 4250 1301 3770 
Q 1056 3291 1056 2328 
Q 1056 1369 1301 889 
Q 1547 409 2034 409 
Q 2525 409 2770 889 
Q 3016 1369 3016 2328 
Q 3016 3291 2770 3770 
Q 2525 4250 2034 4250 
z
M 2034 4750 
Q 2819 4750 3233 4129 
Q 3647 3509 3647 2328 
Q 3647 1150 3233 529 
Q 2819 -91 2034 -91 
Q 1250 -91 836 529 
Q 422 1150 422 2328 
Q 422 3509 836 4129 
Q 1250 4750 2034 4750 
z
" transform="scale(0.015625)"/>
        <path id="DejaVuSans-2e" d="M 684 794 
L 1344 794 
L 1344 0 
L 684 0 
L 684 794 
z
" transform="scale(0.015625)"/>
       </defs>
       <use xlink:href="#DejaVuSans-30"/>
       <use xlink:href="#DejaVuSans-2e" transform="translate(63.623047 0)"/>
       <use xlink:href="#DejaVuSans-30" transform="translate(95.410156 0)"/>
       <use xlink:href="#DejaVuSans-30" transform="translate(159.033203 0)"/>
      </g>
     </g>
    </g>
    <g id="ytick_2">
     <g id="line2d_19">
      <path d="M 55.97 210.8698 
L 708.12 210.8698 
" clip-path="url(#pe575a22c5a)" style="fill: none; stroke: #b0b0b0; stroke-opacity: 0.25; stroke-width: 0.8; stroke-linecap: square"/>
     </g>
     <g id="line2d_20">
      <g>
       <use xlink:href="#mbb0d84e6b8" x="55.97" y="210.8698" style="stroke: #000000; stroke-width: 0.8"/>
      </g>
     </g>
     <g id="text_11">
      <!-- 0.05 -->
      <g transform="translate(26.704375 214.669019) scale(0.1 -0.1)">
       <use xlink:href="#DejaVuSans-30"/>
       <use xlink:href="#DejaVuSans-2e" transform="translate(63.623047 0)"/>
       <use xlink:href="#DejaVuSans-30" transform="translate(95.410156 0)"/>
       <use xlink:href="#DejaVuSans-35" transform="translate(159.033203 0)"/>
      </g>
     </g>
    </g>
    <g id="ytick_3">
     <g id="line2d_21">
      <path d="M 55.97 177.499601 
L 708.12 177.499601 
" clip-path="url(#pe575a22c5a)" style="fill: none; stroke: #b0b0b0; stroke-opacity: 0.25; stroke-width: 0.8; stroke-linecap: square"/>
     </g>
     <g id="line2d_22">
      <g>
       <use xlink:href="#mbb0d84e6b8" x="55.97" y="177.499601" style="stroke: #000000; stroke-width: 0.8"/>
      </g>
     </g>
     <g id="text_12">
      <!-- 0.10 -->
      <g transform="translate(26.704375 181.298819) scale(0.1 -0.1)">
       <use xlink:href="#DejaVuSans-30"/>
       <use xlink:href="#DejaVuSans-2e" transform="translate(63.623047 0)"/>
       <use xlink:href="#DejaVuSans-31" transform="translate(95.410156 0)"/>
       <use xlink:href="#DejaVuSans-30" transform="translate(159.033203 0)"/>
      </g>
     </g>
    </g>
    <g id="ytick_4">
     <g id="line2d_23">
      <path d="M 55.97 144.129401 
L 708.12 144.129401 
" clip-path="url(#pe575a22c5a)" style="fill: none; stroke: #b0b0b0; stroke-opacity: 0.25; stroke-width: 0.8; stroke-linecap: square"/>
     </g>
     <g id="line2d_24">
      <g>
       <use xlink:href="#mbb0d84e6b8" x="55.97" y="144.129401" style="stroke: #000000; stroke-width: 0.8"/>
      </g>
     </g>
     <g id="text_13">
      <!-- 0.15 -->
      <g transform="translate(26.704375 147.92862) scale(0.1 -0.1)">
       <use xlink:href="#DejaVuSans-30"/>
       <use xlink:href="#DejaVuSans-2e" transform="translate(63.623047 0)"/>
       <use xlink:href="#DejaVuSans-31" transform="translate(95.410156 0)"/>
       <use xlink:href="#DejaVuSans-35" transform="translate(159.033203 0)"/>
      </g>
     </g>
    </g>
    <g id="ytick_5">
     <g id="line2d_25">
      <path d="M 55.97 110.759201 
L 708.12 110.759201 
" clip-path="url(#pe575a22c5a)" style="fill: none; stroke: #b0b0b0; stroke-opacity: 0.25; stroke-width: 0.8; stroke-linecap: square"/>
     </g>
     <g id="line2d_26">
      <g>
       <use xlink:href="#mbb0d84e6b8" x="55.97" y="110.759201" style="stroke: #000000; stroke-width: 0.8"/>
      </g>
     </g>
     <g id="text_14">
      <!-- 0.20 -->
      <g transform="translate(26.704375 114.55842) scale(0.1 -0.1)">
       <use xlink:href="#DejaVuSans-30"/>
       <use xlink:href="#DejaVuSans-2e" transform="translate(63.623047 0)"/>
       <use xlink:href="#DejaVuSans-32" transform="translate(95.410156 0)"/>
       <use xlink:href="#DejaVuSans-30" transform="translate(159.033203 0)"/>
      </g>
     </g>
    </g>
    <g id="ytick_6">
     <g id="line2d_27">
      <path d="M 55.97 77.389002 
L 708.12 77.389002 
" clip-path="url(#pe575a22c5a)" style="fill: none; stroke: #b0b0b0; stroke-opacity: 0.25; stroke-width: 0.8; stroke-linecap: square"/>
     </g>
     <g id="line2d_28">
      <g>
       <use xlink:href="#mbb0d84e6b8" x="55.97" y="77.389002" style="stroke: #000000; stroke-width: 0.8"/>
      </g>
     </g>
     <g id="text_15">
      <!-- 0.25 -->
      <g transform="translate(26.704375 81.18822) scale(0.1 -0.1)">
       <use xlink:href="#DejaVuSans-30"/>
       <use xlink:href="#DejaVuSans-2e" transform="translate(63.623047 0)"/>
       <use xlink:href="#DejaVuSans-32" transform="translate(95.410156 0)"/>
       <use xlink:href="#DejaVuSans-35" transform="translate(159.033203 0)"/>
      </g>
     </g>
    </g>
    <g id="ytick_7">
     <g id="line2d_29">
      <path d="M 55.97 44.018802 
L 708.12 44.018802 
" clip-path="url(#pe575a22c5a)" style="fill: none; stroke: #b0b0b0; stroke-opacity: 0.25; stroke-width: 0.8; stroke-linecap: square"/>
     </g>
     <g id="line2d_30">
      <g>
       <use xlink:href="#mbb0d84e6b8" x="55.97" y="44.018802" style="stroke: #000000; stroke-width: 0.8"/>
      </g>
     </g>
     <g id="text_16">
      <!-- 0.30 -->
      <g transform="translate(26.704375 47.818021) scale(0.1 -0.1)">
       <use xlink:href="#DejaVuSans-30"/>
       <use xlink:href="#DejaVuSans-2e" transform="translate(63.623047 0)"/>
       <use xlink:href="#DejaVuSans-33" transform="translate(95.410156 0)"/>
       <use xlink:href="#DejaVuSans-30" transform="translate(159.033203 0)"/>
      </g>
     </g>
    </g>
    <g id="text_17">
     <!-- Time (s) -->
     <g transform="translate(20.416719 157.981797) rotate(-90) scale(0.11 -0.11)">
      <defs>
       <path id="DejaVuSans-54" d="M -19 4666 
L 3928 4666 
L 3928 4134 
L 2272 4134 
L 2272 0 
L 1638 0 
L 1638 4134 
L -19 4134 
L -19 4666 
z
" transform="scale(0.015625)"/>
       <path id="DejaVuSans-69" d="M 603 3500 
L 1178 3500 
L 1178 0 
L 603 0 
L 603 3500 
z
M 603 4863 
L 1178 4863 
L 1178 4134 
L 603 4134 
L 603 4863 
z
" transform="scale(0.015625)"/>
       <path id="DejaVuSans-6d" d="M 3328 2828 
Q 3544 3216 3844 3400 
Q 4144 3584 4550 3584 
Q 5097 3584 5394 3201 
Q 5691 2819 5691 2113 
L 5691 0 
L 5113 0 
L 5113 2094 
Q 5113 2597 4934 2840 
Q 4756 3084 4391 3084 
Q 3944 3084 3684 2787 
Q 3425 2491 3425 1978 
L 3425 0 
L 2847 0 
L 2847 2094 
Q 2847 2600 2669 2842 
Q 2491 3084 2119 3084 
Q 1678 3084 1418 2786 
Q 1159 2488 1159 1978 
L 1159 0 
L 581 0 
L 581 3500 
L 1159 3500 
L 1159 2956 
Q 1356 3278 1631 3431 
Q 1906 3584 2284 3584 
Q 2666 3584 2933 3390 
Q 3200 3197 3328 2828 
z
" transform="scale(0.015625)"/>
       <path id="DejaVuSans-65" d="M 3597 1894 
L 3597 1613 
L 953 1613 
Q 991 1019 1311 708 
Q 1631 397 2203 397 
Q 2534 397 2845 478 
Q 3156 559 3463 722 
L 3463 178 
Q 3153 47 2828 -22 
Q 2503 -91 2169 -91 
Q 1331 -91 842 396 
Q 353 884 353 1716 
Q 353 2575 817 3079 
Q 1281 3584 2069 3584 
Q 2775 3584 3186 3129 
Q 3597 2675 3597 1894 
z
M 3022 2063 
Q 3016 2534 2758 2815 
Q 2500 3097 2075 3097 
Q 1594 3097 1305 2825 
Q 1016 2553 972 2059 
L 3022 2063 
z
" transform="scale(0.015625)"/>
       <path id="DejaVuSans-20" transform="scale(0.015625)"/>
       <path id="DejaVuSans-28" d="M 1984 4856 
Q 1566 4138 1362 3434 
Q 1159 2731 1159 2009 
Q 1159 1288 1364 580 
Q 1569 -128 1984 -844 
L 1484 -844 
Q 1016 -109 783 600 
Q 550 1309 550 2009 
Q 550 2706 781 3412 
Q 1013 4119 1484 4856 
L 1984 4856 
z
" transform="scale(0.015625)"/>
       <path id="DejaVuSans-73" d="M 2834 3397 
L 2834 2853 
Q 2591 2978 2328 3040 
Q 2066 3103 1784 3103 
Q 1356 3103 1142 2972 
Q 928 2841 928 2578 
Q 928 2378 1081 2264 
Q 1234 2150 1697 2047 
L 1894 2003 
Q 2506 1872 2764 1633 
Q 3022 1394 3022 966 
Q 3022 478 2636 193 
Q 2250 -91 1575 -91 
Q 1294 -91 989 -36 
Q 684 19 347 128 
L 347 722 
Q 666 556 975 473 
Q 1284 391 1588 391 
Q 1994 391 2212 530 
Q 2431 669 2431 922 
Q 2431 1156 2273 1281 
Q 2116 1406 1581 1522 
L 1381 1569 
Q 847 1681 609 1914 
Q 372 2147 372 2553 
Q 372 3047 722 3315 
Q 1072 3584 1716 3584 
Q 2034 3584 2315 3537 
Q 2597 3491 2834 3397 
z
" transform="scale(0.015625)"/>
       <path id="DejaVuSans-29" d="M 513 4856 
L 1013 4856 
Q 1481 4119 1714 3412 
Q 1947 2706 1947 2009 
Q 1947 1309 1714 600 
Q 1481 -109 1013 -844 
L 513 -844 
Q 928 -128 1133 580 
Q 1338 1288 1338 2009 
Q 1338 2731 1133 3434 
Q 928 4138 513 4856 
z
" transform="scale(0.015625)"/>
      </defs>
      <use xlink:href="#DejaVuSans-54"/>
      <use xlink:href="#DejaVuSans-69" transform="translate(57.958984 0)"/>
      <use xlink:href="#DejaVuSans-6d" transform="translate(85.742188 0)"/>
      <use xlink:href="#DejaVuSans-65" transform="translate(183.154297 0)"/>
      <use xlink:href="#DejaVuSans-20" transform="translate(244.677734 0)"/>
      <use xlink:href="#DejaVuSans-28" transform="translate(276.464844 0)"/>
      <use xlink:href="#DejaVuSans-73" transform="translate(315.478516 0)"/>
      <use xlink:href="#DejaVuSans-29" transform="translate(367.578125 0)"/>
     </g>
    </g>
   </g>
   <g id="patch_107">
    <path d="M 55.97 244.24 
L 55.97 27 
" style="fill: none; stroke: #000000; stroke-width: 0.8; stroke-linejoin: miter; stroke-linecap: square"/>
   </g>
   <g id="patch_108">
    <path d="M 708.12 244.24 
L 708.12 27 
" style="fill: none; stroke: #000000; stroke-width: 0.8; stroke-linejoin: miter; stroke-linecap: square"/>
   </g>
   <g id="patch_109">
    <path d="M 55.97 244.24 
L 708.12 244.24 
" style="fill: none; stroke: #000000; stroke-width: 0.8; stroke-linejoin: miter; stroke-linecap: square"/>
   </g>
   <g id="patch_110">
    <path d="M 55.97 27 
L 708.12 27 
" style="fill: none; stroke: #000000; stroke-width: 0.8; stroke-linejoin: miter; stroke-linecap: square"/>
   </g>
   <g id="text_18">
    <!-- Fibonacci — prove details -->
    <g transform="translate(305.3725 21) scale(0.12 -0.12)">
     <defs>
      <path id="DejaVuSans-46" d="M 628 4666 
L 3309 4666 
L 3309 4134 
L 1259 4134 
L 1259 2759 
L 3109 2759 
L 3109 2228 
L 1259 2228 
L 1259 0 
L 628 0 
L 628 4666 
z
" transform="scale(0.015625)"/>
      <path id="DejaVuSans-62" d="M 3116 1747 
Q 3116 2381 2855 2742 
Q 2594 3103 2138 3103 
Q 1681 3103 1420 2742 
Q 1159 2381 1159 1747 
Q 1159 1113 1420 752 
Q 1681 391 2138 391 
Q 2594 391 2855 752 
Q 3116 1113 3116 1747 
z
M 1159 2969 
Q 1341 3281 1617 3432 
Q 1894 3584 2278 3584 
Q 2916 3584 3314 3078 
Q 3713 2572 3713 1747 
Q 3713 922 3314 415 
Q 2916 -91 2278 -91 
Q 1894 -91 1617 61 
Q 1341 213 1159 525 
L 1159 0 
L 581 0 
L 581 4863 
L 1159 4863 
L 1159 2969 
z
" transform="scale(0.015625)"/>
      <path id="DejaVuSans-6f" d="M 1959 3097 
Q 1497 3097 1228 2736 
Q 959 2375 959 1747 
Q 959 1119 1226 758 
Q 1494 397 1959 397 
Q 2419 397 2687 759 
Q 2956 1122 2956 1747 
Q 2956 2369 2687 2733 
Q 2419 3097 1959 3097 
z
M 1959 3584 
Q 2709 3584 3137 3096 
Q 3566 2609 3566 1747 
Q 3566 888 3137 398 
Q 2709 -91 1959 -91 
Q 1206 -91 779 398 
Q 353 888 353 1747 
Q 353 2609 779 3096 
Q 1206 3584 1959 3584 
z
" transform="scale(0.015625)"/>
      <path id="DejaVuSans-61" d="M 2194 1759 
Q 1497 1759 1228 1600 
Q 959 1441 959 1056 
Q 959 750 1161 570 
Q 1363 391 1709 391 
Q 2188 391 2477 730 
Q 2766 1069 2766 1631 
L 2766 1759 
L 2194 1759 
z
M 3341 1997 
L 3341 0 
L 2766 0 
L 2766 531 
Q 2569 213 2275 61 
Q 1981 -91 1556 -91 
Q 1019 -91 701 211 
Q 384 513 384 1019 
Q 384 1609 779 1909 
Q 1175 2209 1959 2209 
L 2766 2209 
L 2766 2266 
Q 2766 2663 2505 2880 
Q 2244 3097 1772 3097 
Q 1472 3097 1187 3025 
Q 903 2953 641 2809 
L 641 3341 
Q 956 3463 1253 3523 
Q 1550 3584 1831 3584 
Q 2591 3584 2966 3190 
Q 3341 2797 3341 1997 
z
" transform="scale(0.015625)"/>
      <path id="DejaVuSans-63" d="M 3122 3366 
L 3122 2828 
Q 2878 2963 2633 3030 
Q 2388 3097 2138 3097 
Q 1578 3097 1268 2742 
Q 959 2388 959 1747 
Q 959 1106 1268 751 
Q 1578 397 2138 397 
Q 2388 397 2633 464 
Q 2878 531 3122 666 
L 3122 134 
Q 2881 22 2623 -34 
Q 2366 -91 2075 -91 
Q 1284 -91 818 406 
Q 353 903 353 1747 
Q 353 2603 823 3093 
Q 1294 3584 2113 3584 
Q 2378 3584 2631 3529 
Q 2884 3475 3122 3366 
z
" transform="scale(0.015625)"/>
      <path id="DejaVuSans-2014" d="M 313 1978 
L 6088 1978 
L 6088 1528 
L 313 1528 
L 313 1978 
z
" transform="scale(0.015625)"/>
      <path id="DejaVuSans-72" d="M 2631 2963 
Q 2534 3019 2420 3045 
Q 2306 3072 2169 3072 
Q 1681 3072 1420 2755 
Q 1159 2438 1159 1844 
L 1159 0 
L 581 0 
L 581 3500 
L 1159 3500 
L 1159 2956 
Q 1341 3275 1631 3429 
Q 1922 3584 2338 3584 
Q 2397 3584 2469 3576 
Q 2541 3569 2628 3553 
L 2631 2963 
z
" transform="scale(0.015625)"/>
      <path id="DejaVuSans-76" d="M 191 3500 
L 800 3500 
L 1894 563 
L 2988 3500 
L 3597 3500 
L 2284 0 
L 1503 0 
L 191 3500 
z
" transform="scale(0.015625)"/>
      <path id="DejaVuSans-64" d="M 2906 2969 
L 2906 4863 
L 3481 4863 
L 3481 0 
L 2906 0 
L 2906 525 
Q 2725 213 2448 61 
Q 2172 -91 1784 -91 
Q 1150 -91 751 415 
Q 353 922 353 1747 
Q 353 2572 751 3078 
Q 1150 3584 1784 3584 
Q 2172 3584 2448 3432 
Q 2725 3281 2906 2969 
z
M 947 1747 
Q 947 1113 1208 752 
Q 1469 391 1925 391 
Q 2381 391 2643 752 
Q 2906 1113 2906 1747 
Q 2906 2381 2643 2742 
Q 2381 3103 1925 3103 
Q 1469 3103 1208 2742 
Q 947 2381 947 1747 
z
" transform="scale(0.015625)"/>
      <path id="DejaVuSans-6c" d="M 603 4863 
L 1178 4863 
L 1178 0 
L 603 0 
L 603 4863 
z
" transform="scale(0.015625)"/>
     </defs>
     <use xlink:href="#DejaVuSans-46"/>
     <use xlink:href="#DejaVuSans-69" transform="translate(50.269531 0)"/>
     <use xlink:href="#DejaVuSans-62" transform="translate(78.052734 0)"/>
     <use xlink:href="#DejaVuSans-6f" transform="translate(141.529297 0)"/>
     <use xlink:href="#DejaVuSans-6e" transform="translate(202.710938 0)"/>
     <use xlink:href="#DejaVuSans-61" transform="translate(266.089844 0)"/>
     <use xlink:href="#DejaVuSans-63" transform="translate(327.369141 0)"/>
     <use xlink:href="#DejaVuSans-63" transform="translate(382.349609 0)"/>
     <use xlink:href="#DejaVuSans-69" transform="translate(437.330078 0)"/>
     <use xlink:href="#DejaVuSans-20" transform="translate(465.113281 0)"/>
     <use xlink:href="#DejaVuSans-2014" transform="translate(496.900391 0)"/>
     <use xlink:href="#DejaVuSans-20" transform="translate(596.900391 0)"/>
     <use xlink:href="#DejaVuSans-70" transform="translate(628.6875 0)"/>
     <use xlink:href="#DejaVuSans-72" transform="translate(692.164062 0)"/>
     <use xlink:href="#DejaVuSans-6f" transform="translate(731.027344 0)"/>
     <use xlink:href="#DejaVuSans-76" transform="translate(792.208984 0)"/>
     <use xlink:href="#DejaVuSans-65" transform="translate(851.388672 0)"/>
     <use xlink:href="#DejaVuSans-20" transform="translate(912.912109 0)"/>
     <use xlink:href="#DejaVuSans-64" transform="translate(944.699219 0)"/>
     <use xlink:href="#DejaVuSans-65" transform="translate(1008.175781 0)"/>
     <use xlink:href="#DejaVuSans-74" transform="translate(1069.699219 0)"/>
     <use xlink:href="#DejaVuSans-61" transform="translate(1108.908203 0)"/>
     <use xlink:href="#DejaVuSans-69" transform="translate(1170.1875 0)"/>
     <use xlink:href="#DejaVuSans-6c" transform="translate(1197.970703 0)"/>
     <use xlink:href="#DejaVuSans-73" transform="translate(1225.753906 0)"/>
    </g>
   </g>
   <g id="legend_1">
    <g id="patch_111">
     <path d="M 333.343437 43.598438 
L 353.343437 43.598438 
L 353.343437 36.598438 
L 333.343437 36.598438 
z
" style="fill: #1f77b4; stroke: #000000; stroke-width: 0.4; stroke-linejoin: miter"/>
    </g>
    <g id="text_19">
     <!-- preamble -->
     <g transform="translate(361.343437 43.598438) scale(0.1 -0.1)">
      <use xlink:href="#DejaVuSans-70"/>
      <use xlink:href="#DejaVuSans-72" transform="translate(63.476562 0)"/>
      <use xlink:href="#DejaVuSans-65" transform="translate(102.339844 0)"/>
      <use xlink:href="#DejaVuSans-61" transform="translate(163.863281 0)"/>
      <use xlink:href="#DejaVuSans-6d" transform="translate(225.142578 0)"/>
      <use xlink:href="#DejaVuSans-62" transform="translate(322.554688 0)"/>
      <use xlink:href="#DejaVuSans-6c" transform="translate(386.03125 0)"/>
      <use xlink:href="#DejaVuSans-65" transform="translate(413.814453 0)"/>
     </g>
    </g>
    <g id="patch_112">
     <path d="M 333.343437 58.276563 
L 353.343437 58.276563 
L 353.343437 51.276563 
L 333.343437 51.276563 
z
" style="fill: #ff7f0e; stroke: #000000; stroke-width: 0.4; stroke-linejoin: miter"/>
    </g>
    <g id="text_20">
     <!-- il_wit -->
     <g transform="translate(361.343437 58.276563) scale(0.1 -0.1)">
      <defs>
       <path id="DejaVuSans-5f" d="M 3263 -1063 
L 3263 -1509 
L -63 -1509 
L -63 -1063 
L 3263 -1063 
z
" transform="scale(0.015625)"/>
       <path id="DejaVuSans-77" d="M 269 3500 
L 844 3500 
L 1563 769 
L 2278 3500 
L 2956 3500 
L 3675 769 
L 4391 3500 
L 4966 3500 
L 4050 0 
L 3372 0 
L 2619 2869 
L 1863 0 
L 1184 0 
L 269 3500 
z
" transform="scale(0.015625)"/>
      </defs>
      <use xlink:href="#DejaVuSans-69"/>
      <use xlink:href="#DejaVuSans-6c" transform="translate(27.783203 0)"/>
      <use xlink:href="#DejaVuSans-5f" transform="translate(55.566406 0)"/>
      <use xlink:href="#DejaVuSans-77" transform="translate(105.566406 0)"/>
      <use xlink:href="#DejaVuSans-69" transform="translate(187.353516 0)"/>
      <use xlink:href="#DejaVuSans-74" transform="translate(215.136719 0)"/>
     </g>
    </g>
    <g id="patch_113">
     <path d="M 333.343437 73.232813 
L 353.343437 73.232813 
L 353.343437 66.232813 
L 333.343437 66.232813 
z
" style="fill: #2ca02c; stroke: #000000; stroke-width: 0.4; stroke-linejoin: miter"/>
    </g>
    <g id="text_21">
     <!-- rwm_wit -->
     <g transform="translate(361.343437 73.232813) scale(0.1 -0.1)">
      <use xlink:href="#DejaVuSans-72"/>
      <use xlink:href="#DejaVuSans-77" transform="translate(41.113281 0)"/>
      <use xlink:href="#DejaVuSans-6d" transform="translate(122.900391 0)"/>
      <use xlink:href="#DejaVuSans-5f" transform="translate(220.3125 0)"/>
      <use xlink:href="#DejaVuSans-77" transform="translate(270.3125 0)"/>
      <use xlink:href="#DejaVuSans-69" transform="translate(352.099609 0)"/>
      <use xlink:href="#DejaVuSans-74" transform="translate(379.882812 0)"/>
     </g>
    </g>
    <g id="patch_114">
     <path d="M 333.343437 88.189063 
L 353.343437 88.189063 
L 353.343437 81.189063 
L 333.343437 81.189063 
z
" style="fill: #d62728; stroke: #000000; stroke-width: 0.4; stroke-linejoin: miter"/>
    </g>
    <g id="text_22">
     <!-- wit_join -->
     <g transform="translate(361.343437 88.189063) scale(0.1 -0.1)">
      <defs>
       <path id="DejaVuSans-6a" d="M 603 3500 
L 1178 3500 
L 1178 -63 
Q 1178 -731 923 -1031 
Q 669 -1331 103 -1331 
L -116 -1331 
L -116 -844 
L 38 -844 
Q 366 -844 484 -692 
Q 603 -541 603 -63 
L 603 3500 
z
M 603 4863 
L 1178 4863 
L 1178 4134 
L 603 4134 
L 603 4863 
z
" transform="scale(0.015625)"/>
      </defs>
      <use xlink:href="#DejaVuSans-77"/>
      <use xlink:href="#DejaVuSans-69" transform="translate(81.787109 0)"/>
      <use xlink:href="#DejaVuSans-74" transform="translate(109.570312 0)"/>
      <use xlink:href="#DejaVuSans-5f" transform="translate(148.779297 0)"/>
      <use xlink:href="#DejaVuSans-6a" transform="translate(198.779297 0)"/>
      <use xlink:href="#DejaVuSans-6f" transform="translate(226.5625 0)"/>
      <use xlink:href="#DejaVuSans-69" transform="translate(287.744141 0)"/>
      <use xlink:href="#DejaVuSans-6e" transform="translate(315.527344 0)"/>
     </g>
    </g>
    <g id="patch_115">
     <path d="M 428.879375 43.598438 
L 448.879375 43.598438 
L 448.879375 36.598438 
L 428.879375 36.598438 
z
" style="fill: #9467bd; stroke: #000000; stroke-width: 0.4; stroke-linejoin: miter"/>
    </g>
    <g id="text_23">
     <!-- r1cs_setup -->
     <g transform="translate(456.879375 43.598438) scale(0.1 -0.1)">
      <use xlink:href="#DejaVuSans-72"/>
      <use xlink:href="#DejaVuSans-31" transform="translate(41.113281 0)"/>
      <use xlink:href="#DejaVuSans-63" transform="translate(104.736328 0)"/>
      <use xlink:href="#DejaVuSans-73" transform="translate(159.716797 0)"/>
      <use xlink:href="#DejaVuSans-5f" transform="translate(211.816406 0)"/>
      <use xlink:href="#DejaVuSans-73" transform="translate(261.816406 0)"/>
      <use xlink:href="#DejaVuSans-65" transform="translate(313.916016 0)"/>
      <use xlink:href="#DejaVuSans-74" transform="translate(375.439453 0)"/>
      <use xlink:href="#DejaVuSans-75" transform="translate(414.648438 0)"/>
      <use xlink:href="#DejaVuSans-70" transform="translate(478.027344 0)"/>
     </g>
    </g>
    <g id="patch_116">
     <path d="M 428.879375 58.554688 
L 448.879375 58.554688 
L 448.879375 51.554688 
L 428.879375 51.554688 
z
" style="fill: #8c564b; stroke: #000000; stroke-width: 0.4; stroke-linejoin: miter"/>
    </g>
    <g id="text_24">
     <!-- r1cs_polys -->
     <g transform="translate(456.879375 58.554688) scale(0.1 -0.1)">
      <defs>
       <path id="DejaVuSans-79" d="M 2059 -325 
Q 1816 -950 1584 -1140 
Q 1353 -1331 966 -1331 
L 506 -1331 
L 506 -850 
L 844 -850 
Q 1081 -850 1212 -737 
Q 1344 -625 1503 -206 
L 1606 56 
L 191 3500 
L 800 3500 
L 1894 763 
L 2988 3500 
L 3597 3500 
L 2059 -325 
z
" transform="scale(0.015625)"/>
      </defs>
      <use xlink:href="#DejaVuSans-72"/>
      <use xlink:href="#DejaVuSans-31" transform="translate(41.113281 0)"/>
      <use xlink:href="#DejaVuSans-63" transform="translate(104.736328 0)"/>
      <use xlink:href="#DejaVuSans-73" transform="translate(159.716797 0)"/>
      <use xlink:href="#DejaVuSans-5f" transform="translate(211.816406 0)"/>
      <use xlink:href="#DejaVuSans-70" transform="translate(261.816406 0)"/>
      <use xlink:href="#DejaVuSans-6f" transform="translate(325.292969 0)"/>
      <use xlink:href="#DejaVuSans-6c" transform="translate(386.474609 0)"/>
      <use xlink:href="#DejaVuSans-79" transform="translate(414.257812 0)"/>
      <use xlink:href="#DejaVuSans-73" transform="translate(473.4375 0)"/>
     </g>
    </g>
    <g id="patch_117">
     <path d="M 428.879375 73.510938 
L 448.879375 73.510938 
L 448.879375 66.510938 
L 428.879375 66.510938 
z
" style="fill: #e377c2; stroke: #000000; stroke-width: 0.4; stroke-linejoin: miter"/>
    </g>
    <g id="text_25">
     <!-- r1cs_aux -->
     <g transform="translate(456.879375 73.510938) scale(0.1 -0.1)">
      <defs>
       <path id="DejaVuSans-78" d="M 3513 3500 
L 2247 1797 
L 3578 0 
L 2900 0 
L 1881 1375 
L 863 0 
L 184 0 
L 1544 1831 
L 300 3500 
L 978 3500 
L 1906 2253 
L 2834 3500 
L 3513 3500 
z
" transform="scale(0.015625)"/>
      </defs>
      <use xlink:href="#DejaVuSans-72"/>
      <use xlink:href="#DejaVuSans-31" transform="translate(41.113281 0)"/>
      <use xlink:href="#DejaVuSans-63" transform="translate(104.736328 0)"/>
      <use xlink:href="#DejaVuSans-73" transform="translate(159.716797 0)"/>
      <use xlink:href="#DejaVuSans-5f" transform="translate(211.816406 0)"/>
      <use xlink:href="#DejaVuSans-61" transform="translate(261.816406 0)"/>
      <use xlink:href="#DejaVuSans-75" transform="translate(323.095703 0)"/>
      <use xlink:href="#DejaVuSans-78" transform="translate(386.474609 0)"/>
     </g>
    </g>
    <g id="patch_118">
     <path d="M 531.029375 43.598438 
L 551.029375 43.598438 
L 551.029375 36.598438 
L 531.029375 36.598438 
z
" style="fill: #7f7f7f; stroke: #000000; stroke-width: 0.4; stroke-linejoin: miter"/>
    </g>
    <g id="text_26">
     <!-- commit -->
     <g transform="translate(559.029375 43.598438) scale(0.1 -0.1)">
      <use xlink:href="#DejaVuSans-63"/>
      <use xlink:href="#DejaVuSans-6f" transform="translate(54.980469 0)"/>
      <use xlink:href="#DejaVuSans-6d" transform="translate(116.162109 0)"/>
      <use xlink:href="#DejaVuSans-6d" transform="translate(213.574219 0)"/>
      <use xlink:href="#DejaVuSans-69" transform="translate(310.986328 0)"/>
      <use xlink:href="#DejaVuSans-74" transform="translate(338.769531 0)"/>
     </g>
    </g>
    <g id="patch_119">
     <path d="M 531.029375 58.276563 
L 551.029375 58.276563 
L 551.029375 51.276563 
L 531.029375 51.276563 
z
" style="fill: #bcbd22; stroke: #000000; stroke-width: 0.4; stroke-linejoin: miter"/>
    </g>
    <g id="text_27">
     <!-- bytecode -->
     <g transform="translate(559.029375 58.276563) scale(0.1 -0.1)">
      <use xlink:href="#DejaVuSans-62"/>
      <use xlink:href="#DejaVuSans-79" transform="translate(63.476562 0)"/>
      <use xlink:href="#DejaVuSans-74" transform="translate(122.65625 0)"/>
      <use xlink:href="#DejaVuSans-65" transform="translate(161.865234 0)"/>
      <use xlink:href="#DejaVuSans-63" transform="translate(223.388672 0)"/>
      <use xlink:href="#DejaVuSans-6f" transform="translate(278.369141 0)"/>
      <use xlink:href="#DejaVuSans-64" transform="translate(339.550781 0)"/>
      <use xlink:href="#DejaVuSans-65" transform="translate(403.027344 0)"/>
     </g>
    </g>
    <g id="patch_120">
     <path d="M 531.029375 72.954688 
L 551.029375 72.954688 
L 551.029375 65.954688 
L 531.029375 65.954688 
z
" style="fill: #17becf; stroke: #000000; stroke-width: 0.4; stroke-linejoin: miter"/>
    </g>
    <g id="text_28">
     <!-- il -->
     <g transform="translate(559.029375 72.954688) scale(0.1 -0.1)">
      <use xlink:href="#DejaVuSans-69"/>
      <use xlink:href="#DejaVuSans-6c" transform="translate(27.783203 0)"/>
     </g>
    </g>
    <g id="patch_121">
     <path d="M 625.48875 43.598438 
L 645.48875 43.598438 
L 645.48875 36.598438 
L 625.48875 36.598438 
z
" style="fill: #1f77b4; stroke: #000000; stroke-width: 0.4; stroke-linejoin: miter"/>
    </g>
    <g id="text_29">
     <!-- rwm -->
     <g transform="translate(653.48875 43.598438) scale(0.1 -0.1)">
      <use xlink:href="#DejaVuSans-72"/>
      <use xlink:href="#DejaVuSans-77" transform="translate(41.113281 0)"/>
      <use xlink:href="#DejaVuSans-6d" transform="translate(122.900391 0)"/>
     </g>
    </g>
    <g id="patch_122">
     <path d="M 625.48875 58.276563 
L 645.48875 58.276563 
L 645.48875 51.276563 
L 625.48875 51.276563 
z
" style="fill: #ff7f0e; stroke: #000000; stroke-width: 0.4; stroke-linejoin: miter"/>
    </g>
    <g id="text_30">
     <!-- spartan -->
     <g transform="translate(653.48875 58.276563) scale(0.1 -0.1)">
      <use xlink:href="#DejaVuSans-73"/>
      <use xlink:href="#DejaVuSans-70" transform="translate(52.099609 0)"/>
      <use xlink:href="#DejaVuSans-61" transform="translate(115.576172 0)"/>
      <use xlink:href="#DejaVuSans-72" transform="translate(176.855469 0)"/>
      <use xlink:href="#DejaVuSans-74" transform="translate(217.96875 0)"/>
      <use xlink:href="#DejaVuSans-61" transform="translate(257.177734 0)"/>
      <use xlink:href="#DejaVuSans-6e" transform="translate(318.457031 0)"/>
     </g>
    </g>
    <g id="patch_123">
     <path d="M 625.48875 72.954688 
L 645.48875 72.954688 
L 645.48875 65.954688 
L 625.48875 65.954688 
z
" style="fill: #2ca02c; stroke: #000000; stroke-width: 0.4; stroke-linejoin: miter"/>
    </g>
    <g id="text_31">
     <!-- openings -->
     <g transform="translate(653.48875 72.954688) scale(0.1 -0.1)">
      <defs>
       <path id="DejaVuSans-67" d="M 2906 1791 
Q 2906 2416 2648 2759 
Q 2391 3103 1925 3103 
Q 1463 3103 1205 2759 
Q 947 2416 947 1791 
Q 947 1169 1205 825 
Q 1463 481 1925 481 
Q 2391 481 2648 825 
Q 2906 1169 2906 1791 
z
M 3481 434 
Q 3481 -459 3084 -895 
Q 2688 -1331 1869 -1331 
Q 1566 -1331 1297 -1286 
Q 1028 -1241 775 -1147 
L 775 -588 
Q 1028 -725 1275 -790 
Q 1522 -856 1778 -856 
Q 2344 -856 2625 -561 
Q 2906 -266 2906 331 
L 2906 616 
Q 2728 306 2450 153 
Q 2172 0 1784 0 
Q 1141 0 747 490 
Q 353 981 353 1791 
Q 353 2603 747 3093 
Q 1141 3584 1784 3584 
Q 2172 3584 2450 3431 
Q 2728 3278 2906 2969 
L 2906 3500 
L 3481 3500 
L 3481 434 
z
" transform="scale(0.015625)"/>
      </defs>
      <use xlink:href="#DejaVuSans-6f"/>
      <use xlink:href="#DejaVuSans-70" transform="translate(61.181641 0)"/>
      <use xlink:href="#DejaVuSans-65" transform="translate(124.658203 0)"/>
      <use xlink:href="#DejaVuSans-6e" transform="translate(186.181641 0)"/>
      <use xlink:href="#DejaVuSans-69" transform="translate(249.560547 0)"/>
      <use xlink:href="#DejaVuSans-6e" transform="translate(277.34375 0)"/>
      <use xlink:href="#DejaVuSans-67" transform="translate(340.722656 0)"/>
      <use xlink:href="#DejaVuSans-73" transform="translate(404.199219 0)"/>
     </g>
    </g>
   </g>
  </g>
 </g>
 <defs>
  <clipPath id="pe575a22c5a">
   <rect x="55.97" y="27" width="652.15" height="217.24"/>
  </clipPath>
 </defs>
</svg>
