<?xml version="1.0" encoding="utf-8" standalone="no"?>
<!DOCTYPE svg PUBLIC "-//W3C//DTD SVG 1.1//EN"
  "http://www.w3.org/Graphics/SVG/1.1/DTD/svg11.dtd">
<svg xmlns:xlink="http://www.w3.org/1999/xlink" width="720pt" height="288pt" viewBox="0 0 720 288" xmlns="http://www.w3.org/2000/svg" version="1.1">
 <metadata>
  <rdf:RDF xmlns:dc="http://purl.org/dc/elements/1.1/" xmlns:cc="http://creativecommons.org/ns#" xmlns:rdf="http://www.w3.org/1999/02/22-rdf-syntax-ns#">
   <cc:Work>
    <dc:type rdf:resource="http://purl.org/dc/dcmitype/StillImage"/>
    <dc:date>2025-09-07T14:35:38.932744</dc:date>
    <dc:format>image/svg+xml</dc:format>
    <dc:creator>
     <cc:Agent>
      <dc:title>Matplotlib v3.10.6, https://matplotlib.org/</dc:title>
     </cc:Agent>
    </dc:creator>
   </cc:Work>
  </rdf:RDF>
 </metadata>
 <defs>
  <style type="text/css">*{stroke-linejoin: round; stroke-linecap: butt}</style>
 </defs>
 <g id="figure_1">
  <g id="patch_1">
   <path d="M 0 288 
L 720 288 
L 720 0 
L 0 0 
z
" style="fill: #ffffff"/>
  </g>
  <g id="axes_1">
   <g id="patch_2">
    <path d="M 49.88 244.48 
L 708.12 244.48 
L 708.12 27 
L 49.88 27 
z
" style="fill: #ffffff"/>
   </g>
   <g id="FillBetweenPolyCollection_1">
    <defs>
     <path id="mae16a18092" d="M 79.8 -208.719194 
L 79.8 -136.157919 
L 79.823937 -148.183524 
L 79.847874 -146.960581 
L 79.871811 -157.559419 
L 79.895748 -155.317357 
L 79.919685 -156.336476 
L 79.943622 -151.648529 
L 79.967559 -137.177038 
L 79.991496 -149.610291 
L 80.015433 -130.247029 
L 80.03937 -147.572052 
L 80.063307 -146.552933 
L 80.087243 -148.387348 
L 80.11118 -153.89059 
L 80.135117 -158.782362 
L 80.159054 -150.833233 
L 80.182991 -155.317357 
L 80.206928 -158.17089 
L 80.230865 -168.565904 
L 80.254802 -143.903224 
L 80.278739 -153.279119 
L 80.302676 -115.164067 
L 80.326613 -63.392821 
L 80.35055 -58.297226 
L 80.374487 -68.488416 
L 80.398424 -60.13164 
L 80.422361 -111.291415 
L 80.446298 -61.762231 
L 80.470235 -61.150759 
L 80.494172 -60.743112 
L 80.518109 -111.291415 
L 80.542046 -53.405455 
L 80.565983 -69.303711 
L 80.58992 -61.150759 
L 80.613857 -61.762231 
L 80.637794 -67.876945 
L 80.66173 -66.246354 
L 80.685667 -68.284592 
L 80.709604 -70.119007 
L 80.733541 -60.539288 
L 80.757478 -112.514358 
L 80.781415 -60.539288 
L 80.805352 -69.507535 
L 80.829289 -61.150759 
L 80.853226 -62.577526 
L 80.877163 -62.78135 
L 80.9011 -112.10671 
L 80.925037 -63.596645 
L 80.948974 -68.69224 
L 80.972911 -69.507535 
L 81.020785 -62.577526 
L 81.068659 -113.533477 
L 81.116533 -62.78135 
L 81.164407 -62.577526 
L 81.21228 -62.373702 
L 81.260154 -112.718182 
L 81.308028 -55.85134 
L 81.355902 -69.099888 
L 81.403776 -63.392821 
L 81.45165 -61.762231 
L 81.499524 -67.673121 
L 81.547398 -69.507535 
L 81.595272 -68.69224 
L 81.643146 -69.711359 
L 81.69102 -61.762231 
L 81.738894 -111.495239 
L 81.786767 -62.373702 
L 81.834641 -69.099888 
L 81.882515 -61.966054 
L 81.930389 -61.354583 
L 81.978263 -62.373702 
L 82.026137 -113.737301 
L 82.074011 -61.966054 
L 82.121885 -69.303711 
L 82.169759 -69.915183 
L 82.289444 -70.119007 
L 82.409128 -113.533477 
L 82.528813 -71.749597 
L 82.648498 -62.577526 
L 82.768183 -113.941125 
L 82.887868 -69.711359 
L 83.007552 -72.564892 
L 83.127237 -64.615764 
L 83.246922 -114.348772 
L 83.366607 -62.373702 
L 83.486291 -88.666973 
L 83.605976 -61.558407 
L 83.725661 -114.348772 
L 83.845346 -63.188997 
L 83.965031 -88.463149 
L 84.084715 -63.188997 
L 84.2044 -84.182849 
L 84.324085 -112.10671 
L 84.44377 -115.164067 
L 84.563455 -69.303711 
L 84.802824 -70.934302 
L 85.042194 -115.571715 
L 85.281563 -71.341949 
L 85.520933 -70.934302 
L 85.760302 -112.922006 
L 91.744542 -114.144948 
L 97.728781 -84.998144 
L 103.713021 -114.348772 
L 127.649978 -113.737301 
L 151.586935 -84.182849 
L 175.523893 -112.922006 
L 199.46085 -69.507535 
L 223.397808 -85.81344 
L 247.334765 -69.303711 
L 271.271723 -115.367891 
L 295.20868 -84.794321 
L 319.145638 -70.32283 
L 378.988032 -114.348772 
L 438.830425 -123.113196 
L 498.672819 -88.870797 
L 558.515213 -70.730478 
L 678.2 -115.571715 
L 678.2 -135.750272 
L 678.2 -135.750272 
L 558.515213 -100.488754 
L 498.672819 -107.82641 
L 438.830425 -154.705886 
L 378.988032 -133.50821 
L 319.145638 -89.686092 
L 295.20868 -123.520843 
L 271.271723 -150.425586 
L 247.334765 -94.170216 
L 223.397808 -115.367891 
L 199.46085 -100.488754 
L 175.523893 -149.202643 
L 151.586935 -114.552596 
L 127.649978 -156.132652 
L 103.713021 -155.317357 
L 97.728781 -115.775539 
L 91.744542 -148.794995 
L 85.760302 -158.374714 
L 85.520933 -110.272296 
L 85.281563 -100.488754 
L 85.042194 -133.304386 
L 84.802824 -81.125492 
L 84.563455 -88.870797 
L 84.44377 -143.291753 
L 84.324085 -146.34911 
L 84.2044 -118.832896 
L 84.084715 -80.921668 
L 83.965031 -121.686429 
L 83.845346 -90.501387 
L 83.725661 -124.539963 
L 83.605976 -99.877282 
L 83.486291 -122.705548 
L 83.366607 -79.087254 
L 83.246922 -144.107048 
L 83.127237 -99.877282 
L 83.007552 -101.91552 
L 82.887868 -107.82641 
L 82.768183 -149.814114 
L 82.648498 -92.131978 
L 82.528813 -101.711696 
L 82.409128 -150.425586 
L 82.289444 -105.584349 
L 82.169759 -92.539625 
L 82.121885 -91.928154 
L 82.074011 -97.227573 
L 82.026137 -143.903224 
L 81.978263 -91.72433 
L 81.930389 -92.131978 
L 81.882515 -87.851678 
L 81.834641 -108.234058 
L 81.786767 -92.131978 
L 81.738894 -154.298238 
L 81.69102 -92.539625 
L 81.643146 -105.991996 
L 81.595272 -98.450515 
L 81.547398 -100.488754 
L 81.499524 -80.106373 
L 81.45165 -92.947273 
L 81.403776 -86.832559 
L 81.355902 -80.106373 
L 81.308028 -87.44403 
L 81.260154 -136.361743 
L 81.21228 -92.539625 
L 81.164407 -98.246692 
L 81.116533 -96.412277 
L 81.068659 -154.909709 
L 81.020785 -92.131978 
L 80.972911 -100.896401 
L 80.948974 -110.883768 
L 80.925037 -91.72433 
L 80.9011 -125.762905 
L 80.877163 -91.112858 
L 80.853226 -95.800806 
L 80.829289 -88.870797 
L 80.805352 -100.28493 
L 80.781415 -78.475783 
L 80.757478 -135.1388 
L 80.733541 -73.584011 
L 80.709604 -93.35492 
L 80.685667 -100.692577 
L 80.66173 -101.100225 
L 80.637794 -98.858163 
L 80.613857 -92.947273 
L 80.58992 -79.087254 
L 80.565983 -100.081106 
L 80.542046 -77.456664 
L 80.518109 -147.775876 
L 80.494172 -73.787835 
L 80.470235 -94.374039 
L 80.446298 -93.151097 
L 80.422361 -137.992334 
L 80.398424 -80.106373 
L 80.374487 -101.711696 
L 80.35055 -92.335801 
L 80.326613 -118.017601 
L 80.302676 -190.375052 
L 80.278739 -194.859175 
L 80.254802 -195.266823 
L 80.230865 -196.285942 
L 80.206928 -206.273308 
L 80.182991 -190.986523 
L 80.159054 -184.260337 
L 80.135117 -182.425923 
L 80.11118 -178.145623 
L 80.087243 -192.820937 
L 80.063307 -197.305061 
L 80.03937 -180.999157 
L 80.015433 -180.387685 
L 79.991496 -171.419438 
L 79.967559 -180.591509 
L 79.943622 -200.973889 
L 79.919685 -196.082118 
L 79.895748 -207.496251 
L 79.871811 -191.801818 
L 79.847874 -174.884442 
L 79.823937 -183.85269 
L 79.8 -208.719194 
z
" style="stroke: #1f77b4; stroke-opacity: 0.2"/>
    </defs>
    <g clip-path="url(#p1cb37e240c)">
     <use xlink:href="#mae16a18092" x="0" y="288" style="fill: #1f77b4; fill-opacity: 0.2; stroke: #1f77b4; stroke-opacity: 0.2"/>
    </g>
   </g>
   <g id="FillBetweenPolyCollection_2">
    <defs>
     <path id="m8f6f4bd5de" d="M 79.8 -174.476795 
L 79.8 -141.049691 
L 79.823937 -145.126167 
L 79.847874 -147.368229 
L 79.871811 -135.546448 
L 79.895748 -145.533814 
L 79.919685 -149.610291 
L 79.943622 -151.240881 
L 79.967559 -141.253515 
L 79.991496 -147.164405 
L 80.015433 -143.495576 
L 80.03937 -147.368229 
L 80.063307 -154.909709 
L 80.087243 -151.037057 
L 80.11118 -153.482943 
L 80.135117 -147.164405 
L 80.159054 -146.34911 
L 80.182991 -141.661162 
L 80.206928 -146.756757 
L 80.230865 -152.26 
L 80.254802 -146.552933 
L 80.278739 -148.183524 
L 80.302676 -149.814114 
L 80.326613 -147.572052 
L 80.35055 -145.329991 
L 80.374487 -154.909709 
L 80.398424 -153.482943 
L 80.422361 -184.464161 
L 80.446298 -154.909709 
L 80.470235 -151.852352 
L 80.494172 -151.648529 
L 80.518109 -183.648866 
L 80.542046 -148.387348 
L 80.565983 -151.648529 
L 80.58992 -150.62941 
L 80.613857 -151.240881 
L 80.637794 -150.425586 
L 80.66173 -150.425586 
L 80.685667 -142.680281 
L 80.709604 -150.833233 
L 80.733541 -150.62941 
L 80.757478 -183.037395 
L 80.781415 -152.667648 
L 80.805352 -157.151771 
L 80.829289 -150.017938 
L 80.853226 -154.502062 
L 80.877163 -152.463824 
L 80.9011 -183.037395 
L 80.925037 -152.463824 
L 80.948974 -149.202643 
L 80.972911 -148.387348 
L 81.020785 -151.648529 
L 81.068659 -182.018276 
L 81.116533 -159.190009 
L 81.164407 -156.744124 
L 81.21228 -149.814114 
L 81.260154 -184.464161 
L 81.308028 -156.132652 
L 81.355902 -159.393833 
L 81.403776 -153.279119 
L 81.45165 -151.444705 
L 81.499524 -157.559419 
L 81.547398 -158.578538 
L 81.595272 -161.432071 
L 81.643146 -165.712371 
L 81.69102 -156.744124 
L 81.738894 -187.725342 
L 81.786767 -159.801481 
L 81.834641 -161.228247 
L 81.882515 -160.616776 
L 81.930389 -160.005305 
L 81.978263 -155.725005 
L 82.026137 -186.298575 
L 82.074011 -156.947948 
L 82.121885 -160.412952 
L 82.169759 -161.839719 
L 82.289444 -162.45119 
L 82.409128 -183.241218 
L 82.528813 -157.151771 
L 82.648498 -154.705886 
L 82.768183 -180.183861 
L 82.887868 -148.591172 
L 83.007552 -158.17089 
L 83.127237 -151.037057 
L 83.246922 -184.056514 
L 83.366607 -150.833233 
L 83.486291 -167.139138 
L 83.605976 -166.323843 
L 83.725661 -192.41329 
L 83.845346 -166.527666 
L 83.965031 -181.610628 
L 84.084715 -170.604142 
L 84.2044 -191.801818 
L 84.324085 -188.948285 
L 84.44377 -171.827085 
L 84.563455 -142.884105 
L 84.802824 -148.998819 
L 85.042194 -180.999157 
L 85.281563 -169.992671 
L 85.520933 -168.565904 
L 85.760302 -184.260337 
L 91.744542 -190.986523 
L 97.728781 -168.565904 
L 103.713021 -186.910047 
L 127.649978 -189.76358 
L 151.586935 -168.362081 
L 175.523893 -186.502399 
L 199.46085 -151.240881 
L 223.397808 -153.075295 
L 247.334765 -150.62941 
L 271.271723 -174.069147 
L 295.20868 -169.788847 
L 319.145638 -156.947948 
L 378.988032 -177.737976 
L 438.830425 -182.018276 
L 498.672819 -165.916195 
L 558.515213 -156.5403 
L 678.2 -182.018276 
L 678.2 -213.407142 
L 678.2 -213.407142 
L 558.515213 -184.260337 
L 498.672819 -197.305061 
L 438.830425 -214.833908 
L 378.988032 -203.419775 
L 319.145638 -177.737976 
L 295.20868 -209.330665 
L 271.271723 -220.133327 
L 247.334765 -186.094752 
L 223.397808 -189.76358 
L 199.46085 -191.801818 
L 175.523893 -225.63657 
L 151.586935 -196.489766 
L 127.649978 -232.362755 
L 103.713021 -240.10806 
L 97.728781 -201.177713 
L 91.744542 -251.114545 
L 85.760302 -232.158932 
L 85.520933 -203.012127 
L 85.281563 -214.018613 
L 85.042194 -220.744799 
L 84.802824 -193.228585 
L 84.563455 -182.425923 
L 84.44377 -251.114545 
L 84.324085 -215.649203 
L 84.2044 -224.005979 
L 84.084715 -207.903899 
L 83.965031 -246.426598 
L 83.845346 -191.190347 
L 83.725661 -238.47747 
L 83.605976 -196.082118 
L 83.486291 -225.228922 
L 83.366607 -174.680619 
L 83.246922 -221.152446 
L 83.127237 -191.190347 
L 83.007552 -198.120356 
L 82.887868 -171.623261 
L 82.768183 -221.560094 
L 82.648498 -188.13299 
L 82.528813 -183.85269 
L 82.409128 -224.413627 
L 82.289444 -176.718857 
L 82.169759 -184.667985 
L 82.121885 -183.648866 
L 82.074011 -181.20298 
L 82.026137 -225.63657 
L 81.978263 -178.757095 
L 81.930389 -200.770066 
L 81.882515 -196.489766 
L 81.834641 -198.528004 
L 81.786767 -194.859175 
L 81.738894 -212.388022 
L 81.69102 -189.967404 
L 81.643146 -203.215951 
L 81.595272 -198.528004 
L 81.547398 -205.661837 
L 81.499524 -184.056514 
L 81.45165 -187.725342 
L 81.403776 -178.553271 
L 81.355902 -196.489766 
L 81.308028 -206.273308 
L 81.260154 -230.324517 
L 81.21228 -188.13299 
L 81.164407 -184.667985 
L 81.116533 -198.120356 
L 81.068659 -208.719194 
L 81.020785 -182.425923 
L 80.972911 -193.840056 
L 80.948974 -178.960918 
L 80.925037 -180.387685 
L 80.9011 -220.133327 
L 80.877163 -190.375052 
L 80.853226 -180.183861 
L 80.829289 -191.801818 
L 80.805352 -197.712709 
L 80.781415 -174.476795 
L 80.757478 -210.553608 
L 80.733541 -196.285942 
L 80.709604 -197.712709 
L 80.685667 -184.871809 
L 80.66173 -173.050028 
L 80.637794 -192.617113 
L 80.613857 -192.820937 
L 80.58992 -186.706223 
L 80.565983 -199.750947 
L 80.542046 -167.750609 
L 80.518109 -207.088604 
L 80.494172 -191.597994 
L 80.470235 -186.298575 
L 80.446298 -179.776214 
L 80.422361 -223.598332 
L 80.398424 -195.062999 
L 80.374487 -178.145623 
L 80.35055 -164.897076 
L 80.326613 -187.725342 
L 80.302676 -173.865323 
L 80.278739 -190.171228 
L 80.254802 -184.871809 
L 80.230865 -194.451528 
L 80.206928 -197.101237 
L 80.182991 -175.699738 
L 80.159054 -176.515033 
L 80.135117 -188.948285 
L 80.11118 -188.336813 
L 80.087243 -192.209466 
L 80.063307 -195.67447 
L 80.03937 -172.642381 
L 80.015433 -189.559756 
L 79.991496 -190.578875 
L 79.967559 -178.553271 
L 79.943622 -207.088604 
L 79.919685 -171.01179 
L 79.895748 -172.234733 
L 79.871811 -166.527666 
L 79.847874 -176.92268 
L 79.823937 -183.037395 
L 79.8 -174.476795 
z
" style="stroke: #ff7f0e; stroke-opacity: 0.2"/>
    </defs>
    <g clip-path="url(#p1cb37e240c)">
     <use xlink:href="#m8f6f4bd5de" x="0" y="288" style="fill: #ff7f0e; fill-opacity: 0.2; stroke: #ff7f0e; stroke-opacity: 0.2"/>
    </g>
   </g>
   <g id="matplotlib.axis_1">
    <g id="xtick_1">
     <g id="line2d_1">
      <path d="M 79.776063 244.48 
L 79.776063 27 
" clip-path="url(#p1cb37e240c)" style="fill: none; stroke: #b0b0b0; stroke-opacity: 0.25; stroke-width: 0.8; stroke-linecap: square"/>
     </g>
     <g id="line2d_2">
      <defs>
       <path id="maf2513881c" d="M 0 0 
L 0 3.5 
" style="stroke: #000000; stroke-width: 0.8"/>
      </defs>
      <g>
       <use xlink:href="#maf2513881c" x="79.776063" y="244.48" style="stroke: #000000; stroke-width: 0.8"/>
      </g>
     </g>
     <g id="text_1">
      <!-- 0 -->
      <g transform="translate(76.594813 259.078438) scale(0.1 -0.1)">
       <defs>
        <path id="DejaVuSans-30" d="M 2034 4250 
Q 1547 4250 1301 3770 
Q 1056 3291 1056 2328 
Q 1056 1369 1301 889 
Q 1547 409 2034 409 
Q 2525 409 2770 889 
Q 3016 1369 3016 2328 
Q 3016 3291 2770 3770 
Q 2525 4250 2034 4250 
z
M 2034 4750 
Q 2819 4750 3233 4129 
Q 3647 3509 3647 2328 
Q 3647 1150 3233 529 
Q 2819 -91 2034 -91 
Q 1250 -91 836 529 
Q 422 1150 422 2328 
Q 422 3509 836 4129 
Q 1250 4750 2034 4750 
z
" transform="scale(0.015625)"/>
       </defs>
       <use xlink:href="#DejaVuSans-30"/>
      </g>
     </g>
    </g>
    <g id="xtick_2">
     <g id="line2d_3">
      <path d="M 199.46085 244.48 
L 199.46085 27 
" clip-path="url(#p1cb37e240c)" style="fill: none; stroke: #b0b0b0; stroke-opacity: 0.25; stroke-width: 0.8; stroke-linecap: square"/>
     </g>
     <g id="line2d_4">
      <g>
       <use xlink:href="#maf2513881c" x="199.46085" y="244.48" style="stroke: #000000; stroke-width: 0.8"/>
      </g>
     </g>
     <g id="text_2">
      <!-- 5000 -->
      <g transform="translate(186.73585 259.078438) scale(0.1 -0.1)">
       <defs>
        <path id="DejaVuSans-35" d="M 691 4666 
L 3169 4666 
L 3169 4134 
L 1269 4134 
L 1269 2991 
Q 1406 3038 1543 3061 
Q 1681 3084 1819 3084 
Q 2600 3084 3056 2656 
Q 3513 2228 3513 1497 
Q 3513 744 3044 326 
Q 2575 -91 1722 -91 
Q 1428 -91 1123 -41 
Q 819 9 494 109 
L 494 744 
Q 775 591 1075 516 
Q 1375 441 1709 441 
Q 2250 441 2565 725 
Q 2881 1009 2881 1497 
Q 2881 1984 2565 2268 
Q 2250 2553 1709 2553 
Q 1456 2553 1204 2497 
Q 953 2441 691 2322 
L 691 4666 
z
" transform="scale(0.015625)"/>
       </defs>
       <use xlink:href="#DejaVuSans-35"/>
       <use xlink:href="#DejaVuSans-30" transform="translate(63.623047 0)"/>
       <use xlink:href="#DejaVuSans-30" transform="translate(127.246094 0)"/>
       <use xlink:href="#DejaVuSans-30" transform="translate(190.869141 0)"/>
      </g>
     </g>
    </g>
    <g id="xtick_3">
     <g id="line2d_5">
      <path d="M 319.145638 244.48 
L 319.145638 27 
" clip-path="url(#p1cb37e240c)" style="fill: none; stroke: #b0b0b0; stroke-opacity: 0.25; stroke-width: 0.8; stroke-linecap: square"/>
     </g>
     <g id="line2d_6">
      <g>
       <use xlink:href="#maf2513881c" x="319.145638" y="244.48" style="stroke: #000000; stroke-width: 0.8"/>
      </g>
     </g>
     <g id="text_3">
      <!-- 10000 -->
      <g transform="translate(303.239388 259.078438) scale(0.1 -0.1)">
       <defs>
        <path id="DejaVuSans-31" d="M 794 531 
L 1825 531 
L 1825 4091 
L 703 3866 
L 703 4441 
L 1819 4666 
L 2450 4666 
L 2450 531 
L 3481 531 
L 3481 0 
L 794 0 
L 794 531 
z
" transform="scale(0.015625)"/>
       </defs>
       <use xlink:href="#DejaVuSans-31"/>
       <use xlink:href="#DejaVuSans-30" transform="translate(63.623047 0)"/>
       <use xlink:href="#DejaVuSans-30" transform="translate(127.246094 0)"/>
       <use xlink:href="#DejaVuSans-30" transform="translate(190.869141 0)"/>
       <use xlink:href="#DejaVuSans-30" transform="translate(254.492188 0)"/>
      </g>
     </g>
    </g>
    <g id="xtick_4">
     <g id="line2d_7">
      <path d="M 438.830425 244.48 
L 438.830425 27 
" clip-path="url(#p1cb37e240c)" style="fill: none; stroke: #b0b0b0; stroke-opacity: 0.25; stroke-width: 0.8; stroke-linecap: square"/>
     </g>
     <g id="line2d_8">
      <g>
       <use xlink:href="#maf2513881c" x="438.830425" y="244.48" style="stroke: #000000; stroke-width: 0.8"/>
      </g>
     </g>
     <g id="text_4">
      <!-- 15000 -->
      <g transform="translate(422.924175 259.078438) scale(0.1 -0.1)">
       <use xlink:href="#DejaVuSans-31"/>
       <use xlink:href="#DejaVuSans-35" transform="translate(63.623047 0)"/>
       <use xlink:href="#DejaVuSans-30" transform="translate(127.246094 0)"/>
       <use xlink:href="#DejaVuSans-30" transform="translate(190.869141 0)"/>
       <use xlink:href="#DejaVuSans-30" transform="translate(254.492188 0)"/>
      </g>
     </g>
    </g>
    <g id="xtick_5">
     <g id="line2d_9">
      <path d="M 558.515213 244.48 
L 558.515213 27 
" clip-path="url(#p1cb37e240c)" style="fill: none; stroke: #b0b0b0; stroke-opacity: 0.25; stroke-width: 0.8; stroke-linecap: square"/>
     </g>
     <g id="line2d_10">
      <g>
       <use xlink:href="#maf2513881c" x="558.515213" y="244.48" style="stroke: #000000; stroke-width: 0.8"/>
      </g>
     </g>
     <g id="text_5">
      <!-- 20000 -->
      <g transform="translate(542.608963 259.078438) scale(0.1 -0.1)">
       <defs>
        <path id="DejaVuSans-32" d="M 1228 531 
L 3431 531 
L 3431 0 
L 469 0 
L 469 531 
Q 828 903 1448 1529 
Q 2069 2156 2228 2338 
Q 2531 2678 2651 2914 
Q 2772 3150 2772 3378 
Q 2772 3750 2511 3984 
Q 2250 4219 1831 4219 
Q 1534 4219 1204 4116 
Q 875 4013 500 3803 
L 500 4441 
Q 881 4594 1212 4672 
Q 1544 4750 1819 4750 
Q 2544 4750 2975 4387 
Q 3406 4025 3406 3419 
Q 3406 3131 3298 2873 
Q 3191 2616 2906 2266 
Q 2828 2175 2409 1742 
Q 1991 1309 1228 531 
z
" transform="scale(0.015625)"/>
       </defs>
       <use xlink:href="#DejaVuSans-32"/>
       <use xlink:href="#DejaVuSans-30" transform="translate(63.623047 0)"/>
       <use xlink:href="#DejaVuSans-30" transform="translate(127.246094 0)"/>
       <use xlink:href="#DejaVuSans-30" transform="translate(190.869141 0)"/>
       <use xlink:href="#DejaVuSans-30" transform="translate(254.492188 0)"/>
      </g>
     </g>
    </g>
    <g id="xtick_6">
     <g id="line2d_11">
      <path d="M 678.2 244.48 
L 678.2 27 
" clip-path="url(#p1cb37e240c)" style="fill: none; stroke: #b0b0b0; stroke-opacity: 0.25; stroke-width: 0.8; stroke-linecap: square"/>
     </g>
     <g id="line2d_12">
      <g>
       <use xlink:href="#maf2513881c" x="678.2" y="244.48" style="stroke: #000000; stroke-width: 0.8"/>
      </g>
     </g>
     <g id="text_6">
      <!-- 25000 -->
      <g transform="translate(662.29375 259.078438) scale(0.1 -0.1)">
       <use xlink:href="#DejaVuSans-32"/>
       <use xlink:href="#DejaVuSans-35" transform="translate(63.623047 0)"/>
       <use xlink:href="#DejaVuSans-30" transform="translate(127.246094 0)"/>
       <use xlink:href="#DejaVuSans-30" transform="translate(190.869141 0)"/>
       <use xlink:href="#DejaVuSans-30" transform="translate(254.492188 0)"/>
      </g>
     </g>
    </g>
    <g id="text_7">
     <!-- Input -->
     <g transform="translate(364.758438 273.516406) scale(0.11 -0.11)">
      <defs>
       <path id="DejaVuSans-49" d="M 628 4666 
L 1259 4666 
L 1259 0 
L 628 0 
L 628 4666 
z
" transform="scale(0.015625)"/>
       <path id="DejaVuSans-6e" d="M 3513 2113 
L 3513 0 
L 2938 0 
L 2938 2094 
Q 2938 2591 2744 2837 
Q 2550 3084 2163 3084 
Q 1697 3084 1428 2787 
Q 1159 2491 1159 1978 
L 1159 0 
L 581 0 
L 581 3500 
L 1159 3500 
L 1159 2956 
Q 1366 3272 1645 3428 
Q 1925 3584 2291 3584 
Q 2894 3584 3203 3211 
Q 3513 2838 3513 2113 
z
" transform="scale(0.015625)"/>
       <path id="DejaVuSans-70" d="M 1159 525 
L 1159 -1331 
L 581 -1331 
L 581 3500 
L 1159 3500 
L 1159 2969 
Q 1341 3281 1617 3432 
Q 1894 3584 2278 3584 
Q 2916 3584 3314 3078 
Q 3713 2572 3713 1747 
Q 3713 922 3314 415 
Q 2916 -91 2278 -91 
Q 1894 -91 1617 61 
Q 1341 213 1159 525 
z
M 3116 1747 
Q 3116 2381 2855 2742 
Q 2594 3103 2138 3103 
Q 1681 3103 1420 2742 
Q 1159 2381 1159 1747 
Q 1159 1113 1420 752 
Q 1681 391 2138 391 
Q 2594 391 2855 752 
Q 3116 1113 3116 1747 
z
" transform="scale(0.015625)"/>
       <path id="DejaVuSans-75" d="M 544 1381 
L 544 3500 
L 1119 3500 
L 1119 1403 
Q 1119 906 1312 657 
Q 1506 409 1894 409 
Q 2359 409 2629 706 
Q 2900 1003 2900 1516 
L 2900 3500 
L 3475 3500 
L 3475 0 
L 2900 0 
L 2900 538 
Q 2691 219 2414 64 
Q 2138 -91 1772 -91 
Q 1169 -91 856 284 
Q 544 659 544 1381 
z
M 1991 3584 
L 1991 3584 
z
" transform="scale(0.015625)"/>
       <path id="DejaVuSans-74" d="M 1172 4494 
L 1172 3500 
L 2356 3500 
L 2356 3053 
L 1172 3053 
L 1172 1153 
Q 1172 725 1289 603 
Q 1406 481 1766 481 
L 2356 481 
L 2356 0 
L 1766 0 
Q 1100 0 847 248 
Q 594 497 594 1153 
L 594 3053 
L 172 3053 
L 172 3500 
L 594 3500 
L 594 4494 
L 1172 4494 
z
" transform="scale(0.015625)"/>
      </defs>
      <use xlink:href="#DejaVuSans-49"/>
      <use xlink:href="#DejaVuSans-6e" transform="translate(29.492188 0)"/>
      <use xlink:href="#DejaVuSans-70" transform="translate(92.871094 0)"/>
      <use xlink:href="#DejaVuSans-75" transform="translate(156.347656 0)"/>
      <use xlink:href="#DejaVuSans-74" transform="translate(219.726562 0)"/>
     </g>
    </g>
   </g>
   <g id="matplotlib.axis_2">
    <g id="ytick_1">
     <g id="line2d_13">
      <path d="M 49.88 243.358969 
L 708.12 243.358969 
" clip-path="url(#p1cb37e240c)" style="fill: none; stroke: #b0b0b0; stroke-opacity: 0.25; stroke-width: 0.8; stroke-linecap: square"/>
     </g>
     <g id="line2d_14">
      <defs>
       <path id="m0ce8b034c4" d="M 0 0 
L -3.5 0 
" style="stroke: #000000; stroke-width: 0.8"/>
      </defs>
      <g>
       <use xlink:href="#m0ce8b034c4" x="49.88" y="243.358969" style="stroke: #000000; stroke-width: 0.8"/>
      </g>
     </g>
     <g id="text_8">
      <!-- 3.0 -->
      <g transform="translate(26.976875 247.158188) scale(0.1 -0.1)">
       <defs>
        <path id="DejaVuSans-33" d="M 2597 2516 
Q 3050 2419 3304 2112 
Q 3559 1806 3559 1356 
Q 3559 666 3084 287 
Q 2609 -91 1734 -91 
Q 1441 -91 1130 -33 
Q 819 25 488 141 
L 488 750 
Q 750 597 1062 519 
Q 1375 441 1716 441 
Q 2309 441 2620 675 
Q 2931 909 2931 1356 
Q 2931 1769 2642 2001 
Q 2353 2234 1838 2234 
L 1294 2234 
L 1294 2753 
L 1863 2753 
Q 2328 2753 2575 2939 
Q 2822 3125 2822 3475 
Q 2822 3834 2567 4026 
Q 2313 4219 1838 4219 
Q 1578 4219 1281 4162 
Q 984 4106 628 3988 
L 628 4550 
Q 988 4650 1302 4700 
Q 1616 4750 1894 4750 
Q 2613 4750 3031 4423 
Q 3450 4097 3450 3541 
Q 3450 3153 3228 2886 
Q 3006 2619 2597 2516 
z
" transform="scale(0.015625)"/>
        <path id="DejaVuSans-2e" d="M 684 794 
L 1344 794 
L 1344 0 
L 684 0 
L 684 794 
z
" transform="scale(0.015625)"/>
       </defs>
       <use xlink:href="#DejaVuSans-33"/>
       <use xlink:href="#DejaVuSans-2e" transform="translate(63.623047 0)"/>
       <use xlink:href="#DejaVuSans-30" transform="translate(95.410156 0)"/>
      </g>
     </g>
    </g>
    <g id="ytick_2">
     <g id="line2d_15">
      <path d="M 49.88 202.594208 
L 708.12 202.594208 
" clip-path="url(#p1cb37e240c)" style="fill: none; stroke: #b0b0b0; stroke-opacity: 0.25; stroke-width: 0.8; stroke-linecap: square"/>
     </g>
     <g id="line2d_16">
      <g>
       <use xlink:href="#m0ce8b034c4" x="49.88" y="202.594208" style="stroke: #000000; stroke-width: 0.8"/>
      </g>
     </g>
     <g id="text_9">
      <!-- 3.2 -->
      <g transform="translate(26.976875 206.393427) scale(0.1 -0.1)">
       <use xlink:href="#DejaVuSans-33"/>
       <use xlink:href="#DejaVuSans-2e" transform="translate(63.623047 0)"/>
       <use xlink:href="#DejaVuSans-32" transform="translate(95.410156 0)"/>
      </g>
     </g>
    </g>
    <g id="ytick_3">
     <g id="line2d_17">
      <path d="M 49.88 161.829447 
L 708.12 161.829447 
" clip-path="url(#p1cb37e240c)" style="fill: none; stroke: #b0b0b0; stroke-opacity: 0.25; stroke-width: 0.8; stroke-linecap: square"/>
     </g>
     <g id="line2d_18">
      <g>
       <use xlink:href="#m0ce8b034c4" x="49.88" y="161.829447" style="stroke: #000000; stroke-width: 0.8"/>
      </g>
     </g>
     <g id="text_10">
      <!-- 3.4 -->
      <g transform="translate(26.976875 165.628666) scale(0.1 -0.1)">
       <defs>
        <path id="DejaVuSans-34" d="M 2419 4116 
L 825 1625 
L 2419 1625 
L 2419 4116 
z
M 2253 4666 
L 3047 4666 
L 3047 1625 
L 3713 1625 
L 3713 1100 
L 3047 1100 
L 3047 0 
L 2419 0 
L 2419 1100 
L 313 1100 
L 313 1709 
L 2253 4666 
z
" transform="scale(0.015625)"/>
       </defs>
       <use xlink:href="#DejaVuSans-33"/>
       <use xlink:href="#DejaVuSans-2e" transform="translate(63.623047 0)"/>
       <use xlink:href="#DejaVuSans-34" transform="translate(95.410156 0)"/>
      </g>
     </g>
    </g>
    <g id="ytick_4">
     <g id="line2d_19">
      <path d="M 49.88 121.064686 
L 708.12 121.064686 
" clip-path="url(#p1cb37e240c)" style="fill: none; stroke: #b0b0b0; stroke-opacity: 0.25; stroke-width: 0.8; stroke-linecap: square"/>
     </g>
     <g id="line2d_20">
      <g>
       <use xlink:href="#m0ce8b034c4" x="49.88" y="121.064686" style="stroke: #000000; stroke-width: 0.8"/>
      </g>
     </g>
     <g id="text_11">
      <!-- 3.6 -->
      <g transform="translate(26.976875 124.863905) scale(0.1 -0.1)">
       <defs>
        <path id="DejaVuSans-36" d="M 2113 2584 
Q 1688 2584 1439 2293 
Q 1191 2003 1191 1497 
Q 1191 994 1439 701 
Q 1688 409 2113 409 
Q 2538 409 2786 701 
Q 3034 994 3034 1497 
Q 3034 2003 2786 2293 
Q 2538 2584 2113 2584 
z
M 3366 4563 
L 3366 3988 
Q 3128 4100 2886 4159 
Q 2644 4219 2406 4219 
Q 1781 4219 1451 3797 
Q 1122 3375 1075 2522 
Q 1259 2794 1537 2939 
Q 1816 3084 2150 3084 
Q 2853 3084 3261 2657 
Q 3669 2231 3669 1497 
Q 3669 778 3244 343 
Q 2819 -91 2113 -91 
Q 1303 -91 875 529 
Q 447 1150 447 2328 
Q 447 3434 972 4092 
Q 1497 4750 2381 4750 
Q 2619 4750 2861 4703 
Q 3103 4656 3366 4563 
z
" transform="scale(0.015625)"/>
       </defs>
       <use xlink:href="#DejaVuSans-33"/>
       <use xlink:href="#DejaVuSans-2e" transform="translate(63.623047 0)"/>
       <use xlink:href="#DejaVuSans-36" transform="translate(95.410156 0)"/>
      </g>
     </g>
    </g>
    <g id="ytick_5">
     <g id="line2d_21">
      <path d="M 49.88 80.299925 
L 708.12 80.299925 
" clip-path="url(#p1cb37e240c)" style="fill: none; stroke: #b0b0b0; stroke-opacity: 0.25; stroke-width: 0.8; stroke-linecap: square"/>
     </g>
     <g id="line2d_22">
      <g>
       <use xlink:href="#m0ce8b034c4" x="49.88" y="80.299925" style="stroke: #000000; stroke-width: 0.8"/>
      </g>
     </g>
     <g id="text_12">
      <!-- 3.8 -->
      <g transform="translate(26.976875 84.099144) scale(0.1 -0.1)">
       <defs>
        <path id="DejaVuSans-38" d="M 2034 2216 
Q 1584 2216 1326 1975 
Q 1069 1734 1069 1313 
Q 1069 891 1326 650 
Q 1584 409 2034 409 
Q 2484 409 2743 651 
Q 3003 894 3003 1313 
Q 3003 1734 2745 1975 
Q 2488 2216 2034 2216 
z
M 1403 2484 
Q 997 2584 770 2862 
Q 544 3141 544 3541 
Q 544 4100 942 4425 
Q 1341 4750 2034 4750 
Q 2731 4750 3128 4425 
Q 3525 4100 3525 3541 
Q 3525 3141 3298 2862 
Q 3072 2584 2669 2484 
Q 3125 2378 3379 2068 
Q 3634 1759 3634 1313 
Q 3634 634 3220 271 
Q 2806 -91 2034 -91 
Q 1263 -91 848 271 
Q 434 634 434 1313 
Q 434 1759 690 2068 
Q 947 2378 1403 2484 
z
M 1172 3481 
Q 1172 3119 1398 2916 
Q 1625 2713 2034 2713 
Q 2441 2713 2670 2916 
Q 2900 3119 2900 3481 
Q 2900 3844 2670 4047 
Q 2441 4250 2034 4250 
Q 1625 4250 1398 4047 
Q 1172 3844 1172 3481 
z
" transform="scale(0.015625)"/>
       </defs>
       <use xlink:href="#DejaVuSans-33"/>
       <use xlink:href="#DejaVuSans-2e" transform="translate(63.623047 0)"/>
       <use xlink:href="#DejaVuSans-38" transform="translate(95.410156 0)"/>
      </g>
     </g>
    </g>
    <g id="ytick_6">
     <g id="line2d_23">
      <path d="M 49.88 39.535164 
L 708.12 39.535164 
" clip-path="url(#p1cb37e240c)" style="fill: none; stroke: #b0b0b0; stroke-opacity: 0.25; stroke-width: 0.8; stroke-linecap: square"/>
     </g>
     <g id="line2d_24">
      <g>
       <use xlink:href="#m0ce8b034c4" x="49.88" y="39.535164" style="stroke: #000000; stroke-width: 0.8"/>
      </g>
     </g>
     <g id="text_13">
      <!-- 4.0 -->
      <g transform="translate(26.976875 43.334383) scale(0.1 -0.1)">
       <use xlink:href="#DejaVuSans-34"/>
       <use xlink:href="#DejaVuSans-2e" transform="translate(63.623047 0)"/>
       <use xlink:href="#DejaVuSans-30" transform="translate(95.410156 0)"/>
      </g>
     </g>
    </g>
    <g id="text_14">
     <!-- Time (s) -->
     <g transform="translate(20.689219 158.101797) rotate(-90) scale(0.11 -0.11)">
      <defs>
       <path id="DejaVuSans-54" d="M -19 4666 
L 3928 4666 
L 3928 4134 
L 2272 4134 
L 2272 0 
L 1638 0 
L 1638 4134 
L -19 4134 
L -19 4666 
z
" transform="scale(0.015625)"/>
       <path id="DejaVuSans-69" d="M 603 3500 
L 1178 3500 
L 1178 0 
L 603 0 
L 603 3500 
z
M 603 4863 
L 1178 4863 
L 1178 4134 
L 603 4134 
L 603 4863 
z
" transform="scale(0.015625)"/>
       <path id="DejaVuSans-6d" d="M 3328 2828 
Q 3544 3216 3844 3400 
Q 4144 3584 4550 3584 
Q 5097 3584 5394 3201 
Q 5691 2819 5691 2113 
L 5691 0 
L 5113 0 
L 5113 2094 
Q 5113 2597 4934 2840 
Q 4756 3084 4391 3084 
Q 3944 3084 3684 2787 
Q 3425 2491 3425 1978 
L 3425 0 
L 2847 0 
L 2847 2094 
Q 2847 2600 2669 2842 
Q 2491 3084 2119 3084 
Q 1678 3084 1418 2786 
Q 1159 2488 1159 1978 
L 1159 0 
L 581 0 
L 581 3500 
L 1159 3500 
L 1159 2956 
Q 1356 3278 1631 3431 
Q 1906 3584 2284 3584 
Q 2666 3584 2933 3390 
Q 3200 3197 3328 2828 
z
" transform="scale(0.015625)"/>
       <path id="DejaVuSans-65" d="M 3597 1894 
L 3597 1613 
L 953 1613 
Q 991 1019 1311 708 
Q 1631 397 2203 397 
Q 2534 397 2845 478 
Q 3156 559 3463 722 
L 3463 178 
Q 3153 47 2828 -22 
Q 2503 -91 2169 -91 
Q 1331 -91 842 396 
Q 353 884 353 1716 
Q 353 2575 817 3079 
Q 1281 3584 2069 3584 
Q 2775 3584 3186 3129 
Q 3597 2675 3597 1894 
z
M 3022 2063 
Q 3016 2534 2758 2815 
Q 2500 3097 2075 3097 
Q 1594 3097 1305 2825 
Q 1016 2553 972 2059 
L 3022 2063 
z
" transform="scale(0.015625)"/>
       <path id="DejaVuSans-20" transform="scale(0.015625)"/>
       <path id="DejaVuSans-28" d="M 1984 4856 
Q 1566 4138 1362 3434 
Q 1159 2731 1159 2009 
Q 1159 1288 1364 580 
Q 1569 -128 1984 -844 
L 1484 -844 
Q 1016 -109 783 600 
Q 550 1309 550 2009 
Q 550 2706 781 3412 
Q 1013 4119 1484 4856 
L 1984 4856 
z
" transform="scale(0.015625)"/>
       <path id="DejaVuSans-73" d="M 2834 3397 
L 2834 2853 
Q 2591 2978 2328 3040 
Q 2066 3103 1784 3103 
Q 1356 3103 1142 2972 
Q 928 2841 928 2578 
Q 928 2378 1081 2264 
Q 1234 2150 1697 2047 
L 1894 2003 
Q 2506 1872 2764 1633 
Q 3022 1394 3022 966 
Q 3022 478 2636 193 
Q 2250 -91 1575 -91 
Q 1294 -91 989 -36 
Q 684 19 347 128 
L 347 722 
Q 666 556 975 473 
Q 1284 391 1588 391 
Q 1994 391 2212 530 
Q 2431 669 2431 922 
Q 2431 1156 2273 1281 
Q 2116 1406 1581 1522 
L 1381 1569 
Q 847 1681 609 1914 
Q 372 2147 372 2553 
Q 372 3047 722 3315 
Q 1072 3584 1716 3584 
Q 2034 3584 2315 3537 
Q 2597 3491 2834 3397 
z
" transform="scale(0.015625)"/>
       <path id="DejaVuSans-29" d="M 513 4856 
L 1013 4856 
Q 1481 4119 1714 3412 
Q 1947 2706 1947 2009 
Q 1947 1309 1714 600 
Q 1481 -109 1013 -844 
L 513 -844 
Q 928 -128 1133 580 
Q 1338 1288 1338 2009 
Q 1338 2731 1133 3434 
Q 928 4138 513 4856 
z
" transform="scale(0.015625)"/>
      </defs>
      <use xlink:href="#DejaVuSans-54"/>
      <use xlink:href="#DejaVuSans-69" transform="translate(57.958984 0)"/>
      <use xlink:href="#DejaVuSans-6d" transform="translate(85.742188 0)"/>
      <use xlink:href="#DejaVuSans-65" transform="translate(183.154297 0)"/>
      <use xlink:href="#DejaVuSans-20" transform="translate(244.677734 0)"/>
      <use xlink:href="#DejaVuSans-28" transform="translate(276.464844 0)"/>
      <use xlink:href="#DejaVuSans-73" transform="translate(315.478516 0)"/>
      <use xlink:href="#DejaVuSans-29" transform="translate(367.578125 0)"/>
     </g>
    </g>
   </g>
   <g id="line2d_25">
    <path d="M 79.8 127.1794 
L 79.823937 127.1794 
L 79.847874 129.217638 
L 79.871811 116.580562 
L 79.895748 116.784386 
L 79.919685 117.599681 
L 79.943622 128.198519 
L 79.967559 129.625286 
L 79.991496 126.771753 
L 80.015433 135.536176 
L 80.03937 127.1794 
L 80.063307 132.886467 
L 80.087243 127.587048 
L 80.11118 121.676157 
L 80.135117 120.657038 
L 80.159054 126.567929 
L 80.182991 116.98821 
L 80.206928 116.98821 
L 80.230865 106.593196 
L 80.254802 125.344986 
L 80.278739 122.491453 
L 80.302676 134.313233 
L 80.326613 220.326879 
L 80.35055 218.696289 
L 80.374487 212.785398 
L 80.398424 220.938351 
L 80.422361 167.536514 
L 80.446298 212.989222 
L 80.470235 220.123055 
L 80.494172 222.365117 
L 80.518109 168.147985 
L 80.542046 230.110422 
L 80.565983 214.008341 
L 80.58992 217.880993 
L 80.613857 221.549822 
L 80.637794 210.543336 
L 80.66173 215.231284 
L 80.685667 215.231284 
L 80.709604 215.638932 
L 80.733541 224.811003 
L 80.757478 167.740337 
L 80.781415 221.753646 
L 80.805352 215.638932 
L 80.829289 221.142174 
L 80.853226 218.084817 
L 80.877163 218.492465 
L 80.9011 166.721218 
L 80.925037 218.084817 
L 80.948974 207.689803 
L 80.972911 211.154808 
L 81.020785 221.345998 
L 81.068659 165.294452 
L 81.116533 217.880993 
L 81.164407 222.365117 
L 81.21228 222.365117 
L 81.260154 165.090628 
L 81.308028 227.86836 
L 81.355902 216.658051 
L 81.403776 218.696289 
L 81.45165 221.142174 
L 81.499524 217.67717 
L 81.547398 214.415989 
L 81.595272 215.842755 
L 81.643146 215.02746 
L 81.69102 215.435108 
L 81.738894 167.740337 
L 81.786767 217.67717 
L 81.834641 211.562455 
L 81.882515 216.250403 
L 81.930389 222.772765 
L 81.978263 222.161293 
L 82.026137 163.867685 
L 82.074011 217.67717 
L 82.121885 214.415989 
L 82.169759 215.231284 
L 82.289444 213.39687 
L 82.409128 167.740337 
L 82.528813 209.11657 
L 82.648498 218.288641 
L 82.768183 167.740337 
L 82.887868 211.766279 
L 83.007552 206.874508 
L 83.127237 217.880993 
L 83.246922 164.275333 
L 83.366607 220.530703 
L 83.486291 190.568604 
L 83.605976 217.065698 
L 83.725661 168.759456 
L 83.845346 215.02746 
L 83.965031 195.256551 
L 84.084715 222.365117 
L 84.2044 197.702437 
L 84.324085 172.632109 
L 84.44377 165.498276 
L 84.563455 213.39687 
L 84.802824 214.008341 
L 85.042194 164.275333 
L 85.281563 202.594208 
L 85.520933 210.135689 
L 85.760302 167.536514 
L 91.744542 170.390047 
L 97.728781 199.333027 
L 103.713021 162.033271 
L 127.649978 170.593871 
L 151.586935 195.052727 
L 175.523893 163.663861 
L 199.46085 209.524217 
L 223.397808 196.479494 
L 247.334765 213.600694 
L 271.271723 166.517395 
L 295.20868 194.237432 
L 319.145638 215.638932 
L 378.988032 166.925042 
L 438.830425 157.1415 
L 498.672819 194.441256 
L 558.515213 212.581575 
L 678.2 163.460037 
" clip-path="url(#p1cb37e240c)" style="fill: none; stroke: #1f77b4; stroke-width: 1.8; stroke-linecap: square"/>
   </g>
   <g id="line2d_26">
    <path d="M 79.8 137.982062 
L 79.823937 134.924705 
L 79.847874 135.536176 
L 79.871811 138.185886 
L 79.895748 129.82911 
L 79.919685 127.587048 
L 79.943622 128.606167 
L 79.967559 136.962943 
L 79.991496 132.071172 
L 80.015433 118.6188 
L 80.03937 127.790872 
L 80.063307 127.383224 
L 80.087243 126.771753 
L 80.11118 126.364105 
L 80.135117 131.255876 
L 80.159054 131.4597 
L 80.182991 134.313233 
L 80.206928 123.510572 
L 80.230865 123.306748 
L 80.254802 134.313233 
L 80.278739 132.478819 
L 80.302676 126.975576 
L 80.326613 135.943824 
L 80.35055 132.274995 
L 80.374487 121.879981 
L 80.398424 123.102924 
L 80.422361 96.198182 
L 80.446298 123.510572 
L 80.470235 125.141162 
L 80.494172 125.956457 
L 80.518109 95.790534 
L 80.542046 129.217638 
L 80.565983 120.657038 
L 80.58992 129.013814 
L 80.613857 127.587048 
L 80.637794 125.344986 
L 80.66173 130.440581 
L 80.685667 133.905586 
L 80.709604 128.402343 
L 80.733541 126.771753 
L 80.757478 95.179063 
L 80.781415 125.752634 
L 80.805352 122.695276 
L 80.829289 130.236757 
L 80.853226 125.54881 
L 80.877163 129.013814 
L 80.9011 98.032596 
L 80.925037 125.141162 
L 80.948974 123.102924 
L 80.972911 130.236757 
L 81.020785 121.26851 
L 81.068659 96.605829 
L 81.116533 121.064686 
L 81.164407 124.325867 
L 81.21228 127.1794 
L 81.260154 94.771415 
L 81.308028 121.676157 
L 81.355902 119.434096 
L 81.403776 127.383224 
L 81.45165 118.6188 
L 81.499524 119.434096 
L 81.547398 114.134677 
L 81.595272 111.892615 
L 81.643146 112.504086 
L 81.69102 121.676157 
L 81.738894 90.287291 
L 81.786767 121.879981 
L 81.834641 114.3385 
L 81.882515 119.230272 
L 81.930389 120.453215 
L 81.978263 123.102924 
L 82.026137 89.879644 
L 82.074011 126.975576 
L 82.121885 114.949972 
L 82.169759 118.414977 
L 82.289444 119.434096 
L 82.409128 95.382887 
L 82.528813 121.26851 
L 82.648498 120.453215 
L 82.768183 97.828772 
L 82.887868 130.236757 
L 83.007552 120.860862 
L 83.127237 126.364105 
L 83.246922 94.363768 
L 83.366607 125.54881 
L 83.486291 100.274658 
L 83.605976 114.542324 
L 83.725661 85.191696 
L 83.845346 107.204667 
L 83.965031 93.344649 
L 84.084715 105.166429 
L 84.2044 83.968754 
L 84.324085 84.172577 
L 84.44377 83.76493 
L 84.563455 129.82911 
L 84.802824 121.676157 
L 85.042194 89.268172 
L 85.281563 105.574077 
L 85.520933 113.115558 
L 85.760302 90.898763 
L 91.744542 80.707573 
L 97.728781 99.86701 
L 103.713021 80.911396 
L 127.649978 93.140825 
L 151.586935 111.07732 
L 175.523893 82.338163 
L 199.46085 129.217638 
L 223.397808 124.529691 
L 247.334765 125.344986 
L 271.271723 102.109072 
L 295.20868 107.204667 
L 319.145638 123.918219 
L 378.988032 98.847891 
L 438.830425 96.402006 
L 498.672819 111.892615 
L 558.515213 118.6188 
L 678.2 97.013477 
" clip-path="url(#p1cb37e240c)" style="fill: none; stroke: #ff7f0e; stroke-width: 1.8; stroke-linecap: square"/>
   </g>
   <g id="patch_3">
    <path d="M 49.88 244.48 
L 49.88 27 
" style="fill: none; stroke: #000000; stroke-width: 0.8; stroke-linejoin: miter; stroke-linecap: square"/>
   </g>
   <g id="patch_4">
    <path d="M 708.12 244.48 
L 708.12 27 
" style="fill: none; stroke: #000000; stroke-width: 0.8; stroke-linejoin: miter; stroke-linecap: square"/>
   </g>
   <g id="patch_5">
    <path d="M 49.88 244.48 
L 708.12 244.48 
" style="fill: none; stroke: #000000; stroke-width: 0.8; stroke-linejoin: miter; stroke-linecap: square"/>
   </g>
   <g id="patch_6">
    <path d="M 49.88 27 
L 708.12 27 
" style="fill: none; stroke: #000000; stroke-width: 0.8; stroke-linejoin: miter; stroke-linecap: square"/>
   </g>
   <g id="text_15">
    <!-- Collatz — Total time (full range) -->
    <g transform="translate(284.148438 21) scale(0.12 -0.12)">
     <defs>
      <path id="DejaVuSans-43" d="M 4122 4306 
L 4122 3641 
Q 3803 3938 3442 4084 
Q 3081 4231 2675 4231 
Q 1875 4231 1450 3742 
Q 1025 3253 1025 2328 
Q 1025 1406 1450 917 
Q 1875 428 2675 428 
Q 3081 428 3442 575 
Q 3803 722 4122 1019 
L 4122 359 
Q 3791 134 3420 21 
Q 3050 -91 2638 -91 
Q 1578 -91 968 557 
Q 359 1206 359 2328 
Q 359 3453 968 4101 
Q 1578 4750 2638 4750 
Q 3056 4750 3426 4639 
Q 3797 4528 4122 4306 
z
" transform="scale(0.015625)"/>
      <path id="DejaVuSans-6f" d="M 1959 3097 
Q 1497 3097 1228 2736 
Q 959 2375 959 1747 
Q 959 1119 1226 758 
Q 1494 397 1959 397 
Q 2419 397 2687 759 
Q 2956 1122 2956 1747 
Q 2956 2369 2687 2733 
Q 2419 3097 1959 3097 
z
M 1959 3584 
Q 2709 3584 3137 3096 
Q 3566 2609 3566 1747 
Q 3566 888 3137 398 
Q 2709 -91 1959 -91 
Q 1206 -91 779 398 
Q 353 888 353 1747 
Q 353 2609 779 3096 
Q 1206 3584 1959 3584 
z
" transform="scale(0.015625)"/>
      <path id="DejaVuSans-6c" d="M 603 4863 
L 1178 4863 
L 1178 0 
L 603 0 
L 603 4863 
z
" transform="scale(0.015625)"/>
      <path id="DejaVuSans-61" d="M 2194 1759 
Q 1497 1759 1228 1600 
Q 959 1441 959 1056 
Q 959 750 1161 570 
Q 1363 391 1709 391 
Q 2188 391 2477 730 
Q 2766 1069 2766 1631 
L 2766 1759 
L 2194 1759 
z
M 3341 1997 
L 3341 0 
L 2766 0 
L 2766 531 
Q 2569 213 2275 61 
Q 1981 -91 1556 -91 
Q 1019 -91 701 211 
Q 384 513 384 1019 
Q 384 1609 779 1909 
Q 1175 2209 1959 2209 
L 2766 2209 
L 2766 2266 
Q 2766 2663 2505 2880 
Q 2244 3097 1772 3097 
Q 1472 3097 1187 3025 
Q 903 2953 641 2809 
L 641 3341 
Q 956 3463 1253 3523 
Q 1550 3584 1831 3584 
Q 2591 3584 2966 3190 
Q 3341 2797 3341 1997 
z
" transform="scale(0.015625)"/>
      <path id="DejaVuSans-7a" d="M 353 3500 
L 3084 3500 
L 3084 2975 
L 922 459 
L 3084 459 
L 3084 0 
L 275 0 
L 275 525 
L 2438 3041 
L 353 3041 
L 353 3500 
z
" transform="scale(0.015625)"/>
      <path id="DejaVuSans-2014" d="M 313 1978 
L 6088 1978 
L 6088 1528 
L 313 1528 
L 313 1978 
z
" transform="scale(0.015625)"/>
      <path id="DejaVuSans-66" d="M 2375 4863 
L 2375 4384 
L 1825 4384 
Q 1516 4384 1395 4259 
Q 1275 4134 1275 3809 
L 1275 3500 
L 2222 3500 
L 2222 3053 
L 1275 3053 
L 1275 0 
L 697 0 
L 697 3053 
L 147 3053 
L 147 3500 
L 697 3500 
L 697 3744 
Q 697 4328 969 4595 
Q 1241 4863 1831 4863 
L 2375 4863 
z
" transform="scale(0.015625)"/>
      <path id="DejaVuSans-72" d="M 2631 2963 
Q 2534 3019 2420 3045 
Q 2306 3072 2169 3072 
Q 1681 3072 1420 2755 
Q 1159 2438 1159 1844 
L 1159 0 
L 581 0 
L 581 3500 
L 1159 3500 
L 1159 2956 
Q 1341 3275 1631 3429 
Q 1922 3584 2338 3584 
Q 2397 3584 2469 3576 
Q 2541 3569 2628 3553 
L 2631 2963 
z
" transform="scale(0.015625)"/>
      <path id="DejaVuSans-67" d="M 2906 1791 
Q 2906 2416 2648 2759 
Q 2391 3103 1925 3103 
Q 1463 3103 1205 2759 
Q 947 2416 947 1791 
Q 947 1169 1205 825 
Q 1463 481 1925 481 
Q 2391 481 2648 825 
Q 2906 1169 2906 1791 
z
M 3481 434 
Q 3481 -459 3084 -895 
Q 2688 -1331 1869 -1331 
Q 1566 -1331 1297 -1286 
Q 1028 -1241 775 -1147 
L 775 -588 
Q 1028 -725 1275 -790 
Q 1522 -856 1778 -856 
Q 2344 -856 2625 -561 
Q 2906 -266 2906 331 
L 2906 616 
Q 2728 306 2450 153 
Q 2172 0 1784 0 
Q 1141 0 747 490 
Q 353 981 353 1791 
Q 353 2603 747 3093 
Q 1141 3584 1784 3584 
Q 2172 3584 2450 3431 
Q 2728 3278 2906 2969 
L 2906 3500 
L 3481 3500 
L 3481 434 
z
" transform="scale(0.015625)"/>
     </defs>
     <use xlink:href="#DejaVuSans-43"/>
     <use xlink:href="#DejaVuSans-6f" transform="translate(69.824219 0)"/>
     <use xlink:href="#DejaVuSans-6c" transform="translate(131.005859 0)"/>
     <use xlink:href="#DejaVuSans-6c" transform="translate(158.789062 0)"/>
     <use xlink:href="#DejaVuSans-61" transform="translate(186.572266 0)"/>
     <use xlink:href="#DejaVuSans-74" transform="translate(247.851562 0)"/>
     <use xlink:href="#DejaVuSans-7a" transform="translate(287.060547 0)"/>
     <use xlink:href="#DejaVuSans-20" transform="translate(339.550781 0)"/>
     <use xlink:href="#DejaVuSans-2014" transform="translate(371.337891 0)"/>
     <use xlink:href="#DejaVuSans-20" transform="translate(471.337891 0)"/>
     <use xlink:href="#DejaVuSans-54" transform="translate(503.125 0)"/>
     <use xlink:href="#DejaVuSans-6f" transform="translate(547.208984 0)"/>
     <use xlink:href="#DejaVuSans-74" transform="translate(608.390625 0)"/>
     <use xlink:href="#DejaVuSans-61" transform="translate(647.599609 0)"/>
     <use xlink:href="#DejaVuSans-6c" transform="translate(708.878906 0)"/>
     <use xlink:href="#DejaVuSans-20" transform="translate(736.662109 0)"/>
     <use xlink:href="#DejaVuSans-74" transform="translate(768.449219 0)"/>
     <use xlink:href="#DejaVuSans-69" transform="translate(807.658203 0)"/>
     <use xlink:href="#DejaVuSans-6d" transform="translate(835.441406 0)"/>
     <use xlink:href="#DejaVuSans-65" transform="translate(932.853516 0)"/>
     <use xlink:href="#DejaVuSans-20" transform="translate(994.376953 0)"/>
     <use xlink:href="#DejaVuSans-28" transform="translate(1026.164062 0)"/>
     <use xlink:href="#DejaVuSans-66" transform="translate(1065.177734 0)"/>
     <use xlink:href="#DejaVuSans-75" transform="translate(1100.382812 0)"/>
     <use xlink:href="#DejaVuSans-6c" transform="translate(1163.761719 0)"/>
     <use xlink:href="#DejaVuSans-6c" transform="translate(1191.544922 0)"/>
     <use xlink:href="#DejaVuSans-20" transform="translate(1219.328125 0)"/>
     <use xlink:href="#DejaVuSans-72" transform="translate(1251.115234 0)"/>
     <use xlink:href="#DejaVuSans-61" transform="translate(1292.228516 0)"/>
     <use xlink:href="#DejaVuSans-6e" transform="translate(1353.507812 0)"/>
     <use xlink:href="#DejaVuSans-67" transform="translate(1416.886719 0)"/>
     <use xlink:href="#DejaVuSans-65" transform="translate(1480.363281 0)"/>
     <use xlink:href="#DejaVuSans-29" transform="translate(1541.886719 0)"/>
    </g>
   </g>
   <g id="legend_1">
    <g id="line2d_27">
     <path d="M 638.273125 40.098438 
L 648.273125 40.098438 
L 658.273125 40.098438 
" style="fill: none; stroke: #1f77b4; stroke-width: 1.8; stroke-linecap: square"/>
    </g>
    <g id="text_16">
     <!-- 32-reg -->
     <g transform="translate(666.273125 43.598438) scale(0.1 -0.1)">
      <defs>
       <path id="DejaVuSans-2d" d="M 313 2009 
L 1997 2009 
L 1997 1497 
L 313 1497 
L 313 2009 
z
" transform="scale(0.015625)"/>
      </defs>
      <use xlink:href="#DejaVuSans-33"/>
      <use xlink:href="#DejaVuSans-32" transform="translate(63.623047 0)"/>
      <use xlink:href="#DejaVuSans-2d" transform="translate(127.246094 0)"/>
      <use xlink:href="#DejaVuSans-72" transform="translate(163.330078 0)"/>
      <use xlink:href="#DejaVuSans-65" transform="translate(202.193359 0)"/>
      <use xlink:href="#DejaVuSans-67" transform="translate(263.716797 0)"/>
     </g>
    </g>
    <g id="line2d_28">
     <path d="M 638.273125 54.776563 
L 648.273125 54.776563 
L 658.273125 54.776563 
" style="fill: none; stroke: #ff7f0e; stroke-width: 1.8; stroke-linecap: square"/>
    </g>
    <g id="text_17">
     <!-- vanilla -->
     <g transform="translate(666.273125 58.276563) scale(0.1 -0.1)">
      <defs>
       <path id="DejaVuSans-76" d="M 191 3500 
L 800 3500 
L 1894 563 
L 2988 3500 
L 3597 3500 
L 2284 0 
L 1503 0 
L 191 3500 
z
" transform="scale(0.015625)"/>
      </defs>
      <use xlink:href="#DejaVuSans-76"/>
      <use xlink:href="#DejaVuSans-61" transform="translate(59.179688 0)"/>
      <use xlink:href="#DejaVuSans-6e" transform="translate(120.458984 0)"/>
      <use xlink:href="#DejaVuSans-69" transform="translate(183.837891 0)"/>
      <use xlink:href="#DejaVuSans-6c" transform="translate(211.621094 0)"/>
      <use xlink:href="#DejaVuSans-6c" transform="translate(239.404297 0)"/>
      <use xlink:href="#DejaVuSans-61" transform="translate(267.1875 0)"/>
     </g>
    </g>
   </g>
  </g>
 </g>
 <defs>
  <clipPath id="p1cb37e240c">
   <rect x="49.88" y="27" width="658.24" height="217.48"/>
  </clipPath>
 </defs>
</svg>
