<?xml version="1.0" encoding="utf-8" standalone="no"?>
<!DOCTYPE svg PUBLIC "-//W3C//DTD SVG 1.1//EN"
  "http://www.w3.org/Graphics/SVG/1.1/DTD/svg11.dtd">
<svg xmlns:xlink="http://www.w3.org/1999/xlink" width="864pt" height="432pt" viewBox="0 0 864 432" xmlns="http://www.w3.org/2000/svg" version="1.1">
 <metadata>
  <rdf:RDF xmlns:dc="http://purl.org/dc/elements/1.1/" xmlns:cc="http://creativecommons.org/ns#" xmlns:rdf="http://www.w3.org/1999/02/22-rdf-syntax-ns#">
   <cc:Work>
    <dc:type rdf:resource="http://purl.org/dc/dcmitype/StillImage"/>
    <dc:date>2025-09-07T14:35:40.101085</dc:date>
    <dc:format>image/svg+xml</dc:format>
    <dc:creator>
     <cc:Agent>
      <dc:title>Matplotlib v3.10.6, https://matplotlib.org/</dc:title>
     </cc:Agent>
    </dc:creator>
   </cc:Work>
  </rdf:RDF>
 </metadata>
 <defs>
  <style type="text/css">*{stroke-linejoin: round; stroke-linecap: butt}</style>
 </defs>
 <g id="figure_1">
  <g id="patch_1">
   <path d="M 0 432 
L 864 432 
L 864 0 
L 0 0 
z
" style="fill: #ffffff"/>
  </g>
  <g id="axes_1">
   <g id="patch_2">
    <path d="M 56.24 181.96 
L 284.04 181.96 
L 284.04 68.64 
L 56.24 68.64 
z
" style="fill: #ffffff"/>
   </g>
   <g id="FillBetweenPolyCollection_1">
    <defs>
     <path id="m9631fde6f5" d="M 66.594545 -271.456938 
L 66.594545 -258.805582 
L 71.196566 -255.190909 
L 75.798586 -255.190909 
L 80.400606 -256.998246 
L 85.002626 -258.805582 
L 89.604646 -262.420255 
L 94.206667 -260.612919 
L 98.808687 -260.612919 
L 103.410707 -255.190909 
L 108.012727 -258.805582 
L 112.614747 -260.612919 
L 117.216768 -258.805582 
L 121.818788 -266.034928 
L 126.420808 -262.420255 
L 131.022828 -267.842265 
L 135.624848 -264.227592 
L 140.226869 -262.420255 
L 144.828889 -269.649601 
L 149.430909 -264.227592 
L 154.032929 -267.842265 
L 158.634949 -266.034928 
L 163.23697 -267.842265 
L 167.83899 -269.649601 
L 172.44101 -278.686284 
L 177.04303 -278.686284 
L 181.645051 -278.686284 
L 186.247071 -282.300957 
L 190.849091 -282.300957 
L 195.451111 -284.108293 
L 200.053131 -280.49362 
L 204.655152 -278.686284 
L 209.257172 -285.91563 
L 213.859192 -278.686284 
L 218.461212 -284.108293 
L 223.063232 -282.300957 
L 227.665253 -271.456938 
L 232.267273 -273.264274 
L 236.869293 -285.91563 
L 241.471313 -278.686284 
L 246.073333 -275.071611 
L 250.675354 -273.264274 
L 255.277374 -273.264274 
L 259.879394 -273.264274 
L 264.481414 -278.686284 
L 269.083434 -285.91563 
L 273.685455 -280.49362 
L 273.685455 -320.255024 
L 273.685455 -320.255024 
L 269.083434 -322.06236 
L 264.481414 -311.218341 
L 259.879394 -329.291707 
L 255.277374 -316.640351 
L 250.675354 -329.291707 
L 246.073333 -325.677033 
L 241.471313 -341.943062 
L 236.869293 -313.025678 
L 232.267273 -314.833014 
L 227.665253 -341.943062 
L 223.063232 -334.713716 
L 218.461212 -320.255024 
L 213.859192 -320.255024 
L 209.257172 -329.291707 
L 204.655152 -349.172408 
L 200.053131 -345.557735 
L 195.451111 -336.521053 
L 190.849091 -313.025678 
L 186.247071 -338.328389 
L 181.645051 -349.172408 
L 177.04303 -322.06236 
L 172.44101 -358.209091 
L 167.83899 -300.374322 
L 163.23697 -296.759649 
L 158.634949 -280.49362 
L 154.032929 -316.640351 
L 149.430909 -282.300957 
L 144.828889 -300.374322 
L 140.226869 -329.291707 
L 135.624848 -296.759649 
L 131.022828 -282.300957 
L 126.420808 -296.759649 
L 121.818788 -276.878947 
L 117.216768 -289.530303 
L 112.614747 -271.456938 
L 108.012727 -289.530303 
L 103.410707 -275.071611 
L 98.808687 -275.071611 
L 94.206667 -291.33764 
L 89.604646 -273.264274 
L 85.002626 -273.264274 
L 80.400606 -289.530303 
L 75.798586 -267.842265 
L 71.196566 -275.071611 
L 66.594545 -271.456938 
z
" style="stroke: #ff7f0e; stroke-opacity: 0.2"/>
    </defs>
    <g clip-path="url(#pefab9e1eef)">
     <use xlink:href="#m9631fde6f5" x="0" y="432" style="fill: #ff7f0e; fill-opacity: 0.2; stroke: #ff7f0e; stroke-opacity: 0.2"/>
    </g>
   </g>
   <g id="matplotlib.axis_1">
    <g id="xtick_1">
     <g id="line2d_1">
      <path d="M 61.992525 181.96 
L 61.992525 68.64 
" clip-path="url(#pefab9e1eef)" style="fill: none; stroke: #b0b0b0; stroke-opacity: 0.25; stroke-width: 0.8; stroke-linecap: square"/>
     </g>
     <g id="line2d_2">
      <defs>
       <path id="m98556b6305" d="M 0 0 
L 0 3.5 
" style="stroke: #000000; stroke-width: 0.8"/>
      </defs>
      <g>
       <use xlink:href="#m98556b6305" x="61.992525" y="181.96" style="stroke: #000000; stroke-width: 0.8"/>
      </g>
     </g>
     <g id="text_1">
      <!-- 0 -->
      <g transform="translate(58.811275 196.558437) scale(0.1 -0.1)">
       <defs>
        <path id="DejaVuSans-30" d="M 2034 4250 
Q 1547 4250 1301 3770 
Q 1056 3291 1056 2328 
Q 1056 1369 1301 889 
Q 1547 409 2034 409 
Q 2525 409 2770 889 
Q 3016 1369 3016 2328 
Q 3016 3291 2770 3770 
Q 2525 4250 2034 4250 
z
M 2034 4750 
Q 2819 4750 3233 4129 
Q 3647 3509 3647 2328 
Q 3647 1150 3233 529 
Q 2819 -91 2034 -91 
Q 1250 -91 836 529 
Q 422 1150 422 2328 
Q 422 3509 836 4129 
Q 1250 4750 2034 4750 
z
" transform="scale(0.015625)"/>
       </defs>
       <use xlink:href="#DejaVuSans-30"/>
      </g>
     </g>
    </g>
    <g id="xtick_2">
     <g id="line2d_3">
      <path d="M 108.012727 181.96 
L 108.012727 68.64 
" clip-path="url(#pefab9e1eef)" style="fill: none; stroke: #b0b0b0; stroke-opacity: 0.25; stroke-width: 0.8; stroke-linecap: square"/>
     </g>
     <g id="line2d_4">
      <g>
       <use xlink:href="#m98556b6305" x="108.012727" y="181.96" style="stroke: #000000; stroke-width: 0.8"/>
      </g>
     </g>
     <g id="text_2">
      <!-- 10 -->
      <g transform="translate(101.650227 196.558437) scale(0.1 -0.1)">
       <defs>
        <path id="DejaVuSans-31" d="M 794 531 
L 1825 531 
L 1825 4091 
L 703 3866 
L 703 4441 
L 1819 4666 
L 2450 4666 
L 2450 531 
L 3481 531 
L 3481 0 
L 794 0 
L 794 531 
z
" transform="scale(0.015625)"/>
       </defs>
       <use xlink:href="#DejaVuSans-31"/>
       <use xlink:href="#DejaVuSans-30" transform="translate(63.623047 0)"/>
      </g>
     </g>
    </g>
    <g id="xtick_3">
     <g id="line2d_5">
      <path d="M 154.032929 181.96 
L 154.032929 68.64 
" clip-path="url(#pefab9e1eef)" style="fill: none; stroke: #b0b0b0; stroke-opacity: 0.25; stroke-width: 0.8; stroke-linecap: square"/>
     </g>
     <g id="line2d_6">
      <g>
       <use xlink:href="#m98556b6305" x="154.032929" y="181.96" style="stroke: #000000; stroke-width: 0.8"/>
      </g>
     </g>
     <g id="text_3">
      <!-- 20 -->
      <g transform="translate(147.670429 196.558437) scale(0.1 -0.1)">
       <defs>
        <path id="DejaVuSans-32" d="M 1228 531 
L 3431 531 
L 3431 0 
L 469 0 
L 469 531 
Q 828 903 1448 1529 
Q 2069 2156 2228 2338 
Q 2531 2678 2651 2914 
Q 2772 3150 2772 3378 
Q 2772 3750 2511 3984 
Q 2250 4219 1831 4219 
Q 1534 4219 1204 4116 
Q 875 4013 500 3803 
L 500 4441 
Q 881 4594 1212 4672 
Q 1544 4750 1819 4750 
Q 2544 4750 2975 4387 
Q 3406 4025 3406 3419 
Q 3406 3131 3298 2873 
Q 3191 2616 2906 2266 
Q 2828 2175 2409 1742 
Q 1991 1309 1228 531 
z
" transform="scale(0.015625)"/>
       </defs>
       <use xlink:href="#DejaVuSans-32"/>
       <use xlink:href="#DejaVuSans-30" transform="translate(63.623047 0)"/>
      </g>
     </g>
    </g>
    <g id="xtick_4">
     <g id="line2d_7">
      <path d="M 200.053131 181.96 
L 200.053131 68.64 
" clip-path="url(#pefab9e1eef)" style="fill: none; stroke: #b0b0b0; stroke-opacity: 0.25; stroke-width: 0.8; stroke-linecap: square"/>
     </g>
     <g id="line2d_8">
      <g>
       <use xlink:href="#m98556b6305" x="200.053131" y="181.96" style="stroke: #000000; stroke-width: 0.8"/>
      </g>
     </g>
     <g id="text_4">
      <!-- 30 -->
      <g transform="translate(193.690631 196.558437) scale(0.1 -0.1)">
       <defs>
        <path id="DejaVuSans-33" d="M 2597 2516 
Q 3050 2419 3304 2112 
Q 3559 1806 3559 1356 
Q 3559 666 3084 287 
Q 2609 -91 1734 -91 
Q 1441 -91 1130 -33 
Q 819 25 488 141 
L 488 750 
Q 750 597 1062 519 
Q 1375 441 1716 441 
Q 2309 441 2620 675 
Q 2931 909 2931 1356 
Q 2931 1769 2642 2001 
Q 2353 2234 1838 2234 
L 1294 2234 
L 1294 2753 
L 1863 2753 
Q 2328 2753 2575 2939 
Q 2822 3125 2822 3475 
Q 2822 3834 2567 4026 
Q 2313 4219 1838 4219 
Q 1578 4219 1281 4162 
Q 984 4106 628 3988 
L 628 4550 
Q 988 4650 1302 4700 
Q 1616 4750 1894 4750 
Q 2613 4750 3031 4423 
Q 3450 4097 3450 3541 
Q 3450 3153 3228 2886 
Q 3006 2619 2597 2516 
z
" transform="scale(0.015625)"/>
       </defs>
       <use xlink:href="#DejaVuSans-33"/>
       <use xlink:href="#DejaVuSans-30" transform="translate(63.623047 0)"/>
      </g>
     </g>
    </g>
    <g id="xtick_5">
     <g id="line2d_9">
      <path d="M 246.073333 181.96 
L 246.073333 68.64 
" clip-path="url(#pefab9e1eef)" style="fill: none; stroke: #b0b0b0; stroke-opacity: 0.25; stroke-width: 0.8; stroke-linecap: square"/>
     </g>
     <g id="line2d_10">
      <g>
       <use xlink:href="#m98556b6305" x="246.073333" y="181.96" style="stroke: #000000; stroke-width: 0.8"/>
      </g>
     </g>
     <g id="text_5">
      <!-- 40 -->
      <g transform="translate(239.710833 196.558437) scale(0.1 -0.1)">
       <defs>
        <path id="DejaVuSans-34" d="M 2419 4116 
L 825 1625 
L 2419 1625 
L 2419 4116 
z
M 2253 4666 
L 3047 4666 
L 3047 1625 
L 3713 1625 
L 3713 1100 
L 3047 1100 
L 3047 0 
L 2419 0 
L 2419 1100 
L 313 1100 
L 313 1709 
L 2253 4666 
z
" transform="scale(0.015625)"/>
       </defs>
       <use xlink:href="#DejaVuSans-34"/>
       <use xlink:href="#DejaVuSans-30" transform="translate(63.623047 0)"/>
      </g>
     </g>
    </g>
    <g id="text_6">
     <!-- Input -->
     <g transform="translate(155.898438 210.996406) scale(0.11 -0.11)">
      <defs>
       <path id="DejaVuSans-49" d="M 628 4666 
L 1259 4666 
L 1259 0 
L 628 0 
L 628 4666 
z
" transform="scale(0.015625)"/>
       <path id="DejaVuSans-6e" d="M 3513 2113 
L 3513 0 
L 2938 0 
L 2938 2094 
Q 2938 2591 2744 2837 
Q 2550 3084 2163 3084 
Q 1697 3084 1428 2787 
Q 1159 2491 1159 1978 
L 1159 0 
L 581 0 
L 581 3500 
L 1159 3500 
L 1159 2956 
Q 1366 3272 1645 3428 
Q 1925 3584 2291 3584 
Q 2894 3584 3203 3211 
Q 3513 2838 3513 2113 
z
" transform="scale(0.015625)"/>
       <path id="DejaVuSans-70" d="M 1159 525 
L 1159 -1331 
L 581 -1331 
L 581 3500 
L 1159 3500 
L 1159 2969 
Q 1341 3281 1617 3432 
Q 1894 3584 2278 3584 
Q 2916 3584 3314 3078 
Q 3713 2572 3713 1747 
Q 3713 922 3314 415 
Q 2916 -91 2278 -91 
Q 1894 -91 1617 61 
Q 1341 213 1159 525 
z
M 3116 1747 
Q 3116 2381 2855 2742 
Q 2594 3103 2138 3103 
Q 1681 3103 1420 2742 
Q 1159 2381 1159 1747 
Q 1159 1113 1420 752 
Q 1681 391 2138 391 
Q 2594 391 2855 752 
Q 3116 1113 3116 1747 
z
" transform="scale(0.015625)"/>
       <path id="DejaVuSans-75" d="M 544 1381 
L 544 3500 
L 1119 3500 
L 1119 1403 
Q 1119 906 1312 657 
Q 1506 409 1894 409 
Q 2359 409 2629 706 
Q 2900 1003 2900 1516 
L 2900 3500 
L 3475 3500 
L 3475 0 
L 2900 0 
L 2900 538 
Q 2691 219 2414 64 
Q 2138 -91 1772 -91 
Q 1169 -91 856 284 
Q 544 659 544 1381 
z
M 1991 3584 
L 1991 3584 
z
" transform="scale(0.015625)"/>
       <path id="DejaVuSans-74" d="M 1172 4494 
L 1172 3500 
L 2356 3500 
L 2356 3053 
L 1172 3053 
L 1172 1153 
Q 1172 725 1289 603 
Q 1406 481 1766 481 
L 2356 481 
L 2356 0 
L 1766 0 
Q 1100 0 847 248 
Q 594 497 594 1153 
L 594 3053 
L 172 3053 
L 172 3500 
L 594 3500 
L 594 4494 
L 1172 4494 
z
" transform="scale(0.015625)"/>
      </defs>
      <use xlink:href="#DejaVuSans-49"/>
      <use xlink:href="#DejaVuSans-6e" transform="translate(29.492188 0)"/>
      <use xlink:href="#DejaVuSans-70" transform="translate(92.871094 0)"/>
      <use xlink:href="#DejaVuSans-75" transform="translate(156.347656 0)"/>
      <use xlink:href="#DejaVuSans-74" transform="translate(219.726562 0)"/>
     </g>
    </g>
   </g>
   <g id="matplotlib.axis_2">
    <g id="ytick_1">
     <g id="line2d_11">
      <path d="M 56.24 171.387081 
L 284.04 171.387081 
" clip-path="url(#pefab9e1eef)" style="fill: none; stroke: #b0b0b0; stroke-opacity: 0.25; stroke-width: 0.8; stroke-linecap: square"/>
     </g>
     <g id="line2d_12">
      <defs>
       <path id="mb7b42f9214" d="M 0 0 
L -3.5 0 
" style="stroke: #000000; stroke-width: 0.8"/>
      </defs>
      <g>
       <use xlink:href="#mb7b42f9214" x="56.24" y="171.387081" style="stroke: #000000; stroke-width: 0.8"/>
      </g>
     </g>
     <g id="text_7">
      <!-- 0.22 -->
      <g transform="translate(26.974375 175.1863) scale(0.1 -0.1)">
       <defs>
        <path id="DejaVuSans-2e" d="M 684 794 
L 1344 794 
L 1344 0 
L 684 0 
L 684 794 
z
" transform="scale(0.015625)"/>
       </defs>
       <use xlink:href="#DejaVuSans-30"/>
       <use xlink:href="#DejaVuSans-2e" transform="translate(63.623047 0)"/>
       <use xlink:href="#DejaVuSans-32" transform="translate(95.410156 0)"/>
       <use xlink:href="#DejaVuSans-32" transform="translate(159.033203 0)"/>
      </g>
     </g>
    </g>
    <g id="ytick_2">
     <g id="line2d_13">
      <path d="M 56.24 135.240351 
L 284.04 135.240351 
" clip-path="url(#pefab9e1eef)" style="fill: none; stroke: #b0b0b0; stroke-opacity: 0.25; stroke-width: 0.8; stroke-linecap: square"/>
     </g>
     <g id="line2d_14">
      <g>
       <use xlink:href="#mb7b42f9214" x="56.24" y="135.240351" style="stroke: #000000; stroke-width: 0.8"/>
      </g>
     </g>
     <g id="text_8">
      <!-- 0.24 -->
      <g transform="translate(26.974375 139.03957) scale(0.1 -0.1)">
       <use xlink:href="#DejaVuSans-30"/>
       <use xlink:href="#DejaVuSans-2e" transform="translate(63.623047 0)"/>
       <use xlink:href="#DejaVuSans-32" transform="translate(95.410156 0)"/>
       <use xlink:href="#DejaVuSans-34" transform="translate(159.033203 0)"/>
      </g>
     </g>
    </g>
    <g id="ytick_3">
     <g id="line2d_15">
      <path d="M 56.24 99.09362 
L 284.04 99.09362 
" clip-path="url(#pefab9e1eef)" style="fill: none; stroke: #b0b0b0; stroke-opacity: 0.25; stroke-width: 0.8; stroke-linecap: square"/>
     </g>
     <g id="line2d_16">
      <g>
       <use xlink:href="#mb7b42f9214" x="56.24" y="99.09362" style="stroke: #000000; stroke-width: 0.8"/>
      </g>
     </g>
     <g id="text_9">
      <!-- 0.26 -->
      <g transform="translate(26.974375 102.892839) scale(0.1 -0.1)">
       <defs>
        <path id="DejaVuSans-36" d="M 2113 2584 
Q 1688 2584 1439 2293 
Q 1191 2003 1191 1497 
Q 1191 994 1439 701 
Q 1688 409 2113 409 
Q 2538 409 2786 701 
Q 3034 994 3034 1497 
Q 3034 2003 2786 2293 
Q 2538 2584 2113 2584 
z
M 3366 4563 
L 3366 3988 
Q 3128 4100 2886 4159 
Q 2644 4219 2406 4219 
Q 1781 4219 1451 3797 
Q 1122 3375 1075 2522 
Q 1259 2794 1537 2939 
Q 1816 3084 2150 3084 
Q 2853 3084 3261 2657 
Q 3669 2231 3669 1497 
Q 3669 778 3244 343 
Q 2819 -91 2113 -91 
Q 1303 -91 875 529 
Q 447 1150 447 2328 
Q 447 3434 972 4092 
Q 1497 4750 2381 4750 
Q 2619 4750 2861 4703 
Q 3103 4656 3366 4563 
z
" transform="scale(0.015625)"/>
       </defs>
       <use xlink:href="#DejaVuSans-30"/>
       <use xlink:href="#DejaVuSans-2e" transform="translate(63.623047 0)"/>
       <use xlink:href="#DejaVuSans-32" transform="translate(95.410156 0)"/>
       <use xlink:href="#DejaVuSans-36" transform="translate(159.033203 0)"/>
      </g>
     </g>
    </g>
    <g id="text_10">
     <!-- Time (s) -->
     <g transform="translate(20.686719 147.661797) rotate(-90) scale(0.11 -0.11)">
      <defs>
       <path id="DejaVuSans-54" d="M -19 4666 
L 3928 4666 
L 3928 4134 
L 2272 4134 
L 2272 0 
L 1638 0 
L 1638 4134 
L -19 4134 
L -19 4666 
z
" transform="scale(0.015625)"/>
       <path id="DejaVuSans-69" d="M 603 3500 
L 1178 3500 
L 1178 0 
L 603 0 
L 603 3500 
z
M 603 4863 
L 1178 4863 
L 1178 4134 
L 603 4134 
L 603 4863 
z
" transform="scale(0.015625)"/>
       <path id="DejaVuSans-6d" d="M 3328 2828 
Q 3544 3216 3844 3400 
Q 4144 3584 4550 3584 
Q 5097 3584 5394 3201 
Q 5691 2819 5691 2113 
L 5691 0 
L 5113 0 
L 5113 2094 
Q 5113 2597 4934 2840 
Q 4756 3084 4391 3084 
Q 3944 3084 3684 2787 
Q 3425 2491 3425 1978 
L 3425 0 
L 2847 0 
L 2847 2094 
Q 2847 2600 2669 2842 
Q 2491 3084 2119 3084 
Q 1678 3084 1418 2786 
Q 1159 2488 1159 1978 
L 1159 0 
L 581 0 
L 581 3500 
L 1159 3500 
L 1159 2956 
Q 1356 3278 1631 3431 
Q 1906 3584 2284 3584 
Q 2666 3584 2933 3390 
Q 3200 3197 3328 2828 
z
" transform="scale(0.015625)"/>
       <path id="DejaVuSans-65" d="M 3597 1894 
L 3597 1613 
L 953 1613 
Q 991 1019 1311 708 
Q 1631 397 2203 397 
Q 2534 397 2845 478 
Q 3156 559 3463 722 
L 3463 178 
Q 3153 47 2828 -22 
Q 2503 -91 2169 -91 
Q 1331 -91 842 396 
Q 353 884 353 1716 
Q 353 2575 817 3079 
Q 1281 3584 2069 3584 
Q 2775 3584 3186 3129 
Q 3597 2675 3597 1894 
z
M 3022 2063 
Q 3016 2534 2758 2815 
Q 2500 3097 2075 3097 
Q 1594 3097 1305 2825 
Q 1016 2553 972 2059 
L 3022 2063 
z
" transform="scale(0.015625)"/>
       <path id="DejaVuSans-20" transform="scale(0.015625)"/>
       <path id="DejaVuSans-28" d="M 1984 4856 
Q 1566 4138 1362 3434 
Q 1159 2731 1159 2009 
Q 1159 1288 1364 580 
Q 1569 -128 1984 -844 
L 1484 -844 
Q 1016 -109 783 600 
Q 550 1309 550 2009 
Q 550 2706 781 3412 
Q 1013 4119 1484 4856 
L 1984 4856 
z
" transform="scale(0.015625)"/>
       <path id="DejaVuSans-73" d="M 2834 3397 
L 2834 2853 
Q 2591 2978 2328 3040 
Q 2066 3103 1784 3103 
Q 1356 3103 1142 2972 
Q 928 2841 928 2578 
Q 928 2378 1081 2264 
Q 1234 2150 1697 2047 
L 1894 2003 
Q 2506 1872 2764 1633 
Q 3022 1394 3022 966 
Q 3022 478 2636 193 
Q 2250 -91 1575 -91 
Q 1294 -91 989 -36 
Q 684 19 347 128 
L 347 722 
Q 666 556 975 473 
Q 1284 391 1588 391 
Q 1994 391 2212 530 
Q 2431 669 2431 922 
Q 2431 1156 2273 1281 
Q 2116 1406 1581 1522 
L 1381 1569 
Q 847 1681 609 1914 
Q 372 2147 372 2553 
Q 372 3047 722 3315 
Q 1072 3584 1716 3584 
Q 2034 3584 2315 3537 
Q 2597 3491 2834 3397 
z
" transform="scale(0.015625)"/>
       <path id="DejaVuSans-29" d="M 513 4856 
L 1013 4856 
Q 1481 4119 1714 3412 
Q 1947 2706 1947 2009 
Q 1947 1309 1714 600 
Q 1481 -109 1013 -844 
L 513 -844 
Q 928 -128 1133 580 
Q 1338 1288 1338 2009 
Q 1338 2731 1133 3434 
Q 928 4138 513 4856 
z
" transform="scale(0.015625)"/>
      </defs>
      <use xlink:href="#DejaVuSans-54"/>
      <use xlink:href="#DejaVuSans-69" transform="translate(57.958984 0)"/>
      <use xlink:href="#DejaVuSans-6d" transform="translate(85.742188 0)"/>
      <use xlink:href="#DejaVuSans-65" transform="translate(183.154297 0)"/>
      <use xlink:href="#DejaVuSans-20" transform="translate(244.677734 0)"/>
      <use xlink:href="#DejaVuSans-28" transform="translate(276.464844 0)"/>
      <use xlink:href="#DejaVuSans-73" transform="translate(315.478516 0)"/>
      <use xlink:href="#DejaVuSans-29" transform="translate(367.578125 0)"/>
     </g>
    </g>
   </g>
   <g id="line2d_17">
    <path d="M 66.594545 167.772408 
L 71.196566 164.157735 
L 75.798586 169.579745 
L 80.400606 169.579745 
L 85.002626 169.579745 
L 89.604646 162.350399 
L 94.206667 160.543062 
L 98.808687 165.965072 
L 103.410707 162.350399 
L 108.012727 167.772408 
L 112.614747 167.772408 
L 117.216768 162.350399 
L 121.818788 160.543062 
L 126.420808 165.965072 
L 131.022828 160.543062 
L 135.624848 164.157735 
L 140.226869 158.735726 
L 144.828889 156.928389 
L 149.430909 160.543062 
L 154.032929 158.735726 
L 158.634949 158.735726 
L 163.23697 156.928389 
L 167.83899 158.735726 
L 172.44101 117.166986 
L 177.04303 129.818341 
L 181.645051 126.203668 
L 186.247071 133.433014 
L 190.849091 124.396332 
L 195.451111 135.240351 
L 200.053131 124.396332 
L 204.655152 142.469697 
L 209.257172 131.625678 
L 213.859192 128.011005 
L 218.461212 124.396332 
L 223.063232 124.396332 
L 227.665253 131.625678 
L 232.267273 126.203668 
L 236.869293 128.011005 
L 241.471313 133.433014 
L 246.073333 126.203668 
L 250.675354 133.433014 
L 255.277374 133.433014 
L 259.879394 138.855024 
L 264.481414 133.433014 
L 269.083434 135.240351 
L 273.685455 124.396332 
" clip-path="url(#pefab9e1eef)" style="fill: none; stroke: #ff7f0e; stroke-width: 1.8; stroke-linecap: square"/>
   </g>
   <g id="patch_3">
    <path d="M 56.24 181.96 
L 56.24 68.64 
" style="fill: none; stroke: #000000; stroke-width: 0.8; stroke-linejoin: miter; stroke-linecap: square"/>
   </g>
   <g id="patch_4">
    <path d="M 284.04 181.96 
L 284.04 68.64 
" style="fill: none; stroke: #000000; stroke-width: 0.8; stroke-linejoin: miter; stroke-linecap: square"/>
   </g>
   <g id="patch_5">
    <path d="M 56.24 181.96 
L 284.04 181.96 
" style="fill: none; stroke: #000000; stroke-width: 0.8; stroke-linejoin: miter; stroke-linecap: square"/>
   </g>
   <g id="patch_6">
    <path d="M 56.24 68.64 
L 284.04 68.64 
" style="fill: none; stroke: #000000; stroke-width: 0.8; stroke-linejoin: miter; stroke-linecap: square"/>
   </g>
   <g id="text_11">
    <!-- decode -->
    <g transform="translate(148.167812 62.64) scale(0.12 -0.12)">
     <defs>
      <path id="DejaVuSans-64" d="M 2906 2969 
L 2906 4863 
L 3481 4863 
L 3481 0 
L 2906 0 
L 2906 525 
Q 2725 213 2448 61 
Q 2172 -91 1784 -91 
Q 1150 -91 751 415 
Q 353 922 353 1747 
Q 353 2572 751 3078 
Q 1150 3584 1784 3584 
Q 2172 3584 2448 3432 
Q 2725 3281 2906 2969 
z
M 947 1747 
Q 947 1113 1208 752 
Q 1469 391 1925 391 
Q 2381 391 2643 752 
Q 2906 1113 2906 1747 
Q 2906 2381 2643 2742 
Q 2381 3103 1925 3103 
Q 1469 3103 1208 2742 
Q 947 2381 947 1747 
z
" transform="scale(0.015625)"/>
      <path id="DejaVuSans-63" d="M 3122 3366 
L 3122 2828 
Q 2878 2963 2633 3030 
Q 2388 3097 2138 3097 
Q 1578 3097 1268 2742 
Q 959 2388 959 1747 
Q 959 1106 1268 751 
Q 1578 397 2138 397 
Q 2388 397 2633 464 
Q 2878 531 3122 666 
L 3122 134 
Q 2881 22 2623 -34 
Q 2366 -91 2075 -91 
Q 1284 -91 818 406 
Q 353 903 353 1747 
Q 353 2603 823 3093 
Q 1294 3584 2113 3584 
Q 2378 3584 2631 3529 
Q 2884 3475 3122 3366 
z
" transform="scale(0.015625)"/>
      <path id="DejaVuSans-6f" d="M 1959 3097 
Q 1497 3097 1228 2736 
Q 959 2375 959 1747 
Q 959 1119 1226 758 
Q 1494 397 1959 397 
Q 2419 397 2687 759 
Q 2956 1122 2956 1747 
Q 2956 2369 2687 2733 
Q 2419 3097 1959 3097 
z
M 1959 3584 
Q 2709 3584 3137 3096 
Q 3566 2609 3566 1747 
Q 3566 888 3137 398 
Q 2709 -91 1959 -91 
Q 1206 -91 779 398 
Q 353 888 353 1747 
Q 353 2609 779 3096 
Q 1206 3584 1959 3584 
z
" transform="scale(0.015625)"/>
     </defs>
     <use xlink:href="#DejaVuSans-64"/>
     <use xlink:href="#DejaVuSans-65" transform="translate(63.476562 0)"/>
     <use xlink:href="#DejaVuSans-63" transform="translate(125 0)"/>
     <use xlink:href="#DejaVuSans-6f" transform="translate(179.980469 0)"/>
     <use xlink:href="#DejaVuSans-64" transform="translate(241.162109 0)"/>
     <use xlink:href="#DejaVuSans-65" transform="translate(304.638672 0)"/>
    </g>
   </g>
  </g>
  <g id="axes_2">
   <g id="patch_7">
    <path d="M 340.28 181.96 
L 568.08 181.96 
L 568.08 68.64 
L 340.28 68.64 
z
" style="fill: #ffffff"/>
   </g>
   <g id="FillBetweenPolyCollection_2">
    <defs>
     <path id="ma455a134d1" d="M 350.634545 -255.867547 
L 350.634545 -255.190909 
L 355.236566 -258.574101 
L 359.838586 -259.758218 
L 364.440606 -259.081579 
L 369.042626 -259.927377 
L 373.644646 -262.295611 
L 378.246667 -256.375026 
L 382.848687 -256.882505 
L 387.450707 -257.897462 
L 392.052727 -259.250739 
L 396.654747 -269.569473 
L 401.256768 -262.126452 
L 405.858788 -263.479728 
L 410.460808 -264.494686 
L 415.062828 -265.678803 
L 419.664848 -266.524601 
L 424.266869 -291.898537 
L 428.868889 -268.723675 
L 433.470909 -270.246111 
L 438.072929 -270.92275 
L 442.674949 -272.106867 
L 447.27697 -273.460143 
L 451.87899 -274.64426 
L 456.48101 -307.122899 
L 461.08303 -309.829452 
L 465.685051 -312.028527 
L 470.287071 -314.227601 
L 474.889091 -316.595835 
L 479.491111 -318.62575 
L 484.093131 -320.317346 
L 488.695152 -322.51642 
L 493.297172 -324.546335 
L 497.899192 -325.730452 
L 502.501212 -328.775325 
L 507.103232 -329.451963 
L 511.705253 -333.004314 
L 516.307273 -333.342633 
L 520.909293 -336.387506 
L 525.511313 -338.75574 
L 530.113333 -340.785655 
L 534.715354 -342.308091 
L 539.317374 -345.352963 
L 543.919394 -347.044559 
L 548.521414 -348.059516 
L 553.123434 -350.59691 
L 557.725455 -352.119346 
L 557.725455 -358.209091 
L 557.725455 -358.209091 
L 553.123434 -357.532453 
L 548.521414 -354.318421 
L 543.919394 -352.626825 
L 539.317374 -349.920272 
L 534.715354 -347.044559 
L 530.113333 -344.676325 
L 525.511313 -344.507165 
L 520.909293 -340.954814 
L 516.307273 -338.58658 
L 511.705253 -336.218346 
L 507.103232 -336.894984 
L 502.501212 -332.158516 
L 497.899192 -330.128601 
L 493.297172 -328.775325 
L 488.695152 -327.252888 
L 484.093131 -324.038857 
L 479.491111 -324.038857 
L 474.889091 -320.148186 
L 470.287071 -318.287431 
L 465.685051 -315.750037 
L 461.08303 -313.043484 
L 456.48101 -312.874325 
L 451.87899 -308.645335 
L 447.27697 -303.739707 
L 442.674949 -303.739707 
L 438.072929 -300.018197 
L 433.470909 -298.83408 
L 428.868889 -297.649963 
L 424.266869 -294.943409 
L 419.664848 -291.052739 
L 415.062828 -289.530303 
L 410.460808 -287.500388 
L 405.858788 -281.918122 
L 401.256768 -280.057367 
L 396.654747 -272.276026 
L 392.052727 -271.430228 
L 387.450707 -259.758218 
L 382.848687 -258.066622 
L 378.246667 -263.987207 
L 373.644646 -262.80309 
L 369.042626 -260.773175 
L 364.440606 -261.788133 
L 359.838586 -260.434856 
L 355.236566 -259.250739 
L 350.634545 -255.867547 
z
" style="stroke: #ff7f0e; stroke-opacity: 0.2"/>
    </defs>
    <g clip-path="url(#p43ef44bf7d)">
     <use xlink:href="#ma455a134d1" x="0" y="432" style="fill: #ff7f0e; fill-opacity: 0.2; stroke: #ff7f0e; stroke-opacity: 0.2"/>
    </g>
   </g>
   <g id="matplotlib.axis_3">
    <g id="xtick_6">
     <g id="line2d_18">
      <path d="M 346.032525 181.96 
L 346.032525 68.64 
" clip-path="url(#p43ef44bf7d)" style="fill: none; stroke: #b0b0b0; stroke-opacity: 0.25; stroke-width: 0.8; stroke-linecap: square"/>
     </g>
     <g id="line2d_19">
      <g>
       <use xlink:href="#m98556b6305" x="346.032525" y="181.96" style="stroke: #000000; stroke-width: 0.8"/>
      </g>
     </g>
     <g id="text_12">
      <!-- 0 -->
      <g transform="translate(342.851275 196.558437) scale(0.1 -0.1)">
       <use xlink:href="#DejaVuSans-30"/>
      </g>
     </g>
    </g>
    <g id="xtick_7">
     <g id="line2d_20">
      <path d="M 392.052727 181.96 
L 392.052727 68.64 
" clip-path="url(#p43ef44bf7d)" style="fill: none; stroke: #b0b0b0; stroke-opacity: 0.25; stroke-width: 0.8; stroke-linecap: square"/>
     </g>
     <g id="line2d_21">
      <g>
       <use xlink:href="#m98556b6305" x="392.052727" y="181.96" style="stroke: #000000; stroke-width: 0.8"/>
      </g>
     </g>
     <g id="text_13">
      <!-- 10 -->
      <g transform="translate(385.690227 196.558437) scale(0.1 -0.1)">
       <use xlink:href="#DejaVuSans-31"/>
       <use xlink:href="#DejaVuSans-30" transform="translate(63.623047 0)"/>
      </g>
     </g>
    </g>
    <g id="xtick_8">
     <g id="line2d_22">
      <path d="M 438.072929 181.96 
L 438.072929 68.64 
" clip-path="url(#p43ef44bf7d)" style="fill: none; stroke: #b0b0b0; stroke-opacity: 0.25; stroke-width: 0.8; stroke-linecap: square"/>
     </g>
     <g id="line2d_23">
      <g>
       <use xlink:href="#m98556b6305" x="438.072929" y="181.96" style="stroke: #000000; stroke-width: 0.8"/>
      </g>
     </g>
     <g id="text_14">
      <!-- 20 -->
      <g transform="translate(431.710429 196.558437) scale(0.1 -0.1)">
       <use xlink:href="#DejaVuSans-32"/>
       <use xlink:href="#DejaVuSans-30" transform="translate(63.623047 0)"/>
      </g>
     </g>
    </g>
    <g id="xtick_9">
     <g id="line2d_24">
      <path d="M 484.093131 181.96 
L 484.093131 68.64 
" clip-path="url(#p43ef44bf7d)" style="fill: none; stroke: #b0b0b0; stroke-opacity: 0.25; stroke-width: 0.8; stroke-linecap: square"/>
     </g>
     <g id="line2d_25">
      <g>
       <use xlink:href="#m98556b6305" x="484.093131" y="181.96" style="stroke: #000000; stroke-width: 0.8"/>
      </g>
     </g>
     <g id="text_15">
      <!-- 30 -->
      <g transform="translate(477.730631 196.558437) scale(0.1 -0.1)">
       <use xlink:href="#DejaVuSans-33"/>
       <use xlink:href="#DejaVuSans-30" transform="translate(63.623047 0)"/>
      </g>
     </g>
    </g>
    <g id="xtick_10">
     <g id="line2d_26">
      <path d="M 530.113333 181.96 
L 530.113333 68.64 
" clip-path="url(#p43ef44bf7d)" style="fill: none; stroke: #b0b0b0; stroke-opacity: 0.25; stroke-width: 0.8; stroke-linecap: square"/>
     </g>
     <g id="line2d_27">
      <g>
       <use xlink:href="#m98556b6305" x="530.113333" y="181.96" style="stroke: #000000; stroke-width: 0.8"/>
      </g>
     </g>
     <g id="text_16">
      <!-- 40 -->
      <g transform="translate(523.750833 196.558437) scale(0.1 -0.1)">
       <use xlink:href="#DejaVuSans-34"/>
       <use xlink:href="#DejaVuSans-30" transform="translate(63.623047 0)"/>
      </g>
     </g>
    </g>
    <g id="text_17">
     <!-- Input -->
     <g transform="translate(439.938437 210.996406) scale(0.11 -0.11)">
      <use xlink:href="#DejaVuSans-49"/>
      <use xlink:href="#DejaVuSans-6e" transform="translate(29.492188 0)"/>
      <use xlink:href="#DejaVuSans-70" transform="translate(92.871094 0)"/>
      <use xlink:href="#DejaVuSans-75" transform="translate(156.347656 0)"/>
      <use xlink:href="#DejaVuSans-74" transform="translate(219.726562 0)"/>
     </g>
    </g>
   </g>
   <g id="matplotlib.axis_4">
    <g id="ytick_4">
     <g id="line2d_28">
      <path d="M 340.28 154.480027 
L 568.08 154.480027 
" clip-path="url(#p43ef44bf7d)" style="fill: none; stroke: #b0b0b0; stroke-opacity: 0.25; stroke-width: 0.8; stroke-linecap: square"/>
     </g>
     <g id="line2d_29">
      <g>
       <use xlink:href="#mb7b42f9214" x="340.28" y="154.480027" style="stroke: #000000; stroke-width: 0.8"/>
      </g>
     </g>
     <g id="text_18">
      <!-- 0.2 -->
      <g transform="translate(317.376875 158.279246) scale(0.1 -0.1)">
       <use xlink:href="#DejaVuSans-30"/>
       <use xlink:href="#DejaVuSans-2e" transform="translate(63.623047 0)"/>
       <use xlink:href="#DejaVuSans-32" transform="translate(95.410156 0)"/>
      </g>
     </g>
    </g>
    <g id="ytick_5">
     <g id="line2d_30">
      <path d="M 340.28 120.648112 
L 568.08 120.648112 
" clip-path="url(#p43ef44bf7d)" style="fill: none; stroke: #b0b0b0; stroke-opacity: 0.25; stroke-width: 0.8; stroke-linecap: square"/>
     </g>
     <g id="line2d_31">
      <g>
       <use xlink:href="#mb7b42f9214" x="340.28" y="120.648112" style="stroke: #000000; stroke-width: 0.8"/>
      </g>
     </g>
     <g id="text_19">
      <!-- 0.4 -->
      <g transform="translate(317.376875 124.44733) scale(0.1 -0.1)">
       <use xlink:href="#DejaVuSans-30"/>
       <use xlink:href="#DejaVuSans-2e" transform="translate(63.623047 0)"/>
       <use xlink:href="#DejaVuSans-34" transform="translate(95.410156 0)"/>
      </g>
     </g>
    </g>
    <g id="ytick_6">
     <g id="line2d_32">
      <path d="M 340.28 86.816196 
L 568.08 86.816196 
" clip-path="url(#p43ef44bf7d)" style="fill: none; stroke: #b0b0b0; stroke-opacity: 0.25; stroke-width: 0.8; stroke-linecap: square"/>
     </g>
     <g id="line2d_33">
      <g>
       <use xlink:href="#mb7b42f9214" x="340.28" y="86.816196" style="stroke: #000000; stroke-width: 0.8"/>
      </g>
     </g>
     <g id="text_20">
      <!-- 0.6 -->
      <g transform="translate(317.376875 90.615415) scale(0.1 -0.1)">
       <use xlink:href="#DejaVuSans-30"/>
       <use xlink:href="#DejaVuSans-2e" transform="translate(63.623047 0)"/>
       <use xlink:href="#DejaVuSans-36" transform="translate(95.410156 0)"/>
      </g>
     </g>
    </g>
    <g id="text_21">
     <!-- Time (s) -->
     <g transform="translate(311.089219 147.661797) rotate(-90) scale(0.11 -0.11)">
      <use xlink:href="#DejaVuSans-54"/>
      <use xlink:href="#DejaVuSans-69" transform="translate(57.958984 0)"/>
      <use xlink:href="#DejaVuSans-6d" transform="translate(85.742188 0)"/>
      <use xlink:href="#DejaVuSans-65" transform="translate(183.154297 0)"/>
      <use xlink:href="#DejaVuSans-20" transform="translate(244.677734 0)"/>
      <use xlink:href="#DejaVuSans-28" transform="translate(276.464844 0)"/>
      <use xlink:href="#DejaVuSans-73" transform="translate(315.478516 0)"/>
      <use xlink:href="#DejaVuSans-29" transform="translate(367.578125 0)"/>
     </g>
    </g>
   </g>
   <g id="line2d_34">
    <path d="M 350.634545 176.639931 
L 355.236566 173.08758 
L 359.838586 171.903463 
L 364.440606 170.888506 
L 369.042626 171.565144 
L 373.644646 169.535229 
L 378.246667 168.689431 
L 382.848687 174.610016 
L 387.450707 173.425899 
L 392.052727 172.241782 
L 396.654747 161.415569 
L 401.256768 168.520272 
L 405.858788 152.111793 
L 410.460808 145.683729 
L 415.062828 144.161293 
L 419.664848 141.793059 
L 424.266869 139.255665 
L 428.868889 137.564069 
L 433.470909 134.519197 
L 438.072929 135.195835 
L 442.674949 131.643484 
L 447.27697 156.340782 
L 451.87899 125.38458 
L 456.48101 122.678027 
L 461.08303 120.648112 
L 465.685051 118.449037 
L 470.287071 116.757441 
L 474.889091 113.712569 
L 479.491111 112.528452 
L 484.093131 109.31442 
L 488.695152 107.791984 
L 493.297172 105.085431 
L 497.899192 104.408792 
L 502.501212 102.040558 
L 507.103232 99.334005 
L 511.705253 98.149888 
L 516.307273 95.274175 
L 520.909293 93.582579 
L 525.511313 90.876026 
L 530.113333 89.015271 
L 534.715354 87.661994 
L 539.317374 85.46292 
L 543.919394 82.418047 
L 548.521414 81.910569 
L 553.123434 78.358218 
L 557.725455 78.189058 
" clip-path="url(#p43ef44bf7d)" style="fill: none; stroke: #ff7f0e; stroke-width: 1.8; stroke-linecap: square"/>
   </g>
   <g id="patch_8">
    <path d="M 340.28 181.96 
L 340.28 68.64 
" style="fill: none; stroke: #000000; stroke-width: 0.8; stroke-linejoin: miter; stroke-linecap: square"/>
   </g>
   <g id="patch_9">
    <path d="M 568.08 181.96 
L 568.08 68.64 
" style="fill: none; stroke: #000000; stroke-width: 0.8; stroke-linejoin: miter; stroke-linecap: square"/>
   </g>
   <g id="patch_10">
    <path d="M 340.28 181.96 
L 568.08 181.96 
" style="fill: none; stroke: #000000; stroke-width: 0.8; stroke-linejoin: miter; stroke-linecap: square"/>
   </g>
   <g id="patch_11">
    <path d="M 340.28 68.64 
L 568.08 68.64 
" style="fill: none; stroke: #000000; stroke-width: 0.8; stroke-linejoin: miter; stroke-linecap: square"/>
   </g>
   <g id="text_22">
    <!-- trace -->
    <g transform="translate(438.693437 62.64) scale(0.12 -0.12)">
     <defs>
      <path id="DejaVuSans-72" d="M 2631 2963 
Q 2534 3019 2420 3045 
Q 2306 3072 2169 3072 
Q 1681 3072 1420 2755 
Q 1159 2438 1159 1844 
L 1159 0 
L 581 0 
L 581 3500 
L 1159 3500 
L 1159 2956 
Q 1341 3275 1631 3429 
Q 1922 3584 2338 3584 
Q 2397 3584 2469 3576 
Q 2541 3569 2628 3553 
L 2631 2963 
z
" transform="scale(0.015625)"/>
      <path id="DejaVuSans-61" d="M 2194 1759 
Q 1497 1759 1228 1600 
Q 959 1441 959 1056 
Q 959 750 1161 570 
Q 1363 391 1709 391 
Q 2188 391 2477 730 
Q 2766 1069 2766 1631 
L 2766 1759 
L 2194 1759 
z
M 3341 1997 
L 3341 0 
L 2766 0 
L 2766 531 
Q 2569 213 2275 61 
Q 1981 -91 1556 -91 
Q 1019 -91 701 211 
Q 384 513 384 1019 
Q 384 1609 779 1909 
Q 1175 2209 1959 2209 
L 2766 2209 
L 2766 2266 
Q 2766 2663 2505 2880 
Q 2244 3097 1772 3097 
Q 1472 3097 1187 3025 
Q 903 2953 641 2809 
L 641 3341 
Q 956 3463 1253 3523 
Q 1550 3584 1831 3584 
Q 2591 3584 2966 3190 
Q 3341 2797 3341 1997 
z
" transform="scale(0.015625)"/>
     </defs>
     <use xlink:href="#DejaVuSans-74"/>
     <use xlink:href="#DejaVuSans-72" transform="translate(39.208984 0)"/>
     <use xlink:href="#DejaVuSans-61" transform="translate(80.322266 0)"/>
     <use xlink:href="#DejaVuSans-63" transform="translate(141.601562 0)"/>
     <use xlink:href="#DejaVuSans-65" transform="translate(196.582031 0)"/>
    </g>
   </g>
  </g>
  <g id="axes_3">
   <g id="patch_12">
    <path d="M 624.32 181.96 
L 852.12 181.96 
L 852.12 68.64 
L 624.32 68.64 
z
" style="fill: #ffffff"/>
   </g>
   <g id="FillBetweenPolyCollection_3">
    <defs>
     <path id="m23e1e29bf0" d="M 634.674545 -346.964149 
L 634.674545 -276.592574 
L 639.276566 -263.896671 
L 643.878586 -255.190909 
L 648.480606 -262.808451 
L 653.082626 -266.073111 
L 657.684646 -267.161332 
L 662.286667 -281.308195 
L 666.888687 -270.063252 
L 671.490707 -268.249552 
L 676.092727 -264.259411 
L 680.694747 -277.318054 
L 685.296768 -270.063252 
L 689.898788 -282.033675 
L 694.500808 -272.965173 
L 699.102828 -269.337772 
L 703.704848 -280.219974 
L 708.306869 -291.464917 
L 712.908889 -276.592574 
L 717.510909 -286.749296 
L 722.112929 -292.190397 
L 726.714949 -289.288476 
L 731.31697 -289.651216 
L 735.91899 -294.729577 
L 740.52101 -298.356978 
L 745.12303 -297.268758 
L 749.725051 -307.42548 
L 754.327071 -297.994238 
L 758.929091 -307.06274 
L 763.531111 -306.7 
L 768.133131 -296.543278 
L 772.735152 -306.7 
L 777.337172 -287.837516 
L 781.939192 -284.935595 
L 786.541212 -287.837516 
L 791.143232 -279.494494 
L 795.745253 -279.494494 
L 800.347273 -286.023816 
L 804.949293 -282.396415 
L 809.551313 -284.935595 
L 814.153333 -284.935595 
L 818.755354 -282.396415 
L 823.357374 -284.935595 
L 827.959394 -278.406274 
L 832.561414 -287.474776 
L 837.163434 -287.837516 
L 841.765455 -289.651216 
L 841.765455 -342.248528 
L 841.765455 -342.248528 
L 837.163434 -339.346607 
L 832.561414 -322.660563 
L 827.959394 -316.493982 
L 823.357374 -311.415621 
L 818.755354 -346.238668 
L 814.153333 -348.777849 
L 809.551313 -349.503329 
L 804.949293 -354.94443 
L 800.347273 -336.807426 
L 795.745253 -314.317542 
L 791.143232 -331.003585 
L 786.541212 -314.680282 
L 781.939192 -358.209091 
L 777.337172 -340.434827 
L 772.735152 -349.503329 
L 768.133131 -325.562484 
L 763.531111 -349.140589 
L 758.929091 -344.062228 
L 754.327071 -344.787708 
L 749.725051 -355.66991 
L 745.12303 -338.983867 
L 740.52101 -343.336748 
L 735.91899 -355.30717 
L 731.31697 -349.866069 
L 726.714949 -349.140589 
L 722.112929 -346.964149 
L 717.510909 -340.797567 
L 712.908889 -334.268246 
L 708.306869 -331.729065 
L 703.704848 -328.101665 
L 699.102828 -339.709347 
L 694.500808 -331.366325 
L 689.898788 -334.993726 
L 685.296768 -303.435339 
L 680.694747 -330.640845 
L 676.092727 -341.160307 
L 671.490707 -333.180026 
L 666.888687 -314.317542 
L 662.286667 -334.268246 
L 657.684646 -346.964149 
L 653.082626 -325.562484 
L 648.480606 -300.170679 
L 643.878586 -305.24904 
L 639.276566 -297.268758 
L 634.674545 -346.964149 
z
" style="stroke: #ff7f0e; stroke-opacity: 0.2"/>
    </defs>
    <g clip-path="url(#p03d1fc9a6f)">
     <use xlink:href="#m23e1e29bf0" x="0" y="432" style="fill: #ff7f0e; fill-opacity: 0.2; stroke: #ff7f0e; stroke-opacity: 0.2"/>
    </g>
   </g>
   <g id="matplotlib.axis_5">
    <g id="xtick_11">
     <g id="line2d_35">
      <path d="M 630.072525 181.96 
L 630.072525 68.64 
" clip-path="url(#p03d1fc9a6f)" style="fill: none; stroke: #b0b0b0; stroke-opacity: 0.25; stroke-width: 0.8; stroke-linecap: square"/>
     </g>
     <g id="line2d_36">
      <g>
       <use xlink:href="#m98556b6305" x="630.072525" y="181.96" style="stroke: #000000; stroke-width: 0.8"/>
      </g>
     </g>
     <g id="text_23">
      <!-- 0 -->
      <g transform="translate(626.891275 196.558437) scale(0.1 -0.1)">
       <use xlink:href="#DejaVuSans-30"/>
      </g>
     </g>
    </g>
    <g id="xtick_12">
     <g id="line2d_37">
      <path d="M 676.092727 181.96 
L 676.092727 68.64 
" clip-path="url(#p03d1fc9a6f)" style="fill: none; stroke: #b0b0b0; stroke-opacity: 0.25; stroke-width: 0.8; stroke-linecap: square"/>
     </g>
     <g id="line2d_38">
      <g>
       <use xlink:href="#m98556b6305" x="676.092727" y="181.96" style="stroke: #000000; stroke-width: 0.8"/>
      </g>
     </g>
     <g id="text_24">
      <!-- 10 -->
      <g transform="translate(669.730227 196.558437) scale(0.1 -0.1)">
       <use xlink:href="#DejaVuSans-31"/>
       <use xlink:href="#DejaVuSans-30" transform="translate(63.623047 0)"/>
      </g>
     </g>
    </g>
    <g id="xtick_13">
     <g id="line2d_39">
      <path d="M 722.112929 181.96 
L 722.112929 68.64 
" clip-path="url(#p03d1fc9a6f)" style="fill: none; stroke: #b0b0b0; stroke-opacity: 0.25; stroke-width: 0.8; stroke-linecap: square"/>
     </g>
     <g id="line2d_40">
      <g>
       <use xlink:href="#m98556b6305" x="722.112929" y="181.96" style="stroke: #000000; stroke-width: 0.8"/>
      </g>
     </g>
     <g id="text_25">
      <!-- 20 -->
      <g transform="translate(715.750429 196.558437) scale(0.1 -0.1)">
       <use xlink:href="#DejaVuSans-32"/>
       <use xlink:href="#DejaVuSans-30" transform="translate(63.623047 0)"/>
      </g>
     </g>
    </g>
    <g id="xtick_14">
     <g id="line2d_41">
      <path d="M 768.133131 181.96 
L 768.133131 68.64 
" clip-path="url(#p03d1fc9a6f)" style="fill: none; stroke: #b0b0b0; stroke-opacity: 0.25; stroke-width: 0.8; stroke-linecap: square"/>
     </g>
     <g id="line2d_42">
      <g>
       <use xlink:href="#m98556b6305" x="768.133131" y="181.96" style="stroke: #000000; stroke-width: 0.8"/>
      </g>
     </g>
     <g id="text_26">
      <!-- 30 -->
      <g transform="translate(761.770631 196.558437) scale(0.1 -0.1)">
       <use xlink:href="#DejaVuSans-33"/>
       <use xlink:href="#DejaVuSans-30" transform="translate(63.623047 0)"/>
      </g>
     </g>
    </g>
    <g id="xtick_15">
     <g id="line2d_43">
      <path d="M 814.153333 181.96 
L 814.153333 68.64 
" clip-path="url(#p03d1fc9a6f)" style="fill: none; stroke: #b0b0b0; stroke-opacity: 0.25; stroke-width: 0.8; stroke-linecap: square"/>
     </g>
     <g id="line2d_44">
      <g>
       <use xlink:href="#m98556b6305" x="814.153333" y="181.96" style="stroke: #000000; stroke-width: 0.8"/>
      </g>
     </g>
     <g id="text_27">
      <!-- 40 -->
      <g transform="translate(807.790833 196.558437) scale(0.1 -0.1)">
       <use xlink:href="#DejaVuSans-34"/>
       <use xlink:href="#DejaVuSans-30" transform="translate(63.623047 0)"/>
      </g>
     </g>
    </g>
    <g id="text_28">
     <!-- Input -->
     <g transform="translate(723.978438 210.996406) scale(0.11 -0.11)">
      <use xlink:href="#DejaVuSans-49"/>
      <use xlink:href="#DejaVuSans-6e" transform="translate(29.492188 0)"/>
      <use xlink:href="#DejaVuSans-70" transform="translate(92.871094 0)"/>
      <use xlink:href="#DejaVuSans-75" transform="translate(156.347656 0)"/>
      <use xlink:href="#DejaVuSans-74" transform="translate(219.726562 0)"/>
     </g>
    </g>
   </g>
   <g id="matplotlib.axis_6">
    <g id="ytick_7">
     <g id="line2d_45">
      <path d="M 624.32 155.044686 
L 852.12 155.044686 
" clip-path="url(#p03d1fc9a6f)" style="fill: none; stroke: #b0b0b0; stroke-opacity: 0.25; stroke-width: 0.8; stroke-linecap: square"/>
     </g>
     <g id="line2d_46">
      <g>
       <use xlink:href="#mb7b42f9214" x="624.32" y="155.044686" style="stroke: #000000; stroke-width: 0.8"/>
      </g>
     </g>
     <g id="text_29">
      <!-- 2.5 -->
      <g transform="translate(601.416875 158.843905) scale(0.1 -0.1)">
       <defs>
        <path id="DejaVuSans-35" d="M 691 4666 
L 3169 4666 
L 3169 4134 
L 1269 4134 
L 1269 2991 
Q 1406 3038 1543 3061 
Q 1681 3084 1819 3084 
Q 2600 3084 3056 2656 
Q 3513 2228 3513 1497 
Q 3513 744 3044 326 
Q 2575 -91 1722 -91 
Q 1428 -91 1123 -41 
Q 819 9 494 109 
L 494 744 
Q 775 591 1075 516 
Q 1375 441 1709 441 
Q 2250 441 2565 725 
Q 2881 1009 2881 1497 
Q 2881 1984 2565 2268 
Q 2250 2553 1709 2553 
Q 1456 2553 1204 2497 
Q 953 2441 691 2322 
L 691 4666 
z
" transform="scale(0.015625)"/>
       </defs>
       <use xlink:href="#DejaVuSans-32"/>
       <use xlink:href="#DejaVuSans-2e" transform="translate(63.623047 0)"/>
       <use xlink:href="#DejaVuSans-35" transform="translate(95.410156 0)"/>
      </g>
     </g>
    </g>
    <g id="ytick_8">
     <g id="line2d_47">
      <path d="M 624.32 118.770679 
L 852.12 118.770679 
" clip-path="url(#p03d1fc9a6f)" style="fill: none; stroke: #b0b0b0; stroke-opacity: 0.25; stroke-width: 0.8; stroke-linecap: square"/>
     </g>
     <g id="line2d_48">
      <g>
       <use xlink:href="#mb7b42f9214" x="624.32" y="118.770679" style="stroke: #000000; stroke-width: 0.8"/>
      </g>
     </g>
     <g id="text_30">
      <!-- 2.6 -->
      <g transform="translate(601.416875 122.569897) scale(0.1 -0.1)">
       <use xlink:href="#DejaVuSans-32"/>
       <use xlink:href="#DejaVuSans-2e" transform="translate(63.623047 0)"/>
       <use xlink:href="#DejaVuSans-36" transform="translate(95.410156 0)"/>
      </g>
     </g>
    </g>
    <g id="ytick_9">
     <g id="line2d_49">
      <path d="M 624.32 82.496671 
L 852.12 82.496671 
" clip-path="url(#p03d1fc9a6f)" style="fill: none; stroke: #b0b0b0; stroke-opacity: 0.25; stroke-width: 0.8; stroke-linecap: square"/>
     </g>
     <g id="line2d_50">
      <g>
       <use xlink:href="#mb7b42f9214" x="624.32" y="82.496671" style="stroke: #000000; stroke-width: 0.8"/>
      </g>
     </g>
     <g id="text_31">
      <!-- 2.7 -->
      <g transform="translate(601.416875 86.29589) scale(0.1 -0.1)">
       <defs>
        <path id="DejaVuSans-37" d="M 525 4666 
L 3525 4666 
L 3525 4397 
L 1831 0 
L 1172 0 
L 2766 4134 
L 525 4134 
L 525 4666 
z
" transform="scale(0.015625)"/>
       </defs>
       <use xlink:href="#DejaVuSans-32"/>
       <use xlink:href="#DejaVuSans-2e" transform="translate(63.623047 0)"/>
       <use xlink:href="#DejaVuSans-37" transform="translate(95.410156 0)"/>
      </g>
     </g>
    </g>
    <g id="text_32">
     <!-- Time (s) -->
     <g transform="translate(595.129219 147.661797) rotate(-90) scale(0.11 -0.11)">
      <use xlink:href="#DejaVuSans-54"/>
      <use xlink:href="#DejaVuSans-69" transform="translate(57.958984 0)"/>
      <use xlink:href="#DejaVuSans-6d" transform="translate(85.742188 0)"/>
      <use xlink:href="#DejaVuSans-65" transform="translate(183.154297 0)"/>
      <use xlink:href="#DejaVuSans-20" transform="translate(244.677734 0)"/>
      <use xlink:href="#DejaVuSans-28" transform="translate(276.464844 0)"/>
      <use xlink:href="#DejaVuSans-73" transform="translate(315.478516 0)"/>
      <use xlink:href="#DejaVuSans-29" transform="translate(367.578125 0)"/>
     </g>
    </g>
   </g>
   <g id="line2d_51">
    <path d="M 634.674545 143.074264 
L 639.276566 153.230986 
L 643.878586 148.152625 
L 648.480606 153.593726 
L 653.082626 146.701665 
L 657.684646 141.260563 
L 662.286667 144.162484 
L 666.888687 150.329065 
L 671.490707 150.329065 
L 676.092727 144.525224 
L 680.694747 129.652881 
L 685.296768 146.701665 
L 689.898788 141.623303 
L 694.500808 136.182202 
L 699.102828 139.809603 
L 703.704848 139.809603 
L 708.306869 133.280282 
L 712.908889 138.358643 
L 717.510909 135.819462 
L 722.112929 127.47644 
L 726.714949 124.93726 
L 731.31697 130.378361 
L 735.91899 124.93726 
L 740.52101 116.956978 
L 745.12303 120.947119 
L 749.725051 112.241357 
L 754.327071 121.672599 
L 758.929091 112.966837 
L 763.531111 114.780538 
L 768.133131 116.594238 
L 772.735152 113.692318 
L 777.337172 123.84904 
L 781.939192 137.995903 
L 786.541212 131.829321 
L 791.143232 138.358643 
L 795.745253 130.741101 
L 800.347273 124.21178 
L 804.949293 120.221639 
L 809.551313 113.692318 
L 814.153333 111.153137 
L 818.755354 136.544942 
L 823.357374 129.652881 
L 827.959394 132.917542 
L 832.561414 128.201921 
L 837.163434 124.57452 
L 841.765455 119.496159 
" clip-path="url(#p03d1fc9a6f)" style="fill: none; stroke: #ff7f0e; stroke-width: 1.8; stroke-linecap: square"/>
   </g>
   <g id="patch_13">
    <path d="M 624.32 181.96 
L 624.32 68.64 
" style="fill: none; stroke: #000000; stroke-width: 0.8; stroke-linejoin: miter; stroke-linecap: square"/>
   </g>
   <g id="patch_14">
    <path d="M 852.12 181.96 
L 852.12 68.64 
" style="fill: none; stroke: #000000; stroke-width: 0.8; stroke-linejoin: miter; stroke-linecap: square"/>
   </g>
   <g id="patch_15">
    <path d="M 624.32 181.96 
L 852.12 181.96 
" style="fill: none; stroke: #000000; stroke-width: 0.8; stroke-linejoin: miter; stroke-linecap: square"/>
   </g>
   <g id="patch_16">
    <path d="M 624.32 68.64 
L 852.12 68.64 
" style="fill: none; stroke: #000000; stroke-width: 0.8; stroke-linejoin: miter; stroke-linecap: square"/>
   </g>
   <g id="text_33">
    <!-- preprocess -->
    <g transform="translate(705.333438 62.64) scale(0.12 -0.12)">
     <use xlink:href="#DejaVuSans-70"/>
     <use xlink:href="#DejaVuSans-72" transform="translate(63.476562 0)"/>
     <use xlink:href="#DejaVuSans-65" transform="translate(102.339844 0)"/>
     <use xlink:href="#DejaVuSans-70" transform="translate(163.863281 0)"/>
     <use xlink:href="#DejaVuSans-72" transform="translate(227.339844 0)"/>
     <use xlink:href="#DejaVuSans-6f" transform="translate(266.203125 0)"/>
     <use xlink:href="#DejaVuSans-63" transform="translate(327.384766 0)"/>
     <use xlink:href="#DejaVuSans-65" transform="translate(382.365234 0)"/>
     <use xlink:href="#DejaVuSans-73" transform="translate(443.888672 0)"/>
     <use xlink:href="#DejaVuSans-73" transform="translate(495.988281 0)"/>
    </g>
   </g>
  </g>
  <g id="axes_4">
   <g id="patch_17">
    <path d="M 56.24 353.92 
L 284.04 353.92 
L 284.04 240.6 
L 56.24 240.6 
z
" style="fill: #ffffff"/>
   </g>
   <g id="FillBetweenPolyCollection_4">
    <defs>
     <path id="m64a8731420" d="M 66.594545 -83.464818 
L 66.594545 -83.230909 
L 71.196566 -85.827298 
L 75.798586 -90.608398 
L 80.400606 -91.286733 
L 85.002626 -92.114771 
L 89.604646 -101.798602 
L 94.206667 -102.36934 
L 98.808687 -102.617283 
L 103.410707 -103.398539 
L 108.012727 -104.52598 
L 112.614747 -105.686169 
L 117.216768 -122.859764 
L 121.818788 -123.570847 
L 126.420808 -124.183689 
L 131.022828 -123.767331 
L 135.624848 -125.039796 
L 140.226869 -125.269026 
L 144.828889 -126.686515 
L 149.430909 -126.31226 
L 154.032929 -127.299356 
L 158.634949 -127.042056 
L 163.23697 -127.884129 
L 167.83899 -129.259513 
L 172.44101 -171.442654 
L 177.04303 -169.328117 
L 181.645051 -170.577191 
L 186.247071 -171.37716 
L 190.849091 -172.289404 
L 195.451111 -172.663659 
L 200.053131 -172.513957 
L 204.655152 -173.12212 
L 209.257172 -173.220362 
L 213.859192 -173.220362 
L 218.461212 -174.109216 
L 223.063232 -174.563 
L 227.665253 -175.900959 
L 232.267273 -176.382811 
L 236.869293 -176.672858 
L 241.471313 -176.953549 
L 246.073333 -178.539452 
L 250.675354 -178.974522 
L 255.277374 -179.362811 
L 259.879394 -179.662215 
L 264.481414 -180.172136 
L 269.083434 -180.892576 
L 273.685455 -182.132293 
L 273.685455 -186.249091 
L 273.685455 -186.249091 
L 269.083434 -183.956783 
L 264.481414 -184.097129 
L 259.879394 -182.122937 
L 255.277374 -181.617694 
L 250.675354 -181.486705 
L 246.073333 -181.753361 
L 241.471313 -180.434114 
L 236.869293 -179.068086 
L 232.267273 -179.227144 
L 227.665253 -178.773361 
L 223.063232 -177.87515 
L 218.461212 -175.755935 
L 213.859192 -177.847081 
L 209.257172 -176.106799 
L 204.655152 -175.311508 
L 200.053131 -174.502183 
L 195.451111 -175.910315 
L 190.849091 -176.855307 
L 186.247071 -175.788682 
L 181.645051 -173.398133 
L 177.04303 -175.943062 
L 172.44101 -174.010974 
L 167.83899 -131.715557 
L 163.23697 -131.074647 
L 158.634949 -130.648932 
L 154.032929 -130.129655 
L 149.430909 -128.721523 
L 144.828889 -127.767174 
L 140.226869 -127.126264 
L 135.624848 -126.845573 
L 131.022828 -127.051413 
L 126.420808 -126.279513 
L 121.818788 -125.287739 
L 117.216768 -125.292417 
L 112.614747 -108.48372 
L 108.012727 -107.852166 
L 103.410707 -106.228838 
L 98.808687 -105.035902 
L 94.206667 -103.239481 
L 89.604646 -103.791506 
L 85.002626 -93.031694 
L 80.400606 -91.763908 
L 75.798586 -90.963939 
L 71.196566 -86.243656 
L 66.594545 -83.464818 
z
" style="stroke: #ff7f0e; stroke-opacity: 0.2"/>
    </defs>
    <g clip-path="url(#pdcc8e0dc92)">
     <use xlink:href="#m64a8731420" x="0" y="432" style="fill: #ff7f0e; fill-opacity: 0.2; stroke: #ff7f0e; stroke-opacity: 0.2"/>
    </g>
   </g>
   <g id="matplotlib.axis_7">
    <g id="xtick_16">
     <g id="line2d_52">
      <path d="M 61.992525 353.92 
L 61.992525 240.6 
" clip-path="url(#pdcc8e0dc92)" style="fill: none; stroke: #b0b0b0; stroke-opacity: 0.25; stroke-width: 0.8; stroke-linecap: square"/>
     </g>
     <g id="line2d_53">
      <g>
       <use xlink:href="#m98556b6305" x="61.992525" y="353.92" style="stroke: #000000; stroke-width: 0.8"/>
      </g>
     </g>
     <g id="text_34">
      <!-- 0 -->
      <g transform="translate(58.811275 368.518438) scale(0.1 -0.1)">
       <use xlink:href="#DejaVuSans-30"/>
      </g>
     </g>
    </g>
    <g id="xtick_17">
     <g id="line2d_54">
      <path d="M 108.012727 353.92 
L 108.012727 240.6 
" clip-path="url(#pdcc8e0dc92)" style="fill: none; stroke: #b0b0b0; stroke-opacity: 0.25; stroke-width: 0.8; stroke-linecap: square"/>
     </g>
     <g id="line2d_55">
      <g>
       <use xlink:href="#m98556b6305" x="108.012727" y="353.92" style="stroke: #000000; stroke-width: 0.8"/>
      </g>
     </g>
     <g id="text_35">
      <!-- 10 -->
      <g transform="translate(101.650227 368.518438) scale(0.1 -0.1)">
       <use xlink:href="#DejaVuSans-31"/>
       <use xlink:href="#DejaVuSans-30" transform="translate(63.623047 0)"/>
      </g>
     </g>
    </g>
    <g id="xtick_18">
     <g id="line2d_56">
      <path d="M 154.032929 353.92 
L 154.032929 240.6 
" clip-path="url(#pdcc8e0dc92)" style="fill: none; stroke: #b0b0b0; stroke-opacity: 0.25; stroke-width: 0.8; stroke-linecap: square"/>
     </g>
     <g id="line2d_57">
      <g>
       <use xlink:href="#m98556b6305" x="154.032929" y="353.92" style="stroke: #000000; stroke-width: 0.8"/>
      </g>
     </g>
     <g id="text_36">
      <!-- 20 -->
      <g transform="translate(147.670429 368.518438) scale(0.1 -0.1)">
       <use xlink:href="#DejaVuSans-32"/>
       <use xlink:href="#DejaVuSans-30" transform="translate(63.623047 0)"/>
      </g>
     </g>
    </g>
    <g id="xtick_19">
     <g id="line2d_58">
      <path d="M 200.053131 353.92 
L 200.053131 240.6 
" clip-path="url(#pdcc8e0dc92)" style="fill: none; stroke: #b0b0b0; stroke-opacity: 0.25; stroke-width: 0.8; stroke-linecap: square"/>
     </g>
     <g id="line2d_59">
      <g>
       <use xlink:href="#m98556b6305" x="200.053131" y="353.92" style="stroke: #000000; stroke-width: 0.8"/>
      </g>
     </g>
     <g id="text_37">
      <!-- 30 -->
      <g transform="translate(193.690631 368.518438) scale(0.1 -0.1)">
       <use xlink:href="#DejaVuSans-33"/>
       <use xlink:href="#DejaVuSans-30" transform="translate(63.623047 0)"/>
      </g>
     </g>
    </g>
    <g id="xtick_20">
     <g id="line2d_60">
      <path d="M 246.073333 353.92 
L 246.073333 240.6 
" clip-path="url(#pdcc8e0dc92)" style="fill: none; stroke: #b0b0b0; stroke-opacity: 0.25; stroke-width: 0.8; stroke-linecap: square"/>
     </g>
     <g id="line2d_61">
      <g>
       <use xlink:href="#m98556b6305" x="246.073333" y="353.92" style="stroke: #000000; stroke-width: 0.8"/>
      </g>
     </g>
     <g id="text_38">
      <!-- 40 -->
      <g transform="translate(239.710833 368.518438) scale(0.1 -0.1)">
       <use xlink:href="#DejaVuSans-34"/>
       <use xlink:href="#DejaVuSans-30" transform="translate(63.623047 0)"/>
      </g>
     </g>
    </g>
    <g id="text_39">
     <!-- Input -->
     <g transform="translate(155.898438 382.956406) scale(0.11 -0.11)">
      <use xlink:href="#DejaVuSans-49"/>
      <use xlink:href="#DejaVuSans-6e" transform="translate(29.492188 0)"/>
      <use xlink:href="#DejaVuSans-70" transform="translate(92.871094 0)"/>
      <use xlink:href="#DejaVuSans-75" transform="translate(156.347656 0)"/>
      <use xlink:href="#DejaVuSans-74" transform="translate(219.726562 0)"/>
     </g>
    </g>
   </g>
   <g id="matplotlib.axis_8">
    <g id="ytick_10">
     <g id="line2d_62">
      <path d="M 56.24 331.14639 
L 284.04 331.14639 
" clip-path="url(#pdcc8e0dc92)" style="fill: none; stroke: #b0b0b0; stroke-opacity: 0.25; stroke-width: 0.8; stroke-linecap: square"/>
     </g>
     <g id="line2d_63">
      <g>
       <use xlink:href="#mb7b42f9214" x="56.24" y="331.14639" style="stroke: #000000; stroke-width: 0.8"/>
      </g>
     </g>
     <g id="text_40">
      <!-- 5 -->
      <g transform="translate(42.8775 334.945609) scale(0.1 -0.1)">
       <use xlink:href="#DejaVuSans-35"/>
      </g>
     </g>
    </g>
    <g id="ytick_11">
     <g id="line2d_64">
      <path d="M 56.24 307.755495 
L 284.04 307.755495 
" clip-path="url(#pdcc8e0dc92)" style="fill: none; stroke: #b0b0b0; stroke-opacity: 0.25; stroke-width: 0.8; stroke-linecap: square"/>
     </g>
     <g id="line2d_65">
      <g>
       <use xlink:href="#mb7b42f9214" x="56.24" y="307.755495" style="stroke: #000000; stroke-width: 0.8"/>
      </g>
     </g>
     <g id="text_41">
      <!-- 10 -->
      <g transform="translate(36.515 311.554714) scale(0.1 -0.1)">
       <use xlink:href="#DejaVuSans-31"/>
       <use xlink:href="#DejaVuSans-30" transform="translate(63.623047 0)"/>
      </g>
     </g>
    </g>
    <g id="ytick_12">
     <g id="line2d_66">
      <path d="M 56.24 284.364599 
L 284.04 284.364599 
" clip-path="url(#pdcc8e0dc92)" style="fill: none; stroke: #b0b0b0; stroke-opacity: 0.25; stroke-width: 0.8; stroke-linecap: square"/>
     </g>
     <g id="line2d_67">
      <g>
       <use xlink:href="#mb7b42f9214" x="56.24" y="284.364599" style="stroke: #000000; stroke-width: 0.8"/>
      </g>
     </g>
     <g id="text_42">
      <!-- 15 -->
      <g transform="translate(36.515 288.163818) scale(0.1 -0.1)">
       <use xlink:href="#DejaVuSans-31"/>
       <use xlink:href="#DejaVuSans-35" transform="translate(63.623047 0)"/>
      </g>
     </g>
    </g>
    <g id="ytick_13">
     <g id="line2d_68">
      <path d="M 56.24 260.973704 
L 284.04 260.973704 
" clip-path="url(#pdcc8e0dc92)" style="fill: none; stroke: #b0b0b0; stroke-opacity: 0.25; stroke-width: 0.8; stroke-linecap: square"/>
     </g>
     <g id="line2d_69">
      <g>
       <use xlink:href="#mb7b42f9214" x="56.24" y="260.973704" style="stroke: #000000; stroke-width: 0.8"/>
      </g>
     </g>
     <g id="text_43">
      <!-- 20 -->
      <g transform="translate(36.515 264.772923) scale(0.1 -0.1)">
       <use xlink:href="#DejaVuSans-32"/>
       <use xlink:href="#DejaVuSans-30" transform="translate(63.623047 0)"/>
      </g>
     </g>
    </g>
    <g id="text_44">
     <!-- Time (s) -->
     <g transform="translate(30.227344 319.621797) rotate(-90) scale(0.11 -0.11)">
      <use xlink:href="#DejaVuSans-54"/>
      <use xlink:href="#DejaVuSans-69" transform="translate(57.958984 0)"/>
      <use xlink:href="#DejaVuSans-6d" transform="translate(85.742188 0)"/>
      <use xlink:href="#DejaVuSans-65" transform="translate(183.154297 0)"/>
      <use xlink:href="#DejaVuSans-20" transform="translate(244.677734 0)"/>
      <use xlink:href="#DejaVuSans-28" transform="translate(276.464844 0)"/>
      <use xlink:href="#DejaVuSans-73" transform="translate(315.478516 0)"/>
      <use xlink:href="#DejaVuSans-29" transform="translate(367.578125 0)"/>
     </g>
    </g>
   </g>
   <g id="line2d_70">
    <path d="M 66.594545 348.689562 
L 71.196566 345.803125 
L 75.798586 341.185763 
L 80.400606 340.512105 
L 85.002626 339.693423 
L 89.604646 329.406108 
L 94.206667 329.153486 
L 98.808687 329.022497 
L 103.410707 327.983941 
L 108.012727 325.429655 
L 112.614747 324.297536 
L 117.216768 308.30752 
L 121.818788 307.315746 
L 126.420808 307.198791 
L 131.022828 306.68887 
L 135.624848 305.692418 
L 140.226869 305.528682 
L 144.828889 304.822277 
L 149.430909 303.844537 
L 154.032929 303.081994 
L 158.634949 303.830503 
L 163.23697 302.427049 
L 167.83899 301.907771 
L 172.44101 259.350376 
L 177.04303 259.645101 
L 181.645051 259.813515 
L 186.247071 259.542181 
L 190.849091 258.129371 
L 195.451111 258.166796 
L 200.053131 258.148084 
L 204.655152 257.549277 
L 209.257172 257.960957 
L 213.859192 257.132919 
L 218.461212 256.791412 
L 223.063232 255.7435 
L 227.665253 255.43474 
L 232.267273 254.344724 
L 236.869293 254.209057 
L 241.471313 253.310847 
L 246.073333 253.016121 
L 250.675354 252.253578 
L 255.277374 251.650093 
L 259.879394 251.617346 
L 264.481414 250.677032 
L 269.083434 250.16711 
L 273.685455 248.595242 
" clip-path="url(#pdcc8e0dc92)" style="fill: none; stroke: #ff7f0e; stroke-width: 1.8; stroke-linecap: square"/>
   </g>
   <g id="patch_18">
    <path d="M 56.24 353.92 
L 56.24 240.6 
" style="fill: none; stroke: #000000; stroke-width: 0.8; stroke-linejoin: miter; stroke-linecap: square"/>
   </g>
   <g id="patch_19">
    <path d="M 284.04 353.92 
L 284.04 240.6 
" style="fill: none; stroke: #000000; stroke-width: 0.8; stroke-linejoin: miter; stroke-linecap: square"/>
   </g>
   <g id="patch_20">
    <path d="M 56.24 353.92 
L 284.04 353.92 
" style="fill: none; stroke: #000000; stroke-width: 0.8; stroke-linejoin: miter; stroke-linecap: square"/>
   </g>
   <g id="patch_21">
    <path d="M 56.24 240.6 
L 284.04 240.6 
" style="fill: none; stroke: #000000; stroke-width: 0.8; stroke-linejoin: miter; stroke-linecap: square"/>
   </g>
   <g id="text_45">
    <!-- prove -->
    <g transform="translate(153.085 234.6) scale(0.12 -0.12)">
     <defs>
      <path id="DejaVuSans-76" d="M 191 3500 
L 800 3500 
L 1894 563 
L 2988 3500 
L 3597 3500 
L 2284 0 
L 1503 0 
L 191 3500 
z
" transform="scale(0.015625)"/>
     </defs>
     <use xlink:href="#DejaVuSans-70"/>
     <use xlink:href="#DejaVuSans-72" transform="translate(63.476562 0)"/>
     <use xlink:href="#DejaVuSans-6f" transform="translate(102.339844 0)"/>
     <use xlink:href="#DejaVuSans-76" transform="translate(163.521484 0)"/>
     <use xlink:href="#DejaVuSans-65" transform="translate(222.701172 0)"/>
    </g>
   </g>
  </g>
  <g id="axes_5">
   <g id="patch_22">
    <path d="M 340.28 353.92 
L 568.08 353.92 
L 568.08 240.6 
L 340.28 240.6 
z
" style="fill: #ffffff"/>
   </g>
   <g id="FillBetweenPolyCollection_5">
    <defs>
     <path id="m5ea36ce29a" d="M 350.634545 -88.318227 
L 350.634545 -83.230909 
L 355.236566 -85.774568 
L 359.838586 -87.046397 
L 364.440606 -87.046397 
L 369.042626 -88.318227 
L 373.644646 -90.861886 
L 378.246667 -87.046397 
L 382.848687 -87.046397 
L 387.450707 -87.046397 
L 392.052727 -88.318227 
L 396.654747 -87.046397 
L 401.256768 -85.774568 
L 405.858788 -89.590056 
L 410.460808 -89.590056 
L 415.062828 -89.590056 
L 419.664848 -90.861886 
L 424.266869 -103.58018 
L 428.868889 -90.861886 
L 433.470909 -98.492862 
L 438.072929 -99.764691 
L 442.674949 -92.133715 
L 447.27697 -89.590056 
L 451.87899 -90.861886 
L 456.48101 -98.492862 
L 461.08303 -94.677374 
L 465.685051 -94.677374 
L 470.287071 -109.939327 
L 474.889091 -90.861886 
L 479.491111 -94.677374 
L 484.093131 -98.492862 
L 488.695152 -98.492862 
L 493.297172 -90.861886 
L 497.899192 -107.395668 
L 502.501212 -111.211156 
L 507.103232 -113.754815 
L 511.705253 -111.211156 
L 516.307273 -98.492862 
L 520.909293 -94.677374 
L 525.511313 -104.852009 
L 530.113333 -104.852009 
L 534.715354 -98.492862 
L 539.317374 -94.677374 
L 543.919394 -93.405544 
L 548.521414 -104.852009 
L 553.123434 -107.395668 
L 557.725455 -101.036521 
L 557.725455 -121.385791 
L 557.725455 -121.385791 
L 553.123434 -117.570303 
L 548.521414 -137.919574 
L 543.919394 -126.473109 
L 539.317374 -135.375915 
L 534.715354 -130.288597 
L 530.113333 -145.55055 
L 525.511313 -145.55055 
L 520.909293 -139.191403 
L 516.307273 -144.278721 
L 511.705253 -145.55055 
L 507.103232 -129.016768 
L 502.501212 -137.919574 
L 497.899192 -135.375915 
L 493.297172 -141.735062 
L 488.695152 -137.919574 
L 484.093131 -146.822379 
L 479.491111 -131.560426 
L 474.889091 -136.647744 
L 470.287071 -129.016768 
L 465.685051 -143.006891 
L 461.08303 -141.735062 
L 456.48101 -122.657621 
L 451.87899 -145.55055 
L 447.27697 -158.268844 
L 442.674949 -158.268844 
L 438.072929 -151.909697 
L 433.470909 -153.181526 
L 428.868889 -186.249091 
L 424.266869 -140.463232 
L 419.664848 -159.540673 
L 415.062828 -153.181526 
L 410.460808 -174.802626 
L 405.858788 -164.627991 
L 401.256768 -146.822379 
L 396.654747 -103.58018 
L 392.052727 -103.58018 
L 387.450707 -97.221033 
L 382.848687 -98.492862 
L 378.246667 -103.58018 
L 373.644646 -120.113962 
L 369.042626 -97.221033 
L 364.440606 -94.677374 
L 359.838586 -99.764691 
L 355.236566 -92.133715 
L 350.634545 -88.318227 
z
" style="stroke: #ff7f0e; stroke-opacity: 0.2"/>
    </defs>
    <g clip-path="url(#p20ce598269)">
     <use xlink:href="#m5ea36ce29a" x="0" y="432" style="fill: #ff7f0e; fill-opacity: 0.2; stroke: #ff7f0e; stroke-opacity: 0.2"/>
    </g>
   </g>
   <g id="matplotlib.axis_9">
    <g id="xtick_21">
     <g id="line2d_71">
      <path d="M 346.032525 353.92 
L 346.032525 240.6 
" clip-path="url(#p20ce598269)" style="fill: none; stroke: #b0b0b0; stroke-opacity: 0.25; stroke-width: 0.8; stroke-linecap: square"/>
     </g>
     <g id="line2d_72">
      <g>
       <use xlink:href="#m98556b6305" x="346.032525" y="353.92" style="stroke: #000000; stroke-width: 0.8"/>
      </g>
     </g>
     <g id="text_46">
      <!-- 0 -->
      <g transform="translate(342.851275 368.518438) scale(0.1 -0.1)">
       <use xlink:href="#DejaVuSans-30"/>
      </g>
     </g>
    </g>
    <g id="xtick_22">
     <g id="line2d_73">
      <path d="M 392.052727 353.92 
L 392.052727 240.6 
" clip-path="url(#p20ce598269)" style="fill: none; stroke: #b0b0b0; stroke-opacity: 0.25; stroke-width: 0.8; stroke-linecap: square"/>
     </g>
     <g id="line2d_74">
      <g>
       <use xlink:href="#m98556b6305" x="392.052727" y="353.92" style="stroke: #000000; stroke-width: 0.8"/>
      </g>
     </g>
     <g id="text_47">
      <!-- 10 -->
      <g transform="translate(385.690227 368.518438) scale(0.1 -0.1)">
       <use xlink:href="#DejaVuSans-31"/>
       <use xlink:href="#DejaVuSans-30" transform="translate(63.623047 0)"/>
      </g>
     </g>
    </g>
    <g id="xtick_23">
     <g id="line2d_75">
      <path d="M 438.072929 353.92 
L 438.072929 240.6 
" clip-path="url(#p20ce598269)" style="fill: none; stroke: #b0b0b0; stroke-opacity: 0.25; stroke-width: 0.8; stroke-linecap: square"/>
     </g>
     <g id="line2d_76">
      <g>
       <use xlink:href="#m98556b6305" x="438.072929" y="353.92" style="stroke: #000000; stroke-width: 0.8"/>
      </g>
     </g>
     <g id="text_48">
      <!-- 20 -->
      <g transform="translate(431.710429 368.518438) scale(0.1 -0.1)">
       <use xlink:href="#DejaVuSans-32"/>
       <use xlink:href="#DejaVuSans-30" transform="translate(63.623047 0)"/>
      </g>
     </g>
    </g>
    <g id="xtick_24">
     <g id="line2d_77">
      <path d="M 484.093131 353.92 
L 484.093131 240.6 
" clip-path="url(#p20ce598269)" style="fill: none; stroke: #b0b0b0; stroke-opacity: 0.25; stroke-width: 0.8; stroke-linecap: square"/>
     </g>
     <g id="line2d_78">
      <g>
       <use xlink:href="#m98556b6305" x="484.093131" y="353.92" style="stroke: #000000; stroke-width: 0.8"/>
      </g>
     </g>
     <g id="text_49">
      <!-- 30 -->
      <g transform="translate(477.730631 368.518438) scale(0.1 -0.1)">
       <use xlink:href="#DejaVuSans-33"/>
       <use xlink:href="#DejaVuSans-30" transform="translate(63.623047 0)"/>
      </g>
     </g>
    </g>
    <g id="xtick_25">
     <g id="line2d_79">
      <path d="M 530.113333 353.92 
L 530.113333 240.6 
" clip-path="url(#p20ce598269)" style="fill: none; stroke: #b0b0b0; stroke-opacity: 0.25; stroke-width: 0.8; stroke-linecap: square"/>
     </g>
     <g id="line2d_80">
      <g>
       <use xlink:href="#m98556b6305" x="530.113333" y="353.92" style="stroke: #000000; stroke-width: 0.8"/>
      </g>
     </g>
     <g id="text_50">
      <!-- 40 -->
      <g transform="translate(523.750833 368.518438) scale(0.1 -0.1)">
       <use xlink:href="#DejaVuSans-34"/>
       <use xlink:href="#DejaVuSans-30" transform="translate(63.623047 0)"/>
      </g>
     </g>
    </g>
    <g id="text_51">
     <!-- Input -->
     <g transform="translate(439.938437 382.956406) scale(0.11 -0.11)">
      <use xlink:href="#DejaVuSans-49"/>
      <use xlink:href="#DejaVuSans-6e" transform="translate(29.492188 0)"/>
      <use xlink:href="#DejaVuSans-70" transform="translate(92.871094 0)"/>
      <use xlink:href="#DejaVuSans-75" transform="translate(156.347656 0)"/>
      <use xlink:href="#DejaVuSans-74" transform="translate(219.726562 0)"/>
     </g>
    </g>
   </g>
   <g id="matplotlib.axis_10">
    <g id="ytick_14">
     <g id="line2d_81">
      <path d="M 340.28 332.235309 
L 568.08 332.235309 
" clip-path="url(#p20ce598269)" style="fill: none; stroke: #b0b0b0; stroke-opacity: 0.25; stroke-width: 0.8; stroke-linecap: square"/>
     </g>
     <g id="line2d_82">
      <g>
       <use xlink:href="#mb7b42f9214" x="340.28" y="332.235309" style="stroke: #000000; stroke-width: 0.8"/>
      </g>
     </g>
     <g id="text_52">
      <!-- 0.06 -->
      <g transform="translate(311.014375 336.034527) scale(0.1 -0.1)">
       <use xlink:href="#DejaVuSans-30"/>
       <use xlink:href="#DejaVuSans-2e" transform="translate(63.623047 0)"/>
       <use xlink:href="#DejaVuSans-30" transform="translate(95.410156 0)"/>
       <use xlink:href="#DejaVuSans-36" transform="translate(159.033203 0)"/>
      </g>
     </g>
    </g>
    <g id="ytick_15">
     <g id="line2d_83">
      <path d="M 340.28 306.798721 
L 568.08 306.798721 
" clip-path="url(#p20ce598269)" style="fill: none; stroke: #b0b0b0; stroke-opacity: 0.25; stroke-width: 0.8; stroke-linecap: square"/>
     </g>
     <g id="line2d_84">
      <g>
       <use xlink:href="#mb7b42f9214" x="340.28" y="306.798721" style="stroke: #000000; stroke-width: 0.8"/>
      </g>
     </g>
     <g id="text_53">
      <!-- 0.08 -->
      <g transform="translate(311.014375 310.597939) scale(0.1 -0.1)">
       <defs>
        <path id="DejaVuSans-38" d="M 2034 2216 
Q 1584 2216 1326 1975 
Q 1069 1734 1069 1313 
Q 1069 891 1326 650 
Q 1584 409 2034 409 
Q 2484 409 2743 651 
Q 3003 894 3003 1313 
Q 3003 1734 2745 1975 
Q 2488 2216 2034 2216 
z
M 1403 2484 
Q 997 2584 770 2862 
Q 544 3141 544 3541 
Q 544 4100 942 4425 
Q 1341 4750 2034 4750 
Q 2731 4750 3128 4425 
Q 3525 4100 3525 3541 
Q 3525 3141 3298 2862 
Q 3072 2584 2669 2484 
Q 3125 2378 3379 2068 
Q 3634 1759 3634 1313 
Q 3634 634 3220 271 
Q 2806 -91 2034 -91 
Q 1263 -91 848 271 
Q 434 634 434 1313 
Q 434 1759 690 2068 
Q 947 2378 1403 2484 
z
M 1172 3481 
Q 1172 3119 1398 2916 
Q 1625 2713 2034 2713 
Q 2441 2713 2670 2916 
Q 2900 3119 2900 3481 
Q 2900 3844 2670 4047 
Q 2441 4250 2034 4250 
Q 1625 4250 1398 4047 
Q 1172 3844 1172 3481 
z
" transform="scale(0.015625)"/>
       </defs>
       <use xlink:href="#DejaVuSans-30"/>
       <use xlink:href="#DejaVuSans-2e" transform="translate(63.623047 0)"/>
       <use xlink:href="#DejaVuSans-30" transform="translate(95.410156 0)"/>
       <use xlink:href="#DejaVuSans-38" transform="translate(159.033203 0)"/>
      </g>
     </g>
    </g>
    <g id="ytick_16">
     <g id="line2d_85">
      <path d="M 340.28 281.362132 
L 568.08 281.362132 
" clip-path="url(#p20ce598269)" style="fill: none; stroke: #b0b0b0; stroke-opacity: 0.25; stroke-width: 0.8; stroke-linecap: square"/>
     </g>
     <g id="line2d_86">
      <g>
       <use xlink:href="#mb7b42f9214" x="340.28" y="281.362132" style="stroke: #000000; stroke-width: 0.8"/>
      </g>
     </g>
     <g id="text_54">
      <!-- 0.10 -->
      <g transform="translate(311.014375 285.161351) scale(0.1 -0.1)">
       <use xlink:href="#DejaVuSans-30"/>
       <use xlink:href="#DejaVuSans-2e" transform="translate(63.623047 0)"/>
       <use xlink:href="#DejaVuSans-31" transform="translate(95.410156 0)"/>
       <use xlink:href="#DejaVuSans-30" transform="translate(159.033203 0)"/>
      </g>
     </g>
    </g>
    <g id="ytick_17">
     <g id="line2d_87">
      <path d="M 340.28 255.925544 
L 568.08 255.925544 
" clip-path="url(#p20ce598269)" style="fill: none; stroke: #b0b0b0; stroke-opacity: 0.25; stroke-width: 0.8; stroke-linecap: square"/>
     </g>
     <g id="line2d_88">
      <g>
       <use xlink:href="#mb7b42f9214" x="340.28" y="255.925544" style="stroke: #000000; stroke-width: 0.8"/>
      </g>
     </g>
     <g id="text_55">
      <!-- 0.12 -->
      <g transform="translate(311.014375 259.724763) scale(0.1 -0.1)">
       <use xlink:href="#DejaVuSans-30"/>
       <use xlink:href="#DejaVuSans-2e" transform="translate(63.623047 0)"/>
       <use xlink:href="#DejaVuSans-31" transform="translate(95.410156 0)"/>
       <use xlink:href="#DejaVuSans-32" transform="translate(159.033203 0)"/>
      </g>
     </g>
    </g>
    <g id="text_56">
     <!-- Time (s) -->
     <g transform="translate(304.726719 319.621797) rotate(-90) scale(0.11 -0.11)">
      <use xlink:href="#DejaVuSans-54"/>
      <use xlink:href="#DejaVuSans-69" transform="translate(57.958984 0)"/>
      <use xlink:href="#DejaVuSans-6d" transform="translate(85.742188 0)"/>
      <use xlink:href="#DejaVuSans-65" transform="translate(183.154297 0)"/>
      <use xlink:href="#DejaVuSans-20" transform="translate(244.677734 0)"/>
      <use xlink:href="#DejaVuSans-28" transform="translate(276.464844 0)"/>
      <use xlink:href="#DejaVuSans-73" transform="translate(315.478516 0)"/>
      <use xlink:href="#DejaVuSans-29" transform="translate(367.578125 0)"/>
     </g>
    </g>
   </g>
   <g id="line2d_89">
    <path d="M 350.634545 346.225432 
L 355.236566 344.953603 
L 359.838586 343.681773 
L 364.440606 341.138114 
L 369.042626 338.594456 
L 373.644646 330.963479 
L 378.246667 333.507138 
L 382.848687 342.409944 
L 387.450707 338.594456 
L 392.052727 338.594456 
L 396.654747 332.235309 
L 401.256768 339.866285 
L 405.858788 299.167744 
L 410.460808 299.167744 
L 415.062828 301.711403 
L 419.664848 297.895915 
L 424.266869 296.624085 
L 428.868889 309.342379 
L 433.470909 294.080426 
L 438.072929 320.788844 
L 442.674949 290.264938 
L 447.27697 314.429697 
L 451.87899 294.080426 
L 456.48101 320.788844 
L 461.08303 315.701526 
L 465.685051 316.973356 
L 470.287071 316.973356 
L 474.889091 316.973356 
L 479.491111 313.157868 
L 484.093131 318.245185 
L 488.695152 316.973356 
L 493.297172 309.342379 
L 497.899192 313.157868 
L 502.501212 316.973356 
L 507.103232 313.157868 
L 511.705253 306.798721 
L 516.307273 313.157868 
L 520.909293 314.429697 
L 525.511313 314.429697 
L 530.113333 315.701526 
L 534.715354 320.788844 
L 539.317374 322.060673 
L 543.919394 319.517015 
L 548.521414 319.517015 
L 553.123434 318.245185 
L 557.725455 318.245185 
" clip-path="url(#p20ce598269)" style="fill: none; stroke: #ff7f0e; stroke-width: 1.8; stroke-linecap: square"/>
   </g>
   <g id="patch_23">
    <path d="M 340.28 353.92 
L 340.28 240.6 
" style="fill: none; stroke: #000000; stroke-width: 0.8; stroke-linejoin: miter; stroke-linecap: square"/>
   </g>
   <g id="patch_24">
    <path d="M 568.08 353.92 
L 568.08 240.6 
" style="fill: none; stroke: #000000; stroke-width: 0.8; stroke-linejoin: miter; stroke-linecap: square"/>
   </g>
   <g id="patch_25">
    <path d="M 340.28 353.92 
L 568.08 353.92 
" style="fill: none; stroke: #000000; stroke-width: 0.8; stroke-linejoin: miter; stroke-linecap: square"/>
   </g>
   <g id="patch_26">
    <path d="M 340.28 240.6 
L 568.08 240.6 
" style="fill: none; stroke: #000000; stroke-width: 0.8; stroke-linejoin: miter; stroke-linecap: square"/>
   </g>
   <g id="text_57">
    <!-- verify -->
    <g transform="translate(437.245 234.6) scale(0.12 -0.12)">
     <defs>
      <path id="DejaVuSans-66" d="M 2375 4863 
L 2375 4384 
L 1825 4384 
Q 1516 4384 1395 4259 
Q 1275 4134 1275 3809 
L 1275 3500 
L 2222 3500 
L 2222 3053 
L 1275 3053 
L 1275 0 
L 697 0 
L 697 3053 
L 147 3053 
L 147 3500 
L 697 3500 
L 697 3744 
Q 697 4328 969 4595 
Q 1241 4863 1831 4863 
L 2375 4863 
z
" transform="scale(0.015625)"/>
      <path id="DejaVuSans-79" d="M 2059 -325 
Q 1816 -950 1584 -1140 
Q 1353 -1331 966 -1331 
L 506 -1331 
L 506 -850 
L 844 -850 
Q 1081 -850 1212 -737 
Q 1344 -625 1503 -206 
L 1606 56 
L 191 3500 
L 800 3500 
L 1894 763 
L 2988 3500 
L 3597 3500 
L 2059 -325 
z
" transform="scale(0.015625)"/>
     </defs>
     <use xlink:href="#DejaVuSans-76"/>
     <use xlink:href="#DejaVuSans-65" transform="translate(59.179688 0)"/>
     <use xlink:href="#DejaVuSans-72" transform="translate(120.703125 0)"/>
     <use xlink:href="#DejaVuSans-69" transform="translate(161.816406 0)"/>
     <use xlink:href="#DejaVuSans-66" transform="translate(189.599609 0)"/>
     <use xlink:href="#DejaVuSans-79" transform="translate(223.054688 0)"/>
    </g>
   </g>
  </g>
  <g id="axes_6"/>
  <g id="text_58">
   <!-- SHA3 Chain  Phase scaling (full range) -->
   <g transform="translate(298.722281 18.669938) scale(0.132 -0.132)">
    <defs>
     <path id="DejaVuSans-53" d="M 3425 4513 
L 3425 3897 
Q 3066 4069 2747 4153 
Q 2428 4238 2131 4238 
Q 1616 4238 1336 4038 
Q 1056 3838 1056 3469 
Q 1056 3159 1242 3001 
Q 1428 2844 1947 2747 
L 2328 2669 
Q 3034 2534 3370 2195 
Q 3706 1856 3706 1288 
Q 3706 609 3251 259 
Q 2797 -91 1919 -91 
Q 1588 -91 1214 -16 
Q 841 59 441 206 
L 441 856 
Q 825 641 1194 531 
Q 1563 422 1919 422 
Q 2459 422 2753 634 
Q 3047 847 3047 1241 
Q 3047 1584 2836 1778 
Q 2625 1972 2144 2069 
L 1759 2144 
Q 1053 2284 737 2584 
Q 422 2884 422 3419 
Q 422 4038 858 4394 
Q 1294 4750 2059 4750 
Q 2388 4750 2728 4690 
Q 3069 4631 3425 4513 
z
" transform="scale(0.015625)"/>
     <path id="DejaVuSans-48" d="M 628 4666 
L 1259 4666 
L 1259 2753 
L 3553 2753 
L 3553 4666 
L 4184 4666 
L 4184 0 
L 3553 0 
L 3553 2222 
L 1259 2222 
L 1259 0 
L 628 0 
L 628 4666 
z
" transform="scale(0.015625)"/>
     <path id="DejaVuSans-41" d="M 2188 4044 
L 1331 1722 
L 3047 1722 
L 2188 4044 
z
M 1831 4666 
L 2547 4666 
L 4325 0 
L 3669 0 
L 3244 1197 
L 1141 1197 
L 716 0 
L 50 0 
L 1831 4666 
z
" transform="scale(0.015625)"/>
     <path id="DejaVuSans-43" d="M 4122 4306 
L 4122 3641 
Q 3803 3938 3442 4084 
Q 3081 4231 2675 4231 
Q 1875 4231 1450 3742 
Q 1025 3253 1025 2328 
Q 1025 1406 1450 917 
Q 1875 428 2675 428 
Q 3081 428 3442 575 
Q 3803 722 4122 1019 
L 4122 359 
Q 3791 134 3420 21 
Q 3050 -91 2638 -91 
Q 1578 -91 968 557 
Q 359 1206 359 2328 
Q 359 3453 968 4101 
Q 1578 4750 2638 4750 
Q 3056 4750 3426 4639 
Q 3797 4528 4122 4306 
z
" transform="scale(0.015625)"/>
     <path id="DejaVuSans-68" d="M 3513 2113 
L 3513 0 
L 2938 0 
L 2938 2094 
Q 2938 2591 2744 2837 
Q 2550 3084 2163 3084 
Q 1697 3084 1428 2787 
Q 1159 2491 1159 1978 
L 1159 0 
L 581 0 
L 581 4863 
L 1159 4863 
L 1159 2956 
Q 1366 3272 1645 3428 
Q 1925 3584 2291 3584 
Q 2894 3584 3203 3211 
Q 3513 2838 3513 2113 
z
" transform="scale(0.015625)"/>
     <path id="DejaVuSans-2014" d="M 313 1978 
L 6088 1978 
L 6088 1528 
L 313 1528 
L 313 1978 
z
" transform="scale(0.015625)"/>
     <path id="DejaVuSans-50" d="M 1259 4147 
L 1259 2394 
L 2053 2394 
Q 2494 2394 2734 2622 
Q 2975 2850 2975 3272 
Q 2975 3691 2734 3919 
Q 2494 4147 2053 4147 
L 1259 4147 
z
M 628 4666 
L 2053 4666 
Q 2838 4666 3239 4311 
Q 3641 3956 3641 3272 
Q 3641 2581 3239 2228 
Q 2838 1875 2053 1875 
L 1259 1875 
L 1259 0 
L 628 0 
L 628 4666 
z
" transform="scale(0.015625)"/>
     <path id="DejaVuSans-6c" d="M 603 4863 
L 1178 4863 
L 1178 0 
L 603 0 
L 603 4863 
z
" transform="scale(0.015625)"/>
     <path id="DejaVuSans-67" d="M 2906 1791 
Q 2906 2416 2648 2759 
Q 2391 3103 1925 3103 
Q 1463 3103 1205 2759 
Q 947 2416 947 1791 
Q 947 1169 1205 825 
Q 1463 481 1925 481 
Q 2391 481 2648 825 
Q 2906 1169 2906 1791 
z
M 3481 434 
Q 3481 -459 3084 -895 
Q 2688 -1331 1869 -1331 
Q 1566 -1331 1297 -1286 
Q 1028 -1241 775 -1147 
L 775 -588 
Q 1028 -725 1275 -790 
Q 1522 -856 1778 -856 
Q 2344 -856 2625 -561 
Q 2906 -266 2906 331 
L 2906 616 
Q 2728 306 2450 153 
Q 2172 0 1784 0 
Q 1141 0 747 490 
Q 353 981 353 1791 
Q 353 2603 747 3093 
Q 1141 3584 1784 3584 
Q 2172 3584 2450 3431 
Q 2728 3278 2906 2969 
L 2906 3500 
L 3481 3500 
L 3481 434 
z
" transform="scale(0.015625)"/>
    </defs>
    <use xlink:href="#DejaVuSans-53"/>
    <use xlink:href="#DejaVuSans-48" transform="translate(63.476562 0)"/>
    <use xlink:href="#DejaVuSans-41" transform="translate(138.671875 0)"/>
    <use xlink:href="#DejaVuSans-33" transform="translate(207.080078 0)"/>
    <use xlink:href="#DejaVuSans-20" transform="translate(270.703125 0)"/>
    <use xlink:href="#DejaVuSans-43" transform="translate(302.490234 0)"/>
    <use xlink:href="#DejaVuSans-68" transform="translate(372.314453 0)"/>
    <use xlink:href="#DejaVuSans-61" transform="translate(435.693359 0)"/>
    <use xlink:href="#DejaVuSans-69" transform="translate(496.972656 0)"/>
    <use xlink:href="#DejaVuSans-6e" transform="translate(524.755859 0)"/>
    <use xlink:href="#DejaVuSans-20" transform="translate(588.134766 0)"/>
    <use xlink:href="#DejaVuSans-2014" transform="translate(619.921875 0)"/>
    <use xlink:href="#DejaVuSans-20" transform="translate(719.921875 0)"/>
    <use xlink:href="#DejaVuSans-50" transform="translate(751.708984 0)"/>
    <use xlink:href="#DejaVuSans-68" transform="translate(812.011719 0)"/>
    <use xlink:href="#DejaVuSans-61" transform="translate(875.390625 0)"/>
    <use xlink:href="#DejaVuSans-73" transform="translate(936.669922 0)"/>
    <use xlink:href="#DejaVuSans-65" transform="translate(988.769531 0)"/>
    <use xlink:href="#DejaVuSans-20" transform="translate(1050.292969 0)"/>
    <use xlink:href="#DejaVuSans-73" transform="translate(1082.080078 0)"/>
    <use xlink:href="#DejaVuSans-63" transform="translate(1134.179688 0)"/>
    <use xlink:href="#DejaVuSans-61" transform="translate(1189.160156 0)"/>
    <use xlink:href="#DejaVuSans-6c" transform="translate(1250.439453 0)"/>
    <use xlink:href="#DejaVuSans-69" transform="translate(1278.222656 0)"/>
    <use xlink:href="#DejaVuSans-6e" transform="translate(1306.005859 0)"/>
    <use xlink:href="#DejaVuSans-67" transform="translate(1369.384766 0)"/>
    <use xlink:href="#DejaVuSans-20" transform="translate(1432.861328 0)"/>
    <use xlink:href="#DejaVuSans-28" transform="translate(1464.648438 0)"/>
    <use xlink:href="#DejaVuSans-66" transform="translate(1503.662109 0)"/>
    <use xlink:href="#DejaVuSans-75" transform="translate(1538.867188 0)"/>
    <use xlink:href="#DejaVuSans-6c" transform="translate(1602.246094 0)"/>
    <use xlink:href="#DejaVuSans-6c" transform="translate(1630.029297 0)"/>
    <use xlink:href="#DejaVuSans-20" transform="translate(1657.8125 0)"/>
    <use xlink:href="#DejaVuSans-72" transform="translate(1689.599609 0)"/>
    <use xlink:href="#DejaVuSans-61" transform="translate(1730.712891 0)"/>
    <use xlink:href="#DejaVuSans-6e" transform="translate(1791.992188 0)"/>
    <use xlink:href="#DejaVuSans-67" transform="translate(1855.371094 0)"/>
    <use xlink:href="#DejaVuSans-65" transform="translate(1918.847656 0)"/>
    <use xlink:href="#DejaVuSans-29" transform="translate(1980.371094 0)"/>
   </g>
  </g>
  <g id="legend_1">
   <g id="line2d_90">
    <path d="M 401.576563 417.420313 
L 411.576563 417.420313 
L 421.576563 417.420313 
" style="fill: none; stroke: #ff7f0e; stroke-width: 1.8; stroke-linecap: square"/>
   </g>
   <g id="text_59">
    <!-- vanilla -->
    <g transform="translate(429.576563 420.920313) scale(0.1 -0.1)">
     <use xlink:href="#DejaVuSans-76"/>
     <use xlink:href="#DejaVuSans-61" transform="translate(59.179688 0)"/>
     <use xlink:href="#DejaVuSans-6e" transform="translate(120.458984 0)"/>
     <use xlink:href="#DejaVuSans-69" transform="translate(183.837891 0)"/>
     <use xlink:href="#DejaVuSans-6c" transform="translate(211.621094 0)"/>
     <use xlink:href="#DejaVuSans-6c" transform="translate(239.404297 0)"/>
     <use xlink:href="#DejaVuSans-61" transform="translate(267.1875 0)"/>
    </g>
   </g>
  </g>
 </g>
 <defs>
  <clipPath id="pefab9e1eef">
   <rect x="56.24" y="68.64" width="227.8" height="113.32"/>
  </clipPath>
  <clipPath id="p43ef44bf7d">
   <rect x="340.28" y="68.64" width="227.8" height="113.32"/>
  </clipPath>
  <clipPath id="p03d1fc9a6f">
   <rect x="624.32" y="68.64" width="227.8" height="113.32"/>
  </clipPath>
  <clipPath id="pdcc8e0dc92">
   <rect x="56.24" y="240.6" width="227.8" height="113.32"/>
  </clipPath>
  <clipPath id="p20ce598269">
   <rect x="340.28" y="240.6" width="227.8" height="113.32"/>
  </clipPath>
 </defs>
</svg>
