<?xml version="1.0" encoding="utf-8" standalone="no"?>
<!DOCTYPE svg PUBLIC "-//W3C//DTD SVG 1.1//EN"
  "http://www.w3.org/Graphics/SVG/1.1/DTD/svg11.dtd">
<svg xmlns:xlink="http://www.w3.org/1999/xlink" width="720pt" height="288pt" viewBox="0 0 720 288" xmlns="http://www.w3.org/2000/svg" version="1.1">
 <metadata>
  <rdf:RDF xmlns:dc="http://purl.org/dc/elements/1.1/" xmlns:cc="http://creativecommons.org/ns#" xmlns:rdf="http://www.w3.org/1999/02/22-rdf-syntax-ns#">
   <cc:Work>
    <dc:type rdf:resource="http://purl.org/dc/dcmitype/StillImage"/>
    <dc:date>2025-09-10T11:05:34.877304</dc:date>
    <dc:format>image/svg+xml</dc:format>
    <dc:creator>
     <cc:Agent>
      <dc:title>Matplotlib v3.10.6, https://matplotlib.org/</dc:title>
     </cc:Agent>
    </dc:creator>
   </cc:Work>
  </rdf:RDF>
 </metadata>
 <defs>
  <style type="text/css">*{stroke-linejoin: round; stroke-linecap: butt}</style>
 </defs>
 <g id="figure_1">
  <g id="patch_1">
   <path d="M 0 288 
L 720 288 
L 720 0 
L 0 0 
z
" style="fill: #ffffff"/>
  </g>
  <g id="axes_1">
   <g id="patch_2">
    <path d="M 46.64 244.48 
L 708.12 244.48 
L 708.12 27 
L 46.64 27 
z
" style="fill: #ffffff"/>
   </g>
   <g id="FillBetweenPolyCollection_1">
    <defs>
     <path id="m151158bc2d" d="M 76.707273 -56.376216 
L 76.707273 -54.81575 
L 81.033499 -56.304396 
L 85.359725 -60.215355 
L 89.685952 -61.501596 
L 94.012178 -68.585721 
L 98.338404 -69.819729 
L 102.66463 -69.845846 
L 106.990857 -72.359567 
L 111.317083 -85.228516 
L 115.643309 -86.553932 
L 119.969536 -87.448425 
L 124.295762 -89.119887 
L 128.621988 -90.027438 
L 132.948215 -91.398559 
L 137.274441 -92.580335 
L 141.600667 -93.984101 
L 145.926893 -95.283401 
L 150.25312 -117.743666 
L 154.579346 -119.219253 
L 158.905572 -119.689352 
L 163.231799 -120.890715 
L 167.558025 -122.483827 
L 171.884251 -123.959414 
L 176.210477 -125.265243 
L 180.536704 -126.035682 
L 184.86293 -127.961781 
L 189.189156 -128.764866 
L 193.515383 -130.038049 
L 197.841609 -131.957618 
L 202.167835 -132.760703 
L 206.494061 -134.321169 
L 210.820288 -135.914281 
L 215.146514 -137.285402 
L 219.47274 -138.206012 
L 223.798967 -139.361671 
L 228.125193 -141.222478 
L 232.451419 -194.630897 
L 236.777646 -190.576297 
L 241.103872 -195.100996 
L 245.430098 -196.583112 
L 249.756324 -197.67348 
L 254.082551 -193.214073 
L 258.408777 -201.466914 
L 262.735003 -201.969658 
L 267.06123 -199.527757 
L 271.387456 -206.540061 
L 275.713682 -210.333495 
L 280.039908 -210.784006 
L 284.366135 -212.102894 
L 288.692361 -212.932096 
L 297.344814 -215.478463 
L 305.997266 -218.396991 
L 314.649719 -222.458121 
L 323.302171 -224.743322 
L 331.954624 -220.714838 
L 340.607077 -222.490766 
L 349.259529 -227.772846 
L 357.911982 -234.667625 
L 366.564434 -231.775213 
L 375.216887 -232.356307 
L 383.869339 -244.304645 
L 383.869339 -251.114545 
L 383.869339 -251.114545 
L 375.216887 -245.982636 
L 366.564434 -241.908449 
L 357.911982 -238.794046 
L 349.259529 -237.246638 
L 340.607077 -235.353185 
L 331.954624 -234.001652 
L 323.302171 -228.477994 
L 314.649719 -228.837097 
L 305.997266 -224.37769 
L 297.344814 -221.530982 
L 288.692361 -218.299054 
L 284.366135 -216.679826 
L 280.039908 -214.42727 
L 275.713682 -213.474015 
L 271.387456 -211.658912 
L 267.06123 -209.98745 
L 262.735003 -206.533532 
L 258.408777 -204.09816 
L 254.082551 -204.914303 
L 249.756324 -201.310215 
L 245.430098 -202.250412 
L 241.103872 -200.102322 
L 236.777646 -200.5006 
L 232.451419 -202.433228 
L 228.125193 -143.925544 
L 223.798967 -142.338962 
L 219.47274 -140.321455 
L 215.146514 -139.923177 
L 210.820288 -138.545527 
L 206.494061 -136.795716 
L 202.167835 -134.752093 
L 197.841609 -134.406048 
L 193.515383 -132.806407 
L 189.189156 -131.650748 
L 184.86293 -130.18169 
L 180.536704 -128.804041 
L 176.210477 -127.041171 
L 171.884251 -125.82022 
L 167.558025 -125.05631 
L 163.231799 -124.103055 
L 158.905572 -121.968024 
L 154.579346 -122.849459 
L 150.25312 -128.621224 
L 145.926893 -97.340083 
L 141.600667 -95.714325 
L 137.274441 -94.708837 
L 132.948215 -93.657644 
L 128.621988 -92.410577 
L 124.295762 -90.569358 
L 119.969536 -89.746685 
L 115.643309 -88.871779 
L 111.317083 -87.285197 
L 106.990857 -74.122437 
L 102.66463 -71.915585 
L 98.338404 -71.132088 
L 94.012178 -69.512859 
L 89.685952 -62.304681 
L 85.359725 -61.521184 
L 81.033499 -57.766925 
L 76.707273 -56.376216 
z
" style="stroke: #1f77b4; stroke-opacity: 0.2"/>
    </defs>
    <g clip-path="url(#pa0d7513273)">
     <use xlink:href="#m151158bc2d" x="0" y="288" style="fill: #1f77b4; fill-opacity: 0.2; stroke: #1f77b4; stroke-opacity: 0.2"/>
    </g>
   </g>
   <g id="FillBetweenPolyCollection_2">
    <defs>
     <path id="m327c4ef349" d="M 76.707273 -57.100952 
L 76.707273 -55.729831 
L 81.033499 -56.04323 
L 85.359725 -57.662458 
L 89.685952 -58.021561 
L 94.012178 -61.279605 
L 98.338404 -61.24696 
L 102.66463 -61.743175 
L 106.990857 -62.585435 
L 111.317083 -68.082976 
L 115.643309 -68.154797 
L 119.969536 -68.318026 
L 124.295762 -68.82077 
L 128.621988 -69.003586 
L 132.948215 -69.486743 
L 137.274441 -69.878492 
L 141.600667 -70.231066 
L 145.926893 -70.42694 
L 150.25312 -84.973879 
L 154.579346 -85.430919 
L 158.905572 -85.150166 
L 163.231799 -85.770435 
L 167.558025 -85.790022 
L 171.884251 -86.455995 
L 176.210477 -89.550811 
L 180.536704 -87.252551 
L 184.86293 -87.755295 
L 189.189156 -89.772802 
L 193.515383 -87.833645 
L 197.841609 -88.25151 
L 202.167835 -88.238452 
L 206.494061 -89.381053 
L 210.820288 -89.106829 
L 215.146514 -90.62812 
L 219.47274 -91.653196 
L 223.798967 -90.575887 
L 228.125193 -90.366954 
L 232.451419 -113.486662 
L 236.777646 -114.916546 
L 241.103872 -117.684904 
L 245.430098 -114.165694 
L 249.756324 -115.719631 
L 254.082551 -116.94711 
L 258.408777 -114.753317 
L 262.735003 -114.087344 
L 267.06123 -116.000384 
L 271.387456 -115.308294 
L 275.713682 -117.769783 
L 280.039908 -116.228904 
L 284.366135 -116.379074 
L 288.692361 -118.357406 
L 297.344814 -117.25398 
L 305.997266 -118.598984 
L 314.649719 -116.901406 
L 323.302171 -120.31615 
L 331.954624 -119.056025 
L 340.607077 -120.048455 
L 349.259529 -119.330249 
L 357.911982 -120.942948 
L 366.564434 -120.903773 
L 375.216887 -122.15084 
L 383.869339 -123.019217 
L 392.521792 -184.373608 
L 401.174245 -181.076389 
L 409.826697 -180.952335 
L 418.47915 -181.846828 
L 427.131602 -180.756461 
L 435.784055 -182.499743 
L 444.436508 -181.814182 
L 453.08896 -184.2822 
L 461.741413 -184.151617 
L 470.393865 -183.994917 
L 479.046318 -185.346451 
L 487.69877 -185.7382 
L 496.351223 -186.286648 
L 505.003676 -186.227886 
L 526.634807 -188.878719 
L 548.265939 -189.25741 
L 569.89707 -189.681804 
L 591.528201 -191.607903 
L 613.159333 -192.554629 
L 634.790464 -194.219561 
L 656.421596 -196.811632 
L 678.052727 -199.952152 
L 678.052727 -204.300564 
L 678.052727 -204.300564 
L 656.421596 -202.811918 
L 634.790464 -199.906448 
L 613.159333 -203.941461 
L 591.528201 -198.920547 
L 569.89707 -195.819202 
L 548.265939 -196.785516 
L 526.634807 -193.775579 
L 505.003676 -191.967006 
L 496.351223 -192.038826 
L 487.69877 -190.204136 
L 479.046318 -189.479401 
L 470.393865 -190.302073 
L 461.741413 -191.301033 
L 453.08896 -189.152943 
L 444.436508 -187.200729 
L 435.784055 -189.081123 
L 427.131602 -186.828567 
L 418.47915 -189.890737 
L 409.826697 -187.168083 
L 401.174245 -188.826486 
L 392.521792 -192.646037 
L 383.869339 -129.665888 
L 375.216887 -128.804041 
L 366.564434 -129.163144 
L 357.911982 -128.804041 
L 349.259529 -126.172794 
L 340.607077 -125.754929 
L 331.954624 -125.82675 
L 323.302171 -125.043252 
L 314.649719 -123.815772 
L 305.997266 -123.182445 
L 297.344814 -124.194463 
L 288.692361 -123.202033 
L 284.366135 -123.14327 
L 280.039908 -122.679701 
L 275.713682 -121.84397 
L 271.387456 -121.086589 
L 267.06123 -124.351162 
L 262.735003 -120.00928 
L 258.408777 -119.617531 
L 254.082551 -121.726446 
L 249.756324 -120.701369 
L 245.430098 -121.92232 
L 241.103872 -121.987611 
L 236.777646 -121.177997 
L 232.451419 -122.170427 
L 228.125193 -96.98098 
L 223.798967 -95.968962 
L 219.47274 -97.255204 
L 215.146514 -95.459688 
L 210.820288 -95.538038 
L 206.494061 -94.748011 
L 202.167835 -94.650074 
L 197.841609 -94.695778 
L 193.515383 -92.168998 
L 189.189156 -92.854559 
L 184.86293 -92.893734 
L 180.536704 -94.121213 
L 176.210477 -92.926379 
L 171.884251 -92.926379 
L 167.558025 -90.393071 
L 163.231799 -91.437734 
L 158.905572 -92.306111 
L 154.579346 -88.799959 
L 150.25312 -90.445304 
L 145.926893 -72.450975 
L 141.600667 -72.529325 
L 137.274441 -72.41833 
L 132.948215 -71.2692 
L 128.621988 -71.19085 
L 124.295762 -71.641361 
L 119.969536 -70.910097 
L 115.643309 -70.107012 
L 111.317083 -70.518348 
L 106.990857 -64.328717 
L 102.66463 -63.839031 
L 98.338404 -63.519103 
L 94.012178 -63.049004 
L 89.685952 -58.929113 
L 85.359725 -59.164162 
L 81.033499 -57.584108 
L 76.707273 -57.100952 
z
" style="stroke: #2ca02c; stroke-opacity: 0.2"/>
    </defs>
    <g clip-path="url(#pa0d7513273)">
     <use xlink:href="#m327c4ef349" x="0" y="288" style="fill: #2ca02c; fill-opacity: 0.2; stroke: #2ca02c; stroke-opacity: 0.2"/>
    </g>
   </g>
   <g id="FillBetweenPolyCollection_3">
    <defs>
     <path id="m385e6ad272" d="M 76.707273 -54.881042 
L 76.707273 -53.405455 
L 81.033499 -54.378297 
L 85.359725 -56.049759 
L 89.685952 -56.154225 
L 94.012178 -59.510207 
L 98.338404 -59.64079 
L 102.66463 -60.189238 
L 106.990857 -60.561399 
L 111.317083 -65.823892 
L 115.643309 -65.928358 
L 119.969536 -66.346223 
L 124.295762 -66.979551 
L 128.621988 -66.822851 
L 132.948215 -67.573703 
L 137.274441 -67.730402 
L 141.600667 -68.259263 
L 145.926893 -68.755478 
L 150.25312 -81.963942 
L 154.579346 -81.879063 
L 158.905572 -81.996588 
L 163.231799 -81.44161 
L 167.558025 -81.487314 
L 171.884251 -81.898651 
L 176.210477 -82.917198 
L 180.536704 -83.635404 
L 184.86293 -84.19691 
L 189.189156 -84.118561 
L 193.515383 -84.862883 
L 197.841609 -84.999995 
L 202.167835 -85.208928 
L 206.494061 -85.326453 
L 210.820288 -85.796551 
L 215.146514 -86.090363 
L 219.47274 -86.710632 
L 223.798967 -87.043618 
L 228.125193 -87.977286 
L 232.451419 -111.123111 
L 236.777646 -113.238555 
L 241.103872 -111.194932 
L 245.430098 -110.581192 
L 249.756324 -112.122071 
L 254.082551 -111.299398 
L 258.408777 -114.668438 
L 262.735003 -112.631344 
L 267.06123 -112.396295 
L 271.387456 -113.382196 
L 275.713682 -112.265712 
L 280.039908 -112.069838 
L 284.366135 -112.350591 
L 288.692361 -112.566053 
L 297.344814 -113.623774 
L 305.997266 -109.921748 
L 314.649719 -114.172223 
L 323.302171 -114.57703 
L 331.954624 -113.114501 
L 340.607077 -113.238555 
L 349.259529 -115.908976 
L 357.911982 -115.771864 
L 366.564434 -114.590088 
L 375.216887 -116.594536 
L 383.869339 -117.56085 
L 392.521792 -173.123888 
L 401.174245 -169.807082 
L 409.826697 -169.944194 
L 418.47915 -170.51223 
L 427.131602 -173.065126 
L 435.784055 -176.656157 
L 444.436508 -176.336228 
L 453.08896 -178.425555 
L 461.741413 -178.223152 
L 470.393865 -180.110075 
L 479.046318 -180.240658 
L 487.69877 -179.894613 
L 496.351223 -182.36916 
L 505.003676 -182.852317 
L 526.634807 -181.226559 
L 548.265939 -186.528226 
L 569.89707 -185.829608 
L 591.528201 -187.559832 
L 613.159333 -188.330271 
L 634.790464 -189.7928 
L 656.421596 -189.309643 
L 678.052727 -191.888656 
L 678.052727 -198.026054 
L 678.052727 -198.026054 
L 656.421596 -198.51574 
L 634.790464 -195.473157 
L 613.159333 -193.423005 
L 591.528201 -192.091059 
L 569.89707 -189.760154 
L 548.265939 -193.423005 
L 526.634807 -188.878719 
L 505.003676 -186.554343 
L 496.351223 -188.95054 
L 487.69877 -186.554343 
L 479.046318 -185.463975 
L 470.393865 -184.536837 
L 461.741413 -185.405213 
L 453.08896 -185.5815 
L 444.436508 -184.752299 
L 435.784055 -184.177734 
L 427.131602 -181.304909 
L 418.47915 -179.398398 
L 409.826697 -178.980533 
L 401.174245 -179.483277 
L 392.521792 -181.272263 
L 383.869339 -120.779719 
L 375.216887 -120.734015 
L 366.564434 -120.257388 
L 357.911982 -120.185567 
L 349.259529 -119.846051 
L 340.607077 -118.657747 
L 331.954624 -119.493477 
L 323.302171 -119.134374 
L 314.649719 -118.612043 
L 305.997266 -118.40311 
L 297.344814 -118.657747 
L 288.692361 -118.827504 
L 284.366135 -119.049495 
L 280.039908 -118.011361 
L 275.713682 -117.652258 
L 271.387456 -117.684904 
L 267.06123 -117.972186 
L 262.735003 -118.742625 
L 258.408777 -119.800347 
L 254.082551 -117.058106 
L 249.756324 -117.293155 
L 245.430098 -116.685944 
L 241.103872 -118.239881 
L 236.777646 -116.685944 
L 232.451419 -116.849173 
L 228.125193 -92.443223 
L 223.798967 -93.91881 
L 219.47274 -90.758703 
L 215.146514 -92.808855 
L 210.820288 -90.752174 
L 206.494061 -90.797878 
L 202.167835 -87.376605 
L 197.841609 -90.216784 
L 193.515383 -89.224353 
L 189.189156 -89.603044 
L 184.86293 -89.256999 
L 180.536704 -88.819546 
L 176.210477 -88.042578 
L 171.884251 -87.089322 
L 167.558025 -84.902058 
L 163.231799 -88.447385 
L 158.905572 -85.489681 
L 154.579346 -86.684515 
L 150.25312 -85.50274 
L 145.926893 -71.863352 
L 141.600667 -72.424859 
L 137.274441 -71.132088 
L 132.948215 -71.047209 
L 128.621988 -70.100483 
L 124.295762 -70.126599 
L 119.969536 -70.113541 
L 115.643309 -68.252734 
L 111.317083 -69.467155 
L 106.990857 -62.565847 
L 102.66463 -61.801937 
L 98.338404 -61.78235 
L 94.012178 -60.887857 
L 89.685952 -57.864862 
L 85.359725 -56.88549 
L 81.033499 -55.468665 
L 76.707273 -54.881042 
z
" style="stroke: #ff7f0e; stroke-opacity: 0.2"/>
    </defs>
    <g clip-path="url(#pa0d7513273)">
     <use xlink:href="#m385e6ad272" x="0" y="288" style="fill: #ff7f0e; fill-opacity: 0.2; stroke: #ff7f0e; stroke-opacity: 0.2"/>
    </g>
   </g>
   <g id="matplotlib.axis_1">
    <g id="xtick_1">
     <g id="line2d_1">
      <path d="M 72.381046 244.48 
L 72.381046 27 
" clip-path="url(#pa0d7513273)" style="fill: none; stroke: #b0b0b0; stroke-opacity: 0.25; stroke-width: 0.8; stroke-linecap: square"/>
     </g>
     <g id="line2d_2">
      <defs>
       <path id="mb81f9ed1b0" d="M 0 0 
L 0 3.5 
" style="stroke: #000000; stroke-width: 0.8"/>
      </defs>
      <g>
       <use xlink:href="#mb81f9ed1b0" x="72.381046" y="244.48" style="stroke: #000000; stroke-width: 0.8"/>
      </g>
     </g>
     <g id="text_1">
      <!-- 0 -->
      <g transform="translate(69.199796 259.078438) scale(0.1 -0.1)">
       <defs>
        <path id="DejaVuSans-30" d="M 2034 4250 
Q 1547 4250 1301 3770 
Q 1056 3291 1056 2328 
Q 1056 1369 1301 889 
Q 1547 409 2034 409 
Q 2525 409 2770 889 
Q 3016 1369 3016 2328 
Q 3016 3291 2770 3770 
Q 2525 4250 2034 4250 
z
M 2034 4750 
Q 2819 4750 3233 4129 
Q 3647 3509 3647 2328 
Q 3647 1150 3233 529 
Q 2819 -91 2034 -91 
Q 1250 -91 836 529 
Q 422 1150 422 2328 
Q 422 3509 836 4129 
Q 1250 4750 2034 4750 
z
" transform="scale(0.015625)"/>
       </defs>
       <use xlink:href="#DejaVuSans-30"/>
      </g>
     </g>
    </g>
    <g id="xtick_2">
     <g id="line2d_3">
      <path d="M 158.905572 244.48 
L 158.905572 27 
" clip-path="url(#pa0d7513273)" style="fill: none; stroke: #b0b0b0; stroke-opacity: 0.25; stroke-width: 0.8; stroke-linecap: square"/>
     </g>
     <g id="line2d_4">
      <g>
       <use xlink:href="#mb81f9ed1b0" x="158.905572" y="244.48" style="stroke: #000000; stroke-width: 0.8"/>
      </g>
     </g>
     <g id="text_2">
      <!-- 20 -->
      <g transform="translate(152.543072 259.078438) scale(0.1 -0.1)">
       <defs>
        <path id="DejaVuSans-32" d="M 1228 531 
L 3431 531 
L 3431 0 
L 469 0 
L 469 531 
Q 828 903 1448 1529 
Q 2069 2156 2228 2338 
Q 2531 2678 2651 2914 
Q 2772 3150 2772 3378 
Q 2772 3750 2511 3984 
Q 2250 4219 1831 4219 
Q 1534 4219 1204 4116 
Q 875 4013 500 3803 
L 500 4441 
Q 881 4594 1212 4672 
Q 1544 4750 1819 4750 
Q 2544 4750 2975 4387 
Q 3406 4025 3406 3419 
Q 3406 3131 3298 2873 
Q 3191 2616 2906 2266 
Q 2828 2175 2409 1742 
Q 1991 1309 1228 531 
z
" transform="scale(0.015625)"/>
       </defs>
       <use xlink:href="#DejaVuSans-32"/>
       <use xlink:href="#DejaVuSans-30" transform="translate(63.623047 0)"/>
      </g>
     </g>
    </g>
    <g id="xtick_3">
     <g id="line2d_5">
      <path d="M 245.430098 244.48 
L 245.430098 27 
" clip-path="url(#pa0d7513273)" style="fill: none; stroke: #b0b0b0; stroke-opacity: 0.25; stroke-width: 0.8; stroke-linecap: square"/>
     </g>
     <g id="line2d_6">
      <g>
       <use xlink:href="#mb81f9ed1b0" x="245.430098" y="244.48" style="stroke: #000000; stroke-width: 0.8"/>
      </g>
     </g>
     <g id="text_3">
      <!-- 40 -->
      <g transform="translate(239.067598 259.078438) scale(0.1 -0.1)">
       <defs>
        <path id="DejaVuSans-34" d="M 2419 4116 
L 825 1625 
L 2419 1625 
L 2419 4116 
z
M 2253 4666 
L 3047 4666 
L 3047 1625 
L 3713 1625 
L 3713 1100 
L 3047 1100 
L 3047 0 
L 2419 0 
L 2419 1100 
L 313 1100 
L 313 1709 
L 2253 4666 
z
" transform="scale(0.015625)"/>
       </defs>
       <use xlink:href="#DejaVuSans-34"/>
       <use xlink:href="#DejaVuSans-30" transform="translate(63.623047 0)"/>
      </g>
     </g>
    </g>
    <g id="xtick_4">
     <g id="line2d_7">
      <path d="M 331.954624 244.48 
L 331.954624 27 
" clip-path="url(#pa0d7513273)" style="fill: none; stroke: #b0b0b0; stroke-opacity: 0.25; stroke-width: 0.8; stroke-linecap: square"/>
     </g>
     <g id="line2d_8">
      <g>
       <use xlink:href="#mb81f9ed1b0" x="331.954624" y="244.48" style="stroke: #000000; stroke-width: 0.8"/>
      </g>
     </g>
     <g id="text_4">
      <!-- 60 -->
      <g transform="translate(325.592124 259.078438) scale(0.1 -0.1)">
       <defs>
        <path id="DejaVuSans-36" d="M 2113 2584 
Q 1688 2584 1439 2293 
Q 1191 2003 1191 1497 
Q 1191 994 1439 701 
Q 1688 409 2113 409 
Q 2538 409 2786 701 
Q 3034 994 3034 1497 
Q 3034 2003 2786 2293 
Q 2538 2584 2113 2584 
z
M 3366 4563 
L 3366 3988 
Q 3128 4100 2886 4159 
Q 2644 4219 2406 4219 
Q 1781 4219 1451 3797 
Q 1122 3375 1075 2522 
Q 1259 2794 1537 2939 
Q 1816 3084 2150 3084 
Q 2853 3084 3261 2657 
Q 3669 2231 3669 1497 
Q 3669 778 3244 343 
Q 2819 -91 2113 -91 
Q 1303 -91 875 529 
Q 447 1150 447 2328 
Q 447 3434 972 4092 
Q 1497 4750 2381 4750 
Q 2619 4750 2861 4703 
Q 3103 4656 3366 4563 
z
" transform="scale(0.015625)"/>
       </defs>
       <use xlink:href="#DejaVuSans-36"/>
       <use xlink:href="#DejaVuSans-30" transform="translate(63.623047 0)"/>
      </g>
     </g>
    </g>
    <g id="xtick_5">
     <g id="line2d_9">
      <path d="M 418.47915 244.48 
L 418.47915 27 
" clip-path="url(#pa0d7513273)" style="fill: none; stroke: #b0b0b0; stroke-opacity: 0.25; stroke-width: 0.8; stroke-linecap: square"/>
     </g>
     <g id="line2d_10">
      <g>
       <use xlink:href="#mb81f9ed1b0" x="418.47915" y="244.48" style="stroke: #000000; stroke-width: 0.8"/>
      </g>
     </g>
     <g id="text_5">
      <!-- 80 -->
      <g transform="translate(412.11665 259.078438) scale(0.1 -0.1)">
       <defs>
        <path id="DejaVuSans-38" d="M 2034 2216 
Q 1584 2216 1326 1975 
Q 1069 1734 1069 1313 
Q 1069 891 1326 650 
Q 1584 409 2034 409 
Q 2484 409 2743 651 
Q 3003 894 3003 1313 
Q 3003 1734 2745 1975 
Q 2488 2216 2034 2216 
z
M 1403 2484 
Q 997 2584 770 2862 
Q 544 3141 544 3541 
Q 544 4100 942 4425 
Q 1341 4750 2034 4750 
Q 2731 4750 3128 4425 
Q 3525 4100 3525 3541 
Q 3525 3141 3298 2862 
Q 3072 2584 2669 2484 
Q 3125 2378 3379 2068 
Q 3634 1759 3634 1313 
Q 3634 634 3220 271 
Q 2806 -91 2034 -91 
Q 1263 -91 848 271 
Q 434 634 434 1313 
Q 434 1759 690 2068 
Q 947 2378 1403 2484 
z
M 1172 3481 
Q 1172 3119 1398 2916 
Q 1625 2713 2034 2713 
Q 2441 2713 2670 2916 
Q 2900 3119 2900 3481 
Q 2900 3844 2670 4047 
Q 2441 4250 2034 4250 
Q 1625 4250 1398 4047 
Q 1172 3844 1172 3481 
z
" transform="scale(0.015625)"/>
       </defs>
       <use xlink:href="#DejaVuSans-38"/>
       <use xlink:href="#DejaVuSans-30" transform="translate(63.623047 0)"/>
      </g>
     </g>
    </g>
    <g id="xtick_6">
     <g id="line2d_11">
      <path d="M 505.003676 244.48 
L 505.003676 27 
" clip-path="url(#pa0d7513273)" style="fill: none; stroke: #b0b0b0; stroke-opacity: 0.25; stroke-width: 0.8; stroke-linecap: square"/>
     </g>
     <g id="line2d_12">
      <g>
       <use xlink:href="#mb81f9ed1b0" x="505.003676" y="244.48" style="stroke: #000000; stroke-width: 0.8"/>
      </g>
     </g>
     <g id="text_6">
      <!-- 100 -->
      <g transform="translate(495.459926 259.078438) scale(0.1 -0.1)">
       <defs>
        <path id="DejaVuSans-31" d="M 794 531 
L 1825 531 
L 1825 4091 
L 703 3866 
L 703 4441 
L 1819 4666 
L 2450 4666 
L 2450 531 
L 3481 531 
L 3481 0 
L 794 0 
L 794 531 
z
" transform="scale(0.015625)"/>
       </defs>
       <use xlink:href="#DejaVuSans-31"/>
       <use xlink:href="#DejaVuSans-30" transform="translate(63.623047 0)"/>
       <use xlink:href="#DejaVuSans-30" transform="translate(127.246094 0)"/>
      </g>
     </g>
    </g>
    <g id="xtick_7">
     <g id="line2d_13">
      <path d="M 591.528201 244.48 
L 591.528201 27 
" clip-path="url(#pa0d7513273)" style="fill: none; stroke: #b0b0b0; stroke-opacity: 0.25; stroke-width: 0.8; stroke-linecap: square"/>
     </g>
     <g id="line2d_14">
      <g>
       <use xlink:href="#mb81f9ed1b0" x="591.528201" y="244.48" style="stroke: #000000; stroke-width: 0.8"/>
      </g>
     </g>
     <g id="text_7">
      <!-- 120 -->
      <g transform="translate(581.984451 259.078438) scale(0.1 -0.1)">
       <use xlink:href="#DejaVuSans-31"/>
       <use xlink:href="#DejaVuSans-32" transform="translate(63.623047 0)"/>
       <use xlink:href="#DejaVuSans-30" transform="translate(127.246094 0)"/>
      </g>
     </g>
    </g>
    <g id="xtick_8">
     <g id="line2d_15">
      <path d="M 678.052727 244.48 
L 678.052727 27 
" clip-path="url(#pa0d7513273)" style="fill: none; stroke: #b0b0b0; stroke-opacity: 0.25; stroke-width: 0.8; stroke-linecap: square"/>
     </g>
     <g id="line2d_16">
      <g>
       <use xlink:href="#mb81f9ed1b0" x="678.052727" y="244.48" style="stroke: #000000; stroke-width: 0.8"/>
      </g>
     </g>
     <g id="text_8">
      <!-- 140 -->
      <g transform="translate(668.508977 259.078438) scale(0.1 -0.1)">
       <use xlink:href="#DejaVuSans-31"/>
       <use xlink:href="#DejaVuSans-34" transform="translate(63.623047 0)"/>
       <use xlink:href="#DejaVuSans-30" transform="translate(127.246094 0)"/>
      </g>
     </g>
    </g>
    <g id="text_9">
     <!-- Input -->
     <g transform="translate(363.138438 273.516406) scale(0.11 -0.11)">
      <defs>
       <path id="DejaVuSans-49" d="M 628 4666 
L 1259 4666 
L 1259 0 
L 628 0 
L 628 4666 
z
" transform="scale(0.015625)"/>
       <path id="DejaVuSans-6e" d="M 3513 2113 
L 3513 0 
L 2938 0 
L 2938 2094 
Q 2938 2591 2744 2837 
Q 2550 3084 2163 3084 
Q 1697 3084 1428 2787 
Q 1159 2491 1159 1978 
L 1159 0 
L 581 0 
L 581 3500 
L 1159 3500 
L 1159 2956 
Q 1366 3272 1645 3428 
Q 1925 3584 2291 3584 
Q 2894 3584 3203 3211 
Q 3513 2838 3513 2113 
z
" transform="scale(0.015625)"/>
       <path id="DejaVuSans-70" d="M 1159 525 
L 1159 -1331 
L 581 -1331 
L 581 3500 
L 1159 3500 
L 1159 2969 
Q 1341 3281 1617 3432 
Q 1894 3584 2278 3584 
Q 2916 3584 3314 3078 
Q 3713 2572 3713 1747 
Q 3713 922 3314 415 
Q 2916 -91 2278 -91 
Q 1894 -91 1617 61 
Q 1341 213 1159 525 
z
M 3116 1747 
Q 3116 2381 2855 2742 
Q 2594 3103 2138 3103 
Q 1681 3103 1420 2742 
Q 1159 2381 1159 1747 
Q 1159 1113 1420 752 
Q 1681 391 2138 391 
Q 2594 391 2855 752 
Q 3116 1113 3116 1747 
z
" transform="scale(0.015625)"/>
       <path id="DejaVuSans-75" d="M 544 1381 
L 544 3500 
L 1119 3500 
L 1119 1403 
Q 1119 906 1312 657 
Q 1506 409 1894 409 
Q 2359 409 2629 706 
Q 2900 1003 2900 1516 
L 2900 3500 
L 3475 3500 
L 3475 0 
L 2900 0 
L 2900 538 
Q 2691 219 2414 64 
Q 2138 -91 1772 -91 
Q 1169 -91 856 284 
Q 544 659 544 1381 
z
M 1991 3584 
L 1991 3584 
z
" transform="scale(0.015625)"/>
       <path id="DejaVuSans-74" d="M 1172 4494 
L 1172 3500 
L 2356 3500 
L 2356 3053 
L 1172 3053 
L 1172 1153 
Q 1172 725 1289 603 
Q 1406 481 1766 481 
L 2356 481 
L 2356 0 
L 1766 0 
Q 1100 0 847 248 
Q 594 497 594 1153 
L 594 3053 
L 172 3053 
L 172 3500 
L 594 3500 
L 594 4494 
L 1172 4494 
z
" transform="scale(0.015625)"/>
      </defs>
      <use xlink:href="#DejaVuSans-49"/>
      <use xlink:href="#DejaVuSans-6e" transform="translate(29.492188 0)"/>
      <use xlink:href="#DejaVuSans-70" transform="translate(92.871094 0)"/>
      <use xlink:href="#DejaVuSans-75" transform="translate(156.347656 0)"/>
      <use xlink:href="#DejaVuSans-74" transform="translate(219.726562 0)"/>
     </g>
    </g>
   </g>
   <g id="matplotlib.axis_2">
    <g id="ytick_1">
     <g id="line2d_17">
      <path d="M 46.64 224.683301 
L 708.12 224.683301 
" clip-path="url(#pa0d7513273)" style="fill: none; stroke: #b0b0b0; stroke-opacity: 0.25; stroke-width: 0.8; stroke-linecap: square"/>
     </g>
     <g id="line2d_18">
      <defs>
       <path id="m42b930e187" d="M 0 0 
L -3.5 0 
" style="stroke: #000000; stroke-width: 0.8"/>
      </defs>
      <g>
       <use xlink:href="#m42b930e187" x="46.64" y="224.683301" style="stroke: #000000; stroke-width: 0.8"/>
      </g>
     </g>
     <g id="text_10">
      <!-- 5 -->
      <g transform="translate(33.2775 228.48252) scale(0.1 -0.1)">
       <defs>
        <path id="DejaVuSans-35" d="M 691 4666 
L 3169 4666 
L 3169 4134 
L 1269 4134 
L 1269 2991 
Q 1406 3038 1543 3061 
Q 1681 3084 1819 3084 
Q 2600 3084 3056 2656 
Q 3513 2228 3513 1497 
Q 3513 744 3044 326 
Q 2575 -91 1722 -91 
Q 1428 -91 1123 -41 
Q 819 9 494 109 
L 494 744 
Q 775 591 1075 516 
Q 1375 441 1709 441 
Q 2250 441 2565 725 
Q 2881 1009 2881 1497 
Q 2881 1984 2565 2268 
Q 2250 2553 1709 2553 
Q 1456 2553 1204 2497 
Q 953 2441 691 2322 
L 691 4666 
z
" transform="scale(0.015625)"/>
       </defs>
       <use xlink:href="#DejaVuSans-35"/>
      </g>
     </g>
    </g>
    <g id="ytick_2">
     <g id="line2d_19">
      <path d="M 46.64 192.037567 
L 708.12 192.037567 
" clip-path="url(#pa0d7513273)" style="fill: none; stroke: #b0b0b0; stroke-opacity: 0.25; stroke-width: 0.8; stroke-linecap: square"/>
     </g>
     <g id="line2d_20">
      <g>
       <use xlink:href="#m42b930e187" x="46.64" y="192.037567" style="stroke: #000000; stroke-width: 0.8"/>
      </g>
     </g>
     <g id="text_11">
      <!-- 10 -->
      <g transform="translate(26.915 195.836786) scale(0.1 -0.1)">
       <use xlink:href="#DejaVuSans-31"/>
       <use xlink:href="#DejaVuSans-30" transform="translate(63.623047 0)"/>
      </g>
     </g>
    </g>
    <g id="ytick_3">
     <g id="line2d_21">
      <path d="M 46.64 159.391834 
L 708.12 159.391834 
" clip-path="url(#pa0d7513273)" style="fill: none; stroke: #b0b0b0; stroke-opacity: 0.25; stroke-width: 0.8; stroke-linecap: square"/>
     </g>
     <g id="line2d_22">
      <g>
       <use xlink:href="#m42b930e187" x="46.64" y="159.391834" style="stroke: #000000; stroke-width: 0.8"/>
      </g>
     </g>
     <g id="text_12">
      <!-- 15 -->
      <g transform="translate(26.915 163.191053) scale(0.1 -0.1)">
       <use xlink:href="#DejaVuSans-31"/>
       <use xlink:href="#DejaVuSans-35" transform="translate(63.623047 0)"/>
      </g>
     </g>
    </g>
    <g id="ytick_4">
     <g id="line2d_23">
      <path d="M 46.64 126.7461 
L 708.12 126.7461 
" clip-path="url(#pa0d7513273)" style="fill: none; stroke: #b0b0b0; stroke-opacity: 0.25; stroke-width: 0.8; stroke-linecap: square"/>
     </g>
     <g id="line2d_24">
      <g>
       <use xlink:href="#m42b930e187" x="46.64" y="126.7461" style="stroke: #000000; stroke-width: 0.8"/>
      </g>
     </g>
     <g id="text_13">
      <!-- 20 -->
      <g transform="translate(26.915 130.545319) scale(0.1 -0.1)">
       <use xlink:href="#DejaVuSans-32"/>
       <use xlink:href="#DejaVuSans-30" transform="translate(63.623047 0)"/>
      </g>
     </g>
    </g>
    <g id="ytick_5">
     <g id="line2d_25">
      <path d="M 46.64 94.100367 
L 708.12 94.100367 
" clip-path="url(#pa0d7513273)" style="fill: none; stroke: #b0b0b0; stroke-opacity: 0.25; stroke-width: 0.8; stroke-linecap: square"/>
     </g>
     <g id="line2d_26">
      <g>
       <use xlink:href="#m42b930e187" x="46.64" y="94.100367" style="stroke: #000000; stroke-width: 0.8"/>
      </g>
     </g>
     <g id="text_14">
      <!-- 25 -->
      <g transform="translate(26.915 97.899586) scale(0.1 -0.1)">
       <use xlink:href="#DejaVuSans-32"/>
       <use xlink:href="#DejaVuSans-35" transform="translate(63.623047 0)"/>
      </g>
     </g>
    </g>
    <g id="ytick_6">
     <g id="line2d_27">
      <path d="M 46.64 61.454634 
L 708.12 61.454634 
" clip-path="url(#pa0d7513273)" style="fill: none; stroke: #b0b0b0; stroke-opacity: 0.25; stroke-width: 0.8; stroke-linecap: square"/>
     </g>
     <g id="line2d_28">
      <g>
       <use xlink:href="#m42b930e187" x="46.64" y="61.454634" style="stroke: #000000; stroke-width: 0.8"/>
      </g>
     </g>
     <g id="text_15">
      <!-- 30 -->
      <g transform="translate(26.915 65.253852) scale(0.1 -0.1)">
       <defs>
        <path id="DejaVuSans-33" d="M 2597 2516 
Q 3050 2419 3304 2112 
Q 3559 1806 3559 1356 
Q 3559 666 3084 287 
Q 2609 -91 1734 -91 
Q 1441 -91 1130 -33 
Q 819 25 488 141 
L 488 750 
Q 750 597 1062 519 
Q 1375 441 1716 441 
Q 2309 441 2620 675 
Q 2931 909 2931 1356 
Q 2931 1769 2642 2001 
Q 2353 2234 1838 2234 
L 1294 2234 
L 1294 2753 
L 1863 2753 
Q 2328 2753 2575 2939 
Q 2822 3125 2822 3475 
Q 2822 3834 2567 4026 
Q 2313 4219 1838 4219 
Q 1578 4219 1281 4162 
Q 984 4106 628 3988 
L 628 4550 
Q 988 4650 1302 4700 
Q 1616 4750 1894 4750 
Q 2613 4750 3031 4423 
Q 3450 4097 3450 3541 
Q 3450 3153 3228 2886 
Q 3006 2619 2597 2516 
z
" transform="scale(0.015625)"/>
       </defs>
       <use xlink:href="#DejaVuSans-33"/>
       <use xlink:href="#DejaVuSans-30" transform="translate(63.623047 0)"/>
      </g>
     </g>
    </g>
    <g id="ytick_7">
     <g id="line2d_29">
      <path d="M 46.64 28.8089 
L 708.12 28.8089 
" clip-path="url(#pa0d7513273)" style="fill: none; stroke: #b0b0b0; stroke-opacity: 0.25; stroke-width: 0.8; stroke-linecap: square"/>
     </g>
     <g id="line2d_30">
      <g>
       <use xlink:href="#m42b930e187" x="46.64" y="28.8089" style="stroke: #000000; stroke-width: 0.8"/>
      </g>
     </g>
     <g id="text_16">
      <!-- 35 -->
      <g transform="translate(26.915 32.608119) scale(0.1 -0.1)">
       <use xlink:href="#DejaVuSans-33"/>
       <use xlink:href="#DejaVuSans-35" transform="translate(63.623047 0)"/>
      </g>
     </g>
    </g>
    <g id="text_17">
     <!-- Time (s) -->
     <g transform="translate(20.627344 158.101797) rotate(-90) scale(0.11 -0.11)">
      <defs>
       <path id="DejaVuSans-54" d="M -19 4666 
L 3928 4666 
L 3928 4134 
L 2272 4134 
L 2272 0 
L 1638 0 
L 1638 4134 
L -19 4134 
L -19 4666 
z
" transform="scale(0.015625)"/>
       <path id="DejaVuSans-69" d="M 603 3500 
L 1178 3500 
L 1178 0 
L 603 0 
L 603 3500 
z
M 603 4863 
L 1178 4863 
L 1178 4134 
L 603 4134 
L 603 4863 
z
" transform="scale(0.015625)"/>
       <path id="DejaVuSans-6d" d="M 3328 2828 
Q 3544 3216 3844 3400 
Q 4144 3584 4550 3584 
Q 5097 3584 5394 3201 
Q 5691 2819 5691 2113 
L 5691 0 
L 5113 0 
L 5113 2094 
Q 5113 2597 4934 2840 
Q 4756 3084 4391 3084 
Q 3944 3084 3684 2787 
Q 3425 2491 3425 1978 
L 3425 0 
L 2847 0 
L 2847 2094 
Q 2847 2600 2669 2842 
Q 2491 3084 2119 3084 
Q 1678 3084 1418 2786 
Q 1159 2488 1159 1978 
L 1159 0 
L 581 0 
L 581 3500 
L 1159 3500 
L 1159 2956 
Q 1356 3278 1631 3431 
Q 1906 3584 2284 3584 
Q 2666 3584 2933 3390 
Q 3200 3197 3328 2828 
z
" transform="scale(0.015625)"/>
       <path id="DejaVuSans-65" d="M 3597 1894 
L 3597 1613 
L 953 1613 
Q 991 1019 1311 708 
Q 1631 397 2203 397 
Q 2534 397 2845 478 
Q 3156 559 3463 722 
L 3463 178 
Q 3153 47 2828 -22 
Q 2503 -91 2169 -91 
Q 1331 -91 842 396 
Q 353 884 353 1716 
Q 353 2575 817 3079 
Q 1281 3584 2069 3584 
Q 2775 3584 3186 3129 
Q 3597 2675 3597 1894 
z
M 3022 2063 
Q 3016 2534 2758 2815 
Q 2500 3097 2075 3097 
Q 1594 3097 1305 2825 
Q 1016 2553 972 2059 
L 3022 2063 
z
" transform="scale(0.015625)"/>
       <path id="DejaVuSans-20" transform="scale(0.015625)"/>
       <path id="DejaVuSans-28" d="M 1984 4856 
Q 1566 4138 1362 3434 
Q 1159 2731 1159 2009 
Q 1159 1288 1364 580 
Q 1569 -128 1984 -844 
L 1484 -844 
Q 1016 -109 783 600 
Q 550 1309 550 2009 
Q 550 2706 781 3412 
Q 1013 4119 1484 4856 
L 1984 4856 
z
" transform="scale(0.015625)"/>
       <path id="DejaVuSans-73" d="M 2834 3397 
L 2834 2853 
Q 2591 2978 2328 3040 
Q 2066 3103 1784 3103 
Q 1356 3103 1142 2972 
Q 928 2841 928 2578 
Q 928 2378 1081 2264 
Q 1234 2150 1697 2047 
L 1894 2003 
Q 2506 1872 2764 1633 
Q 3022 1394 3022 966 
Q 3022 478 2636 193 
Q 2250 -91 1575 -91 
Q 1294 -91 989 -36 
Q 684 19 347 128 
L 347 722 
Q 666 556 975 473 
Q 1284 391 1588 391 
Q 1994 391 2212 530 
Q 2431 669 2431 922 
Q 2431 1156 2273 1281 
Q 2116 1406 1581 1522 
L 1381 1569 
Q 847 1681 609 1914 
Q 372 2147 372 2553 
Q 372 3047 722 3315 
Q 1072 3584 1716 3584 
Q 2034 3584 2315 3537 
Q 2597 3491 2834 3397 
z
" transform="scale(0.015625)"/>
       <path id="DejaVuSans-29" d="M 513 4856 
L 1013 4856 
Q 1481 4119 1714 3412 
Q 1947 2706 1947 2009 
Q 1947 1309 1714 600 
Q 1481 -109 1013 -844 
L 513 -844 
Q 928 -128 1133 580 
Q 1338 1288 1338 2009 
Q 1338 2731 1133 3434 
Q 928 4138 513 4856 
z
" transform="scale(0.015625)"/>
      </defs>
      <use xlink:href="#DejaVuSans-54"/>
      <use xlink:href="#DejaVuSans-69" transform="translate(57.958984 0)"/>
      <use xlink:href="#DejaVuSans-6d" transform="translate(85.742188 0)"/>
      <use xlink:href="#DejaVuSans-65" transform="translate(183.154297 0)"/>
      <use xlink:href="#DejaVuSans-20" transform="translate(244.677734 0)"/>
      <use xlink:href="#DejaVuSans-28" transform="translate(276.464844 0)"/>
      <use xlink:href="#DejaVuSans-73" transform="translate(315.478516 0)"/>
      <use xlink:href="#DejaVuSans-29" transform="translate(367.578125 0)"/>
     </g>
    </g>
   </g>
   <g id="line2d_31">
    <path d="M 76.707273 232.714151 
L 81.033499 231.427909 
L 85.359725 227.405955 
L 89.685952 226.204592 
L 94.012178 219.17923 
L 98.338404 217.795051 
L 102.66463 216.665509 
L 106.990857 215.2748 
L 111.317083 201.942283 
L 115.643309 200.303467 
L 119.969536 199.852956 
L 124.295762 198.305548 
L 128.621988 197.280472 
L 132.948215 195.772239 
L 137.274441 194.211773 
L 141.600667 193.278105 
L 145.926893 191.933101 
L 150.25312 164.654326 
L 154.579346 167.461859 
L 158.905572 167.716496 
L 163.231799 166.038505 
L 167.558025 164.993842 
L 171.884251 163.498667 
L 176.210477 162.147134 
L 180.536704 160.998004 
L 184.86293 159.182901 
L 189.189156 158.379816 
L 193.515383 156.812821 
L 197.841609 155.285001 
L 202.167835 154.351333 
L 206.494061 152.758221 
L 210.820288 151.30875 
L 215.146514 150.23797 
L 219.47274 149.062724 
L 223.798967 147.443495 
L 228.125193 145.863442 
L 232.451419 90.894556 
L 236.777646 90.750915 
L 241.103872 90.202466 
L 245.430098 90.065354 
L 249.756324 88.635471 
L 254.082551 86.219687 
L 258.408777 85.364369 
L 262.735003 84.267472 
L 267.06123 81.113894 
L 271.387456 79.853769 
L 275.713682 76.719778 
L 280.039908 75.524945 
L 284.366135 73.8796 
L 288.692361 73.690254 
L 297.344814 70.386506 
L 305.997266 66.201323 
L 314.649719 63.661485 
L 323.302171 61.676625 
L 331.954624 58.673217 
L 340.607077 56.838527 
L 349.259529 52.91451 
L 357.911982 51.30181 
L 366.564434 48.442044 
L 375.216887 47.377793 
L 383.869339 42.213238 
" clip-path="url(#pa0d7513273)" style="fill: none; stroke: #1f77b4; stroke-width: 1.8; stroke-linecap: square"/>
   </g>
   <g id="line2d_32">
    <path d="M 76.707273 231.87842 
L 81.033499 231.493201 
L 85.359725 230.004555 
L 89.685952 229.730331 
L 94.012178 226.034834 
L 98.338404 225.649614 
L 102.66463 225.30357 
L 106.990857 224.715947 
L 111.317083 218.963768 
L 115.643309 219.381634 
L 119.969536 218.924593 
L 124.295762 217.971338 
L 128.621988 218.239033 
L 132.948215 217.710172 
L 137.274441 217.338011 
L 141.600667 216.933204 
L 145.926893 216.665509 
L 150.25312 201.537476 
L 154.579346 201.981458 
L 158.905572 200.753978 
L 163.231799 201.002086 
L 167.558025 200.982498 
L 171.884251 197.796275 
L 176.210477 197.776687 
L 180.536704 197.084598 
L 184.86293 197.104185 
L 189.189156 196.542679 
L 193.515383 196.954015 
L 197.841609 195.445782 
L 202.167835 196.124813 
L 206.494061 196.15093 
L 210.820288 194.681872 
L 215.146514 194.518643 
L 219.47274 194.074661 
L 223.798967 193.970195 
L 228.125193 193.225872 
L 232.451419 169.185554 
L 236.777646 170.223688 
L 241.103872 168.369411 
L 245.430098 172.234665 
L 249.756324 169.681769 
L 254.082551 168.127832 
L 258.408777 171.072477 
L 262.735003 171.607867 
L 267.06123 169.988639 
L 271.387456 169.655652 
L 275.713682 168.180065 
L 280.039908 168.898271 
L 284.366135 167.53368 
L 288.692361 167.194164 
L 297.344814 167.239868 
L 305.997266 166.874236 
L 314.649719 166.489016 
L 323.302171 165.431295 
L 331.954624 165.144012 
L 340.607077 165.62064 
L 349.259529 163.492138 
L 357.911982 164.020999 
L 366.564434 163.910003 
L 375.216887 164.660855 
L 383.869339 160.887008 
L 392.521792 98.729532 
L 401.174245 101.902697 
L 409.826697 105.121567 
L 418.47915 103.619863 
L 427.131602 103.939791 
L 435.784055 103.130177 
L 444.436508 102.79719 
L 453.08896 102.477262 
L 461.741413 102.255271 
L 470.393865 101.223666 
L 479.046318 100.459756 
L 487.69877 99.917837 
L 496.351223 98.390016 
L 505.003676 99.715433 
L 526.634807 97.423703 
L 548.265939 96.385568 
L 569.89707 95.497604 
L 591.528201 93.395219 
L 613.159333 91.86087 
L 634.790464 90.267758 
L 656.421596 89.236153 
L 678.052727 86.794252 
" clip-path="url(#pa0d7513273)" style="fill: none; stroke: #2ca02c; stroke-width: 1.8; stroke-linecap: square"/>
   </g>
   <g id="line2d_33">
    <path d="M 76.707273 233.602115 
L 81.033499 233.164662 
L 85.359725 231.747837 
L 89.685952 231.245093 
L 94.012178 228.163336 
L 98.338404 227.36678 
L 102.66463 227.027264 
L 106.990857 226.420054 
L 111.317083 221.000862 
L 115.643309 221.451373 
L 119.969536 220.25001 
L 124.295762 220.302243 
L 128.621988 219.94314 
L 132.948215 219.512217 
L 137.274441 219.525275 
L 141.600667 218.212916 
L 145.926893 217.390244 
L 150.25312 204.919574 
L 154.579346 204.743287 
L 158.905572 204.913045 
L 163.231799 205.193798 
L 167.558025 205.611663 
L 171.884251 204.658408 
L 176.210477 203.737798 
L 180.536704 202.745368 
L 184.86293 203.182821 
L 189.189156 201.50483 
L 193.515383 201.694175 
L 197.841609 201.302426 
L 202.167835 201.648471 
L 206.494061 201.073906 
L 210.820288 201.302426 
L 215.146514 200.081476 
L 219.47274 200.218588 
L 223.798967 199.154337 
L 228.125193 197.110714 
L 232.451419 174.598217 
L 236.777646 173.246683 
L 241.103872 174.121589 
L 245.430098 173.932244 
L 249.756324 173.520907 
L 254.082551 173.964889 
L 258.408777 171.862504 
L 262.735003 172.221607 
L 267.06123 172.437069 
L 271.387456 172.521948 
L 275.713682 173.605786 
L 280.039908 172.221607 
L 284.366135 172.27384 
L 288.692361 171.771096 
L 297.344814 173.148746 
L 305.997266 174.624333 
L 314.649719 171.268352 
L 323.302171 170.497912 
L 331.954624 170.478325 
L 340.607077 172.162845 
L 349.259529 170.282451 
L 357.911982 169.890702 
L 366.564434 169.414074 
L 375.216887 170.125751 
L 383.869339 169.081088 
L 392.521792 111.082678 
L 401.174245 110.5277 
L 409.826697 114.784704 
L 418.47915 113.067538 
L 427.131602 111.559305 
L 435.784055 107.713638 
L 444.436508 107.752813 
L 453.08896 106.270696 
L 461.741413 105.591665 
L 470.393865 105.892006 
L 479.046318 105.271737 
L 487.69877 105.199916 
L 496.351223 102.366267 
L 505.003676 103.48928 
L 526.634807 102.901657 
L 548.265939 99.317155 
L 569.89707 100.81233 
L 591.528201 98.67077 
L 613.159333 97.887272 
L 634.790464 96.418214 
L 656.421596 94.093838 
L 678.052727 93.218932 
" clip-path="url(#pa0d7513273)" style="fill: none; stroke: #ff7f0e; stroke-width: 1.8; stroke-linecap: square"/>
   </g>
   <g id="patch_3">
    <path d="M 46.64 244.48 
L 46.64 27 
" style="fill: none; stroke: #000000; stroke-width: 0.8; stroke-linejoin: miter; stroke-linecap: square"/>
   </g>
   <g id="patch_4">
    <path d="M 708.12 244.48 
L 708.12 27 
" style="fill: none; stroke: #000000; stroke-width: 0.8; stroke-linejoin: miter; stroke-linecap: square"/>
   </g>
   <g id="patch_5">
    <path d="M 46.64 244.48 
L 708.12 244.48 
" style="fill: none; stroke: #000000; stroke-width: 0.8; stroke-linejoin: miter; stroke-linecap: square"/>
   </g>
   <g id="patch_6">
    <path d="M 46.64 27 
L 708.12 27 
" style="fill: none; stroke: #000000; stroke-width: 0.8; stroke-linejoin: miter; stroke-linecap: square"/>
   </g>
   <g id="text_18">
    <!-- SHA2 Chain — Total time (full range) -->
    <g transform="translate(267.612813 21) scale(0.12 -0.12)">
     <defs>
      <path id="DejaVuSans-53" d="M 3425 4513 
L 3425 3897 
Q 3066 4069 2747 4153 
Q 2428 4238 2131 4238 
Q 1616 4238 1336 4038 
Q 1056 3838 1056 3469 
Q 1056 3159 1242 3001 
Q 1428 2844 1947 2747 
L 2328 2669 
Q 3034 2534 3370 2195 
Q 3706 1856 3706 1288 
Q 3706 609 3251 259 
Q 2797 -91 1919 -91 
Q 1588 -91 1214 -16 
Q 841 59 441 206 
L 441 856 
Q 825 641 1194 531 
Q 1563 422 1919 422 
Q 2459 422 2753 634 
Q 3047 847 3047 1241 
Q 3047 1584 2836 1778 
Q 2625 1972 2144 2069 
L 1759 2144 
Q 1053 2284 737 2584 
Q 422 2884 422 3419 
Q 422 4038 858 4394 
Q 1294 4750 2059 4750 
Q 2388 4750 2728 4690 
Q 3069 4631 3425 4513 
z
" transform="scale(0.015625)"/>
      <path id="DejaVuSans-48" d="M 628 4666 
L 1259 4666 
L 1259 2753 
L 3553 2753 
L 3553 4666 
L 4184 4666 
L 4184 0 
L 3553 0 
L 3553 2222 
L 1259 2222 
L 1259 0 
L 628 0 
L 628 4666 
z
" transform="scale(0.015625)"/>
      <path id="DejaVuSans-41" d="M 2188 4044 
L 1331 1722 
L 3047 1722 
L 2188 4044 
z
M 1831 4666 
L 2547 4666 
L 4325 0 
L 3669 0 
L 3244 1197 
L 1141 1197 
L 716 0 
L 50 0 
L 1831 4666 
z
" transform="scale(0.015625)"/>
      <path id="DejaVuSans-43" d="M 4122 4306 
L 4122 3641 
Q 3803 3938 3442 4084 
Q 3081 4231 2675 4231 
Q 1875 4231 1450 3742 
Q 1025 3253 1025 2328 
Q 1025 1406 1450 917 
Q 1875 428 2675 428 
Q 3081 428 3442 575 
Q 3803 722 4122 1019 
L 4122 359 
Q 3791 134 3420 21 
Q 3050 -91 2638 -91 
Q 1578 -91 968 557 
Q 359 1206 359 2328 
Q 359 3453 968 4101 
Q 1578 4750 2638 4750 
Q 3056 4750 3426 4639 
Q 3797 4528 4122 4306 
z
" transform="scale(0.015625)"/>
      <path id="DejaVuSans-68" d="M 3513 2113 
L 3513 0 
L 2938 0 
L 2938 2094 
Q 2938 2591 2744 2837 
Q 2550 3084 2163 3084 
Q 1697 3084 1428 2787 
Q 1159 2491 1159 1978 
L 1159 0 
L 581 0 
L 581 4863 
L 1159 4863 
L 1159 2956 
Q 1366 3272 1645 3428 
Q 1925 3584 2291 3584 
Q 2894 3584 3203 3211 
Q 3513 2838 3513 2113 
z
" transform="scale(0.015625)"/>
      <path id="DejaVuSans-61" d="M 2194 1759 
Q 1497 1759 1228 1600 
Q 959 1441 959 1056 
Q 959 750 1161 570 
Q 1363 391 1709 391 
Q 2188 391 2477 730 
Q 2766 1069 2766 1631 
L 2766 1759 
L 2194 1759 
z
M 3341 1997 
L 3341 0 
L 2766 0 
L 2766 531 
Q 2569 213 2275 61 
Q 1981 -91 1556 -91 
Q 1019 -91 701 211 
Q 384 513 384 1019 
Q 384 1609 779 1909 
Q 1175 2209 1959 2209 
L 2766 2209 
L 2766 2266 
Q 2766 2663 2505 2880 
Q 2244 3097 1772 3097 
Q 1472 3097 1187 3025 
Q 903 2953 641 2809 
L 641 3341 
Q 956 3463 1253 3523 
Q 1550 3584 1831 3584 
Q 2591 3584 2966 3190 
Q 3341 2797 3341 1997 
z
" transform="scale(0.015625)"/>
      <path id="DejaVuSans-2014" d="M 313 1978 
L 6088 1978 
L 6088 1528 
L 313 1528 
L 313 1978 
z
" transform="scale(0.015625)"/>
      <path id="DejaVuSans-6f" d="M 1959 3097 
Q 1497 3097 1228 2736 
Q 959 2375 959 1747 
Q 959 1119 1226 758 
Q 1494 397 1959 397 
Q 2419 397 2687 759 
Q 2956 1122 2956 1747 
Q 2956 2369 2687 2733 
Q 2419 3097 1959 3097 
z
M 1959 3584 
Q 2709 3584 3137 3096 
Q 3566 2609 3566 1747 
Q 3566 888 3137 398 
Q 2709 -91 1959 -91 
Q 1206 -91 779 398 
Q 353 888 353 1747 
Q 353 2609 779 3096 
Q 1206 3584 1959 3584 
z
" transform="scale(0.015625)"/>
      <path id="DejaVuSans-6c" d="M 603 4863 
L 1178 4863 
L 1178 0 
L 603 0 
L 603 4863 
z
" transform="scale(0.015625)"/>
      <path id="DejaVuSans-66" d="M 2375 4863 
L 2375 4384 
L 1825 4384 
Q 1516 4384 1395 4259 
Q 1275 4134 1275 3809 
L 1275 3500 
L 2222 3500 
L 2222 3053 
L 1275 3053 
L 1275 0 
L 697 0 
L 697 3053 
L 147 3053 
L 147 3500 
L 697 3500 
L 697 3744 
Q 697 4328 969 4595 
Q 1241 4863 1831 4863 
L 2375 4863 
z
" transform="scale(0.015625)"/>
      <path id="DejaVuSans-72" d="M 2631 2963 
Q 2534 3019 2420 3045 
Q 2306 3072 2169 3072 
Q 1681 3072 1420 2755 
Q 1159 2438 1159 1844 
L 1159 0 
L 581 0 
L 581 3500 
L 1159 3500 
L 1159 2956 
Q 1341 3275 1631 3429 
Q 1922 3584 2338 3584 
Q 2397 3584 2469 3576 
Q 2541 3569 2628 3553 
L 2631 2963 
z
" transform="scale(0.015625)"/>
      <path id="DejaVuSans-67" d="M 2906 1791 
Q 2906 2416 2648 2759 
Q 2391 3103 1925 3103 
Q 1463 3103 1205 2759 
Q 947 2416 947 1791 
Q 947 1169 1205 825 
Q 1463 481 1925 481 
Q 2391 481 2648 825 
Q 2906 1169 2906 1791 
z
M 3481 434 
Q 3481 -459 3084 -895 
Q 2688 -1331 1869 -1331 
Q 1566 -1331 1297 -1286 
Q 1028 -1241 775 -1147 
L 775 -588 
Q 1028 -725 1275 -790 
Q 1522 -856 1778 -856 
Q 2344 -856 2625 -561 
Q 2906 -266 2906 331 
L 2906 616 
Q 2728 306 2450 153 
Q 2172 0 1784 0 
Q 1141 0 747 490 
Q 353 981 353 1791 
Q 353 2603 747 3093 
Q 1141 3584 1784 3584 
Q 2172 3584 2450 3431 
Q 2728 3278 2906 2969 
L 2906 3500 
L 3481 3500 
L 3481 434 
z
" transform="scale(0.015625)"/>
     </defs>
     <use xlink:href="#DejaVuSans-53"/>
     <use xlink:href="#DejaVuSans-48" transform="translate(63.476562 0)"/>
     <use xlink:href="#DejaVuSans-41" transform="translate(138.671875 0)"/>
     <use xlink:href="#DejaVuSans-32" transform="translate(207.080078 0)"/>
     <use xlink:href="#DejaVuSans-20" transform="translate(270.703125 0)"/>
     <use xlink:href="#DejaVuSans-43" transform="translate(302.490234 0)"/>
     <use xlink:href="#DejaVuSans-68" transform="translate(372.314453 0)"/>
     <use xlink:href="#DejaVuSans-61" transform="translate(435.693359 0)"/>
     <use xlink:href="#DejaVuSans-69" transform="translate(496.972656 0)"/>
     <use xlink:href="#DejaVuSans-6e" transform="translate(524.755859 0)"/>
     <use xlink:href="#DejaVuSans-20" transform="translate(588.134766 0)"/>
     <use xlink:href="#DejaVuSans-2014" transform="translate(619.921875 0)"/>
     <use xlink:href="#DejaVuSans-20" transform="translate(719.921875 0)"/>
     <use xlink:href="#DejaVuSans-54" transform="translate(751.708984 0)"/>
     <use xlink:href="#DejaVuSans-6f" transform="translate(795.792969 0)"/>
     <use xlink:href="#DejaVuSans-74" transform="translate(856.974609 0)"/>
     <use xlink:href="#DejaVuSans-61" transform="translate(896.183594 0)"/>
     <use xlink:href="#DejaVuSans-6c" transform="translate(957.462891 0)"/>
     <use xlink:href="#DejaVuSans-20" transform="translate(985.246094 0)"/>
     <use xlink:href="#DejaVuSans-74" transform="translate(1017.033203 0)"/>
     <use xlink:href="#DejaVuSans-69" transform="translate(1056.242188 0)"/>
     <use xlink:href="#DejaVuSans-6d" transform="translate(1084.025391 0)"/>
     <use xlink:href="#DejaVuSans-65" transform="translate(1181.4375 0)"/>
     <use xlink:href="#DejaVuSans-20" transform="translate(1242.960938 0)"/>
     <use xlink:href="#DejaVuSans-28" transform="translate(1274.748047 0)"/>
     <use xlink:href="#DejaVuSans-66" transform="translate(1313.761719 0)"/>
     <use xlink:href="#DejaVuSans-75" transform="translate(1348.966797 0)"/>
     <use xlink:href="#DejaVuSans-6c" transform="translate(1412.345703 0)"/>
     <use xlink:href="#DejaVuSans-6c" transform="translate(1440.128906 0)"/>
     <use xlink:href="#DejaVuSans-20" transform="translate(1467.912109 0)"/>
     <use xlink:href="#DejaVuSans-72" transform="translate(1499.699219 0)"/>
     <use xlink:href="#DejaVuSans-61" transform="translate(1540.8125 0)"/>
     <use xlink:href="#DejaVuSans-6e" transform="translate(1602.091797 0)"/>
     <use xlink:href="#DejaVuSans-67" transform="translate(1665.470703 0)"/>
     <use xlink:href="#DejaVuSans-65" transform="translate(1728.947266 0)"/>
     <use xlink:href="#DejaVuSans-29" transform="translate(1790.470703 0)"/>
    </g>
   </g>
   <g id="legend_1">
    <g id="line2d_34">
     <path d="M 613.645 40.098438 
L 623.645 40.098438 
L 633.645 40.098438 
" style="fill: none; stroke: #1f77b4; stroke-width: 1.8; stroke-linecap: square"/>
    </g>
    <g id="text_19">
     <!-- 32-reg -->
     <g transform="translate(641.645 43.598438) scale(0.1 -0.1)">
      <defs>
       <path id="DejaVuSans-2d" d="M 313 2009 
L 1997 2009 
L 1997 1497 
L 313 1497 
L 313 2009 
z
" transform="scale(0.015625)"/>
      </defs>
      <use xlink:href="#DejaVuSans-33"/>
      <use xlink:href="#DejaVuSans-32" transform="translate(63.623047 0)"/>
      <use xlink:href="#DejaVuSans-2d" transform="translate(127.246094 0)"/>
      <use xlink:href="#DejaVuSans-72" transform="translate(163.330078 0)"/>
      <use xlink:href="#DejaVuSans-65" transform="translate(202.193359 0)"/>
      <use xlink:href="#DejaVuSans-67" transform="translate(263.716797 0)"/>
     </g>
    </g>
    <g id="line2d_35">
     <path d="M 613.645 54.776563 
L 623.645 54.776563 
L 633.645 54.776563 
" style="fill: none; stroke: #2ca02c; stroke-width: 1.8; stroke-linecap: square"/>
    </g>
    <g id="text_20">
     <!-- mem-batch -->
     <g transform="translate(641.645 58.276563) scale(0.1 -0.1)">
      <defs>
       <path id="DejaVuSans-62" d="M 3116 1747 
Q 3116 2381 2855 2742 
Q 2594 3103 2138 3103 
Q 1681 3103 1420 2742 
Q 1159 2381 1159 1747 
Q 1159 1113 1420 752 
Q 1681 391 2138 391 
Q 2594 391 2855 752 
Q 3116 1113 3116 1747 
z
M 1159 2969 
Q 1341 3281 1617 3432 
Q 1894 3584 2278 3584 
Q 2916 3584 3314 3078 
Q 3713 2572 3713 1747 
Q 3713 922 3314 415 
Q 2916 -91 2278 -91 
Q 1894 -91 1617 61 
Q 1341 213 1159 525 
L 1159 0 
L 581 0 
L 581 4863 
L 1159 4863 
L 1159 2969 
z
" transform="scale(0.015625)"/>
       <path id="DejaVuSans-63" d="M 3122 3366 
L 3122 2828 
Q 2878 2963 2633 3030 
Q 2388 3097 2138 3097 
Q 1578 3097 1268 2742 
Q 959 2388 959 1747 
Q 959 1106 1268 751 
Q 1578 397 2138 397 
Q 2388 397 2633 464 
Q 2878 531 3122 666 
L 3122 134 
Q 2881 22 2623 -34 
Q 2366 -91 2075 -91 
Q 1284 -91 818 406 
Q 353 903 353 1747 
Q 353 2603 823 3093 
Q 1294 3584 2113 3584 
Q 2378 3584 2631 3529 
Q 2884 3475 3122 3366 
z
" transform="scale(0.015625)"/>
      </defs>
      <use xlink:href="#DejaVuSans-6d"/>
      <use xlink:href="#DejaVuSans-65" transform="translate(97.412109 0)"/>
      <use xlink:href="#DejaVuSans-6d" transform="translate(158.935547 0)"/>
      <use xlink:href="#DejaVuSans-2d" transform="translate(256.347656 0)"/>
      <use xlink:href="#DejaVuSans-62" transform="translate(292.431641 0)"/>
      <use xlink:href="#DejaVuSans-61" transform="translate(355.908203 0)"/>
      <use xlink:href="#DejaVuSans-74" transform="translate(417.1875 0)"/>
      <use xlink:href="#DejaVuSans-63" transform="translate(456.396484 0)"/>
      <use xlink:href="#DejaVuSans-68" transform="translate(511.376953 0)"/>
     </g>
    </g>
    <g id="line2d_36">
     <path d="M 613.645 69.454688 
L 623.645 69.454688 
L 633.645 69.454688 
" style="fill: none; stroke: #ff7f0e; stroke-width: 1.8; stroke-linecap: square"/>
    </g>
    <g id="text_21">
     <!-- vanilla -->
     <g transform="translate(641.645 72.954688) scale(0.1 -0.1)">
      <defs>
       <path id="DejaVuSans-76" d="M 191 3500 
L 800 3500 
L 1894 563 
L 2988 3500 
L 3597 3500 
L 2284 0 
L 1503 0 
L 191 3500 
z
" transform="scale(0.015625)"/>
      </defs>
      <use xlink:href="#DejaVuSans-76"/>
      <use xlink:href="#DejaVuSans-61" transform="translate(59.179688 0)"/>
      <use xlink:href="#DejaVuSans-6e" transform="translate(120.458984 0)"/>
      <use xlink:href="#DejaVuSans-69" transform="translate(183.837891 0)"/>
      <use xlink:href="#DejaVuSans-6c" transform="translate(211.621094 0)"/>
      <use xlink:href="#DejaVuSans-6c" transform="translate(239.404297 0)"/>
      <use xlink:href="#DejaVuSans-61" transform="translate(267.1875 0)"/>
     </g>
    </g>
   </g>
  </g>
 </g>
 <defs>
  <clipPath id="pa0d7513273">
   <rect x="46.64" y="27" width="661.48" height="217.48"/>
  </clipPath>
 </defs>
</svg>
