<?xml version="1.0" encoding="utf-8" standalone="no"?>
<!DOCTYPE svg PUBLIC "-//W3C//DTD SVG 1.1//EN"
  "http://www.w3.org/Graphics/SVG/1.1/DTD/svg11.dtd">
<svg xmlns:xlink="http://www.w3.org/1999/xlink" width="720pt" height="288pt" viewBox="0 0 720 288" xmlns="http://www.w3.org/2000/svg" version="1.1">
 <metadata>
  <rdf:RDF xmlns:dc="http://purl.org/dc/elements/1.1/" xmlns:cc="http://creativecommons.org/ns#" xmlns:rdf="http://www.w3.org/1999/02/22-rdf-syntax-ns#">
   <cc:Work>
    <dc:type rdf:resource="http://purl.org/dc/dcmitype/StillImage"/>
    <dc:date>2025-09-10T11:05:34.421478</dc:date>
    <dc:format>image/svg+xml</dc:format>
    <dc:creator>
     <cc:Agent>
      <dc:title>Matplotlib v3.10.6, https://matplotlib.org/</dc:title>
     </cc:Agent>
    </dc:creator>
   </cc:Work>
  </rdf:RDF>
 </metadata>
 <defs>
  <style type="text/css">*{stroke-linejoin: round; stroke-linecap: butt}</style>
 </defs>
 <g id="figure_1">
  <g id="patch_1">
   <path d="M 0 288 
L 720 288 
L 720 0 
L 0 0 
z
" style="fill: #ffffff"/>
  </g>
  <g id="axes_1">
   <g id="patch_2">
    <path d="M 46.64 244.48 
L 708.12 244.48 
L 708.12 27 
L 46.64 27 
z
" style="fill: #ffffff"/>
   </g>
   <g id="FillBetweenPolyCollection_1">
    <defs>
     <path id="ma76c987d2e" d="M 76.707273 -59.323328 
L 76.707273 -55.713053 
L 76.731328 -55.89915 
L 76.755382 -55.545566 
L 76.779437 -55.489737 
L 76.803492 -55.787492 
L 76.827547 -55.359469 
L 76.851601 -54.075403 
L 76.875656 -54.391767 
L 76.899711 -54.596473 
L 76.923766 -55.88054 
L 76.947821 -56.085246 
L 76.971875 -54.875618 
L 76.99593 -54.168451 
L 77.019985 -54.76396 
L 77.04404 -54.522035 
L 77.068094 -53.405455 
L 77.092149 -54.280109 
L 77.116204 -56.215514 
L 77.140259 -54.708131 
L 77.164314 -54.968666 
L 77.188368 -56.513269 
L 77.212423 -56.327172 
L 77.236478 -55.061715 
L 77.260533 -54.559254 
L 77.284587 -55.396689 
L 77.308642 -57.145997 
L 77.332697 -55.731663 
L 77.356752 -55.396689 
L 77.380807 -55.452518 
L 77.404861 -54.894228 
L 77.428916 -55.582785 
L 77.452971 -55.526956 
L 77.477026 -54.522035 
L 77.50108 -55.824711 
L 77.525135 -55.378079 
L 77.54919 -54.726741 
L 77.573245 -55.191982 
L 77.5973 -55.154763 
L 77.621354 -56.010808 
L 77.645409 -55.936369 
L 77.669464 -56.141075 
L 77.693519 -54.689521 
L 77.717574 -54.801179 
L 77.741628 -55.564176 
L 77.765683 -55.787492 
L 77.789738 -57.034339 
L 77.813793 -55.620005 
L 77.837847 -55.768882 
L 77.861902 -55.750272 
L 77.885957 -56.43883 
L 77.934067 -55.731663 
L 77.982176 -55.731663 
L 78.030286 -56.345782 
L 78.078395 -56.141075 
L 78.126505 -55.750272 
L 78.174614 -55.694443 
L 78.222724 -57.01573 
L 78.270833 -56.662146 
L 78.318943 -57.034339 
L 78.367053 -57.052949 
L 78.415162 -56.643536 
L 78.463272 -55.247811 
L 78.511381 -58.225358 
L 78.559491 -56.289953 
L 78.6076 -58.206748 
L 78.65571 -58.65338 
L 78.703819 -58.746429 
L 78.751929 -58.504503 
L 78.800039 -58.374235 
L 78.848148 -57.220436 
L 78.896258 -56.569098 
L 78.944367 -57.964823 
L 78.992477 -57.387923 
L 79.040586 -56.624927 
L 79.088696 -56.252733 
L 79.20897 -57.183217 
L 79.329244 -57.108778 
L 79.449518 -56.866852 
L 79.569792 -56.178295 
L 79.690065 -56.904072 
L 79.810339 -57.127388 
L 79.930613 -56.122466 
L 80.050887 -56.755194 
L 80.171161 -56.662146 
L 80.291435 -58.969745 
L 80.411709 -59.472206 
L 80.531983 -59.472206 
L 80.652257 -59.639693 
L 80.772531 -58.578942 
L 80.892805 -59.621083 
L 81.013078 -59.658302 
L 81.133352 -59.937447 
L 81.253626 -59.639693 
L 81.3739 -60.309641 
L 81.494174 -59.80718 
L 81.734722 -59.174451 
L 81.97527 -58.616161 
L 82.215817 -59.341938 
L 82.456365 -59.76996 
L 82.696913 -60.216592 
L 88.710608 -61.351782 
L 94.724303 -63.566332 
L 100.737998 -64.403767 
L 124.792779 -69.335329 
L 148.847559 -78.267968 
L 172.902339 -80.538347 
L 196.95712 -81.971292 
L 221.0119 -100.022668 
L 245.066681 -100.357642 
L 269.121461 -102.628021 
L 293.176241 -103.949307 
L 317.231022 -106.294125 
L 377.367973 -145.188327 
L 437.504924 -148.538067 
L 497.641874 -151.14342 
L 557.778825 -155.405034 
L 678.052727 -240.748962 
L 678.052727 -251.114545 
L 678.052727 -251.114545 
L 557.778825 -160.987933 
L 497.641874 -157.712632 
L 437.504924 -155.814446 
L 377.367973 -156.70771 
L 317.231022 -111.932854 
L 293.176241 -108.78782 
L 269.121461 -109.867181 
L 245.066681 -107.913166 
L 221.0119 -105.065887 
L 196.95712 -86.902853 
L 172.902339 -84.799961 
L 148.847559 -81.617708 
L 124.792779 -72.517581 
L 100.737998 -68.460674 
L 94.724303 -67.418533 
L 88.710608 -64.459596 
L 82.696913 -62.170607 
L 82.456365 -62.449752 
L 82.215817 -62.840555 
L 81.97527 -62.338094 
L 81.734722 -61.407611 
L 81.494174 -61.947291 
L 81.3739 -62.989433 
L 81.253626 -63.212748 
L 81.133352 -63.268577 
L 81.013078 -62.821946 
L 80.892805 -63.324406 
L 80.772531 -63.063871 
L 80.652257 -64.23628 
L 80.531983 -62.970823 
L 80.411709 -63.752429 
L 80.291435 -61.984511 
L 80.171161 -61.668146 
L 80.050887 -62.02173 
L 79.930613 -60.830711 
L 79.810339 -61.742585 
L 79.690065 -60.719053 
L 79.569792 -60.998198 
L 79.449518 -60.849321 
L 79.329244 -61.314563 
L 79.20897 -60.663224 
L 79.088696 -61.295953 
L 79.040586 -59.956057 
L 78.992477 -60.90515 
L 78.944367 -63.045262 
L 78.896258 -61.147076 
L 78.848148 -61.072637 
L 78.800039 -62.970823 
L 78.751929 -62.933604 
L 78.703819 -63.082481 
L 78.65571 -61.872853 
L 78.6076 -62.486972 
L 78.559491 -61.054027 
L 78.511381 -61.742585 
L 78.463272 -60.197983 
L 78.415162 -60.607395 
L 78.367053 -61.705366 
L 78.318943 -59.006964 
L 78.270833 -59.974667 
L 78.222724 -61.221514 
L 78.174614 -60.235202 
L 78.126505 -60.588786 
L 78.078395 -62.989433 
L 78.030286 -59.509425 
L 77.982176 -59.993276 
L 77.934067 -59.434986 
L 77.885957 -61.519269 
L 77.861902 -60.942369 
L 77.837847 -58.09509 
L 77.813793 -59.304719 
L 77.789738 -59.956057 
L 77.765683 -61.109856 
L 77.741628 -59.081403 
L 77.717574 -58.169529 
L 77.693519 -60.88654 
L 77.669464 -59.676912 
L 77.645409 -59.397767 
L 77.621354 -58.225358 
L 77.5973 -58.150919 
L 77.573245 -59.732741 
L 77.54919 -59.323328 
L 77.525135 -59.825789 
L 77.50108 -60.700444 
L 77.477026 -58.467284 
L 77.452971 -63.67799 
L 77.428916 -59.341938 
L 77.404861 -57.741507 
L 77.380807 -58.988354 
L 77.356752 -61.46344 
L 77.332697 -60.104934 
L 77.308642 -60.272421 
L 77.284587 -61.016808 
L 77.260533 -58.802258 
L 77.236478 -59.044183 
L 77.212423 -60.104934 
L 77.188368 -58.876696 
L 77.164314 -59.695522 
L 77.140259 -58.281187 
L 77.116204 -60.458518 
L 77.092149 -58.13231 
L 77.068094 -58.597551 
L 77.04404 -57.313484 
L 77.019985 -59.006964 
L 76.99593 -58.206748 
L 76.971875 -58.523113 
L 76.947821 -59.155841 
L 76.923766 -58.839477 
L 76.899711 -59.844399 
L 76.875656 -59.937447 
L 76.851601 -58.951135 
L 76.827547 -58.783648 
L 76.803492 -60.253812 
L 76.779437 -59.528035 
L 76.755382 -58.765038 
L 76.731328 -59.472206 
L 76.707273 -59.323328 
z
" style="stroke: #1f77b4; stroke-opacity: 0.2"/>
    </defs>
    <g clip-path="url(#pf704deebad)">
     <use xlink:href="#ma76c987d2e" x="0" y="288" style="fill: #1f77b4; fill-opacity: 0.2; stroke: #1f77b4; stroke-opacity: 0.2"/>
    </g>
   </g>
   <g id="FillBetweenPolyCollection_2">
    <defs>
     <path id="me4ae79da07" d="M 76.707273 -67.474362 
L 76.707273 -56.029417 
L 76.731328 -55.452518 
L 76.755382 -55.657224 
L 76.779437 -55.34086 
L 76.803492 -55.89915 
L 76.827547 -55.750272 
L 76.851601 -56.271343 
L 76.875656 -55.787492 
L 76.899711 -55.713053 
L 76.923766 -55.936369 
L 76.947821 -55.787492 
L 76.971875 -55.657224 
L 76.99593 -55.713053 
L 77.019985 -56.141075 
L 77.04404 -55.694443 
L 77.068094 -55.89915 
L 77.092149 -55.88054 
L 77.116204 -55.86193 
L 77.140259 -55.88054 
L 77.164314 -55.675834 
L 77.188368 -56.085246 
L 77.212423 -56.289953 
L 77.236478 -56.029417 
L 77.260533 -55.954979 
L 77.284587 -56.066637 
L 77.308642 -56.141075 
L 77.332697 -56.066637 
L 77.356752 -56.308562 
L 77.380807 -56.383001 
L 77.404861 -56.345782 
L 77.428916 -56.271343 
L 77.452971 -56.43883 
L 77.477026 -56.345782 
L 77.50108 -56.42022 
L 77.525135 -55.992198 
L 77.54919 -56.289953 
L 77.573245 -56.048027 
L 77.5973 -56.383001 
L 77.621354 -55.973588 
L 77.645409 -56.066637 
L 77.669464 -56.103856 
L 77.693519 -56.234124 
L 77.717574 -56.141075 
L 77.741628 -56.159685 
L 77.765683 -56.234124 
L 77.789738 -56.010808 
L 77.813793 -56.289953 
L 77.837847 -56.196904 
L 77.861902 -56.345782 
L 77.885957 -56.215514 
L 77.934067 -56.364391 
L 77.982176 -56.141075 
L 78.030286 -55.973588 
L 78.078395 -56.271343 
L 78.126505 -56.234124 
L 78.174614 -56.159685 
L 78.222724 -56.43883 
L 78.270833 -56.531878 
L 78.318943 -56.45744 
L 78.367053 -56.643536 
L 78.415162 -56.42022 
L 78.463272 -56.643536 
L 78.511381 -56.308562 
L 78.559491 -56.494659 
L 78.6076 -56.494659 
L 78.65571 -56.42022 
L 78.703819 -56.624927 
L 78.751929 -56.624927 
L 78.800039 -57.127388 
L 78.848148 -56.42022 
L 78.896258 -56.43883 
L 78.944367 -56.196904 
L 78.992477 -56.43883 
L 79.040586 -56.45744 
L 79.088696 -56.755194 
L 79.20897 -56.569098 
L 79.329244 -56.531878 
L 79.449518 -56.569098 
L 79.569792 -56.587707 
L 79.690065 -56.717975 
L 79.810339 -56.736585 
L 79.930613 -56.531878 
L 80.050887 -56.550488 
L 80.171161 -56.531878 
L 80.291435 -56.922681 
L 80.411709 -56.922681 
L 80.531983 -56.866852 
L 80.652257 -56.085246 
L 80.772531 -56.773804 
L 80.892805 -56.904072 
L 81.013078 -56.866852 
L 81.133352 -56.383001 
L 81.253626 -56.773804 
L 81.3739 -56.680756 
L 81.494174 -56.717975 
L 81.734722 -56.97851 
L 81.97527 -57.164607 
L 82.215817 -56.941291 
L 82.456365 -56.773804 
L 82.696913 -56.97851 
L 88.710608 -57.797336 
L 94.724303 -58.281187 
L 100.737998 -59.379157 
L 124.792779 -61.44483 
L 148.847559 -65.836711 
L 172.902339 -65.669224 
L 196.95712 -66.022808 
L 221.0119 -76.072028 
L 245.066681 -77.002511 
L 269.121461 -77.225827 
L 293.176241 -77.877165 
L 317.231022 -78.398236 
L 377.367973 -94.960839 
L 437.504924 -96.356564 
L 497.641874 -98.385017 
L 557.778825 -100.543738 
L 678.052727 -140.033449 
L 678.052727 -155.684179 
L 678.052727 -155.684179 
L 557.778825 -109.718304 
L 497.641874 -108.359798 
L 437.504924 -104.172623 
L 377.367973 -104.637865 
L 317.231022 -85.767664 
L 293.176241 -82.734288 
L 269.121461 -83.013433 
L 245.066681 -81.636318 
L 221.0119 -79.961448 
L 196.95712 -69.577254 
L 172.902339 -72.070949 
L 148.847559 -69.205061 
L 124.792779 -66.48805 
L 100.737998 -63.343016 
L 94.724303 -61.054027 
L 88.710608 -60.36547 
L 82.696913 -61.48205 
L 82.456365 -59.76996 
L 82.215817 -59.565254 
L 81.97527 -59.76996 
L 81.734722 -59.751351 
L 81.494174 -61.686756 
L 81.3739 -60.626005 
L 81.253626 -61.240124 
L 81.133352 -60.774882 
L 81.013078 -59.453596 
L 80.892805 -60.551566 
L 80.772531 -60.663224 
L 80.652257 -61.277343 
L 80.531983 -60.92376 
L 80.411709 -60.309641 
L 80.291435 -59.341938 
L 80.171161 -60.104934 
L 80.050887 -58.765038 
L 79.930613 -59.006964 
L 79.810339 -60.90515 
L 79.690065 -59.025574 
L 79.569792 -60.123544 
L 79.449518 -58.765038 
L 79.329244 -60.793492 
L 79.20897 -59.881618 
L 79.088696 -60.142154 
L 79.040586 -60.551566 
L 78.992477 -60.235202 
L 78.944367 -60.272421 
L 78.896258 -59.24889 
L 78.848148 -59.472206 
L 78.800039 -60.588786 
L 78.751929 -60.514347 
L 78.703819 -58.895306 
L 78.65571 -60.235202 
L 78.6076 -60.477128 
L 78.559491 -60.235202 
L 78.511381 -60.626005 
L 78.463272 -60.272421 
L 78.415162 -57.55541 
L 78.367053 -60.867931 
L 78.318943 -60.849321 
L 78.270833 -60.235202 
L 78.222724 -59.23028 
L 78.174614 -59.025574 
L 78.126505 -59.286109 
L 78.078395 -59.397767 
L 78.030286 -57.704287 
L 77.982176 -59.695522 
L 77.934067 -58.616161 
L 77.885957 -59.137232 
L 77.861902 -58.67199 
L 77.837847 -59.732741 
L 77.813793 -59.583864 
L 77.789738 -59.76996 
L 77.765683 -60.402689 
L 77.741628 -58.951135 
L 77.717574 -59.956057 
L 77.693519 -59.193061 
L 77.669464 -59.76996 
L 77.645409 -60.607395 
L 77.621354 -59.974667 
L 77.5973 -59.714131 
L 77.573245 -59.267499 
L 77.54919 -58.392845 
L 77.525135 -59.974667 
L 77.50108 -58.560332 
L 77.477026 -58.839477 
L 77.452971 -59.434986 
L 77.428916 -59.78857 
L 77.404861 -59.583864 
L 77.380807 -60.086325 
L 77.356752 -58.876696 
L 77.332697 -58.504503 
L 77.308642 -59.434986 
L 77.284587 -58.374235 
L 77.260533 -59.900228 
L 77.236478 -58.504503 
L 77.212423 -60.216592 
L 77.188368 -59.639693 
L 77.164314 -58.820867 
L 77.140259 -57.834555 
L 77.116204 -60.142154 
L 77.092149 -59.23028 
L 77.068094 -60.514347 
L 77.04404 -59.658302 
L 77.019985 -59.751351 
L 76.99593 -58.783648 
L 76.971875 -59.844399 
L 76.947821 -59.583864 
L 76.923766 -59.714131 
L 76.899711 -58.411455 
L 76.875656 -58.913916 
L 76.851601 -59.397767 
L 76.827547 -57.853165 
L 76.803492 -58.988354 
L 76.779437 -59.379157 
L 76.755382 -59.918838 
L 76.731328 -59.732741 
L 76.707273 -67.474362 
z
" style="stroke: #2ca02c; stroke-opacity: 0.2"/>
    </defs>
    <g clip-path="url(#pf704deebad)">
     <use xlink:href="#me4ae79da07" x="0" y="288" style="fill: #2ca02c; fill-opacity: 0.2; stroke: #2ca02c; stroke-opacity: 0.2"/>
    </g>
   </g>
   <g id="FillBetweenPolyCollection_3">
    <defs>
     <path id="m855331404e" d="M 76.707273 -67.02773 
L 76.707273 -57.815945 
L 76.731328 -58.039261 
L 76.755382 -57.927603 
L 76.779437 -58.039261 
L 76.803492 -58.150919 
L 76.827547 -57.741507 
L 76.851601 -58.188139 
L 76.875656 -58.1137 
L 76.899711 -57.815945 
L 76.923766 -58.057871 
L 76.947821 -57.387923 
L 76.971875 -57.443752 
L 76.99593 -57.908994 
L 77.019985 -58.374235 
L 77.04404 -58.467284 
L 77.068094 -58.430064 
L 77.092149 -56.922681 
L 77.116204 -58.578942 
L 77.140259 -57.927603 
L 77.164314 -57.406533 
L 77.188368 -56.699365 
L 77.212423 -57.01573 
L 77.236478 -57.034339 
L 77.260533 -58.597551 
L 77.284587 -57.183217 
L 77.308642 -58.634771 
L 77.332697 -58.67199 
L 77.356752 -58.802258 
L 77.380807 -58.634771 
L 77.404861 -58.969745 
L 77.428916 -58.951135 
L 77.452971 -59.434986 
L 77.477026 -58.485893 
L 77.50108 -59.267499 
L 77.525135 -59.341938 
L 77.54919 -59.956057 
L 77.573245 -59.76996 
L 77.5973 -58.913916 
L 77.621354 -59.118622 
L 77.645409 -58.709209 
L 77.669464 -59.341938 
L 77.693519 -59.081403 
L 77.717574 -59.379157 
L 77.741628 -59.304719 
L 77.765683 -58.727819 
L 77.789738 -59.360548 
L 77.813793 -58.951135 
L 77.837847 -58.820867 
L 77.861902 -57.927603 
L 77.885957 -58.076481 
L 77.934067 -58.243968 
L 77.982176 -58.039261 
L 78.030286 -58.225358 
L 78.078395 -59.193061 
L 78.126505 -58.783648 
L 78.174614 -58.411455 
L 78.222724 -58.448674 
L 78.270833 -58.839477 
L 78.318943 -58.951135 
L 78.367053 -58.67199 
L 78.415162 -58.969745 
L 78.463272 -58.65338 
L 78.511381 -59.006964 
L 78.559491 -59.23028 
L 78.6076 -59.453596 
L 78.65571 -59.286109 
L 78.703819 -58.485893 
L 78.751929 -58.858087 
L 78.800039 -57.778726 
L 78.848148 -58.411455 
L 78.896258 -58.802258 
L 78.944367 -57.704287 
L 78.992477 -58.281187 
L 79.040586 -58.020652 
L 79.088696 -58.65338 
L 79.20897 -58.1137 
L 79.329244 -59.21167 
L 79.449518 -59.137232 
L 79.569792 -58.820867 
L 79.690065 -58.299797 
L 79.810339 -58.783648 
L 79.930613 -58.913916 
L 80.050887 -59.21167 
L 80.171161 -58.988354 
L 80.291435 -58.876696 
L 80.411709 -59.062793 
L 80.531983 -59.751351 
L 80.652257 -60.719053 
L 80.772531 -60.719053 
L 80.892805 -60.756273 
L 81.013078 -60.663224 
L 81.133352 -61.109856 
L 81.253626 -60.700444 
L 81.3739 -60.216592 
L 81.494174 -60.402689 
L 81.734722 -60.495737 
L 81.97527 -60.272421 
L 82.215817 -61.035418 
L 82.456365 -60.88654 
L 82.696913 -59.453596 
L 88.710608 -58.932525 
L 94.724303 -60.123544 
L 100.737998 -59.509425 
L 124.792779 -62.691678 
L 148.847559 -67.660459 
L 172.902339 -67.176607 
L 196.95712 -67.306875 
L 221.0119 -75.997589 
L 245.066681 -76.667537 
L 269.121461 -76.704756 
L 293.176241 -77.467753 
L 317.231022 -79.924229 
L 377.367973 -96.952073 
L 437.504924 -98.161701 
L 497.641874 -100.394861 
L 557.778825 -100.785664 
L 678.052727 -142.80629 
L 678.052727 -155.479472 
L 678.052727 -155.479472 
L 557.778825 -113.551895 
L 497.641874 -110.630177 
L 437.504924 -109.699694 
L 377.367973 -108.117872 
L 317.231022 -86.363173 
L 293.176241 -84.2975 
L 269.121461 -82.455143 
L 245.066681 -79.068184 
L 221.0119 -82.101559 
L 196.95712 -71.51266 
L 172.902339 -70.116935 
L 148.847559 -71.456831 
L 124.792779 -65.985589 
L 100.737998 -64.050183 
L 94.724303 -63.6966 
L 88.710608 -62.542801 
L 82.696913 -64.273499 
L 82.456365 -63.994354 
L 82.215817 -64.738741 
L 81.97527 -64.534035 
L 81.734722 -64.106012 
L 81.494174 -64.050183 
L 81.3739 -66.860243 
L 81.253626 -64.534035 
L 81.133352 -62.877775 
L 81.013078 -65.89254 
L 80.892805 -63.008042 
L 80.772531 -63.938525 
L 80.652257 -64.25489 
L 80.531983 -61.965901 
L 80.411709 -63.343016 
L 80.291435 -61.779804 
L 80.171161 -62.226436 
L 80.050887 -63.1197 
L 79.930613 -64.459596 
L 79.810339 -62.933604 
L 79.690065 -62.300875 
L 79.569792 -62.468362 
L 79.449518 -62.914994 
L 79.329244 -63.1197 
L 79.20897 -62.710288 
L 79.088696 -62.04034 
L 79.040586 -62.226436 
L 78.992477 -63.957135 
L 78.944367 -61.128466 
L 78.896258 -61.46344 
L 78.848148 -61.072637 
L 78.800039 -60.960979 
L 78.751929 -62.673068 
L 78.703819 -61.035418 
L 78.65571 -62.710288 
L 78.6076 -61.910072 
L 78.559491 -62.412533 
L 78.511381 -62.133388 
L 78.463272 -64.012964 
L 78.415162 -61.668146 
L 78.367053 -62.431143 
L 78.318943 -63.6966 
L 78.270833 -61.407611 
L 78.222724 -61.407611 
L 78.174614 -61.817024 
L 78.126505 -62.617239 
L 78.078395 -63.380235 
L 78.030286 -62.300875 
L 77.982176 -60.700444 
L 77.934067 -62.412533 
L 77.885957 -60.551566 
L 77.861902 -61.686756 
L 77.837847 -61.370392 
L 77.813793 -61.556488 
L 77.789738 -63.249968 
L 77.765683 -61.277343 
L 77.741628 -62.207827 
L 77.717574 -62.728897 
L 77.693519 -60.92376 
L 77.669464 -62.58002 
L 77.645409 -62.189217 
L 77.621354 -61.389001 
L 77.5973 -62.077559 
L 77.573245 -63.771038 
L 77.54919 -62.189217 
L 77.525135 -61.46344 
L 77.50108 -62.058949 
L 77.477026 -62.617239 
L 77.452971 -63.919916 
L 77.428916 -61.910072 
L 77.404861 -62.338094 
L 77.380807 -64.422377 
L 77.356752 -60.998198 
L 77.332697 -62.617239 
L 77.308642 -62.189217 
L 77.284587 -62.170607 
L 77.260533 -61.779804 
L 77.236478 -61.44483 
L 77.212423 -61.630927 
L 77.188368 -61.891462 
L 77.164314 -62.263656 
L 77.140259 -62.58002 
L 77.116204 -63.65938 
L 77.092149 -62.207827 
L 77.068094 -63.008042 
L 77.04404 -61.091247 
L 77.019985 -60.235202 
L 76.99593 -61.295953 
L 76.971875 -61.817024 
L 76.947821 -62.04034 
L 76.923766 -59.732741 
L 76.899711 -61.221514 
L 76.875656 -61.519269 
L 76.851601 -61.779804 
L 76.827547 -61.109856 
L 76.803492 -61.128466 
L 76.779437 -59.100012 
L 76.755382 -61.705366 
L 76.731328 -61.072637 
L 76.707273 -67.02773 
z
" style="stroke: #ff7f0e; stroke-opacity: 0.2"/>
    </defs>
    <g clip-path="url(#pf704deebad)">
     <use xlink:href="#m855331404e" x="0" y="288" style="fill: #ff7f0e; fill-opacity: 0.2; stroke: #ff7f0e; stroke-opacity: 0.2"/>
    </g>
   </g>
   <g id="matplotlib.axis_1">
    <g id="xtick_1">
     <g id="line2d_1">
      <path d="M 76.683218 244.48 
L 76.683218 27 
" clip-path="url(#pf704deebad)" style="fill: none; stroke: #b0b0b0; stroke-opacity: 0.25; stroke-width: 0.8; stroke-linecap: square"/>
     </g>
     <g id="line2d_2">
      <defs>
       <path id="m0e6ce5f27b" d="M 0 0 
L 0 3.5 
" style="stroke: #000000; stroke-width: 0.8"/>
      </defs>
      <g>
       <use xlink:href="#m0e6ce5f27b" x="76.683218" y="244.48" style="stroke: #000000; stroke-width: 0.8"/>
      </g>
     </g>
     <g id="text_1">
      <!-- 0 -->
      <g transform="translate(73.501968 259.078438) scale(0.1 -0.1)">
       <defs>
        <path id="DejaVuSans-30" d="M 2034 4250 
Q 1547 4250 1301 3770 
Q 1056 3291 1056 2328 
Q 1056 1369 1301 889 
Q 1547 409 2034 409 
Q 2525 409 2770 889 
Q 3016 1369 3016 2328 
Q 3016 3291 2770 3770 
Q 2525 4250 2034 4250 
z
M 2034 4750 
Q 2819 4750 3233 4129 
Q 3647 3509 3647 2328 
Q 3647 1150 3233 529 
Q 2819 -91 2034 -91 
Q 1250 -91 836 529 
Q 422 1150 422 2328 
Q 422 3509 836 4129 
Q 1250 4750 2034 4750 
z
" transform="scale(0.015625)"/>
       </defs>
       <use xlink:href="#DejaVuSans-30"/>
      </g>
     </g>
    </g>
    <g id="xtick_2">
     <g id="line2d_3">
      <path d="M 196.95712 244.48 
L 196.95712 27 
" clip-path="url(#pf704deebad)" style="fill: none; stroke: #b0b0b0; stroke-opacity: 0.25; stroke-width: 0.8; stroke-linecap: square"/>
     </g>
     <g id="line2d_4">
      <g>
       <use xlink:href="#m0e6ce5f27b" x="196.95712" y="244.48" style="stroke: #000000; stroke-width: 0.8"/>
      </g>
     </g>
     <g id="text_2">
      <!-- 5000 -->
      <g transform="translate(184.23212 259.078438) scale(0.1 -0.1)">
       <defs>
        <path id="DejaVuSans-35" d="M 691 4666 
L 3169 4666 
L 3169 4134 
L 1269 4134 
L 1269 2991 
Q 1406 3038 1543 3061 
Q 1681 3084 1819 3084 
Q 2600 3084 3056 2656 
Q 3513 2228 3513 1497 
Q 3513 744 3044 326 
Q 2575 -91 1722 -91 
Q 1428 -91 1123 -41 
Q 819 9 494 109 
L 494 744 
Q 775 591 1075 516 
Q 1375 441 1709 441 
Q 2250 441 2565 725 
Q 2881 1009 2881 1497 
Q 2881 1984 2565 2268 
Q 2250 2553 1709 2553 
Q 1456 2553 1204 2497 
Q 953 2441 691 2322 
L 691 4666 
z
" transform="scale(0.015625)"/>
       </defs>
       <use xlink:href="#DejaVuSans-35"/>
       <use xlink:href="#DejaVuSans-30" transform="translate(63.623047 0)"/>
       <use xlink:href="#DejaVuSans-30" transform="translate(127.246094 0)"/>
       <use xlink:href="#DejaVuSans-30" transform="translate(190.869141 0)"/>
      </g>
     </g>
    </g>
    <g id="xtick_3">
     <g id="line2d_5">
      <path d="M 317.231022 244.48 
L 317.231022 27 
" clip-path="url(#pf704deebad)" style="fill: none; stroke: #b0b0b0; stroke-opacity: 0.25; stroke-width: 0.8; stroke-linecap: square"/>
     </g>
     <g id="line2d_6">
      <g>
       <use xlink:href="#m0e6ce5f27b" x="317.231022" y="244.48" style="stroke: #000000; stroke-width: 0.8"/>
      </g>
     </g>
     <g id="text_3">
      <!-- 10000 -->
      <g transform="translate(301.324772 259.078438) scale(0.1 -0.1)">
       <defs>
        <path id="DejaVuSans-31" d="M 794 531 
L 1825 531 
L 1825 4091 
L 703 3866 
L 703 4441 
L 1819 4666 
L 2450 4666 
L 2450 531 
L 3481 531 
L 3481 0 
L 794 0 
L 794 531 
z
" transform="scale(0.015625)"/>
       </defs>
       <use xlink:href="#DejaVuSans-31"/>
       <use xlink:href="#DejaVuSans-30" transform="translate(63.623047 0)"/>
       <use xlink:href="#DejaVuSans-30" transform="translate(127.246094 0)"/>
       <use xlink:href="#DejaVuSans-30" transform="translate(190.869141 0)"/>
       <use xlink:href="#DejaVuSans-30" transform="translate(254.492188 0)"/>
      </g>
     </g>
    </g>
    <g id="xtick_4">
     <g id="line2d_7">
      <path d="M 437.504924 244.48 
L 437.504924 27 
" clip-path="url(#pf704deebad)" style="fill: none; stroke: #b0b0b0; stroke-opacity: 0.25; stroke-width: 0.8; stroke-linecap: square"/>
     </g>
     <g id="line2d_8">
      <g>
       <use xlink:href="#m0e6ce5f27b" x="437.504924" y="244.48" style="stroke: #000000; stroke-width: 0.8"/>
      </g>
     </g>
     <g id="text_4">
      <!-- 15000 -->
      <g transform="translate(421.598674 259.078438) scale(0.1 -0.1)">
       <use xlink:href="#DejaVuSans-31"/>
       <use xlink:href="#DejaVuSans-35" transform="translate(63.623047 0)"/>
       <use xlink:href="#DejaVuSans-30" transform="translate(127.246094 0)"/>
       <use xlink:href="#DejaVuSans-30" transform="translate(190.869141 0)"/>
       <use xlink:href="#DejaVuSans-30" transform="translate(254.492188 0)"/>
      </g>
     </g>
    </g>
    <g id="xtick_5">
     <g id="line2d_9">
      <path d="M 557.778825 244.48 
L 557.778825 27 
" clip-path="url(#pf704deebad)" style="fill: none; stroke: #b0b0b0; stroke-opacity: 0.25; stroke-width: 0.8; stroke-linecap: square"/>
     </g>
     <g id="line2d_10">
      <g>
       <use xlink:href="#m0e6ce5f27b" x="557.778825" y="244.48" style="stroke: #000000; stroke-width: 0.8"/>
      </g>
     </g>
     <g id="text_5">
      <!-- 20000 -->
      <g transform="translate(541.872575 259.078438) scale(0.1 -0.1)">
       <defs>
        <path id="DejaVuSans-32" d="M 1228 531 
L 3431 531 
L 3431 0 
L 469 0 
L 469 531 
Q 828 903 1448 1529 
Q 2069 2156 2228 2338 
Q 2531 2678 2651 2914 
Q 2772 3150 2772 3378 
Q 2772 3750 2511 3984 
Q 2250 4219 1831 4219 
Q 1534 4219 1204 4116 
Q 875 4013 500 3803 
L 500 4441 
Q 881 4594 1212 4672 
Q 1544 4750 1819 4750 
Q 2544 4750 2975 4387 
Q 3406 4025 3406 3419 
Q 3406 3131 3298 2873 
Q 3191 2616 2906 2266 
Q 2828 2175 2409 1742 
Q 1991 1309 1228 531 
z
" transform="scale(0.015625)"/>
       </defs>
       <use xlink:href="#DejaVuSans-32"/>
       <use xlink:href="#DejaVuSans-30" transform="translate(63.623047 0)"/>
       <use xlink:href="#DejaVuSans-30" transform="translate(127.246094 0)"/>
       <use xlink:href="#DejaVuSans-30" transform="translate(190.869141 0)"/>
       <use xlink:href="#DejaVuSans-30" transform="translate(254.492188 0)"/>
      </g>
     </g>
    </g>
    <g id="xtick_6">
     <g id="line2d_11">
      <path d="M 678.052727 244.48 
L 678.052727 27 
" clip-path="url(#pf704deebad)" style="fill: none; stroke: #b0b0b0; stroke-opacity: 0.25; stroke-width: 0.8; stroke-linecap: square"/>
     </g>
     <g id="line2d_12">
      <g>
       <use xlink:href="#m0e6ce5f27b" x="678.052727" y="244.48" style="stroke: #000000; stroke-width: 0.8"/>
      </g>
     </g>
     <g id="text_6">
      <!-- 25000 -->
      <g transform="translate(662.146477 259.078438) scale(0.1 -0.1)">
       <use xlink:href="#DejaVuSans-32"/>
       <use xlink:href="#DejaVuSans-35" transform="translate(63.623047 0)"/>
       <use xlink:href="#DejaVuSans-30" transform="translate(127.246094 0)"/>
       <use xlink:href="#DejaVuSans-30" transform="translate(190.869141 0)"/>
       <use xlink:href="#DejaVuSans-30" transform="translate(254.492188 0)"/>
      </g>
     </g>
    </g>
    <g id="text_7">
     <!-- Input -->
     <g transform="translate(363.138438 273.516406) scale(0.11 -0.11)">
      <defs>
       <path id="DejaVuSans-49" d="M 628 4666 
L 1259 4666 
L 1259 0 
L 628 0 
L 628 4666 
z
" transform="scale(0.015625)"/>
       <path id="DejaVuSans-6e" d="M 3513 2113 
L 3513 0 
L 2938 0 
L 2938 2094 
Q 2938 2591 2744 2837 
Q 2550 3084 2163 3084 
Q 1697 3084 1428 2787 
Q 1159 2491 1159 1978 
L 1159 0 
L 581 0 
L 581 3500 
L 1159 3500 
L 1159 2956 
Q 1366 3272 1645 3428 
Q 1925 3584 2291 3584 
Q 2894 3584 3203 3211 
Q 3513 2838 3513 2113 
z
" transform="scale(0.015625)"/>
       <path id="DejaVuSans-70" d="M 1159 525 
L 1159 -1331 
L 581 -1331 
L 581 3500 
L 1159 3500 
L 1159 2969 
Q 1341 3281 1617 3432 
Q 1894 3584 2278 3584 
Q 2916 3584 3314 3078 
Q 3713 2572 3713 1747 
Q 3713 922 3314 415 
Q 2916 -91 2278 -91 
Q 1894 -91 1617 61 
Q 1341 213 1159 525 
z
M 3116 1747 
Q 3116 2381 2855 2742 
Q 2594 3103 2138 3103 
Q 1681 3103 1420 2742 
Q 1159 2381 1159 1747 
Q 1159 1113 1420 752 
Q 1681 391 2138 391 
Q 2594 391 2855 752 
Q 3116 1113 3116 1747 
z
" transform="scale(0.015625)"/>
       <path id="DejaVuSans-75" d="M 544 1381 
L 544 3500 
L 1119 3500 
L 1119 1403 
Q 1119 906 1312 657 
Q 1506 409 1894 409 
Q 2359 409 2629 706 
Q 2900 1003 2900 1516 
L 2900 3500 
L 3475 3500 
L 3475 0 
L 2900 0 
L 2900 538 
Q 2691 219 2414 64 
Q 2138 -91 1772 -91 
Q 1169 -91 856 284 
Q 544 659 544 1381 
z
M 1991 3584 
L 1991 3584 
z
" transform="scale(0.015625)"/>
       <path id="DejaVuSans-74" d="M 1172 4494 
L 1172 3500 
L 2356 3500 
L 2356 3053 
L 1172 3053 
L 1172 1153 
Q 1172 725 1289 603 
Q 1406 481 1766 481 
L 2356 481 
L 2356 0 
L 1766 0 
Q 1100 0 847 248 
Q 594 497 594 1153 
L 594 3053 
L 172 3053 
L 172 3500 
L 594 3500 
L 594 4494 
L 1172 4494 
z
" transform="scale(0.015625)"/>
      </defs>
      <use xlink:href="#DejaVuSans-49"/>
      <use xlink:href="#DejaVuSans-6e" transform="translate(29.492188 0)"/>
      <use xlink:href="#DejaVuSans-70" transform="translate(92.871094 0)"/>
      <use xlink:href="#DejaVuSans-75" transform="translate(156.347656 0)"/>
      <use xlink:href="#DejaVuSans-74" transform="translate(219.726562 0)"/>
     </g>
    </g>
   </g>
   <g id="matplotlib.axis_2">
    <g id="ytick_1">
     <g id="line2d_13">
      <path d="M 46.64 222.535482 
L 708.12 222.535482 
" clip-path="url(#pf704deebad)" style="fill: none; stroke: #b0b0b0; stroke-opacity: 0.25; stroke-width: 0.8; stroke-linecap: square"/>
     </g>
     <g id="line2d_14">
      <defs>
       <path id="maeb650034c" d="M 0 0 
L -3.5 0 
" style="stroke: #000000; stroke-width: 0.8"/>
      </defs>
      <g>
       <use xlink:href="#maeb650034c" x="46.64" y="222.535482" style="stroke: #000000; stroke-width: 0.8"/>
      </g>
     </g>
     <g id="text_8">
      <!-- 4 -->
      <g transform="translate(33.2775 226.334701) scale(0.1 -0.1)">
       <defs>
        <path id="DejaVuSans-34" d="M 2419 4116 
L 825 1625 
L 2419 1625 
L 2419 4116 
z
M 2253 4666 
L 3047 4666 
L 3047 1625 
L 3713 1625 
L 3713 1100 
L 3047 1100 
L 3047 0 
L 2419 0 
L 2419 1100 
L 313 1100 
L 313 1709 
L 2253 4666 
z
" transform="scale(0.015625)"/>
       </defs>
       <use xlink:href="#DejaVuSans-34"/>
      </g>
     </g>
    </g>
    <g id="ytick_2">
     <g id="line2d_15">
      <path d="M 46.64 185.31615 
L 708.12 185.31615 
" clip-path="url(#pf704deebad)" style="fill: none; stroke: #b0b0b0; stroke-opacity: 0.25; stroke-width: 0.8; stroke-linecap: square"/>
     </g>
     <g id="line2d_16">
      <g>
       <use xlink:href="#maeb650034c" x="46.64" y="185.31615" style="stroke: #000000; stroke-width: 0.8"/>
      </g>
     </g>
     <g id="text_9">
      <!-- 6 -->
      <g transform="translate(33.2775 189.115369) scale(0.1 -0.1)">
       <defs>
        <path id="DejaVuSans-36" d="M 2113 2584 
Q 1688 2584 1439 2293 
Q 1191 2003 1191 1497 
Q 1191 994 1439 701 
Q 1688 409 2113 409 
Q 2538 409 2786 701 
Q 3034 994 3034 1497 
Q 3034 2003 2786 2293 
Q 2538 2584 2113 2584 
z
M 3366 4563 
L 3366 3988 
Q 3128 4100 2886 4159 
Q 2644 4219 2406 4219 
Q 1781 4219 1451 3797 
Q 1122 3375 1075 2522 
Q 1259 2794 1537 2939 
Q 1816 3084 2150 3084 
Q 2853 3084 3261 2657 
Q 3669 2231 3669 1497 
Q 3669 778 3244 343 
Q 2819 -91 2113 -91 
Q 1303 -91 875 529 
Q 447 1150 447 2328 
Q 447 3434 972 4092 
Q 1497 4750 2381 4750 
Q 2619 4750 2861 4703 
Q 3103 4656 3366 4563 
z
" transform="scale(0.015625)"/>
       </defs>
       <use xlink:href="#DejaVuSans-36"/>
      </g>
     </g>
    </g>
    <g id="ytick_3">
     <g id="line2d_17">
      <path d="M 46.64 148.096818 
L 708.12 148.096818 
" clip-path="url(#pf704deebad)" style="fill: none; stroke: #b0b0b0; stroke-opacity: 0.25; stroke-width: 0.8; stroke-linecap: square"/>
     </g>
     <g id="line2d_18">
      <g>
       <use xlink:href="#maeb650034c" x="46.64" y="148.096818" style="stroke: #000000; stroke-width: 0.8"/>
      </g>
     </g>
     <g id="text_10">
      <!-- 8 -->
      <g transform="translate(33.2775 151.896037) scale(0.1 -0.1)">
       <defs>
        <path id="DejaVuSans-38" d="M 2034 2216 
Q 1584 2216 1326 1975 
Q 1069 1734 1069 1313 
Q 1069 891 1326 650 
Q 1584 409 2034 409 
Q 2484 409 2743 651 
Q 3003 894 3003 1313 
Q 3003 1734 2745 1975 
Q 2488 2216 2034 2216 
z
M 1403 2484 
Q 997 2584 770 2862 
Q 544 3141 544 3541 
Q 544 4100 942 4425 
Q 1341 4750 2034 4750 
Q 2731 4750 3128 4425 
Q 3525 4100 3525 3541 
Q 3525 3141 3298 2862 
Q 3072 2584 2669 2484 
Q 3125 2378 3379 2068 
Q 3634 1759 3634 1313 
Q 3634 634 3220 271 
Q 2806 -91 2034 -91 
Q 1263 -91 848 271 
Q 434 634 434 1313 
Q 434 1759 690 2068 
Q 947 2378 1403 2484 
z
M 1172 3481 
Q 1172 3119 1398 2916 
Q 1625 2713 2034 2713 
Q 2441 2713 2670 2916 
Q 2900 3119 2900 3481 
Q 2900 3844 2670 4047 
Q 2441 4250 2034 4250 
Q 1625 4250 1398 4047 
Q 1172 3844 1172 3481 
z
" transform="scale(0.015625)"/>
       </defs>
       <use xlink:href="#DejaVuSans-38"/>
      </g>
     </g>
    </g>
    <g id="ytick_4">
     <g id="line2d_19">
      <path d="M 46.64 110.877486 
L 708.12 110.877486 
" clip-path="url(#pf704deebad)" style="fill: none; stroke: #b0b0b0; stroke-opacity: 0.25; stroke-width: 0.8; stroke-linecap: square"/>
     </g>
     <g id="line2d_20">
      <g>
       <use xlink:href="#maeb650034c" x="46.64" y="110.877486" style="stroke: #000000; stroke-width: 0.8"/>
      </g>
     </g>
     <g id="text_11">
      <!-- 10 -->
      <g transform="translate(26.915 114.676705) scale(0.1 -0.1)">
       <use xlink:href="#DejaVuSans-31"/>
       <use xlink:href="#DejaVuSans-30" transform="translate(63.623047 0)"/>
      </g>
     </g>
    </g>
    <g id="ytick_5">
     <g id="line2d_21">
      <path d="M 46.64 73.658154 
L 708.12 73.658154 
" clip-path="url(#pf704deebad)" style="fill: none; stroke: #b0b0b0; stroke-opacity: 0.25; stroke-width: 0.8; stroke-linecap: square"/>
     </g>
     <g id="line2d_22">
      <g>
       <use xlink:href="#maeb650034c" x="46.64" y="73.658154" style="stroke: #000000; stroke-width: 0.8"/>
      </g>
     </g>
     <g id="text_12">
      <!-- 12 -->
      <g transform="translate(26.915 77.457373) scale(0.1 -0.1)">
       <use xlink:href="#DejaVuSans-31"/>
       <use xlink:href="#DejaVuSans-32" transform="translate(63.623047 0)"/>
      </g>
     </g>
    </g>
    <g id="ytick_6">
     <g id="line2d_23">
      <path d="M 46.64 36.438823 
L 708.12 36.438823 
" clip-path="url(#pf704deebad)" style="fill: none; stroke: #b0b0b0; stroke-opacity: 0.25; stroke-width: 0.8; stroke-linecap: square"/>
     </g>
     <g id="line2d_24">
      <g>
       <use xlink:href="#maeb650034c" x="46.64" y="36.438823" style="stroke: #000000; stroke-width: 0.8"/>
      </g>
     </g>
     <g id="text_13">
      <!-- 14 -->
      <g transform="translate(26.915 40.238041) scale(0.1 -0.1)">
       <use xlink:href="#DejaVuSans-31"/>
       <use xlink:href="#DejaVuSans-34" transform="translate(63.623047 0)"/>
      </g>
     </g>
    </g>
    <g id="text_14">
     <!-- Time (s) -->
     <g transform="translate(20.627344 158.101797) rotate(-90) scale(0.11 -0.11)">
      <defs>
       <path id="DejaVuSans-54" d="M -19 4666 
L 3928 4666 
L 3928 4134 
L 2272 4134 
L 2272 0 
L 1638 0 
L 1638 4134 
L -19 4134 
L -19 4666 
z
" transform="scale(0.015625)"/>
       <path id="DejaVuSans-69" d="M 603 3500 
L 1178 3500 
L 1178 0 
L 603 0 
L 603 3500 
z
M 603 4863 
L 1178 4863 
L 1178 4134 
L 603 4134 
L 603 4863 
z
" transform="scale(0.015625)"/>
       <path id="DejaVuSans-6d" d="M 3328 2828 
Q 3544 3216 3844 3400 
Q 4144 3584 4550 3584 
Q 5097 3584 5394 3201 
Q 5691 2819 5691 2113 
L 5691 0 
L 5113 0 
L 5113 2094 
Q 5113 2597 4934 2840 
Q 4756 3084 4391 3084 
Q 3944 3084 3684 2787 
Q 3425 2491 3425 1978 
L 3425 0 
L 2847 0 
L 2847 2094 
Q 2847 2600 2669 2842 
Q 2491 3084 2119 3084 
Q 1678 3084 1418 2786 
Q 1159 2488 1159 1978 
L 1159 0 
L 581 0 
L 581 3500 
L 1159 3500 
L 1159 2956 
Q 1356 3278 1631 3431 
Q 1906 3584 2284 3584 
Q 2666 3584 2933 3390 
Q 3200 3197 3328 2828 
z
" transform="scale(0.015625)"/>
       <path id="DejaVuSans-65" d="M 3597 1894 
L 3597 1613 
L 953 1613 
Q 991 1019 1311 708 
Q 1631 397 2203 397 
Q 2534 397 2845 478 
Q 3156 559 3463 722 
L 3463 178 
Q 3153 47 2828 -22 
Q 2503 -91 2169 -91 
Q 1331 -91 842 396 
Q 353 884 353 1716 
Q 353 2575 817 3079 
Q 1281 3584 2069 3584 
Q 2775 3584 3186 3129 
Q 3597 2675 3597 1894 
z
M 3022 2063 
Q 3016 2534 2758 2815 
Q 2500 3097 2075 3097 
Q 1594 3097 1305 2825 
Q 1016 2553 972 2059 
L 3022 2063 
z
" transform="scale(0.015625)"/>
       <path id="DejaVuSans-20" transform="scale(0.015625)"/>
       <path id="DejaVuSans-28" d="M 1984 4856 
Q 1566 4138 1362 3434 
Q 1159 2731 1159 2009 
Q 1159 1288 1364 580 
Q 1569 -128 1984 -844 
L 1484 -844 
Q 1016 -109 783 600 
Q 550 1309 550 2009 
Q 550 2706 781 3412 
Q 1013 4119 1484 4856 
L 1984 4856 
z
" transform="scale(0.015625)"/>
       <path id="DejaVuSans-73" d="M 2834 3397 
L 2834 2853 
Q 2591 2978 2328 3040 
Q 2066 3103 1784 3103 
Q 1356 3103 1142 2972 
Q 928 2841 928 2578 
Q 928 2378 1081 2264 
Q 1234 2150 1697 2047 
L 1894 2003 
Q 2506 1872 2764 1633 
Q 3022 1394 3022 966 
Q 3022 478 2636 193 
Q 2250 -91 1575 -91 
Q 1294 -91 989 -36 
Q 684 19 347 128 
L 347 722 
Q 666 556 975 473 
Q 1284 391 1588 391 
Q 1994 391 2212 530 
Q 2431 669 2431 922 
Q 2431 1156 2273 1281 
Q 2116 1406 1581 1522 
L 1381 1569 
Q 847 1681 609 1914 
Q 372 2147 372 2553 
Q 372 3047 722 3315 
Q 1072 3584 1716 3584 
Q 2034 3584 2315 3537 
Q 2597 3491 2834 3397 
z
" transform="scale(0.015625)"/>
       <path id="DejaVuSans-29" d="M 513 4856 
L 1013 4856 
Q 1481 4119 1714 3412 
Q 1947 2706 1947 2009 
Q 1947 1309 1714 600 
Q 1481 -109 1013 -844 
L 513 -844 
Q 928 -128 1133 580 
Q 1338 1288 1338 2009 
Q 1338 2731 1133 3434 
Q 928 4138 513 4856 
z
" transform="scale(0.015625)"/>
      </defs>
      <use xlink:href="#DejaVuSans-54"/>
      <use xlink:href="#DejaVuSans-69" transform="translate(57.958984 0)"/>
      <use xlink:href="#DejaVuSans-6d" transform="translate(85.742188 0)"/>
      <use xlink:href="#DejaVuSans-65" transform="translate(183.154297 0)"/>
      <use xlink:href="#DejaVuSans-20" transform="translate(244.677734 0)"/>
      <use xlink:href="#DejaVuSans-28" transform="translate(276.464844 0)"/>
      <use xlink:href="#DejaVuSans-73" transform="translate(315.478516 0)"/>
      <use xlink:href="#DejaVuSans-29" transform="translate(367.578125 0)"/>
     </g>
    </g>
   </g>
   <g id="line2d_25">
    <path d="M 76.707273 230.593467 
L 76.731328 230.277103 
L 76.755382 231.114538 
L 76.779437 231.170367 
L 76.803492 230.314322 
L 76.827547 231.691438 
L 76.851601 231.672828 
L 76.875656 231.486731 
L 76.899711 232.398605 
L 76.923766 230.667906 
L 76.947821 230.835393 
L 76.971875 232.268337 
L 76.99593 232.435824 
L 77.019985 232.045021 
L 77.04404 232.752189 
L 77.068094 232.528873 
L 77.092149 232.305557 
L 77.116204 230.481809 
L 77.140259 232.156679 
L 77.164314 230.798174 
L 77.188368 230.258493 
L 77.212423 230.128226 
L 77.236478 231.114538 
L 77.260533 232.305557 
L 77.284587 230.630687 
L 77.308642 229.756032 
L 77.332697 230.667906 
L 77.356752 230.742345 
L 77.380807 231.244806 
L 77.404861 231.375073 
L 77.428916 231.54256 
L 77.452971 229.086084 
L 77.477026 230.742345 
L 77.50108 230.872612 
L 77.525135 231.188977 
L 77.54919 231.598389 
L 77.573245 230.909832 
L 77.5973 231.151757 
L 77.621354 231.226196 
L 77.645409 230.854003 
L 77.669464 230.500419 
L 77.693519 231.933363 
L 77.717574 231.319244 
L 77.741628 231.430902 
L 77.765683 230.165445 
L 77.789738 229.774642 
L 77.813793 231.300635 
L 77.837847 231.188977 
L 77.861902 230.909832 
L 77.885957 228.974426 
L 77.934067 230.388761 
L 77.982176 231.412293 
L 78.030286 230.500419 
L 78.078395 229.90491 
L 78.126505 230.872612 
L 78.174614 230.202664 
L 78.222724 229.607155 
L 78.270833 229.216352 
L 78.318943 230.277103 
L 78.367053 229.774642 
L 78.415162 229.90491 
L 78.463272 229.849081 
L 78.511381 228.583623 
L 78.559491 229.439668 
L 78.6076 228.732501 
L 78.65571 228.062553 
L 78.703819 227.783408 
L 78.751929 227.932285 
L 78.800039 228.267259 
L 78.848148 228.546404 
L 78.896258 229.644374 
L 78.944367 227.913675 
L 78.992477 229.290791 
L 79.040586 230.4632 
L 79.088696 230.351542 
L 79.20897 229.514107 
L 79.329244 229.551326 
L 79.449518 228.285869 
L 79.569792 230.42598 
L 79.690065 229.383839 
L 79.810339 228.713891 
L 79.930613 229.942129 
L 80.050887 229.495497 
L 80.171161 228.76972 
L 80.291435 227.802017 
L 80.411709 227.988114 
L 80.531983 227.169289 
L 80.652257 226.908753 
L 80.772531 227.746188 
L 80.892805 226.741266 
L 81.013078 227.504263 
L 81.133352 227.243727 
L 81.253626 226.331854 
L 81.3739 226.462121 
L 81.494174 227.336776 
L 81.734722 227.67175 
L 81.97527 227.448434 
L 82.215817 227.727579 
L 82.456365 227.07624 
L 82.696913 227.001802 
L 88.710608 225.513028 
L 94.724303 222.796017 
L 100.737998 222.367995 
L 124.792779 217.138679 
L 148.847559 207.871065 
L 172.902339 206.196195 
L 196.95712 204.595764 
L 221.0119 185.967488 
L 245.066681 184.906737 
L 269.121461 183.529622 
L 293.176241 182.319994 
L 317.231022 178.300306 
L 377.367973 139.201398 
L 437.504924 135.479465 
L 497.641874 134.120959 
L 557.778825 130.19432 
L 678.052727 44.310711 
" clip-path="url(#pf704deebad)" style="fill: none; stroke: #1f77b4; stroke-width: 1.8; stroke-linecap: square"/>
   </g>
   <g id="line2d_26">
    <path d="M 76.707273 230.947051 
L 76.731328 230.295713 
L 76.755382 231.02149 
L 76.779437 232.045021 
L 76.803492 231.244806 
L 76.827547 231.710047 
L 76.851601 231.207586 
L 76.875656 231.095928 
L 76.899711 231.449512 
L 76.923766 230.407371 
L 76.947821 231.356464 
L 76.971875 230.872612 
L 76.99593 230.928441 
L 77.019985 230.891222 
L 77.04404 231.319244 
L 77.068094 230.779564 
L 77.092149 231.728657 
L 77.116204 231.616999 
L 77.140259 231.430902 
L 77.164314 231.505341 
L 77.188368 230.872612 
L 77.212423 231.077319 
L 77.236478 230.537638 
L 77.260533 231.151757 
L 77.284587 231.337854 
L 77.308642 231.449512 
L 77.332697 230.798174 
L 77.356752 230.816783 
L 77.380807 230.519029 
L 77.404861 231.040099 
L 77.428916 230.909832 
L 77.452971 230.481809 
L 77.477026 230.854003 
L 77.50108 230.500419 
L 77.525135 229.756032 
L 77.54919 231.077319 
L 77.573245 231.449512 
L 77.5973 230.816783 
L 77.621354 230.388761 
L 77.645409 231.188977 
L 77.669464 230.816783 
L 77.693519 230.909832 
L 77.717574 231.151757 
L 77.741628 231.188977 
L 77.765683 231.319244 
L 77.789738 230.630687 
L 77.813793 230.723735 
L 77.837847 230.965661 
L 77.861902 230.98427 
L 77.885957 230.854003 
L 77.934067 230.816783 
L 77.982176 231.00288 
L 78.030286 231.170367 
L 78.078395 230.742345 
L 78.126505 231.058709 
L 78.174614 231.040099 
L 78.222724 230.686516 
L 78.270833 230.891222 
L 78.318943 230.928441 
L 78.367053 230.500419 
L 78.415162 231.077319 
L 78.463272 230.742345 
L 78.511381 230.798174 
L 78.559491 230.686516 
L 78.6076 230.593467 
L 78.65571 230.481809 
L 78.703819 230.4632 
L 78.751929 229.700203 
L 78.800039 230.053787 
L 78.848148 230.947051 
L 78.896258 230.798174 
L 78.944367 230.742345 
L 78.992477 230.649296 
L 79.040586 230.537638 
L 79.088696 230.649296 
L 79.20897 230.388761 
L 79.329244 229.86769 
L 79.449518 230.667906 
L 79.569792 230.407371 
L 79.690065 230.593467 
L 79.810339 230.4632 
L 79.930613 230.184055 
L 80.050887 230.481809 
L 80.171161 230.723735 
L 80.291435 230.053787 
L 80.411709 230.44459 
L 80.531983 230.370151 
L 80.652257 229.942129 
L 80.772531 230.556248 
L 80.892805 230.258493 
L 81.013078 230.053787 
L 81.133352 230.388761 
L 81.253626 229.830471 
L 81.3739 229.997958 
L 81.494174 230.407371 
L 81.734722 229.811861 
L 81.97527 230.146835 
L 82.215817 230.277103 
L 82.456365 229.8863 
L 82.696913 229.8863 
L 88.710608 229.011646 
L 94.724303 227.932285 
L 100.737998 227.578701 
L 124.792779 224.731423 
L 148.847559 220.320932 
L 172.902339 219.688203 
L 196.95712 219.27879 
L 221.0119 210.662515 
L 245.066681 209.434277 
L 269.121461 209.657593 
L 293.176241 208.243258 
L 317.231022 206.624218 
L 377.367973 190.284931 
L 437.504924 189.056693 
L 497.641874 186.544388 
L 557.778825 185.390589 
L 678.052727 142.644186 
" clip-path="url(#pf704deebad)" style="fill: none; stroke: #2ca02c; stroke-width: 1.8; stroke-linecap: square"/>
   </g>
   <g id="line2d_27">
    <path d="M 76.707273 228.658062 
L 76.731328 228.434746 
L 76.755382 229.532716 
L 76.779437 229.32801 
L 76.803492 229.123304 
L 76.827547 229.104694 
L 76.851601 228.676672 
L 76.875656 228.025333 
L 76.899711 229.458278 
L 76.923766 229.383839 
L 76.947821 228.620843 
L 76.971875 228.844159 
L 76.99593 229.253571 
L 77.019985 228.806939 
L 77.04404 228.955817 
L 77.068094 228.695281 
L 77.092149 228.76972 
L 77.116204 228.378917 
L 77.140259 228.806939 
L 77.164314 228.676672 
L 77.188368 228.081162 
L 77.212423 228.806939 
L 77.236478 229.365229 
L 77.260533 228.844159 
L 77.284587 228.75111 
L 77.308642 228.658062 
L 77.332697 228.434746 
L 77.356752 228.434746 
L 77.380807 227.950895 
L 77.404861 227.913675 
L 77.428916 227.07624 
L 77.452971 227.039021 
L 77.477026 228.546404 
L 77.50108 227.09485 
L 77.525135 227.336776 
L 77.54919 227.057631 
L 77.573245 227.467043 
L 77.5973 228.081162 
L 77.621354 228.19282 
L 77.645409 228.490575 
L 77.669464 228.136991 
L 77.693519 228.509185 
L 77.717574 227.411214 
L 77.741628 227.783408 
L 77.765683 228.025333 
L 77.789738 228.118382 
L 77.813793 228.285869 
L 77.837847 228.397527 
L 77.861902 228.620843 
L 77.885957 228.23004 
L 77.934067 228.546404 
L 77.982176 228.918597 
L 78.030286 228.509185 
L 78.078395 227.615921 
L 78.126505 227.280947 
L 78.174614 228.006724 
L 78.222724 227.876456 
L 78.270833 227.988114 
L 78.318943 228.602233 
L 78.367053 228.062553 
L 78.415162 228.118382 
L 78.463272 228.174211 
L 78.511381 227.746188 
L 78.559491 227.950895 
L 78.6076 227.839237 
L 78.65571 227.690359 
L 78.703819 228.676672 
L 78.751929 228.378917 
L 78.800039 229.104694 
L 78.848148 228.118382 
L 78.896258 228.527794 
L 78.944367 228.565014 
L 78.992477 228.434746 
L 79.040586 228.862768 
L 79.088696 228.527794 
L 79.20897 228.565014 
L 79.329244 227.876456 
L 79.449518 227.988114 
L 79.569792 228.304478 
L 79.690065 227.448434 
L 79.810339 228.062553 
L 79.930613 227.932285 
L 80.050887 227.913675 
L 80.171161 228.062553 
L 80.291435 228.025333 
L 80.411709 227.392605 
L 80.531983 227.150679 
L 80.652257 226.666828 
L 80.772531 226.201586 
L 80.892805 225.99688 
L 81.013078 225.97827 
L 81.133352 226.294634 
L 81.253626 226.220196 
L 81.3739 226.666828 
L 81.494174 226.797095 
L 81.734722 226.480731 
L 81.97527 225.885222 
L 82.215817 225.568857 
L 82.456365 225.95966 
L 82.696913 226.089928 
L 88.710608 227.969504 
L 94.724303 226.201586 
L 100.737998 226.443512 
L 124.792779 224.005646 
L 148.847559 219.241571 
L 172.902339 219.539326 
L 196.95712 219.167132 
L 221.0119 210.588076 
L 245.066681 210.271712 
L 269.121461 209.527325 
L 293.176241 208.075771 
L 317.231022 205.786783 
L 377.367973 187.660968 
L 437.504924 187.028239 
L 497.641874 184.497325 
L 557.778825 183.269087 
L 678.052727 142.737234 
" clip-path="url(#pf704deebad)" style="fill: none; stroke: #ff7f0e; stroke-width: 1.8; stroke-linecap: square"/>
   </g>
   <g id="patch_3">
    <path d="M 46.64 244.48 
L 46.64 27 
" style="fill: none; stroke: #000000; stroke-width: 0.8; stroke-linejoin: miter; stroke-linecap: square"/>
   </g>
   <g id="patch_4">
    <path d="M 708.12 244.48 
L 708.12 27 
" style="fill: none; stroke: #000000; stroke-width: 0.8; stroke-linejoin: miter; stroke-linecap: square"/>
   </g>
   <g id="patch_5">
    <path d="M 46.64 244.48 
L 708.12 244.48 
" style="fill: none; stroke: #000000; stroke-width: 0.8; stroke-linejoin: miter; stroke-linecap: square"/>
   </g>
   <g id="patch_6">
    <path d="M 46.64 27 
L 708.12 27 
" style="fill: none; stroke: #000000; stroke-width: 0.8; stroke-linejoin: miter; stroke-linecap: square"/>
   </g>
   <g id="text_15">
    <!-- Fibonacci — Total time (full range) -->
    <g transform="translate(274.99375 21) scale(0.12 -0.12)">
     <defs>
      <path id="DejaVuSans-46" d="M 628 4666 
L 3309 4666 
L 3309 4134 
L 1259 4134 
L 1259 2759 
L 3109 2759 
L 3109 2228 
L 1259 2228 
L 1259 0 
L 628 0 
L 628 4666 
z
" transform="scale(0.015625)"/>
      <path id="DejaVuSans-62" d="M 3116 1747 
Q 3116 2381 2855 2742 
Q 2594 3103 2138 3103 
Q 1681 3103 1420 2742 
Q 1159 2381 1159 1747 
Q 1159 1113 1420 752 
Q 1681 391 2138 391 
Q 2594 391 2855 752 
Q 3116 1113 3116 1747 
z
M 1159 2969 
Q 1341 3281 1617 3432 
Q 1894 3584 2278 3584 
Q 2916 3584 3314 3078 
Q 3713 2572 3713 1747 
Q 3713 922 3314 415 
Q 2916 -91 2278 -91 
Q 1894 -91 1617 61 
Q 1341 213 1159 525 
L 1159 0 
L 581 0 
L 581 4863 
L 1159 4863 
L 1159 2969 
z
" transform="scale(0.015625)"/>
      <path id="DejaVuSans-6f" d="M 1959 3097 
Q 1497 3097 1228 2736 
Q 959 2375 959 1747 
Q 959 1119 1226 758 
Q 1494 397 1959 397 
Q 2419 397 2687 759 
Q 2956 1122 2956 1747 
Q 2956 2369 2687 2733 
Q 2419 3097 1959 3097 
z
M 1959 3584 
Q 2709 3584 3137 3096 
Q 3566 2609 3566 1747 
Q 3566 888 3137 398 
Q 2709 -91 1959 -91 
Q 1206 -91 779 398 
Q 353 888 353 1747 
Q 353 2609 779 3096 
Q 1206 3584 1959 3584 
z
" transform="scale(0.015625)"/>
      <path id="DejaVuSans-61" d="M 2194 1759 
Q 1497 1759 1228 1600 
Q 959 1441 959 1056 
Q 959 750 1161 570 
Q 1363 391 1709 391 
Q 2188 391 2477 730 
Q 2766 1069 2766 1631 
L 2766 1759 
L 2194 1759 
z
M 3341 1997 
L 3341 0 
L 2766 0 
L 2766 531 
Q 2569 213 2275 61 
Q 1981 -91 1556 -91 
Q 1019 -91 701 211 
Q 384 513 384 1019 
Q 384 1609 779 1909 
Q 1175 2209 1959 2209 
L 2766 2209 
L 2766 2266 
Q 2766 2663 2505 2880 
Q 2244 3097 1772 3097 
Q 1472 3097 1187 3025 
Q 903 2953 641 2809 
L 641 3341 
Q 956 3463 1253 3523 
Q 1550 3584 1831 3584 
Q 2591 3584 2966 3190 
Q 3341 2797 3341 1997 
z
" transform="scale(0.015625)"/>
      <path id="DejaVuSans-63" d="M 3122 3366 
L 3122 2828 
Q 2878 2963 2633 3030 
Q 2388 3097 2138 3097 
Q 1578 3097 1268 2742 
Q 959 2388 959 1747 
Q 959 1106 1268 751 
Q 1578 397 2138 397 
Q 2388 397 2633 464 
Q 2878 531 3122 666 
L 3122 134 
Q 2881 22 2623 -34 
Q 2366 -91 2075 -91 
Q 1284 -91 818 406 
Q 353 903 353 1747 
Q 353 2603 823 3093 
Q 1294 3584 2113 3584 
Q 2378 3584 2631 3529 
Q 2884 3475 3122 3366 
z
" transform="scale(0.015625)"/>
      <path id="DejaVuSans-2014" d="M 313 1978 
L 6088 1978 
L 6088 1528 
L 313 1528 
L 313 1978 
z
" transform="scale(0.015625)"/>
      <path id="DejaVuSans-6c" d="M 603 4863 
L 1178 4863 
L 1178 0 
L 603 0 
L 603 4863 
z
" transform="scale(0.015625)"/>
      <path id="DejaVuSans-66" d="M 2375 4863 
L 2375 4384 
L 1825 4384 
Q 1516 4384 1395 4259 
Q 1275 4134 1275 3809 
L 1275 3500 
L 2222 3500 
L 2222 3053 
L 1275 3053 
L 1275 0 
L 697 0 
L 697 3053 
L 147 3053 
L 147 3500 
L 697 3500 
L 697 3744 
Q 697 4328 969 4595 
Q 1241 4863 1831 4863 
L 2375 4863 
z
" transform="scale(0.015625)"/>
      <path id="DejaVuSans-72" d="M 2631 2963 
Q 2534 3019 2420 3045 
Q 2306 3072 2169 3072 
Q 1681 3072 1420 2755 
Q 1159 2438 1159 1844 
L 1159 0 
L 581 0 
L 581 3500 
L 1159 3500 
L 1159 2956 
Q 1341 3275 1631 3429 
Q 1922 3584 2338 3584 
Q 2397 3584 2469 3576 
Q 2541 3569 2628 3553 
L 2631 2963 
z
" transform="scale(0.015625)"/>
      <path id="DejaVuSans-67" d="M 2906 1791 
Q 2906 2416 2648 2759 
Q 2391 3103 1925 3103 
Q 1463 3103 1205 2759 
Q 947 2416 947 1791 
Q 947 1169 1205 825 
Q 1463 481 1925 481 
Q 2391 481 2648 825 
Q 2906 1169 2906 1791 
z
M 3481 434 
Q 3481 -459 3084 -895 
Q 2688 -1331 1869 -1331 
Q 1566 -1331 1297 -1286 
Q 1028 -1241 775 -1147 
L 775 -588 
Q 1028 -725 1275 -790 
Q 1522 -856 1778 -856 
Q 2344 -856 2625 -561 
Q 2906 -266 2906 331 
L 2906 616 
Q 2728 306 2450 153 
Q 2172 0 1784 0 
Q 1141 0 747 490 
Q 353 981 353 1791 
Q 353 2603 747 3093 
Q 1141 3584 1784 3584 
Q 2172 3584 2450 3431 
Q 2728 3278 2906 2969 
L 2906 3500 
L 3481 3500 
L 3481 434 
z
" transform="scale(0.015625)"/>
     </defs>
     <use xlink:href="#DejaVuSans-46"/>
     <use xlink:href="#DejaVuSans-69" transform="translate(50.269531 0)"/>
     <use xlink:href="#DejaVuSans-62" transform="translate(78.052734 0)"/>
     <use xlink:href="#DejaVuSans-6f" transform="translate(141.529297 0)"/>
     <use xlink:href="#DejaVuSans-6e" transform="translate(202.710938 0)"/>
     <use xlink:href="#DejaVuSans-61" transform="translate(266.089844 0)"/>
     <use xlink:href="#DejaVuSans-63" transform="translate(327.369141 0)"/>
     <use xlink:href="#DejaVuSans-63" transform="translate(382.349609 0)"/>
     <use xlink:href="#DejaVuSans-69" transform="translate(437.330078 0)"/>
     <use xlink:href="#DejaVuSans-20" transform="translate(465.113281 0)"/>
     <use xlink:href="#DejaVuSans-2014" transform="translate(496.900391 0)"/>
     <use xlink:href="#DejaVuSans-20" transform="translate(596.900391 0)"/>
     <use xlink:href="#DejaVuSans-54" transform="translate(628.6875 0)"/>
     <use xlink:href="#DejaVuSans-6f" transform="translate(672.771484 0)"/>
     <use xlink:href="#DejaVuSans-74" transform="translate(733.953125 0)"/>
     <use xlink:href="#DejaVuSans-61" transform="translate(773.162109 0)"/>
     <use xlink:href="#DejaVuSans-6c" transform="translate(834.441406 0)"/>
     <use xlink:href="#DejaVuSans-20" transform="translate(862.224609 0)"/>
     <use xlink:href="#DejaVuSans-74" transform="translate(894.011719 0)"/>
     <use xlink:href="#DejaVuSans-69" transform="translate(933.220703 0)"/>
     <use xlink:href="#DejaVuSans-6d" transform="translate(961.003906 0)"/>
     <use xlink:href="#DejaVuSans-65" transform="translate(1058.416016 0)"/>
     <use xlink:href="#DejaVuSans-20" transform="translate(1119.939453 0)"/>
     <use xlink:href="#DejaVuSans-28" transform="translate(1151.726562 0)"/>
     <use xlink:href="#DejaVuSans-66" transform="translate(1190.740234 0)"/>
     <use xlink:href="#DejaVuSans-75" transform="translate(1225.945312 0)"/>
     <use xlink:href="#DejaVuSans-6c" transform="translate(1289.324219 0)"/>
     <use xlink:href="#DejaVuSans-6c" transform="translate(1317.107422 0)"/>
     <use xlink:href="#DejaVuSans-20" transform="translate(1344.890625 0)"/>
     <use xlink:href="#DejaVuSans-72" transform="translate(1376.677734 0)"/>
     <use xlink:href="#DejaVuSans-61" transform="translate(1417.791016 0)"/>
     <use xlink:href="#DejaVuSans-6e" transform="translate(1479.070312 0)"/>
     <use xlink:href="#DejaVuSans-67" transform="translate(1542.449219 0)"/>
     <use xlink:href="#DejaVuSans-65" transform="translate(1605.925781 0)"/>
     <use xlink:href="#DejaVuSans-29" transform="translate(1667.449219 0)"/>
    </g>
   </g>
   <g id="legend_1">
    <g id="line2d_28">
     <path d="M 55.64 40.098438 
L 65.64 40.098438 
L 75.64 40.098438 
" style="fill: none; stroke: #1f77b4; stroke-width: 1.8; stroke-linecap: square"/>
    </g>
    <g id="text_16">
     <!-- 32-reg -->
     <g transform="translate(83.64 43.598438) scale(0.1 -0.1)">
      <defs>
       <path id="DejaVuSans-33" d="M 2597 2516 
Q 3050 2419 3304 2112 
Q 3559 1806 3559 1356 
Q 3559 666 3084 287 
Q 2609 -91 1734 -91 
Q 1441 -91 1130 -33 
Q 819 25 488 141 
L 488 750 
Q 750 597 1062 519 
Q 1375 441 1716 441 
Q 2309 441 2620 675 
Q 2931 909 2931 1356 
Q 2931 1769 2642 2001 
Q 2353 2234 1838 2234 
L 1294 2234 
L 1294 2753 
L 1863 2753 
Q 2328 2753 2575 2939 
Q 2822 3125 2822 3475 
Q 2822 3834 2567 4026 
Q 2313 4219 1838 4219 
Q 1578 4219 1281 4162 
Q 984 4106 628 3988 
L 628 4550 
Q 988 4650 1302 4700 
Q 1616 4750 1894 4750 
Q 2613 4750 3031 4423 
Q 3450 4097 3450 3541 
Q 3450 3153 3228 2886 
Q 3006 2619 2597 2516 
z
" transform="scale(0.015625)"/>
       <path id="DejaVuSans-2d" d="M 313 2009 
L 1997 2009 
L 1997 1497 
L 313 1497 
L 313 2009 
z
" transform="scale(0.015625)"/>
      </defs>
      <use xlink:href="#DejaVuSans-33"/>
      <use xlink:href="#DejaVuSans-32" transform="translate(63.623047 0)"/>
      <use xlink:href="#DejaVuSans-2d" transform="translate(127.246094 0)"/>
      <use xlink:href="#DejaVuSans-72" transform="translate(163.330078 0)"/>
      <use xlink:href="#DejaVuSans-65" transform="translate(202.193359 0)"/>
      <use xlink:href="#DejaVuSans-67" transform="translate(263.716797 0)"/>
     </g>
    </g>
    <g id="line2d_29">
     <path d="M 55.64 54.776563 
L 65.64 54.776563 
L 75.64 54.776563 
" style="fill: none; stroke: #2ca02c; stroke-width: 1.8; stroke-linecap: square"/>
    </g>
    <g id="text_17">
     <!-- mem-batch -->
     <g transform="translate(83.64 58.276563) scale(0.1 -0.1)">
      <defs>
       <path id="DejaVuSans-68" d="M 3513 2113 
L 3513 0 
L 2938 0 
L 2938 2094 
Q 2938 2591 2744 2837 
Q 2550 3084 2163 3084 
Q 1697 3084 1428 2787 
Q 1159 2491 1159 1978 
L 1159 0 
L 581 0 
L 581 4863 
L 1159 4863 
L 1159 2956 
Q 1366 3272 1645 3428 
Q 1925 3584 2291 3584 
Q 2894 3584 3203 3211 
Q 3513 2838 3513 2113 
z
" transform="scale(0.015625)"/>
      </defs>
      <use xlink:href="#DejaVuSans-6d"/>
      <use xlink:href="#DejaVuSans-65" transform="translate(97.412109 0)"/>
      <use xlink:href="#DejaVuSans-6d" transform="translate(158.935547 0)"/>
      <use xlink:href="#DejaVuSans-2d" transform="translate(256.347656 0)"/>
      <use xlink:href="#DejaVuSans-62" transform="translate(292.431641 0)"/>
      <use xlink:href="#DejaVuSans-61" transform="translate(355.908203 0)"/>
      <use xlink:href="#DejaVuSans-74" transform="translate(417.1875 0)"/>
      <use xlink:href="#DejaVuSans-63" transform="translate(456.396484 0)"/>
      <use xlink:href="#DejaVuSans-68" transform="translate(511.376953 0)"/>
     </g>
    </g>
    <g id="line2d_30">
     <path d="M 55.64 69.454688 
L 65.64 69.454688 
L 75.64 69.454688 
" style="fill: none; stroke: #ff7f0e; stroke-width: 1.8; stroke-linecap: square"/>
    </g>
    <g id="text_18">
     <!-- vanilla -->
     <g transform="translate(83.64 72.954688) scale(0.1 -0.1)">
      <defs>
       <path id="DejaVuSans-76" d="M 191 3500 
L 800 3500 
L 1894 563 
L 2988 3500 
L 3597 3500 
L 2284 0 
L 1503 0 
L 191 3500 
z
" transform="scale(0.015625)"/>
      </defs>
      <use xlink:href="#DejaVuSans-76"/>
      <use xlink:href="#DejaVuSans-61" transform="translate(59.179688 0)"/>
      <use xlink:href="#DejaVuSans-6e" transform="translate(120.458984 0)"/>
      <use xlink:href="#DejaVuSans-69" transform="translate(183.837891 0)"/>
      <use xlink:href="#DejaVuSans-6c" transform="translate(211.621094 0)"/>
      <use xlink:href="#DejaVuSans-6c" transform="translate(239.404297 0)"/>
      <use xlink:href="#DejaVuSans-61" transform="translate(267.1875 0)"/>
     </g>
    </g>
   </g>
  </g>
 </g>
 <defs>
  <clipPath id="pf704deebad">
   <rect x="46.64" y="27" width="661.48" height="217.48"/>
  </clipPath>
 </defs>
</svg>
