<?xml version="1.0" encoding="utf-8" standalone="no"?>
<!DOCTYPE svg PUBLIC "-//W3C//DTD SVG 1.1//EN"
  "http://www.w3.org/Graphics/SVG/1.1/DTD/svg11.dtd">
<svg xmlns:xlink="http://www.w3.org/1999/xlink" width="648pt" height="288pt" viewBox="0 0 648 288" xmlns="http://www.w3.org/2000/svg" version="1.1">
 <metadata>
  <rdf:RDF xmlns:dc="http://purl.org/dc/elements/1.1/" xmlns:cc="http://creativecommons.org/ns#" xmlns:rdf="http://www.w3.org/1999/02/22-rdf-syntax-ns#">
   <cc:Work>
    <dc:type rdf:resource="http://purl.org/dc/dcmitype/StillImage"/>
    <dc:date>2025-09-10T11:05:50.707965</dc:date>
    <dc:format>image/svg+xml</dc:format>
    <dc:creator>
     <cc:Agent>
      <dc:title>Matplotlib v3.10.6, https://matplotlib.org/</dc:title>
     </cc:Agent>
    </dc:creator>
   </cc:Work>
  </rdf:RDF>
 </metadata>
 <defs>
  <style type="text/css">*{stroke-linejoin: round; stroke-linecap: butt}</style>
 </defs>
 <g id="figure_1">
  <g id="patch_1">
   <path d="M 0 288 
L 648 288 
L 648 0 
L 0 0 
z
" style="fill: #ffffff"/>
  </g>
  <g id="axes_1">
   <g id="patch_2">
    <path d="M 49.88 244.48 
L 636.12 244.48 
L 636.12 27 
L 49.88 27 
z
" style="fill: #ffffff"/>
   </g>
   <g id="matplotlib.axis_1">
    <g id="xtick_1">
     <g id="line2d_1">
      <path d="M 76.505954 244.48 
L 76.505954 27 
" clip-path="url(#pde6d374fd3)" style="fill: none; stroke: #b0b0b0; stroke-opacity: 0.25; stroke-width: 0.8; stroke-linecap: square"/>
     </g>
     <g id="line2d_2">
      <defs>
       <path id="md937b9c865" d="M 0 0 
L 0 3.5 
" style="stroke: #000000; stroke-width: 0.8"/>
      </defs>
      <g>
       <use xlink:href="#md937b9c865" x="76.505954" y="244.48" style="stroke: #000000; stroke-width: 0.8"/>
      </g>
     </g>
     <g id="text_1">
      <!-- 0 -->
      <g transform="translate(73.324704 259.078438) scale(0.1 -0.1)">
       <defs>
        <path id="DejaVuSans-30" d="M 2034 4250 
Q 1547 4250 1301 3770 
Q 1056 3291 1056 2328 
Q 1056 1369 1301 889 
Q 1547 409 2034 409 
Q 2525 409 2770 889 
Q 3016 1369 3016 2328 
Q 3016 3291 2770 3770 
Q 2525 4250 2034 4250 
z
M 2034 4750 
Q 2819 4750 3233 4129 
Q 3647 3509 3647 2328 
Q 3647 1150 3233 529 
Q 2819 -91 2034 -91 
Q 1250 -91 836 529 
Q 422 1150 422 2328 
Q 422 3509 836 4129 
Q 1250 4750 2034 4750 
z
" transform="scale(0.015625)"/>
       </defs>
       <use xlink:href="#DejaVuSans-30"/>
      </g>
     </g>
    </g>
    <g id="xtick_2">
     <g id="line2d_3">
      <path d="M 183.099309 244.48 
L 183.099309 27 
" clip-path="url(#pde6d374fd3)" style="fill: none; stroke: #b0b0b0; stroke-opacity: 0.25; stroke-width: 0.8; stroke-linecap: square"/>
     </g>
     <g id="line2d_4">
      <g>
       <use xlink:href="#md937b9c865" x="183.099309" y="244.48" style="stroke: #000000; stroke-width: 0.8"/>
      </g>
     </g>
     <g id="text_2">
      <!-- 5000 -->
      <g transform="translate(170.374309 259.078438) scale(0.1 -0.1)">
       <defs>
        <path id="DejaVuSans-35" d="M 691 4666 
L 3169 4666 
L 3169 4134 
L 1269 4134 
L 1269 2991 
Q 1406 3038 1543 3061 
Q 1681 3084 1819 3084 
Q 2600 3084 3056 2656 
Q 3513 2228 3513 1497 
Q 3513 744 3044 326 
Q 2575 -91 1722 -91 
Q 1428 -91 1123 -41 
Q 819 9 494 109 
L 494 744 
Q 775 591 1075 516 
Q 1375 441 1709 441 
Q 2250 441 2565 725 
Q 2881 1009 2881 1497 
Q 2881 1984 2565 2268 
Q 2250 2553 1709 2553 
Q 1456 2553 1204 2497 
Q 953 2441 691 2322 
L 691 4666 
z
" transform="scale(0.015625)"/>
       </defs>
       <use xlink:href="#DejaVuSans-35"/>
       <use xlink:href="#DejaVuSans-30" transform="translate(63.623047 0)"/>
       <use xlink:href="#DejaVuSans-30" transform="translate(127.246094 0)"/>
       <use xlink:href="#DejaVuSans-30" transform="translate(190.869141 0)"/>
      </g>
     </g>
    </g>
    <g id="xtick_3">
     <g id="line2d_5">
      <path d="M 289.692663 244.48 
L 289.692663 27 
" clip-path="url(#pde6d374fd3)" style="fill: none; stroke: #b0b0b0; stroke-opacity: 0.25; stroke-width: 0.8; stroke-linecap: square"/>
     </g>
     <g id="line2d_6">
      <g>
       <use xlink:href="#md937b9c865" x="289.692663" y="244.48" style="stroke: #000000; stroke-width: 0.8"/>
      </g>
     </g>
     <g id="text_3">
      <!-- 10000 -->
      <g transform="translate(273.786413 259.078438) scale(0.1 -0.1)">
       <defs>
        <path id="DejaVuSans-31" d="M 794 531 
L 1825 531 
L 1825 4091 
L 703 3866 
L 703 4441 
L 1819 4666 
L 2450 4666 
L 2450 531 
L 3481 531 
L 3481 0 
L 794 0 
L 794 531 
z
" transform="scale(0.015625)"/>
       </defs>
       <use xlink:href="#DejaVuSans-31"/>
       <use xlink:href="#DejaVuSans-30" transform="translate(63.623047 0)"/>
       <use xlink:href="#DejaVuSans-30" transform="translate(127.246094 0)"/>
       <use xlink:href="#DejaVuSans-30" transform="translate(190.869141 0)"/>
       <use xlink:href="#DejaVuSans-30" transform="translate(254.492188 0)"/>
      </g>
     </g>
    </g>
    <g id="xtick_4">
     <g id="line2d_7">
      <path d="M 396.286018 244.48 
L 396.286018 27 
" clip-path="url(#pde6d374fd3)" style="fill: none; stroke: #b0b0b0; stroke-opacity: 0.25; stroke-width: 0.8; stroke-linecap: square"/>
     </g>
     <g id="line2d_8">
      <g>
       <use xlink:href="#md937b9c865" x="396.286018" y="244.48" style="stroke: #000000; stroke-width: 0.8"/>
      </g>
     </g>
     <g id="text_4">
      <!-- 15000 -->
      <g transform="translate(380.379768 259.078438) scale(0.1 -0.1)">
       <use xlink:href="#DejaVuSans-31"/>
       <use xlink:href="#DejaVuSans-35" transform="translate(63.623047 0)"/>
       <use xlink:href="#DejaVuSans-30" transform="translate(127.246094 0)"/>
       <use xlink:href="#DejaVuSans-30" transform="translate(190.869141 0)"/>
       <use xlink:href="#DejaVuSans-30" transform="translate(254.492188 0)"/>
      </g>
     </g>
    </g>
    <g id="xtick_5">
     <g id="line2d_9">
      <path d="M 502.879373 244.48 
L 502.879373 27 
" clip-path="url(#pde6d374fd3)" style="fill: none; stroke: #b0b0b0; stroke-opacity: 0.25; stroke-width: 0.8; stroke-linecap: square"/>
     </g>
     <g id="line2d_10">
      <g>
       <use xlink:href="#md937b9c865" x="502.879373" y="244.48" style="stroke: #000000; stroke-width: 0.8"/>
      </g>
     </g>
     <g id="text_5">
      <!-- 20000 -->
      <g transform="translate(486.973123 259.078438) scale(0.1 -0.1)">
       <defs>
        <path id="DejaVuSans-32" d="M 1228 531 
L 3431 531 
L 3431 0 
L 469 0 
L 469 531 
Q 828 903 1448 1529 
Q 2069 2156 2228 2338 
Q 2531 2678 2651 2914 
Q 2772 3150 2772 3378 
Q 2772 3750 2511 3984 
Q 2250 4219 1831 4219 
Q 1534 4219 1204 4116 
Q 875 4013 500 3803 
L 500 4441 
Q 881 4594 1212 4672 
Q 1544 4750 1819 4750 
Q 2544 4750 2975 4387 
Q 3406 4025 3406 3419 
Q 3406 3131 3298 2873 
Q 3191 2616 2906 2266 
Q 2828 2175 2409 1742 
Q 1991 1309 1228 531 
z
" transform="scale(0.015625)"/>
       </defs>
       <use xlink:href="#DejaVuSans-32"/>
       <use xlink:href="#DejaVuSans-30" transform="translate(63.623047 0)"/>
       <use xlink:href="#DejaVuSans-30" transform="translate(127.246094 0)"/>
       <use xlink:href="#DejaVuSans-30" transform="translate(190.869141 0)"/>
       <use xlink:href="#DejaVuSans-30" transform="translate(254.492188 0)"/>
      </g>
     </g>
    </g>
    <g id="xtick_6">
     <g id="line2d_11">
      <path d="M 609.472727 244.48 
L 609.472727 27 
" clip-path="url(#pde6d374fd3)" style="fill: none; stroke: #b0b0b0; stroke-opacity: 0.25; stroke-width: 0.8; stroke-linecap: square"/>
     </g>
     <g id="line2d_12">
      <g>
       <use xlink:href="#md937b9c865" x="609.472727" y="244.48" style="stroke: #000000; stroke-width: 0.8"/>
      </g>
     </g>
     <g id="text_6">
      <!-- 25000 -->
      <g transform="translate(593.566477 259.078438) scale(0.1 -0.1)">
       <use xlink:href="#DejaVuSans-32"/>
       <use xlink:href="#DejaVuSans-35" transform="translate(63.623047 0)"/>
       <use xlink:href="#DejaVuSans-30" transform="translate(127.246094 0)"/>
       <use xlink:href="#DejaVuSans-30" transform="translate(190.869141 0)"/>
       <use xlink:href="#DejaVuSans-30" transform="translate(254.492188 0)"/>
      </g>
     </g>
    </g>
    <g id="text_7">
     <!-- Input -->
     <g transform="translate(328.758438 273.516406) scale(0.11 -0.11)">
      <defs>
       <path id="DejaVuSans-49" d="M 628 4666 
L 1259 4666 
L 1259 0 
L 628 0 
L 628 4666 
z
" transform="scale(0.015625)"/>
       <path id="DejaVuSans-6e" d="M 3513 2113 
L 3513 0 
L 2938 0 
L 2938 2094 
Q 2938 2591 2744 2837 
Q 2550 3084 2163 3084 
Q 1697 3084 1428 2787 
Q 1159 2491 1159 1978 
L 1159 0 
L 581 0 
L 581 3500 
L 1159 3500 
L 1159 2956 
Q 1366 3272 1645 3428 
Q 1925 3584 2291 3584 
Q 2894 3584 3203 3211 
Q 3513 2838 3513 2113 
z
" transform="scale(0.015625)"/>
       <path id="DejaVuSans-70" d="M 1159 525 
L 1159 -1331 
L 581 -1331 
L 581 3500 
L 1159 3500 
L 1159 2969 
Q 1341 3281 1617 3432 
Q 1894 3584 2278 3584 
Q 2916 3584 3314 3078 
Q 3713 2572 3713 1747 
Q 3713 922 3314 415 
Q 2916 -91 2278 -91 
Q 1894 -91 1617 61 
Q 1341 213 1159 525 
z
M 3116 1747 
Q 3116 2381 2855 2742 
Q 2594 3103 2138 3103 
Q 1681 3103 1420 2742 
Q 1159 2381 1159 1747 
Q 1159 1113 1420 752 
Q 1681 391 2138 391 
Q 2594 391 2855 752 
Q 3116 1113 3116 1747 
z
" transform="scale(0.015625)"/>
       <path id="DejaVuSans-75" d="M 544 1381 
L 544 3500 
L 1119 3500 
L 1119 1403 
Q 1119 906 1312 657 
Q 1506 409 1894 409 
Q 2359 409 2629 706 
Q 2900 1003 2900 1516 
L 2900 3500 
L 3475 3500 
L 3475 0 
L 2900 0 
L 2900 538 
Q 2691 219 2414 64 
Q 2138 -91 1772 -91 
Q 1169 -91 856 284 
Q 544 659 544 1381 
z
M 1991 3584 
L 1991 3584 
z
" transform="scale(0.015625)"/>
       <path id="DejaVuSans-74" d="M 1172 4494 
L 1172 3500 
L 2356 3500 
L 2356 3053 
L 1172 3053 
L 1172 1153 
Q 1172 725 1289 603 
Q 1406 481 1766 481 
L 2356 481 
L 2356 0 
L 1766 0 
Q 1100 0 847 248 
Q 594 497 594 1153 
L 594 3053 
L 172 3053 
L 172 3500 
L 594 3500 
L 594 4494 
L 1172 4494 
z
" transform="scale(0.015625)"/>
      </defs>
      <use xlink:href="#DejaVuSans-49"/>
      <use xlink:href="#DejaVuSans-6e" transform="translate(29.492188 0)"/>
      <use xlink:href="#DejaVuSans-70" transform="translate(92.871094 0)"/>
      <use xlink:href="#DejaVuSans-75" transform="translate(156.347656 0)"/>
      <use xlink:href="#DejaVuSans-74" transform="translate(219.726562 0)"/>
     </g>
    </g>
   </g>
   <g id="matplotlib.axis_2">
    <g id="ytick_1">
     <g id="line2d_13">
      <path d="M 49.88 223.237887 
L 636.12 223.237887 
" clip-path="url(#pde6d374fd3)" style="fill: none; stroke: #b0b0b0; stroke-opacity: 0.25; stroke-width: 0.8; stroke-linecap: square"/>
     </g>
     <g id="line2d_14">
      <defs>
       <path id="mc1c73b1439" d="M 0 0 
L -3.5 0 
" style="stroke: #000000; stroke-width: 0.8"/>
      </defs>
      <g>
       <use xlink:href="#mc1c73b1439" x="49.88" y="223.237887" style="stroke: #000000; stroke-width: 0.8"/>
      </g>
     </g>
     <g id="text_8">
      <!-- 0.1 -->
      <g transform="translate(26.976875 227.037106) scale(0.1 -0.1)">
       <defs>
        <path id="DejaVuSans-2e" d="M 684 794 
L 1344 794 
L 1344 0 
L 684 0 
L 684 794 
z
" transform="scale(0.015625)"/>
       </defs>
       <use xlink:href="#DejaVuSans-30"/>
       <use xlink:href="#DejaVuSans-2e" transform="translate(63.623047 0)"/>
       <use xlink:href="#DejaVuSans-31" transform="translate(95.410156 0)"/>
      </g>
     </g>
    </g>
    <g id="ytick_2">
     <g id="line2d_15">
      <path d="M 49.88 197.427301 
L 636.12 197.427301 
" clip-path="url(#pde6d374fd3)" style="fill: none; stroke: #b0b0b0; stroke-opacity: 0.25; stroke-width: 0.8; stroke-linecap: square"/>
     </g>
     <g id="line2d_16">
      <g>
       <use xlink:href="#mc1c73b1439" x="49.88" y="197.427301" style="stroke: #000000; stroke-width: 0.8"/>
      </g>
     </g>
     <g id="text_9">
      <!-- 0.2 -->
      <g transform="translate(26.976875 201.22652) scale(0.1 -0.1)">
       <use xlink:href="#DejaVuSans-30"/>
       <use xlink:href="#DejaVuSans-2e" transform="translate(63.623047 0)"/>
       <use xlink:href="#DejaVuSans-32" transform="translate(95.410156 0)"/>
      </g>
     </g>
    </g>
    <g id="ytick_3">
     <g id="line2d_17">
      <path d="M 49.88 171.616715 
L 636.12 171.616715 
" clip-path="url(#pde6d374fd3)" style="fill: none; stroke: #b0b0b0; stroke-opacity: 0.25; stroke-width: 0.8; stroke-linecap: square"/>
     </g>
     <g id="line2d_18">
      <g>
       <use xlink:href="#mc1c73b1439" x="49.88" y="171.616715" style="stroke: #000000; stroke-width: 0.8"/>
      </g>
     </g>
     <g id="text_10">
      <!-- 0.3 -->
      <g transform="translate(26.976875 175.415934) scale(0.1 -0.1)">
       <defs>
        <path id="DejaVuSans-33" d="M 2597 2516 
Q 3050 2419 3304 2112 
Q 3559 1806 3559 1356 
Q 3559 666 3084 287 
Q 2609 -91 1734 -91 
Q 1441 -91 1130 -33 
Q 819 25 488 141 
L 488 750 
Q 750 597 1062 519 
Q 1375 441 1716 441 
Q 2309 441 2620 675 
Q 2931 909 2931 1356 
Q 2931 1769 2642 2001 
Q 2353 2234 1838 2234 
L 1294 2234 
L 1294 2753 
L 1863 2753 
Q 2328 2753 2575 2939 
Q 2822 3125 2822 3475 
Q 2822 3834 2567 4026 
Q 2313 4219 1838 4219 
Q 1578 4219 1281 4162 
Q 984 4106 628 3988 
L 628 4550 
Q 988 4650 1302 4700 
Q 1616 4750 1894 4750 
Q 2613 4750 3031 4423 
Q 3450 4097 3450 3541 
Q 3450 3153 3228 2886 
Q 3006 2619 2597 2516 
z
" transform="scale(0.015625)"/>
       </defs>
       <use xlink:href="#DejaVuSans-30"/>
       <use xlink:href="#DejaVuSans-2e" transform="translate(63.623047 0)"/>
       <use xlink:href="#DejaVuSans-33" transform="translate(95.410156 0)"/>
      </g>
     </g>
    </g>
    <g id="ytick_4">
     <g id="line2d_19">
      <path d="M 49.88 145.806129 
L 636.12 145.806129 
" clip-path="url(#pde6d374fd3)" style="fill: none; stroke: #b0b0b0; stroke-opacity: 0.25; stroke-width: 0.8; stroke-linecap: square"/>
     </g>
     <g id="line2d_20">
      <g>
       <use xlink:href="#mc1c73b1439" x="49.88" y="145.806129" style="stroke: #000000; stroke-width: 0.8"/>
      </g>
     </g>
     <g id="text_11">
      <!-- 0.4 -->
      <g transform="translate(26.976875 149.605347) scale(0.1 -0.1)">
       <defs>
        <path id="DejaVuSans-34" d="M 2419 4116 
L 825 1625 
L 2419 1625 
L 2419 4116 
z
M 2253 4666 
L 3047 4666 
L 3047 1625 
L 3713 1625 
L 3713 1100 
L 3047 1100 
L 3047 0 
L 2419 0 
L 2419 1100 
L 313 1100 
L 313 1709 
L 2253 4666 
z
" transform="scale(0.015625)"/>
       </defs>
       <use xlink:href="#DejaVuSans-30"/>
       <use xlink:href="#DejaVuSans-2e" transform="translate(63.623047 0)"/>
       <use xlink:href="#DejaVuSans-34" transform="translate(95.410156 0)"/>
      </g>
     </g>
    </g>
    <g id="ytick_5">
     <g id="line2d_21">
      <path d="M 49.88 119.995542 
L 636.12 119.995542 
" clip-path="url(#pde6d374fd3)" style="fill: none; stroke: #b0b0b0; stroke-opacity: 0.25; stroke-width: 0.8; stroke-linecap: square"/>
     </g>
     <g id="line2d_22">
      <g>
       <use xlink:href="#mc1c73b1439" x="49.88" y="119.995542" style="stroke: #000000; stroke-width: 0.8"/>
      </g>
     </g>
     <g id="text_12">
      <!-- 0.5 -->
      <g transform="translate(26.976875 123.794761) scale(0.1 -0.1)">
       <use xlink:href="#DejaVuSans-30"/>
       <use xlink:href="#DejaVuSans-2e" transform="translate(63.623047 0)"/>
       <use xlink:href="#DejaVuSans-35" transform="translate(95.410156 0)"/>
      </g>
     </g>
    </g>
    <g id="ytick_6">
     <g id="line2d_23">
      <path d="M 49.88 94.184956 
L 636.12 94.184956 
" clip-path="url(#pde6d374fd3)" style="fill: none; stroke: #b0b0b0; stroke-opacity: 0.25; stroke-width: 0.8; stroke-linecap: square"/>
     </g>
     <g id="line2d_24">
      <g>
       <use xlink:href="#mc1c73b1439" x="49.88" y="94.184956" style="stroke: #000000; stroke-width: 0.8"/>
      </g>
     </g>
     <g id="text_13">
      <!-- 0.6 -->
      <g transform="translate(26.976875 97.984175) scale(0.1 -0.1)">
       <defs>
        <path id="DejaVuSans-36" d="M 2113 2584 
Q 1688 2584 1439 2293 
Q 1191 2003 1191 1497 
Q 1191 994 1439 701 
Q 1688 409 2113 409 
Q 2538 409 2786 701 
Q 3034 994 3034 1497 
Q 3034 2003 2786 2293 
Q 2538 2584 2113 2584 
z
M 3366 4563 
L 3366 3988 
Q 3128 4100 2886 4159 
Q 2644 4219 2406 4219 
Q 1781 4219 1451 3797 
Q 1122 3375 1075 2522 
Q 1259 2794 1537 2939 
Q 1816 3084 2150 3084 
Q 2853 3084 3261 2657 
Q 3669 2231 3669 1497 
Q 3669 778 3244 343 
Q 2819 -91 2113 -91 
Q 1303 -91 875 529 
Q 447 1150 447 2328 
Q 447 3434 972 4092 
Q 1497 4750 2381 4750 
Q 2619 4750 2861 4703 
Q 3103 4656 3366 4563 
z
" transform="scale(0.015625)"/>
       </defs>
       <use xlink:href="#DejaVuSans-30"/>
       <use xlink:href="#DejaVuSans-2e" transform="translate(63.623047 0)"/>
       <use xlink:href="#DejaVuSans-36" transform="translate(95.410156 0)"/>
      </g>
     </g>
    </g>
    <g id="ytick_7">
     <g id="line2d_25">
      <path d="M 49.88 68.37437 
L 636.12 68.37437 
" clip-path="url(#pde6d374fd3)" style="fill: none; stroke: #b0b0b0; stroke-opacity: 0.25; stroke-width: 0.8; stroke-linecap: square"/>
     </g>
     <g id="line2d_26">
      <g>
       <use xlink:href="#mc1c73b1439" x="49.88" y="68.37437" style="stroke: #000000; stroke-width: 0.8"/>
      </g>
     </g>
     <g id="text_14">
      <!-- 0.7 -->
      <g transform="translate(26.976875 72.173589) scale(0.1 -0.1)">
       <defs>
        <path id="DejaVuSans-37" d="M 525 4666 
L 3525 4666 
L 3525 4397 
L 1831 0 
L 1172 0 
L 2766 4134 
L 525 4134 
L 525 4666 
z
" transform="scale(0.015625)"/>
       </defs>
       <use xlink:href="#DejaVuSans-30"/>
       <use xlink:href="#DejaVuSans-2e" transform="translate(63.623047 0)"/>
       <use xlink:href="#DejaVuSans-37" transform="translate(95.410156 0)"/>
      </g>
     </g>
    </g>
    <g id="ytick_8">
     <g id="line2d_27">
      <path d="M 49.88 42.563784 
L 636.12 42.563784 
" clip-path="url(#pde6d374fd3)" style="fill: none; stroke: #b0b0b0; stroke-opacity: 0.25; stroke-width: 0.8; stroke-linecap: square"/>
     </g>
     <g id="line2d_28">
      <g>
       <use xlink:href="#mc1c73b1439" x="49.88" y="42.563784" style="stroke: #000000; stroke-width: 0.8"/>
      </g>
     </g>
     <g id="text_15">
      <!-- 0.8 -->
      <g transform="translate(26.976875 46.363002) scale(0.1 -0.1)">
       <defs>
        <path id="DejaVuSans-38" d="M 2034 2216 
Q 1584 2216 1326 1975 
Q 1069 1734 1069 1313 
Q 1069 891 1326 650 
Q 1584 409 2034 409 
Q 2484 409 2743 651 
Q 3003 894 3003 1313 
Q 3003 1734 2745 1975 
Q 2488 2216 2034 2216 
z
M 1403 2484 
Q 997 2584 770 2862 
Q 544 3141 544 3541 
Q 544 4100 942 4425 
Q 1341 4750 2034 4750 
Q 2731 4750 3128 4425 
Q 3525 4100 3525 3541 
Q 3525 3141 3298 2862 
Q 3072 2584 2669 2484 
Q 3125 2378 3379 2068 
Q 3634 1759 3634 1313 
Q 3634 634 3220 271 
Q 2806 -91 2034 -91 
Q 1263 -91 848 271 
Q 434 634 434 1313 
Q 434 1759 690 2068 
Q 947 2378 1403 2484 
z
M 1172 3481 
Q 1172 3119 1398 2916 
Q 1625 2713 2034 2713 
Q 2441 2713 2670 2916 
Q 2900 3119 2900 3481 
Q 2900 3844 2670 4047 
Q 2441 4250 2034 4250 
Q 1625 4250 1398 4047 
Q 1172 3844 1172 3481 
z
" transform="scale(0.015625)"/>
       </defs>
       <use xlink:href="#DejaVuSans-30"/>
       <use xlink:href="#DejaVuSans-2e" transform="translate(63.623047 0)"/>
       <use xlink:href="#DejaVuSans-38" transform="translate(95.410156 0)"/>
      </g>
     </g>
    </g>
    <g id="text_16">
     <!-- Time (s) -->
     <g transform="translate(20.689219 158.101797) rotate(-90) scale(0.11 -0.11)">
      <defs>
       <path id="DejaVuSans-54" d="M -19 4666 
L 3928 4666 
L 3928 4134 
L 2272 4134 
L 2272 0 
L 1638 0 
L 1638 4134 
L -19 4134 
L -19 4666 
z
" transform="scale(0.015625)"/>
       <path id="DejaVuSans-69" d="M 603 3500 
L 1178 3500 
L 1178 0 
L 603 0 
L 603 3500 
z
M 603 4863 
L 1178 4863 
L 1178 4134 
L 603 4134 
L 603 4863 
z
" transform="scale(0.015625)"/>
       <path id="DejaVuSans-6d" d="M 3328 2828 
Q 3544 3216 3844 3400 
Q 4144 3584 4550 3584 
Q 5097 3584 5394 3201 
Q 5691 2819 5691 2113 
L 5691 0 
L 5113 0 
L 5113 2094 
Q 5113 2597 4934 2840 
Q 4756 3084 4391 3084 
Q 3944 3084 3684 2787 
Q 3425 2491 3425 1978 
L 3425 0 
L 2847 0 
L 2847 2094 
Q 2847 2600 2669 2842 
Q 2491 3084 2119 3084 
Q 1678 3084 1418 2786 
Q 1159 2488 1159 1978 
L 1159 0 
L 581 0 
L 581 3500 
L 1159 3500 
L 1159 2956 
Q 1356 3278 1631 3431 
Q 1906 3584 2284 3584 
Q 2666 3584 2933 3390 
Q 3200 3197 3328 2828 
z
" transform="scale(0.015625)"/>
       <path id="DejaVuSans-65" d="M 3597 1894 
L 3597 1613 
L 953 1613 
Q 991 1019 1311 708 
Q 1631 397 2203 397 
Q 2534 397 2845 478 
Q 3156 559 3463 722 
L 3463 178 
Q 3153 47 2828 -22 
Q 2503 -91 2169 -91 
Q 1331 -91 842 396 
Q 353 884 353 1716 
Q 353 2575 817 3079 
Q 1281 3584 2069 3584 
Q 2775 3584 3186 3129 
Q 3597 2675 3597 1894 
z
M 3022 2063 
Q 3016 2534 2758 2815 
Q 2500 3097 2075 3097 
Q 1594 3097 1305 2825 
Q 1016 2553 972 2059 
L 3022 2063 
z
" transform="scale(0.015625)"/>
       <path id="DejaVuSans-20" transform="scale(0.015625)"/>
       <path id="DejaVuSans-28" d="M 1984 4856 
Q 1566 4138 1362 3434 
Q 1159 2731 1159 2009 
Q 1159 1288 1364 580 
Q 1569 -128 1984 -844 
L 1484 -844 
Q 1016 -109 783 600 
Q 550 1309 550 2009 
Q 550 2706 781 3412 
Q 1013 4119 1484 4856 
L 1984 4856 
z
" transform="scale(0.015625)"/>
       <path id="DejaVuSans-73" d="M 2834 3397 
L 2834 2853 
Q 2591 2978 2328 3040 
Q 2066 3103 1784 3103 
Q 1356 3103 1142 2972 
Q 928 2841 928 2578 
Q 928 2378 1081 2264 
Q 1234 2150 1697 2047 
L 1894 2003 
Q 2506 1872 2764 1633 
Q 3022 1394 3022 966 
Q 3022 478 2636 193 
Q 2250 -91 1575 -91 
Q 1294 -91 989 -36 
Q 684 19 347 128 
L 347 722 
Q 666 556 975 473 
Q 1284 391 1588 391 
Q 1994 391 2212 530 
Q 2431 669 2431 922 
Q 2431 1156 2273 1281 
Q 2116 1406 1581 1522 
L 1381 1569 
Q 847 1681 609 1914 
Q 372 2147 372 2553 
Q 372 3047 722 3315 
Q 1072 3584 1716 3584 
Q 2034 3584 2315 3537 
Q 2597 3491 2834 3397 
z
" transform="scale(0.015625)"/>
       <path id="DejaVuSans-29" d="M 513 4856 
L 1013 4856 
Q 1481 4119 1714 3412 
Q 1947 2706 1947 2009 
Q 1947 1309 1714 600 
Q 1481 -109 1013 -844 
L 513 -844 
Q 928 -128 1133 580 
Q 1338 1288 1338 2009 
Q 1338 2731 1133 3434 
Q 928 4138 513 4856 
z
" transform="scale(0.015625)"/>
      </defs>
      <use xlink:href="#DejaVuSans-54"/>
      <use xlink:href="#DejaVuSans-69" transform="translate(57.958984 0)"/>
      <use xlink:href="#DejaVuSans-6d" transform="translate(85.742188 0)"/>
      <use xlink:href="#DejaVuSans-65" transform="translate(183.154297 0)"/>
      <use xlink:href="#DejaVuSans-20" transform="translate(244.677734 0)"/>
      <use xlink:href="#DejaVuSans-28" transform="translate(276.464844 0)"/>
      <use xlink:href="#DejaVuSans-73" transform="translate(315.478516 0)"/>
      <use xlink:href="#DejaVuSans-29" transform="translate(367.578125 0)"/>
     </g>
    </g>
   </g>
   <g id="line2d_29">
    <path d="M 76.527273 234.594545 
L 76.548591 234.594545 
L 76.56991 234.33644 
L 76.591229 234.33644 
L 76.612547 234.33644 
L 76.633866 234.594545 
L 76.655185 234.594545 
L 76.676503 234.33644 
L 76.697822 234.594545 
L 76.719141 233.562122 
L 76.740459 233.562122 
L 76.761778 233.820228 
L 76.783097 233.562122 
L 76.804415 233.820228 
L 76.825734 233.820228 
L 76.847053 233.562122 
L 76.868371 233.562122 
L 76.88969 233.562122 
L 76.911009 233.820228 
L 76.932327 233.562122 
L 76.953646 233.562122 
L 76.974965 233.562122 
L 76.996283 233.820228 
L 77.017602 233.820228 
L 77.038921 233.562122 
L 77.06024 232.529699 
L 77.081558 232.787804 
L 77.102877 232.787804 
L 77.124196 232.787804 
L 77.145514 232.787804 
L 77.166833 233.04591 
L 77.188152 232.787804 
L 77.20947 233.04591 
L 77.230789 233.04591 
L 77.252108 232.787804 
L 77.273426 232.787804 
L 77.294745 232.529699 
L 77.316064 232.787804 
L 77.337382 232.787804 
L 77.358701 232.787804 
L 77.38002 232.529699 
L 77.401338 232.787804 
L 77.422657 232.787804 
L 77.443976 233.04591 
L 77.465294 232.787804 
L 77.486613 232.529699 
L 77.507932 232.787804 
L 77.52925 232.787804 
L 77.550569 233.04591 
L 77.571888 233.04591 
L 77.614525 232.787804 
L 77.657162 232.787804 
L 77.6998 232.787804 
L 77.742437 232.787804 
L 77.785074 233.04591 
L 77.827712 233.04591 
L 77.870349 231.497275 
L 77.912986 231.497275 
L 77.955624 231.755381 
L 77.998261 231.755381 
L 78.040898 231.755381 
L 78.083536 231.755381 
L 78.126173 231.755381 
L 78.16881 231.497275 
L 78.211448 231.755381 
L 78.254085 231.755381 
L 78.296722 231.497275 
L 78.33936 231.239169 
L 78.381997 231.755381 
L 78.424634 231.497275 
L 78.467272 231.755381 
L 78.509909 231.755381 
L 78.552546 231.497275 
L 78.595184 232.013487 
L 78.637821 231.755381 
L 78.744415 231.755381 
L 78.851008 232.013487 
L 78.957601 231.497275 
L 79.064195 231.755381 
L 79.170788 231.755381 
L 79.277381 231.755381 
L 79.383975 231.497275 
L 79.490568 231.755381 
L 79.597161 231.755381 
L 79.703755 230.464852 
L 79.810348 230.464852 
L 79.916941 230.206746 
L 80.023535 230.206746 
L 80.130128 230.206746 
L 80.236721 230.206746 
L 80.343315 230.464852 
L 80.449908 230.206746 
L 80.556502 230.206746 
L 80.663095 230.464852 
L 80.769688 230.464852 
L 80.982875 230.206746 
L 81.196062 230.464852 
L 81.409248 230.206746 
L 81.622435 230.206746 
L 81.835622 230.464852 
L 87.16529 228.400005 
L 92.494957 225.818946 
L 97.824625 225.818946 
L 119.143296 221.431146 
L 140.461967 214.720394 
L 161.780638 214.9785 
L 183.099309 214.204182 
L 204.41798 198.459725 
L 225.736651 198.717831 
L 247.055321 197.943513 
L 268.373992 198.459725 
L 289.692663 197.943513 
L 342.989341 171.616715 
L 396.286018 169.035656 
L 449.582695 171.100503 
L 502.879373 170.842397 
L 609.472727 113.801002 
" clip-path="url(#pde6d374fd3)" style="fill: none; stroke: #1f77b4; stroke-width: 1.8; stroke-linecap: square"/>
   </g>
   <g id="line2d_30">
    <path d="M 76.527273 233.562122 
L 76.548591 233.562122 
L 76.56991 233.304016 
L 76.591229 233.562122 
L 76.612547 233.304016 
L 76.633866 233.304016 
L 76.655185 233.304016 
L 76.676503 233.304016 
L 76.697822 233.304016 
L 76.719141 232.529699 
L 76.740459 232.529699 
L 76.761778 232.529699 
L 76.783097 232.529699 
L 76.804415 232.271593 
L 76.825734 232.529699 
L 76.847053 232.529699 
L 76.868371 232.529699 
L 76.88969 232.529699 
L 76.911009 232.529699 
L 76.932327 232.271593 
L 76.953646 232.529699 
L 76.974965 232.271593 
L 76.996283 232.529699 
L 77.017602 232.529699 
L 77.038921 232.271593 
L 77.06024 231.497275 
L 77.081558 231.239169 
L 77.102877 231.497275 
L 77.124196 231.239169 
L 77.145514 231.239169 
L 77.166833 231.239169 
L 77.188152 231.239169 
L 77.20947 231.239169 
L 77.230789 231.239169 
L 77.252108 231.239169 
L 77.273426 231.239169 
L 77.294745 231.239169 
L 77.316064 231.239169 
L 77.337382 231.239169 
L 77.358701 231.239169 
L 77.38002 231.239169 
L 77.401338 231.239169 
L 77.422657 231.497275 
L 77.443976 231.239169 
L 77.465294 231.239169 
L 77.486613 231.239169 
L 77.507932 231.497275 
L 77.52925 231.239169 
L 77.550569 231.239169 
L 77.571888 231.239169 
L 77.614525 231.497275 
L 77.657162 231.497275 
L 77.6998 231.239169 
L 77.742437 231.497275 
L 77.785074 231.497275 
L 77.827712 231.497275 
L 77.870349 229.94864 
L 77.912986 229.94864 
L 77.955624 230.206746 
L 77.998261 230.206746 
L 78.040898 230.206746 
L 78.083536 229.94864 
L 78.126173 230.206746 
L 78.16881 229.94864 
L 78.211448 230.206746 
L 78.254085 229.94864 
L 78.296722 229.94864 
L 78.33936 229.94864 
L 78.381997 229.94864 
L 78.424634 229.94864 
L 78.467272 229.94864 
L 78.509909 229.94864 
L 78.552546 229.94864 
L 78.595184 230.206746 
L 78.637821 230.206746 
L 78.744415 230.206746 
L 78.851008 230.206746 
L 78.957601 230.206746 
L 79.064195 229.94864 
L 79.170788 229.94864 
L 79.277381 229.94864 
L 79.383975 229.94864 
L 79.490568 229.94864 
L 79.597161 230.206746 
L 79.703755 228.400005 
L 79.810348 228.141899 
L 79.916941 228.141899 
L 80.023535 228.400005 
L 80.130128 228.141899 
L 80.236721 228.400005 
L 80.343315 228.658111 
L 80.449908 228.400005 
L 80.556502 228.400005 
L 80.663095 228.400005 
L 80.769688 228.400005 
L 80.982875 228.141899 
L 81.196062 228.400005 
L 81.409248 228.141899 
L 81.622435 228.141899 
L 81.835622 228.141899 
L 87.16529 225.818946 
L 92.494957 221.947358 
L 97.824625 221.947358 
L 119.143296 215.494712 
L 140.461967 200.266466 
L 161.780638 200.782677 
L 183.099309 203.621842 
L 204.41798 177.036938 
L 225.736651 174.713985 
L 247.055321 175.488303 
L 268.373992 173.423456 
L 289.692663 170.584291 
L 342.989341 129.545459 
L 396.286018 130.319777 
L 449.582695 128.771142 
L 502.879373 127.738718 
L 609.472727 37.917878 
" clip-path="url(#pde6d374fd3)" style="fill: none; stroke: #2ca02c; stroke-width: 1.8; stroke-linecap: square"/>
   </g>
   <g id="line2d_31">
    <path d="M 76.527273 233.562122 
L 76.548591 233.304016 
L 76.56991 233.562122 
L 76.591229 233.304016 
L 76.612547 233.562122 
L 76.633866 233.304016 
L 76.655185 233.304016 
L 76.676503 233.304016 
L 76.697822 233.304016 
L 76.719141 232.529699 
L 76.740459 232.529699 
L 76.761778 232.271593 
L 76.783097 232.529699 
L 76.804415 232.529699 
L 76.825734 232.529699 
L 76.847053 232.529699 
L 76.868371 232.271593 
L 76.88969 232.271593 
L 76.911009 232.529699 
L 76.932327 232.529699 
L 76.953646 232.529699 
L 76.974965 232.529699 
L 76.996283 232.529699 
L 77.017602 232.529699 
L 77.038921 232.271593 
L 77.06024 231.239169 
L 77.081558 231.497275 
L 77.102877 231.497275 
L 77.124196 231.497275 
L 77.145514 231.497275 
L 77.166833 231.239169 
L 77.188152 231.239169 
L 77.20947 231.239169 
L 77.230789 231.239169 
L 77.252108 231.239169 
L 77.273426 231.239169 
L 77.294745 231.239169 
L 77.316064 231.497275 
L 77.337382 231.239169 
L 77.358701 231.497275 
L 77.38002 231.239169 
L 77.401338 231.239169 
L 77.422657 231.239169 
L 77.443976 231.239169 
L 77.465294 231.497275 
L 77.486613 231.239169 
L 77.507932 231.239169 
L 77.52925 231.239169 
L 77.550569 231.497275 
L 77.571888 231.239169 
L 77.614525 231.239169 
L 77.657162 231.497275 
L 77.6998 231.239169 
L 77.742437 231.497275 
L 77.785074 231.239169 
L 77.827712 231.497275 
L 77.870349 230.206746 
L 77.912986 229.94864 
L 77.955624 229.94864 
L 77.998261 230.206746 
L 78.040898 229.94864 
L 78.083536 230.206746 
L 78.126173 229.94864 
L 78.16881 230.206746 
L 78.211448 230.206746 
L 78.254085 230.206746 
L 78.296722 230.206746 
L 78.33936 230.206746 
L 78.381997 230.206746 
L 78.424634 230.206746 
L 78.467272 229.94864 
L 78.509909 230.206746 
L 78.552546 229.94864 
L 78.595184 230.206746 
L 78.637821 230.206746 
L 78.744415 229.94864 
L 78.851008 229.94864 
L 78.957601 229.94864 
L 79.064195 230.206746 
L 79.170788 229.94864 
L 79.277381 229.94864 
L 79.383975 230.206746 
L 79.490568 229.94864 
L 79.597161 229.94864 
L 79.703755 228.400005 
L 79.810348 228.400005 
L 79.916941 227.883793 
L 80.023535 228.141899 
L 80.130128 227.883793 
L 80.236721 228.141899 
L 80.343315 227.883793 
L 80.449908 228.141899 
L 80.556502 227.883793 
L 80.663095 228.141899 
L 80.769688 228.141899 
L 80.982875 228.141899 
L 81.196062 228.141899 
L 81.409248 228.141899 
L 81.622435 228.141899 
L 81.835622 228.141899 
L 87.16529 226.077052 
L 92.494957 221.947358 
L 97.824625 221.947358 
L 119.143296 215.494712 
L 140.461967 203.621842 
L 161.780638 201.298889 
L 183.099309 200.524572 
L 204.41798 178.843679 
L 225.736651 179.359891 
L 247.055321 175.230197 
L 268.373992 173.423456 
L 289.692663 171.100503 
L 342.989341 128.771142 
L 396.286018 129.803565 
L 449.582695 128.771142 
L 502.879373 127.738718 
L 609.472727 36.885455 
" clip-path="url(#pde6d374fd3)" style="fill: none; stroke: #ff7f0e; stroke-width: 1.8; stroke-linecap: square"/>
   </g>
   <g id="patch_3">
    <path d="M 49.88 244.48 
L 49.88 27 
" style="fill: none; stroke: #000000; stroke-width: 0.8; stroke-linejoin: miter; stroke-linecap: square"/>
   </g>
   <g id="patch_4">
    <path d="M 636.12 244.48 
L 636.12 27 
" style="fill: none; stroke: #000000; stroke-width: 0.8; stroke-linejoin: miter; stroke-linecap: square"/>
   </g>
   <g id="patch_5">
    <path d="M 49.88 244.48 
L 636.12 244.48 
" style="fill: none; stroke: #000000; stroke-width: 0.8; stroke-linejoin: miter; stroke-linecap: square"/>
   </g>
   <g id="patch_6">
    <path d="M 49.88 27 
L 636.12 27 
" style="fill: none; stroke: #000000; stroke-width: 0.8; stroke-linejoin: miter; stroke-linecap: square"/>
   </g>
   <g id="text_17">
    <!-- Fibonacci — prove:rwm -->
    <g transform="translate(272.984688 21) scale(0.12 -0.12)">
     <defs>
      <path id="DejaVuSans-46" d="M 628 4666 
L 3309 4666 
L 3309 4134 
L 1259 4134 
L 1259 2759 
L 3109 2759 
L 3109 2228 
L 1259 2228 
L 1259 0 
L 628 0 
L 628 4666 
z
" transform="scale(0.015625)"/>
      <path id="DejaVuSans-62" d="M 3116 1747 
Q 3116 2381 2855 2742 
Q 2594 3103 2138 3103 
Q 1681 3103 1420 2742 
Q 1159 2381 1159 1747 
Q 1159 1113 1420 752 
Q 1681 391 2138 391 
Q 2594 391 2855 752 
Q 3116 1113 3116 1747 
z
M 1159 2969 
Q 1341 3281 1617 3432 
Q 1894 3584 2278 3584 
Q 2916 3584 3314 3078 
Q 3713 2572 3713 1747 
Q 3713 922 3314 415 
Q 2916 -91 2278 -91 
Q 1894 -91 1617 61 
Q 1341 213 1159 525 
L 1159 0 
L 581 0 
L 581 4863 
L 1159 4863 
L 1159 2969 
z
" transform="scale(0.015625)"/>
      <path id="DejaVuSans-6f" d="M 1959 3097 
Q 1497 3097 1228 2736 
Q 959 2375 959 1747 
Q 959 1119 1226 758 
Q 1494 397 1959 397 
Q 2419 397 2687 759 
Q 2956 1122 2956 1747 
Q 2956 2369 2687 2733 
Q 2419 3097 1959 3097 
z
M 1959 3584 
Q 2709 3584 3137 3096 
Q 3566 2609 3566 1747 
Q 3566 888 3137 398 
Q 2709 -91 1959 -91 
Q 1206 -91 779 398 
Q 353 888 353 1747 
Q 353 2609 779 3096 
Q 1206 3584 1959 3584 
z
" transform="scale(0.015625)"/>
      <path id="DejaVuSans-61" d="M 2194 1759 
Q 1497 1759 1228 1600 
Q 959 1441 959 1056 
Q 959 750 1161 570 
Q 1363 391 1709 391 
Q 2188 391 2477 730 
Q 2766 1069 2766 1631 
L 2766 1759 
L 2194 1759 
z
M 3341 1997 
L 3341 0 
L 2766 0 
L 2766 531 
Q 2569 213 2275 61 
Q 1981 -91 1556 -91 
Q 1019 -91 701 211 
Q 384 513 384 1019 
Q 384 1609 779 1909 
Q 1175 2209 1959 2209 
L 2766 2209 
L 2766 2266 
Q 2766 2663 2505 2880 
Q 2244 3097 1772 3097 
Q 1472 3097 1187 3025 
Q 903 2953 641 2809 
L 641 3341 
Q 956 3463 1253 3523 
Q 1550 3584 1831 3584 
Q 2591 3584 2966 3190 
Q 3341 2797 3341 1997 
z
" transform="scale(0.015625)"/>
      <path id="DejaVuSans-63" d="M 3122 3366 
L 3122 2828 
Q 2878 2963 2633 3030 
Q 2388 3097 2138 3097 
Q 1578 3097 1268 2742 
Q 959 2388 959 1747 
Q 959 1106 1268 751 
Q 1578 397 2138 397 
Q 2388 397 2633 464 
Q 2878 531 3122 666 
L 3122 134 
Q 2881 22 2623 -34 
Q 2366 -91 2075 -91 
Q 1284 -91 818 406 
Q 353 903 353 1747 
Q 353 2603 823 3093 
Q 1294 3584 2113 3584 
Q 2378 3584 2631 3529 
Q 2884 3475 3122 3366 
z
" transform="scale(0.015625)"/>
      <path id="DejaVuSans-2014" d="M 313 1978 
L 6088 1978 
L 6088 1528 
L 313 1528 
L 313 1978 
z
" transform="scale(0.015625)"/>
      <path id="DejaVuSans-72" d="M 2631 2963 
Q 2534 3019 2420 3045 
Q 2306 3072 2169 3072 
Q 1681 3072 1420 2755 
Q 1159 2438 1159 1844 
L 1159 0 
L 581 0 
L 581 3500 
L 1159 3500 
L 1159 2956 
Q 1341 3275 1631 3429 
Q 1922 3584 2338 3584 
Q 2397 3584 2469 3576 
Q 2541 3569 2628 3553 
L 2631 2963 
z
" transform="scale(0.015625)"/>
      <path id="DejaVuSans-76" d="M 191 3500 
L 800 3500 
L 1894 563 
L 2988 3500 
L 3597 3500 
L 2284 0 
L 1503 0 
L 191 3500 
z
" transform="scale(0.015625)"/>
      <path id="DejaVuSans-3a" d="M 750 794 
L 1409 794 
L 1409 0 
L 750 0 
L 750 794 
z
M 750 3309 
L 1409 3309 
L 1409 2516 
L 750 2516 
L 750 3309 
z
" transform="scale(0.015625)"/>
      <path id="DejaVuSans-77" d="M 269 3500 
L 844 3500 
L 1563 769 
L 2278 3500 
L 2956 3500 
L 3675 769 
L 4391 3500 
L 4966 3500 
L 4050 0 
L 3372 0 
L 2619 2869 
L 1863 0 
L 1184 0 
L 269 3500 
z
" transform="scale(0.015625)"/>
     </defs>
     <use xlink:href="#DejaVuSans-46"/>
     <use xlink:href="#DejaVuSans-69" transform="translate(50.269531 0)"/>
     <use xlink:href="#DejaVuSans-62" transform="translate(78.052734 0)"/>
     <use xlink:href="#DejaVuSans-6f" transform="translate(141.529297 0)"/>
     <use xlink:href="#DejaVuSans-6e" transform="translate(202.710938 0)"/>
     <use xlink:href="#DejaVuSans-61" transform="translate(266.089844 0)"/>
     <use xlink:href="#DejaVuSans-63" transform="translate(327.369141 0)"/>
     <use xlink:href="#DejaVuSans-63" transform="translate(382.349609 0)"/>
     <use xlink:href="#DejaVuSans-69" transform="translate(437.330078 0)"/>
     <use xlink:href="#DejaVuSans-20" transform="translate(465.113281 0)"/>
     <use xlink:href="#DejaVuSans-2014" transform="translate(496.900391 0)"/>
     <use xlink:href="#DejaVuSans-20" transform="translate(596.900391 0)"/>
     <use xlink:href="#DejaVuSans-70" transform="translate(628.6875 0)"/>
     <use xlink:href="#DejaVuSans-72" transform="translate(692.164062 0)"/>
     <use xlink:href="#DejaVuSans-6f" transform="translate(731.027344 0)"/>
     <use xlink:href="#DejaVuSans-76" transform="translate(792.208984 0)"/>
     <use xlink:href="#DejaVuSans-65" transform="translate(851.388672 0)"/>
     <use xlink:href="#DejaVuSans-3a" transform="translate(912.912109 0)"/>
     <use xlink:href="#DejaVuSans-72" transform="translate(946.603516 0)"/>
     <use xlink:href="#DejaVuSans-77" transform="translate(987.716797 0)"/>
     <use xlink:href="#DejaVuSans-6d" transform="translate(1069.503906 0)"/>
    </g>
   </g>
   <g id="legend_1">
    <g id="line2d_32">
     <path d="M 58.88 40.098438 
L 68.88 40.098438 
L 78.88 40.098438 
" style="fill: none; stroke: #1f77b4; stroke-width: 1.8; stroke-linecap: square"/>
    </g>
    <g id="text_18">
     <!-- 32-reg -->
     <g transform="translate(86.88 43.598438) scale(0.1 -0.1)">
      <defs>
       <path id="DejaVuSans-2d" d="M 313 2009 
L 1997 2009 
L 1997 1497 
L 313 1497 
L 313 2009 
z
" transform="scale(0.015625)"/>
       <path id="DejaVuSans-67" d="M 2906 1791 
Q 2906 2416 2648 2759 
Q 2391 3103 1925 3103 
Q 1463 3103 1205 2759 
Q 947 2416 947 1791 
Q 947 1169 1205 825 
Q 1463 481 1925 481 
Q 2391 481 2648 825 
Q 2906 1169 2906 1791 
z
M 3481 434 
Q 3481 -459 3084 -895 
Q 2688 -1331 1869 -1331 
Q 1566 -1331 1297 -1286 
Q 1028 -1241 775 -1147 
L 775 -588 
Q 1028 -725 1275 -790 
Q 1522 -856 1778 -856 
Q 2344 -856 2625 -561 
Q 2906 -266 2906 331 
L 2906 616 
Q 2728 306 2450 153 
Q 2172 0 1784 0 
Q 1141 0 747 490 
Q 353 981 353 1791 
Q 353 2603 747 3093 
Q 1141 3584 1784 3584 
Q 2172 3584 2450 3431 
Q 2728 3278 2906 2969 
L 2906 3500 
L 3481 3500 
L 3481 434 
z
" transform="scale(0.015625)"/>
      </defs>
      <use xlink:href="#DejaVuSans-33"/>
      <use xlink:href="#DejaVuSans-32" transform="translate(63.623047 0)"/>
      <use xlink:href="#DejaVuSans-2d" transform="translate(127.246094 0)"/>
      <use xlink:href="#DejaVuSans-72" transform="translate(163.330078 0)"/>
      <use xlink:href="#DejaVuSans-65" transform="translate(202.193359 0)"/>
      <use xlink:href="#DejaVuSans-67" transform="translate(263.716797 0)"/>
     </g>
    </g>
    <g id="line2d_33">
     <path d="M 58.88 54.776563 
L 68.88 54.776563 
L 78.88 54.776563 
" style="fill: none; stroke: #2ca02c; stroke-width: 1.8; stroke-linecap: square"/>
    </g>
    <g id="text_19">
     <!-- mem-batch -->
     <g transform="translate(86.88 58.276563) scale(0.1 -0.1)">
      <defs>
       <path id="DejaVuSans-68" d="M 3513 2113 
L 3513 0 
L 2938 0 
L 2938 2094 
Q 2938 2591 2744 2837 
Q 2550 3084 2163 3084 
Q 1697 3084 1428 2787 
Q 1159 2491 1159 1978 
L 1159 0 
L 581 0 
L 581 4863 
L 1159 4863 
L 1159 2956 
Q 1366 3272 1645 3428 
Q 1925 3584 2291 3584 
Q 2894 3584 3203 3211 
Q 3513 2838 3513 2113 
z
" transform="scale(0.015625)"/>
      </defs>
      <use xlink:href="#DejaVuSans-6d"/>
      <use xlink:href="#DejaVuSans-65" transform="translate(97.412109 0)"/>
      <use xlink:href="#DejaVuSans-6d" transform="translate(158.935547 0)"/>
      <use xlink:href="#DejaVuSans-2d" transform="translate(256.347656 0)"/>
      <use xlink:href="#DejaVuSans-62" transform="translate(292.431641 0)"/>
      <use xlink:href="#DejaVuSans-61" transform="translate(355.908203 0)"/>
      <use xlink:href="#DejaVuSans-74" transform="translate(417.1875 0)"/>
      <use xlink:href="#DejaVuSans-63" transform="translate(456.396484 0)"/>
      <use xlink:href="#DejaVuSans-68" transform="translate(511.376953 0)"/>
     </g>
    </g>
    <g id="line2d_34">
     <path d="M 58.88 69.454688 
L 68.88 69.454688 
L 78.88 69.454688 
" style="fill: none; stroke: #ff7f0e; stroke-width: 1.8; stroke-linecap: square"/>
    </g>
    <g id="text_20">
     <!-- vanilla -->
     <g transform="translate(86.88 72.954688) scale(0.1 -0.1)">
      <defs>
       <path id="DejaVuSans-6c" d="M 603 4863 
L 1178 4863 
L 1178 0 
L 603 0 
L 603 4863 
z
" transform="scale(0.015625)"/>
      </defs>
      <use xlink:href="#DejaVuSans-76"/>
      <use xlink:href="#DejaVuSans-61" transform="translate(59.179688 0)"/>
      <use xlink:href="#DejaVuSans-6e" transform="translate(120.458984 0)"/>
      <use xlink:href="#DejaVuSans-69" transform="translate(183.837891 0)"/>
      <use xlink:href="#DejaVuSans-6c" transform="translate(211.621094 0)"/>
      <use xlink:href="#DejaVuSans-6c" transform="translate(239.404297 0)"/>
      <use xlink:href="#DejaVuSans-61" transform="translate(267.1875 0)"/>
     </g>
    </g>
   </g>
  </g>
 </g>
 <defs>
  <clipPath id="pde6d374fd3">
   <rect x="49.88" y="27" width="586.24" height="217.48"/>
  </clipPath>
 </defs>
</svg>
