<?xml version="1.0" encoding="utf-8" standalone="no"?>
<!DOCTYPE svg PUBLIC "-//W3C//DTD SVG 1.1//EN"
  "http://www.w3.org/Graphics/SVG/1.1/DTD/svg11.dtd">
<svg xmlns:xlink="http://www.w3.org/1999/xlink" width="648pt" height="288pt" viewBox="0 0 648 288" xmlns="http://www.w3.org/2000/svg" version="1.1">
 <metadata>
  <rdf:RDF xmlns:dc="http://purl.org/dc/elements/1.1/" xmlns:cc="http://creativecommons.org/ns#" xmlns:rdf="http://www.w3.org/1999/02/22-rdf-syntax-ns#">
   <cc:Work>
    <dc:type rdf:resource="http://purl.org/dc/dcmitype/StillImage"/>
    <dc:date>2025-09-10T11:05:47.215519</dc:date>
    <dc:format>image/svg+xml</dc:format>
    <dc:creator>
     <cc:Agent>
      <dc:title>Matplotlib v3.10.6, https://matplotlib.org/</dc:title>
     </cc:Agent>
    </dc:creator>
   </cc:Work>
  </rdf:RDF>
 </metadata>
 <defs>
  <style type="text/css">*{stroke-linejoin: round; stroke-linecap: butt}</style>
 </defs>
 <g id="figure_1">
  <g id="patch_1">
   <path d="M 0 288 
L 648 288 
L 648 0 
L 0 0 
z
" style="fill: #ffffff"/>
  </g>
  <g id="axes_1">
   <g id="patch_2">
    <path d="M 49.88 244.48 
L 636.12 244.48 
L 636.12 27 
L 49.88 27 
z
" style="fill: #ffffff"/>
   </g>
   <g id="matplotlib.axis_1">
    <g id="xtick_1">
     <g id="line2d_1">
      <path d="M 76.505954 244.48 
L 76.505954 27 
" clip-path="url(#pe786a29897)" style="fill: none; stroke: #b0b0b0; stroke-opacity: 0.25; stroke-width: 0.8; stroke-linecap: square"/>
     </g>
     <g id="line2d_2">
      <defs>
       <path id="mf5cefd16d2" d="M 0 0 
L 0 3.5 
" style="stroke: #000000; stroke-width: 0.8"/>
      </defs>
      <g>
       <use xlink:href="#mf5cefd16d2" x="76.505954" y="244.48" style="stroke: #000000; stroke-width: 0.8"/>
      </g>
     </g>
     <g id="text_1">
      <!-- 0 -->
      <g transform="translate(73.324704 259.078438) scale(0.1 -0.1)">
       <defs>
        <path id="DejaVuSans-30" d="M 2034 4250 
Q 1547 4250 1301 3770 
Q 1056 3291 1056 2328 
Q 1056 1369 1301 889 
Q 1547 409 2034 409 
Q 2525 409 2770 889 
Q 3016 1369 3016 2328 
Q 3016 3291 2770 3770 
Q 2525 4250 2034 4250 
z
M 2034 4750 
Q 2819 4750 3233 4129 
Q 3647 3509 3647 2328 
Q 3647 1150 3233 529 
Q 2819 -91 2034 -91 
Q 1250 -91 836 529 
Q 422 1150 422 2328 
Q 422 3509 836 4129 
Q 1250 4750 2034 4750 
z
" transform="scale(0.015625)"/>
       </defs>
       <use xlink:href="#DejaVuSans-30"/>
      </g>
     </g>
    </g>
    <g id="xtick_2">
     <g id="line2d_3">
      <path d="M 183.099309 244.48 
L 183.099309 27 
" clip-path="url(#pe786a29897)" style="fill: none; stroke: #b0b0b0; stroke-opacity: 0.25; stroke-width: 0.8; stroke-linecap: square"/>
     </g>
     <g id="line2d_4">
      <g>
       <use xlink:href="#mf5cefd16d2" x="183.099309" y="244.48" style="stroke: #000000; stroke-width: 0.8"/>
      </g>
     </g>
     <g id="text_2">
      <!-- 5000 -->
      <g transform="translate(170.374309 259.078438) scale(0.1 -0.1)">
       <defs>
        <path id="DejaVuSans-35" d="M 691 4666 
L 3169 4666 
L 3169 4134 
L 1269 4134 
L 1269 2991 
Q 1406 3038 1543 3061 
Q 1681 3084 1819 3084 
Q 2600 3084 3056 2656 
Q 3513 2228 3513 1497 
Q 3513 744 3044 326 
Q 2575 -91 1722 -91 
Q 1428 -91 1123 -41 
Q 819 9 494 109 
L 494 744 
Q 775 591 1075 516 
Q 1375 441 1709 441 
Q 2250 441 2565 725 
Q 2881 1009 2881 1497 
Q 2881 1984 2565 2268 
Q 2250 2553 1709 2553 
Q 1456 2553 1204 2497 
Q 953 2441 691 2322 
L 691 4666 
z
" transform="scale(0.015625)"/>
       </defs>
       <use xlink:href="#DejaVuSans-35"/>
       <use xlink:href="#DejaVuSans-30" transform="translate(63.623047 0)"/>
       <use xlink:href="#DejaVuSans-30" transform="translate(127.246094 0)"/>
       <use xlink:href="#DejaVuSans-30" transform="translate(190.869141 0)"/>
      </g>
     </g>
    </g>
    <g id="xtick_3">
     <g id="line2d_5">
      <path d="M 289.692663 244.48 
L 289.692663 27 
" clip-path="url(#pe786a29897)" style="fill: none; stroke: #b0b0b0; stroke-opacity: 0.25; stroke-width: 0.8; stroke-linecap: square"/>
     </g>
     <g id="line2d_6">
      <g>
       <use xlink:href="#mf5cefd16d2" x="289.692663" y="244.48" style="stroke: #000000; stroke-width: 0.8"/>
      </g>
     </g>
     <g id="text_3">
      <!-- 10000 -->
      <g transform="translate(273.786413 259.078438) scale(0.1 -0.1)">
       <defs>
        <path id="DejaVuSans-31" d="M 794 531 
L 1825 531 
L 1825 4091 
L 703 3866 
L 703 4441 
L 1819 4666 
L 2450 4666 
L 2450 531 
L 3481 531 
L 3481 0 
L 794 0 
L 794 531 
z
" transform="scale(0.015625)"/>
       </defs>
       <use xlink:href="#DejaVuSans-31"/>
       <use xlink:href="#DejaVuSans-30" transform="translate(63.623047 0)"/>
       <use xlink:href="#DejaVuSans-30" transform="translate(127.246094 0)"/>
       <use xlink:href="#DejaVuSans-30" transform="translate(190.869141 0)"/>
       <use xlink:href="#DejaVuSans-30" transform="translate(254.492188 0)"/>
      </g>
     </g>
    </g>
    <g id="xtick_4">
     <g id="line2d_7">
      <path d="M 396.286018 244.48 
L 396.286018 27 
" clip-path="url(#pe786a29897)" style="fill: none; stroke: #b0b0b0; stroke-opacity: 0.25; stroke-width: 0.8; stroke-linecap: square"/>
     </g>
     <g id="line2d_8">
      <g>
       <use xlink:href="#mf5cefd16d2" x="396.286018" y="244.48" style="stroke: #000000; stroke-width: 0.8"/>
      </g>
     </g>
     <g id="text_4">
      <!-- 15000 -->
      <g transform="translate(380.379768 259.078438) scale(0.1 -0.1)">
       <use xlink:href="#DejaVuSans-31"/>
       <use xlink:href="#DejaVuSans-35" transform="translate(63.623047 0)"/>
       <use xlink:href="#DejaVuSans-30" transform="translate(127.246094 0)"/>
       <use xlink:href="#DejaVuSans-30" transform="translate(190.869141 0)"/>
       <use xlink:href="#DejaVuSans-30" transform="translate(254.492188 0)"/>
      </g>
     </g>
    </g>
    <g id="xtick_5">
     <g id="line2d_9">
      <path d="M 502.879373 244.48 
L 502.879373 27 
" clip-path="url(#pe786a29897)" style="fill: none; stroke: #b0b0b0; stroke-opacity: 0.25; stroke-width: 0.8; stroke-linecap: square"/>
     </g>
     <g id="line2d_10">
      <g>
       <use xlink:href="#mf5cefd16d2" x="502.879373" y="244.48" style="stroke: #000000; stroke-width: 0.8"/>
      </g>
     </g>
     <g id="text_5">
      <!-- 20000 -->
      <g transform="translate(486.973123 259.078438) scale(0.1 -0.1)">
       <defs>
        <path id="DejaVuSans-32" d="M 1228 531 
L 3431 531 
L 3431 0 
L 469 0 
L 469 531 
Q 828 903 1448 1529 
Q 2069 2156 2228 2338 
Q 2531 2678 2651 2914 
Q 2772 3150 2772 3378 
Q 2772 3750 2511 3984 
Q 2250 4219 1831 4219 
Q 1534 4219 1204 4116 
Q 875 4013 500 3803 
L 500 4441 
Q 881 4594 1212 4672 
Q 1544 4750 1819 4750 
Q 2544 4750 2975 4387 
Q 3406 4025 3406 3419 
Q 3406 3131 3298 2873 
Q 3191 2616 2906 2266 
Q 2828 2175 2409 1742 
Q 1991 1309 1228 531 
z
" transform="scale(0.015625)"/>
       </defs>
       <use xlink:href="#DejaVuSans-32"/>
       <use xlink:href="#DejaVuSans-30" transform="translate(63.623047 0)"/>
       <use xlink:href="#DejaVuSans-30" transform="translate(127.246094 0)"/>
       <use xlink:href="#DejaVuSans-30" transform="translate(190.869141 0)"/>
       <use xlink:href="#DejaVuSans-30" transform="translate(254.492188 0)"/>
      </g>
     </g>
    </g>
    <g id="xtick_6">
     <g id="line2d_11">
      <path d="M 609.472727 244.48 
L 609.472727 27 
" clip-path="url(#pe786a29897)" style="fill: none; stroke: #b0b0b0; stroke-opacity: 0.25; stroke-width: 0.8; stroke-linecap: square"/>
     </g>
     <g id="line2d_12">
      <g>
       <use xlink:href="#mf5cefd16d2" x="609.472727" y="244.48" style="stroke: #000000; stroke-width: 0.8"/>
      </g>
     </g>
     <g id="text_6">
      <!-- 25000 -->
      <g transform="translate(593.566477 259.078438) scale(0.1 -0.1)">
       <use xlink:href="#DejaVuSans-32"/>
       <use xlink:href="#DejaVuSans-35" transform="translate(63.623047 0)"/>
       <use xlink:href="#DejaVuSans-30" transform="translate(127.246094 0)"/>
       <use xlink:href="#DejaVuSans-30" transform="translate(190.869141 0)"/>
       <use xlink:href="#DejaVuSans-30" transform="translate(254.492188 0)"/>
      </g>
     </g>
    </g>
    <g id="text_7">
     <!-- Input -->
     <g transform="translate(328.758438 273.516406) scale(0.11 -0.11)">
      <defs>
       <path id="DejaVuSans-49" d="M 628 4666 
L 1259 4666 
L 1259 0 
L 628 0 
L 628 4666 
z
" transform="scale(0.015625)"/>
       <path id="DejaVuSans-6e" d="M 3513 2113 
L 3513 0 
L 2938 0 
L 2938 2094 
Q 2938 2591 2744 2837 
Q 2550 3084 2163 3084 
Q 1697 3084 1428 2787 
Q 1159 2491 1159 1978 
L 1159 0 
L 581 0 
L 581 3500 
L 1159 3500 
L 1159 2956 
Q 1366 3272 1645 3428 
Q 1925 3584 2291 3584 
Q 2894 3584 3203 3211 
Q 3513 2838 3513 2113 
z
" transform="scale(0.015625)"/>
       <path id="DejaVuSans-70" d="M 1159 525 
L 1159 -1331 
L 581 -1331 
L 581 3500 
L 1159 3500 
L 1159 2969 
Q 1341 3281 1617 3432 
Q 1894 3584 2278 3584 
Q 2916 3584 3314 3078 
Q 3713 2572 3713 1747 
Q 3713 922 3314 415 
Q 2916 -91 2278 -91 
Q 1894 -91 1617 61 
Q 1341 213 1159 525 
z
M 3116 1747 
Q 3116 2381 2855 2742 
Q 2594 3103 2138 3103 
Q 1681 3103 1420 2742 
Q 1159 2381 1159 1747 
Q 1159 1113 1420 752 
Q 1681 391 2138 391 
Q 2594 391 2855 752 
Q 3116 1113 3116 1747 
z
" transform="scale(0.015625)"/>
       <path id="DejaVuSans-75" d="M 544 1381 
L 544 3500 
L 1119 3500 
L 1119 1403 
Q 1119 906 1312 657 
Q 1506 409 1894 409 
Q 2359 409 2629 706 
Q 2900 1003 2900 1516 
L 2900 3500 
L 3475 3500 
L 3475 0 
L 2900 0 
L 2900 538 
Q 2691 219 2414 64 
Q 2138 -91 1772 -91 
Q 1169 -91 856 284 
Q 544 659 544 1381 
z
M 1991 3584 
L 1991 3584 
z
" transform="scale(0.015625)"/>
       <path id="DejaVuSans-74" d="M 1172 4494 
L 1172 3500 
L 2356 3500 
L 2356 3053 
L 1172 3053 
L 1172 1153 
Q 1172 725 1289 603 
Q 1406 481 1766 481 
L 2356 481 
L 2356 0 
L 1766 0 
Q 1100 0 847 248 
Q 594 497 594 1153 
L 594 3053 
L 172 3053 
L 172 3500 
L 594 3500 
L 594 4494 
L 1172 4494 
z
" transform="scale(0.015625)"/>
      </defs>
      <use xlink:href="#DejaVuSans-49"/>
      <use xlink:href="#DejaVuSans-6e" transform="translate(29.492188 0)"/>
      <use xlink:href="#DejaVuSans-70" transform="translate(92.871094 0)"/>
      <use xlink:href="#DejaVuSans-75" transform="translate(156.347656 0)"/>
      <use xlink:href="#DejaVuSans-74" transform="translate(219.726562 0)"/>
     </g>
    </g>
   </g>
   <g id="matplotlib.axis_2">
    <g id="ytick_1">
     <g id="line2d_13">
      <path d="M 49.88 216.889254 
L 636.12 216.889254 
" clip-path="url(#pe786a29897)" style="fill: none; stroke: #b0b0b0; stroke-opacity: 0.25; stroke-width: 0.8; stroke-linecap: square"/>
     </g>
     <g id="line2d_14">
      <defs>
       <path id="m9efcbb516b" d="M 0 0 
L -3.5 0 
" style="stroke: #000000; stroke-width: 0.8"/>
      </defs>
      <g>
       <use xlink:href="#m9efcbb516b" x="49.88" y="216.889254" style="stroke: #000000; stroke-width: 0.8"/>
      </g>
     </g>
     <g id="text_8">
      <!-- 2.2 -->
      <g transform="translate(26.976875 220.688472) scale(0.1 -0.1)">
       <defs>
        <path id="DejaVuSans-2e" d="M 684 794 
L 1344 794 
L 1344 0 
L 684 0 
L 684 794 
z
" transform="scale(0.015625)"/>
       </defs>
       <use xlink:href="#DejaVuSans-32"/>
       <use xlink:href="#DejaVuSans-2e" transform="translate(63.623047 0)"/>
       <use xlink:href="#DejaVuSans-32" transform="translate(95.410156 0)"/>
      </g>
     </g>
    </g>
    <g id="ytick_2">
     <g id="line2d_15">
      <path d="M 49.88 180.003229 
L 636.12 180.003229 
" clip-path="url(#pe786a29897)" style="fill: none; stroke: #b0b0b0; stroke-opacity: 0.25; stroke-width: 0.8; stroke-linecap: square"/>
     </g>
     <g id="line2d_16">
      <g>
       <use xlink:href="#m9efcbb516b" x="49.88" y="180.003229" style="stroke: #000000; stroke-width: 0.8"/>
      </g>
     </g>
     <g id="text_9">
      <!-- 2.3 -->
      <g transform="translate(26.976875 183.802448) scale(0.1 -0.1)">
       <defs>
        <path id="DejaVuSans-33" d="M 2597 2516 
Q 3050 2419 3304 2112 
Q 3559 1806 3559 1356 
Q 3559 666 3084 287 
Q 2609 -91 1734 -91 
Q 1441 -91 1130 -33 
Q 819 25 488 141 
L 488 750 
Q 750 597 1062 519 
Q 1375 441 1716 441 
Q 2309 441 2620 675 
Q 2931 909 2931 1356 
Q 2931 1769 2642 2001 
Q 2353 2234 1838 2234 
L 1294 2234 
L 1294 2753 
L 1863 2753 
Q 2328 2753 2575 2939 
Q 2822 3125 2822 3475 
Q 2822 3834 2567 4026 
Q 2313 4219 1838 4219 
Q 1578 4219 1281 4162 
Q 984 4106 628 3988 
L 628 4550 
Q 988 4650 1302 4700 
Q 1616 4750 1894 4750 
Q 2613 4750 3031 4423 
Q 3450 4097 3450 3541 
Q 3450 3153 3228 2886 
Q 3006 2619 2597 2516 
z
" transform="scale(0.015625)"/>
       </defs>
       <use xlink:href="#DejaVuSans-32"/>
       <use xlink:href="#DejaVuSans-2e" transform="translate(63.623047 0)"/>
       <use xlink:href="#DejaVuSans-33" transform="translate(95.410156 0)"/>
      </g>
     </g>
    </g>
    <g id="ytick_3">
     <g id="line2d_17">
      <path d="M 49.88 143.117205 
L 636.12 143.117205 
" clip-path="url(#pe786a29897)" style="fill: none; stroke: #b0b0b0; stroke-opacity: 0.25; stroke-width: 0.8; stroke-linecap: square"/>
     </g>
     <g id="line2d_18">
      <g>
       <use xlink:href="#m9efcbb516b" x="49.88" y="143.117205" style="stroke: #000000; stroke-width: 0.8"/>
      </g>
     </g>
     <g id="text_10">
      <!-- 2.4 -->
      <g transform="translate(26.976875 146.916424) scale(0.1 -0.1)">
       <defs>
        <path id="DejaVuSans-34" d="M 2419 4116 
L 825 1625 
L 2419 1625 
L 2419 4116 
z
M 2253 4666 
L 3047 4666 
L 3047 1625 
L 3713 1625 
L 3713 1100 
L 3047 1100 
L 3047 0 
L 2419 0 
L 2419 1100 
L 313 1100 
L 313 1709 
L 2253 4666 
z
" transform="scale(0.015625)"/>
       </defs>
       <use xlink:href="#DejaVuSans-32"/>
       <use xlink:href="#DejaVuSans-2e" transform="translate(63.623047 0)"/>
       <use xlink:href="#DejaVuSans-34" transform="translate(95.410156 0)"/>
      </g>
     </g>
    </g>
    <g id="ytick_4">
     <g id="line2d_19">
      <path d="M 49.88 106.23118 
L 636.12 106.23118 
" clip-path="url(#pe786a29897)" style="fill: none; stroke: #b0b0b0; stroke-opacity: 0.25; stroke-width: 0.8; stroke-linecap: square"/>
     </g>
     <g id="line2d_20">
      <g>
       <use xlink:href="#m9efcbb516b" x="49.88" y="106.23118" style="stroke: #000000; stroke-width: 0.8"/>
      </g>
     </g>
     <g id="text_11">
      <!-- 2.5 -->
      <g transform="translate(26.976875 110.030399) scale(0.1 -0.1)">
       <use xlink:href="#DejaVuSans-32"/>
       <use xlink:href="#DejaVuSans-2e" transform="translate(63.623047 0)"/>
       <use xlink:href="#DejaVuSans-35" transform="translate(95.410156 0)"/>
      </g>
     </g>
    </g>
    <g id="ytick_5">
     <g id="line2d_21">
      <path d="M 49.88 69.345156 
L 636.12 69.345156 
" clip-path="url(#pe786a29897)" style="fill: none; stroke: #b0b0b0; stroke-opacity: 0.25; stroke-width: 0.8; stroke-linecap: square"/>
     </g>
     <g id="line2d_22">
      <g>
       <use xlink:href="#m9efcbb516b" x="49.88" y="69.345156" style="stroke: #000000; stroke-width: 0.8"/>
      </g>
     </g>
     <g id="text_12">
      <!-- 2.6 -->
      <g transform="translate(26.976875 73.144375) scale(0.1 -0.1)">
       <defs>
        <path id="DejaVuSans-36" d="M 2113 2584 
Q 1688 2584 1439 2293 
Q 1191 2003 1191 1497 
Q 1191 994 1439 701 
Q 1688 409 2113 409 
Q 2538 409 2786 701 
Q 3034 994 3034 1497 
Q 3034 2003 2786 2293 
Q 2538 2584 2113 2584 
z
M 3366 4563 
L 3366 3988 
Q 3128 4100 2886 4159 
Q 2644 4219 2406 4219 
Q 1781 4219 1451 3797 
Q 1122 3375 1075 2522 
Q 1259 2794 1537 2939 
Q 1816 3084 2150 3084 
Q 2853 3084 3261 2657 
Q 3669 2231 3669 1497 
Q 3669 778 3244 343 
Q 2819 -91 2113 -91 
Q 1303 -91 875 529 
Q 447 1150 447 2328 
Q 447 3434 972 4092 
Q 1497 4750 2381 4750 
Q 2619 4750 2861 4703 
Q 3103 4656 3366 4563 
z
" transform="scale(0.015625)"/>
       </defs>
       <use xlink:href="#DejaVuSans-32"/>
       <use xlink:href="#DejaVuSans-2e" transform="translate(63.623047 0)"/>
       <use xlink:href="#DejaVuSans-36" transform="translate(95.410156 0)"/>
      </g>
     </g>
    </g>
    <g id="ytick_6">
     <g id="line2d_23">
      <path d="M 49.88 32.459132 
L 636.12 32.459132 
" clip-path="url(#pe786a29897)" style="fill: none; stroke: #b0b0b0; stroke-opacity: 0.25; stroke-width: 0.8; stroke-linecap: square"/>
     </g>
     <g id="line2d_24">
      <g>
       <use xlink:href="#m9efcbb516b" x="49.88" y="32.459132" style="stroke: #000000; stroke-width: 0.8"/>
      </g>
     </g>
     <g id="text_13">
      <!-- 2.7 -->
      <g transform="translate(26.976875 36.25835) scale(0.1 -0.1)">
       <defs>
        <path id="DejaVuSans-37" d="M 525 4666 
L 3525 4666 
L 3525 4397 
L 1831 0 
L 1172 0 
L 2766 4134 
L 525 4134 
L 525 4666 
z
" transform="scale(0.015625)"/>
       </defs>
       <use xlink:href="#DejaVuSans-32"/>
       <use xlink:href="#DejaVuSans-2e" transform="translate(63.623047 0)"/>
       <use xlink:href="#DejaVuSans-37" transform="translate(95.410156 0)"/>
      </g>
     </g>
    </g>
    <g id="text_14">
     <!-- Time (s) -->
     <g transform="translate(20.689219 158.101797) rotate(-90) scale(0.11 -0.11)">
      <defs>
       <path id="DejaVuSans-54" d="M -19 4666 
L 3928 4666 
L 3928 4134 
L 2272 4134 
L 2272 0 
L 1638 0 
L 1638 4134 
L -19 4134 
L -19 4666 
z
" transform="scale(0.015625)"/>
       <path id="DejaVuSans-69" d="M 603 3500 
L 1178 3500 
L 1178 0 
L 603 0 
L 603 3500 
z
M 603 4863 
L 1178 4863 
L 1178 4134 
L 603 4134 
L 603 4863 
z
" transform="scale(0.015625)"/>
       <path id="DejaVuSans-6d" d="M 3328 2828 
Q 3544 3216 3844 3400 
Q 4144 3584 4550 3584 
Q 5097 3584 5394 3201 
Q 5691 2819 5691 2113 
L 5691 0 
L 5113 0 
L 5113 2094 
Q 5113 2597 4934 2840 
Q 4756 3084 4391 3084 
Q 3944 3084 3684 2787 
Q 3425 2491 3425 1978 
L 3425 0 
L 2847 0 
L 2847 2094 
Q 2847 2600 2669 2842 
Q 2491 3084 2119 3084 
Q 1678 3084 1418 2786 
Q 1159 2488 1159 1978 
L 1159 0 
L 581 0 
L 581 3500 
L 1159 3500 
L 1159 2956 
Q 1356 3278 1631 3431 
Q 1906 3584 2284 3584 
Q 2666 3584 2933 3390 
Q 3200 3197 3328 2828 
z
" transform="scale(0.015625)"/>
       <path id="DejaVuSans-65" d="M 3597 1894 
L 3597 1613 
L 953 1613 
Q 991 1019 1311 708 
Q 1631 397 2203 397 
Q 2534 397 2845 478 
Q 3156 559 3463 722 
L 3463 178 
Q 3153 47 2828 -22 
Q 2503 -91 2169 -91 
Q 1331 -91 842 396 
Q 353 884 353 1716 
Q 353 2575 817 3079 
Q 1281 3584 2069 3584 
Q 2775 3584 3186 3129 
Q 3597 2675 3597 1894 
z
M 3022 2063 
Q 3016 2534 2758 2815 
Q 2500 3097 2075 3097 
Q 1594 3097 1305 2825 
Q 1016 2553 972 2059 
L 3022 2063 
z
" transform="scale(0.015625)"/>
       <path id="DejaVuSans-20" transform="scale(0.015625)"/>
       <path id="DejaVuSans-28" d="M 1984 4856 
Q 1566 4138 1362 3434 
Q 1159 2731 1159 2009 
Q 1159 1288 1364 580 
Q 1569 -128 1984 -844 
L 1484 -844 
Q 1016 -109 783 600 
Q 550 1309 550 2009 
Q 550 2706 781 3412 
Q 1013 4119 1484 4856 
L 1984 4856 
z
" transform="scale(0.015625)"/>
       <path id="DejaVuSans-73" d="M 2834 3397 
L 2834 2853 
Q 2591 2978 2328 3040 
Q 2066 3103 1784 3103 
Q 1356 3103 1142 2972 
Q 928 2841 928 2578 
Q 928 2378 1081 2264 
Q 1234 2150 1697 2047 
L 1894 2003 
Q 2506 1872 2764 1633 
Q 3022 1394 3022 966 
Q 3022 478 2636 193 
Q 2250 -91 1575 -91 
Q 1294 -91 989 -36 
Q 684 19 347 128 
L 347 722 
Q 666 556 975 473 
Q 1284 391 1588 391 
Q 1994 391 2212 530 
Q 2431 669 2431 922 
Q 2431 1156 2273 1281 
Q 2116 1406 1581 1522 
L 1381 1569 
Q 847 1681 609 1914 
Q 372 2147 372 2553 
Q 372 3047 722 3315 
Q 1072 3584 1716 3584 
Q 2034 3584 2315 3537 
Q 2597 3491 2834 3397 
z
" transform="scale(0.015625)"/>
       <path id="DejaVuSans-29" d="M 513 4856 
L 1013 4856 
Q 1481 4119 1714 3412 
Q 1947 2706 1947 2009 
Q 1947 1309 1714 600 
Q 1481 -109 1013 -844 
L 513 -844 
Q 928 -128 1133 580 
Q 1338 1288 1338 2009 
Q 1338 2731 1133 3434 
Q 928 4138 513 4856 
z
" transform="scale(0.015625)"/>
      </defs>
      <use xlink:href="#DejaVuSans-54"/>
      <use xlink:href="#DejaVuSans-69" transform="translate(57.958984 0)"/>
      <use xlink:href="#DejaVuSans-6d" transform="translate(85.742188 0)"/>
      <use xlink:href="#DejaVuSans-65" transform="translate(183.154297 0)"/>
      <use xlink:href="#DejaVuSans-20" transform="translate(244.677734 0)"/>
      <use xlink:href="#DejaVuSans-28" transform="translate(276.464844 0)"/>
      <use xlink:href="#DejaVuSans-73" transform="translate(315.478516 0)"/>
      <use xlink:href="#DejaVuSans-29" transform="translate(367.578125 0)"/>
     </g>
    </g>
   </g>
   <g id="line2d_25">
    <path d="M 76.527273 73.033758 
L 76.548591 78.935522 
L 76.56991 82.255265 
L 76.591229 60.86137 
L 76.612547 63.812252 
L 76.633866 73.771479 
L 76.655185 91.845631 
L 76.676503 81.886404 
L 76.697822 90.73905 
L 76.719141 93.321072 
L 76.740459 90.73905 
L 76.761778 99.960556 
L 76.783097 88.894749 
L 76.804415 80.042103 
L 76.825734 79.673243 
L 76.847053 77.828942 
L 76.868371 72.664898 
L 76.88969 84.837286 
L 76.911009 70.451737 
L 76.932327 76.722361 
L 76.953646 72.664898 
L 76.974965 102.542578 
L 76.996283 228.323921 
L 77.017602 223.159878 
L 77.038921 225.004179 
L 77.06024 227.217341 
L 77.081558 225.373039 
L 77.102877 214.307232 
L 77.124196 226.11076 
L 77.145514 230.905943 
L 77.166833 229.799362 
L 77.188152 232.750244 
L 77.20947 230.168223 
L 77.230789 222.422157 
L 77.252108 228.692782 
L 77.273426 219.840136 
L 77.294745 230.168223 
L 77.316064 231.643664 
L 77.337382 232.750244 
L 77.358701 234.225685 
L 77.38002 233.487965 
L 77.401338 228.323921 
L 77.422657 231.643664 
L 77.443976 229.061642 
L 77.465294 223.528738 
L 77.486613 223.897598 
L 77.507932 229.430502 
L 77.52925 223.528738 
L 77.550569 216.889254 
L 77.571888 223.528738 
L 77.614525 229.799362 
L 77.657162 220.577856 
L 77.6998 224.266459 
L 77.742437 232.750244 
L 77.785074 232.381384 
L 77.827712 225.004179 
L 77.870349 231.274803 
L 77.912986 234.225685 
L 77.955624 224.266459 
L 77.998261 229.061642 
L 78.040898 234.594545 
L 78.083536 228.323921 
L 78.126173 231.274803 
L 78.16881 232.381384 
L 78.211448 217.626974 
L 78.254085 225.373039 
L 78.296722 222.791018 
L 78.33936 225.373039 
L 78.381997 220.577856 
L 78.424634 231.643664 
L 78.467272 231.643664 
L 78.509909 225.373039 
L 78.552546 222.791018 
L 78.595184 230.168223 
L 78.637821 231.643664 
L 78.744415 232.012524 
L 78.851008 227.586201 
L 78.957601 223.528738 
L 79.064195 225.7419 
L 79.170788 231.643664 
L 79.277381 226.84848 
L 79.383975 221.684437 
L 79.490568 223.897598 
L 79.597161 228.323921 
L 79.703755 229.430502 
L 79.810348 226.84848 
L 79.916941 221.684437 
L 80.023535 227.955061 
L 80.130128 218.364695 
L 80.236721 230.537083 
L 80.343315 232.750244 
L 80.449908 226.47962 
L 80.556502 232.750244 
L 80.663095 223.897598 
L 80.769688 229.061642 
L 80.982875 232.381384 
L 81.196062 221.684437 
L 81.409248 212.094071 
L 81.622435 221.315577 
L 81.835622 225.004179 
L 87.16529 231.643664 
L 92.494957 230.905943 
L 97.824625 222.422157 
L 119.143296 231.643664 
L 140.461967 222.422157 
L 161.780638 220.208996 
L 183.099309 222.053297 
L 204.41798 226.11076 
L 225.736651 230.168223 
L 247.055321 227.217341 
L 268.373992 222.053297 
L 289.692663 233.119104 
L 342.989341 227.955061 
L 396.286018 225.373039 
L 449.582695 227.955061 
L 502.879373 228.692782 
L 609.472727 220.577856 
" clip-path="url(#pe786a29897)" style="fill: none; stroke: #1f77b4; stroke-width: 1.8; stroke-linecap: square"/>
   </g>
   <g id="line2d_26">
    <path d="M 76.527273 110.657503 
L 76.548591 102.542578 
L 76.56991 106.968901 
L 76.591229 85.575007 
L 76.612547 105.49346 
L 76.633866 96.271954 
L 76.655185 104.018019 
L 76.676503 105.1246 
L 76.697822 104.755739 
L 76.719141 106.23118 
L 76.740459 112.501805 
L 76.761778 90.73905 
L 76.783097 112.501805 
L 76.804415 104.018019 
L 76.825734 108.444342 
L 76.847053 110.657503 
L 76.868371 107.337761 
L 76.88969 109.182062 
L 76.911009 108.444342 
L 76.932327 107.706621 
L 76.953646 99.591696 
L 76.974965 90.00133 
L 76.996283 103.280299 
L 77.017602 106.600041 
L 77.038921 108.075482 
L 77.06024 111.395224 
L 77.081558 107.337761 
L 77.102877 108.444342 
L 77.124196 112.870665 
L 77.145514 100.329417 
L 77.166833 110.657503 
L 77.188152 104.386879 
L 77.20947 113.239525 
L 77.230789 87.050448 
L 77.252108 96.640814 
L 77.273426 103.280299 
L 77.294745 111.395224 
L 77.316064 107.706621 
L 77.337382 104.386879 
L 77.358701 106.968901 
L 77.38002 105.49346 
L 77.401338 111.026364 
L 77.422657 100.698277 
L 77.443976 105.49346 
L 77.465294 98.116255 
L 77.486613 102.911438 
L 77.507932 104.018019 
L 77.52925 104.018019 
L 77.550569 107.337761 
L 77.571888 105.1246 
L 77.614525 112.132944 
L 77.657162 107.706621 
L 77.6998 111.764084 
L 77.742437 105.86232 
L 77.785074 106.600041 
L 77.827712 109.919783 
L 77.870349 105.49346 
L 77.912986 94.058792 
L 77.955624 94.058792 
L 77.998261 106.600041 
L 78.040898 104.018019 
L 78.083536 110.288643 
L 78.126173 99.960556 
L 78.16881 90.73905 
L 78.211448 107.706621 
L 78.254085 98.116255 
L 78.296722 110.657503 
L 78.33936 107.706621 
L 78.381997 106.968901 
L 78.424634 106.968901 
L 78.467272 111.395224 
L 78.509909 98.853976 
L 78.552546 104.386879 
L 78.595184 105.1246 
L 78.637821 104.386879 
L 78.744415 98.116255 
L 78.851008 106.600041 
L 78.957601 105.1246 
L 79.064195 108.813202 
L 79.170788 108.813202 
L 79.277381 108.444342 
L 79.383975 109.182062 
L 79.490568 98.853976 
L 79.597161 109.550923 
L 79.703755 104.018019 
L 79.810348 101.067137 
L 79.916941 103.649159 
L 80.023535 96.640814 
L 80.130128 87.419308 
L 80.236721 97.378535 
L 80.343315 105.86232 
L 80.449908 101.067137 
L 80.556502 106.968901 
L 80.663095 102.542578 
L 80.769688 101.804858 
L 80.982875 103.280299 
L 81.196062 106.23118 
L 81.409248 106.23118 
L 81.622435 110.288643 
L 81.835622 106.968901 
L 87.16529 106.600041 
L 92.494957 104.386879 
L 97.824625 105.86232 
L 119.143296 99.591696 
L 140.461967 105.1246 
L 161.780638 104.018019 
L 183.099309 112.870665 
L 204.41798 106.600041 
L 225.736651 103.280299 
L 247.055321 109.182062 
L 268.373992 95.534233 
L 289.692663 98.116255 
L 342.989341 101.804858 
L 396.286018 106.968901 
L 449.582695 104.018019 
L 502.879373 111.764084 
L 609.472727 103.649159 
" clip-path="url(#pe786a29897)" style="fill: none; stroke: #2ca02c; stroke-width: 1.8; stroke-linecap: square"/>
   </g>
   <g id="line2d_27">
    <path d="M 76.527273 84.837286 
L 76.548591 82.624125 
L 76.56991 85.575007 
L 76.591229 89.632469 
L 76.612547 75.61578 
L 76.633866 77.460081 
L 76.655185 80.042103 
L 76.676503 87.788168 
L 76.697822 86.681588 
L 76.719141 55.328467 
L 76.740459 79.673243 
L 76.761778 78.197802 
L 76.783097 78.197802 
L 76.804415 77.460081 
L 76.825734 86.681588 
L 76.847053 79.304383 
L 76.868371 91.476771 
L 76.88969 79.673243 
L 76.911009 80.410963 
L 76.932327 84.837286 
L 76.953646 81.886404 
L 76.974965 77.828942 
L 76.996283 93.689932 
L 77.017602 86.681588 
L 77.038921 79.304383 
L 77.06024 71.189457 
L 77.081558 77.460081 
L 77.102877 72.296038 
L 77.124196 75.98464 
L 77.145514 77.828942 
L 77.166833 76.722361 
L 77.188152 76.353501 
L 77.20947 75.98464 
L 77.230789 81.886404 
L 77.252108 79.673243 
L 77.273426 84.837286 
L 77.294745 94.427653 
L 77.316064 98.853976 
L 77.337382 91.476771 
L 77.358701 79.304383 
L 77.38002 77.091221 
L 77.401338 77.828942 
L 77.422657 80.779824 
L 77.443976 84.837286 
L 77.465294 77.828942 
L 77.486613 83.361845 
L 77.507932 81.148684 
L 77.52925 75.98464 
L 77.550569 81.517544 
L 77.571888 96.271954 
L 77.614525 69.714016 
L 77.657162 79.304383 
L 77.6998 70.082877 
L 77.742437 74.140339 
L 77.785074 80.042103 
L 77.827712 75.61578 
L 77.870349 66.763134 
L 77.912986 76.722361 
L 77.955624 81.517544 
L 77.998261 65.656554 
L 78.040898 75.61578 
L 78.083536 67.500855 
L 78.126173 63.812252 
L 78.16881 66.025414 
L 78.211448 71.558318 
L 78.254085 70.451737 
L 78.296722 71.927178 
L 78.33936 68.238575 
L 78.381997 68.238575 
L 78.424634 70.082877 
L 78.467272 74.87806 
L 78.509909 68.976296 
L 78.552546 81.148684 
L 78.595184 68.976296 
L 78.637821 74.509199 
L 78.744415 78.935522 
L 78.851008 77.460081 
L 78.957601 81.517544 
L 79.064195 70.082877 
L 79.170788 82.624125 
L 79.277381 96.271954 
L 79.383975 81.886404 
L 79.490568 80.779824 
L 79.597161 77.460081 
L 79.703755 79.304383 
L 79.810348 66.763134 
L 79.916941 65.656554 
L 80.023535 68.976296 
L 80.130128 52.746445 
L 80.236721 58.279349 
L 80.343315 50.164423 
L 80.449908 36.885455 
L 80.556502 64.549973 
L 80.663095 63.812252 
L 80.769688 94.796513 
L 80.982875 81.886404 
L 81.196062 73.033758 
L 81.409248 59.017069 
L 81.622435 71.189457 
L 81.835622 76.722361 
L 87.16529 59.017069 
L 92.494957 63.812252 
L 97.824625 58.279349 
L 119.143296 80.410963 
L 140.461967 82.624125 
L 161.780638 62.336811 
L 183.099309 94.427653 
L 204.41798 98.853976 
L 225.736651 87.788168 
L 247.055321 90.73905 
L 268.373992 70.820597 
L 289.692663 87.050448 
L 342.989341 86.681588 
L 396.286018 87.050448 
L 449.582695 83.361845 
L 502.879373 76.353501 
L 609.472727 83.361845 
" clip-path="url(#pe786a29897)" style="fill: none; stroke: #ff7f0e; stroke-width: 1.8; stroke-linecap: square"/>
   </g>
   <g id="patch_3">
    <path d="M 49.88 244.48 
L 49.88 27 
" style="fill: none; stroke: #000000; stroke-width: 0.8; stroke-linejoin: miter; stroke-linecap: square"/>
   </g>
   <g id="patch_4">
    <path d="M 636.12 244.48 
L 636.12 27 
" style="fill: none; stroke: #000000; stroke-width: 0.8; stroke-linejoin: miter; stroke-linecap: square"/>
   </g>
   <g id="patch_5">
    <path d="M 49.88 244.48 
L 636.12 244.48 
" style="fill: none; stroke: #000000; stroke-width: 0.8; stroke-linejoin: miter; stroke-linecap: square"/>
   </g>
   <g id="patch_6">
    <path d="M 49.88 27 
L 636.12 27 
" style="fill: none; stroke: #000000; stroke-width: 0.8; stroke-linejoin: miter; stroke-linecap: square"/>
   </g>
   <g id="text_15">
    <!-- Collatz — preprocess:setup -->
    <g transform="translate(261.124375 21) scale(0.12 -0.12)">
     <defs>
      <path id="DejaVuSans-43" d="M 4122 4306 
L 4122 3641 
Q 3803 3938 3442 4084 
Q 3081 4231 2675 4231 
Q 1875 4231 1450 3742 
Q 1025 3253 1025 2328 
Q 1025 1406 1450 917 
Q 1875 428 2675 428 
Q 3081 428 3442 575 
Q 3803 722 4122 1019 
L 4122 359 
Q 3791 134 3420 21 
Q 3050 -91 2638 -91 
Q 1578 -91 968 557 
Q 359 1206 359 2328 
Q 359 3453 968 4101 
Q 1578 4750 2638 4750 
Q 3056 4750 3426 4639 
Q 3797 4528 4122 4306 
z
" transform="scale(0.015625)"/>
      <path id="DejaVuSans-6f" d="M 1959 3097 
Q 1497 3097 1228 2736 
Q 959 2375 959 1747 
Q 959 1119 1226 758 
Q 1494 397 1959 397 
Q 2419 397 2687 759 
Q 2956 1122 2956 1747 
Q 2956 2369 2687 2733 
Q 2419 3097 1959 3097 
z
M 1959 3584 
Q 2709 3584 3137 3096 
Q 3566 2609 3566 1747 
Q 3566 888 3137 398 
Q 2709 -91 1959 -91 
Q 1206 -91 779 398 
Q 353 888 353 1747 
Q 353 2609 779 3096 
Q 1206 3584 1959 3584 
z
" transform="scale(0.015625)"/>
      <path id="DejaVuSans-6c" d="M 603 4863 
L 1178 4863 
L 1178 0 
L 603 0 
L 603 4863 
z
" transform="scale(0.015625)"/>
      <path id="DejaVuSans-61" d="M 2194 1759 
Q 1497 1759 1228 1600 
Q 959 1441 959 1056 
Q 959 750 1161 570 
Q 1363 391 1709 391 
Q 2188 391 2477 730 
Q 2766 1069 2766 1631 
L 2766 1759 
L 2194 1759 
z
M 3341 1997 
L 3341 0 
L 2766 0 
L 2766 531 
Q 2569 213 2275 61 
Q 1981 -91 1556 -91 
Q 1019 -91 701 211 
Q 384 513 384 1019 
Q 384 1609 779 1909 
Q 1175 2209 1959 2209 
L 2766 2209 
L 2766 2266 
Q 2766 2663 2505 2880 
Q 2244 3097 1772 3097 
Q 1472 3097 1187 3025 
Q 903 2953 641 2809 
L 641 3341 
Q 956 3463 1253 3523 
Q 1550 3584 1831 3584 
Q 2591 3584 2966 3190 
Q 3341 2797 3341 1997 
z
" transform="scale(0.015625)"/>
      <path id="DejaVuSans-7a" d="M 353 3500 
L 3084 3500 
L 3084 2975 
L 922 459 
L 3084 459 
L 3084 0 
L 275 0 
L 275 525 
L 2438 3041 
L 353 3041 
L 353 3500 
z
" transform="scale(0.015625)"/>
      <path id="DejaVuSans-2014" d="M 313 1978 
L 6088 1978 
L 6088 1528 
L 313 1528 
L 313 1978 
z
" transform="scale(0.015625)"/>
      <path id="DejaVuSans-72" d="M 2631 2963 
Q 2534 3019 2420 3045 
Q 2306 3072 2169 3072 
Q 1681 3072 1420 2755 
Q 1159 2438 1159 1844 
L 1159 0 
L 581 0 
L 581 3500 
L 1159 3500 
L 1159 2956 
Q 1341 3275 1631 3429 
Q 1922 3584 2338 3584 
Q 2397 3584 2469 3576 
Q 2541 3569 2628 3553 
L 2631 2963 
z
" transform="scale(0.015625)"/>
      <path id="DejaVuSans-63" d="M 3122 3366 
L 3122 2828 
Q 2878 2963 2633 3030 
Q 2388 3097 2138 3097 
Q 1578 3097 1268 2742 
Q 959 2388 959 1747 
Q 959 1106 1268 751 
Q 1578 397 2138 397 
Q 2388 397 2633 464 
Q 2878 531 3122 666 
L 3122 134 
Q 2881 22 2623 -34 
Q 2366 -91 2075 -91 
Q 1284 -91 818 406 
Q 353 903 353 1747 
Q 353 2603 823 3093 
Q 1294 3584 2113 3584 
Q 2378 3584 2631 3529 
Q 2884 3475 3122 3366 
z
" transform="scale(0.015625)"/>
      <path id="DejaVuSans-3a" d="M 750 794 
L 1409 794 
L 1409 0 
L 750 0 
L 750 794 
z
M 750 3309 
L 1409 3309 
L 1409 2516 
L 750 2516 
L 750 3309 
z
" transform="scale(0.015625)"/>
     </defs>
     <use xlink:href="#DejaVuSans-43"/>
     <use xlink:href="#DejaVuSans-6f" transform="translate(69.824219 0)"/>
     <use xlink:href="#DejaVuSans-6c" transform="translate(131.005859 0)"/>
     <use xlink:href="#DejaVuSans-6c" transform="translate(158.789062 0)"/>
     <use xlink:href="#DejaVuSans-61" transform="translate(186.572266 0)"/>
     <use xlink:href="#DejaVuSans-74" transform="translate(247.851562 0)"/>
     <use xlink:href="#DejaVuSans-7a" transform="translate(287.060547 0)"/>
     <use xlink:href="#DejaVuSans-20" transform="translate(339.550781 0)"/>
     <use xlink:href="#DejaVuSans-2014" transform="translate(371.337891 0)"/>
     <use xlink:href="#DejaVuSans-20" transform="translate(471.337891 0)"/>
     <use xlink:href="#DejaVuSans-70" transform="translate(503.125 0)"/>
     <use xlink:href="#DejaVuSans-72" transform="translate(566.601562 0)"/>
     <use xlink:href="#DejaVuSans-65" transform="translate(605.464844 0)"/>
     <use xlink:href="#DejaVuSans-70" transform="translate(666.988281 0)"/>
     <use xlink:href="#DejaVuSans-72" transform="translate(730.464844 0)"/>
     <use xlink:href="#DejaVuSans-6f" transform="translate(769.328125 0)"/>
     <use xlink:href="#DejaVuSans-63" transform="translate(830.509766 0)"/>
     <use xlink:href="#DejaVuSans-65" transform="translate(885.490234 0)"/>
     <use xlink:href="#DejaVuSans-73" transform="translate(947.013672 0)"/>
     <use xlink:href="#DejaVuSans-73" transform="translate(999.113281 0)"/>
     <use xlink:href="#DejaVuSans-3a" transform="translate(1051.212891 0)"/>
     <use xlink:href="#DejaVuSans-73" transform="translate(1084.904297 0)"/>
     <use xlink:href="#DejaVuSans-65" transform="translate(1137.003906 0)"/>
     <use xlink:href="#DejaVuSans-74" transform="translate(1198.527344 0)"/>
     <use xlink:href="#DejaVuSans-75" transform="translate(1237.736328 0)"/>
     <use xlink:href="#DejaVuSans-70" transform="translate(1301.115234 0)"/>
    </g>
   </g>
   <g id="legend_1">
    <g id="line2d_28">
     <path d="M 541.645 120.32125 
L 551.645 120.32125 
L 561.645 120.32125 
" style="fill: none; stroke: #1f77b4; stroke-width: 1.8; stroke-linecap: square"/>
    </g>
    <g id="text_16">
     <!-- 32-reg -->
     <g transform="translate(569.645 123.82125) scale(0.1 -0.1)">
      <defs>
       <path id="DejaVuSans-2d" d="M 313 2009 
L 1997 2009 
L 1997 1497 
L 313 1497 
L 313 2009 
z
" transform="scale(0.015625)"/>
       <path id="DejaVuSans-67" d="M 2906 1791 
Q 2906 2416 2648 2759 
Q 2391 3103 1925 3103 
Q 1463 3103 1205 2759 
Q 947 2416 947 1791 
Q 947 1169 1205 825 
Q 1463 481 1925 481 
Q 2391 481 2648 825 
Q 2906 1169 2906 1791 
z
M 3481 434 
Q 3481 -459 3084 -895 
Q 2688 -1331 1869 -1331 
Q 1566 -1331 1297 -1286 
Q 1028 -1241 775 -1147 
L 775 -588 
Q 1028 -725 1275 -790 
Q 1522 -856 1778 -856 
Q 2344 -856 2625 -561 
Q 2906 -266 2906 331 
L 2906 616 
Q 2728 306 2450 153 
Q 2172 0 1784 0 
Q 1141 0 747 490 
Q 353 981 353 1791 
Q 353 2603 747 3093 
Q 1141 3584 1784 3584 
Q 2172 3584 2450 3431 
Q 2728 3278 2906 2969 
L 2906 3500 
L 3481 3500 
L 3481 434 
z
" transform="scale(0.015625)"/>
      </defs>
      <use xlink:href="#DejaVuSans-33"/>
      <use xlink:href="#DejaVuSans-32" transform="translate(63.623047 0)"/>
      <use xlink:href="#DejaVuSans-2d" transform="translate(127.246094 0)"/>
      <use xlink:href="#DejaVuSans-72" transform="translate(163.330078 0)"/>
      <use xlink:href="#DejaVuSans-65" transform="translate(202.193359 0)"/>
      <use xlink:href="#DejaVuSans-67" transform="translate(263.716797 0)"/>
     </g>
    </g>
    <g id="line2d_29">
     <path d="M 541.645 134.999375 
L 551.645 134.999375 
L 561.645 134.999375 
" style="fill: none; stroke: #2ca02c; stroke-width: 1.8; stroke-linecap: square"/>
    </g>
    <g id="text_17">
     <!-- mem-batch -->
     <g transform="translate(569.645 138.499375) scale(0.1 -0.1)">
      <defs>
       <path id="DejaVuSans-62" d="M 3116 1747 
Q 3116 2381 2855 2742 
Q 2594 3103 2138 3103 
Q 1681 3103 1420 2742 
Q 1159 2381 1159 1747 
Q 1159 1113 1420 752 
Q 1681 391 2138 391 
Q 2594 391 2855 752 
Q 3116 1113 3116 1747 
z
M 1159 2969 
Q 1341 3281 1617 3432 
Q 1894 3584 2278 3584 
Q 2916 3584 3314 3078 
Q 3713 2572 3713 1747 
Q 3713 922 3314 415 
Q 2916 -91 2278 -91 
Q 1894 -91 1617 61 
Q 1341 213 1159 525 
L 1159 0 
L 581 0 
L 581 4863 
L 1159 4863 
L 1159 2969 
z
" transform="scale(0.015625)"/>
       <path id="DejaVuSans-68" d="M 3513 2113 
L 3513 0 
L 2938 0 
L 2938 2094 
Q 2938 2591 2744 2837 
Q 2550 3084 2163 3084 
Q 1697 3084 1428 2787 
Q 1159 2491 1159 1978 
L 1159 0 
L 581 0 
L 581 4863 
L 1159 4863 
L 1159 2956 
Q 1366 3272 1645 3428 
Q 1925 3584 2291 3584 
Q 2894 3584 3203 3211 
Q 3513 2838 3513 2113 
z
" transform="scale(0.015625)"/>
      </defs>
      <use xlink:href="#DejaVuSans-6d"/>
      <use xlink:href="#DejaVuSans-65" transform="translate(97.412109 0)"/>
      <use xlink:href="#DejaVuSans-6d" transform="translate(158.935547 0)"/>
      <use xlink:href="#DejaVuSans-2d" transform="translate(256.347656 0)"/>
      <use xlink:href="#DejaVuSans-62" transform="translate(292.431641 0)"/>
      <use xlink:href="#DejaVuSans-61" transform="translate(355.908203 0)"/>
      <use xlink:href="#DejaVuSans-74" transform="translate(417.1875 0)"/>
      <use xlink:href="#DejaVuSans-63" transform="translate(456.396484 0)"/>
      <use xlink:href="#DejaVuSans-68" transform="translate(511.376953 0)"/>
     </g>
    </g>
    <g id="line2d_30">
     <path d="M 541.645 149.6775 
L 551.645 149.6775 
L 561.645 149.6775 
" style="fill: none; stroke: #ff7f0e; stroke-width: 1.8; stroke-linecap: square"/>
    </g>
    <g id="text_18">
     <!-- vanilla -->
     <g transform="translate(569.645 153.1775) scale(0.1 -0.1)">
      <defs>
       <path id="DejaVuSans-76" d="M 191 3500 
L 800 3500 
L 1894 563 
L 2988 3500 
L 3597 3500 
L 2284 0 
L 1503 0 
L 191 3500 
z
" transform="scale(0.015625)"/>
      </defs>
      <use xlink:href="#DejaVuSans-76"/>
      <use xlink:href="#DejaVuSans-61" transform="translate(59.179688 0)"/>
      <use xlink:href="#DejaVuSans-6e" transform="translate(120.458984 0)"/>
      <use xlink:href="#DejaVuSans-69" transform="translate(183.837891 0)"/>
      <use xlink:href="#DejaVuSans-6c" transform="translate(211.621094 0)"/>
      <use xlink:href="#DejaVuSans-6c" transform="translate(239.404297 0)"/>
      <use xlink:href="#DejaVuSans-61" transform="translate(267.1875 0)"/>
     </g>
    </g>
   </g>
  </g>
 </g>
 <defs>
  <clipPath id="pe786a29897">
   <rect x="49.88" y="27" width="586.24" height="217.48"/>
  </clipPath>
 </defs>
</svg>
