<?xml version="1.0" encoding="utf-8" standalone="no"?>
<!DOCTYPE svg PUBLIC "-//W3C//DTD SVG 1.1//EN"
  "http://www.w3.org/Graphics/SVG/1.1/DTD/svg11.dtd">
<svg xmlns:xlink="http://www.w3.org/1999/xlink" width="648pt" height="288pt" viewBox="0 0 648 288" xmlns="http://www.w3.org/2000/svg" version="1.1">
 <metadata>
  <rdf:RDF xmlns:dc="http://purl.org/dc/elements/1.1/" xmlns:cc="http://creativecommons.org/ns#" xmlns:rdf="http://www.w3.org/1999/02/22-rdf-syntax-ns#">
   <cc:Work>
    <dc:type rdf:resource="http://purl.org/dc/dcmitype/StillImage"/>
    <dc:date>2025-09-10T11:05:47.519300</dc:date>
    <dc:format>image/svg+xml</dc:format>
    <dc:creator>
     <cc:Agent>
      <dc:title>Matplotlib v3.10.6, https://matplotlib.org/</dc:title>
     </cc:Agent>
    </dc:creator>
   </cc:Work>
  </rdf:RDF>
 </metadata>
 <defs>
  <style type="text/css">*{stroke-linejoin: round; stroke-linecap: butt}</style>
 </defs>
 <g id="figure_1">
  <g id="patch_1">
   <path d="M 0 288 
L 648 288 
L 648 0 
L 0 0 
z
" style="fill: #ffffff"/>
  </g>
  <g id="axes_1">
   <g id="patch_2">
    <path d="M 56.18 244.48 
L 636.12 244.48 
L 636.12 27 
L 56.18 27 
z
" style="fill: #ffffff"/>
   </g>
   <g id="matplotlib.axis_1">
    <g id="xtick_1">
     <g id="line2d_1">
      <path d="M 82.51982 244.48 
L 82.51982 27 
" clip-path="url(#p85af112922)" style="fill: none; stroke: #b0b0b0; stroke-opacity: 0.25; stroke-width: 0.8; stroke-linecap: square"/>
     </g>
     <g id="line2d_2">
      <defs>
       <path id="m8ce8dd346f" d="M 0 0 
L 0 3.5 
" style="stroke: #000000; stroke-width: 0.8"/>
      </defs>
      <g>
       <use xlink:href="#m8ce8dd346f" x="82.51982" y="244.48" style="stroke: #000000; stroke-width: 0.8"/>
      </g>
     </g>
     <g id="text_1">
      <!-- 0 -->
      <g transform="translate(79.33857 259.078438) scale(0.1 -0.1)">
       <defs>
        <path id="DejaVuSans-30" d="M 2034 4250 
Q 1547 4250 1301 3770 
Q 1056 3291 1056 2328 
Q 1056 1369 1301 889 
Q 1547 409 2034 409 
Q 2525 409 2770 889 
Q 3016 1369 3016 2328 
Q 3016 3291 2770 3770 
Q 2525 4250 2034 4250 
z
M 2034 4750 
Q 2819 4750 3233 4129 
Q 3647 3509 3647 2328 
Q 3647 1150 3233 529 
Q 2819 -91 2034 -91 
Q 1250 -91 836 529 
Q 422 1150 422 2328 
Q 422 3509 836 4129 
Q 1250 4750 2034 4750 
z
" transform="scale(0.015625)"/>
       </defs>
       <use xlink:href="#DejaVuSans-30"/>
      </g>
     </g>
    </g>
    <g id="xtick_2">
     <g id="line2d_3">
      <path d="M 187.967674 244.48 
L 187.967674 27 
" clip-path="url(#p85af112922)" style="fill: none; stroke: #b0b0b0; stroke-opacity: 0.25; stroke-width: 0.8; stroke-linecap: square"/>
     </g>
     <g id="line2d_4">
      <g>
       <use xlink:href="#m8ce8dd346f" x="187.967674" y="244.48" style="stroke: #000000; stroke-width: 0.8"/>
      </g>
     </g>
     <g id="text_2">
      <!-- 5000 -->
      <g transform="translate(175.242674 259.078438) scale(0.1 -0.1)">
       <defs>
        <path id="DejaVuSans-35" d="M 691 4666 
L 3169 4666 
L 3169 4134 
L 1269 4134 
L 1269 2991 
Q 1406 3038 1543 3061 
Q 1681 3084 1819 3084 
Q 2600 3084 3056 2656 
Q 3513 2228 3513 1497 
Q 3513 744 3044 326 
Q 2575 -91 1722 -91 
Q 1428 -91 1123 -41 
Q 819 9 494 109 
L 494 744 
Q 775 591 1075 516 
Q 1375 441 1709 441 
Q 2250 441 2565 725 
Q 2881 1009 2881 1497 
Q 2881 1984 2565 2268 
Q 2250 2553 1709 2553 
Q 1456 2553 1204 2497 
Q 953 2441 691 2322 
L 691 4666 
z
" transform="scale(0.015625)"/>
       </defs>
       <use xlink:href="#DejaVuSans-35"/>
       <use xlink:href="#DejaVuSans-30" transform="translate(63.623047 0)"/>
       <use xlink:href="#DejaVuSans-30" transform="translate(127.246094 0)"/>
       <use xlink:href="#DejaVuSans-30" transform="translate(190.869141 0)"/>
      </g>
     </g>
    </g>
    <g id="xtick_3">
     <g id="line2d_5">
      <path d="M 293.415528 244.48 
L 293.415528 27 
" clip-path="url(#p85af112922)" style="fill: none; stroke: #b0b0b0; stroke-opacity: 0.25; stroke-width: 0.8; stroke-linecap: square"/>
     </g>
     <g id="line2d_6">
      <g>
       <use xlink:href="#m8ce8dd346f" x="293.415528" y="244.48" style="stroke: #000000; stroke-width: 0.8"/>
      </g>
     </g>
     <g id="text_3">
      <!-- 10000 -->
      <g transform="translate(277.509278 259.078438) scale(0.1 -0.1)">
       <defs>
        <path id="DejaVuSans-31" d="M 794 531 
L 1825 531 
L 1825 4091 
L 703 3866 
L 703 4441 
L 1819 4666 
L 2450 4666 
L 2450 531 
L 3481 531 
L 3481 0 
L 794 0 
L 794 531 
z
" transform="scale(0.015625)"/>
       </defs>
       <use xlink:href="#DejaVuSans-31"/>
       <use xlink:href="#DejaVuSans-30" transform="translate(63.623047 0)"/>
       <use xlink:href="#DejaVuSans-30" transform="translate(127.246094 0)"/>
       <use xlink:href="#DejaVuSans-30" transform="translate(190.869141 0)"/>
       <use xlink:href="#DejaVuSans-30" transform="translate(254.492188 0)"/>
      </g>
     </g>
    </g>
    <g id="xtick_4">
     <g id="line2d_7">
      <path d="M 398.863382 244.48 
L 398.863382 27 
" clip-path="url(#p85af112922)" style="fill: none; stroke: #b0b0b0; stroke-opacity: 0.25; stroke-width: 0.8; stroke-linecap: square"/>
     </g>
     <g id="line2d_8">
      <g>
       <use xlink:href="#m8ce8dd346f" x="398.863382" y="244.48" style="stroke: #000000; stroke-width: 0.8"/>
      </g>
     </g>
     <g id="text_4">
      <!-- 15000 -->
      <g transform="translate(382.957132 259.078438) scale(0.1 -0.1)">
       <use xlink:href="#DejaVuSans-31"/>
       <use xlink:href="#DejaVuSans-35" transform="translate(63.623047 0)"/>
       <use xlink:href="#DejaVuSans-30" transform="translate(127.246094 0)"/>
       <use xlink:href="#DejaVuSans-30" transform="translate(190.869141 0)"/>
       <use xlink:href="#DejaVuSans-30" transform="translate(254.492188 0)"/>
      </g>
     </g>
    </g>
    <g id="xtick_5">
     <g id="line2d_9">
      <path d="M 504.311237 244.48 
L 504.311237 27 
" clip-path="url(#p85af112922)" style="fill: none; stroke: #b0b0b0; stroke-opacity: 0.25; stroke-width: 0.8; stroke-linecap: square"/>
     </g>
     <g id="line2d_10">
      <g>
       <use xlink:href="#m8ce8dd346f" x="504.311237" y="244.48" style="stroke: #000000; stroke-width: 0.8"/>
      </g>
     </g>
     <g id="text_5">
      <!-- 20000 -->
      <g transform="translate(488.404987 259.078438) scale(0.1 -0.1)">
       <defs>
        <path id="DejaVuSans-32" d="M 1228 531 
L 3431 531 
L 3431 0 
L 469 0 
L 469 531 
Q 828 903 1448 1529 
Q 2069 2156 2228 2338 
Q 2531 2678 2651 2914 
Q 2772 3150 2772 3378 
Q 2772 3750 2511 3984 
Q 2250 4219 1831 4219 
Q 1534 4219 1204 4116 
Q 875 4013 500 3803 
L 500 4441 
Q 881 4594 1212 4672 
Q 1544 4750 1819 4750 
Q 2544 4750 2975 4387 
Q 3406 4025 3406 3419 
Q 3406 3131 3298 2873 
Q 3191 2616 2906 2266 
Q 2828 2175 2409 1742 
Q 1991 1309 1228 531 
z
" transform="scale(0.015625)"/>
       </defs>
       <use xlink:href="#DejaVuSans-32"/>
       <use xlink:href="#DejaVuSans-30" transform="translate(63.623047 0)"/>
       <use xlink:href="#DejaVuSans-30" transform="translate(127.246094 0)"/>
       <use xlink:href="#DejaVuSans-30" transform="translate(190.869141 0)"/>
       <use xlink:href="#DejaVuSans-30" transform="translate(254.492188 0)"/>
      </g>
     </g>
    </g>
    <g id="xtick_6">
     <g id="line2d_11">
      <path d="M 609.759091 244.48 
L 609.759091 27 
" clip-path="url(#p85af112922)" style="fill: none; stroke: #b0b0b0; stroke-opacity: 0.25; stroke-width: 0.8; stroke-linecap: square"/>
     </g>
     <g id="line2d_12">
      <g>
       <use xlink:href="#m8ce8dd346f" x="609.759091" y="244.48" style="stroke: #000000; stroke-width: 0.8"/>
      </g>
     </g>
     <g id="text_6">
      <!-- 25000 -->
      <g transform="translate(593.852841 259.078438) scale(0.1 -0.1)">
       <use xlink:href="#DejaVuSans-32"/>
       <use xlink:href="#DejaVuSans-35" transform="translate(63.623047 0)"/>
       <use xlink:href="#DejaVuSans-30" transform="translate(127.246094 0)"/>
       <use xlink:href="#DejaVuSans-30" transform="translate(190.869141 0)"/>
       <use xlink:href="#DejaVuSans-30" transform="translate(254.492188 0)"/>
      </g>
     </g>
    </g>
    <g id="text_7">
     <!-- Input -->
     <g transform="translate(331.908438 273.516406) scale(0.11 -0.11)">
      <defs>
       <path id="DejaVuSans-49" d="M 628 4666 
L 1259 4666 
L 1259 0 
L 628 0 
L 628 4666 
z
" transform="scale(0.015625)"/>
       <path id="DejaVuSans-6e" d="M 3513 2113 
L 3513 0 
L 2938 0 
L 2938 2094 
Q 2938 2591 2744 2837 
Q 2550 3084 2163 3084 
Q 1697 3084 1428 2787 
Q 1159 2491 1159 1978 
L 1159 0 
L 581 0 
L 581 3500 
L 1159 3500 
L 1159 2956 
Q 1366 3272 1645 3428 
Q 1925 3584 2291 3584 
Q 2894 3584 3203 3211 
Q 3513 2838 3513 2113 
z
" transform="scale(0.015625)"/>
       <path id="DejaVuSans-70" d="M 1159 525 
L 1159 -1331 
L 581 -1331 
L 581 3500 
L 1159 3500 
L 1159 2969 
Q 1341 3281 1617 3432 
Q 1894 3584 2278 3584 
Q 2916 3584 3314 3078 
Q 3713 2572 3713 1747 
Q 3713 922 3314 415 
Q 2916 -91 2278 -91 
Q 1894 -91 1617 61 
Q 1341 213 1159 525 
z
M 3116 1747 
Q 3116 2381 2855 2742 
Q 2594 3103 2138 3103 
Q 1681 3103 1420 2742 
Q 1159 2381 1159 1747 
Q 1159 1113 1420 752 
Q 1681 391 2138 391 
Q 2594 391 2855 752 
Q 3116 1113 3116 1747 
z
" transform="scale(0.015625)"/>
       <path id="DejaVuSans-75" d="M 544 1381 
L 544 3500 
L 1119 3500 
L 1119 1403 
Q 1119 906 1312 657 
Q 1506 409 1894 409 
Q 2359 409 2629 706 
Q 2900 1003 2900 1516 
L 2900 3500 
L 3475 3500 
L 3475 0 
L 2900 0 
L 2900 538 
Q 2691 219 2414 64 
Q 2138 -91 1772 -91 
Q 1169 -91 856 284 
Q 544 659 544 1381 
z
M 1991 3584 
L 1991 3584 
z
" transform="scale(0.015625)"/>
       <path id="DejaVuSans-74" d="M 1172 4494 
L 1172 3500 
L 2356 3500 
L 2356 3053 
L 1172 3053 
L 1172 1153 
Q 1172 725 1289 603 
Q 1406 481 1766 481 
L 2356 481 
L 2356 0 
L 1766 0 
Q 1100 0 847 248 
Q 594 497 594 1153 
L 594 3053 
L 172 3053 
L 172 3500 
L 594 3500 
L 594 4494 
L 1172 4494 
z
" transform="scale(0.015625)"/>
      </defs>
      <use xlink:href="#DejaVuSans-49"/>
      <use xlink:href="#DejaVuSans-6e" transform="translate(29.492188 0)"/>
      <use xlink:href="#DejaVuSans-70" transform="translate(92.871094 0)"/>
      <use xlink:href="#DejaVuSans-75" transform="translate(156.347656 0)"/>
      <use xlink:href="#DejaVuSans-74" transform="translate(219.726562 0)"/>
     </g>
    </g>
   </g>
   <g id="matplotlib.axis_2">
    <g id="ytick_1">
     <g id="line2d_13">
      <path d="M 56.18 243.381616 
L 636.12 243.381616 
" clip-path="url(#p85af112922)" style="fill: none; stroke: #b0b0b0; stroke-opacity: 0.25; stroke-width: 0.8; stroke-linecap: square"/>
     </g>
     <g id="line2d_14">
      <defs>
       <path id="mef75fee2e5" d="M 0 0 
L -3.5 0 
" style="stroke: #000000; stroke-width: 0.8"/>
      </defs>
      <g>
       <use xlink:href="#mef75fee2e5" x="56.18" y="243.381616" style="stroke: #000000; stroke-width: 0.8"/>
      </g>
     </g>
     <g id="text_8">
      <!-- 0.01 -->
      <g transform="translate(26.914375 247.180835) scale(0.1 -0.1)">
       <defs>
        <path id="DejaVuSans-2e" d="M 684 794 
L 1344 794 
L 1344 0 
L 684 0 
L 684 794 
z
" transform="scale(0.015625)"/>
       </defs>
       <use xlink:href="#DejaVuSans-30"/>
       <use xlink:href="#DejaVuSans-2e" transform="translate(63.623047 0)"/>
       <use xlink:href="#DejaVuSans-30" transform="translate(95.410156 0)"/>
       <use xlink:href="#DejaVuSans-31" transform="translate(159.033203 0)"/>
      </g>
     </g>
    </g>
    <g id="ytick_2">
     <g id="line2d_15">
      <path d="M 56.18 199.446263 
L 636.12 199.446263 
" clip-path="url(#p85af112922)" style="fill: none; stroke: #b0b0b0; stroke-opacity: 0.25; stroke-width: 0.8; stroke-linecap: square"/>
     </g>
     <g id="line2d_16">
      <g>
       <use xlink:href="#mef75fee2e5" x="56.18" y="199.446263" style="stroke: #000000; stroke-width: 0.8"/>
      </g>
     </g>
     <g id="text_9">
      <!-- 0.02 -->
      <g transform="translate(26.914375 203.245481) scale(0.1 -0.1)">
       <use xlink:href="#DejaVuSans-30"/>
       <use xlink:href="#DejaVuSans-2e" transform="translate(63.623047 0)"/>
       <use xlink:href="#DejaVuSans-30" transform="translate(95.410156 0)"/>
       <use xlink:href="#DejaVuSans-32" transform="translate(159.033203 0)"/>
      </g>
     </g>
    </g>
    <g id="ytick_3">
     <g id="line2d_17">
      <path d="M 56.18 155.510909 
L 636.12 155.510909 
" clip-path="url(#p85af112922)" style="fill: none; stroke: #b0b0b0; stroke-opacity: 0.25; stroke-width: 0.8; stroke-linecap: square"/>
     </g>
     <g id="line2d_18">
      <g>
       <use xlink:href="#mef75fee2e5" x="56.18" y="155.510909" style="stroke: #000000; stroke-width: 0.8"/>
      </g>
     </g>
     <g id="text_10">
      <!-- 0.03 -->
      <g transform="translate(26.914375 159.310128) scale(0.1 -0.1)">
       <defs>
        <path id="DejaVuSans-33" d="M 2597 2516 
Q 3050 2419 3304 2112 
Q 3559 1806 3559 1356 
Q 3559 666 3084 287 
Q 2609 -91 1734 -91 
Q 1441 -91 1130 -33 
Q 819 25 488 141 
L 488 750 
Q 750 597 1062 519 
Q 1375 441 1716 441 
Q 2309 441 2620 675 
Q 2931 909 2931 1356 
Q 2931 1769 2642 2001 
Q 2353 2234 1838 2234 
L 1294 2234 
L 1294 2753 
L 1863 2753 
Q 2328 2753 2575 2939 
Q 2822 3125 2822 3475 
Q 2822 3834 2567 4026 
Q 2313 4219 1838 4219 
Q 1578 4219 1281 4162 
Q 984 4106 628 3988 
L 628 4550 
Q 988 4650 1302 4700 
Q 1616 4750 1894 4750 
Q 2613 4750 3031 4423 
Q 3450 4097 3450 3541 
Q 3450 3153 3228 2886 
Q 3006 2619 2597 2516 
z
" transform="scale(0.015625)"/>
       </defs>
       <use xlink:href="#DejaVuSans-30"/>
       <use xlink:href="#DejaVuSans-2e" transform="translate(63.623047 0)"/>
       <use xlink:href="#DejaVuSans-30" transform="translate(95.410156 0)"/>
       <use xlink:href="#DejaVuSans-33" transform="translate(159.033203 0)"/>
      </g>
     </g>
    </g>
    <g id="ytick_4">
     <g id="line2d_19">
      <path d="M 56.18 111.575556 
L 636.12 111.575556 
" clip-path="url(#p85af112922)" style="fill: none; stroke: #b0b0b0; stroke-opacity: 0.25; stroke-width: 0.8; stroke-linecap: square"/>
     </g>
     <g id="line2d_20">
      <g>
       <use xlink:href="#mef75fee2e5" x="56.18" y="111.575556" style="stroke: #000000; stroke-width: 0.8"/>
      </g>
     </g>
     <g id="text_11">
      <!-- 0.04 -->
      <g transform="translate(26.914375 115.374774) scale(0.1 -0.1)">
       <defs>
        <path id="DejaVuSans-34" d="M 2419 4116 
L 825 1625 
L 2419 1625 
L 2419 4116 
z
M 2253 4666 
L 3047 4666 
L 3047 1625 
L 3713 1625 
L 3713 1100 
L 3047 1100 
L 3047 0 
L 2419 0 
L 2419 1100 
L 313 1100 
L 313 1709 
L 2253 4666 
z
" transform="scale(0.015625)"/>
       </defs>
       <use xlink:href="#DejaVuSans-30"/>
       <use xlink:href="#DejaVuSans-2e" transform="translate(63.623047 0)"/>
       <use xlink:href="#DejaVuSans-30" transform="translate(95.410156 0)"/>
       <use xlink:href="#DejaVuSans-34" transform="translate(159.033203 0)"/>
      </g>
     </g>
    </g>
    <g id="ytick_5">
     <g id="line2d_21">
      <path d="M 56.18 67.640202 
L 636.12 67.640202 
" clip-path="url(#p85af112922)" style="fill: none; stroke: #b0b0b0; stroke-opacity: 0.25; stroke-width: 0.8; stroke-linecap: square"/>
     </g>
     <g id="line2d_22">
      <g>
       <use xlink:href="#mef75fee2e5" x="56.18" y="67.640202" style="stroke: #000000; stroke-width: 0.8"/>
      </g>
     </g>
     <g id="text_12">
      <!-- 0.05 -->
      <g transform="translate(26.914375 71.439421) scale(0.1 -0.1)">
       <use xlink:href="#DejaVuSans-30"/>
       <use xlink:href="#DejaVuSans-2e" transform="translate(63.623047 0)"/>
       <use xlink:href="#DejaVuSans-30" transform="translate(95.410156 0)"/>
       <use xlink:href="#DejaVuSans-35" transform="translate(159.033203 0)"/>
      </g>
     </g>
    </g>
    <g id="text_13">
     <!-- Time (s) -->
     <g transform="translate(20.626719 158.101797) rotate(-90) scale(0.11 -0.11)">
      <defs>
       <path id="DejaVuSans-54" d="M -19 4666 
L 3928 4666 
L 3928 4134 
L 2272 4134 
L 2272 0 
L 1638 0 
L 1638 4134 
L -19 4134 
L -19 4666 
z
" transform="scale(0.015625)"/>
       <path id="DejaVuSans-69" d="M 603 3500 
L 1178 3500 
L 1178 0 
L 603 0 
L 603 3500 
z
M 603 4863 
L 1178 4863 
L 1178 4134 
L 603 4134 
L 603 4863 
z
" transform="scale(0.015625)"/>
       <path id="DejaVuSans-6d" d="M 3328 2828 
Q 3544 3216 3844 3400 
Q 4144 3584 4550 3584 
Q 5097 3584 5394 3201 
Q 5691 2819 5691 2113 
L 5691 0 
L 5113 0 
L 5113 2094 
Q 5113 2597 4934 2840 
Q 4756 3084 4391 3084 
Q 3944 3084 3684 2787 
Q 3425 2491 3425 1978 
L 3425 0 
L 2847 0 
L 2847 2094 
Q 2847 2600 2669 2842 
Q 2491 3084 2119 3084 
Q 1678 3084 1418 2786 
Q 1159 2488 1159 1978 
L 1159 0 
L 581 0 
L 581 3500 
L 1159 3500 
L 1159 2956 
Q 1356 3278 1631 3431 
Q 1906 3584 2284 3584 
Q 2666 3584 2933 3390 
Q 3200 3197 3328 2828 
z
" transform="scale(0.015625)"/>
       <path id="DejaVuSans-65" d="M 3597 1894 
L 3597 1613 
L 953 1613 
Q 991 1019 1311 708 
Q 1631 397 2203 397 
Q 2534 397 2845 478 
Q 3156 559 3463 722 
L 3463 178 
Q 3153 47 2828 -22 
Q 2503 -91 2169 -91 
Q 1331 -91 842 396 
Q 353 884 353 1716 
Q 353 2575 817 3079 
Q 1281 3584 2069 3584 
Q 2775 3584 3186 3129 
Q 3597 2675 3597 1894 
z
M 3022 2063 
Q 3016 2534 2758 2815 
Q 2500 3097 2075 3097 
Q 1594 3097 1305 2825 
Q 1016 2553 972 2059 
L 3022 2063 
z
" transform="scale(0.015625)"/>
       <path id="DejaVuSans-20" transform="scale(0.015625)"/>
       <path id="DejaVuSans-28" d="M 1984 4856 
Q 1566 4138 1362 3434 
Q 1159 2731 1159 2009 
Q 1159 1288 1364 580 
Q 1569 -128 1984 -844 
L 1484 -844 
Q 1016 -109 783 600 
Q 550 1309 550 2009 
Q 550 2706 781 3412 
Q 1013 4119 1484 4856 
L 1984 4856 
z
" transform="scale(0.015625)"/>
       <path id="DejaVuSans-73" d="M 2834 3397 
L 2834 2853 
Q 2591 2978 2328 3040 
Q 2066 3103 1784 3103 
Q 1356 3103 1142 2972 
Q 928 2841 928 2578 
Q 928 2378 1081 2264 
Q 1234 2150 1697 2047 
L 1894 2003 
Q 2506 1872 2764 1633 
Q 3022 1394 3022 966 
Q 3022 478 2636 193 
Q 2250 -91 1575 -91 
Q 1294 -91 989 -36 
Q 684 19 347 128 
L 347 722 
Q 666 556 975 473 
Q 1284 391 1588 391 
Q 1994 391 2212 530 
Q 2431 669 2431 922 
Q 2431 1156 2273 1281 
Q 2116 1406 1581 1522 
L 1381 1569 
Q 847 1681 609 1914 
Q 372 2147 372 2553 
Q 372 3047 722 3315 
Q 1072 3584 1716 3584 
Q 2034 3584 2315 3537 
Q 2597 3491 2834 3397 
z
" transform="scale(0.015625)"/>
       <path id="DejaVuSans-29" d="M 513 4856 
L 1013 4856 
Q 1481 4119 1714 3412 
Q 1947 2706 1947 2009 
Q 1947 1309 1714 600 
Q 1481 -109 1013 -844 
L 513 -844 
Q 928 -128 1133 580 
Q 1338 1288 1338 2009 
Q 1338 2731 1133 3434 
Q 928 4138 513 4856 
z
" transform="scale(0.015625)"/>
      </defs>
      <use xlink:href="#DejaVuSans-54"/>
      <use xlink:href="#DejaVuSans-69" transform="translate(57.958984 0)"/>
      <use xlink:href="#DejaVuSans-6d" transform="translate(85.742188 0)"/>
      <use xlink:href="#DejaVuSans-65" transform="translate(183.154297 0)"/>
      <use xlink:href="#DejaVuSans-20" transform="translate(244.677734 0)"/>
      <use xlink:href="#DejaVuSans-28" transform="translate(276.464844 0)"/>
      <use xlink:href="#DejaVuSans-73" transform="translate(315.478516 0)"/>
      <use xlink:href="#DejaVuSans-29" transform="translate(367.578125 0)"/>
     </g>
    </g>
   </g>
   <g id="line2d_23">
    <path d="M 82.540909 234.594545 
L 82.561999 225.807475 
L 82.583088 221.413939 
L 82.604178 221.413939 
L 82.625267 221.413939 
L 82.646357 212.626869 
L 82.667447 208.233333 
L 82.688536 221.413939 
L 82.709626 208.233333 
L 82.730715 221.413939 
L 82.751805 212.626869 
L 82.772894 212.626869 
L 82.793984 212.626869 
L 82.815074 208.233333 
L 82.836163 208.233333 
L 82.857253 221.413939 
L 82.878342 212.626869 
L 82.899432 199.446263 
L 82.920521 199.446263 
L 82.941611 221.413939 
L 82.962701 221.413939 
L 82.98379 212.626869 
L 83.00488 217.020404 
L 83.025969 221.413939 
L 83.047059 203.839798 
L 83.068148 221.413939 
L 83.089238 94.001414 
L 83.110328 212.626869 
L 83.131417 217.020404 
L 83.152507 217.020404 
L 83.173596 94.001414 
L 83.194686 230.20101 
L 83.215775 199.446263 
L 83.236865 217.020404 
L 83.257954 217.020404 
L 83.279044 203.839798 
L 83.300134 203.839798 
L 83.321223 203.839798 
L 83.342313 195.052727 
L 83.363402 221.413939 
L 83.384492 94.001414 
L 83.405581 221.413939 
L 83.426671 199.446263 
L 83.447761 217.020404 
L 83.46885 217.020404 
L 83.48994 217.020404 
L 83.511029 98.394949 
L 83.532119 217.020404 
L 83.553208 203.839798 
L 83.574298 203.839798 
L 83.616477 217.020404 
L 83.658656 89.607879 
L 83.700835 217.020404 
L 83.743015 212.626869 
L 83.785194 212.626869 
L 83.827373 98.394949 
L 83.869552 225.807475 
L 83.911731 199.446263 
L 83.95391 217.020404 
L 83.996089 217.020404 
L 84.038269 203.839798 
L 84.080448 203.839798 
L 84.122627 203.839798 
L 84.164806 195.052727 
L 84.206985 221.413939 
L 84.249164 94.001414 
L 84.291343 221.413939 
L 84.333523 199.446263 
L 84.375702 212.626869 
L 84.417881 217.020404 
L 84.46006 212.626869 
L 84.502239 94.001414 
L 84.544418 217.020404 
L 84.586597 203.839798 
L 84.628777 199.446263 
L 84.734224 190.659192 
L 84.839672 89.607879 
L 84.94512 199.446263 
L 85.050568 212.626869 
L 85.156016 85.214343 
L 85.261464 199.446263 
L 85.366912 190.659192 
L 85.472359 217.020404 
L 85.577807 80.820808 
L 85.683255 217.020404 
L 85.788703 133.543232 
L 85.894151 221.413939 
L 85.999599 89.607879 
L 86.105047 217.020404 
L 86.210494 142.330303 
L 86.315942 212.626869 
L 86.42139 164.29798 
L 86.526838 89.607879 
L 86.632286 80.820808 
L 86.737734 199.446263 
L 86.948629 190.659192 
L 87.159525 85.214343 
L 87.370421 195.052727 
L 87.581317 203.839798 
L 87.792212 89.607879 
L 93.064605 85.214343 
L 98.336998 164.29798 
L 103.60939 85.214343 
L 124.698961 85.214343 
L 145.788532 164.29798 
L 166.878103 89.607879 
L 187.967674 199.446263 
L 209.057245 164.29798 
L 230.146816 195.052727 
L 251.236386 85.214343 
L 272.325957 168.691515 
L 293.415528 199.446263 
L 346.139455 76.427273 
L 398.863382 36.885455 
L 451.587309 137.936768 
L 504.311237 195.052727 
L 609.759091 76.427273 
" clip-path="url(#p85af112922)" style="fill: none; stroke: #1f77b4; stroke-width: 1.8; stroke-linecap: square"/>
   </g>
   <g id="line2d_24">
    <path d="M 82.540909 230.20101 
L 82.561999 225.807475 
L 82.583088 221.413939 
L 82.604178 225.807475 
L 82.625267 225.807475 
L 82.646357 217.020404 
L 82.667447 217.020404 
L 82.688536 225.807475 
L 82.709626 212.626869 
L 82.730715 225.807475 
L 82.751805 217.020404 
L 82.772894 217.020404 
L 82.793984 217.020404 
L 82.815074 217.020404 
L 82.836163 212.626869 
L 82.857253 221.413939 
L 82.878342 217.020404 
L 82.899432 208.233333 
L 82.920521 203.839798 
L 82.941611 225.807475 
L 82.962701 221.413939 
L 82.98379 217.020404 
L 83.00488 217.020404 
L 83.025969 217.020404 
L 83.047059 208.233333 
L 83.068148 217.020404 
L 83.089238 133.543232 
L 83.110328 212.626869 
L 83.131417 217.020404 
L 83.152507 217.020404 
L 83.173596 124.756162 
L 83.194686 225.807475 
L 83.215775 203.839798 
L 83.236865 217.020404 
L 83.257954 217.020404 
L 83.279044 208.233333 
L 83.300134 203.839798 
L 83.321223 203.839798 
L 83.342313 203.839798 
L 83.363402 217.020404 
L 83.384492 129.149697 
L 83.405581 217.020404 
L 83.426671 203.839798 
L 83.447761 217.020404 
L 83.46885 212.626869 
L 83.48994 217.020404 
L 83.511029 124.756162 
L 83.532119 217.020404 
L 83.553208 203.839798 
L 83.574298 208.233333 
L 83.616477 217.020404 
L 83.658656 129.149697 
L 83.700835 212.626869 
L 83.743015 217.020404 
L 83.785194 217.020404 
L 83.827373 129.149697 
L 83.869552 221.413939 
L 83.911731 203.839798 
L 83.95391 217.020404 
L 83.996089 217.020404 
L 84.038269 203.839798 
L 84.080448 208.233333 
L 84.122627 203.839798 
L 84.164806 203.839798 
L 84.206985 217.020404 
L 84.249164 124.756162 
L 84.291343 217.020404 
L 84.333523 203.839798 
L 84.375702 212.626869 
L 84.417881 212.626869 
L 84.46006 217.020404 
L 84.502239 124.756162 
L 84.544418 217.020404 
L 84.586597 203.839798 
L 84.628777 203.839798 
L 84.734224 203.839798 
L 84.839672 129.149697 
L 84.94512 203.839798 
L 85.050568 212.626869 
L 85.156016 115.969091 
L 85.261464 203.839798 
L 85.366912 203.839798 
L 85.472359 217.020404 
L 85.577807 120.362626 
L 85.683255 212.626869 
L 85.788703 168.691515 
L 85.894151 217.020404 
L 85.999599 120.362626 
L 86.105047 217.020404 
L 86.210494 168.691515 
L 86.315942 212.626869 
L 86.42139 181.872121 
L 86.526838 124.756162 
L 86.632286 120.362626 
L 86.737734 208.233333 
L 86.948629 199.446263 
L 87.159525 120.362626 
L 87.370421 203.839798 
L 87.581317 203.839798 
L 87.792212 120.362626 
L 93.064605 133.543232 
L 98.336998 181.872121 
L 103.60939 124.756162 
L 124.698961 124.756162 
L 145.788532 181.872121 
L 166.878103 124.756162 
L 187.967674 203.839798 
L 209.057245 181.872121 
L 230.146816 203.839798 
L 251.236386 120.362626 
L 272.325957 181.872121 
L 293.415528 203.839798 
L 346.139455 115.969091 
L 398.863382 102.788485 
L 451.587309 173.085051 
L 504.311237 203.839798 
L 609.759091 124.756162 
" clip-path="url(#p85af112922)" style="fill: none; stroke: #2ca02c; stroke-width: 1.8; stroke-linecap: square"/>
   </g>
   <g id="line2d_25">
    <path d="M 82.540909 230.20101 
L 82.561999 225.807475 
L 82.583088 221.413939 
L 82.604178 225.807475 
L 82.625267 221.413939 
L 82.646357 217.020404 
L 82.667447 217.020404 
L 82.688536 225.807475 
L 82.709626 217.020404 
L 82.730715 225.807475 
L 82.751805 217.020404 
L 82.772894 217.020404 
L 82.793984 217.020404 
L 82.815074 217.020404 
L 82.836163 217.020404 
L 82.857253 225.807475 
L 82.878342 217.020404 
L 82.899432 203.839798 
L 82.920521 208.233333 
L 82.941611 225.807475 
L 82.962701 225.807475 
L 82.98379 217.020404 
L 83.00488 217.020404 
L 83.025969 217.020404 
L 83.047059 203.839798 
L 83.068148 217.020404 
L 83.089238 133.543232 
L 83.110328 217.020404 
L 83.131417 217.020404 
L 83.152507 217.020404 
L 83.173596 129.149697 
L 83.194686 225.807475 
L 83.215775 208.233333 
L 83.236865 217.020404 
L 83.257954 217.020404 
L 83.279044 203.839798 
L 83.300134 208.233333 
L 83.321223 208.233333 
L 83.342313 203.839798 
L 83.363402 217.020404 
L 83.384492 124.756162 
L 83.405581 217.020404 
L 83.426671 203.839798 
L 83.447761 217.020404 
L 83.46885 217.020404 
L 83.48994 217.020404 
L 83.511029 133.543232 
L 83.532119 217.020404 
L 83.553208 208.233333 
L 83.574298 208.233333 
L 83.616477 217.020404 
L 83.658656 129.149697 
L 83.700835 217.020404 
L 83.743015 217.020404 
L 83.785194 217.020404 
L 83.827373 133.543232 
L 83.869552 225.807475 
L 83.911731 208.233333 
L 83.95391 217.020404 
L 83.996089 217.020404 
L 84.038269 203.839798 
L 84.080448 203.839798 
L 84.122627 203.839798 
L 84.164806 199.446263 
L 84.206985 217.020404 
L 84.249164 133.543232 
L 84.291343 217.020404 
L 84.333523 203.839798 
L 84.375702 217.020404 
L 84.417881 217.020404 
L 84.46006 217.020404 
L 84.502239 129.149697 
L 84.544418 217.020404 
L 84.586597 203.839798 
L 84.628777 203.839798 
L 84.734224 203.839798 
L 84.839672 124.756162 
L 84.94512 203.839798 
L 85.050568 217.020404 
L 85.156016 133.543232 
L 85.261464 208.233333 
L 85.366912 203.839798 
L 85.472359 217.020404 
L 85.577807 129.149697 
L 85.683255 217.020404 
L 85.788703 168.691515 
L 85.894151 217.020404 
L 85.999599 124.756162 
L 86.105047 217.020404 
L 86.210494 168.691515 
L 86.315942 217.020404 
L 86.42139 177.478586 
L 86.526838 120.362626 
L 86.632286 115.969091 
L 86.737734 208.233333 
L 86.948629 203.839798 
L 87.159525 120.362626 
L 87.370421 203.839798 
L 87.581317 208.233333 
L 87.792212 129.149697 
L 93.064605 129.149697 
L 98.336998 181.872121 
L 103.60939 124.756162 
L 124.698961 129.149697 
L 145.788532 186.265657 
L 166.878103 120.362626 
L 187.967674 208.233333 
L 209.057245 186.265657 
L 230.146816 203.839798 
L 251.236386 120.362626 
L 272.325957 186.265657 
L 293.415528 203.839798 
L 346.139455 124.756162 
L 398.863382 111.575556 
L 451.587309 168.691515 
L 504.311237 208.233333 
L 609.759091 129.149697 
" clip-path="url(#p85af112922)" style="fill: none; stroke: #ff7f0e; stroke-width: 1.8; stroke-linecap: square"/>
   </g>
   <g id="patch_3">
    <path d="M 56.18 244.48 
L 56.18 27 
" style="fill: none; stroke: #000000; stroke-width: 0.8; stroke-linejoin: miter; stroke-linecap: square"/>
   </g>
   <g id="patch_4">
    <path d="M 636.12 244.48 
L 636.12 27 
" style="fill: none; stroke: #000000; stroke-width: 0.8; stroke-linejoin: miter; stroke-linecap: square"/>
   </g>
   <g id="patch_5">
    <path d="M 56.18 244.48 
L 636.12 244.48 
" style="fill: none; stroke: #000000; stroke-width: 0.8; stroke-linejoin: miter; stroke-linecap: square"/>
   </g>
   <g id="patch_6">
    <path d="M 56.18 27 
L 636.12 27 
" style="fill: none; stroke: #000000; stroke-width: 0.8; stroke-linejoin: miter; stroke-linecap: square"/>
   </g>
   <g id="text_14">
    <!-- Collatz — prove:commit -->
    <g transform="translate(274.209063 21) scale(0.12 -0.12)">
     <defs>
      <path id="DejaVuSans-43" d="M 4122 4306 
L 4122 3641 
Q 3803 3938 3442 4084 
Q 3081 4231 2675 4231 
Q 1875 4231 1450 3742 
Q 1025 3253 1025 2328 
Q 1025 1406 1450 917 
Q 1875 428 2675 428 
Q 3081 428 3442 575 
Q 3803 722 4122 1019 
L 4122 359 
Q 3791 134 3420 21 
Q 3050 -91 2638 -91 
Q 1578 -91 968 557 
Q 359 1206 359 2328 
Q 359 3453 968 4101 
Q 1578 4750 2638 4750 
Q 3056 4750 3426 4639 
Q 3797 4528 4122 4306 
z
" transform="scale(0.015625)"/>
      <path id="DejaVuSans-6f" d="M 1959 3097 
Q 1497 3097 1228 2736 
Q 959 2375 959 1747 
Q 959 1119 1226 758 
Q 1494 397 1959 397 
Q 2419 397 2687 759 
Q 2956 1122 2956 1747 
Q 2956 2369 2687 2733 
Q 2419 3097 1959 3097 
z
M 1959 3584 
Q 2709 3584 3137 3096 
Q 3566 2609 3566 1747 
Q 3566 888 3137 398 
Q 2709 -91 1959 -91 
Q 1206 -91 779 398 
Q 353 888 353 1747 
Q 353 2609 779 3096 
Q 1206 3584 1959 3584 
z
" transform="scale(0.015625)"/>
      <path id="DejaVuSans-6c" d="M 603 4863 
L 1178 4863 
L 1178 0 
L 603 0 
L 603 4863 
z
" transform="scale(0.015625)"/>
      <path id="DejaVuSans-61" d="M 2194 1759 
Q 1497 1759 1228 1600 
Q 959 1441 959 1056 
Q 959 750 1161 570 
Q 1363 391 1709 391 
Q 2188 391 2477 730 
Q 2766 1069 2766 1631 
L 2766 1759 
L 2194 1759 
z
M 3341 1997 
L 3341 0 
L 2766 0 
L 2766 531 
Q 2569 213 2275 61 
Q 1981 -91 1556 -91 
Q 1019 -91 701 211 
Q 384 513 384 1019 
Q 384 1609 779 1909 
Q 1175 2209 1959 2209 
L 2766 2209 
L 2766 2266 
Q 2766 2663 2505 2880 
Q 2244 3097 1772 3097 
Q 1472 3097 1187 3025 
Q 903 2953 641 2809 
L 641 3341 
Q 956 3463 1253 3523 
Q 1550 3584 1831 3584 
Q 2591 3584 2966 3190 
Q 3341 2797 3341 1997 
z
" transform="scale(0.015625)"/>
      <path id="DejaVuSans-7a" d="M 353 3500 
L 3084 3500 
L 3084 2975 
L 922 459 
L 3084 459 
L 3084 0 
L 275 0 
L 275 525 
L 2438 3041 
L 353 3041 
L 353 3500 
z
" transform="scale(0.015625)"/>
      <path id="DejaVuSans-2014" d="M 313 1978 
L 6088 1978 
L 6088 1528 
L 313 1528 
L 313 1978 
z
" transform="scale(0.015625)"/>
      <path id="DejaVuSans-72" d="M 2631 2963 
Q 2534 3019 2420 3045 
Q 2306 3072 2169 3072 
Q 1681 3072 1420 2755 
Q 1159 2438 1159 1844 
L 1159 0 
L 581 0 
L 581 3500 
L 1159 3500 
L 1159 2956 
Q 1341 3275 1631 3429 
Q 1922 3584 2338 3584 
Q 2397 3584 2469 3576 
Q 2541 3569 2628 3553 
L 2631 2963 
z
" transform="scale(0.015625)"/>
      <path id="DejaVuSans-76" d="M 191 3500 
L 800 3500 
L 1894 563 
L 2988 3500 
L 3597 3500 
L 2284 0 
L 1503 0 
L 191 3500 
z
" transform="scale(0.015625)"/>
      <path id="DejaVuSans-3a" d="M 750 794 
L 1409 794 
L 1409 0 
L 750 0 
L 750 794 
z
M 750 3309 
L 1409 3309 
L 1409 2516 
L 750 2516 
L 750 3309 
z
" transform="scale(0.015625)"/>
      <path id="DejaVuSans-63" d="M 3122 3366 
L 3122 2828 
Q 2878 2963 2633 3030 
Q 2388 3097 2138 3097 
Q 1578 3097 1268 2742 
Q 959 2388 959 1747 
Q 959 1106 1268 751 
Q 1578 397 2138 397 
Q 2388 397 2633 464 
Q 2878 531 3122 666 
L 3122 134 
Q 2881 22 2623 -34 
Q 2366 -91 2075 -91 
Q 1284 -91 818 406 
Q 353 903 353 1747 
Q 353 2603 823 3093 
Q 1294 3584 2113 3584 
Q 2378 3584 2631 3529 
Q 2884 3475 3122 3366 
z
" transform="scale(0.015625)"/>
     </defs>
     <use xlink:href="#DejaVuSans-43"/>
     <use xlink:href="#DejaVuSans-6f" transform="translate(69.824219 0)"/>
     <use xlink:href="#DejaVuSans-6c" transform="translate(131.005859 0)"/>
     <use xlink:href="#DejaVuSans-6c" transform="translate(158.789062 0)"/>
     <use xlink:href="#DejaVuSans-61" transform="translate(186.572266 0)"/>
     <use xlink:href="#DejaVuSans-74" transform="translate(247.851562 0)"/>
     <use xlink:href="#DejaVuSans-7a" transform="translate(287.060547 0)"/>
     <use xlink:href="#DejaVuSans-20" transform="translate(339.550781 0)"/>
     <use xlink:href="#DejaVuSans-2014" transform="translate(371.337891 0)"/>
     <use xlink:href="#DejaVuSans-20" transform="translate(471.337891 0)"/>
     <use xlink:href="#DejaVuSans-70" transform="translate(503.125 0)"/>
     <use xlink:href="#DejaVuSans-72" transform="translate(566.601562 0)"/>
     <use xlink:href="#DejaVuSans-6f" transform="translate(605.464844 0)"/>
     <use xlink:href="#DejaVuSans-76" transform="translate(666.646484 0)"/>
     <use xlink:href="#DejaVuSans-65" transform="translate(725.826172 0)"/>
     <use xlink:href="#DejaVuSans-3a" transform="translate(787.349609 0)"/>
     <use xlink:href="#DejaVuSans-63" transform="translate(821.041016 0)"/>
     <use xlink:href="#DejaVuSans-6f" transform="translate(876.021484 0)"/>
     <use xlink:href="#DejaVuSans-6d" transform="translate(937.203125 0)"/>
     <use xlink:href="#DejaVuSans-6d" transform="translate(1034.615234 0)"/>
     <use xlink:href="#DejaVuSans-69" transform="translate(1132.027344 0)"/>
     <use xlink:href="#DejaVuSans-74" transform="translate(1159.810547 0)"/>
    </g>
   </g>
   <g id="legend_1">
    <g id="line2d_26">
     <path d="M 65.18 40.098438 
L 75.18 40.098438 
L 85.18 40.098438 
" style="fill: none; stroke: #1f77b4; stroke-width: 1.8; stroke-linecap: square"/>
    </g>
    <g id="text_15">
     <!-- 32-reg -->
     <g transform="translate(93.18 43.598438) scale(0.1 -0.1)">
      <defs>
       <path id="DejaVuSans-2d" d="M 313 2009 
L 1997 2009 
L 1997 1497 
L 313 1497 
L 313 2009 
z
" transform="scale(0.015625)"/>
       <path id="DejaVuSans-67" d="M 2906 1791 
Q 2906 2416 2648 2759 
Q 2391 3103 1925 3103 
Q 1463 3103 1205 2759 
Q 947 2416 947 1791 
Q 947 1169 1205 825 
Q 1463 481 1925 481 
Q 2391 481 2648 825 
Q 2906 1169 2906 1791 
z
M 3481 434 
Q 3481 -459 3084 -895 
Q 2688 -1331 1869 -1331 
Q 1566 -1331 1297 -1286 
Q 1028 -1241 775 -1147 
L 775 -588 
Q 1028 -725 1275 -790 
Q 1522 -856 1778 -856 
Q 2344 -856 2625 -561 
Q 2906 -266 2906 331 
L 2906 616 
Q 2728 306 2450 153 
Q 2172 0 1784 0 
Q 1141 0 747 490 
Q 353 981 353 1791 
Q 353 2603 747 3093 
Q 1141 3584 1784 3584 
Q 2172 3584 2450 3431 
Q 2728 3278 2906 2969 
L 2906 3500 
L 3481 3500 
L 3481 434 
z
" transform="scale(0.015625)"/>
      </defs>
      <use xlink:href="#DejaVuSans-33"/>
      <use xlink:href="#DejaVuSans-32" transform="translate(63.623047 0)"/>
      <use xlink:href="#DejaVuSans-2d" transform="translate(127.246094 0)"/>
      <use xlink:href="#DejaVuSans-72" transform="translate(163.330078 0)"/>
      <use xlink:href="#DejaVuSans-65" transform="translate(202.193359 0)"/>
      <use xlink:href="#DejaVuSans-67" transform="translate(263.716797 0)"/>
     </g>
    </g>
    <g id="line2d_27">
     <path d="M 65.18 54.776563 
L 75.18 54.776563 
L 85.18 54.776563 
" style="fill: none; stroke: #2ca02c; stroke-width: 1.8; stroke-linecap: square"/>
    </g>
    <g id="text_16">
     <!-- mem-batch -->
     <g transform="translate(93.18 58.276563) scale(0.1 -0.1)">
      <defs>
       <path id="DejaVuSans-62" d="M 3116 1747 
Q 3116 2381 2855 2742 
Q 2594 3103 2138 3103 
Q 1681 3103 1420 2742 
Q 1159 2381 1159 1747 
Q 1159 1113 1420 752 
Q 1681 391 2138 391 
Q 2594 391 2855 752 
Q 3116 1113 3116 1747 
z
M 1159 2969 
Q 1341 3281 1617 3432 
Q 1894 3584 2278 3584 
Q 2916 3584 3314 3078 
Q 3713 2572 3713 1747 
Q 3713 922 3314 415 
Q 2916 -91 2278 -91 
Q 1894 -91 1617 61 
Q 1341 213 1159 525 
L 1159 0 
L 581 0 
L 581 4863 
L 1159 4863 
L 1159 2969 
z
" transform="scale(0.015625)"/>
       <path id="DejaVuSans-68" d="M 3513 2113 
L 3513 0 
L 2938 0 
L 2938 2094 
Q 2938 2591 2744 2837 
Q 2550 3084 2163 3084 
Q 1697 3084 1428 2787 
Q 1159 2491 1159 1978 
L 1159 0 
L 581 0 
L 581 4863 
L 1159 4863 
L 1159 2956 
Q 1366 3272 1645 3428 
Q 1925 3584 2291 3584 
Q 2894 3584 3203 3211 
Q 3513 2838 3513 2113 
z
" transform="scale(0.015625)"/>
      </defs>
      <use xlink:href="#DejaVuSans-6d"/>
      <use xlink:href="#DejaVuSans-65" transform="translate(97.412109 0)"/>
      <use xlink:href="#DejaVuSans-6d" transform="translate(158.935547 0)"/>
      <use xlink:href="#DejaVuSans-2d" transform="translate(256.347656 0)"/>
      <use xlink:href="#DejaVuSans-62" transform="translate(292.431641 0)"/>
      <use xlink:href="#DejaVuSans-61" transform="translate(355.908203 0)"/>
      <use xlink:href="#DejaVuSans-74" transform="translate(417.1875 0)"/>
      <use xlink:href="#DejaVuSans-63" transform="translate(456.396484 0)"/>
      <use xlink:href="#DejaVuSans-68" transform="translate(511.376953 0)"/>
     </g>
    </g>
    <g id="line2d_28">
     <path d="M 65.18 69.454688 
L 75.18 69.454688 
L 85.18 69.454688 
" style="fill: none; stroke: #ff7f0e; stroke-width: 1.8; stroke-linecap: square"/>
    </g>
    <g id="text_17">
     <!-- vanilla -->
     <g transform="translate(93.18 72.954688) scale(0.1 -0.1)">
      <use xlink:href="#DejaVuSans-76"/>
      <use xlink:href="#DejaVuSans-61" transform="translate(59.179688 0)"/>
      <use xlink:href="#DejaVuSans-6e" transform="translate(120.458984 0)"/>
      <use xlink:href="#DejaVuSans-69" transform="translate(183.837891 0)"/>
      <use xlink:href="#DejaVuSans-6c" transform="translate(211.621094 0)"/>
      <use xlink:href="#DejaVuSans-6c" transform="translate(239.404297 0)"/>
      <use xlink:href="#DejaVuSans-61" transform="translate(267.1875 0)"/>
     </g>
    </g>
   </g>
  </g>
 </g>
 <defs>
  <clipPath id="p85af112922">
   <rect x="56.18" y="27" width="579.94" height="217.48"/>
  </clipPath>
 </defs>
</svg>
