<?xml version="1.0" encoding="utf-8" standalone="no"?>
<!DOCTYPE svg PUBLIC "-//W3C//DTD SVG 1.1//EN"
  "http://www.w3.org/Graphics/SVG/1.1/DTD/svg11.dtd">
<svg xmlns:xlink="http://www.w3.org/1999/xlink" width="864pt" height="288pt" viewBox="0 0 864 288" xmlns="http://www.w3.org/2000/svg" version="1.1">
 <metadata>
  <rdf:RDF xmlns:dc="http://purl.org/dc/elements/1.1/" xmlns:cc="http://creativecommons.org/ns#" xmlns:rdf="http://www.w3.org/1999/02/22-rdf-syntax-ns#">
   <cc:Work>
    <dc:type rdf:resource="http://purl.org/dc/dcmitype/StillImage"/>
    <dc:date>2025-09-07T14:35:41.837450</dc:date>
    <dc:format>image/svg+xml</dc:format>
    <dc:creator>
     <cc:Agent>
      <dc:title>Matplotlib v3.10.6, https://matplotlib.org/</dc:title>
     </cc:Agent>
    </dc:creator>
   </cc:Work>
  </rdf:RDF>
 </metadata>
 <defs>
  <style type="text/css">*{stroke-linejoin: round; stroke-linecap: butt}</style>
 </defs>
 <g id="figure_1">
  <g id="patch_1">
   <path d="M 0 288 
L 864 288 
L 864 0 
L 0 0 
z
" style="fill: #ffffff"/>
  </g>
  <g id="axes_1">
   <g id="patch_2">
    <path d="M 56.24 244.48 
L 852.12 244.48 
L 852.12 27 
L 56.24 27 
z
" style="fill: #ffffff"/>
   </g>
   <g id="FillBetweenPolyCollection_1">
    <path d="M 92.416364 231.80991 
L 92.416364 234.594545 
L 92.445306 234.594545 
L 92.474248 234.594545 
L 92.50319 234.594545 
L 92.532133 234.594545 
L 92.561075 234.594545 
L 92.590017 234.594545 
L 92.618959 234.594545 
L 92.647902 234.594545 
L 92.676844 234.594545 
L 92.705786 234.594545 
L 92.734728 234.594545 
L 92.763671 234.594545 
L 92.792613 234.594545 
L 92.821555 234.594545 
L 92.850497 234.594545 
L 92.87944 234.594545 
L 92.908382 234.594545 
L 92.937324 234.594545 
L 92.966266 234.594545 
L 92.995209 234.594545 
L 93.024151 234.594545 
L 93.053093 234.594545 
L 93.082035 234.594545 
L 93.110978 234.594545 
L 93.13992 234.594545 
L 93.168862 234.594545 
L 93.197804 234.594545 
L 93.226747 234.594545 
L 93.255689 234.594545 
L 93.284631 234.594545 
L 93.313573 234.594545 
L 93.342516 234.594545 
L 93.371458 234.594545 
L 93.4004 234.594545 
L 93.429342 234.594545 
L 93.458285 234.594545 
L 93.487227 234.594545 
L 93.516169 234.594545 
L 93.545111 234.594545 
L 93.574054 234.594545 
L 93.602996 234.594545 
L 93.631938 234.594545 
L 93.66088 234.594545 
L 93.689823 234.594545 
L 93.718765 234.594545 
L 93.747707 234.594545 
L 93.776649 234.594545 
L 93.805592 234.594545 
L 93.834534 234.594545 
L 93.892418 234.594545 
L 93.950303 234.594545 
L 94.008187 234.594545 
L 94.066072 234.594545 
L 94.123956 234.594545 
L 94.181841 234.594545 
L 94.239725 234.594545 
L 94.29761 234.594545 
L 94.355494 234.594545 
L 94.413379 234.594545 
L 94.471263 234.594545 
L 94.529148 234.594545 
L 94.587032 234.594545 
L 94.644917 234.594545 
L 94.702801 234.594545 
L 94.760686 234.594545 
L 94.81857 234.594545 
L 94.876455 234.594545 
L 94.934339 234.594545 
L 94.992224 234.594545 
L 95.050108 234.594545 
L 95.107993 234.594545 
L 95.165877 234.594545 
L 95.223762 234.594545 
L 95.281646 234.594545 
L 95.426357 234.594545 
L 95.571069 234.594545 
L 95.71578 234.594545 
L 95.860491 234.594545 
L 96.005202 234.594545 
L 96.149914 234.594545 
L 96.294625 234.594545 
L 96.439336 234.594545 
L 96.584047 234.594545 
L 96.728759 234.594545 
L 96.87347 234.594545 
L 97.018181 234.594545 
L 97.162892 234.594545 
L 97.307604 234.594545 
L 97.452315 234.594545 
L 97.597026 234.594545 
L 97.741737 234.594545 
L 97.886449 234.594545 
L 98.03116 234.594545 
L 98.175871 234.594545 
L 98.465294 234.594545 
L 98.754716 234.594545 
L 99.044139 234.594545 
L 99.333561 234.594545 
L 99.622984 234.594545 
L 106.858546 234.594545 
L 114.094108 234.594545 
L 121.32967 234.594545 
L 150.271919 234.594545 
L 179.214167 234.594545 
L 208.156416 234.594545 
L 237.098664 234.594545 
L 266.040913 234.594545 
L 294.983162 234.594545 
L 323.92541 234.594545 
L 352.867659 234.594545 
L 381.809907 234.594545 
L 454.165529 234.594545 
L 526.52115 234.594545 
L 598.876772 234.594545 
L 671.232393 234.594545 
L 815.943636 234.594545 
L 815.943636 229.025275 
L 815.943636 229.025275 
L 671.232393 229.025275 
L 598.876772 229.025275 
L 526.52115 229.025275 
L 454.165529 229.025275 
L 381.809907 229.025275 
L 352.867659 229.025275 
L 323.92541 229.025275 
L 294.983162 229.025275 
L 266.040913 229.025275 
L 237.098664 229.025275 
L 208.156416 229.025275 
L 179.214167 231.80991 
L 150.271919 229.025275 
L 121.32967 229.025275 
L 114.094108 229.025275 
L 106.858546 229.025275 
L 99.622984 231.80991 
L 99.333561 229.025275 
L 99.044139 229.025275 
L 98.754716 231.80991 
L 98.465294 229.025275 
L 98.175871 229.025275 
L 98.03116 229.025275 
L 97.886449 229.025275 
L 97.741737 229.025275 
L 97.597026 229.025275 
L 97.452315 229.025275 
L 97.307604 231.80991 
L 97.162892 231.80991 
L 97.018181 231.80991 
L 96.87347 229.025275 
L 96.728759 229.025275 
L 96.584047 229.025275 
L 96.439336 229.025275 
L 96.294625 231.80991 
L 96.149914 231.80991 
L 96.005202 229.025275 
L 95.860491 229.025275 
L 95.71578 231.80991 
L 95.571069 229.025275 
L 95.426357 231.80991 
L 95.281646 229.025275 
L 95.223762 231.80991 
L 95.165877 229.025275 
L 95.107993 231.80991 
L 95.050108 231.80991 
L 94.992224 231.80991 
L 94.934339 231.80991 
L 94.876455 229.025275 
L 94.81857 231.80991 
L 94.760686 229.025275 
L 94.702801 229.025275 
L 94.644917 231.80991 
L 94.587032 231.80991 
L 94.529148 231.80991 
L 94.471263 229.025275 
L 94.413379 231.80991 
L 94.355494 229.025275 
L 94.29761 231.80991 
L 94.239725 229.025275 
L 94.181841 231.80991 
L 94.123956 231.80991 
L 94.066072 231.80991 
L 94.008187 231.80991 
L 93.950303 231.80991 
L 93.892418 231.80991 
L 93.834534 231.80991 
L 93.805592 231.80991 
L 93.776649 229.025275 
L 93.747707 229.025275 
L 93.718765 231.80991 
L 93.689823 231.80991 
L 93.66088 231.80991 
L 93.631938 231.80991 
L 93.602996 231.80991 
L 93.574054 229.025275 
L 93.545111 231.80991 
L 93.516169 231.80991 
L 93.487227 231.80991 
L 93.458285 231.80991 
L 93.429342 231.80991 
L 93.4004 231.80991 
L 93.371458 231.80991 
L 93.342516 231.80991 
L 93.313573 231.80991 
L 93.284631 231.80991 
L 93.255689 229.025275 
L 93.226747 229.025275 
L 93.197804 229.025275 
L 93.168862 231.80991 
L 93.13992 229.025275 
L 93.110978 231.80991 
L 93.082035 231.80991 
L 93.053093 231.80991 
L 93.024151 231.80991 
L 92.995209 231.80991 
L 92.966266 231.80991 
L 92.937324 231.80991 
L 92.908382 231.80991 
L 92.87944 231.80991 
L 92.850497 231.80991 
L 92.821555 231.80991 
L 92.792613 229.025275 
L 92.763671 231.80991 
L 92.734728 231.80991 
L 92.705786 231.80991 
L 92.676844 231.80991 
L 92.647902 231.80991 
L 92.618959 231.80991 
L 92.590017 231.80991 
L 92.561075 231.80991 
L 92.532133 231.80991 
L 92.50319 231.80991 
L 92.474248 231.80991 
L 92.445306 231.80991 
L 92.416364 231.80991 
z
" clip-path="url(#p1d39bebfe0)" style="fill: #1f77b4; fill-opacity: 0.7"/>
   </g>
   <g id="FillBetweenPolyCollection_2">
    <path d="M 92.416364 198.394289 
L 92.416364 231.80991 
L 92.445306 231.80991 
L 92.474248 231.80991 
L 92.50319 231.80991 
L 92.532133 231.80991 
L 92.561075 231.80991 
L 92.590017 231.80991 
L 92.618959 231.80991 
L 92.647902 231.80991 
L 92.676844 231.80991 
L 92.705786 231.80991 
L 92.734728 231.80991 
L 92.763671 231.80991 
L 92.792613 229.025275 
L 92.821555 231.80991 
L 92.850497 231.80991 
L 92.87944 231.80991 
L 92.908382 231.80991 
L 92.937324 231.80991 
L 92.966266 231.80991 
L 92.995209 231.80991 
L 93.024151 231.80991 
L 93.053093 231.80991 
L 93.082035 231.80991 
L 93.110978 231.80991 
L 93.13992 229.025275 
L 93.168862 231.80991 
L 93.197804 229.025275 
L 93.226747 229.025275 
L 93.255689 229.025275 
L 93.284631 231.80991 
L 93.313573 231.80991 
L 93.342516 231.80991 
L 93.371458 231.80991 
L 93.4004 231.80991 
L 93.429342 231.80991 
L 93.458285 231.80991 
L 93.487227 231.80991 
L 93.516169 231.80991 
L 93.545111 231.80991 
L 93.574054 229.025275 
L 93.602996 231.80991 
L 93.631938 231.80991 
L 93.66088 231.80991 
L 93.689823 231.80991 
L 93.718765 231.80991 
L 93.747707 229.025275 
L 93.776649 229.025275 
L 93.805592 231.80991 
L 93.834534 231.80991 
L 93.892418 231.80991 
L 93.950303 231.80991 
L 94.008187 231.80991 
L 94.066072 231.80991 
L 94.123956 231.80991 
L 94.181841 231.80991 
L 94.239725 229.025275 
L 94.29761 231.80991 
L 94.355494 229.025275 
L 94.413379 231.80991 
L 94.471263 229.025275 
L 94.529148 231.80991 
L 94.587032 231.80991 
L 94.644917 231.80991 
L 94.702801 229.025275 
L 94.760686 229.025275 
L 94.81857 231.80991 
L 94.876455 229.025275 
L 94.934339 231.80991 
L 94.992224 231.80991 
L 95.050108 231.80991 
L 95.107993 231.80991 
L 95.165877 229.025275 
L 95.223762 231.80991 
L 95.281646 229.025275 
L 95.426357 231.80991 
L 95.571069 229.025275 
L 95.71578 231.80991 
L 95.860491 229.025275 
L 96.005202 229.025275 
L 96.149914 231.80991 
L 96.294625 231.80991 
L 96.439336 229.025275 
L 96.584047 229.025275 
L 96.728759 229.025275 
L 96.87347 229.025275 
L 97.018181 231.80991 
L 97.162892 231.80991 
L 97.307604 231.80991 
L 97.452315 229.025275 
L 97.597026 229.025275 
L 97.741737 229.025275 
L 97.886449 229.025275 
L 98.03116 229.025275 
L 98.175871 229.025275 
L 98.465294 229.025275 
L 98.754716 231.80991 
L 99.044139 229.025275 
L 99.333561 229.025275 
L 99.622984 231.80991 
L 106.858546 229.025275 
L 114.094108 229.025275 
L 121.32967 229.025275 
L 150.271919 229.025275 
L 179.214167 231.80991 
L 208.156416 229.025275 
L 237.098664 229.025275 
L 266.040913 229.025275 
L 294.983162 229.025275 
L 323.92541 229.025275 
L 352.867659 229.025275 
L 381.809907 229.025275 
L 454.165529 229.025275 
L 526.52115 229.025275 
L 598.876772 229.025275 
L 671.232393 229.025275 
L 815.943636 229.025275 
L 815.943636 67.51644 
L 815.943636 67.51644 
L 671.232393 187.255749 
L 598.876772 187.255749 
L 526.52115 187.255749 
L 454.165529 137.132318 
L 381.809907 187.255749 
L 352.867659 190.040384 
L 323.92541 190.040384 
L 294.983162 190.040384 
L 266.040913 190.040384 
L 237.098664 190.040384 
L 208.156416 190.040384 
L 179.214167 190.040384 
L 150.271919 190.040384 
L 121.32967 190.040384 
L 114.094108 190.040384 
L 106.858546 190.040384 
L 99.622984 192.825019 
L 99.333561 190.040384 
L 99.044139 190.040384 
L 98.754716 192.825019 
L 98.465294 190.040384 
L 98.175871 190.040384 
L 98.03116 190.040384 
L 97.886449 190.040384 
L 97.741737 190.040384 
L 97.597026 190.040384 
L 97.452315 190.040384 
L 97.307604 192.825019 
L 97.162892 192.825019 
L 97.018181 192.825019 
L 96.87347 190.040384 
L 96.728759 190.040384 
L 96.584047 190.040384 
L 96.439336 190.040384 
L 96.294625 192.825019 
L 96.149914 192.825019 
L 96.005202 190.040384 
L 95.860491 190.040384 
L 95.71578 192.825019 
L 95.571069 192.825019 
L 95.426357 195.609654 
L 95.281646 192.825019 
L 95.223762 195.609654 
L 95.165877 190.040384 
L 95.107993 195.609654 
L 95.050108 192.825019 
L 94.992224 195.609654 
L 94.934339 195.609654 
L 94.876455 190.040384 
L 94.81857 195.609654 
L 94.760686 190.040384 
L 94.702801 190.040384 
L 94.644917 192.825019 
L 94.587032 195.609654 
L 94.529148 195.609654 
L 94.471263 190.040384 
L 94.413379 195.609654 
L 94.355494 190.040384 
L 94.29761 195.609654 
L 94.239725 192.825019 
L 94.181841 195.609654 
L 94.123956 195.609654 
L 94.066072 195.609654 
L 94.008187 195.609654 
L 93.950303 192.825019 
L 93.892418 195.609654 
L 93.834534 195.609654 
L 93.805592 195.609654 
L 93.776649 190.040384 
L 93.747707 192.825019 
L 93.718765 195.609654 
L 93.689823 195.609654 
L 93.66088 195.609654 
L 93.631938 192.825019 
L 93.602996 195.609654 
L 93.574054 190.040384 
L 93.545111 195.609654 
L 93.516169 195.609654 
L 93.487227 192.825019 
L 93.458285 195.609654 
L 93.429342 195.609654 
L 93.4004 195.609654 
L 93.371458 195.609654 
L 93.342516 195.609654 
L 93.313573 195.609654 
L 93.284631 195.609654 
L 93.255689 192.825019 
L 93.226747 192.825019 
L 93.197804 192.825019 
L 93.168862 195.609654 
L 93.13992 192.825019 
L 93.110978 195.609654 
L 93.082035 198.394289 
L 93.053093 195.609654 
L 93.024151 195.609654 
L 92.995209 195.609654 
L 92.966266 198.394289 
L 92.937324 198.394289 
L 92.908382 198.394289 
L 92.87944 198.394289 
L 92.850497 195.609654 
L 92.821555 195.609654 
L 92.792613 192.825019 
L 92.763671 198.394289 
L 92.734728 198.394289 
L 92.705786 198.394289 
L 92.676844 198.394289 
L 92.647902 198.394289 
L 92.618959 198.394289 
L 92.590017 198.394289 
L 92.561075 198.394289 
L 92.532133 198.394289 
L 92.50319 198.394289 
L 92.474248 198.394289 
L 92.445306 198.394289 
L 92.416364 198.394289 
z
" clip-path="url(#p1d39bebfe0)" style="fill: #ff7f0e; fill-opacity: 0.7"/>
   </g>
   <g id="FillBetweenPolyCollection_3">
    <path d="M 92.416364 173.332574 
L 92.416364 198.394289 
L 92.445306 198.394289 
L 92.474248 198.394289 
L 92.50319 198.394289 
L 92.532133 198.394289 
L 92.561075 198.394289 
L 92.590017 198.394289 
L 92.618959 198.394289 
L 92.647902 198.394289 
L 92.676844 198.394289 
L 92.705786 198.394289 
L 92.734728 198.394289 
L 92.763671 198.394289 
L 92.792613 192.825019 
L 92.821555 195.609654 
L 92.850497 195.609654 
L 92.87944 198.394289 
L 92.908382 198.394289 
L 92.937324 198.394289 
L 92.966266 198.394289 
L 92.995209 195.609654 
L 93.024151 195.609654 
L 93.053093 195.609654 
L 93.082035 198.394289 
L 93.110978 195.609654 
L 93.13992 192.825019 
L 93.168862 195.609654 
L 93.197804 192.825019 
L 93.226747 192.825019 
L 93.255689 192.825019 
L 93.284631 195.609654 
L 93.313573 195.609654 
L 93.342516 195.609654 
L 93.371458 195.609654 
L 93.4004 195.609654 
L 93.429342 195.609654 
L 93.458285 195.609654 
L 93.487227 192.825019 
L 93.516169 195.609654 
L 93.545111 195.609654 
L 93.574054 190.040384 
L 93.602996 195.609654 
L 93.631938 192.825019 
L 93.66088 195.609654 
L 93.689823 195.609654 
L 93.718765 195.609654 
L 93.747707 192.825019 
L 93.776649 190.040384 
L 93.805592 195.609654 
L 93.834534 195.609654 
L 93.892418 195.609654 
L 93.950303 192.825019 
L 94.008187 195.609654 
L 94.066072 195.609654 
L 94.123956 195.609654 
L 94.181841 195.609654 
L 94.239725 192.825019 
L 94.29761 195.609654 
L 94.355494 190.040384 
L 94.413379 195.609654 
L 94.471263 190.040384 
L 94.529148 195.609654 
L 94.587032 195.609654 
L 94.644917 192.825019 
L 94.702801 190.040384 
L 94.760686 190.040384 
L 94.81857 195.609654 
L 94.876455 190.040384 
L 94.934339 195.609654 
L 94.992224 195.609654 
L 95.050108 192.825019 
L 95.107993 195.609654 
L 95.165877 190.040384 
L 95.223762 195.609654 
L 95.281646 192.825019 
L 95.426357 195.609654 
L 95.571069 192.825019 
L 95.71578 192.825019 
L 95.860491 190.040384 
L 96.005202 190.040384 
L 96.149914 192.825019 
L 96.294625 192.825019 
L 96.439336 190.040384 
L 96.584047 190.040384 
L 96.728759 190.040384 
L 96.87347 190.040384 
L 97.018181 192.825019 
L 97.162892 192.825019 
L 97.307604 192.825019 
L 97.452315 190.040384 
L 97.597026 190.040384 
L 97.741737 190.040384 
L 97.886449 190.040384 
L 98.03116 190.040384 
L 98.175871 190.040384 
L 98.465294 190.040384 
L 98.754716 192.825019 
L 99.044139 190.040384 
L 99.333561 190.040384 
L 99.622984 192.825019 
L 106.858546 190.040384 
L 114.094108 190.040384 
L 121.32967 190.040384 
L 150.271919 190.040384 
L 179.214167 190.040384 
L 208.156416 190.040384 
L 237.098664 190.040384 
L 266.040913 190.040384 
L 294.983162 190.040384 
L 323.92541 190.040384 
L 352.867659 190.040384 
L 381.809907 187.255749 
L 454.165529 137.132318 
L 526.52115 187.255749 
L 598.876772 187.255749 
L 671.232393 187.255749 
L 815.943636 67.51644 
L 815.943636 36.885455 
L 815.943636 36.885455 
L 671.232393 156.624763 
L 598.876772 156.624763 
L 526.52115 156.624763 
L 454.165529 106.501332 
L 381.809907 156.624763 
L 352.867659 162.194033 
L 323.92541 162.194033 
L 294.983162 159.409398 
L 266.040913 159.409398 
L 237.098664 162.194033 
L 208.156416 162.194033 
L 179.214167 162.194033 
L 150.271919 162.194033 
L 121.32967 162.194033 
L 114.094108 162.194033 
L 106.858546 162.194033 
L 99.622984 164.978668 
L 99.333561 162.194033 
L 99.044139 162.194033 
L 98.754716 164.978668 
L 98.465294 162.194033 
L 98.175871 162.194033 
L 98.03116 162.194033 
L 97.886449 162.194033 
L 97.741737 162.194033 
L 97.597026 162.194033 
L 97.452315 162.194033 
L 97.307604 164.978668 
L 97.162892 164.978668 
L 97.018181 164.978668 
L 96.87347 162.194033 
L 96.728759 162.194033 
L 96.584047 162.194033 
L 96.439336 162.194033 
L 96.294625 164.978668 
L 96.149914 164.978668 
L 96.005202 162.194033 
L 95.860491 162.194033 
L 95.71578 164.978668 
L 95.571069 167.763303 
L 95.426357 170.547939 
L 95.281646 164.978668 
L 95.223762 170.547939 
L 95.165877 162.194033 
L 95.107993 167.763303 
L 95.050108 164.978668 
L 94.992224 167.763303 
L 94.934339 167.763303 
L 94.876455 162.194033 
L 94.81857 170.547939 
L 94.760686 162.194033 
L 94.702801 162.194033 
L 94.644917 164.978668 
L 94.587032 167.763303 
L 94.529148 167.763303 
L 94.471263 164.978668 
L 94.413379 167.763303 
L 94.355494 162.194033 
L 94.29761 167.763303 
L 94.239725 164.978668 
L 94.181841 170.547939 
L 94.123956 167.763303 
L 94.066072 170.547939 
L 94.008187 170.547939 
L 93.950303 167.763303 
L 93.892418 170.547939 
L 93.834534 167.763303 
L 93.805592 170.547939 
L 93.776649 164.978668 
L 93.747707 164.978668 
L 93.718765 170.547939 
L 93.689823 170.547939 
L 93.66088 170.547939 
L 93.631938 167.763303 
L 93.602996 170.547939 
L 93.574054 162.194033 
L 93.545111 170.547939 
L 93.516169 170.547939 
L 93.487227 167.763303 
L 93.458285 170.547939 
L 93.429342 170.547939 
L 93.4004 170.547939 
L 93.371458 170.547939 
L 93.342516 167.763303 
L 93.313573 170.547939 
L 93.284631 170.547939 
L 93.255689 164.978668 
L 93.226747 167.763303 
L 93.197804 167.763303 
L 93.168862 170.547939 
L 93.13992 167.763303 
L 93.110978 170.547939 
L 93.082035 173.332574 
L 93.053093 170.547939 
L 93.024151 170.547939 
L 92.995209 170.547939 
L 92.966266 173.332574 
L 92.937324 173.332574 
L 92.908382 170.547939 
L 92.87944 170.547939 
L 92.850497 167.763303 
L 92.821555 170.547939 
L 92.792613 167.763303 
L 92.763671 173.332574 
L 92.734728 173.332574 
L 92.705786 173.332574 
L 92.676844 173.332574 
L 92.647902 173.332574 
L 92.618959 170.547939 
L 92.590017 173.332574 
L 92.561075 173.332574 
L 92.532133 173.332574 
L 92.50319 173.332574 
L 92.474248 173.332574 
L 92.445306 173.332574 
L 92.416364 173.332574 
z
" clip-path="url(#p1d39bebfe0)" style="fill: #2ca02c; fill-opacity: 0.7"/>
   </g>
   <g id="matplotlib.axis_1">
    <g id="xtick_1">
     <g id="line2d_1">
      <path d="M 92.387421 244.48 
L 92.387421 27 
" clip-path="url(#p1d39bebfe0)" style="fill: none; stroke: #b0b0b0; stroke-opacity: 0.25; stroke-width: 0.8; stroke-linecap: square"/>
     </g>
     <g id="line2d_2">
      <defs>
       <path id="ma33407a9c8" d="M 0 0 
L 0 3.5 
" style="stroke: #000000; stroke-width: 0.8"/>
      </defs>
      <g>
       <use xlink:href="#ma33407a9c8" x="92.387421" y="244.48" style="stroke: #000000; stroke-width: 0.8"/>
      </g>
     </g>
     <g id="text_1">
      <!-- 0 -->
      <g transform="translate(89.206171 259.078438) scale(0.1 -0.1)">
       <defs>
        <path id="DejaVuSans-30" d="M 2034 4250 
Q 1547 4250 1301 3770 
Q 1056 3291 1056 2328 
Q 1056 1369 1301 889 
Q 1547 409 2034 409 
Q 2525 409 2770 889 
Q 3016 1369 3016 2328 
Q 3016 3291 2770 3770 
Q 2525 4250 2034 4250 
z
M 2034 4750 
Q 2819 4750 3233 4129 
Q 3647 3509 3647 2328 
Q 3647 1150 3233 529 
Q 2819 -91 2034 -91 
Q 1250 -91 836 529 
Q 422 1150 422 2328 
Q 422 3509 836 4129 
Q 1250 4750 2034 4750 
z
" transform="scale(0.015625)"/>
       </defs>
       <use xlink:href="#DejaVuSans-30"/>
      </g>
     </g>
    </g>
    <g id="xtick_2">
     <g id="line2d_3">
      <path d="M 237.098664 244.48 
L 237.098664 27 
" clip-path="url(#p1d39bebfe0)" style="fill: none; stroke: #b0b0b0; stroke-opacity: 0.25; stroke-width: 0.8; stroke-linecap: square"/>
     </g>
     <g id="line2d_4">
      <g>
       <use xlink:href="#ma33407a9c8" x="237.098664" y="244.48" style="stroke: #000000; stroke-width: 0.8"/>
      </g>
     </g>
     <g id="text_2">
      <!-- 5000 -->
      <g transform="translate(224.373664 259.078438) scale(0.1 -0.1)">
       <defs>
        <path id="DejaVuSans-35" d="M 691 4666 
L 3169 4666 
L 3169 4134 
L 1269 4134 
L 1269 2991 
Q 1406 3038 1543 3061 
Q 1681 3084 1819 3084 
Q 2600 3084 3056 2656 
Q 3513 2228 3513 1497 
Q 3513 744 3044 326 
Q 2575 -91 1722 -91 
Q 1428 -91 1123 -41 
Q 819 9 494 109 
L 494 744 
Q 775 591 1075 516 
Q 1375 441 1709 441 
Q 2250 441 2565 725 
Q 2881 1009 2881 1497 
Q 2881 1984 2565 2268 
Q 2250 2553 1709 2553 
Q 1456 2553 1204 2497 
Q 953 2441 691 2322 
L 691 4666 
z
" transform="scale(0.015625)"/>
       </defs>
       <use xlink:href="#DejaVuSans-35"/>
       <use xlink:href="#DejaVuSans-30" transform="translate(63.623047 0)"/>
       <use xlink:href="#DejaVuSans-30" transform="translate(127.246094 0)"/>
       <use xlink:href="#DejaVuSans-30" transform="translate(190.869141 0)"/>
      </g>
     </g>
    </g>
    <g id="xtick_3">
     <g id="line2d_5">
      <path d="M 381.809907 244.48 
L 381.809907 27 
" clip-path="url(#p1d39bebfe0)" style="fill: none; stroke: #b0b0b0; stroke-opacity: 0.25; stroke-width: 0.8; stroke-linecap: square"/>
     </g>
     <g id="line2d_6">
      <g>
       <use xlink:href="#ma33407a9c8" x="381.809907" y="244.48" style="stroke: #000000; stroke-width: 0.8"/>
      </g>
     </g>
     <g id="text_3">
      <!-- 10000 -->
      <g transform="translate(365.903657 259.078438) scale(0.1 -0.1)">
       <defs>
        <path id="DejaVuSans-31" d="M 794 531 
L 1825 531 
L 1825 4091 
L 703 3866 
L 703 4441 
L 1819 4666 
L 2450 4666 
L 2450 531 
L 3481 531 
L 3481 0 
L 794 0 
L 794 531 
z
" transform="scale(0.015625)"/>
       </defs>
       <use xlink:href="#DejaVuSans-31"/>
       <use xlink:href="#DejaVuSans-30" transform="translate(63.623047 0)"/>
       <use xlink:href="#DejaVuSans-30" transform="translate(127.246094 0)"/>
       <use xlink:href="#DejaVuSans-30" transform="translate(190.869141 0)"/>
       <use xlink:href="#DejaVuSans-30" transform="translate(254.492188 0)"/>
      </g>
     </g>
    </g>
    <g id="xtick_4">
     <g id="line2d_7">
      <path d="M 526.52115 244.48 
L 526.52115 27 
" clip-path="url(#p1d39bebfe0)" style="fill: none; stroke: #b0b0b0; stroke-opacity: 0.25; stroke-width: 0.8; stroke-linecap: square"/>
     </g>
     <g id="line2d_8">
      <g>
       <use xlink:href="#ma33407a9c8" x="526.52115" y="244.48" style="stroke: #000000; stroke-width: 0.8"/>
      </g>
     </g>
     <g id="text_4">
      <!-- 15000 -->
      <g transform="translate(510.6149 259.078438) scale(0.1 -0.1)">
       <use xlink:href="#DejaVuSans-31"/>
       <use xlink:href="#DejaVuSans-35" transform="translate(63.623047 0)"/>
       <use xlink:href="#DejaVuSans-30" transform="translate(127.246094 0)"/>
       <use xlink:href="#DejaVuSans-30" transform="translate(190.869141 0)"/>
       <use xlink:href="#DejaVuSans-30" transform="translate(254.492188 0)"/>
      </g>
     </g>
    </g>
    <g id="xtick_5">
     <g id="line2d_9">
      <path d="M 671.232393 244.48 
L 671.232393 27 
" clip-path="url(#p1d39bebfe0)" style="fill: none; stroke: #b0b0b0; stroke-opacity: 0.25; stroke-width: 0.8; stroke-linecap: square"/>
     </g>
     <g id="line2d_10">
      <g>
       <use xlink:href="#ma33407a9c8" x="671.232393" y="244.48" style="stroke: #000000; stroke-width: 0.8"/>
      </g>
     </g>
     <g id="text_5">
      <!-- 20000 -->
      <g transform="translate(655.326143 259.078438) scale(0.1 -0.1)">
       <defs>
        <path id="DejaVuSans-32" d="M 1228 531 
L 3431 531 
L 3431 0 
L 469 0 
L 469 531 
Q 828 903 1448 1529 
Q 2069 2156 2228 2338 
Q 2531 2678 2651 2914 
Q 2772 3150 2772 3378 
Q 2772 3750 2511 3984 
Q 2250 4219 1831 4219 
Q 1534 4219 1204 4116 
Q 875 4013 500 3803 
L 500 4441 
Q 881 4594 1212 4672 
Q 1544 4750 1819 4750 
Q 2544 4750 2975 4387 
Q 3406 4025 3406 3419 
Q 3406 3131 3298 2873 
Q 3191 2616 2906 2266 
Q 2828 2175 2409 1742 
Q 1991 1309 1228 531 
z
" transform="scale(0.015625)"/>
       </defs>
       <use xlink:href="#DejaVuSans-32"/>
       <use xlink:href="#DejaVuSans-30" transform="translate(63.623047 0)"/>
       <use xlink:href="#DejaVuSans-30" transform="translate(127.246094 0)"/>
       <use xlink:href="#DejaVuSans-30" transform="translate(190.869141 0)"/>
       <use xlink:href="#DejaVuSans-30" transform="translate(254.492188 0)"/>
      </g>
     </g>
    </g>
    <g id="xtick_6">
     <g id="line2d_11">
      <path d="M 815.943636 244.48 
L 815.943636 27 
" clip-path="url(#p1d39bebfe0)" style="fill: none; stroke: #b0b0b0; stroke-opacity: 0.25; stroke-width: 0.8; stroke-linecap: square"/>
     </g>
     <g id="line2d_12">
      <g>
       <use xlink:href="#ma33407a9c8" x="815.943636" y="244.48" style="stroke: #000000; stroke-width: 0.8"/>
      </g>
     </g>
     <g id="text_6">
      <!-- 25000 -->
      <g transform="translate(800.037386 259.078438) scale(0.1 -0.1)">
       <use xlink:href="#DejaVuSans-32"/>
       <use xlink:href="#DejaVuSans-35" transform="translate(63.623047 0)"/>
       <use xlink:href="#DejaVuSans-30" transform="translate(127.246094 0)"/>
       <use xlink:href="#DejaVuSans-30" transform="translate(190.869141 0)"/>
       <use xlink:href="#DejaVuSans-30" transform="translate(254.492188 0)"/>
      </g>
     </g>
    </g>
    <g id="text_7">
     <!-- Input -->
     <g transform="translate(439.938438 273.516406) scale(0.11 -0.11)">
      <defs>
       <path id="DejaVuSans-49" d="M 628 4666 
L 1259 4666 
L 1259 0 
L 628 0 
L 628 4666 
z
" transform="scale(0.015625)"/>
       <path id="DejaVuSans-6e" d="M 3513 2113 
L 3513 0 
L 2938 0 
L 2938 2094 
Q 2938 2591 2744 2837 
Q 2550 3084 2163 3084 
Q 1697 3084 1428 2787 
Q 1159 2491 1159 1978 
L 1159 0 
L 581 0 
L 581 3500 
L 1159 3500 
L 1159 2956 
Q 1366 3272 1645 3428 
Q 1925 3584 2291 3584 
Q 2894 3584 3203 3211 
Q 3513 2838 3513 2113 
z
" transform="scale(0.015625)"/>
       <path id="DejaVuSans-70" d="M 1159 525 
L 1159 -1331 
L 581 -1331 
L 581 3500 
L 1159 3500 
L 1159 2969 
Q 1341 3281 1617 3432 
Q 1894 3584 2278 3584 
Q 2916 3584 3314 3078 
Q 3713 2572 3713 1747 
Q 3713 922 3314 415 
Q 2916 -91 2278 -91 
Q 1894 -91 1617 61 
Q 1341 213 1159 525 
z
M 3116 1747 
Q 3116 2381 2855 2742 
Q 2594 3103 2138 3103 
Q 1681 3103 1420 2742 
Q 1159 2381 1159 1747 
Q 1159 1113 1420 752 
Q 1681 391 2138 391 
Q 2594 391 2855 752 
Q 3116 1113 3116 1747 
z
" transform="scale(0.015625)"/>
       <path id="DejaVuSans-75" d="M 544 1381 
L 544 3500 
L 1119 3500 
L 1119 1403 
Q 1119 906 1312 657 
Q 1506 409 1894 409 
Q 2359 409 2629 706 
Q 2900 1003 2900 1516 
L 2900 3500 
L 3475 3500 
L 3475 0 
L 2900 0 
L 2900 538 
Q 2691 219 2414 64 
Q 2138 -91 1772 -91 
Q 1169 -91 856 284 
Q 544 659 544 1381 
z
M 1991 3584 
L 1991 3584 
z
" transform="scale(0.015625)"/>
       <path id="DejaVuSans-74" d="M 1172 4494 
L 1172 3500 
L 2356 3500 
L 2356 3053 
L 1172 3053 
L 1172 1153 
Q 1172 725 1289 603 
Q 1406 481 1766 481 
L 2356 481 
L 2356 0 
L 1766 0 
Q 1100 0 847 248 
Q 594 497 594 1153 
L 594 3053 
L 172 3053 
L 172 3500 
L 594 3500 
L 594 4494 
L 1172 4494 
z
" transform="scale(0.015625)"/>
      </defs>
      <use xlink:href="#DejaVuSans-49"/>
      <use xlink:href="#DejaVuSans-6e" transform="translate(29.492188 0)"/>
      <use xlink:href="#DejaVuSans-70" transform="translate(92.871094 0)"/>
      <use xlink:href="#DejaVuSans-75" transform="translate(156.347656 0)"/>
      <use xlink:href="#DejaVuSans-74" transform="translate(219.726562 0)"/>
     </g>
    </g>
   </g>
   <g id="matplotlib.axis_2">
    <g id="ytick_1">
     <g id="line2d_13">
      <path d="M 56.24 234.594545 
L 852.12 234.594545 
" clip-path="url(#p1d39bebfe0)" style="fill: none; stroke: #b0b0b0; stroke-opacity: 0.25; stroke-width: 0.8; stroke-linecap: square"/>
     </g>
     <g id="line2d_14">
      <defs>
       <path id="m71e6560eaf" d="M 0 0 
L -3.5 0 
" style="stroke: #000000; stroke-width: 0.8"/>
      </defs>
      <g>
       <use xlink:href="#m71e6560eaf" x="56.24" y="234.594545" style="stroke: #000000; stroke-width: 0.8"/>
      </g>
     </g>
     <g id="text_8">
      <!-- 0.00 -->
      <g transform="translate(26.974375 238.393764) scale(0.1 -0.1)">
       <defs>
        <path id="DejaVuSans-2e" d="M 684 794 
L 1344 794 
L 1344 0 
L 684 0 
L 684 794 
z
" transform="scale(0.015625)"/>
       </defs>
       <use xlink:href="#DejaVuSans-30"/>
       <use xlink:href="#DejaVuSans-2e" transform="translate(63.623047 0)"/>
       <use xlink:href="#DejaVuSans-30" transform="translate(95.410156 0)"/>
       <use xlink:href="#DejaVuSans-30" transform="translate(159.033203 0)"/>
      </g>
     </g>
    </g>
    <g id="ytick_2">
     <g id="line2d_15">
      <path d="M 56.24 206.748195 
L 852.12 206.748195 
" clip-path="url(#p1d39bebfe0)" style="fill: none; stroke: #b0b0b0; stroke-opacity: 0.25; stroke-width: 0.8; stroke-linecap: square"/>
     </g>
     <g id="line2d_16">
      <g>
       <use xlink:href="#m71e6560eaf" x="56.24" y="206.748195" style="stroke: #000000; stroke-width: 0.8"/>
      </g>
     </g>
     <g id="text_9">
      <!-- 0.01 -->
      <g transform="translate(26.974375 210.547413) scale(0.1 -0.1)">
       <use xlink:href="#DejaVuSans-30"/>
       <use xlink:href="#DejaVuSans-2e" transform="translate(63.623047 0)"/>
       <use xlink:href="#DejaVuSans-30" transform="translate(95.410156 0)"/>
       <use xlink:href="#DejaVuSans-31" transform="translate(159.033203 0)"/>
      </g>
     </g>
    </g>
    <g id="ytick_3">
     <g id="line2d_17">
      <path d="M 56.24 178.901844 
L 852.12 178.901844 
" clip-path="url(#p1d39bebfe0)" style="fill: none; stroke: #b0b0b0; stroke-opacity: 0.25; stroke-width: 0.8; stroke-linecap: square"/>
     </g>
     <g id="line2d_18">
      <g>
       <use xlink:href="#m71e6560eaf" x="56.24" y="178.901844" style="stroke: #000000; stroke-width: 0.8"/>
      </g>
     </g>
     <g id="text_10">
      <!-- 0.02 -->
      <g transform="translate(26.974375 182.701063) scale(0.1 -0.1)">
       <use xlink:href="#DejaVuSans-30"/>
       <use xlink:href="#DejaVuSans-2e" transform="translate(63.623047 0)"/>
       <use xlink:href="#DejaVuSans-30" transform="translate(95.410156 0)"/>
       <use xlink:href="#DejaVuSans-32" transform="translate(159.033203 0)"/>
      </g>
     </g>
    </g>
    <g id="ytick_4">
     <g id="line2d_19">
      <path d="M 56.24 151.055493 
L 852.12 151.055493 
" clip-path="url(#p1d39bebfe0)" style="fill: none; stroke: #b0b0b0; stroke-opacity: 0.25; stroke-width: 0.8; stroke-linecap: square"/>
     </g>
     <g id="line2d_20">
      <g>
       <use xlink:href="#m71e6560eaf" x="56.24" y="151.055493" style="stroke: #000000; stroke-width: 0.8"/>
      </g>
     </g>
     <g id="text_11">
      <!-- 0.03 -->
      <g transform="translate(26.974375 154.854712) scale(0.1 -0.1)">
       <defs>
        <path id="DejaVuSans-33" d="M 2597 2516 
Q 3050 2419 3304 2112 
Q 3559 1806 3559 1356 
Q 3559 666 3084 287 
Q 2609 -91 1734 -91 
Q 1441 -91 1130 -33 
Q 819 25 488 141 
L 488 750 
Q 750 597 1062 519 
Q 1375 441 1716 441 
Q 2309 441 2620 675 
Q 2931 909 2931 1356 
Q 2931 1769 2642 2001 
Q 2353 2234 1838 2234 
L 1294 2234 
L 1294 2753 
L 1863 2753 
Q 2328 2753 2575 2939 
Q 2822 3125 2822 3475 
Q 2822 3834 2567 4026 
Q 2313 4219 1838 4219 
Q 1578 4219 1281 4162 
Q 984 4106 628 3988 
L 628 4550 
Q 988 4650 1302 4700 
Q 1616 4750 1894 4750 
Q 2613 4750 3031 4423 
Q 3450 4097 3450 3541 
Q 3450 3153 3228 2886 
Q 3006 2619 2597 2516 
z
" transform="scale(0.015625)"/>
       </defs>
       <use xlink:href="#DejaVuSans-30"/>
       <use xlink:href="#DejaVuSans-2e" transform="translate(63.623047 0)"/>
       <use xlink:href="#DejaVuSans-30" transform="translate(95.410156 0)"/>
       <use xlink:href="#DejaVuSans-33" transform="translate(159.033203 0)"/>
      </g>
     </g>
    </g>
    <g id="ytick_5">
     <g id="line2d_21">
      <path d="M 56.24 123.209142 
L 852.12 123.209142 
" clip-path="url(#p1d39bebfe0)" style="fill: none; stroke: #b0b0b0; stroke-opacity: 0.25; stroke-width: 0.8; stroke-linecap: square"/>
     </g>
     <g id="line2d_22">
      <g>
       <use xlink:href="#m71e6560eaf" x="56.24" y="123.209142" style="stroke: #000000; stroke-width: 0.8"/>
      </g>
     </g>
     <g id="text_12">
      <!-- 0.04 -->
      <g transform="translate(26.974375 127.008361) scale(0.1 -0.1)">
       <defs>
        <path id="DejaVuSans-34" d="M 2419 4116 
L 825 1625 
L 2419 1625 
L 2419 4116 
z
M 2253 4666 
L 3047 4666 
L 3047 1625 
L 3713 1625 
L 3713 1100 
L 3047 1100 
L 3047 0 
L 2419 0 
L 2419 1100 
L 313 1100 
L 313 1709 
L 2253 4666 
z
" transform="scale(0.015625)"/>
       </defs>
       <use xlink:href="#DejaVuSans-30"/>
       <use xlink:href="#DejaVuSans-2e" transform="translate(63.623047 0)"/>
       <use xlink:href="#DejaVuSans-30" transform="translate(95.410156 0)"/>
       <use xlink:href="#DejaVuSans-34" transform="translate(159.033203 0)"/>
      </g>
     </g>
    </g>
    <g id="ytick_6">
     <g id="line2d_23">
      <path d="M 56.24 95.362791 
L 852.12 95.362791 
" clip-path="url(#p1d39bebfe0)" style="fill: none; stroke: #b0b0b0; stroke-opacity: 0.25; stroke-width: 0.8; stroke-linecap: square"/>
     </g>
     <g id="line2d_24">
      <g>
       <use xlink:href="#m71e6560eaf" x="56.24" y="95.362791" style="stroke: #000000; stroke-width: 0.8"/>
      </g>
     </g>
     <g id="text_13">
      <!-- 0.05 -->
      <g transform="translate(26.974375 99.16201) scale(0.1 -0.1)">
       <use xlink:href="#DejaVuSans-30"/>
       <use xlink:href="#DejaVuSans-2e" transform="translate(63.623047 0)"/>
       <use xlink:href="#DejaVuSans-30" transform="translate(95.410156 0)"/>
       <use xlink:href="#DejaVuSans-35" transform="translate(159.033203 0)"/>
      </g>
     </g>
    </g>
    <g id="ytick_7">
     <g id="line2d_25">
      <path d="M 56.24 67.51644 
L 852.12 67.51644 
" clip-path="url(#p1d39bebfe0)" style="fill: none; stroke: #b0b0b0; stroke-opacity: 0.25; stroke-width: 0.8; stroke-linecap: square"/>
     </g>
     <g id="line2d_26">
      <g>
       <use xlink:href="#m71e6560eaf" x="56.24" y="67.51644" style="stroke: #000000; stroke-width: 0.8"/>
      </g>
     </g>
     <g id="text_14">
      <!-- 0.06 -->
      <g transform="translate(26.974375 71.315659) scale(0.1 -0.1)">
       <defs>
        <path id="DejaVuSans-36" d="M 2113 2584 
Q 1688 2584 1439 2293 
Q 1191 2003 1191 1497 
Q 1191 994 1439 701 
Q 1688 409 2113 409 
Q 2538 409 2786 701 
Q 3034 994 3034 1497 
Q 3034 2003 2786 2293 
Q 2538 2584 2113 2584 
z
M 3366 4563 
L 3366 3988 
Q 3128 4100 2886 4159 
Q 2644 4219 2406 4219 
Q 1781 4219 1451 3797 
Q 1122 3375 1075 2522 
Q 1259 2794 1537 2939 
Q 1816 3084 2150 3084 
Q 2853 3084 3261 2657 
Q 3669 2231 3669 1497 
Q 3669 778 3244 343 
Q 2819 -91 2113 -91 
Q 1303 -91 875 529 
Q 447 1150 447 2328 
Q 447 3434 972 4092 
Q 1497 4750 2381 4750 
Q 2619 4750 2861 4703 
Q 3103 4656 3366 4563 
z
" transform="scale(0.015625)"/>
       </defs>
       <use xlink:href="#DejaVuSans-30"/>
       <use xlink:href="#DejaVuSans-2e" transform="translate(63.623047 0)"/>
       <use xlink:href="#DejaVuSans-30" transform="translate(95.410156 0)"/>
       <use xlink:href="#DejaVuSans-36" transform="translate(159.033203 0)"/>
      </g>
     </g>
    </g>
    <g id="ytick_8">
     <g id="line2d_27">
      <path d="M 56.24 39.67009 
L 852.12 39.67009 
" clip-path="url(#p1d39bebfe0)" style="fill: none; stroke: #b0b0b0; stroke-opacity: 0.25; stroke-width: 0.8; stroke-linecap: square"/>
     </g>
     <g id="line2d_28">
      <g>
       <use xlink:href="#m71e6560eaf" x="56.24" y="39.67009" style="stroke: #000000; stroke-width: 0.8"/>
      </g>
     </g>
     <g id="text_15">
      <!-- 0.07 -->
      <g transform="translate(26.974375 43.469308) scale(0.1 -0.1)">
       <defs>
        <path id="DejaVuSans-37" d="M 525 4666 
L 3525 4666 
L 3525 4397 
L 1831 0 
L 1172 0 
L 2766 4134 
L 525 4134 
L 525 4666 
z
" transform="scale(0.015625)"/>
       </defs>
       <use xlink:href="#DejaVuSans-30"/>
       <use xlink:href="#DejaVuSans-2e" transform="translate(63.623047 0)"/>
       <use xlink:href="#DejaVuSans-30" transform="translate(95.410156 0)"/>
       <use xlink:href="#DejaVuSans-37" transform="translate(159.033203 0)"/>
      </g>
     </g>
    </g>
    <g id="text_16">
     <!-- Time (s) -->
     <g transform="translate(20.686719 158.101797) rotate(-90) scale(0.11 -0.11)">
      <defs>
       <path id="DejaVuSans-54" d="M -19 4666 
L 3928 4666 
L 3928 4134 
L 2272 4134 
L 2272 0 
L 1638 0 
L 1638 4134 
L -19 4134 
L -19 4666 
z
" transform="scale(0.015625)"/>
       <path id="DejaVuSans-69" d="M 603 3500 
L 1178 3500 
L 1178 0 
L 603 0 
L 603 3500 
z
M 603 4863 
L 1178 4863 
L 1178 4134 
L 603 4134 
L 603 4863 
z
" transform="scale(0.015625)"/>
       <path id="DejaVuSans-6d" d="M 3328 2828 
Q 3544 3216 3844 3400 
Q 4144 3584 4550 3584 
Q 5097 3584 5394 3201 
Q 5691 2819 5691 2113 
L 5691 0 
L 5113 0 
L 5113 2094 
Q 5113 2597 4934 2840 
Q 4756 3084 4391 3084 
Q 3944 3084 3684 2787 
Q 3425 2491 3425 1978 
L 3425 0 
L 2847 0 
L 2847 2094 
Q 2847 2600 2669 2842 
Q 2491 3084 2119 3084 
Q 1678 3084 1418 2786 
Q 1159 2488 1159 1978 
L 1159 0 
L 581 0 
L 581 3500 
L 1159 3500 
L 1159 2956 
Q 1356 3278 1631 3431 
Q 1906 3584 2284 3584 
Q 2666 3584 2933 3390 
Q 3200 3197 3328 2828 
z
" transform="scale(0.015625)"/>
       <path id="DejaVuSans-65" d="M 3597 1894 
L 3597 1613 
L 953 1613 
Q 991 1019 1311 708 
Q 1631 397 2203 397 
Q 2534 397 2845 478 
Q 3156 559 3463 722 
L 3463 178 
Q 3153 47 2828 -22 
Q 2503 -91 2169 -91 
Q 1331 -91 842 396 
Q 353 884 353 1716 
Q 353 2575 817 3079 
Q 1281 3584 2069 3584 
Q 2775 3584 3186 3129 
Q 3597 2675 3597 1894 
z
M 3022 2063 
Q 3016 2534 2758 2815 
Q 2500 3097 2075 3097 
Q 1594 3097 1305 2825 
Q 1016 2553 972 2059 
L 3022 2063 
z
" transform="scale(0.015625)"/>
       <path id="DejaVuSans-20" transform="scale(0.015625)"/>
       <path id="DejaVuSans-28" d="M 1984 4856 
Q 1566 4138 1362 3434 
Q 1159 2731 1159 2009 
Q 1159 1288 1364 580 
Q 1569 -128 1984 -844 
L 1484 -844 
Q 1016 -109 783 600 
Q 550 1309 550 2009 
Q 550 2706 781 3412 
Q 1013 4119 1484 4856 
L 1984 4856 
z
" transform="scale(0.015625)"/>
       <path id="DejaVuSans-73" d="M 2834 3397 
L 2834 2853 
Q 2591 2978 2328 3040 
Q 2066 3103 1784 3103 
Q 1356 3103 1142 2972 
Q 928 2841 928 2578 
Q 928 2378 1081 2264 
Q 1234 2150 1697 2047 
L 1894 2003 
Q 2506 1872 2764 1633 
Q 3022 1394 3022 966 
Q 3022 478 2636 193 
Q 2250 -91 1575 -91 
Q 1294 -91 989 -36 
Q 684 19 347 128 
L 347 722 
Q 666 556 975 473 
Q 1284 391 1588 391 
Q 1994 391 2212 530 
Q 2431 669 2431 922 
Q 2431 1156 2273 1281 
Q 2116 1406 1581 1522 
L 1381 1569 
Q 847 1681 609 1914 
Q 372 2147 372 2553 
Q 372 3047 722 3315 
Q 1072 3584 1716 3584 
Q 2034 3584 2315 3537 
Q 2597 3491 2834 3397 
z
" transform="scale(0.015625)"/>
       <path id="DejaVuSans-29" d="M 513 4856 
L 1013 4856 
Q 1481 4119 1714 3412 
Q 1947 2706 1947 2009 
Q 1947 1309 1714 600 
Q 1481 -109 1013 -844 
L 513 -844 
Q 928 -128 1133 580 
Q 1338 1288 1338 2009 
Q 1338 2731 1133 3434 
Q 928 4138 513 4856 
z
" transform="scale(0.015625)"/>
      </defs>
      <use xlink:href="#DejaVuSans-54"/>
      <use xlink:href="#DejaVuSans-69" transform="translate(57.958984 0)"/>
      <use xlink:href="#DejaVuSans-6d" transform="translate(85.742188 0)"/>
      <use xlink:href="#DejaVuSans-65" transform="translate(183.154297 0)"/>
      <use xlink:href="#DejaVuSans-20" transform="translate(244.677734 0)"/>
      <use xlink:href="#DejaVuSans-28" transform="translate(276.464844 0)"/>
      <use xlink:href="#DejaVuSans-73" transform="translate(315.478516 0)"/>
      <use xlink:href="#DejaVuSans-29" transform="translate(367.578125 0)"/>
     </g>
    </g>
   </g>
   <g id="patch_3">
    <path d="M 56.24 244.48 
L 56.24 27 
" style="fill: none; stroke: #000000; stroke-width: 0.8; stroke-linejoin: miter; stroke-linecap: square"/>
   </g>
   <g id="patch_4">
    <path d="M 852.12 244.48 
L 852.12 27 
" style="fill: none; stroke: #000000; stroke-width: 0.8; stroke-linejoin: miter; stroke-linecap: square"/>
   </g>
   <g id="patch_5">
    <path d="M 56.24 244.48 
L 852.12 244.48 
" style="fill: none; stroke: #000000; stroke-width: 0.8; stroke-linejoin: miter; stroke-linecap: square"/>
   </g>
   <g id="patch_6">
    <path d="M 56.24 27 
L 852.12 27 
" style="fill: none; stroke: #000000; stroke-width: 0.8; stroke-linejoin: miter; stroke-linecap: square"/>
   </g>
   <g id="text_17">
    <!-- Fibonacci — verify subphases (32-reg) -->
    <g transform="translate(339.427188 21) scale(0.12 -0.12)">
     <defs>
      <path id="DejaVuSans-46" d="M 628 4666 
L 3309 4666 
L 3309 4134 
L 1259 4134 
L 1259 2759 
L 3109 2759 
L 3109 2228 
L 1259 2228 
L 1259 0 
L 628 0 
L 628 4666 
z
" transform="scale(0.015625)"/>
      <path id="DejaVuSans-62" d="M 3116 1747 
Q 3116 2381 2855 2742 
Q 2594 3103 2138 3103 
Q 1681 3103 1420 2742 
Q 1159 2381 1159 1747 
Q 1159 1113 1420 752 
Q 1681 391 2138 391 
Q 2594 391 2855 752 
Q 3116 1113 3116 1747 
z
M 1159 2969 
Q 1341 3281 1617 3432 
Q 1894 3584 2278 3584 
Q 2916 3584 3314 3078 
Q 3713 2572 3713 1747 
Q 3713 922 3314 415 
Q 2916 -91 2278 -91 
Q 1894 -91 1617 61 
Q 1341 213 1159 525 
L 1159 0 
L 581 0 
L 581 4863 
L 1159 4863 
L 1159 2969 
z
" transform="scale(0.015625)"/>
      <path id="DejaVuSans-6f" d="M 1959 3097 
Q 1497 3097 1228 2736 
Q 959 2375 959 1747 
Q 959 1119 1226 758 
Q 1494 397 1959 397 
Q 2419 397 2687 759 
Q 2956 1122 2956 1747 
Q 2956 2369 2687 2733 
Q 2419 3097 1959 3097 
z
M 1959 3584 
Q 2709 3584 3137 3096 
Q 3566 2609 3566 1747 
Q 3566 888 3137 398 
Q 2709 -91 1959 -91 
Q 1206 -91 779 398 
Q 353 888 353 1747 
Q 353 2609 779 3096 
Q 1206 3584 1959 3584 
z
" transform="scale(0.015625)"/>
      <path id="DejaVuSans-61" d="M 2194 1759 
Q 1497 1759 1228 1600 
Q 959 1441 959 1056 
Q 959 750 1161 570 
Q 1363 391 1709 391 
Q 2188 391 2477 730 
Q 2766 1069 2766 1631 
L 2766 1759 
L 2194 1759 
z
M 3341 1997 
L 3341 0 
L 2766 0 
L 2766 531 
Q 2569 213 2275 61 
Q 1981 -91 1556 -91 
Q 1019 -91 701 211 
Q 384 513 384 1019 
Q 384 1609 779 1909 
Q 1175 2209 1959 2209 
L 2766 2209 
L 2766 2266 
Q 2766 2663 2505 2880 
Q 2244 3097 1772 3097 
Q 1472 3097 1187 3025 
Q 903 2953 641 2809 
L 641 3341 
Q 956 3463 1253 3523 
Q 1550 3584 1831 3584 
Q 2591 3584 2966 3190 
Q 3341 2797 3341 1997 
z
" transform="scale(0.015625)"/>
      <path id="DejaVuSans-63" d="M 3122 3366 
L 3122 2828 
Q 2878 2963 2633 3030 
Q 2388 3097 2138 3097 
Q 1578 3097 1268 2742 
Q 959 2388 959 1747 
Q 959 1106 1268 751 
Q 1578 397 2138 397 
Q 2388 397 2633 464 
Q 2878 531 3122 666 
L 3122 134 
Q 2881 22 2623 -34 
Q 2366 -91 2075 -91 
Q 1284 -91 818 406 
Q 353 903 353 1747 
Q 353 2603 823 3093 
Q 1294 3584 2113 3584 
Q 2378 3584 2631 3529 
Q 2884 3475 3122 3366 
z
" transform="scale(0.015625)"/>
      <path id="DejaVuSans-2014" d="M 313 1978 
L 6088 1978 
L 6088 1528 
L 313 1528 
L 313 1978 
z
" transform="scale(0.015625)"/>
      <path id="DejaVuSans-76" d="M 191 3500 
L 800 3500 
L 1894 563 
L 2988 3500 
L 3597 3500 
L 2284 0 
L 1503 0 
L 191 3500 
z
" transform="scale(0.015625)"/>
      <path id="DejaVuSans-72" d="M 2631 2963 
Q 2534 3019 2420 3045 
Q 2306 3072 2169 3072 
Q 1681 3072 1420 2755 
Q 1159 2438 1159 1844 
L 1159 0 
L 581 0 
L 581 3500 
L 1159 3500 
L 1159 2956 
Q 1341 3275 1631 3429 
Q 1922 3584 2338 3584 
Q 2397 3584 2469 3576 
Q 2541 3569 2628 3553 
L 2631 2963 
z
" transform="scale(0.015625)"/>
      <path id="DejaVuSans-66" d="M 2375 4863 
L 2375 4384 
L 1825 4384 
Q 1516 4384 1395 4259 
Q 1275 4134 1275 3809 
L 1275 3500 
L 2222 3500 
L 2222 3053 
L 1275 3053 
L 1275 0 
L 697 0 
L 697 3053 
L 147 3053 
L 147 3500 
L 697 3500 
L 697 3744 
Q 697 4328 969 4595 
Q 1241 4863 1831 4863 
L 2375 4863 
z
" transform="scale(0.015625)"/>
      <path id="DejaVuSans-79" d="M 2059 -325 
Q 1816 -950 1584 -1140 
Q 1353 -1331 966 -1331 
L 506 -1331 
L 506 -850 
L 844 -850 
Q 1081 -850 1212 -737 
Q 1344 -625 1503 -206 
L 1606 56 
L 191 3500 
L 800 3500 
L 1894 763 
L 2988 3500 
L 3597 3500 
L 2059 -325 
z
" transform="scale(0.015625)"/>
      <path id="DejaVuSans-68" d="M 3513 2113 
L 3513 0 
L 2938 0 
L 2938 2094 
Q 2938 2591 2744 2837 
Q 2550 3084 2163 3084 
Q 1697 3084 1428 2787 
Q 1159 2491 1159 1978 
L 1159 0 
L 581 0 
L 581 4863 
L 1159 4863 
L 1159 2956 
Q 1366 3272 1645 3428 
Q 1925 3584 2291 3584 
Q 2894 3584 3203 3211 
Q 3513 2838 3513 2113 
z
" transform="scale(0.015625)"/>
      <path id="DejaVuSans-2d" d="M 313 2009 
L 1997 2009 
L 1997 1497 
L 313 1497 
L 313 2009 
z
" transform="scale(0.015625)"/>
      <path id="DejaVuSans-67" d="M 2906 1791 
Q 2906 2416 2648 2759 
Q 2391 3103 1925 3103 
Q 1463 3103 1205 2759 
Q 947 2416 947 1791 
Q 947 1169 1205 825 
Q 1463 481 1925 481 
Q 2391 481 2648 825 
Q 2906 1169 2906 1791 
z
M 3481 434 
Q 3481 -459 3084 -895 
Q 2688 -1331 1869 -1331 
Q 1566 -1331 1297 -1286 
Q 1028 -1241 775 -1147 
L 775 -588 
Q 1028 -725 1275 -790 
Q 1522 -856 1778 -856 
Q 2344 -856 2625 -561 
Q 2906 -266 2906 331 
L 2906 616 
Q 2728 306 2450 153 
Q 2172 0 1784 0 
Q 1141 0 747 490 
Q 353 981 353 1791 
Q 353 2603 747 3093 
Q 1141 3584 1784 3584 
Q 2172 3584 2450 3431 
Q 2728 3278 2906 2969 
L 2906 3500 
L 3481 3500 
L 3481 434 
z
" transform="scale(0.015625)"/>
     </defs>
     <use xlink:href="#DejaVuSans-46"/>
     <use xlink:href="#DejaVuSans-69" transform="translate(50.269531 0)"/>
     <use xlink:href="#DejaVuSans-62" transform="translate(78.052734 0)"/>
     <use xlink:href="#DejaVuSans-6f" transform="translate(141.529297 0)"/>
     <use xlink:href="#DejaVuSans-6e" transform="translate(202.710938 0)"/>
     <use xlink:href="#DejaVuSans-61" transform="translate(266.089844 0)"/>
     <use xlink:href="#DejaVuSans-63" transform="translate(327.369141 0)"/>
     <use xlink:href="#DejaVuSans-63" transform="translate(382.349609 0)"/>
     <use xlink:href="#DejaVuSans-69" transform="translate(437.330078 0)"/>
     <use xlink:href="#DejaVuSans-20" transform="translate(465.113281 0)"/>
     <use xlink:href="#DejaVuSans-2014" transform="translate(496.900391 0)"/>
     <use xlink:href="#DejaVuSans-20" transform="translate(596.900391 0)"/>
     <use xlink:href="#DejaVuSans-76" transform="translate(628.6875 0)"/>
     <use xlink:href="#DejaVuSans-65" transform="translate(687.867188 0)"/>
     <use xlink:href="#DejaVuSans-72" transform="translate(749.390625 0)"/>
     <use xlink:href="#DejaVuSans-69" transform="translate(790.503906 0)"/>
     <use xlink:href="#DejaVuSans-66" transform="translate(818.287109 0)"/>
     <use xlink:href="#DejaVuSans-79" transform="translate(851.742188 0)"/>
     <use xlink:href="#DejaVuSans-20" transform="translate(910.921875 0)"/>
     <use xlink:href="#DejaVuSans-73" transform="translate(942.708984 0)"/>
     <use xlink:href="#DejaVuSans-75" transform="translate(994.808594 0)"/>
     <use xlink:href="#DejaVuSans-62" transform="translate(1058.1875 0)"/>
     <use xlink:href="#DejaVuSans-70" transform="translate(1121.664062 0)"/>
     <use xlink:href="#DejaVuSans-68" transform="translate(1185.140625 0)"/>
     <use xlink:href="#DejaVuSans-61" transform="translate(1248.519531 0)"/>
     <use xlink:href="#DejaVuSans-73" transform="translate(1309.798828 0)"/>
     <use xlink:href="#DejaVuSans-65" transform="translate(1361.898438 0)"/>
     <use xlink:href="#DejaVuSans-73" transform="translate(1423.421875 0)"/>
     <use xlink:href="#DejaVuSans-20" transform="translate(1475.521484 0)"/>
     <use xlink:href="#DejaVuSans-28" transform="translate(1507.308594 0)"/>
     <use xlink:href="#DejaVuSans-33" transform="translate(1546.322266 0)"/>
     <use xlink:href="#DejaVuSans-32" transform="translate(1609.945312 0)"/>
     <use xlink:href="#DejaVuSans-2d" transform="translate(1673.568359 0)"/>
     <use xlink:href="#DejaVuSans-72" transform="translate(1709.652344 0)"/>
     <use xlink:href="#DejaVuSans-65" transform="translate(1748.515625 0)"/>
     <use xlink:href="#DejaVuSans-67" transform="translate(1810.039062 0)"/>
     <use xlink:href="#DejaVuSans-29" transform="translate(1873.515625 0)"/>
    </g>
   </g>
   <g id="legend_1">
    <g id="patch_7">
     <path d="M 65.24 43.598438 
L 85.24 43.598438 
L 85.24 36.598438 
L 65.24 36.598438 
z
" style="fill: #1f77b4; fill-opacity: 0.7"/>
    </g>
    <g id="text_18">
     <!-- bytecode -->
     <g transform="translate(93.24 43.598438) scale(0.1 -0.1)">
      <defs>
       <path id="DejaVuSans-64" d="M 2906 2969 
L 2906 4863 
L 3481 4863 
L 3481 0 
L 2906 0 
L 2906 525 
Q 2725 213 2448 61 
Q 2172 -91 1784 -91 
Q 1150 -91 751 415 
Q 353 922 353 1747 
Q 353 2572 751 3078 
Q 1150 3584 1784 3584 
Q 2172 3584 2448 3432 
Q 2725 3281 2906 2969 
z
M 947 1747 
Q 947 1113 1208 752 
Q 1469 391 1925 391 
Q 2381 391 2643 752 
Q 2906 1113 2906 1747 
Q 2906 2381 2643 2742 
Q 2381 3103 1925 3103 
Q 1469 3103 1208 2742 
Q 947 2381 947 1747 
z
" transform="scale(0.015625)"/>
      </defs>
      <use xlink:href="#DejaVuSans-62"/>
      <use xlink:href="#DejaVuSans-79" transform="translate(63.476562 0)"/>
      <use xlink:href="#DejaVuSans-74" transform="translate(122.65625 0)"/>
      <use xlink:href="#DejaVuSans-65" transform="translate(161.865234 0)"/>
      <use xlink:href="#DejaVuSans-63" transform="translate(223.388672 0)"/>
      <use xlink:href="#DejaVuSans-6f" transform="translate(278.369141 0)"/>
      <use xlink:href="#DejaVuSans-64" transform="translate(339.550781 0)"/>
      <use xlink:href="#DejaVuSans-65" transform="translate(403.027344 0)"/>
     </g>
    </g>
    <g id="patch_8">
     <path d="M 159.699375 43.598438 
L 179.699375 43.598438 
L 179.699375 36.598438 
L 159.699375 36.598438 
z
" style="fill: #ff7f0e; fill-opacity: 0.7"/>
    </g>
    <g id="text_19">
     <!-- instruction_lookups -->
     <g transform="translate(187.699375 43.598438) scale(0.1 -0.1)">
      <defs>
       <path id="DejaVuSans-5f" d="M 3263 -1063 
L 3263 -1509 
L -63 -1509 
L -63 -1063 
L 3263 -1063 
z
" transform="scale(0.015625)"/>
       <path id="DejaVuSans-6c" d="M 603 4863 
L 1178 4863 
L 1178 0 
L 603 0 
L 603 4863 
z
" transform="scale(0.015625)"/>
       <path id="DejaVuSans-6b" d="M 581 4863 
L 1159 4863 
L 1159 1991 
L 2875 3500 
L 3609 3500 
L 1753 1863 
L 3688 0 
L 2938 0 
L 1159 1709 
L 1159 0 
L 581 0 
L 581 4863 
z
" transform="scale(0.015625)"/>
      </defs>
      <use xlink:href="#DejaVuSans-69"/>
      <use xlink:href="#DejaVuSans-6e" transform="translate(27.783203 0)"/>
      <use xlink:href="#DejaVuSans-73" transform="translate(91.162109 0)"/>
      <use xlink:href="#DejaVuSans-74" transform="translate(143.261719 0)"/>
      <use xlink:href="#DejaVuSans-72" transform="translate(182.470703 0)"/>
      <use xlink:href="#DejaVuSans-75" transform="translate(223.583984 0)"/>
      <use xlink:href="#DejaVuSans-63" transform="translate(286.962891 0)"/>
      <use xlink:href="#DejaVuSans-74" transform="translate(341.943359 0)"/>
      <use xlink:href="#DejaVuSans-69" transform="translate(381.152344 0)"/>
      <use xlink:href="#DejaVuSans-6f" transform="translate(408.935547 0)"/>
      <use xlink:href="#DejaVuSans-6e" transform="translate(470.117188 0)"/>
      <use xlink:href="#DejaVuSans-5f" transform="translate(533.496094 0)"/>
      <use xlink:href="#DejaVuSans-6c" transform="translate(583.496094 0)"/>
      <use xlink:href="#DejaVuSans-6f" transform="translate(611.279297 0)"/>
      <use xlink:href="#DejaVuSans-6f" transform="translate(672.460938 0)"/>
      <use xlink:href="#DejaVuSans-6b" transform="translate(733.642578 0)"/>
      <use xlink:href="#DejaVuSans-75" transform="translate(788.427734 0)"/>
      <use xlink:href="#DejaVuSans-70" transform="translate(851.806641 0)"/>
      <use xlink:href="#DejaVuSans-73" transform="translate(915.283203 0)"/>
     </g>
    </g>
    <g id="patch_9">
     <path d="M 304.435313 43.598438 
L 324.435313 43.598438 
L 324.435313 36.598438 
L 304.435313 36.598438 
z
" style="fill: #2ca02c; fill-opacity: 0.7"/>
    </g>
    <g id="text_20">
     <!-- memory -->
     <g transform="translate(332.435313 43.598438) scale(0.1 -0.1)">
      <use xlink:href="#DejaVuSans-6d"/>
      <use xlink:href="#DejaVuSans-65" transform="translate(97.412109 0)"/>
      <use xlink:href="#DejaVuSans-6d" transform="translate(158.935547 0)"/>
      <use xlink:href="#DejaVuSans-6f" transform="translate(256.347656 0)"/>
      <use xlink:href="#DejaVuSans-72" transform="translate(317.529297 0)"/>
      <use xlink:href="#DejaVuSans-79" transform="translate(358.642578 0)"/>
     </g>
    </g>
   </g>
  </g>
 </g>
 <defs>
  <clipPath id="p1d39bebfe0">
   <rect x="56.24" y="27" width="795.88" height="217.48"/>
  </clipPath>
 </defs>
</svg>
