<?xml version="1.0" encoding="utf-8" standalone="no"?>
<!DOCTYPE svg PUBLIC "-//W3C//DTD SVG 1.1//EN"
  "http://www.w3.org/Graphics/SVG/1.1/DTD/svg11.dtd">
<svg xmlns:xlink="http://www.w3.org/1999/xlink" width="864pt" height="288pt" viewBox="0 0 864 288" xmlns="http://www.w3.org/2000/svg" version="1.1">
 <metadata>
  <rdf:RDF xmlns:dc="http://purl.org/dc/elements/1.1/" xmlns:cc="http://creativecommons.org/ns#" xmlns:rdf="http://www.w3.org/1999/02/22-rdf-syntax-ns#">
   <cc:Work>
    <dc:type rdf:resource="http://purl.org/dc/dcmitype/StillImage"/>
    <dc:date>2025-09-07T14:35:42.384531</dc:date>
    <dc:format>image/svg+xml</dc:format>
    <dc:creator>
     <cc:Agent>
      <dc:title>Matplotlib v3.10.6, https://matplotlib.org/</dc:title>
     </cc:Agent>
    </dc:creator>
   </cc:Work>
  </rdf:RDF>
 </metadata>
 <defs>
  <style type="text/css">*{stroke-linejoin: round; stroke-linecap: butt}</style>
 </defs>
 <g id="figure_1">
  <g id="patch_1">
   <path d="M 0 288 
L 864 288 
L 864 0 
L 0 0 
z
" style="fill: #ffffff"/>
  </g>
  <g id="axes_1">
   <g id="patch_2">
    <path d="M 46.64 244.48 
L 852.12 244.48 
L 852.12 27 
L 46.64 27 
z
" style="fill: #ffffff"/>
   </g>
   <g id="FillBetweenPolyCollection_1">
    <path d="M 83.252727 234.43021 
L 83.252727 234.594545 
L 93.566172 234.594545 
L 103.879616 234.594545 
L 114.19306 234.594545 
L 124.506504 234.594545 
L 134.819949 234.594545 
L 145.133393 234.594545 
L 155.446837 234.594545 
L 165.760282 234.594545 
L 176.073726 234.594545 
L 186.38717 234.594545 
L 196.700615 234.594545 
L 207.014059 234.594545 
L 217.327503 234.594545 
L 227.640948 234.594545 
L 237.954392 234.594545 
L 248.267836 234.594545 
L 258.58128 234.594545 
L 268.894725 234.594545 
L 279.208169 234.594545 
L 289.521613 234.594545 
L 299.835058 234.594545 
L 310.148502 234.594545 
L 320.461946 234.594545 
L 330.775391 234.594545 
L 341.088835 234.594545 
L 351.402279 234.594545 
L 361.715723 234.594545 
L 372.029168 234.594545 
L 382.342612 234.594545 
L 392.656056 234.594545 
L 402.969501 234.594545 
L 413.282945 234.594545 
L 423.596389 234.594545 
L 433.909834 234.594545 
L 444.223278 234.594545 
L 454.536722 234.594545 
L 464.850166 234.594545 
L 475.163611 234.594545 
L 485.477055 234.594545 
L 495.790499 234.594545 
L 506.103944 234.594545 
L 516.417388 234.594545 
L 526.730832 234.594545 
L 537.044277 234.594545 
L 547.357721 234.594545 
L 557.671165 234.594545 
L 567.984609 234.594545 
L 578.298054 234.594545 
L 588.611498 234.594545 
L 609.238387 234.594545 
L 629.865275 234.594545 
L 650.492164 234.594545 
L 671.119052 234.594545 
L 691.745941 234.594545 
L 712.37283 234.594545 
L 732.999718 234.594545 
L 753.626607 234.594545 
L 774.253496 234.594545 
L 794.880384 234.594545 
L 815.507273 234.594545 
L 815.507273 233.700559 
L 815.507273 233.700559 
L 794.880384 233.707132 
L 774.253496 233.707132 
L 753.626607 233.707132 
L 732.999718 233.713706 
L 712.37283 233.707132 
L 691.745941 233.713706 
L 671.119052 233.713706 
L 650.492164 233.713706 
L 629.865275 233.713706 
L 609.238387 233.726853 
L 588.611498 233.720279 
L 578.298054 233.726853 
L 567.984609 233.720279 
L 557.671165 233.726853 
L 547.357721 233.726853 
L 537.044277 233.726853 
L 526.730832 233.726853 
L 516.417388 233.726853 
L 506.103944 233.733426 
L 495.790499 233.726853 
L 485.477055 233.726853 
L 475.163611 233.733426 
L 464.850166 233.733426 
L 454.536722 233.733426 
L 444.223278 234.048951 
L 433.909834 234.055524 
L 423.596389 234.055524 
L 413.282945 234.055524 
L 402.969501 234.055524 
L 392.656056 234.055524 
L 382.342612 234.055524 
L 372.029168 234.062098 
L 361.715723 234.062098 
L 351.402279 234.055524 
L 341.088835 234.055524 
L 330.775391 234.062098 
L 320.461946 234.062098 
L 310.148502 234.062098 
L 299.835058 234.062098 
L 289.521613 234.068671 
L 279.208169 234.068671 
L 268.894725 234.068671 
L 258.58128 234.068671 
L 248.267836 234.23958 
L 237.954392 234.23958 
L 227.640948 234.23958 
L 217.327503 234.23958 
L 207.014059 234.246154 
L 196.700615 234.246154 
L 186.38717 234.246154 
L 176.073726 234.246154 
L 165.760282 234.246154 
L 155.446837 234.331608 
L 145.133393 234.331608 
L 134.819949 234.331608 
L 124.506504 234.338182 
L 114.19306 234.390769 
L 103.879616 234.397343 
L 93.566172 234.43021 
L 83.252727 234.43021 
z
" clip-path="url(#p847f6db25b)" style="fill: #1f77b4; fill-opacity: 0.7"/>
   </g>
   <g id="FillBetweenPolyCollection_2">
    <path d="M 83.252727 233.325873 
L 83.252727 234.43021 
L 93.566172 234.43021 
L 103.879616 234.397343 
L 114.19306 234.390769 
L 124.506504 234.338182 
L 134.819949 234.331608 
L 145.133393 234.331608 
L 155.446837 234.331608 
L 165.760282 234.246154 
L 176.073726 234.246154 
L 186.38717 234.246154 
L 196.700615 234.246154 
L 207.014059 234.246154 
L 217.327503 234.23958 
L 227.640948 234.23958 
L 237.954392 234.23958 
L 248.267836 234.23958 
L 258.58128 234.068671 
L 268.894725 234.068671 
L 279.208169 234.068671 
L 289.521613 234.068671 
L 299.835058 234.062098 
L 310.148502 234.062098 
L 320.461946 234.062098 
L 330.775391 234.062098 
L 341.088835 234.055524 
L 351.402279 234.055524 
L 361.715723 234.062098 
L 372.029168 234.062098 
L 382.342612 234.055524 
L 392.656056 234.055524 
L 402.969501 234.055524 
L 413.282945 234.055524 
L 423.596389 234.055524 
L 433.909834 234.055524 
L 444.223278 234.048951 
L 454.536722 233.733426 
L 464.850166 233.733426 
L 475.163611 233.733426 
L 485.477055 233.726853 
L 495.790499 233.726853 
L 506.103944 233.733426 
L 516.417388 233.726853 
L 526.730832 233.726853 
L 537.044277 233.726853 
L 547.357721 233.726853 
L 557.671165 233.726853 
L 567.984609 233.720279 
L 578.298054 233.726853 
L 588.611498 233.720279 
L 609.238387 233.726853 
L 629.865275 233.713706 
L 650.492164 233.713706 
L 671.119052 233.713706 
L 691.745941 233.713706 
L 712.37283 233.707132 
L 732.999718 233.713706 
L 753.626607 233.707132 
L 774.253496 233.707132 
L 794.880384 233.707132 
L 815.507273 233.700559 
L 815.507273 183.144299 
L 815.507273 183.144299 
L 794.880384 184.360384 
L 774.253496 185.352972 
L 753.626607 186.851714 
L 732.999718 187.923184 
L 712.37283 189.001226 
L 691.745941 190.237032 
L 671.119052 191.45969 
L 650.492164 192.518012 
L 629.865275 193.688083 
L 609.238387 195.068504 
L 588.611498 196.238574 
L 578.298054 197.001092 
L 567.984609 197.356058 
L 557.671165 197.908226 
L 547.357721 198.749625 
L 537.044277 199.413542 
L 526.730832 199.932843 
L 516.417388 200.438997 
L 506.103944 201.129207 
L 495.790499 201.267249 
L 485.477055 202.299278 
L 475.163611 202.68711 
L 464.850166 203.725712 
L 454.536722 204.00837 
L 444.223278 207.203058 
L 433.909834 207.853827 
L 423.596389 208.655786 
L 413.282945 209.083059 
L 402.969501 209.779843 
L 392.656056 210.424039 
L 382.342612 211.120823 
L 372.029168 211.692711 
L 361.715723 212.356628 
L 351.402279 213.066558 
L 341.088835 213.559566 
L 330.775391 214.157748 
L 320.461946 214.893972 
L 310.148502 215.551315 
L 299.835058 216.241525 
L 289.521613 216.74768 
L 279.208169 217.490477 
L 268.894725 217.845443 
L 258.58128 218.614534 
L 248.267836 221.178172 
L 237.954392 221.894676 
L 227.640948 222.525726 
L 217.327503 223.169922 
L 207.014059 223.860132 
L 196.700615 224.432021 
L 186.38717 225.187965 
L 176.073726 225.805868 
L 165.760282 226.496078 
L 155.446837 227.922513 
L 145.133393 228.514122 
L 134.819949 229.263493 
L 124.506504 229.901116 
L 114.19306 231.110627 
L 103.879616 231.761397 
L 93.566172 232.661957 
L 83.252727 233.325873 
z
" clip-path="url(#p847f6db25b)" style="fill: #ff7f0e; fill-opacity: 0.7"/>
   </g>
   <g id="FillBetweenPolyCollection_3">
    <path d="M 83.252727 231.1172 
L 83.252727 233.325873 
L 93.566172 232.661957 
L 103.879616 231.761397 
L 114.19306 231.110627 
L 124.506504 229.901116 
L 134.819949 229.263493 
L 145.133393 228.514122 
L 155.446837 227.922513 
L 165.760282 226.496078 
L 176.073726 225.805868 
L 186.38717 225.187965 
L 196.700615 224.432021 
L 207.014059 223.860132 
L 217.327503 223.169922 
L 227.640948 222.525726 
L 237.954392 221.894676 
L 248.267836 221.178172 
L 258.58128 218.614534 
L 268.894725 217.845443 
L 279.208169 217.490477 
L 289.521613 216.74768 
L 299.835058 216.241525 
L 310.148502 215.551315 
L 320.461946 214.893972 
L 330.775391 214.157748 
L 341.088835 213.559566 
L 351.402279 213.066558 
L 361.715723 212.356628 
L 372.029168 211.692711 
L 382.342612 211.120823 
L 392.656056 210.424039 
L 402.969501 209.779843 
L 413.282945 209.083059 
L 423.596389 208.655786 
L 433.909834 207.853827 
L 444.223278 207.203058 
L 454.536722 204.00837 
L 464.850166 203.725712 
L 475.163611 202.68711 
L 485.477055 202.299278 
L 495.790499 201.267249 
L 506.103944 201.129207 
L 516.417388 200.438997 
L 526.730832 199.932843 
L 537.044277 199.413542 
L 547.357721 198.749625 
L 557.671165 197.908226 
L 567.984609 197.356058 
L 578.298054 197.001092 
L 588.611498 196.238574 
L 609.238387 195.068504 
L 629.865275 193.688083 
L 650.492164 192.518012 
L 671.119052 191.45969 
L 691.745941 190.237032 
L 712.37283 189.001226 
L 732.999718 187.923184 
L 753.626607 186.851714 
L 774.253496 185.352972 
L 794.880384 184.360384 
L 815.507273 183.144299 
L 815.507273 171.53562 
L 815.507273 171.53562 
L 794.880384 172.902893 
L 774.253496 174.079538 
L 753.626607 175.729469 
L 732.999718 176.93898 
L 712.37283 178.135345 
L 691.745941 179.555206 
L 671.119052 180.909333 
L 650.492164 182.131991 
L 629.865275 183.348076 
L 609.238387 184.925699 
L 588.611498 186.240385 
L 578.298054 187.062064 
L 567.984609 187.469617 
L 557.671165 188.12696 
L 547.357721 189.047241 
L 537.044277 189.790038 
L 526.730832 190.414514 
L 516.417388 190.933815 
L 506.103944 191.656893 
L 495.790499 191.860669 
L 485.477055 192.958432 
L 475.163611 193.431719 
L 464.850166 194.529482 
L 454.536722 194.897594 
L 444.223278 200.419277 
L 433.909834 201.129207 
L 423.596389 201.9969 
L 413.282945 202.509628 
L 402.969501 203.285293 
L 392.656056 204.00837 
L 382.342612 204.770888 
L 372.029168 205.395364 
L 361.715723 206.118441 
L 351.402279 206.913827 
L 341.088835 207.498862 
L 330.775391 208.195646 
L 320.461946 208.984457 
L 310.148502 209.720682 
L 299.835058 210.489773 
L 289.521613 211.094529 
L 279.208169 211.909634 
L 268.894725 212.336907 
L 258.58128 213.18488 
L 248.267836 216.833134 
L 237.954392 217.621946 
L 227.640948 218.345023 
L 217.327503 219.048381 
L 207.014059 219.810899 
L 196.700615 220.468242 
L 186.38717 221.289921 
L 176.073726 221.993278 
L 165.760282 222.762369 
L 155.446837 224.701531 
L 145.133393 225.365448 
L 134.819949 226.187127 
L 124.506504 226.903631 
L 114.19306 228.507548 
L 103.879616 229.237199 
L 93.566172 230.374403 
L 83.252727 231.1172 
z
" clip-path="url(#p847f6db25b)" style="fill: #2ca02c; fill-opacity: 0.7"/>
   </g>
   <g id="FillBetweenPolyCollection_4">
    <path d="M 83.252727 230.959438 
L 83.252727 231.1172 
L 93.566172 230.374403 
L 103.879616 229.237199 
L 114.19306 228.507548 
L 124.506504 226.903631 
L 134.819949 226.187127 
L 145.133393 225.365448 
L 155.446837 224.701531 
L 165.760282 222.762369 
L 176.073726 221.993278 
L 186.38717 221.289921 
L 196.700615 220.468242 
L 207.014059 219.810899 
L 217.327503 219.048381 
L 227.640948 218.345023 
L 237.954392 217.621946 
L 248.267836 216.833134 
L 258.58128 213.18488 
L 268.894725 212.336907 
L 279.208169 211.909634 
L 289.521613 211.094529 
L 299.835058 210.489773 
L 310.148502 209.720682 
L 320.461946 208.984457 
L 330.775391 208.195646 
L 341.088835 207.498862 
L 351.402279 206.913827 
L 361.715723 206.118441 
L 372.029168 205.395364 
L 382.342612 204.770888 
L 392.656056 204.00837 
L 402.969501 203.285293 
L 413.282945 202.509628 
L 423.596389 201.9969 
L 433.909834 201.129207 
L 444.223278 200.419277 
L 454.536722 194.897594 
L 464.850166 194.529482 
L 475.163611 193.431719 
L 485.477055 192.958432 
L 495.790499 191.860669 
L 506.103944 191.656893 
L 516.417388 190.933815 
L 526.730832 190.414514 
L 537.044277 189.790038 
L 547.357721 189.047241 
L 557.671165 188.12696 
L 567.984609 187.469617 
L 578.298054 187.062064 
L 588.611498 186.240385 
L 609.238387 184.925699 
L 629.865275 183.348076 
L 650.492164 182.131991 
L 671.119052 180.909333 
L 691.745941 179.555206 
L 712.37283 178.135345 
L 732.999718 176.93898 
L 753.626607 175.729469 
L 774.253496 174.079538 
L 794.880384 172.902893 
L 815.507273 171.53562 
L 815.507273 166.033658 
L 815.507273 166.033658 
L 794.880384 167.137994 
L 774.253496 168.39352 
L 753.626607 169.925129 
L 732.999718 170.155199 
L 712.37283 172.653103 
L 691.745941 173.422194 
L 671.119052 174.940657 
L 650.492164 175.216741 
L 629.865275 176.761498 
L 609.238387 179.095066 
L 588.611498 180.409752 
L 578.298054 179.279122 
L 567.984609 181.159123 
L 557.671165 182.605278 
L 547.357721 183.64388 
L 537.044277 183.558425 
L 526.730832 184.261783 
L 516.417388 184.899405 
L 506.103944 185.385839 
L 495.790499 186.417868 
L 485.477055 186.57563 
L 475.163611 186.825421 
L 464.850166 186.55591 
L 454.536722 186.108917 
L 444.223278 197.658435 
L 433.909834 198.381513 
L 423.596389 199.262353 
L 413.282945 199.768507 
L 402.969501 200.537598 
L 392.656056 201.267249 
L 382.342612 202.062634 
L 372.029168 202.68711 
L 361.715723 203.423335 
L 351.402279 204.212146 
L 341.088835 204.797182 
L 330.775391 205.480819 
L 320.461946 206.309071 
L 310.148502 207.025575 
L 299.835058 207.781519 
L 289.521613 208.037883 
L 279.208169 209.247395 
L 268.894725 208.971311 
L 258.58128 208.714947 
L 248.267836 215.400126 
L 237.954392 216.162644 
L 227.640948 216.905442 
L 217.327503 217.608799 
L 207.014059 218.397611 
L 196.700615 218.844604 
L 186.38717 219.692577 
L 176.073726 219.9095 
L 165.760282 220.704885 
L 155.446837 223.978454 
L 145.133393 224.662091 
L 134.819949 225.470623 
L 124.506504 226.180553 
L 114.19306 228.192023 
L 103.879616 228.928248 
L 93.566172 230.21664 
L 83.252727 230.959438 
z
" clip-path="url(#p847f6db25b)" style="fill: #d62728; fill-opacity: 0.7"/>
   </g>
   <g id="FillBetweenPolyCollection_5">
    <path d="M 83.252727 229.625031 
L 83.252727 230.959438 
L 93.566172 230.21664 
L 103.879616 228.928248 
L 114.19306 228.192023 
L 124.506504 226.180553 
L 134.819949 225.470623 
L 145.133393 224.662091 
L 155.446837 223.978454 
L 165.760282 220.704885 
L 176.073726 219.9095 
L 186.38717 219.692577 
L 196.700615 218.844604 
L 207.014059 218.397611 
L 217.327503 217.608799 
L 227.640948 216.905442 
L 237.954392 216.162644 
L 248.267836 215.400126 
L 258.58128 208.714947 
L 268.894725 208.971311 
L 279.208169 209.247395 
L 289.521613 208.037883 
L 299.835058 207.781519 
L 310.148502 207.025575 
L 320.461946 206.309071 
L 330.775391 205.480819 
L 341.088835 204.797182 
L 351.402279 204.212146 
L 361.715723 203.423335 
L 372.029168 202.68711 
L 382.342612 202.062634 
L 392.656056 201.267249 
L 402.969501 200.537598 
L 413.282945 199.768507 
L 423.596389 199.262353 
L 433.909834 198.381513 
L 444.223278 197.658435 
L 454.536722 186.108917 
L 464.850166 186.55591 
L 475.163611 186.825421 
L 485.477055 186.57563 
L 495.790499 186.417868 
L 506.103944 185.385839 
L 516.417388 184.899405 
L 526.730832 184.261783 
L 537.044277 183.558425 
L 547.357721 183.64388 
L 557.671165 182.605278 
L 567.984609 181.159123 
L 578.298054 179.279122 
L 588.611498 180.409752 
L 609.238387 179.095066 
L 629.865275 176.761498 
L 650.492164 175.216741 
L 671.119052 174.940657 
L 691.745941 173.422194 
L 712.37283 172.653103 
L 732.999718 170.155199 
L 753.626607 169.925129 
L 774.253496 168.39352 
L 794.880384 167.137994 
L 815.507273 166.033658 
L 815.507273 154.957426 
L 815.507273 154.957426 
L 794.880384 156.022322 
L 774.253496 157.356729 
L 753.626607 158.875191 
L 732.999718 159.092114 
L 712.37283 161.72806 
L 691.745941 162.326243 
L 671.119052 163.976174 
L 650.492164 164.19967 
L 629.865275 165.829881 
L 609.238387 167.999114 
L 588.611498 169.438695 
L 578.298054 168.301492 
L 567.984609 170.207787 
L 557.671165 171.78541 
L 547.357721 172.70569 
L 537.044277 172.554502 
L 526.730832 173.224992 
L 516.417388 173.869188 
L 506.103944 174.44765 
L 495.790499 175.420518 
L 485.477055 175.637441 
L 475.163611 175.926672 
L 464.850166 175.57828 
L 454.536722 175.236462 
L 444.223278 191.978991 
L 433.909834 192.695495 
L 423.596389 193.596055 
L 413.282945 194.049622 
L 402.969501 194.910741 
L 392.656056 195.587805 
L 382.342612 196.462071 
L 372.029168 196.974799 
L 361.715723 197.789904 
L 351.402279 198.532702 
L 341.088835 199.137457 
L 330.775391 199.860535 
L 320.461946 200.6362 
L 310.148502 201.332983 
L 299.835058 202.115222 
L 289.521613 202.411026 
L 279.208169 203.541656 
L 268.894725 203.245852 
L 258.58128 203.042076 
L 248.267836 212.612991 
L 237.954392 213.342642 
L 227.640948 214.06572 
L 217.327503 214.782224 
L 207.014059 215.603903 
L 196.700615 216.037749 
L 186.38717 216.905442 
L 176.073726 217.115792 
L 165.760282 217.871736 
L 155.446837 222.479712 
L 145.133393 223.156775 
L 134.819949 223.978454 
L 124.506504 224.681811 
L 114.19306 226.765589 
L 103.879616 227.53468 
L 93.566172 228.85594 
L 83.252727 229.625031 
z
" clip-path="url(#p847f6db25b)" style="fill: #9467bd; fill-opacity: 0.7"/>
   </g>
   <g id="FillBetweenPolyCollection_6">
    <path d="M 83.252727 229.625031 
L 83.252727 229.625031 
L 93.566172 228.85594 
L 103.879616 227.53468 
L 114.19306 226.765589 
L 124.506504 224.681811 
L 134.819949 223.978454 
L 145.133393 223.156775 
L 155.446837 222.479712 
L 165.760282 217.871736 
L 176.073726 217.115792 
L 186.38717 216.905442 
L 196.700615 216.037749 
L 207.014059 215.603903 
L 217.327503 214.782224 
L 227.640948 214.06572 
L 237.954392 213.342642 
L 248.267836 212.612991 
L 258.58128 203.042076 
L 268.894725 203.245852 
L 279.208169 203.541656 
L 289.521613 202.411026 
L 299.835058 202.115222 
L 310.148502 201.332983 
L 320.461946 200.6362 
L 330.775391 199.860535 
L 341.088835 199.137457 
L 351.402279 198.532702 
L 361.715723 197.789904 
L 372.029168 196.974799 
L 382.342612 196.462071 
L 392.656056 195.587805 
L 402.969501 194.910741 
L 413.282945 194.049622 
L 423.596389 193.596055 
L 433.909834 192.695495 
L 444.223278 191.978991 
L 454.536722 175.236462 
L 464.850166 175.57828 
L 475.163611 175.926672 
L 485.477055 175.637441 
L 495.790499 175.420518 
L 506.103944 174.44765 
L 516.417388 173.869188 
L 526.730832 173.224992 
L 537.044277 172.554502 
L 547.357721 172.70569 
L 557.671165 171.78541 
L 567.984609 170.207787 
L 578.298054 168.301492 
L 588.611498 169.438695 
L 609.238387 167.999114 
L 629.865275 165.829881 
L 650.492164 164.19967 
L 671.119052 163.976174 
L 691.745941 162.326243 
L 712.37283 161.72806 
L 732.999718 159.092114 
L 753.626607 158.875191 
L 774.253496 157.356729 
L 794.880384 156.022322 
L 815.507273 154.957426 
L 815.507273 154.957426 
L 815.507273 154.957426 
L 794.880384 156.022322 
L 774.253496 157.356729 
L 753.626607 158.875191 
L 732.999718 159.092114 
L 712.37283 161.72806 
L 691.745941 162.326243 
L 671.119052 163.976174 
L 650.492164 164.19967 
L 629.865275 165.829881 
L 609.238387 167.999114 
L 588.611498 169.438695 
L 578.298054 168.301492 
L 567.984609 170.207787 
L 557.671165 171.78541 
L 547.357721 172.70569 
L 537.044277 172.554502 
L 526.730832 173.224992 
L 516.417388 173.869188 
L 506.103944 174.44765 
L 495.790499 175.420518 
L 485.477055 175.637441 
L 475.163611 175.926672 
L 464.850166 175.57828 
L 454.536722 175.236462 
L 444.223278 191.978991 
L 433.909834 192.695495 
L 423.596389 193.596055 
L 413.282945 194.049622 
L 402.969501 194.910741 
L 392.656056 195.587805 
L 382.342612 196.462071 
L 372.029168 196.974799 
L 361.715723 197.789904 
L 351.402279 198.532702 
L 341.088835 199.137457 
L 330.775391 199.860535 
L 320.461946 200.6362 
L 310.148502 201.332983 
L 299.835058 202.115222 
L 289.521613 202.411026 
L 279.208169 203.541656 
L 268.894725 203.245852 
L 258.58128 203.042076 
L 248.267836 212.612991 
L 237.954392 213.342642 
L 227.640948 214.06572 
L 217.327503 214.782224 
L 207.014059 215.603903 
L 196.700615 216.037749 
L 186.38717 216.905442 
L 176.073726 217.115792 
L 165.760282 217.871736 
L 155.446837 222.479712 
L 145.133393 223.156775 
L 134.819949 223.978454 
L 124.506504 224.681811 
L 114.19306 226.765589 
L 103.879616 227.53468 
L 93.566172 228.85594 
L 83.252727 229.625031 
z
" clip-path="url(#p847f6db25b)" style="fill: #8c564b; fill-opacity: 0.7"/>
   </g>
   <g id="FillBetweenPolyCollection_7">
    <path d="M 83.252727 229.585591 
L 83.252727 229.625031 
L 93.566172 228.85594 
L 103.879616 227.53468 
L 114.19306 226.765589 
L 124.506504 224.681811 
L 134.819949 223.978454 
L 145.133393 223.156775 
L 155.446837 222.479712 
L 165.760282 217.871736 
L 176.073726 217.115792 
L 186.38717 216.905442 
L 196.700615 216.037749 
L 207.014059 215.603903 
L 217.327503 214.782224 
L 227.640948 214.06572 
L 237.954392 213.342642 
L 248.267836 212.612991 
L 258.58128 203.042076 
L 268.894725 203.245852 
L 279.208169 203.541656 
L 289.521613 202.411026 
L 299.835058 202.115222 
L 310.148502 201.332983 
L 320.461946 200.6362 
L 330.775391 199.860535 
L 341.088835 199.137457 
L 351.402279 198.532702 
L 361.715723 197.789904 
L 372.029168 196.974799 
L 382.342612 196.462071 
L 392.656056 195.587805 
L 402.969501 194.910741 
L 413.282945 194.049622 
L 423.596389 193.596055 
L 433.909834 192.695495 
L 444.223278 191.978991 
L 454.536722 175.236462 
L 464.850166 175.57828 
L 475.163611 175.926672 
L 485.477055 175.637441 
L 495.790499 175.420518 
L 506.103944 174.44765 
L 516.417388 173.869188 
L 526.730832 173.224992 
L 537.044277 172.554502 
L 547.357721 172.70569 
L 557.671165 171.78541 
L 567.984609 170.207787 
L 578.298054 168.301492 
L 588.611498 169.438695 
L 609.238387 167.999114 
L 629.865275 165.829881 
L 650.492164 164.19967 
L 671.119052 163.976174 
L 691.745941 162.326243 
L 712.37283 161.72806 
L 732.999718 159.092114 
L 753.626607 158.875191 
L 774.253496 157.356729 
L 794.880384 156.022322 
L 815.507273 154.957426 
L 815.507273 154.431552 
L 815.507273 154.431552 
L 794.880384 155.470154 
L 774.253496 156.830854 
L 753.626607 158.35589 
L 732.999718 158.572813 
L 712.37283 161.208759 
L 691.745941 161.806942 
L 671.119052 163.456873 
L 650.492164 163.673796 
L 629.865275 165.31058 
L 609.238387 167.479813 
L 588.611498 168.919394 
L 578.298054 167.78219 
L 567.984609 169.688486 
L 557.671165 171.266109 
L 547.357721 172.186389 
L 537.044277 172.035201 
L 526.730832 172.70569 
L 516.417388 173.349887 
L 506.103944 173.928349 
L 495.790499 174.901217 
L 485.477055 175.11814 
L 475.163611 175.407371 
L 464.850166 175.058979 
L 454.536722 174.71716 
L 444.223278 191.702907 
L 433.909834 192.419411 
L 423.596389 193.319971 
L 413.282945 193.773538 
L 402.969501 194.634657 
L 392.656056 195.31172 
L 382.342612 196.185987 
L 372.029168 196.698714 
L 361.715723 197.51382 
L 351.402279 198.256618 
L 341.088835 198.867947 
L 330.775391 199.584451 
L 320.461946 200.360116 
L 310.148502 201.056899 
L 299.835058 201.839138 
L 289.521613 202.141516 
L 279.208169 203.252425 
L 268.894725 202.969768 
L 258.58128 202.765991 
L 248.267836 212.461803 
L 237.954392 213.191453 
L 227.640948 213.914531 
L 217.327503 214.631035 
L 207.014059 215.452714 
L 196.700615 215.88656 
L 186.38717 216.754253 
L 176.073726 216.964603 
L 165.760282 217.720548 
L 155.446837 222.394257 
L 145.133393 223.071321 
L 134.819949 223.886426 
L 124.506504 224.596357 
L 114.19306 226.713001 
L 103.879616 227.482093 
L 93.566172 228.816499 
L 83.252727 229.585591 
z
" clip-path="url(#p847f6db25b)" style="fill: #e377c2; fill-opacity: 0.7"/>
   </g>
   <g id="FillBetweenPolyCollection_8">
    <path d="M 83.252727 228.770485 
L 83.252727 229.585591 
L 93.566172 228.816499 
L 103.879616 227.482093 
L 114.19306 226.713001 
L 124.506504 224.596357 
L 134.819949 223.886426 
L 145.133393 223.071321 
L 155.446837 222.394257 
L 165.760282 217.720548 
L 176.073726 216.964603 
L 186.38717 216.754253 
L 196.700615 215.88656 
L 207.014059 215.452714 
L 217.327503 214.631035 
L 227.640948 213.914531 
L 237.954392 213.191453 
L 248.267836 212.461803 
L 258.58128 202.765991 
L 268.894725 202.969768 
L 279.208169 203.252425 
L 289.521613 202.141516 
L 299.835058 201.839138 
L 310.148502 201.056899 
L 320.461946 200.360116 
L 330.775391 199.584451 
L 341.088835 198.867947 
L 351.402279 198.256618 
L 361.715723 197.51382 
L 372.029168 196.698714 
L 382.342612 196.185987 
L 392.656056 195.31172 
L 402.969501 194.634657 
L 413.282945 193.773538 
L 423.596389 193.319971 
L 433.909834 192.419411 
L 444.223278 191.702907 
L 454.536722 174.71716 
L 464.850166 175.058979 
L 475.163611 175.407371 
L 485.477055 175.11814 
L 495.790499 174.901217 
L 506.103944 173.928349 
L 516.417388 173.349887 
L 526.730832 172.70569 
L 537.044277 172.035201 
L 547.357721 172.186389 
L 557.671165 171.266109 
L 567.984609 169.688486 
L 578.298054 167.78219 
L 588.611498 168.919394 
L 609.238387 167.479813 
L 629.865275 165.31058 
L 650.492164 163.673796 
L 671.119052 163.456873 
L 691.745941 161.806942 
L 712.37283 161.208759 
L 732.999718 158.572813 
L 753.626607 158.35589 
L 774.253496 156.830854 
L 794.880384 155.470154 
L 815.507273 154.431552 
L 815.507273 118.685233 
L 815.507273 118.685233 
L 794.880384 120.197122 
L 774.253496 121.531528 
L 753.626607 122.925096 
L 732.999718 123.207753 
L 712.37283 126.349853 
L 691.745941 126.724539 
L 671.119052 128.413911 
L 650.492164 128.821464 
L 629.865275 131.03671 
L 609.238387 133.797551 
L 588.611498 135.848462 
L 578.298054 135.03993 
L 567.984609 137.0514 
L 557.671165 136.913357 
L 547.357721 140.068604 
L 537.044277 139.569024 
L 526.730832 140.771962 
L 516.417388 141.902592 
L 506.103944 142.020914 
L 495.790499 143.946929 
L 485.477055 144.479377 
L 475.163611 144.479377 
L 464.850166 144.262454 
L 454.536722 143.716859 
L 444.223278 179.305415 
L 433.909834 180.153388 
L 423.596389 181.119682 
L 413.282945 181.533809 
L 402.969501 182.506676 
L 392.656056 183.249474 
L 382.342612 184.117167 
L 372.029168 184.73507 
L 361.715723 185.523881 
L 351.402279 186.32584 
L 341.088835 187.022624 
L 330.775391 187.804862 
L 320.461946 188.672555 
L 310.148502 189.389059 
L 299.835058 190.269899 
L 289.521613 190.624864 
L 279.208169 191.808082 
L 268.894725 191.485983 
L 258.58128 187.232973 
L 248.267836 205.59914 
L 237.954392 206.368232 
L 227.640948 207.137323 
L 217.327503 207.860401 
L 207.014059 208.728094 
L 196.700615 209.175087 
L 186.38717 210.08222 
L 176.073726 210.345158 
L 165.760282 211.133969 
L 155.446837 219.002367 
L 145.133393 219.725444 
L 134.819949 220.566843 
L 124.506504 221.303068 
L 114.19306 225.049923 
L 103.879616 225.851882 
L 93.566172 227.9751 
L 83.252727 228.770485 
z
" clip-path="url(#p847f6db25b)" style="fill: #7f7f7f; fill-opacity: 0.7"/>
   </g>
   <g id="FillBetweenPolyCollection_9">
    <path d="M 83.252727 228.744192 
L 83.252727 228.770485 
L 93.566172 227.9751 
L 103.879616 225.851882 
L 114.19306 225.049923 
L 124.506504 221.303068 
L 134.819949 220.566843 
L 145.133393 219.725444 
L 155.446837 219.002367 
L 165.760282 211.133969 
L 176.073726 210.345158 
L 186.38717 210.08222 
L 196.700615 209.175087 
L 207.014059 208.728094 
L 217.327503 207.860401 
L 227.640948 207.137323 
L 237.954392 206.368232 
L 248.267836 205.59914 
L 258.58128 187.232973 
L 268.894725 191.485983 
L 279.208169 191.808082 
L 289.521613 190.624864 
L 299.835058 190.269899 
L 310.148502 189.389059 
L 320.461946 188.672555 
L 330.775391 187.804862 
L 341.088835 187.022624 
L 351.402279 186.32584 
L 361.715723 185.523881 
L 372.029168 184.73507 
L 382.342612 184.117167 
L 392.656056 183.249474 
L 402.969501 182.506676 
L 413.282945 181.533809 
L 423.596389 181.119682 
L 433.909834 180.153388 
L 444.223278 179.305415 
L 454.536722 143.716859 
L 464.850166 144.262454 
L 475.163611 144.479377 
L 485.477055 144.479377 
L 495.790499 143.946929 
L 506.103944 142.020914 
L 516.417388 141.902592 
L 526.730832 140.771962 
L 537.044277 139.569024 
L 547.357721 140.068604 
L 557.671165 136.913357 
L 567.984609 137.0514 
L 578.298054 135.03993 
L 588.611498 135.848462 
L 609.238387 133.797551 
L 629.865275 131.03671 
L 650.492164 128.821464 
L 671.119052 128.413911 
L 691.745941 126.724539 
L 712.37283 126.349853 
L 732.999718 123.207753 
L 753.626607 122.925096 
L 774.253496 121.531528 
L 794.880384 120.197122 
L 815.507273 118.685233 
L 815.507273 118.658939 
L 815.507273 118.658939 
L 794.880384 120.170828 
L 774.253496 121.505235 
L 753.626607 122.898802 
L 732.999718 123.18146 
L 712.37283 126.32356 
L 691.745941 126.698245 
L 671.119052 128.387617 
L 650.492164 128.79517 
L 629.865275 131.010416 
L 609.238387 133.771257 
L 588.611498 135.822168 
L 578.298054 135.013636 
L 567.984609 137.025106 
L 557.671165 136.887064 
L 547.357721 140.042311 
L 537.044277 139.54273 
L 526.730832 140.745668 
L 516.417388 141.876298 
L 506.103944 141.99462 
L 495.790499 143.920635 
L 485.477055 144.453083 
L 475.163611 144.453083 
L 464.850166 144.23616 
L 454.536722 143.690565 
L 444.223278 179.279122 
L 433.909834 180.127094 
L 423.596389 181.093389 
L 413.282945 181.507515 
L 402.969501 182.480383 
L 392.656056 183.22318 
L 382.342612 184.090873 
L 372.029168 184.708776 
L 361.715723 185.497588 
L 351.402279 186.299546 
L 341.088835 186.99633 
L 330.775391 187.778568 
L 320.461946 188.646261 
L 310.148502 189.362765 
L 299.835058 190.243605 
L 289.521613 190.59857 
L 279.208169 191.781788 
L 268.894725 191.45969 
L 258.58128 187.20668 
L 248.267836 205.572847 
L 237.954392 206.341938 
L 227.640948 207.11103 
L 217.327503 207.834107 
L 207.014059 208.7018 
L 196.700615 209.148793 
L 186.38717 210.055927 
L 176.073726 210.318864 
L 165.760282 211.107676 
L 155.446837 218.976073 
L 145.133393 219.69915 
L 134.819949 220.540549 
L 124.506504 221.276774 
L 114.19306 225.02363 
L 103.879616 225.825588 
L 93.566172 227.948806 
L 83.252727 228.744192 
z
" clip-path="url(#p847f6db25b)" style="fill: #bcbd22; fill-opacity: 0.7"/>
   </g>
   <g id="FillBetweenPolyCollection_10">
    <path d="M 83.252727 228.113142 
L 83.252727 228.744192 
L 93.566172 227.948806 
L 103.879616 225.825588 
L 114.19306 225.02363 
L 124.506504 221.276774 
L 134.819949 220.540549 
L 145.133393 219.69915 
L 155.446837 218.976073 
L 165.760282 211.107676 
L 176.073726 210.318864 
L 186.38717 210.055927 
L 196.700615 209.148793 
L 207.014059 208.7018 
L 217.327503 207.834107 
L 227.640948 207.11103 
L 237.954392 206.341938 
L 248.267836 205.572847 
L 258.58128 187.20668 
L 268.894725 191.45969 
L 279.208169 191.781788 
L 289.521613 190.59857 
L 299.835058 190.243605 
L 310.148502 189.362765 
L 320.461946 188.646261 
L 330.775391 187.778568 
L 341.088835 186.99633 
L 351.402279 186.299546 
L 361.715723 185.497588 
L 372.029168 184.708776 
L 382.342612 184.090873 
L 392.656056 183.22318 
L 402.969501 182.480383 
L 413.282945 181.507515 
L 423.596389 181.093389 
L 433.909834 180.127094 
L 444.223278 179.279122 
L 454.536722 143.690565 
L 464.850166 144.23616 
L 475.163611 144.453083 
L 485.477055 144.453083 
L 495.790499 143.920635 
L 506.103944 141.99462 
L 516.417388 141.876298 
L 526.730832 140.745668 
L 537.044277 139.54273 
L 547.357721 140.042311 
L 557.671165 136.887064 
L 567.984609 137.025106 
L 578.298054 135.013636 
L 588.611498 135.822168 
L 609.238387 133.771257 
L 629.865275 131.010416 
L 650.492164 128.79517 
L 671.119052 128.387617 
L 691.745941 126.698245 
L 712.37283 126.32356 
L 732.999718 123.18146 
L 753.626607 122.898802 
L 774.253496 121.505235 
L 794.880384 120.170828 
L 815.507273 118.658939 
L 815.507273 112.979494 
L 815.507273 112.979494 
L 794.880384 114.511104 
L 774.253496 115.871804 
L 753.626607 117.265372 
L 732.999718 117.554603 
L 712.37283 120.70985 
L 691.745941 121.097682 
L 671.119052 122.813347 
L 650.492164 123.20118 
L 629.865275 125.436147 
L 609.238387 128.249575 
L 588.611498 130.267619 
L 578.298054 129.478807 
L 567.984609 131.47713 
L 557.671165 131.345661 
L 547.357721 134.474614 
L 537.044277 134.001327 
L 526.730832 135.204265 
L 516.417388 136.328322 
L 506.103944 136.459791 
L 495.790499 138.392379 
L 485.477055 138.924827 
L 475.163611 138.931401 
L 464.850166 138.707904 
L 454.536722 138.18203 
L 444.223278 175.841217 
L 433.909834 176.702337 
L 423.596389 177.734365 
L 413.282945 178.27996 
L 402.969501 179.121359 
L 392.656056 179.956185 
L 382.342612 180.73185 
L 372.029168 181.362899 
L 361.715723 182.210872 
L 351.402279 183.085138 
L 341.088835 183.604439 
L 330.775391 184.570734 
L 320.461946 185.293811 
L 310.148502 186.016889 
L 299.835058 186.917449 
L 289.521613 187.338148 
L 279.208169 188.573953 
L 268.894725 188.238708 
L 258.58128 183.913391 
L 248.267836 203.705992 
L 237.954392 204.475084 
L 227.640948 205.263895 
L 217.327503 205.960679 
L 207.014059 206.834945 
L 196.700615 207.281939 
L 186.38717 208.202219 
L 176.073726 208.583478 
L 165.760282 209.286835 
L 155.446837 217.746841 
L 145.133393 218.476492 
L 134.819949 219.285024 
L 124.506504 220.054116 
L 114.19306 224.208524 
L 103.879616 225.02363 
L 93.566172 227.311184 
L 83.252727 228.113142 
z
" clip-path="url(#p847f6db25b)" style="fill: #17becf; fill-opacity: 0.7"/>
   </g>
   <g id="FillBetweenPolyCollection_11">
    <path d="M 83.252727 228.093422 
L 83.252727 228.113142 
L 93.566172 227.311184 
L 103.879616 225.02363 
L 114.19306 224.208524 
L 124.506504 220.054116 
L 134.819949 219.285024 
L 145.133393 218.476492 
L 155.446837 217.746841 
L 165.760282 209.286835 
L 176.073726 208.583478 
L 186.38717 208.202219 
L 196.700615 207.281939 
L 207.014059 206.834945 
L 217.327503 205.960679 
L 227.640948 205.263895 
L 237.954392 204.475084 
L 248.267836 203.705992 
L 258.58128 183.913391 
L 268.894725 188.238708 
L 279.208169 188.573953 
L 289.521613 187.338148 
L 299.835058 186.917449 
L 310.148502 186.016889 
L 320.461946 185.293811 
L 330.775391 184.570734 
L 341.088835 183.604439 
L 351.402279 183.085138 
L 361.715723 182.210872 
L 372.029168 181.362899 
L 382.342612 180.73185 
L 392.656056 179.956185 
L 402.969501 179.121359 
L 413.282945 178.27996 
L 423.596389 177.734365 
L 433.909834 176.702337 
L 444.223278 175.841217 
L 454.536722 138.18203 
L 464.850166 138.707904 
L 475.163611 138.931401 
L 485.477055 138.924827 
L 495.790499 138.392379 
L 506.103944 136.459791 
L 516.417388 136.328322 
L 526.730832 135.204265 
L 537.044277 134.001327 
L 547.357721 134.474614 
L 557.671165 131.345661 
L 567.984609 131.47713 
L 578.298054 129.478807 
L 588.611498 130.267619 
L 609.238387 128.249575 
L 629.865275 125.436147 
L 650.492164 123.20118 
L 671.119052 122.813347 
L 691.745941 121.097682 
L 712.37283 120.70985 
L 732.999718 117.554603 
L 753.626607 117.265372 
L 774.253496 115.871804 
L 794.880384 114.511104 
L 815.507273 112.979494 
L 815.507273 112.598235 
L 815.507273 112.598235 
L 794.880384 114.129845 
L 774.253496 115.497119 
L 753.626607 116.890686 
L 732.999718 117.16677 
L 712.37283 120.335164 
L 691.745941 120.722996 
L 671.119052 122.438662 
L 650.492164 122.826494 
L 629.865275 125.061461 
L 609.238387 127.87489 
L 588.611498 129.886359 
L 578.298054 129.104121 
L 567.984609 131.102444 
L 557.671165 130.964402 
L 547.357721 134.093355 
L 537.044277 133.620068 
L 526.730832 134.823006 
L 516.417388 135.947063 
L 506.103944 136.085105 
L 495.790499 138.024267 
L 485.477055 138.556715 
L 475.163611 138.556715 
L 464.850166 138.339792 
L 454.536722 137.800771 
L 444.223278 175.644014 
L 433.909834 176.511707 
L 423.596389 177.543736 
L 413.282945 178.082757 
L 402.969501 178.93073 
L 392.656056 179.765556 
L 382.342612 180.541221 
L 372.029168 181.165696 
L 361.715723 182.020243 
L 351.402279 182.894509 
L 341.088835 183.41381 
L 330.775391 184.373531 
L 320.461946 185.103182 
L 310.148502 185.826259 
L 299.835058 186.726819 
L 289.521613 187.147519 
L 279.208169 188.383324 
L 268.894725 188.048079 
L 258.58128 183.689894 
L 248.267836 203.58767 
L 237.954392 204.356762 
L 227.640948 205.152147 
L 217.327503 205.842357 
L 207.014059 206.723197 
L 196.700615 207.163617 
L 186.38717 208.083897 
L 176.073726 208.47173 
L 165.760282 209.168513 
L 155.446837 217.68768 
L 145.133393 218.417331 
L 134.819949 219.225863 
L 124.506504 219.994955 
L 114.19306 224.188804 
L 103.879616 225.003909 
L 93.566172 227.298037 
L 83.252727 228.093422 
z
" clip-path="url(#p847f6db25b)" style="fill: #1f77b4; fill-opacity: 0.7"/>
   </g>
   <g id="FillBetweenPolyCollection_12">
    <path d="M 83.252727 226.213421 
L 83.252727 228.093422 
L 93.566172 227.298037 
L 103.879616 225.003909 
L 114.19306 224.188804 
L 124.506504 219.994955 
L 134.819949 219.225863 
L 145.133393 218.417331 
L 155.446837 217.68768 
L 165.760282 209.168513 
L 176.073726 208.47173 
L 186.38717 208.083897 
L 196.700615 207.163617 
L 207.014059 206.723197 
L 217.327503 205.842357 
L 227.640948 205.152147 
L 237.954392 204.356762 
L 248.267836 203.58767 
L 258.58128 183.689894 
L 268.894725 188.048079 
L 279.208169 188.383324 
L 289.521613 187.147519 
L 299.835058 186.726819 
L 310.148502 185.826259 
L 320.461946 185.103182 
L 330.775391 184.373531 
L 341.088835 183.41381 
L 351.402279 182.894509 
L 361.715723 182.020243 
L 372.029168 181.165696 
L 382.342612 180.541221 
L 392.656056 179.765556 
L 402.969501 178.93073 
L 413.282945 178.082757 
L 423.596389 177.543736 
L 433.909834 176.511707 
L 444.223278 175.644014 
L 454.536722 137.800771 
L 464.850166 138.339792 
L 475.163611 138.556715 
L 485.477055 138.556715 
L 495.790499 138.024267 
L 506.103944 136.085105 
L 516.417388 135.947063 
L 526.730832 134.823006 
L 537.044277 133.620068 
L 547.357721 134.093355 
L 557.671165 130.964402 
L 567.984609 131.102444 
L 578.298054 129.104121 
L 588.611498 129.886359 
L 609.238387 127.87489 
L 629.865275 125.061461 
L 650.492164 122.826494 
L 671.119052 122.438662 
L 691.745941 120.722996 
L 712.37283 120.335164 
L 732.999718 117.16677 
L 753.626607 116.890686 
L 774.253496 115.497119 
L 794.880384 114.129845 
L 815.507273 112.598235 
L 815.507273 37.293007 
L 815.507273 37.293007 
L 794.880384 40.744059 
L 774.253496 43.136788 
L 753.626607 46.364342 
L 732.999718 47.711896 
L 712.37283 51.774276 
L 691.745941 53.443928 
L 671.119052 56.355958 
L 650.492164 57.782392 
L 629.865275 61.542395 
L 609.238387 65.256384 
L 588.611498 68.221001 
L 578.298054 67.984358 
L 567.984609 70.278485 
L 557.671165 70.771493 
L 547.357721 74.584083 
L 537.044277 74.63667 
L 526.730832 78.528141 
L 516.417388 79.849401 
L 506.103944 80.684227 
L 495.790499 83.070382 
L 485.477055 84.115558 
L 475.163611 84.779474 
L 464.850166 84.983251 
L 454.536722 85.127866 
L 444.223278 139.450702 
L 433.909834 141.067766 
L 423.596389 142.849166 
L 413.282945 143.762873 
L 402.969501 145.307629 
L 392.656056 146.622315 
L 382.342612 147.904134 
L 372.029168 148.942737 
L 361.715723 150.513787 
L 351.402279 151.907354 
L 341.088835 152.965677 
L 330.775391 154.464419 
L 320.461946 155.680504 
L 310.148502 156.982043 
L 299.835058 158.369037 
L 289.521613 159.453653 
L 279.208169 161.162745 
L 268.894725 161.45855 
L 258.58128 157.619666 
L 248.267836 186.030036 
L 237.954392 187.377589 
L 227.640948 188.725142 
L 217.327503 189.941227 
L 207.014059 191.367662 
L 196.700615 192.301089 
L 186.38717 193.806405 
L 176.073726 194.700391 
L 165.760282 195.98221 
L 155.446837 209.043618 
L 145.133393 210.220262 
L 134.819949 211.567816 
L 124.506504 212.889076 
L 114.19306 219.791178 
L 103.879616 221.132158 
L 93.566172 224.984189 
L 83.252727 226.213421 
z
" clip-path="url(#p847f6db25b)" style="fill: #ff7f0e; fill-opacity: 0.7"/>
   </g>
   <g id="FillBetweenPolyCollection_13">
    <path d="M 83.252727 226.206847 
L 83.252727 226.213421 
L 93.566172 224.984189 
L 103.879616 221.132158 
L 114.19306 219.791178 
L 124.506504 212.889076 
L 134.819949 211.567816 
L 145.133393 210.220262 
L 155.446837 209.043618 
L 165.760282 195.98221 
L 176.073726 194.700391 
L 186.38717 193.806405 
L 196.700615 192.301089 
L 207.014059 191.367662 
L 217.327503 189.941227 
L 227.640948 188.725142 
L 237.954392 187.377589 
L 248.267836 186.030036 
L 258.58128 157.619666 
L 268.894725 161.45855 
L 279.208169 161.162745 
L 289.521613 159.453653 
L 299.835058 158.369037 
L 310.148502 156.982043 
L 320.461946 155.680504 
L 330.775391 154.464419 
L 341.088835 152.965677 
L 351.402279 151.907354 
L 361.715723 150.513787 
L 372.029168 148.942737 
L 382.342612 147.904134 
L 392.656056 146.622315 
L 402.969501 145.307629 
L 413.282945 143.762873 
L 423.596389 142.849166 
L 433.909834 141.067766 
L 444.223278 139.450702 
L 454.536722 85.127866 
L 464.850166 84.983251 
L 475.163611 84.779474 
L 485.477055 84.115558 
L 495.790499 83.070382 
L 506.103944 80.684227 
L 516.417388 79.849401 
L 526.730832 78.528141 
L 537.044277 74.63667 
L 547.357721 74.584083 
L 557.671165 70.771493 
L 567.984609 70.278485 
L 578.298054 67.984358 
L 588.611498 68.221001 
L 609.238387 65.256384 
L 629.865275 61.542395 
L 650.492164 57.782392 
L 671.119052 56.355958 
L 691.745941 53.443928 
L 712.37283 51.774276 
L 732.999718 47.711896 
L 753.626607 46.364342 
L 774.253496 43.136788 
L 794.880384 40.744059 
L 815.507273 37.293007 
L 815.507273 36.885455 
L 815.507273 36.885455 
L 794.880384 40.323359 
L 774.253496 42.722661 
L 753.626607 45.950216 
L 732.999718 47.29777 
L 712.37283 51.36015 
L 691.745941 53.042948 
L 671.119052 55.954979 
L 650.492164 57.387987 
L 629.865275 61.121695 
L 609.238387 64.855404 
L 588.611498 67.826595 
L 578.298054 67.570231 
L 567.984609 69.884079 
L 557.671165 70.377087 
L 547.357721 74.189677 
L 537.044277 74.242264 
L 526.730832 78.140309 
L 516.417388 79.448422 
L 506.103944 80.296394 
L 495.790499 82.669403 
L 485.477055 83.721152 
L 475.163611 84.391642 
L 464.850166 84.595418 
L 454.536722 84.740034 
L 444.223278 139.246926 
L 433.909834 140.86399 
L 423.596389 142.64539 
L 413.282945 143.559096 
L 402.969501 145.097279 
L 392.656056 146.418539 
L 382.342612 147.700358 
L 372.029168 148.732387 
L 361.715723 150.31001 
L 351.402279 151.703578 
L 341.088835 152.768474 
L 330.775391 154.267216 
L 320.461946 155.470154 
L 310.148502 156.78484 
L 299.835058 158.171834 
L 289.521613 159.25645 
L 279.208169 160.972116 
L 268.894725 161.254773 
L 258.58128 157.422463 
L 248.267836 185.931434 
L 237.954392 187.278988 
L 227.640948 188.626541 
L 217.327503 189.842626 
L 207.014059 191.26906 
L 196.700615 192.209061 
L 186.38717 193.714377 
L 176.073726 194.608363 
L 165.760282 195.883609 
L 155.446837 208.997604 
L 145.133393 210.174248 
L 134.819949 211.521802 
L 124.506504 212.849635 
L 114.19306 219.771458 
L 103.879616 221.112438 
L 93.566172 224.971042 
L 83.252727 226.206847 
z
" clip-path="url(#p847f6db25b)" style="fill: #2ca02c; fill-opacity: 0.7"/>
   </g>
   <g id="matplotlib.axis_1">
    <g id="xtick_1">
     <g id="line2d_1">
      <path d="M 72.939283 244.48 
L 72.939283 27 
" clip-path="url(#p847f6db25b)" style="fill: none; stroke: #b0b0b0; stroke-opacity: 0.25; stroke-width: 0.8; stroke-linecap: square"/>
     </g>
     <g id="line2d_2">
      <defs>
       <path id="m6ff635b303" d="M 0 0 
L 0 3.5 
" style="stroke: #000000; stroke-width: 0.8"/>
      </defs>
      <g>
       <use xlink:href="#m6ff635b303" x="72.939283" y="244.48" style="stroke: #000000; stroke-width: 0.8"/>
      </g>
     </g>
     <g id="text_1">
      <!-- 0 -->
      <g transform="translate(69.758033 259.078438) scale(0.1 -0.1)">
       <defs>
        <path id="DejaVuSans-30" d="M 2034 4250 
Q 1547 4250 1301 3770 
Q 1056 3291 1056 2328 
Q 1056 1369 1301 889 
Q 1547 409 2034 409 
Q 2525 409 2770 889 
Q 3016 1369 3016 2328 
Q 3016 3291 2770 3770 
Q 2525 4250 2034 4250 
z
M 2034 4750 
Q 2819 4750 3233 4129 
Q 3647 3509 3647 2328 
Q 3647 1150 3233 529 
Q 2819 -91 2034 -91 
Q 1250 -91 836 529 
Q 422 1150 422 2328 
Q 422 3509 836 4129 
Q 1250 4750 2034 4750 
z
" transform="scale(0.015625)"/>
       </defs>
       <use xlink:href="#DejaVuSans-30"/>
      </g>
     </g>
    </g>
    <g id="xtick_2">
     <g id="line2d_3">
      <path d="M 176.073726 244.48 
L 176.073726 27 
" clip-path="url(#p847f6db25b)" style="fill: none; stroke: #b0b0b0; stroke-opacity: 0.25; stroke-width: 0.8; stroke-linecap: square"/>
     </g>
     <g id="line2d_4">
      <g>
       <use xlink:href="#m6ff635b303" x="176.073726" y="244.48" style="stroke: #000000; stroke-width: 0.8"/>
      </g>
     </g>
     <g id="text_2">
      <!-- 10 -->
      <g transform="translate(169.711226 259.078438) scale(0.1 -0.1)">
       <defs>
        <path id="DejaVuSans-31" d="M 794 531 
L 1825 531 
L 1825 4091 
L 703 3866 
L 703 4441 
L 1819 4666 
L 2450 4666 
L 2450 531 
L 3481 531 
L 3481 0 
L 794 0 
L 794 531 
z
" transform="scale(0.015625)"/>
       </defs>
       <use xlink:href="#DejaVuSans-31"/>
       <use xlink:href="#DejaVuSans-30" transform="translate(63.623047 0)"/>
      </g>
     </g>
    </g>
    <g id="xtick_3">
     <g id="line2d_5">
      <path d="M 279.208169 244.48 
L 279.208169 27 
" clip-path="url(#p847f6db25b)" style="fill: none; stroke: #b0b0b0; stroke-opacity: 0.25; stroke-width: 0.8; stroke-linecap: square"/>
     </g>
     <g id="line2d_6">
      <g>
       <use xlink:href="#m6ff635b303" x="279.208169" y="244.48" style="stroke: #000000; stroke-width: 0.8"/>
      </g>
     </g>
     <g id="text_3">
      <!-- 20 -->
      <g transform="translate(272.845669 259.078438) scale(0.1 -0.1)">
       <defs>
        <path id="DejaVuSans-32" d="M 1228 531 
L 3431 531 
L 3431 0 
L 469 0 
L 469 531 
Q 828 903 1448 1529 
Q 2069 2156 2228 2338 
Q 2531 2678 2651 2914 
Q 2772 3150 2772 3378 
Q 2772 3750 2511 3984 
Q 2250 4219 1831 4219 
Q 1534 4219 1204 4116 
Q 875 4013 500 3803 
L 500 4441 
Q 881 4594 1212 4672 
Q 1544 4750 1819 4750 
Q 2544 4750 2975 4387 
Q 3406 4025 3406 3419 
Q 3406 3131 3298 2873 
Q 3191 2616 2906 2266 
Q 2828 2175 2409 1742 
Q 1991 1309 1228 531 
z
" transform="scale(0.015625)"/>
       </defs>
       <use xlink:href="#DejaVuSans-32"/>
       <use xlink:href="#DejaVuSans-30" transform="translate(63.623047 0)"/>
      </g>
     </g>
    </g>
    <g id="xtick_4">
     <g id="line2d_7">
      <path d="M 382.342612 244.48 
L 382.342612 27 
" clip-path="url(#p847f6db25b)" style="fill: none; stroke: #b0b0b0; stroke-opacity: 0.25; stroke-width: 0.8; stroke-linecap: square"/>
     </g>
     <g id="line2d_8">
      <g>
       <use xlink:href="#m6ff635b303" x="382.342612" y="244.48" style="stroke: #000000; stroke-width: 0.8"/>
      </g>
     </g>
     <g id="text_4">
      <!-- 30 -->
      <g transform="translate(375.980112 259.078438) scale(0.1 -0.1)">
       <defs>
        <path id="DejaVuSans-33" d="M 2597 2516 
Q 3050 2419 3304 2112 
Q 3559 1806 3559 1356 
Q 3559 666 3084 287 
Q 2609 -91 1734 -91 
Q 1441 -91 1130 -33 
Q 819 25 488 141 
L 488 750 
Q 750 597 1062 519 
Q 1375 441 1716 441 
Q 2309 441 2620 675 
Q 2931 909 2931 1356 
Q 2931 1769 2642 2001 
Q 2353 2234 1838 2234 
L 1294 2234 
L 1294 2753 
L 1863 2753 
Q 2328 2753 2575 2939 
Q 2822 3125 2822 3475 
Q 2822 3834 2567 4026 
Q 2313 4219 1838 4219 
Q 1578 4219 1281 4162 
Q 984 4106 628 3988 
L 628 4550 
Q 988 4650 1302 4700 
Q 1616 4750 1894 4750 
Q 2613 4750 3031 4423 
Q 3450 4097 3450 3541 
Q 3450 3153 3228 2886 
Q 3006 2619 2597 2516 
z
" transform="scale(0.015625)"/>
       </defs>
       <use xlink:href="#DejaVuSans-33"/>
       <use xlink:href="#DejaVuSans-30" transform="translate(63.623047 0)"/>
      </g>
     </g>
    </g>
    <g id="xtick_5">
     <g id="line2d_9">
      <path d="M 485.477055 244.48 
L 485.477055 27 
" clip-path="url(#p847f6db25b)" style="fill: none; stroke: #b0b0b0; stroke-opacity: 0.25; stroke-width: 0.8; stroke-linecap: square"/>
     </g>
     <g id="line2d_10">
      <g>
       <use xlink:href="#m6ff635b303" x="485.477055" y="244.48" style="stroke: #000000; stroke-width: 0.8"/>
      </g>
     </g>
     <g id="text_5">
      <!-- 40 -->
      <g transform="translate(479.114555 259.078438) scale(0.1 -0.1)">
       <defs>
        <path id="DejaVuSans-34" d="M 2419 4116 
L 825 1625 
L 2419 1625 
L 2419 4116 
z
M 2253 4666 
L 3047 4666 
L 3047 1625 
L 3713 1625 
L 3713 1100 
L 3047 1100 
L 3047 0 
L 2419 0 
L 2419 1100 
L 313 1100 
L 313 1709 
L 2253 4666 
z
" transform="scale(0.015625)"/>
       </defs>
       <use xlink:href="#DejaVuSans-34"/>
       <use xlink:href="#DejaVuSans-30" transform="translate(63.623047 0)"/>
      </g>
     </g>
    </g>
    <g id="xtick_6">
     <g id="line2d_11">
      <path d="M 588.611498 244.48 
L 588.611498 27 
" clip-path="url(#p847f6db25b)" style="fill: none; stroke: #b0b0b0; stroke-opacity: 0.25; stroke-width: 0.8; stroke-linecap: square"/>
     </g>
     <g id="line2d_12">
      <g>
       <use xlink:href="#m6ff635b303" x="588.611498" y="244.48" style="stroke: #000000; stroke-width: 0.8"/>
      </g>
     </g>
     <g id="text_6">
      <!-- 50 -->
      <g transform="translate(582.248998 259.078438) scale(0.1 -0.1)">
       <defs>
        <path id="DejaVuSans-35" d="M 691 4666 
L 3169 4666 
L 3169 4134 
L 1269 4134 
L 1269 2991 
Q 1406 3038 1543 3061 
Q 1681 3084 1819 3084 
Q 2600 3084 3056 2656 
Q 3513 2228 3513 1497 
Q 3513 744 3044 326 
Q 2575 -91 1722 -91 
Q 1428 -91 1123 -41 
Q 819 9 494 109 
L 494 744 
Q 775 591 1075 516 
Q 1375 441 1709 441 
Q 2250 441 2565 725 
Q 2881 1009 2881 1497 
Q 2881 1984 2565 2268 
Q 2250 2553 1709 2553 
Q 1456 2553 1204 2497 
Q 953 2441 691 2322 
L 691 4666 
z
" transform="scale(0.015625)"/>
       </defs>
       <use xlink:href="#DejaVuSans-35"/>
       <use xlink:href="#DejaVuSans-30" transform="translate(63.623047 0)"/>
      </g>
     </g>
    </g>
    <g id="xtick_7">
     <g id="line2d_13">
      <path d="M 691.745941 244.48 
L 691.745941 27 
" clip-path="url(#p847f6db25b)" style="fill: none; stroke: #b0b0b0; stroke-opacity: 0.25; stroke-width: 0.8; stroke-linecap: square"/>
     </g>
     <g id="line2d_14">
      <g>
       <use xlink:href="#m6ff635b303" x="691.745941" y="244.48" style="stroke: #000000; stroke-width: 0.8"/>
      </g>
     </g>
     <g id="text_7">
      <!-- 60 -->
      <g transform="translate(685.383441 259.078438) scale(0.1 -0.1)">
       <defs>
        <path id="DejaVuSans-36" d="M 2113 2584 
Q 1688 2584 1439 2293 
Q 1191 2003 1191 1497 
Q 1191 994 1439 701 
Q 1688 409 2113 409 
Q 2538 409 2786 701 
Q 3034 994 3034 1497 
Q 3034 2003 2786 2293 
Q 2538 2584 2113 2584 
z
M 3366 4563 
L 3366 3988 
Q 3128 4100 2886 4159 
Q 2644 4219 2406 4219 
Q 1781 4219 1451 3797 
Q 1122 3375 1075 2522 
Q 1259 2794 1537 2939 
Q 1816 3084 2150 3084 
Q 2853 3084 3261 2657 
Q 3669 2231 3669 1497 
Q 3669 778 3244 343 
Q 2819 -91 2113 -91 
Q 1303 -91 875 529 
Q 447 1150 447 2328 
Q 447 3434 972 4092 
Q 1497 4750 2381 4750 
Q 2619 4750 2861 4703 
Q 3103 4656 3366 4563 
z
" transform="scale(0.015625)"/>
       </defs>
       <use xlink:href="#DejaVuSans-36"/>
       <use xlink:href="#DejaVuSans-30" transform="translate(63.623047 0)"/>
      </g>
     </g>
    </g>
    <g id="xtick_8">
     <g id="line2d_15">
      <path d="M 794.880384 244.48 
L 794.880384 27 
" clip-path="url(#p847f6db25b)" style="fill: none; stroke: #b0b0b0; stroke-opacity: 0.25; stroke-width: 0.8; stroke-linecap: square"/>
     </g>
     <g id="line2d_16">
      <g>
       <use xlink:href="#m6ff635b303" x="794.880384" y="244.48" style="stroke: #000000; stroke-width: 0.8"/>
      </g>
     </g>
     <g id="text_8">
      <!-- 70 -->
      <g transform="translate(788.517884 259.078438) scale(0.1 -0.1)">
       <defs>
        <path id="DejaVuSans-37" d="M 525 4666 
L 3525 4666 
L 3525 4397 
L 1831 0 
L 1172 0 
L 2766 4134 
L 525 4134 
L 525 4666 
z
" transform="scale(0.015625)"/>
       </defs>
       <use xlink:href="#DejaVuSans-37"/>
       <use xlink:href="#DejaVuSans-30" transform="translate(63.623047 0)"/>
      </g>
     </g>
    </g>
    <g id="text_9">
     <!-- Input -->
     <g transform="translate(435.138438 273.516406) scale(0.11 -0.11)">
      <defs>
       <path id="DejaVuSans-49" d="M 628 4666 
L 1259 4666 
L 1259 0 
L 628 0 
L 628 4666 
z
" transform="scale(0.015625)"/>
       <path id="DejaVuSans-6e" d="M 3513 2113 
L 3513 0 
L 2938 0 
L 2938 2094 
Q 2938 2591 2744 2837 
Q 2550 3084 2163 3084 
Q 1697 3084 1428 2787 
Q 1159 2491 1159 1978 
L 1159 0 
L 581 0 
L 581 3500 
L 1159 3500 
L 1159 2956 
Q 1366 3272 1645 3428 
Q 1925 3584 2291 3584 
Q 2894 3584 3203 3211 
Q 3513 2838 3513 2113 
z
" transform="scale(0.015625)"/>
       <path id="DejaVuSans-70" d="M 1159 525 
L 1159 -1331 
L 581 -1331 
L 581 3500 
L 1159 3500 
L 1159 2969 
Q 1341 3281 1617 3432 
Q 1894 3584 2278 3584 
Q 2916 3584 3314 3078 
Q 3713 2572 3713 1747 
Q 3713 922 3314 415 
Q 2916 -91 2278 -91 
Q 1894 -91 1617 61 
Q 1341 213 1159 525 
z
M 3116 1747 
Q 3116 2381 2855 2742 
Q 2594 3103 2138 3103 
Q 1681 3103 1420 2742 
Q 1159 2381 1159 1747 
Q 1159 1113 1420 752 
Q 1681 391 2138 391 
Q 2594 391 2855 752 
Q 3116 1113 3116 1747 
z
" transform="scale(0.015625)"/>
       <path id="DejaVuSans-75" d="M 544 1381 
L 544 3500 
L 1119 3500 
L 1119 1403 
Q 1119 906 1312 657 
Q 1506 409 1894 409 
Q 2359 409 2629 706 
Q 2900 1003 2900 1516 
L 2900 3500 
L 3475 3500 
L 3475 0 
L 2900 0 
L 2900 538 
Q 2691 219 2414 64 
Q 2138 -91 1772 -91 
Q 1169 -91 856 284 
Q 544 659 544 1381 
z
M 1991 3584 
L 1991 3584 
z
" transform="scale(0.015625)"/>
       <path id="DejaVuSans-74" d="M 1172 4494 
L 1172 3500 
L 2356 3500 
L 2356 3053 
L 1172 3053 
L 1172 1153 
Q 1172 725 1289 603 
Q 1406 481 1766 481 
L 2356 481 
L 2356 0 
L 1766 0 
Q 1100 0 847 248 
Q 594 497 594 1153 
L 594 3053 
L 172 3053 
L 172 3500 
L 594 3500 
L 594 4494 
L 1172 4494 
z
" transform="scale(0.015625)"/>
      </defs>
      <use xlink:href="#DejaVuSans-49"/>
      <use xlink:href="#DejaVuSans-6e" transform="translate(29.492188 0)"/>
      <use xlink:href="#DejaVuSans-70" transform="translate(92.871094 0)"/>
      <use xlink:href="#DejaVuSans-75" transform="translate(156.347656 0)"/>
      <use xlink:href="#DejaVuSans-74" transform="translate(219.726562 0)"/>
     </g>
    </g>
   </g>
   <g id="matplotlib.axis_2">
    <g id="ytick_1">
     <g id="line2d_17">
      <path d="M 46.64 234.594545 
L 852.12 234.594545 
" clip-path="url(#p847f6db25b)" style="fill: none; stroke: #b0b0b0; stroke-opacity: 0.25; stroke-width: 0.8; stroke-linecap: square"/>
     </g>
     <g id="line2d_18">
      <defs>
       <path id="m01cf2e0c99" d="M 0 0 
L -3.5 0 
" style="stroke: #000000; stroke-width: 0.8"/>
      </defs>
      <g>
       <use xlink:href="#m01cf2e0c99" x="46.64" y="234.594545" style="stroke: #000000; stroke-width: 0.8"/>
      </g>
     </g>
     <g id="text_10">
      <!-- 0 -->
      <g transform="translate(33.2775 238.393764) scale(0.1 -0.1)">
       <use xlink:href="#DejaVuSans-30"/>
      </g>
     </g>
    </g>
    <g id="ytick_2">
     <g id="line2d_19">
      <path d="M 46.64 201.727389 
L 852.12 201.727389 
" clip-path="url(#p847f6db25b)" style="fill: none; stroke: #b0b0b0; stroke-opacity: 0.25; stroke-width: 0.8; stroke-linecap: square"/>
     </g>
     <g id="line2d_20">
      <g>
       <use xlink:href="#m01cf2e0c99" x="46.64" y="201.727389" style="stroke: #000000; stroke-width: 0.8"/>
      </g>
     </g>
     <g id="text_11">
      <!-- 5 -->
      <g transform="translate(33.2775 205.526608) scale(0.1 -0.1)">
       <use xlink:href="#DejaVuSans-35"/>
      </g>
     </g>
    </g>
    <g id="ytick_3">
     <g id="line2d_21">
      <path d="M 46.64 168.860233 
L 852.12 168.860233 
" clip-path="url(#p847f6db25b)" style="fill: none; stroke: #b0b0b0; stroke-opacity: 0.25; stroke-width: 0.8; stroke-linecap: square"/>
     </g>
     <g id="line2d_22">
      <g>
       <use xlink:href="#m01cf2e0c99" x="46.64" y="168.860233" style="stroke: #000000; stroke-width: 0.8"/>
      </g>
     </g>
     <g id="text_12">
      <!-- 10 -->
      <g transform="translate(26.915 172.659452) scale(0.1 -0.1)">
       <use xlink:href="#DejaVuSans-31"/>
       <use xlink:href="#DejaVuSans-30" transform="translate(63.623047 0)"/>
      </g>
     </g>
    </g>
    <g id="ytick_4">
     <g id="line2d_23">
      <path d="M 46.64 135.993077 
L 852.12 135.993077 
" clip-path="url(#p847f6db25b)" style="fill: none; stroke: #b0b0b0; stroke-opacity: 0.25; stroke-width: 0.8; stroke-linecap: square"/>
     </g>
     <g id="line2d_24">
      <g>
       <use xlink:href="#m01cf2e0c99" x="46.64" y="135.993077" style="stroke: #000000; stroke-width: 0.8"/>
      </g>
     </g>
     <g id="text_13">
      <!-- 15 -->
      <g transform="translate(26.915 139.792296) scale(0.1 -0.1)">
       <use xlink:href="#DejaVuSans-31"/>
       <use xlink:href="#DejaVuSans-35" transform="translate(63.623047 0)"/>
      </g>
     </g>
    </g>
    <g id="ytick_5">
     <g id="line2d_25">
      <path d="M 46.64 103.125921 
L 852.12 103.125921 
" clip-path="url(#p847f6db25b)" style="fill: none; stroke: #b0b0b0; stroke-opacity: 0.25; stroke-width: 0.8; stroke-linecap: square"/>
     </g>
     <g id="line2d_26">
      <g>
       <use xlink:href="#m01cf2e0c99" x="46.64" y="103.125921" style="stroke: #000000; stroke-width: 0.8"/>
      </g>
     </g>
     <g id="text_14">
      <!-- 20 -->
      <g transform="translate(26.915 106.92514) scale(0.1 -0.1)">
       <use xlink:href="#DejaVuSans-32"/>
       <use xlink:href="#DejaVuSans-30" transform="translate(63.623047 0)"/>
      </g>
     </g>
    </g>
    <g id="ytick_6">
     <g id="line2d_27">
      <path d="M 46.64 70.258765 
L 852.12 70.258765 
" clip-path="url(#p847f6db25b)" style="fill: none; stroke: #b0b0b0; stroke-opacity: 0.25; stroke-width: 0.8; stroke-linecap: square"/>
     </g>
     <g id="line2d_28">
      <g>
       <use xlink:href="#m01cf2e0c99" x="46.64" y="70.258765" style="stroke: #000000; stroke-width: 0.8"/>
      </g>
     </g>
     <g id="text_15">
      <!-- 25 -->
      <g transform="translate(26.915 74.057984) scale(0.1 -0.1)">
       <use xlink:href="#DejaVuSans-32"/>
       <use xlink:href="#DejaVuSans-35" transform="translate(63.623047 0)"/>
      </g>
     </g>
    </g>
    <g id="ytick_7">
     <g id="line2d_29">
      <path d="M 46.64 37.391609 
L 852.12 37.391609 
" clip-path="url(#p847f6db25b)" style="fill: none; stroke: #b0b0b0; stroke-opacity: 0.25; stroke-width: 0.8; stroke-linecap: square"/>
     </g>
     <g id="line2d_30">
      <g>
       <use xlink:href="#m01cf2e0c99" x="46.64" y="37.391609" style="stroke: #000000; stroke-width: 0.8"/>
      </g>
     </g>
     <g id="text_16">
      <!-- 30 -->
      <g transform="translate(26.915 41.190827) scale(0.1 -0.1)">
       <use xlink:href="#DejaVuSans-33"/>
       <use xlink:href="#DejaVuSans-30" transform="translate(63.623047 0)"/>
      </g>
     </g>
    </g>
    <g id="text_17">
     <!-- Time (s) -->
     <g transform="translate(20.627344 158.101797) rotate(-90) scale(0.11 -0.11)">
      <defs>
       <path id="DejaVuSans-54" d="M -19 4666 
L 3928 4666 
L 3928 4134 
L 2272 4134 
L 2272 0 
L 1638 0 
L 1638 4134 
L -19 4134 
L -19 4666 
z
" transform="scale(0.015625)"/>
       <path id="DejaVuSans-69" d="M 603 3500 
L 1178 3500 
L 1178 0 
L 603 0 
L 603 3500 
z
M 603 4863 
L 1178 4863 
L 1178 4134 
L 603 4134 
L 603 4863 
z
" transform="scale(0.015625)"/>
       <path id="DejaVuSans-6d" d="M 3328 2828 
Q 3544 3216 3844 3400 
Q 4144 3584 4550 3584 
Q 5097 3584 5394 3201 
Q 5691 2819 5691 2113 
L 5691 0 
L 5113 0 
L 5113 2094 
Q 5113 2597 4934 2840 
Q 4756 3084 4391 3084 
Q 3944 3084 3684 2787 
Q 3425 2491 3425 1978 
L 3425 0 
L 2847 0 
L 2847 2094 
Q 2847 2600 2669 2842 
Q 2491 3084 2119 3084 
Q 1678 3084 1418 2786 
Q 1159 2488 1159 1978 
L 1159 0 
L 581 0 
L 581 3500 
L 1159 3500 
L 1159 2956 
Q 1356 3278 1631 3431 
Q 1906 3584 2284 3584 
Q 2666 3584 2933 3390 
Q 3200 3197 3328 2828 
z
" transform="scale(0.015625)"/>
       <path id="DejaVuSans-65" d="M 3597 1894 
L 3597 1613 
L 953 1613 
Q 991 1019 1311 708 
Q 1631 397 2203 397 
Q 2534 397 2845 478 
Q 3156 559 3463 722 
L 3463 178 
Q 3153 47 2828 -22 
Q 2503 -91 2169 -91 
Q 1331 -91 842 396 
Q 353 884 353 1716 
Q 353 2575 817 3079 
Q 1281 3584 2069 3584 
Q 2775 3584 3186 3129 
Q 3597 2675 3597 1894 
z
M 3022 2063 
Q 3016 2534 2758 2815 
Q 2500 3097 2075 3097 
Q 1594 3097 1305 2825 
Q 1016 2553 972 2059 
L 3022 2063 
z
" transform="scale(0.015625)"/>
       <path id="DejaVuSans-20" transform="scale(0.015625)"/>
       <path id="DejaVuSans-28" d="M 1984 4856 
Q 1566 4138 1362 3434 
Q 1159 2731 1159 2009 
Q 1159 1288 1364 580 
Q 1569 -128 1984 -844 
L 1484 -844 
Q 1016 -109 783 600 
Q 550 1309 550 2009 
Q 550 2706 781 3412 
Q 1013 4119 1484 4856 
L 1984 4856 
z
" transform="scale(0.015625)"/>
       <path id="DejaVuSans-73" d="M 2834 3397 
L 2834 2853 
Q 2591 2978 2328 3040 
Q 2066 3103 1784 3103 
Q 1356 3103 1142 2972 
Q 928 2841 928 2578 
Q 928 2378 1081 2264 
Q 1234 2150 1697 2047 
L 1894 2003 
Q 2506 1872 2764 1633 
Q 3022 1394 3022 966 
Q 3022 478 2636 193 
Q 2250 -91 1575 -91 
Q 1294 -91 989 -36 
Q 684 19 347 128 
L 347 722 
Q 666 556 975 473 
Q 1284 391 1588 391 
Q 1994 391 2212 530 
Q 2431 669 2431 922 
Q 2431 1156 2273 1281 
Q 2116 1406 1581 1522 
L 1381 1569 
Q 847 1681 609 1914 
Q 372 2147 372 2553 
Q 372 3047 722 3315 
Q 1072 3584 1716 3584 
Q 2034 3584 2315 3537 
Q 2597 3491 2834 3397 
z
" transform="scale(0.015625)"/>
       <path id="DejaVuSans-29" d="M 513 4856 
L 1013 4856 
Q 1481 4119 1714 3412 
Q 1947 2706 1947 2009 
Q 1947 1309 1714 600 
Q 1481 -109 1013 -844 
L 513 -844 
Q 928 -128 1133 580 
Q 1338 1288 1338 2009 
Q 1338 2731 1133 3434 
Q 928 4138 513 4856 
z
" transform="scale(0.015625)"/>
      </defs>
      <use xlink:href="#DejaVuSans-54"/>
      <use xlink:href="#DejaVuSans-69" transform="translate(57.958984 0)"/>
      <use xlink:href="#DejaVuSans-6d" transform="translate(85.742188 0)"/>
      <use xlink:href="#DejaVuSans-65" transform="translate(183.154297 0)"/>
      <use xlink:href="#DejaVuSans-20" transform="translate(244.677734 0)"/>
      <use xlink:href="#DejaVuSans-28" transform="translate(276.464844 0)"/>
      <use xlink:href="#DejaVuSans-73" transform="translate(315.478516 0)"/>
      <use xlink:href="#DejaVuSans-29" transform="translate(367.578125 0)"/>
     </g>
    </g>
   </g>
   <g id="patch_3">
    <path d="M 46.64 244.48 
L 46.64 27 
" style="fill: none; stroke: #000000; stroke-width: 0.8; stroke-linejoin: miter; stroke-linecap: square"/>
   </g>
   <g id="patch_4">
    <path d="M 852.12 244.48 
L 852.12 27 
" style="fill: none; stroke: #000000; stroke-width: 0.8; stroke-linejoin: miter; stroke-linecap: square"/>
   </g>
   <g id="patch_5">
    <path d="M 46.64 244.48 
L 852.12 244.48 
" style="fill: none; stroke: #000000; stroke-width: 0.8; stroke-linejoin: miter; stroke-linecap: square"/>
   </g>
   <g id="patch_6">
    <path d="M 46.64 27 
L 852.12 27 
" style="fill: none; stroke: #000000; stroke-width: 0.8; stroke-linejoin: miter; stroke-linecap: square"/>
   </g>
   <g id="text_18">
    <!-- SHA2 Chain  prove subphases (32-reg) -->
    <g transform="translate(327.12625 21) scale(0.12 -0.12)">
     <defs>
      <path id="DejaVuSans-53" d="M 3425 4513 
L 3425 3897 
Q 3066 4069 2747 4153 
Q 2428 4238 2131 4238 
Q 1616 4238 1336 4038 
Q 1056 3838 1056 3469 
Q 1056 3159 1242 3001 
Q 1428 2844 1947 2747 
L 2328 2669 
Q 3034 2534 3370 2195 
Q 3706 1856 3706 1288 
Q 3706 609 3251 259 
Q 2797 -91 1919 -91 
Q 1588 -91 1214 -16 
Q 841 59 441 206 
L 441 856 
Q 825 641 1194 531 
Q 1563 422 1919 422 
Q 2459 422 2753 634 
Q 3047 847 3047 1241 
Q 3047 1584 2836 1778 
Q 2625 1972 2144 2069 
L 1759 2144 
Q 1053 2284 737 2584 
Q 422 2884 422 3419 
Q 422 4038 858 4394 
Q 1294 4750 2059 4750 
Q 2388 4750 2728 4690 
Q 3069 4631 3425 4513 
z
" transform="scale(0.015625)"/>
      <path id="DejaVuSans-48" d="M 628 4666 
L 1259 4666 
L 1259 2753 
L 3553 2753 
L 3553 4666 
L 4184 4666 
L 4184 0 
L 3553 0 
L 3553 2222 
L 1259 2222 
L 1259 0 
L 628 0 
L 628 4666 
z
" transform="scale(0.015625)"/>
      <path id="DejaVuSans-41" d="M 2188 4044 
L 1331 1722 
L 3047 1722 
L 2188 4044 
z
M 1831 4666 
L 2547 4666 
L 4325 0 
L 3669 0 
L 3244 1197 
L 1141 1197 
L 716 0 
L 50 0 
L 1831 4666 
z
" transform="scale(0.015625)"/>
      <path id="DejaVuSans-43" d="M 4122 4306 
L 4122 3641 
Q 3803 3938 3442 4084 
Q 3081 4231 2675 4231 
Q 1875 4231 1450 3742 
Q 1025 3253 1025 2328 
Q 1025 1406 1450 917 
Q 1875 428 2675 428 
Q 3081 428 3442 575 
Q 3803 722 4122 1019 
L 4122 359 
Q 3791 134 3420 21 
Q 3050 -91 2638 -91 
Q 1578 -91 968 557 
Q 359 1206 359 2328 
Q 359 3453 968 4101 
Q 1578 4750 2638 4750 
Q 3056 4750 3426 4639 
Q 3797 4528 4122 4306 
z
" transform="scale(0.015625)"/>
      <path id="DejaVuSans-68" d="M 3513 2113 
L 3513 0 
L 2938 0 
L 2938 2094 
Q 2938 2591 2744 2837 
Q 2550 3084 2163 3084 
Q 1697 3084 1428 2787 
Q 1159 2491 1159 1978 
L 1159 0 
L 581 0 
L 581 4863 
L 1159 4863 
L 1159 2956 
Q 1366 3272 1645 3428 
Q 1925 3584 2291 3584 
Q 2894 3584 3203 3211 
Q 3513 2838 3513 2113 
z
" transform="scale(0.015625)"/>
      <path id="DejaVuSans-61" d="M 2194 1759 
Q 1497 1759 1228 1600 
Q 959 1441 959 1056 
Q 959 750 1161 570 
Q 1363 391 1709 391 
Q 2188 391 2477 730 
Q 2766 1069 2766 1631 
L 2766 1759 
L 2194 1759 
z
M 3341 1997 
L 3341 0 
L 2766 0 
L 2766 531 
Q 2569 213 2275 61 
Q 1981 -91 1556 -91 
Q 1019 -91 701 211 
Q 384 513 384 1019 
Q 384 1609 779 1909 
Q 1175 2209 1959 2209 
L 2766 2209 
L 2766 2266 
Q 2766 2663 2505 2880 
Q 2244 3097 1772 3097 
Q 1472 3097 1187 3025 
Q 903 2953 641 2809 
L 641 3341 
Q 956 3463 1253 3523 
Q 1550 3584 1831 3584 
Q 2591 3584 2966 3190 
Q 3341 2797 3341 1997 
z
" transform="scale(0.015625)"/>
      <path id="DejaVuSans-2014" d="M 313 1978 
L 6088 1978 
L 6088 1528 
L 313 1528 
L 313 1978 
z
" transform="scale(0.015625)"/>
      <path id="DejaVuSans-72" d="M 2631 2963 
Q 2534 3019 2420 3045 
Q 2306 3072 2169 3072 
Q 1681 3072 1420 2755 
Q 1159 2438 1159 1844 
L 1159 0 
L 581 0 
L 581 3500 
L 1159 3500 
L 1159 2956 
Q 1341 3275 1631 3429 
Q 1922 3584 2338 3584 
Q 2397 3584 2469 3576 
Q 2541 3569 2628 3553 
L 2631 2963 
z
" transform="scale(0.015625)"/>
      <path id="DejaVuSans-6f" d="M 1959 3097 
Q 1497 3097 1228 2736 
Q 959 2375 959 1747 
Q 959 1119 1226 758 
Q 1494 397 1959 397 
Q 2419 397 2687 759 
Q 2956 1122 2956 1747 
Q 2956 2369 2687 2733 
Q 2419 3097 1959 3097 
z
M 1959 3584 
Q 2709 3584 3137 3096 
Q 3566 2609 3566 1747 
Q 3566 888 3137 398 
Q 2709 -91 1959 -91 
Q 1206 -91 779 398 
Q 353 888 353 1747 
Q 353 2609 779 3096 
Q 1206 3584 1959 3584 
z
" transform="scale(0.015625)"/>
      <path id="DejaVuSans-76" d="M 191 3500 
L 800 3500 
L 1894 563 
L 2988 3500 
L 3597 3500 
L 2284 0 
L 1503 0 
L 191 3500 
z
" transform="scale(0.015625)"/>
      <path id="DejaVuSans-62" d="M 3116 1747 
Q 3116 2381 2855 2742 
Q 2594 3103 2138 3103 
Q 1681 3103 1420 2742 
Q 1159 2381 1159 1747 
Q 1159 1113 1420 752 
Q 1681 391 2138 391 
Q 2594 391 2855 752 
Q 3116 1113 3116 1747 
z
M 1159 2969 
Q 1341 3281 1617 3432 
Q 1894 3584 2278 3584 
Q 2916 3584 3314 3078 
Q 3713 2572 3713 1747 
Q 3713 922 3314 415 
Q 2916 -91 2278 -91 
Q 1894 -91 1617 61 
Q 1341 213 1159 525 
L 1159 0 
L 581 0 
L 581 4863 
L 1159 4863 
L 1159 2969 
z
" transform="scale(0.015625)"/>
      <path id="DejaVuSans-2d" d="M 313 2009 
L 1997 2009 
L 1997 1497 
L 313 1497 
L 313 2009 
z
" transform="scale(0.015625)"/>
      <path id="DejaVuSans-67" d="M 2906 1791 
Q 2906 2416 2648 2759 
Q 2391 3103 1925 3103 
Q 1463 3103 1205 2759 
Q 947 2416 947 1791 
Q 947 1169 1205 825 
Q 1463 481 1925 481 
Q 2391 481 2648 825 
Q 2906 1169 2906 1791 
z
M 3481 434 
Q 3481 -459 3084 -895 
Q 2688 -1331 1869 -1331 
Q 1566 -1331 1297 -1286 
Q 1028 -1241 775 -1147 
L 775 -588 
Q 1028 -725 1275 -790 
Q 1522 -856 1778 -856 
Q 2344 -856 2625 -561 
Q 2906 -266 2906 331 
L 2906 616 
Q 2728 306 2450 153 
Q 2172 0 1784 0 
Q 1141 0 747 490 
Q 353 981 353 1791 
Q 353 2603 747 3093 
Q 1141 3584 1784 3584 
Q 2172 3584 2450 3431 
Q 2728 3278 2906 2969 
L 2906 3500 
L 3481 3500 
L 3481 434 
z
" transform="scale(0.015625)"/>
     </defs>
     <use xlink:href="#DejaVuSans-53"/>
     <use xlink:href="#DejaVuSans-48" transform="translate(63.476562 0)"/>
     <use xlink:href="#DejaVuSans-41" transform="translate(138.671875 0)"/>
     <use xlink:href="#DejaVuSans-32" transform="translate(207.080078 0)"/>
     <use xlink:href="#DejaVuSans-20" transform="translate(270.703125 0)"/>
     <use xlink:href="#DejaVuSans-43" transform="translate(302.490234 0)"/>
     <use xlink:href="#DejaVuSans-68" transform="translate(372.314453 0)"/>
     <use xlink:href="#DejaVuSans-61" transform="translate(435.693359 0)"/>
     <use xlink:href="#DejaVuSans-69" transform="translate(496.972656 0)"/>
     <use xlink:href="#DejaVuSans-6e" transform="translate(524.755859 0)"/>
     <use xlink:href="#DejaVuSans-20" transform="translate(588.134766 0)"/>
     <use xlink:href="#DejaVuSans-2014" transform="translate(619.921875 0)"/>
     <use xlink:href="#DejaVuSans-20" transform="translate(719.921875 0)"/>
     <use xlink:href="#DejaVuSans-70" transform="translate(751.708984 0)"/>
     <use xlink:href="#DejaVuSans-72" transform="translate(815.185547 0)"/>
     <use xlink:href="#DejaVuSans-6f" transform="translate(854.048828 0)"/>
     <use xlink:href="#DejaVuSans-76" transform="translate(915.230469 0)"/>
     <use xlink:href="#DejaVuSans-65" transform="translate(974.410156 0)"/>
     <use xlink:href="#DejaVuSans-20" transform="translate(1035.933594 0)"/>
     <use xlink:href="#DejaVuSans-73" transform="translate(1067.720703 0)"/>
     <use xlink:href="#DejaVuSans-75" transform="translate(1119.820312 0)"/>
     <use xlink:href="#DejaVuSans-62" transform="translate(1183.199219 0)"/>
     <use xlink:href="#DejaVuSans-70" transform="translate(1246.675781 0)"/>
     <use xlink:href="#DejaVuSans-68" transform="translate(1310.152344 0)"/>
     <use xlink:href="#DejaVuSans-61" transform="translate(1373.53125 0)"/>
     <use xlink:href="#DejaVuSans-73" transform="translate(1434.810547 0)"/>
     <use xlink:href="#DejaVuSans-65" transform="translate(1486.910156 0)"/>
     <use xlink:href="#DejaVuSans-73" transform="translate(1548.433594 0)"/>
     <use xlink:href="#DejaVuSans-20" transform="translate(1600.533203 0)"/>
     <use xlink:href="#DejaVuSans-28" transform="translate(1632.320312 0)"/>
     <use xlink:href="#DejaVuSans-33" transform="translate(1671.333984 0)"/>
     <use xlink:href="#DejaVuSans-32" transform="translate(1734.957031 0)"/>
     <use xlink:href="#DejaVuSans-2d" transform="translate(1798.580078 0)"/>
     <use xlink:href="#DejaVuSans-72" transform="translate(1834.664062 0)"/>
     <use xlink:href="#DejaVuSans-65" transform="translate(1873.527344 0)"/>
     <use xlink:href="#DejaVuSans-67" transform="translate(1935.050781 0)"/>
     <use xlink:href="#DejaVuSans-29" transform="translate(1998.527344 0)"/>
    </g>
   </g>
   <g id="legend_1">
    <g id="patch_7">
     <path d="M 55.64 43.598438 
L 75.64 43.598438 
L 75.64 36.598438 
L 55.64 36.598438 
z
" style="fill: #1f77b4; fill-opacity: 0.7"/>
    </g>
    <g id="text_19">
     <!-- bytecode -->
     <g transform="translate(83.64 43.598438) scale(0.1 -0.1)">
      <defs>
       <path id="DejaVuSans-79" d="M 2059 -325 
Q 1816 -950 1584 -1140 
Q 1353 -1331 966 -1331 
L 506 -1331 
L 506 -850 
L 844 -850 
Q 1081 -850 1212 -737 
Q 1344 -625 1503 -206 
L 1606 56 
L 191 3500 
L 800 3500 
L 1894 763 
L 2988 3500 
L 3597 3500 
L 2059 -325 
z
" transform="scale(0.015625)"/>
       <path id="DejaVuSans-63" d="M 3122 3366 
L 3122 2828 
Q 2878 2963 2633 3030 
Q 2388 3097 2138 3097 
Q 1578 3097 1268 2742 
Q 959 2388 959 1747 
Q 959 1106 1268 751 
Q 1578 397 2138 397 
Q 2388 397 2633 464 
Q 2878 531 3122 666 
L 3122 134 
Q 2881 22 2623 -34 
Q 2366 -91 2075 -91 
Q 1284 -91 818 406 
Q 353 903 353 1747 
Q 353 2603 823 3093 
Q 1294 3584 2113 3584 
Q 2378 3584 2631 3529 
Q 2884 3475 3122 3366 
z
" transform="scale(0.015625)"/>
       <path id="DejaVuSans-64" d="M 2906 2969 
L 2906 4863 
L 3481 4863 
L 3481 0 
L 2906 0 
L 2906 525 
Q 2725 213 2448 61 
Q 2172 -91 1784 -91 
Q 1150 -91 751 415 
Q 353 922 353 1747 
Q 353 2572 751 3078 
Q 1150 3584 1784 3584 
Q 2172 3584 2448 3432 
Q 2725 3281 2906 2969 
z
M 947 1747 
Q 947 1113 1208 752 
Q 1469 391 1925 391 
Q 2381 391 2643 752 
Q 2906 1113 2906 1747 
Q 2906 2381 2643 2742 
Q 2381 3103 1925 3103 
Q 1469 3103 1208 2742 
Q 947 2381 947 1747 
z
" transform="scale(0.015625)"/>
      </defs>
      <use xlink:href="#DejaVuSans-62"/>
      <use xlink:href="#DejaVuSans-79" transform="translate(63.476562 0)"/>
      <use xlink:href="#DejaVuSans-74" transform="translate(122.65625 0)"/>
      <use xlink:href="#DejaVuSans-65" transform="translate(161.865234 0)"/>
      <use xlink:href="#DejaVuSans-63" transform="translate(223.388672 0)"/>
      <use xlink:href="#DejaVuSans-6f" transform="translate(278.369141 0)"/>
      <use xlink:href="#DejaVuSans-64" transform="translate(339.550781 0)"/>
      <use xlink:href="#DejaVuSans-65" transform="translate(403.027344 0)"/>
     </g>
    </g>
    <g id="patch_8">
     <path d="M 55.64 58.276563 
L 75.64 58.276563 
L 75.64 51.276563 
L 55.64 51.276563 
z
" style="fill: #ff7f0e; fill-opacity: 0.7"/>
    </g>
    <g id="text_20">
     <!-- commit -->
     <g transform="translate(83.64 58.276563) scale(0.1 -0.1)">
      <use xlink:href="#DejaVuSans-63"/>
      <use xlink:href="#DejaVuSans-6f" transform="translate(54.980469 0)"/>
      <use xlink:href="#DejaVuSans-6d" transform="translate(116.162109 0)"/>
      <use xlink:href="#DejaVuSans-6d" transform="translate(213.574219 0)"/>
      <use xlink:href="#DejaVuSans-69" transform="translate(310.986328 0)"/>
      <use xlink:href="#DejaVuSans-74" transform="translate(338.769531 0)"/>
     </g>
    </g>
    <g id="patch_9">
     <path d="M 55.64 72.954688 
L 75.64 72.954688 
L 75.64 65.954688 
L 55.64 65.954688 
z
" style="fill: #2ca02c; fill-opacity: 0.7"/>
    </g>
    <g id="text_21">
     <!-- il -->
     <g transform="translate(83.64 72.954688) scale(0.1 -0.1)">
      <defs>
       <path id="DejaVuSans-6c" d="M 603 4863 
L 1178 4863 
L 1178 0 
L 603 0 
L 603 4863 
z
" transform="scale(0.015625)"/>
      </defs>
      <use xlink:href="#DejaVuSans-69"/>
      <use xlink:href="#DejaVuSans-6c" transform="translate(27.783203 0)"/>
     </g>
    </g>
    <g id="patch_10">
     <path d="M 55.64 87.632813 
L 75.64 87.632813 
L 75.64 80.632813 
L 55.64 80.632813 
z
" style="fill: #d62728; fill-opacity: 0.7"/>
    </g>
    <g id="text_22">
     <!-- il_wit -->
     <g transform="translate(83.64 87.632813) scale(0.1 -0.1)">
      <defs>
       <path id="DejaVuSans-5f" d="M 3263 -1063 
L 3263 -1509 
L -63 -1509 
L -63 -1063 
L 3263 -1063 
z
" transform="scale(0.015625)"/>
       <path id="DejaVuSans-77" d="M 269 3500 
L 844 3500 
L 1563 769 
L 2278 3500 
L 2956 3500 
L 3675 769 
L 4391 3500 
L 4966 3500 
L 4050 0 
L 3372 0 
L 2619 2869 
L 1863 0 
L 1184 0 
L 269 3500 
z
" transform="scale(0.015625)"/>
      </defs>
      <use xlink:href="#DejaVuSans-69"/>
      <use xlink:href="#DejaVuSans-6c" transform="translate(27.783203 0)"/>
      <use xlink:href="#DejaVuSans-5f" transform="translate(55.566406 0)"/>
      <use xlink:href="#DejaVuSans-77" transform="translate(105.566406 0)"/>
      <use xlink:href="#DejaVuSans-69" transform="translate(187.353516 0)"/>
      <use xlink:href="#DejaVuSans-74" transform="translate(215.136719 0)"/>
     </g>
    </g>
    <g id="patch_11">
     <path d="M 150.099375 43.598438 
L 170.099375 43.598438 
L 170.099375 36.598438 
L 150.099375 36.598438 
z
" style="fill: #9467bd; fill-opacity: 0.7"/>
    </g>
    <g id="text_23">
     <!-- openings -->
     <g transform="translate(178.099375 43.598438) scale(0.1 -0.1)">
      <use xlink:href="#DejaVuSans-6f"/>
      <use xlink:href="#DejaVuSans-70" transform="translate(61.181641 0)"/>
      <use xlink:href="#DejaVuSans-65" transform="translate(124.658203 0)"/>
      <use xlink:href="#DejaVuSans-6e" transform="translate(186.181641 0)"/>
      <use xlink:href="#DejaVuSans-69" transform="translate(249.560547 0)"/>
      <use xlink:href="#DejaVuSans-6e" transform="translate(277.34375 0)"/>
      <use xlink:href="#DejaVuSans-67" transform="translate(340.722656 0)"/>
      <use xlink:href="#DejaVuSans-73" transform="translate(404.199219 0)"/>
     </g>
    </g>
    <g id="patch_12">
     <path d="M 150.099375 58.276563 
L 170.099375 58.276563 
L 170.099375 51.276563 
L 150.099375 51.276563 
z
" style="fill: #8c564b; fill-opacity: 0.7"/>
    </g>
    <g id="text_24">
     <!-- preamble -->
     <g transform="translate(178.099375 58.276563) scale(0.1 -0.1)">
      <use xlink:href="#DejaVuSans-70"/>
      <use xlink:href="#DejaVuSans-72" transform="translate(63.476562 0)"/>
      <use xlink:href="#DejaVuSans-65" transform="translate(102.339844 0)"/>
      <use xlink:href="#DejaVuSans-61" transform="translate(163.863281 0)"/>
      <use xlink:href="#DejaVuSans-6d" transform="translate(225.142578 0)"/>
      <use xlink:href="#DejaVuSans-62" transform="translate(322.554688 0)"/>
      <use xlink:href="#DejaVuSans-6c" transform="translate(386.03125 0)"/>
      <use xlink:href="#DejaVuSans-65" transform="translate(413.814453 0)"/>
     </g>
    </g>
    <g id="patch_13">
     <path d="M 150.099375 72.954688 
L 170.099375 72.954688 
L 170.099375 65.954688 
L 150.099375 65.954688 
z
" style="fill: #e377c2; fill-opacity: 0.7"/>
    </g>
    <g id="text_25">
     <!-- r1cs_aux -->
     <g transform="translate(178.099375 72.954688) scale(0.1 -0.1)">
      <defs>
       <path id="DejaVuSans-78" d="M 3513 3500 
L 2247 1797 
L 3578 0 
L 2900 0 
L 1881 1375 
L 863 0 
L 184 0 
L 1544 1831 
L 300 3500 
L 978 3500 
L 1906 2253 
L 2834 3500 
L 3513 3500 
z
" transform="scale(0.015625)"/>
      </defs>
      <use xlink:href="#DejaVuSans-72"/>
      <use xlink:href="#DejaVuSans-31" transform="translate(41.113281 0)"/>
      <use xlink:href="#DejaVuSans-63" transform="translate(104.736328 0)"/>
      <use xlink:href="#DejaVuSans-73" transform="translate(159.716797 0)"/>
      <use xlink:href="#DejaVuSans-5f" transform="translate(211.816406 0)"/>
      <use xlink:href="#DejaVuSans-61" transform="translate(261.816406 0)"/>
      <use xlink:href="#DejaVuSans-75" transform="translate(323.095703 0)"/>
      <use xlink:href="#DejaVuSans-78" transform="translate(386.474609 0)"/>
     </g>
    </g>
    <g id="patch_14">
     <path d="M 245.635313 43.598438 
L 265.635313 43.598438 
L 265.635313 36.598438 
L 245.635313 36.598438 
z
" style="fill: #7f7f7f; fill-opacity: 0.7"/>
    </g>
    <g id="text_26">
     <!-- r1cs_polys -->
     <g transform="translate(273.635313 43.598438) scale(0.1 -0.1)">
      <use xlink:href="#DejaVuSans-72"/>
      <use xlink:href="#DejaVuSans-31" transform="translate(41.113281 0)"/>
      <use xlink:href="#DejaVuSans-63" transform="translate(104.736328 0)"/>
      <use xlink:href="#DejaVuSans-73" transform="translate(159.716797 0)"/>
      <use xlink:href="#DejaVuSans-5f" transform="translate(211.816406 0)"/>
      <use xlink:href="#DejaVuSans-70" transform="translate(261.816406 0)"/>
      <use xlink:href="#DejaVuSans-6f" transform="translate(325.292969 0)"/>
      <use xlink:href="#DejaVuSans-6c" transform="translate(386.474609 0)"/>
      <use xlink:href="#DejaVuSans-79" transform="translate(414.257812 0)"/>
      <use xlink:href="#DejaVuSans-73" transform="translate(473.4375 0)"/>
     </g>
    </g>
    <g id="patch_15">
     <path d="M 245.635313 58.554688 
L 265.635313 58.554688 
L 265.635313 51.554688 
L 245.635313 51.554688 
z
" style="fill: #bcbd22; fill-opacity: 0.7"/>
    </g>
    <g id="text_27">
     <!-- r1cs_setup -->
     <g transform="translate(273.635313 58.554688) scale(0.1 -0.1)">
      <use xlink:href="#DejaVuSans-72"/>
      <use xlink:href="#DejaVuSans-31" transform="translate(41.113281 0)"/>
      <use xlink:href="#DejaVuSans-63" transform="translate(104.736328 0)"/>
      <use xlink:href="#DejaVuSans-73" transform="translate(159.716797 0)"/>
      <use xlink:href="#DejaVuSans-5f" transform="translate(211.816406 0)"/>
      <use xlink:href="#DejaVuSans-73" transform="translate(261.816406 0)"/>
      <use xlink:href="#DejaVuSans-65" transform="translate(313.916016 0)"/>
      <use xlink:href="#DejaVuSans-74" transform="translate(375.439453 0)"/>
      <use xlink:href="#DejaVuSans-75" transform="translate(414.648438 0)"/>
      <use xlink:href="#DejaVuSans-70" transform="translate(478.027344 0)"/>
     </g>
    </g>
    <g id="patch_16">
     <path d="M 245.635313 73.510938 
L 265.635313 73.510938 
L 265.635313 66.510938 
L 245.635313 66.510938 
z
" style="fill: #17becf; fill-opacity: 0.7"/>
    </g>
    <g id="text_28">
     <!-- rwm -->
     <g transform="translate(273.635313 73.510938) scale(0.1 -0.1)">
      <use xlink:href="#DejaVuSans-72"/>
      <use xlink:href="#DejaVuSans-77" transform="translate(41.113281 0)"/>
      <use xlink:href="#DejaVuSans-6d" transform="translate(122.900391 0)"/>
     </g>
    </g>
    <g id="patch_17">
     <path d="M 347.785313 43.598438 
L 367.785313 43.598438 
L 367.785313 36.598438 
L 347.785313 36.598438 
z
" style="fill: #1f77b4; fill-opacity: 0.7"/>
    </g>
    <g id="text_29">
     <!-- rwm_wit -->
     <g transform="translate(375.785313 43.598438) scale(0.1 -0.1)">
      <use xlink:href="#DejaVuSans-72"/>
      <use xlink:href="#DejaVuSans-77" transform="translate(41.113281 0)"/>
      <use xlink:href="#DejaVuSans-6d" transform="translate(122.900391 0)"/>
      <use xlink:href="#DejaVuSans-5f" transform="translate(220.3125 0)"/>
      <use xlink:href="#DejaVuSans-77" transform="translate(270.3125 0)"/>
      <use xlink:href="#DejaVuSans-69" transform="translate(352.099609 0)"/>
      <use xlink:href="#DejaVuSans-74" transform="translate(379.882812 0)"/>
     </g>
    </g>
    <g id="patch_18">
     <path d="M 347.785313 58.554688 
L 367.785313 58.554688 
L 367.785313 51.554688 
L 347.785313 51.554688 
z
" style="fill: #ff7f0e; fill-opacity: 0.7"/>
    </g>
    <g id="text_30">
     <!-- spartan -->
     <g transform="translate(375.785313 58.554688) scale(0.1 -0.1)">
      <use xlink:href="#DejaVuSans-73"/>
      <use xlink:href="#DejaVuSans-70" transform="translate(52.099609 0)"/>
      <use xlink:href="#DejaVuSans-61" transform="translate(115.576172 0)"/>
      <use xlink:href="#DejaVuSans-72" transform="translate(176.855469 0)"/>
      <use xlink:href="#DejaVuSans-74" transform="translate(217.96875 0)"/>
      <use xlink:href="#DejaVuSans-61" transform="translate(257.177734 0)"/>
      <use xlink:href="#DejaVuSans-6e" transform="translate(318.457031 0)"/>
     </g>
    </g>
    <g id="patch_19">
     <path d="M 347.785313 73.232813 
L 367.785313 73.232813 
L 367.785313 66.232813 
L 347.785313 66.232813 
z
" style="fill: #2ca02c; fill-opacity: 0.7"/>
    </g>
    <g id="text_31">
     <!-- wit_join -->
     <g transform="translate(375.785313 73.232813) scale(0.1 -0.1)">
      <defs>
       <path id="DejaVuSans-6a" d="M 603 3500 
L 1178 3500 
L 1178 -63 
Q 1178 -731 923 -1031 
Q 669 -1331 103 -1331 
L -116 -1331 
L -116 -844 
L 38 -844 
Q 366 -844 484 -692 
Q 603 -541 603 -63 
L 603 3500 
z
M 603 4863 
L 1178 4863 
L 1178 4134 
L 603 4134 
L 603 4863 
z
" transform="scale(0.015625)"/>
      </defs>
      <use xlink:href="#DejaVuSans-77"/>
      <use xlink:href="#DejaVuSans-69" transform="translate(81.787109 0)"/>
      <use xlink:href="#DejaVuSans-74" transform="translate(109.570312 0)"/>
      <use xlink:href="#DejaVuSans-5f" transform="translate(148.779297 0)"/>
      <use xlink:href="#DejaVuSans-6a" transform="translate(198.779297 0)"/>
      <use xlink:href="#DejaVuSans-6f" transform="translate(226.5625 0)"/>
      <use xlink:href="#DejaVuSans-69" transform="translate(287.744141 0)"/>
      <use xlink:href="#DejaVuSans-6e" transform="translate(315.527344 0)"/>
     </g>
    </g>
   </g>
  </g>
 </g>
 <defs>
  <clipPath id="p847f6db25b">
   <rect x="46.64" y="27" width="805.48" height="217.48"/>
  </clipPath>
 </defs>
</svg>
