<?xml version="1.0" encoding="utf-8" standalone="no"?>
<!DOCTYPE svg PUBLIC "-//W3C//DTD SVG 1.1//EN"
  "http://www.w3.org/Graphics/SVG/1.1/DTD/svg11.dtd">
<svg xmlns:xlink="http://www.w3.org/1999/xlink" width="864pt" height="288pt" viewBox="0 0 864 288" xmlns="http://www.w3.org/2000/svg" version="1.1">
 <metadata>
  <rdf:RDF xmlns:dc="http://purl.org/dc/elements/1.1/" xmlns:cc="http://creativecommons.org/ns#" xmlns:rdf="http://www.w3.org/1999/02/22-rdf-syntax-ns#">
   <cc:Work>
    <dc:type rdf:resource="http://purl.org/dc/dcmitype/StillImage"/>
    <dc:date>2025-09-07T14:35:43.080993</dc:date>
    <dc:format>image/svg+xml</dc:format>
    <dc:creator>
     <cc:Agent>
      <dc:title>Matplotlib v3.10.6, https://matplotlib.org/</dc:title>
     </cc:Agent>
    </dc:creator>
   </cc:Work>
  </rdf:RDF>
 </metadata>
 <defs>
  <style type="text/css">*{stroke-linejoin: round; stroke-linecap: butt}</style>
 </defs>
 <g id="figure_1">
  <g id="patch_1">
   <path d="M 0 288 
L 864 288 
L 864 0 
L 0 0 
z
" style="fill: #ffffff"/>
  </g>
  <g id="axes_1">
   <g id="patch_2">
    <path d="M 46.64 244.48 
L 852.12 244.48 
L 852.12 27 
L 46.64 27 
z
" style="fill: #ffffff"/>
   </g>
   <g id="FillBetweenPolyCollection_1">
    <path d="M 83.252727 234.323147 
L 83.252727 234.594545 
L 99.525051 234.594545 
L 115.797374 234.594545 
L 132.069697 234.594545 
L 148.34202 234.594545 
L 164.614343 234.594545 
L 180.886667 234.594545 
L 197.15899 234.594545 
L 213.431313 234.594545 
L 229.703636 234.594545 
L 245.97596 234.594545 
L 262.248283 234.594545 
L 278.520606 234.594545 
L 294.792929 234.594545 
L 311.065253 234.594545 
L 327.337576 234.594545 
L 343.609899 234.594545 
L 359.882222 234.594545 
L 376.154545 234.594545 
L 392.426869 234.594545 
L 408.699192 234.594545 
L 424.971515 234.594545 
L 441.243838 234.594545 
L 457.516162 234.594545 
L 473.788485 234.594545 
L 490.060808 234.594545 
L 506.333131 234.594545 
L 522.605455 234.594545 
L 538.877778 234.594545 
L 555.150101 234.594545 
L 571.422424 234.594545 
L 587.694747 234.594545 
L 603.967071 234.594545 
L 620.239394 234.594545 
L 636.511717 234.594545 
L 652.78404 234.594545 
L 669.056364 234.594545 
L 685.328687 234.594545 
L 701.60101 234.594545 
L 717.873333 234.594545 
L 734.145657 234.594545 
L 750.41798 234.594545 
L 766.690303 234.594545 
L 782.962626 234.594545 
L 799.234949 234.594545 
L 815.507273 234.594545 
L 815.507273 232.222001 
L 815.507273 232.222001 
L 799.234949 232.222001 
L 782.962626 232.222001 
L 766.690303 232.230756 
L 750.41798 232.230756 
L 734.145657 232.222001 
L 717.873333 232.248266 
L 701.60101 232.248266 
L 685.328687 232.248266 
L 669.056364 232.25702 
L 652.78404 232.265775 
L 636.511717 232.25702 
L 620.239394 232.265775 
L 603.967071 232.27453 
L 587.694747 232.27453 
L 571.422424 232.283285 
L 555.150101 232.300794 
L 538.877778 232.29204 
L 522.605455 232.300794 
L 506.333131 232.309549 
L 490.060808 232.318304 
L 473.788485 232.327059 
L 457.516162 232.327059 
L 441.243838 233.281329 
L 424.971515 233.272574 
L 408.699192 233.281329 
L 392.426869 233.281329 
L 376.154545 233.290084 
L 359.882222 233.298839 
L 343.609899 233.307593 
L 327.337576 233.307593 
L 311.065253 233.325103 
L 294.792929 233.316348 
L 278.520606 233.333858 
L 262.248283 233.342613 
L 245.97596 233.806616 
L 229.703636 233.806616 
L 213.431313 233.81537 
L 197.15899 233.81537 
L 180.886667 233.824125 
L 164.614343 233.83288 
L 148.34202 234.086768 
L 132.069697 234.086768 
L 115.797374 234.104278 
L 99.525051 234.2356 
L 83.252727 234.323147 
z
" clip-path="url(#pc28f82a2d7)" style="fill: #1f77b4; fill-opacity: 0.7"/>
   </g>
   <g id="FillBetweenPolyCollection_2">
    <path d="M 83.252727 233.202536 
L 83.252727 234.323147 
L 99.525051 234.2356 
L 115.797374 234.104278 
L 132.069697 234.086768 
L 148.34202 234.086768 
L 164.614343 233.83288 
L 180.886667 233.824125 
L 197.15899 233.81537 
L 213.431313 233.81537 
L 229.703636 233.806616 
L 245.97596 233.806616 
L 262.248283 233.342613 
L 278.520606 233.333858 
L 294.792929 233.316348 
L 311.065253 233.325103 
L 327.337576 233.307593 
L 343.609899 233.307593 
L 359.882222 233.298839 
L 376.154545 233.290084 
L 392.426869 233.281329 
L 408.699192 233.281329 
L 424.971515 233.272574 
L 441.243838 233.281329 
L 457.516162 232.327059 
L 473.788485 232.327059 
L 490.060808 232.318304 
L 506.333131 232.309549 
L 522.605455 232.300794 
L 538.877778 232.29204 
L 555.150101 232.300794 
L 571.422424 232.283285 
L 587.694747 232.27453 
L 603.967071 232.27453 
L 620.239394 232.265775 
L 636.511717 232.25702 
L 652.78404 232.265775 
L 669.056364 232.25702 
L 685.328687 232.248266 
L 701.60101 232.248266 
L 717.873333 232.248266 
L 734.145657 232.222001 
L 750.41798 232.230756 
L 766.690303 232.230756 
L 782.962626 232.222001 
L 799.234949 232.222001 
L 815.507273 232.222001 
L 815.507273 197.483053 
L 815.507273 197.483053 
L 799.234949 197.710677 
L 782.962626 197.999585 
L 766.690303 199.032648 
L 750.41798 199.34782 
L 734.145657 198.699967 
L 717.873333 199.321556 
L 701.60101 199.899371 
L 685.328687 199.995673 
L 669.056364 200.590998 
L 652.78404 201.133794 
L 636.511717 202.026781 
L 620.239394 202.587087 
L 603.967071 202.123084 
L 587.694747 203.121128 
L 571.422424 202.814711 
L 555.150101 203.760227 
L 538.877778 204.110418 
L 522.605455 204.740762 
L 506.333131 204.889593 
L 490.060808 205.835109 
L 473.788485 206.16779 
L 457.516162 206.447943 
L 441.243838 215.509135 
L 424.971515 216.332084 
L 408.699192 216.638501 
L 392.426869 217.09375 
L 376.154545 217.102504 
L 359.882222 217.759113 
L 343.609899 218.004246 
L 327.337576 218.63459 
L 311.065253 218.932252 
L 294.792929 219.518822 
L 278.520606 220.350526 
L 262.248283 220.114147 
L 245.97596 224.797952 
L 229.703636 225.43705 
L 213.431313 225.892299 
L 197.15899 226.312528 
L 180.886667 226.706493 
L 164.614343 227.117967 
L 148.34202 229.823193 
L 132.069697 230.155874 
L 115.797374 230.646142 
L 99.525051 232.134454 
L 83.252727 233.202536 
z
" clip-path="url(#pc28f82a2d7)" style="fill: #ff7f0e; fill-opacity: 0.7"/>
   </g>
   <g id="FillBetweenPolyCollection_3">
    <path d="M 83.252727 229.429228 
L 83.252727 233.202536 
L 99.525051 232.134454 
L 115.797374 230.646142 
L 132.069697 230.155874 
L 148.34202 229.823193 
L 164.614343 227.117967 
L 180.886667 226.706493 
L 197.15899 226.312528 
L 213.431313 225.892299 
L 229.703636 225.43705 
L 245.97596 224.797952 
L 262.248283 220.114147 
L 278.520606 220.350526 
L 294.792929 219.518822 
L 311.065253 218.932252 
L 327.337576 218.63459 
L 343.609899 218.004246 
L 359.882222 217.759113 
L 376.154545 217.102504 
L 392.426869 217.09375 
L 408.699192 216.638501 
L 424.971515 216.332084 
L 441.243838 215.509135 
L 457.516162 206.447943 
L 473.788485 206.16779 
L 490.060808 205.835109 
L 506.333131 204.889593 
L 522.605455 204.740762 
L 538.877778 204.110418 
L 555.150101 203.760227 
L 571.422424 202.814711 
L 587.694747 203.121128 
L 603.967071 202.123084 
L 620.239394 202.587087 
L 636.511717 202.026781 
L 652.78404 201.133794 
L 669.056364 200.590998 
L 685.328687 199.995673 
L 701.60101 199.899371 
L 717.873333 199.321556 
L 734.145657 198.699967 
L 750.41798 199.34782 
L 766.690303 199.032648 
L 782.962626 197.999585 
L 799.234949 197.710677 
L 815.507273 197.483053 
L 815.507273 164.302454 
L 815.507273 164.302454 
L 799.234949 165.081629 
L 782.962626 165.843295 
L 766.690303 167.252814 
L 750.41798 167.638024 
L 734.145657 167.39289 
L 717.873333 168.355915 
L 701.60101 169.222638 
L 685.328687 169.774189 
L 669.056364 170.72846 
L 652.78404 171.621447 
L 636.511717 172.803341 
L 620.239394 173.731347 
L 603.967071 173.696328 
L 587.694747 174.904487 
L 571.422424 174.98328 
L 555.150101 176.427818 
L 538.877778 176.996879 
L 522.605455 178.056206 
L 506.333131 178.599003 
L 490.060808 179.868445 
L 473.788485 180.568827 
L 457.516162 181.242945 
L 441.243838 198.419814 
L 424.971515 199.452877 
L 408.699192 200.179524 
L 392.426869 200.984963 
L 376.154545 201.352664 
L 359.882222 202.324444 
L 343.609899 202.902259 
L 327.337576 203.961587 
L 311.065253 204.574421 
L 294.792929 205.423634 
L 278.520606 206.605529 
L 262.248283 206.666812 
L 245.97596 214.835018 
L 229.703636 215.728005 
L 213.431313 216.542199 
L 197.15899 217.303864 
L 180.886667 218.135568 
L 164.614343 218.967272 
L 148.34202 223.405943 
L 132.069697 224.106325 
L 115.797374 224.938028 
L 99.525051 227.564461 
L 83.252727 229.429228 
z
" clip-path="url(#pc28f82a2d7)" style="fill: #2ca02c; fill-opacity: 0.7"/>
   </g>
   <g id="FillBetweenPolyCollection_4">
    <path d="M 83.252727 229.149075 
L 83.252727 229.429228 
L 99.525051 227.564461 
L 115.797374 224.938028 
L 132.069697 224.106325 
L 148.34202 223.405943 
L 164.614343 218.967272 
L 180.886667 218.135568 
L 197.15899 217.303864 
L 213.431313 216.542199 
L 229.703636 215.728005 
L 245.97596 214.835018 
L 262.248283 206.666812 
L 278.520606 206.605529 
L 294.792929 205.423634 
L 311.065253 204.574421 
L 327.337576 203.961587 
L 343.609899 202.902259 
L 359.882222 202.324444 
L 376.154545 201.352664 
L 392.426869 200.984963 
L 408.699192 200.179524 
L 424.971515 199.452877 
L 441.243838 198.419814 
L 457.516162 181.242945 
L 473.788485 180.568827 
L 490.060808 179.868445 
L 506.333131 178.599003 
L 522.605455 178.056206 
L 538.877778 176.996879 
L 555.150101 176.427818 
L 571.422424 174.98328 
L 587.694747 174.904487 
L 603.967071 173.696328 
L 620.239394 173.731347 
L 636.511717 172.803341 
L 652.78404 171.621447 
L 669.056364 170.72846 
L 685.328687 169.774189 
L 701.60101 169.222638 
L 717.873333 168.355915 
L 734.145657 167.39289 
L 750.41798 167.638024 
L 766.690303 167.252814 
L 782.962626 165.843295 
L 799.234949 165.081629 
L 815.507273 164.302454 
L 815.507273 153.656648 
L 815.507273 153.656648 
L 799.234949 154.322011 
L 782.962626 155.039902 
L 766.690303 156.580743 
L 750.41798 156.913424 
L 734.145657 156.729574 
L 717.873333 157.718863 
L 701.60101 158.252905 
L 685.328687 159.180911 
L 669.056364 160.108917 
L 652.78404 160.905602 
L 636.511717 161.92991 
L 620.239394 163.033012 
L 603.967071 163.216862 
L 587.694747 164.249926 
L 571.422424 163.89098 
L 555.150101 163.173088 
L 538.877778 162.884181 
L 522.605455 162.726595 
L 506.333131 164.748948 
L 490.060808 166.324808 
L 473.788485 163.794677 
L 457.516162 163.733394 
L 441.243838 193.377063 
L 424.971515 194.532694 
L 408.699192 195.189302 
L 392.426869 196.04727 
L 376.154545 196.43248 
L 359.882222 197.448034 
L 343.609899 197.929546 
L 327.337576 198.927591 
L 311.065253 199.619218 
L 294.792929 200.328355 
L 278.520606 201.361418 
L 262.248283 201.125039 
L 245.97596 212.304888 
L 229.703636 213.39048 
L 213.431313 214.187164 
L 197.15899 214.957584 
L 180.886667 215.666721 
L 164.614343 216.008157 
L 148.34202 222.224048 
L 132.069697 222.933185 
L 115.797374 223.791153 
L 99.525051 227.01291 
L 83.252727 229.149075 
z
" clip-path="url(#pc28f82a2d7)" style="fill: #d62728; fill-opacity: 0.7"/>
   </g>
   <g id="FillBetweenPolyCollection_5">
    <path d="M 83.252727 226.977891 
L 83.252727 229.149075 
L 99.525051 227.01291 
L 115.797374 223.791153 
L 132.069697 222.933185 
L 148.34202 222.224048 
L 164.614343 216.008157 
L 180.886667 215.666721 
L 197.15899 214.957584 
L 213.431313 214.187164 
L 229.703636 213.39048 
L 245.97596 212.304888 
L 262.248283 201.125039 
L 278.520606 201.361418 
L 294.792929 200.328355 
L 311.065253 199.619218 
L 327.337576 198.927591 
L 343.609899 197.929546 
L 359.882222 197.448034 
L 376.154545 196.43248 
L 392.426869 196.04727 
L 408.699192 195.189302 
L 424.971515 194.532694 
L 441.243838 193.377063 
L 457.516162 163.733394 
L 473.788485 163.794677 
L 490.060808 166.324808 
L 506.333131 164.748948 
L 522.605455 162.726595 
L 538.877778 162.884181 
L 555.150101 163.173088 
L 571.422424 163.89098 
L 587.694747 164.249926 
L 603.967071 163.216862 
L 620.239394 163.033012 
L 636.511717 161.92991 
L 652.78404 160.905602 
L 669.056364 160.108917 
L 685.328687 159.180911 
L 701.60101 158.252905 
L 717.873333 157.718863 
L 734.145657 156.729574 
L 750.41798 156.913424 
L 766.690303 156.580743 
L 782.962626 155.039902 
L 799.234949 154.322011 
L 815.507273 153.656648 
L 815.507273 120.25718 
L 815.507273 120.25718 
L 799.234949 121.929342 
L 782.962626 122.472138 
L 766.690303 123.951695 
L 750.41798 124.153055 
L 734.145657 123.855393 
L 717.873333 125.11608 
L 701.60101 125.912765 
L 685.328687 126.516844 
L 669.056364 127.392322 
L 652.78404 127.900099 
L 636.511717 129.528487 
L 620.239394 130.482757 
L 603.967071 130.736646 
L 587.694747 131.480802 
L 571.422424 130.789175 
L 555.150101 130.552796 
L 538.877778 130.158831 
L 522.605455 129.966226 
L 506.333131 131.857257 
L 490.060808 133.144209 
L 473.788485 130.902987 
L 457.516162 130.456493 
L 441.243838 176.769255 
L 424.971515 177.854847 
L 408.699192 178.5027 
L 392.426869 179.47448 
L 376.154545 179.982257 
L 359.882222 180.840225 
L 343.609899 181.426795 
L 327.337576 182.38982 
L 311.065253 183.212769 
L 294.792929 184.035718 
L 278.520606 185.095046 
L 262.248283 184.631043 
L 245.97596 203.751472 
L 229.703636 204.872083 
L 213.431313 205.703787 
L 197.15899 206.535491 
L 180.886667 207.270892 
L 164.614343 207.507271 
L 148.34202 217.969227 
L 132.069697 218.687119 
L 115.797374 219.553841 
L 99.525051 224.754178 
L 83.252727 226.977891 
z
" clip-path="url(#pc28f82a2d7)" style="fill: #9467bd; fill-opacity: 0.7"/>
   </g>
   <g id="FillBetweenPolyCollection_6">
    <path d="M 83.252727 226.977891 
L 83.252727 226.977891 
L 99.525051 224.754178 
L 115.797374 219.553841 
L 132.069697 218.687119 
L 148.34202 217.969227 
L 164.614343 207.507271 
L 180.886667 207.270892 
L 197.15899 206.535491 
L 213.431313 205.703787 
L 229.703636 204.872083 
L 245.97596 203.751472 
L 262.248283 184.631043 
L 278.520606 185.095046 
L 294.792929 184.035718 
L 311.065253 183.212769 
L 327.337576 182.38982 
L 343.609899 181.426795 
L 359.882222 180.840225 
L 376.154545 179.982257 
L 392.426869 179.47448 
L 408.699192 178.5027 
L 424.971515 177.854847 
L 441.243838 176.769255 
L 457.516162 130.456493 
L 473.788485 130.902987 
L 490.060808 133.144209 
L 506.333131 131.857257 
L 522.605455 129.966226 
L 538.877778 130.158831 
L 555.150101 130.552796 
L 571.422424 130.789175 
L 587.694747 131.480802 
L 603.967071 130.736646 
L 620.239394 130.482757 
L 636.511717 129.528487 
L 652.78404 127.900099 
L 669.056364 127.392322 
L 685.328687 126.516844 
L 701.60101 125.912765 
L 717.873333 125.11608 
L 734.145657 123.855393 
L 750.41798 124.153055 
L 766.690303 123.951695 
L 782.962626 122.472138 
L 799.234949 121.929342 
L 815.507273 120.25718 
L 815.507273 120.25718 
L 815.507273 120.25718 
L 799.234949 121.929342 
L 782.962626 122.472138 
L 766.690303 123.951695 
L 750.41798 124.153055 
L 734.145657 123.855393 
L 717.873333 125.11608 
L 701.60101 125.912765 
L 685.328687 126.516844 
L 669.056364 127.392322 
L 652.78404 127.900099 
L 636.511717 129.528487 
L 620.239394 130.482757 
L 603.967071 130.736646 
L 587.694747 131.480802 
L 571.422424 130.789175 
L 555.150101 130.552796 
L 538.877778 130.158831 
L 522.605455 129.966226 
L 506.333131 131.857257 
L 490.060808 133.144209 
L 473.788485 130.902987 
L 457.516162 130.456493 
L 441.243838 176.769255 
L 424.971515 177.854847 
L 408.699192 178.5027 
L 392.426869 179.47448 
L 376.154545 179.982257 
L 359.882222 180.840225 
L 343.609899 181.426795 
L 327.337576 182.38982 
L 311.065253 183.212769 
L 294.792929 184.035718 
L 278.520606 185.095046 
L 262.248283 184.631043 
L 245.97596 203.751472 
L 229.703636 204.872083 
L 213.431313 205.703787 
L 197.15899 206.535491 
L 180.886667 207.270892 
L 164.614343 207.507271 
L 148.34202 217.969227 
L 132.069697 218.687119 
L 115.797374 219.553841 
L 99.525051 224.754178 
L 83.252727 226.977891 
z
" clip-path="url(#pc28f82a2d7)" style="fill: #8c564b; fill-opacity: 0.7"/>
   </g>
   <g id="FillBetweenPolyCollection_7">
    <path d="M 83.252727 226.907853 
L 83.252727 226.977891 
L 99.525051 224.754178 
L 115.797374 219.553841 
L 132.069697 218.687119 
L 148.34202 217.969227 
L 164.614343 207.507271 
L 180.886667 207.270892 
L 197.15899 206.535491 
L 213.431313 205.703787 
L 229.703636 204.872083 
L 245.97596 203.751472 
L 262.248283 184.631043 
L 278.520606 185.095046 
L 294.792929 184.035718 
L 311.065253 183.212769 
L 327.337576 182.38982 
L 343.609899 181.426795 
L 359.882222 180.840225 
L 376.154545 179.982257 
L 392.426869 179.47448 
L 408.699192 178.5027 
L 424.971515 177.854847 
L 441.243838 176.769255 
L 457.516162 130.456493 
L 473.788485 130.902987 
L 490.060808 133.144209 
L 506.333131 131.857257 
L 522.605455 129.966226 
L 538.877778 130.158831 
L 555.150101 130.552796 
L 571.422424 130.789175 
L 587.694747 131.480802 
L 603.967071 130.736646 
L 620.239394 130.482757 
L 636.511717 129.528487 
L 652.78404 127.900099 
L 669.056364 127.392322 
L 685.328687 126.516844 
L 701.60101 125.912765 
L 717.873333 125.11608 
L 734.145657 123.855393 
L 750.41798 124.153055 
L 766.690303 123.951695 
L 782.962626 122.472138 
L 799.234949 121.929342 
L 815.507273 120.25718 
L 815.507273 118.707585 
L 815.507273 118.707585 
L 799.234949 120.379747 
L 782.962626 120.940052 
L 766.690303 122.410855 
L 750.41798 122.612214 
L 734.145657 122.314552 
L 717.873333 123.57524 
L 701.60101 124.371924 
L 685.328687 124.976004 
L 669.056364 125.851481 
L 652.78404 126.359258 
L 636.511717 127.987646 
L 620.239394 128.950672 
L 603.967071 129.20456 
L 587.694747 129.939961 
L 571.422424 129.257089 
L 555.150101 129.02071 
L 538.877778 128.626745 
L 522.605455 128.442895 
L 506.333131 130.333926 
L 490.060808 131.620878 
L 473.788485 129.388411 
L 457.516162 128.933162 
L 441.243838 175.97257 
L 424.971515 177.066917 
L 408.699192 177.71477 
L 392.426869 178.68655 
L 376.154545 179.203082 
L 359.882222 180.06105 
L 343.609899 180.64762 
L 327.337576 181.610645 
L 311.065253 182.433594 
L 294.792929 183.265298 
L 278.520606 184.324626 
L 262.248283 183.843113 
L 245.97596 203.331243 
L 229.703636 204.451854 
L 213.431313 205.283558 
L 197.15899 206.071487 
L 180.886667 206.859417 
L 164.614343 207.095796 
L 148.34202 217.741603 
L 132.069697 218.459495 
L 115.797374 219.317463 
L 99.525051 224.614102 
L 83.252727 226.907853 
z
" clip-path="url(#pc28f82a2d7)" style="fill: #e377c2; fill-opacity: 0.7"/>
   </g>
   <g id="FillBetweenPolyCollection_8">
    <path d="M 83.252727 226.881588 
L 83.252727 226.907853 
L 99.525051 224.614102 
L 115.797374 219.317463 
L 132.069697 218.459495 
L 148.34202 217.741603 
L 164.614343 207.095796 
L 180.886667 206.859417 
L 197.15899 206.071487 
L 213.431313 205.283558 
L 229.703636 204.451854 
L 245.97596 203.331243 
L 262.248283 183.843113 
L 278.520606 184.324626 
L 294.792929 183.265298 
L 311.065253 182.433594 
L 327.337576 181.610645 
L 343.609899 180.64762 
L 359.882222 180.06105 
L 376.154545 179.203082 
L 392.426869 178.68655 
L 408.699192 177.71477 
L 424.971515 177.066917 
L 441.243838 175.97257 
L 457.516162 128.933162 
L 473.788485 129.388411 
L 490.060808 131.620878 
L 506.333131 130.333926 
L 522.605455 128.442895 
L 538.877778 128.626745 
L 555.150101 129.02071 
L 571.422424 129.257089 
L 587.694747 129.939961 
L 603.967071 129.20456 
L 620.239394 128.950672 
L 636.511717 127.987646 
L 652.78404 126.359258 
L 669.056364 125.851481 
L 685.328687 124.976004 
L 701.60101 124.371924 
L 717.873333 123.57524 
L 734.145657 122.314552 
L 750.41798 122.612214 
L 766.690303 122.410855 
L 782.962626 120.940052 
L 799.234949 120.379747 
L 815.507273 118.707585 
L 815.507273 115.914811 
L 815.507273 115.914811 
L 799.234949 117.613238 
L 782.962626 118.173543 
L 766.690303 119.661855 
L 750.41798 119.880725 
L 734.145657 119.591817 
L 717.873333 120.834995 
L 701.60101 121.675453 
L 685.328687 122.297043 
L 669.056364 123.163765 
L 652.78404 123.680297 
L 636.511717 125.326195 
L 620.239394 126.28922 
L 603.967071 126.560618 
L 587.694747 127.313529 
L 571.422424 126.621902 
L 555.150101 126.411787 
L 538.877778 126.035332 
L 522.605455 125.860236 
L 506.333131 127.760022 
L 490.060808 129.02071 
L 473.788485 126.814507 
L 457.516162 126.385523 
L 441.243838 174.466749 
L 424.971515 175.58736 
L 408.699192 176.226458 
L 392.426869 177.215748 
L 376.154545 177.741035 
L 359.882222 178.651531 
L 343.609899 179.220592 
L 327.337576 180.297429 
L 311.065253 181.03283 
L 294.792929 181.873289 
L 278.520606 182.950126 
L 262.248283 183.440393 
L 245.97596 202.622106 
L 229.703636 203.917813 
L 213.431313 205.029669 
L 197.15899 205.861373 
L 180.886667 206.237828 
L 164.614343 206.500471 
L 148.34202 217.46145 
L 132.069697 218.258135 
L 115.797374 219.186141 
L 99.525051 224.552818 
L 83.252727 226.881588 
z
" clip-path="url(#pc28f82a2d7)" style="fill: #7f7f7f; fill-opacity: 0.7"/>
   </g>
   <g id="FillBetweenPolyCollection_9">
    <path d="M 83.252727 226.881588 
L 83.252727 226.881588 
L 99.525051 224.552818 
L 115.797374 219.186141 
L 132.069697 218.258135 
L 148.34202 217.46145 
L 164.614343 206.500471 
L 180.886667 206.237828 
L 197.15899 205.861373 
L 213.431313 205.029669 
L 229.703636 203.917813 
L 245.97596 202.622106 
L 262.248283 183.440393 
L 278.520606 182.950126 
L 294.792929 181.873289 
L 311.065253 181.03283 
L 327.337576 180.297429 
L 343.609899 179.220592 
L 359.882222 178.651531 
L 376.154545 177.741035 
L 392.426869 177.215748 
L 408.699192 176.226458 
L 424.971515 175.58736 
L 441.243838 174.466749 
L 457.516162 126.385523 
L 473.788485 126.814507 
L 490.060808 129.02071 
L 506.333131 127.760022 
L 522.605455 125.860236 
L 538.877778 126.035332 
L 555.150101 126.411787 
L 571.422424 126.621902 
L 587.694747 127.313529 
L 603.967071 126.560618 
L 620.239394 126.28922 
L 636.511717 125.326195 
L 652.78404 123.680297 
L 669.056364 123.163765 
L 685.328687 122.297043 
L 701.60101 121.675453 
L 717.873333 120.834995 
L 734.145657 119.591817 
L 750.41798 119.880725 
L 766.690303 119.661855 
L 782.962626 118.173543 
L 799.234949 117.613238 
L 815.507273 115.914811 
L 815.507273 115.906057 
L 815.507273 115.906057 
L 799.234949 117.604483 
L 782.962626 118.164789 
L 766.690303 119.6531 
L 750.41798 119.87197 
L 734.145657 119.583062 
L 717.873333 120.82624 
L 701.60101 121.675453 
L 685.328687 122.288288 
L 669.056364 123.15501 
L 652.78404 123.671542 
L 636.511717 125.31744 
L 620.239394 126.280465 
L 603.967071 126.551863 
L 587.694747 127.304774 
L 571.422424 126.613147 
L 555.150101 126.403032 
L 538.877778 126.026577 
L 522.605455 125.851481 
L 506.333131 127.760022 
L 490.060808 129.011955 
L 473.788485 126.814507 
L 457.516162 126.376768 
L 441.243838 174.466749 
L 424.971515 175.58736 
L 408.699192 176.217704 
L 392.426869 177.215748 
L 376.154545 177.741035 
L 359.882222 178.651531 
L 343.609899 179.220592 
L 327.337576 180.297429 
L 311.065253 181.03283 
L 294.792929 181.873289 
L 278.520606 182.941371 
L 262.248283 183.431639 
L 245.97596 202.622106 
L 229.703636 203.917813 
L 213.431313 205.029669 
L 197.15899 205.861373 
L 180.886667 206.237828 
L 164.614343 206.500471 
L 148.34202 217.46145 
L 132.069697 218.258135 
L 115.797374 219.186141 
L 99.525051 224.544063 
L 83.252727 226.881588 
z
" clip-path="url(#pc28f82a2d7)" style="fill: #bcbd22; fill-opacity: 0.7"/>
   </g>
   <g id="FillBetweenPolyCollection_10">
    <path d="M 83.252727 225.331993 
L 83.252727 226.881588 
L 99.525051 224.544063 
L 115.797374 219.186141 
L 132.069697 218.258135 
L 148.34202 217.46145 
L 164.614343 206.500471 
L 180.886667 206.237828 
L 197.15899 205.861373 
L 213.431313 205.029669 
L 229.703636 203.917813 
L 245.97596 202.622106 
L 262.248283 183.431639 
L 278.520606 182.941371 
L 294.792929 181.873289 
L 311.065253 181.03283 
L 327.337576 180.297429 
L 343.609899 179.220592 
L 359.882222 178.651531 
L 376.154545 177.741035 
L 392.426869 177.215748 
L 408.699192 176.217704 
L 424.971515 175.58736 
L 441.243838 174.466749 
L 457.516162 126.376768 
L 473.788485 126.814507 
L 490.060808 129.011955 
L 506.333131 127.760022 
L 522.605455 125.851481 
L 538.877778 126.026577 
L 555.150101 126.403032 
L 571.422424 126.613147 
L 587.694747 127.304774 
L 603.967071 126.551863 
L 620.239394 126.280465 
L 636.511717 125.31744 
L 652.78404 123.671542 
L 669.056364 123.15501 
L 685.328687 122.288288 
L 701.60101 121.675453 
L 717.873333 120.82624 
L 734.145657 119.583062 
L 750.41798 119.87197 
L 766.690303 119.6531 
L 782.962626 118.164789 
L 799.234949 117.604483 
L 815.507273 115.906057 
L 815.507273 88.459836 
L 815.507273 88.459836 
L 799.234949 90.24581 
L 782.962626 90.902418 
L 766.690303 92.399485 
L 750.41798 92.583335 
L 734.145657 92.416994 
L 717.873333 93.616399 
L 701.60101 94.465612 
L 685.328687 95.148484 
L 669.056364 96.058981 
L 652.78404 96.706834 
L 636.511717 98.247675 
L 620.239394 99.324512 
L 603.967071 99.639684 
L 587.694747 100.392595 
L 571.422424 99.709722 
L 555.150101 99.692213 
L 538.877778 99.315757 
L 522.605455 99.236964 
L 506.333131 101.198034 
L 490.060808 102.502496 
L 473.788485 100.410104 
L 457.516162 99.954856 
L 441.243838 162.709085 
L 424.971515 161.457152 
L 408.699192 164.626381 
L 392.426869 163.164334 
L 376.154545 163.768413 
L 359.882222 164.687665 
L 343.609899 165.344273 
L 327.337576 166.368581 
L 311.065253 167.20904 
L 294.792929 168.067008 
L 278.520606 169.178864 
L 262.248283 169.704151 
L 245.97596 195.101754 
L 229.703636 196.406216 
L 213.431313 197.614375 
L 197.15899 198.472343 
L 180.886667 198.454833 
L 164.614343 198.857553 
L 148.34202 213.294177 
L 132.069697 214.169655 
L 115.797374 215.045132 
L 99.525051 222.057707 
L 83.252727 225.331993 
z
" clip-path="url(#pc28f82a2d7)" style="fill: #17becf; fill-opacity: 0.7"/>
   </g>
   <g id="FillBetweenPolyCollection_11">
    <path d="M 83.252727 225.288219 
L 83.252727 225.331993 
L 99.525051 222.057707 
L 115.797374 215.045132 
L 132.069697 214.169655 
L 148.34202 213.294177 
L 164.614343 198.857553 
L 180.886667 198.454833 
L 197.15899 198.472343 
L 213.431313 197.614375 
L 229.703636 196.406216 
L 245.97596 195.101754 
L 262.248283 169.704151 
L 278.520606 169.178864 
L 294.792929 168.067008 
L 311.065253 167.20904 
L 327.337576 166.368581 
L 343.609899 165.344273 
L 359.882222 164.687665 
L 376.154545 163.768413 
L 392.426869 163.164334 
L 408.699192 164.626381 
L 424.971515 161.457152 
L 441.243838 162.709085 
L 457.516162 99.954856 
L 473.788485 100.410104 
L 490.060808 102.502496 
L 506.333131 101.198034 
L 522.605455 99.236964 
L 538.877778 99.315757 
L 555.150101 99.692213 
L 571.422424 99.709722 
L 587.694747 100.392595 
L 603.967071 99.639684 
L 620.239394 99.324512 
L 636.511717 98.247675 
L 652.78404 96.706834 
L 669.056364 96.058981 
L 685.328687 95.148484 
L 701.60101 94.465612 
L 717.873333 93.616399 
L 734.145657 92.416994 
L 750.41798 92.583335 
L 766.690303 92.399485 
L 782.962626 90.902418 
L 799.234949 90.24581 
L 815.507273 88.459836 
L 815.507273 86.822693 
L 815.507273 86.822693 
L 799.234949 88.608667 
L 782.962626 89.27403 
L 766.690303 90.779851 
L 750.41798 90.954947 
L 734.145657 90.771097 
L 717.873333 91.98801 
L 701.60101 92.863488 
L 685.328687 93.555115 
L 669.056364 94.439347 
L 652.78404 95.113465 
L 636.511717 96.610532 
L 620.239394 97.696124 
L 603.967071 98.03756 
L 587.694747 98.799226 
L 571.422424 98.090089 
L 555.150101 98.081334 
L 538.877778 97.696124 
L 522.605455 97.643595 
L 506.333131 99.622174 
L 490.060808 100.926636 
L 473.788485 98.82549 
L 457.516162 98.378996 
L 441.243838 161.903646 
L 424.971515 160.660468 
L 408.699192 163.829697 
L 392.426869 162.376404 
L 376.154545 162.971729 
L 359.882222 163.90849 
L 343.609899 164.565098 
L 327.337576 165.580652 
L 311.065253 166.43862 
L 294.792929 167.305342 
L 278.520606 168.408444 
L 262.248283 168.959995 
L 245.97596 194.707789 
L 229.703636 196.091044 
L 213.431313 197.299203 
L 197.15899 198.157171 
L 180.886667 198.078378 
L 164.614343 198.481097 
L 148.34202 213.101572 
L 132.069697 214.003314 
L 115.797374 214.896301 
L 99.525051 221.970159 
L 83.252727 225.288219 
z
" clip-path="url(#pc28f82a2d7)" style="fill: #1f77b4; fill-opacity: 0.7"/>
   </g>
   <g id="FillBetweenPolyCollection_12">
    <path d="M 83.252727 223.852436 
L 83.252727 225.288219 
L 99.525051 221.970159 
L 115.797374 214.896301 
L 132.069697 214.003314 
L 148.34202 213.101572 
L 164.614343 198.481097 
L 180.886667 198.078378 
L 197.15899 198.157171 
L 213.431313 197.299203 
L 229.703636 196.091044 
L 245.97596 194.707789 
L 262.248283 168.959995 
L 278.520606 168.408444 
L 294.792929 167.305342 
L 311.065253 166.43862 
L 327.337576 165.580652 
L 343.609899 164.565098 
L 359.882222 163.90849 
L 376.154545 162.971729 
L 392.426869 162.376404 
L 408.699192 163.829697 
L 424.971515 160.660468 
L 441.243838 161.903646 
L 457.516162 98.378996 
L 473.788485 98.82549 
L 490.060808 100.926636 
L 506.333131 99.622174 
L 522.605455 97.643595 
L 538.877778 97.696124 
L 555.150101 98.081334 
L 571.422424 98.090089 
L 587.694747 98.799226 
L 603.967071 98.03756 
L 620.239394 97.696124 
L 636.511717 96.610532 
L 652.78404 95.113465 
L 669.056364 94.439347 
L 685.328687 93.555115 
L 701.60101 92.863488 
L 717.873333 91.98801 
L 734.145657 90.771097 
L 750.41798 90.954947 
L 766.690303 90.779851 
L 782.962626 89.27403 
L 799.234949 88.608667 
L 815.507273 86.822693 
L 815.507273 38.505088 
L 815.507273 38.505088 
L 799.234949 40.921406 
L 782.962626 42.050772 
L 766.690303 43.941803 
L 750.41798 44.397052 
L 734.145657 44.878564 
L 717.873333 46.296838 
L 701.60101 47.662583 
L 685.328687 48.721911 
L 669.056364 49.860032 
L 652.78404 51.033171 
L 636.511717 53.116808 
L 620.239394 54.465043 
L 603.967071 55.331766 
L 587.694747 56.321056 
L 571.422424 55.953355 
L 555.150101 56.487396 
L 538.877778 56.487396 
L 522.605455 56.566189 
L 506.333131 59.315189 
L 490.060808 60.540857 
L 473.788485 59.183867 
L 457.516162 58.964998 
L 441.243838 138.099412 
L 424.971515 137.635409 
L 408.699192 140.935959 
L 392.426869 139.867877 
L 376.154545 141.032262 
L 359.882222 142.389252 
L 343.609899 143.457334 
L 327.337576 144.656739 
L 311.065253 145.97871 
L 294.792929 147.379474 
L 278.520606 147.598343 
L 262.248283 149.550658 
L 245.97596 178.765343 
L 229.703636 180.726413 
L 213.431313 186.084335 
L 197.15899 187.625176 
L 180.886667 188.001631 
L 164.614343 188.737032 
L 148.34202 207.419723 
L 132.069697 208.671656 
L 115.797374 210.011136 
L 99.525051 218.503268 
L 83.252727 223.852436 
z
" clip-path="url(#pc28f82a2d7)" style="fill: #ff7f0e; fill-opacity: 0.7"/>
   </g>
   <g id="FillBetweenPolyCollection_13">
    <path d="M 83.252727 223.826172 
L 83.252727 223.852436 
L 99.525051 218.503268 
L 115.797374 210.011136 
L 132.069697 208.671656 
L 148.34202 207.419723 
L 164.614343 188.737032 
L 180.886667 188.001631 
L 197.15899 187.625176 
L 213.431313 186.084335 
L 229.703636 180.726413 
L 245.97596 178.765343 
L 262.248283 149.550658 
L 278.520606 147.598343 
L 294.792929 147.379474 
L 311.065253 145.97871 
L 327.337576 144.656739 
L 343.609899 143.457334 
L 359.882222 142.389252 
L 376.154545 141.032262 
L 392.426869 139.867877 
L 408.699192 140.935959 
L 424.971515 137.635409 
L 441.243838 138.099412 
L 457.516162 58.964998 
L 473.788485 59.183867 
L 490.060808 60.540857 
L 506.333131 59.315189 
L 522.605455 56.566189 
L 538.877778 56.487396 
L 555.150101 56.487396 
L 571.422424 55.953355 
L 587.694747 56.321056 
L 603.967071 55.331766 
L 620.239394 54.465043 
L 636.511717 53.116808 
L 652.78404 51.033171 
L 669.056364 49.860032 
L 685.328687 48.721911 
L 701.60101 47.662583 
L 717.873333 46.296838 
L 734.145657 44.878564 
L 750.41798 44.397052 
L 766.690303 43.941803 
L 782.962626 42.050772 
L 799.234949 40.921406 
L 815.507273 38.505088 
L 815.507273 36.885455 
L 815.507273 36.885455 
L 799.234949 39.345546 
L 782.962626 40.492422 
L 766.690303 42.330925 
L 750.41798 42.751154 
L 734.145657 43.320214 
L 717.873333 44.685959 
L 701.60101 45.972911 
L 685.328687 47.084768 
L 669.056364 48.214134 
L 652.78404 49.431048 
L 636.511717 51.47091 
L 620.239394 52.819146 
L 603.967071 53.720887 
L 587.694747 54.815234 
L 571.422424 54.254929 
L 555.150101 54.815234 
L 538.877778 54.718932 
L 522.605455 54.841499 
L 506.333131 57.643027 
L 490.060808 58.912469 
L 473.788485 57.590498 
L 457.516162 57.3191 
L 441.243838 137.39903 
L 424.971515 136.961291 
L 408.699192 140.261841 
L 392.426869 139.132475 
L 376.154545 140.340634 
L 359.882222 141.653851 
L 343.609899 142.809481 
L 327.337576 144.061414 
L 311.065253 145.252063 
L 294.792929 146.714111 
L 278.520606 146.93298 
L 262.248283 148.981598 
L 245.97596 178.493945 
L 229.703636 180.44626 
L 213.431313 185.804183 
L 197.15899 187.257475 
L 180.886667 187.677705 
L 164.614343 188.378087 
L 148.34202 207.235873 
L 132.069697 208.505315 
L 115.797374 209.836041 
L 99.525051 218.43323 
L 83.252727 223.826172 
z
" clip-path="url(#pc28f82a2d7)" style="fill: #2ca02c; fill-opacity: 0.7"/>
   </g>
   <g id="matplotlib.axis_1">
    <g id="xtick_1">
     <g id="line2d_1">
      <path d="M 66.980404 244.48 
L 66.980404 27 
" clip-path="url(#pc28f82a2d7)" style="fill: none; stroke: #b0b0b0; stroke-opacity: 0.25; stroke-width: 0.8; stroke-linecap: square"/>
     </g>
     <g id="line2d_2">
      <defs>
       <path id="mea2a67a60c" d="M 0 0 
L 0 3.5 
" style="stroke: #000000; stroke-width: 0.8"/>
      </defs>
      <g>
       <use xlink:href="#mea2a67a60c" x="66.980404" y="244.48" style="stroke: #000000; stroke-width: 0.8"/>
      </g>
     </g>
     <g id="text_1">
      <!-- 0 -->
      <g transform="translate(63.799154 259.078438) scale(0.1 -0.1)">
       <defs>
        <path id="DejaVuSans-30" d="M 2034 4250 
Q 1547 4250 1301 3770 
Q 1056 3291 1056 2328 
Q 1056 1369 1301 889 
Q 1547 409 2034 409 
Q 2525 409 2770 889 
Q 3016 1369 3016 2328 
Q 3016 3291 2770 3770 
Q 2525 4250 2034 4250 
z
M 2034 4750 
Q 2819 4750 3233 4129 
Q 3647 3509 3647 2328 
Q 3647 1150 3233 529 
Q 2819 -91 2034 -91 
Q 1250 -91 836 529 
Q 422 1150 422 2328 
Q 422 3509 836 4129 
Q 1250 4750 2034 4750 
z
" transform="scale(0.015625)"/>
       </defs>
       <use xlink:href="#DejaVuSans-30"/>
      </g>
     </g>
    </g>
    <g id="xtick_2">
     <g id="line2d_3">
      <path d="M 229.703636 244.48 
L 229.703636 27 
" clip-path="url(#pc28f82a2d7)" style="fill: none; stroke: #b0b0b0; stroke-opacity: 0.25; stroke-width: 0.8; stroke-linecap: square"/>
     </g>
     <g id="line2d_4">
      <g>
       <use xlink:href="#mea2a67a60c" x="229.703636" y="244.48" style="stroke: #000000; stroke-width: 0.8"/>
      </g>
     </g>
     <g id="text_2">
      <!-- 10 -->
      <g transform="translate(223.341136 259.078438) scale(0.1 -0.1)">
       <defs>
        <path id="DejaVuSans-31" d="M 794 531 
L 1825 531 
L 1825 4091 
L 703 3866 
L 703 4441 
L 1819 4666 
L 2450 4666 
L 2450 531 
L 3481 531 
L 3481 0 
L 794 0 
L 794 531 
z
" transform="scale(0.015625)"/>
       </defs>
       <use xlink:href="#DejaVuSans-31"/>
       <use xlink:href="#DejaVuSans-30" transform="translate(63.623047 0)"/>
      </g>
     </g>
    </g>
    <g id="xtick_3">
     <g id="line2d_5">
      <path d="M 392.426869 244.48 
L 392.426869 27 
" clip-path="url(#pc28f82a2d7)" style="fill: none; stroke: #b0b0b0; stroke-opacity: 0.25; stroke-width: 0.8; stroke-linecap: square"/>
     </g>
     <g id="line2d_6">
      <g>
       <use xlink:href="#mea2a67a60c" x="392.426869" y="244.48" style="stroke: #000000; stroke-width: 0.8"/>
      </g>
     </g>
     <g id="text_3">
      <!-- 20 -->
      <g transform="translate(386.064369 259.078438) scale(0.1 -0.1)">
       <defs>
        <path id="DejaVuSans-32" d="M 1228 531 
L 3431 531 
L 3431 0 
L 469 0 
L 469 531 
Q 828 903 1448 1529 
Q 2069 2156 2228 2338 
Q 2531 2678 2651 2914 
Q 2772 3150 2772 3378 
Q 2772 3750 2511 3984 
Q 2250 4219 1831 4219 
Q 1534 4219 1204 4116 
Q 875 4013 500 3803 
L 500 4441 
Q 881 4594 1212 4672 
Q 1544 4750 1819 4750 
Q 2544 4750 2975 4387 
Q 3406 4025 3406 3419 
Q 3406 3131 3298 2873 
Q 3191 2616 2906 2266 
Q 2828 2175 2409 1742 
Q 1991 1309 1228 531 
z
" transform="scale(0.015625)"/>
       </defs>
       <use xlink:href="#DejaVuSans-32"/>
       <use xlink:href="#DejaVuSans-30" transform="translate(63.623047 0)"/>
      </g>
     </g>
    </g>
    <g id="xtick_4">
     <g id="line2d_7">
      <path d="M 555.150101 244.48 
L 555.150101 27 
" clip-path="url(#pc28f82a2d7)" style="fill: none; stroke: #b0b0b0; stroke-opacity: 0.25; stroke-width: 0.8; stroke-linecap: square"/>
     </g>
     <g id="line2d_8">
      <g>
       <use xlink:href="#mea2a67a60c" x="555.150101" y="244.48" style="stroke: #000000; stroke-width: 0.8"/>
      </g>
     </g>
     <g id="text_4">
      <!-- 30 -->
      <g transform="translate(548.787601 259.078438) scale(0.1 -0.1)">
       <defs>
        <path id="DejaVuSans-33" d="M 2597 2516 
Q 3050 2419 3304 2112 
Q 3559 1806 3559 1356 
Q 3559 666 3084 287 
Q 2609 -91 1734 -91 
Q 1441 -91 1130 -33 
Q 819 25 488 141 
L 488 750 
Q 750 597 1062 519 
Q 1375 441 1716 441 
Q 2309 441 2620 675 
Q 2931 909 2931 1356 
Q 2931 1769 2642 2001 
Q 2353 2234 1838 2234 
L 1294 2234 
L 1294 2753 
L 1863 2753 
Q 2328 2753 2575 2939 
Q 2822 3125 2822 3475 
Q 2822 3834 2567 4026 
Q 2313 4219 1838 4219 
Q 1578 4219 1281 4162 
Q 984 4106 628 3988 
L 628 4550 
Q 988 4650 1302 4700 
Q 1616 4750 1894 4750 
Q 2613 4750 3031 4423 
Q 3450 4097 3450 3541 
Q 3450 3153 3228 2886 
Q 3006 2619 2597 2516 
z
" transform="scale(0.015625)"/>
       </defs>
       <use xlink:href="#DejaVuSans-33"/>
       <use xlink:href="#DejaVuSans-30" transform="translate(63.623047 0)"/>
      </g>
     </g>
    </g>
    <g id="xtick_5">
     <g id="line2d_9">
      <path d="M 717.873333 244.48 
L 717.873333 27 
" clip-path="url(#pc28f82a2d7)" style="fill: none; stroke: #b0b0b0; stroke-opacity: 0.25; stroke-width: 0.8; stroke-linecap: square"/>
     </g>
     <g id="line2d_10">
      <g>
       <use xlink:href="#mea2a67a60c" x="717.873333" y="244.48" style="stroke: #000000; stroke-width: 0.8"/>
      </g>
     </g>
     <g id="text_5">
      <!-- 40 -->
      <g transform="translate(711.510833 259.078438) scale(0.1 -0.1)">
       <defs>
        <path id="DejaVuSans-34" d="M 2419 4116 
L 825 1625 
L 2419 1625 
L 2419 4116 
z
M 2253 4666 
L 3047 4666 
L 3047 1625 
L 3713 1625 
L 3713 1100 
L 3047 1100 
L 3047 0 
L 2419 0 
L 2419 1100 
L 313 1100 
L 313 1709 
L 2253 4666 
z
" transform="scale(0.015625)"/>
       </defs>
       <use xlink:href="#DejaVuSans-34"/>
       <use xlink:href="#DejaVuSans-30" transform="translate(63.623047 0)"/>
      </g>
     </g>
    </g>
    <g id="text_6">
     <!-- Input -->
     <g transform="translate(435.138438 273.516406) scale(0.11 -0.11)">
      <defs>
       <path id="DejaVuSans-49" d="M 628 4666 
L 1259 4666 
L 1259 0 
L 628 0 
L 628 4666 
z
" transform="scale(0.015625)"/>
       <path id="DejaVuSans-6e" d="M 3513 2113 
L 3513 0 
L 2938 0 
L 2938 2094 
Q 2938 2591 2744 2837 
Q 2550 3084 2163 3084 
Q 1697 3084 1428 2787 
Q 1159 2491 1159 1978 
L 1159 0 
L 581 0 
L 581 3500 
L 1159 3500 
L 1159 2956 
Q 1366 3272 1645 3428 
Q 1925 3584 2291 3584 
Q 2894 3584 3203 3211 
Q 3513 2838 3513 2113 
z
" transform="scale(0.015625)"/>
       <path id="DejaVuSans-70" d="M 1159 525 
L 1159 -1331 
L 581 -1331 
L 581 3500 
L 1159 3500 
L 1159 2969 
Q 1341 3281 1617 3432 
Q 1894 3584 2278 3584 
Q 2916 3584 3314 3078 
Q 3713 2572 3713 1747 
Q 3713 922 3314 415 
Q 2916 -91 2278 -91 
Q 1894 -91 1617 61 
Q 1341 213 1159 525 
z
M 3116 1747 
Q 3116 2381 2855 2742 
Q 2594 3103 2138 3103 
Q 1681 3103 1420 2742 
Q 1159 2381 1159 1747 
Q 1159 1113 1420 752 
Q 1681 391 2138 391 
Q 2594 391 2855 752 
Q 3116 1113 3116 1747 
z
" transform="scale(0.015625)"/>
       <path id="DejaVuSans-75" d="M 544 1381 
L 544 3500 
L 1119 3500 
L 1119 1403 
Q 1119 906 1312 657 
Q 1506 409 1894 409 
Q 2359 409 2629 706 
Q 2900 1003 2900 1516 
L 2900 3500 
L 3475 3500 
L 3475 0 
L 2900 0 
L 2900 538 
Q 2691 219 2414 64 
Q 2138 -91 1772 -91 
Q 1169 -91 856 284 
Q 544 659 544 1381 
z
M 1991 3584 
L 1991 3584 
z
" transform="scale(0.015625)"/>
       <path id="DejaVuSans-74" d="M 1172 4494 
L 1172 3500 
L 2356 3500 
L 2356 3053 
L 1172 3053 
L 1172 1153 
Q 1172 725 1289 603 
Q 1406 481 1766 481 
L 2356 481 
L 2356 0 
L 1766 0 
Q 1100 0 847 248 
Q 594 497 594 1153 
L 594 3053 
L 172 3053 
L 172 3500 
L 594 3500 
L 594 4494 
L 1172 4494 
z
" transform="scale(0.015625)"/>
      </defs>
      <use xlink:href="#DejaVuSans-49"/>
      <use xlink:href="#DejaVuSans-6e" transform="translate(29.492188 0)"/>
      <use xlink:href="#DejaVuSans-70" transform="translate(92.871094 0)"/>
      <use xlink:href="#DejaVuSans-75" transform="translate(156.347656 0)"/>
      <use xlink:href="#DejaVuSans-74" transform="translate(219.726562 0)"/>
     </g>
    </g>
   </g>
   <g id="matplotlib.axis_2">
    <g id="ytick_1">
     <g id="line2d_11">
      <path d="M 46.64 234.594545 
L 852.12 234.594545 
" clip-path="url(#pc28f82a2d7)" style="fill: none; stroke: #b0b0b0; stroke-opacity: 0.25; stroke-width: 0.8; stroke-linecap: square"/>
     </g>
     <g id="line2d_12">
      <defs>
       <path id="m7454526b21" d="M 0 0 
L -3.5 0 
" style="stroke: #000000; stroke-width: 0.8"/>
      </defs>
      <g>
       <use xlink:href="#m7454526b21" x="46.64" y="234.594545" style="stroke: #000000; stroke-width: 0.8"/>
      </g>
     </g>
     <g id="text_7">
      <!-- 0 -->
      <g transform="translate(33.2775 238.393764) scale(0.1 -0.1)">
       <use xlink:href="#DejaVuSans-30"/>
      </g>
     </g>
    </g>
    <g id="ytick_2">
     <g id="line2d_13">
      <path d="M 46.64 190.820669 
L 852.12 190.820669 
" clip-path="url(#pc28f82a2d7)" style="fill: none; stroke: #b0b0b0; stroke-opacity: 0.25; stroke-width: 0.8; stroke-linecap: square"/>
     </g>
     <g id="line2d_14">
      <g>
       <use xlink:href="#m7454526b21" x="46.64" y="190.820669" style="stroke: #000000; stroke-width: 0.8"/>
      </g>
     </g>
     <g id="text_8">
      <!-- 5 -->
      <g transform="translate(33.2775 194.619888) scale(0.1 -0.1)">
       <defs>
        <path id="DejaVuSans-35" d="M 691 4666 
L 3169 4666 
L 3169 4134 
L 1269 4134 
L 1269 2991 
Q 1406 3038 1543 3061 
Q 1681 3084 1819 3084 
Q 2600 3084 3056 2656 
Q 3513 2228 3513 1497 
Q 3513 744 3044 326 
Q 2575 -91 1722 -91 
Q 1428 -91 1123 -41 
Q 819 9 494 109 
L 494 744 
Q 775 591 1075 516 
Q 1375 441 1709 441 
Q 2250 441 2565 725 
Q 2881 1009 2881 1497 
Q 2881 1984 2565 2268 
Q 2250 2553 1709 2553 
Q 1456 2553 1204 2497 
Q 953 2441 691 2322 
L 691 4666 
z
" transform="scale(0.015625)"/>
       </defs>
       <use xlink:href="#DejaVuSans-35"/>
      </g>
     </g>
    </g>
    <g id="ytick_3">
     <g id="line2d_15">
      <path d="M 46.64 147.046792 
L 852.12 147.046792 
" clip-path="url(#pc28f82a2d7)" style="fill: none; stroke: #b0b0b0; stroke-opacity: 0.25; stroke-width: 0.8; stroke-linecap: square"/>
     </g>
     <g id="line2d_16">
      <g>
       <use xlink:href="#m7454526b21" x="46.64" y="147.046792" style="stroke: #000000; stroke-width: 0.8"/>
      </g>
     </g>
     <g id="text_9">
      <!-- 10 -->
      <g transform="translate(26.915 150.846011) scale(0.1 -0.1)">
       <use xlink:href="#DejaVuSans-31"/>
       <use xlink:href="#DejaVuSans-30" transform="translate(63.623047 0)"/>
      </g>
     </g>
    </g>
    <g id="ytick_4">
     <g id="line2d_17">
      <path d="M 46.64 103.272916 
L 852.12 103.272916 
" clip-path="url(#pc28f82a2d7)" style="fill: none; stroke: #b0b0b0; stroke-opacity: 0.25; stroke-width: 0.8; stroke-linecap: square"/>
     </g>
     <g id="line2d_18">
      <g>
       <use xlink:href="#m7454526b21" x="46.64" y="103.272916" style="stroke: #000000; stroke-width: 0.8"/>
      </g>
     </g>
     <g id="text_10">
      <!-- 15 -->
      <g transform="translate(26.915 107.072134) scale(0.1 -0.1)">
       <use xlink:href="#DejaVuSans-31"/>
       <use xlink:href="#DejaVuSans-35" transform="translate(63.623047 0)"/>
      </g>
     </g>
    </g>
    <g id="ytick_5">
     <g id="line2d_19">
      <path d="M 46.64 59.499039 
L 852.12 59.499039 
" clip-path="url(#pc28f82a2d7)" style="fill: none; stroke: #b0b0b0; stroke-opacity: 0.25; stroke-width: 0.8; stroke-linecap: square"/>
     </g>
     <g id="line2d_20">
      <g>
       <use xlink:href="#m7454526b21" x="46.64" y="59.499039" style="stroke: #000000; stroke-width: 0.8"/>
      </g>
     </g>
     <g id="text_11">
      <!-- 20 -->
      <g transform="translate(26.915 63.298258) scale(0.1 -0.1)">
       <use xlink:href="#DejaVuSans-32"/>
       <use xlink:href="#DejaVuSans-30" transform="translate(63.623047 0)"/>
      </g>
     </g>
    </g>
    <g id="text_12">
     <!-- Time (s) -->
     <g transform="translate(20.627344 158.101797) rotate(-90) scale(0.11 -0.11)">
      <defs>
       <path id="DejaVuSans-54" d="M -19 4666 
L 3928 4666 
L 3928 4134 
L 2272 4134 
L 2272 0 
L 1638 0 
L 1638 4134 
L -19 4134 
L -19 4666 
z
" transform="scale(0.015625)"/>
       <path id="DejaVuSans-69" d="M 603 3500 
L 1178 3500 
L 1178 0 
L 603 0 
L 603 3500 
z
M 603 4863 
L 1178 4863 
L 1178 4134 
L 603 4134 
L 603 4863 
z
" transform="scale(0.015625)"/>
       <path id="DejaVuSans-6d" d="M 3328 2828 
Q 3544 3216 3844 3400 
Q 4144 3584 4550 3584 
Q 5097 3584 5394 3201 
Q 5691 2819 5691 2113 
L 5691 0 
L 5113 0 
L 5113 2094 
Q 5113 2597 4934 2840 
Q 4756 3084 4391 3084 
Q 3944 3084 3684 2787 
Q 3425 2491 3425 1978 
L 3425 0 
L 2847 0 
L 2847 2094 
Q 2847 2600 2669 2842 
Q 2491 3084 2119 3084 
Q 1678 3084 1418 2786 
Q 1159 2488 1159 1978 
L 1159 0 
L 581 0 
L 581 3500 
L 1159 3500 
L 1159 2956 
Q 1356 3278 1631 3431 
Q 1906 3584 2284 3584 
Q 2666 3584 2933 3390 
Q 3200 3197 3328 2828 
z
" transform="scale(0.015625)"/>
       <path id="DejaVuSans-65" d="M 3597 1894 
L 3597 1613 
L 953 1613 
Q 991 1019 1311 708 
Q 1631 397 2203 397 
Q 2534 397 2845 478 
Q 3156 559 3463 722 
L 3463 178 
Q 3153 47 2828 -22 
Q 2503 -91 2169 -91 
Q 1331 -91 842 396 
Q 353 884 353 1716 
Q 353 2575 817 3079 
Q 1281 3584 2069 3584 
Q 2775 3584 3186 3129 
Q 3597 2675 3597 1894 
z
M 3022 2063 
Q 3016 2534 2758 2815 
Q 2500 3097 2075 3097 
Q 1594 3097 1305 2825 
Q 1016 2553 972 2059 
L 3022 2063 
z
" transform="scale(0.015625)"/>
       <path id="DejaVuSans-20" transform="scale(0.015625)"/>
       <path id="DejaVuSans-28" d="M 1984 4856 
Q 1566 4138 1362 3434 
Q 1159 2731 1159 2009 
Q 1159 1288 1364 580 
Q 1569 -128 1984 -844 
L 1484 -844 
Q 1016 -109 783 600 
Q 550 1309 550 2009 
Q 550 2706 781 3412 
Q 1013 4119 1484 4856 
L 1984 4856 
z
" transform="scale(0.015625)"/>
       <path id="DejaVuSans-73" d="M 2834 3397 
L 2834 2853 
Q 2591 2978 2328 3040 
Q 2066 3103 1784 3103 
Q 1356 3103 1142 2972 
Q 928 2841 928 2578 
Q 928 2378 1081 2264 
Q 1234 2150 1697 2047 
L 1894 2003 
Q 2506 1872 2764 1633 
Q 3022 1394 3022 966 
Q 3022 478 2636 193 
Q 2250 -91 1575 -91 
Q 1294 -91 989 -36 
Q 684 19 347 128 
L 347 722 
Q 666 556 975 473 
Q 1284 391 1588 391 
Q 1994 391 2212 530 
Q 2431 669 2431 922 
Q 2431 1156 2273 1281 
Q 2116 1406 1581 1522 
L 1381 1569 
Q 847 1681 609 1914 
Q 372 2147 372 2553 
Q 372 3047 722 3315 
Q 1072 3584 1716 3584 
Q 2034 3584 2315 3537 
Q 2597 3491 2834 3397 
z
" transform="scale(0.015625)"/>
       <path id="DejaVuSans-29" d="M 513 4856 
L 1013 4856 
Q 1481 4119 1714 3412 
Q 1947 2706 1947 2009 
Q 1947 1309 1714 600 
Q 1481 -109 1013 -844 
L 513 -844 
Q 928 -128 1133 580 
Q 1338 1288 1338 2009 
Q 1338 2731 1133 3434 
Q 928 4138 513 4856 
z
" transform="scale(0.015625)"/>
      </defs>
      <use xlink:href="#DejaVuSans-54"/>
      <use xlink:href="#DejaVuSans-69" transform="translate(57.958984 0)"/>
      <use xlink:href="#DejaVuSans-6d" transform="translate(85.742188 0)"/>
      <use xlink:href="#DejaVuSans-65" transform="translate(183.154297 0)"/>
      <use xlink:href="#DejaVuSans-20" transform="translate(244.677734 0)"/>
      <use xlink:href="#DejaVuSans-28" transform="translate(276.464844 0)"/>
      <use xlink:href="#DejaVuSans-73" transform="translate(315.478516 0)"/>
      <use xlink:href="#DejaVuSans-29" transform="translate(367.578125 0)"/>
     </g>
    </g>
   </g>
   <g id="patch_3">
    <path d="M 46.64 244.48 
L 46.64 27 
" style="fill: none; stroke: #000000; stroke-width: 0.8; stroke-linejoin: miter; stroke-linecap: square"/>
   </g>
   <g id="patch_4">
    <path d="M 852.12 244.48 
L 852.12 27 
" style="fill: none; stroke: #000000; stroke-width: 0.8; stroke-linejoin: miter; stroke-linecap: square"/>
   </g>
   <g id="patch_5">
    <path d="M 46.64 244.48 
L 852.12 244.48 
" style="fill: none; stroke: #000000; stroke-width: 0.8; stroke-linejoin: miter; stroke-linecap: square"/>
   </g>
   <g id="patch_6">
    <path d="M 46.64 27 
L 852.12 27 
" style="fill: none; stroke: #000000; stroke-width: 0.8; stroke-linejoin: miter; stroke-linecap: square"/>
   </g>
   <g id="text_13">
    <!-- SHA3 Chain — prove subphases (vanilla) -->
    <g transform="translate(327.050313 21) scale(0.12 -0.12)">
     <defs>
      <path id="DejaVuSans-53" d="M 3425 4513 
L 3425 3897 
Q 3066 4069 2747 4153 
Q 2428 4238 2131 4238 
Q 1616 4238 1336 4038 
Q 1056 3838 1056 3469 
Q 1056 3159 1242 3001 
Q 1428 2844 1947 2747 
L 2328 2669 
Q 3034 2534 3370 2195 
Q 3706 1856 3706 1288 
Q 3706 609 3251 259 
Q 2797 -91 1919 -91 
Q 1588 -91 1214 -16 
Q 841 59 441 206 
L 441 856 
Q 825 641 1194 531 
Q 1563 422 1919 422 
Q 2459 422 2753 634 
Q 3047 847 3047 1241 
Q 3047 1584 2836 1778 
Q 2625 1972 2144 2069 
L 1759 2144 
Q 1053 2284 737 2584 
Q 422 2884 422 3419 
Q 422 4038 858 4394 
Q 1294 4750 2059 4750 
Q 2388 4750 2728 4690 
Q 3069 4631 3425 4513 
z
" transform="scale(0.015625)"/>
      <path id="DejaVuSans-48" d="M 628 4666 
L 1259 4666 
L 1259 2753 
L 3553 2753 
L 3553 4666 
L 4184 4666 
L 4184 0 
L 3553 0 
L 3553 2222 
L 1259 2222 
L 1259 0 
L 628 0 
L 628 4666 
z
" transform="scale(0.015625)"/>
      <path id="DejaVuSans-41" d="M 2188 4044 
L 1331 1722 
L 3047 1722 
L 2188 4044 
z
M 1831 4666 
L 2547 4666 
L 4325 0 
L 3669 0 
L 3244 1197 
L 1141 1197 
L 716 0 
L 50 0 
L 1831 4666 
z
" transform="scale(0.015625)"/>
      <path id="DejaVuSans-43" d="M 4122 4306 
L 4122 3641 
Q 3803 3938 3442 4084 
Q 3081 4231 2675 4231 
Q 1875 4231 1450 3742 
Q 1025 3253 1025 2328 
Q 1025 1406 1450 917 
Q 1875 428 2675 428 
Q 3081 428 3442 575 
Q 3803 722 4122 1019 
L 4122 359 
Q 3791 134 3420 21 
Q 3050 -91 2638 -91 
Q 1578 -91 968 557 
Q 359 1206 359 2328 
Q 359 3453 968 4101 
Q 1578 4750 2638 4750 
Q 3056 4750 3426 4639 
Q 3797 4528 4122 4306 
z
" transform="scale(0.015625)"/>
      <path id="DejaVuSans-68" d="M 3513 2113 
L 3513 0 
L 2938 0 
L 2938 2094 
Q 2938 2591 2744 2837 
Q 2550 3084 2163 3084 
Q 1697 3084 1428 2787 
Q 1159 2491 1159 1978 
L 1159 0 
L 581 0 
L 581 4863 
L 1159 4863 
L 1159 2956 
Q 1366 3272 1645 3428 
Q 1925 3584 2291 3584 
Q 2894 3584 3203 3211 
Q 3513 2838 3513 2113 
z
" transform="scale(0.015625)"/>
      <path id="DejaVuSans-61" d="M 2194 1759 
Q 1497 1759 1228 1600 
Q 959 1441 959 1056 
Q 959 750 1161 570 
Q 1363 391 1709 391 
Q 2188 391 2477 730 
Q 2766 1069 2766 1631 
L 2766 1759 
L 2194 1759 
z
M 3341 1997 
L 3341 0 
L 2766 0 
L 2766 531 
Q 2569 213 2275 61 
Q 1981 -91 1556 -91 
Q 1019 -91 701 211 
Q 384 513 384 1019 
Q 384 1609 779 1909 
Q 1175 2209 1959 2209 
L 2766 2209 
L 2766 2266 
Q 2766 2663 2505 2880 
Q 2244 3097 1772 3097 
Q 1472 3097 1187 3025 
Q 903 2953 641 2809 
L 641 3341 
Q 956 3463 1253 3523 
Q 1550 3584 1831 3584 
Q 2591 3584 2966 3190 
Q 3341 2797 3341 1997 
z
" transform="scale(0.015625)"/>
      <path id="DejaVuSans-2014" d="M 313 1978 
L 6088 1978 
L 6088 1528 
L 313 1528 
L 313 1978 
z
" transform="scale(0.015625)"/>
      <path id="DejaVuSans-72" d="M 2631 2963 
Q 2534 3019 2420 3045 
Q 2306 3072 2169 3072 
Q 1681 3072 1420 2755 
Q 1159 2438 1159 1844 
L 1159 0 
L 581 0 
L 581 3500 
L 1159 3500 
L 1159 2956 
Q 1341 3275 1631 3429 
Q 1922 3584 2338 3584 
Q 2397 3584 2469 3576 
Q 2541 3569 2628 3553 
L 2631 2963 
z
" transform="scale(0.015625)"/>
      <path id="DejaVuSans-6f" d="M 1959 3097 
Q 1497 3097 1228 2736 
Q 959 2375 959 1747 
Q 959 1119 1226 758 
Q 1494 397 1959 397 
Q 2419 397 2687 759 
Q 2956 1122 2956 1747 
Q 2956 2369 2687 2733 
Q 2419 3097 1959 3097 
z
M 1959 3584 
Q 2709 3584 3137 3096 
Q 3566 2609 3566 1747 
Q 3566 888 3137 398 
Q 2709 -91 1959 -91 
Q 1206 -91 779 398 
Q 353 888 353 1747 
Q 353 2609 779 3096 
Q 1206 3584 1959 3584 
z
" transform="scale(0.015625)"/>
      <path id="DejaVuSans-76" d="M 191 3500 
L 800 3500 
L 1894 563 
L 2988 3500 
L 3597 3500 
L 2284 0 
L 1503 0 
L 191 3500 
z
" transform="scale(0.015625)"/>
      <path id="DejaVuSans-62" d="M 3116 1747 
Q 3116 2381 2855 2742 
Q 2594 3103 2138 3103 
Q 1681 3103 1420 2742 
Q 1159 2381 1159 1747 
Q 1159 1113 1420 752 
Q 1681 391 2138 391 
Q 2594 391 2855 752 
Q 3116 1113 3116 1747 
z
M 1159 2969 
Q 1341 3281 1617 3432 
Q 1894 3584 2278 3584 
Q 2916 3584 3314 3078 
Q 3713 2572 3713 1747 
Q 3713 922 3314 415 
Q 2916 -91 2278 -91 
Q 1894 -91 1617 61 
Q 1341 213 1159 525 
L 1159 0 
L 581 0 
L 581 4863 
L 1159 4863 
L 1159 2969 
z
" transform="scale(0.015625)"/>
      <path id="DejaVuSans-6c" d="M 603 4863 
L 1178 4863 
L 1178 0 
L 603 0 
L 603 4863 
z
" transform="scale(0.015625)"/>
     </defs>
     <use xlink:href="#DejaVuSans-53"/>
     <use xlink:href="#DejaVuSans-48" transform="translate(63.476562 0)"/>
     <use xlink:href="#DejaVuSans-41" transform="translate(138.671875 0)"/>
     <use xlink:href="#DejaVuSans-33" transform="translate(207.080078 0)"/>
     <use xlink:href="#DejaVuSans-20" transform="translate(270.703125 0)"/>
     <use xlink:href="#DejaVuSans-43" transform="translate(302.490234 0)"/>
     <use xlink:href="#DejaVuSans-68" transform="translate(372.314453 0)"/>
     <use xlink:href="#DejaVuSans-61" transform="translate(435.693359 0)"/>
     <use xlink:href="#DejaVuSans-69" transform="translate(496.972656 0)"/>
     <use xlink:href="#DejaVuSans-6e" transform="translate(524.755859 0)"/>
     <use xlink:href="#DejaVuSans-20" transform="translate(588.134766 0)"/>
     <use xlink:href="#DejaVuSans-2014" transform="translate(619.921875 0)"/>
     <use xlink:href="#DejaVuSans-20" transform="translate(719.921875 0)"/>
     <use xlink:href="#DejaVuSans-70" transform="translate(751.708984 0)"/>
     <use xlink:href="#DejaVuSans-72" transform="translate(815.185547 0)"/>
     <use xlink:href="#DejaVuSans-6f" transform="translate(854.048828 0)"/>
     <use xlink:href="#DejaVuSans-76" transform="translate(915.230469 0)"/>
     <use xlink:href="#DejaVuSans-65" transform="translate(974.410156 0)"/>
     <use xlink:href="#DejaVuSans-20" transform="translate(1035.933594 0)"/>
     <use xlink:href="#DejaVuSans-73" transform="translate(1067.720703 0)"/>
     <use xlink:href="#DejaVuSans-75" transform="translate(1119.820312 0)"/>
     <use xlink:href="#DejaVuSans-62" transform="translate(1183.199219 0)"/>
     <use xlink:href="#DejaVuSans-70" transform="translate(1246.675781 0)"/>
     <use xlink:href="#DejaVuSans-68" transform="translate(1310.152344 0)"/>
     <use xlink:href="#DejaVuSans-61" transform="translate(1373.53125 0)"/>
     <use xlink:href="#DejaVuSans-73" transform="translate(1434.810547 0)"/>
     <use xlink:href="#DejaVuSans-65" transform="translate(1486.910156 0)"/>
     <use xlink:href="#DejaVuSans-73" transform="translate(1548.433594 0)"/>
     <use xlink:href="#DejaVuSans-20" transform="translate(1600.533203 0)"/>
     <use xlink:href="#DejaVuSans-28" transform="translate(1632.320312 0)"/>
     <use xlink:href="#DejaVuSans-76" transform="translate(1671.333984 0)"/>
     <use xlink:href="#DejaVuSans-61" transform="translate(1730.513672 0)"/>
     <use xlink:href="#DejaVuSans-6e" transform="translate(1791.792969 0)"/>
     <use xlink:href="#DejaVuSans-69" transform="translate(1855.171875 0)"/>
     <use xlink:href="#DejaVuSans-6c" transform="translate(1882.955078 0)"/>
     <use xlink:href="#DejaVuSans-6c" transform="translate(1910.738281 0)"/>
     <use xlink:href="#DejaVuSans-61" transform="translate(1938.521484 0)"/>
     <use xlink:href="#DejaVuSans-29" transform="translate(1999.800781 0)"/>
    </g>
   </g>
   <g id="legend_1">
    <g id="patch_7">
     <path d="M 55.64 43.598438 
L 75.64 43.598438 
L 75.64 36.598438 
L 55.64 36.598438 
z
" style="fill: #1f77b4; fill-opacity: 0.7"/>
    </g>
    <g id="text_14">
     <!-- bytecode -->
     <g transform="translate(83.64 43.598438) scale(0.1 -0.1)">
      <defs>
       <path id="DejaVuSans-79" d="M 2059 -325 
Q 1816 -950 1584 -1140 
Q 1353 -1331 966 -1331 
L 506 -1331 
L 506 -850 
L 844 -850 
Q 1081 -850 1212 -737 
Q 1344 -625 1503 -206 
L 1606 56 
L 191 3500 
L 800 3500 
L 1894 763 
L 2988 3500 
L 3597 3500 
L 2059 -325 
z
" transform="scale(0.015625)"/>
       <path id="DejaVuSans-63" d="M 3122 3366 
L 3122 2828 
Q 2878 2963 2633 3030 
Q 2388 3097 2138 3097 
Q 1578 3097 1268 2742 
Q 959 2388 959 1747 
Q 959 1106 1268 751 
Q 1578 397 2138 397 
Q 2388 397 2633 464 
Q 2878 531 3122 666 
L 3122 134 
Q 2881 22 2623 -34 
Q 2366 -91 2075 -91 
Q 1284 -91 818 406 
Q 353 903 353 1747 
Q 353 2603 823 3093 
Q 1294 3584 2113 3584 
Q 2378 3584 2631 3529 
Q 2884 3475 3122 3366 
z
" transform="scale(0.015625)"/>
       <path id="DejaVuSans-64" d="M 2906 2969 
L 2906 4863 
L 3481 4863 
L 3481 0 
L 2906 0 
L 2906 525 
Q 2725 213 2448 61 
Q 2172 -91 1784 -91 
Q 1150 -91 751 415 
Q 353 922 353 1747 
Q 353 2572 751 3078 
Q 1150 3584 1784 3584 
Q 2172 3584 2448 3432 
Q 2725 3281 2906 2969 
z
M 947 1747 
Q 947 1113 1208 752 
Q 1469 391 1925 391 
Q 2381 391 2643 752 
Q 2906 1113 2906 1747 
Q 2906 2381 2643 2742 
Q 2381 3103 1925 3103 
Q 1469 3103 1208 2742 
Q 947 2381 947 1747 
z
" transform="scale(0.015625)"/>
      </defs>
      <use xlink:href="#DejaVuSans-62"/>
      <use xlink:href="#DejaVuSans-79" transform="translate(63.476562 0)"/>
      <use xlink:href="#DejaVuSans-74" transform="translate(122.65625 0)"/>
      <use xlink:href="#DejaVuSans-65" transform="translate(161.865234 0)"/>
      <use xlink:href="#DejaVuSans-63" transform="translate(223.388672 0)"/>
      <use xlink:href="#DejaVuSans-6f" transform="translate(278.369141 0)"/>
      <use xlink:href="#DejaVuSans-64" transform="translate(339.550781 0)"/>
      <use xlink:href="#DejaVuSans-65" transform="translate(403.027344 0)"/>
     </g>
    </g>
    <g id="patch_8">
     <path d="M 55.64 58.276563 
L 75.64 58.276563 
L 75.64 51.276563 
L 55.64 51.276563 
z
" style="fill: #ff7f0e; fill-opacity: 0.7"/>
    </g>
    <g id="text_15">
     <!-- commit -->
     <g transform="translate(83.64 58.276563) scale(0.1 -0.1)">
      <use xlink:href="#DejaVuSans-63"/>
      <use xlink:href="#DejaVuSans-6f" transform="translate(54.980469 0)"/>
      <use xlink:href="#DejaVuSans-6d" transform="translate(116.162109 0)"/>
      <use xlink:href="#DejaVuSans-6d" transform="translate(213.574219 0)"/>
      <use xlink:href="#DejaVuSans-69" transform="translate(310.986328 0)"/>
      <use xlink:href="#DejaVuSans-74" transform="translate(338.769531 0)"/>
     </g>
    </g>
    <g id="patch_9">
     <path d="M 55.64 72.954688 
L 75.64 72.954688 
L 75.64 65.954688 
L 55.64 65.954688 
z
" style="fill: #2ca02c; fill-opacity: 0.7"/>
    </g>
    <g id="text_16">
     <!-- il -->
     <g transform="translate(83.64 72.954688) scale(0.1 -0.1)">
      <use xlink:href="#DejaVuSans-69"/>
      <use xlink:href="#DejaVuSans-6c" transform="translate(27.783203 0)"/>
     </g>
    </g>
    <g id="patch_10">
     <path d="M 55.64 87.632813 
L 75.64 87.632813 
L 75.64 80.632813 
L 55.64 80.632813 
z
" style="fill: #d62728; fill-opacity: 0.7"/>
    </g>
    <g id="text_17">
     <!-- il_wit -->
     <g transform="translate(83.64 87.632813) scale(0.1 -0.1)">
      <defs>
       <path id="DejaVuSans-5f" d="M 3263 -1063 
L 3263 -1509 
L -63 -1509 
L -63 -1063 
L 3263 -1063 
z
" transform="scale(0.015625)"/>
       <path id="DejaVuSans-77" d="M 269 3500 
L 844 3500 
L 1563 769 
L 2278 3500 
L 2956 3500 
L 3675 769 
L 4391 3500 
L 4966 3500 
L 4050 0 
L 3372 0 
L 2619 2869 
L 1863 0 
L 1184 0 
L 269 3500 
z
" transform="scale(0.015625)"/>
      </defs>
      <use xlink:href="#DejaVuSans-69"/>
      <use xlink:href="#DejaVuSans-6c" transform="translate(27.783203 0)"/>
      <use xlink:href="#DejaVuSans-5f" transform="translate(55.566406 0)"/>
      <use xlink:href="#DejaVuSans-77" transform="translate(105.566406 0)"/>
      <use xlink:href="#DejaVuSans-69" transform="translate(187.353516 0)"/>
      <use xlink:href="#DejaVuSans-74" transform="translate(215.136719 0)"/>
     </g>
    </g>
    <g id="patch_11">
     <path d="M 150.099375 43.598438 
L 170.099375 43.598438 
L 170.099375 36.598438 
L 150.099375 36.598438 
z
" style="fill: #9467bd; fill-opacity: 0.7"/>
    </g>
    <g id="text_18">
     <!-- openings -->
     <g transform="translate(178.099375 43.598438) scale(0.1 -0.1)">
      <defs>
       <path id="DejaVuSans-67" d="M 2906 1791 
Q 2906 2416 2648 2759 
Q 2391 3103 1925 3103 
Q 1463 3103 1205 2759 
Q 947 2416 947 1791 
Q 947 1169 1205 825 
Q 1463 481 1925 481 
Q 2391 481 2648 825 
Q 2906 1169 2906 1791 
z
M 3481 434 
Q 3481 -459 3084 -895 
Q 2688 -1331 1869 -1331 
Q 1566 -1331 1297 -1286 
Q 1028 -1241 775 -1147 
L 775 -588 
Q 1028 -725 1275 -790 
Q 1522 -856 1778 -856 
Q 2344 -856 2625 -561 
Q 2906 -266 2906 331 
L 2906 616 
Q 2728 306 2450 153 
Q 2172 0 1784 0 
Q 1141 0 747 490 
Q 353 981 353 1791 
Q 353 2603 747 3093 
Q 1141 3584 1784 3584 
Q 2172 3584 2450 3431 
Q 2728 3278 2906 2969 
L 2906 3500 
L 3481 3500 
L 3481 434 
z
" transform="scale(0.015625)"/>
      </defs>
      <use xlink:href="#DejaVuSans-6f"/>
      <use xlink:href="#DejaVuSans-70" transform="translate(61.181641 0)"/>
      <use xlink:href="#DejaVuSans-65" transform="translate(124.658203 0)"/>
      <use xlink:href="#DejaVuSans-6e" transform="translate(186.181641 0)"/>
      <use xlink:href="#DejaVuSans-69" transform="translate(249.560547 0)"/>
      <use xlink:href="#DejaVuSans-6e" transform="translate(277.34375 0)"/>
      <use xlink:href="#DejaVuSans-67" transform="translate(340.722656 0)"/>
      <use xlink:href="#DejaVuSans-73" transform="translate(404.199219 0)"/>
     </g>
    </g>
    <g id="patch_12">
     <path d="M 150.099375 58.276563 
L 170.099375 58.276563 
L 170.099375 51.276563 
L 150.099375 51.276563 
z
" style="fill: #8c564b; fill-opacity: 0.7"/>
    </g>
    <g id="text_19">
     <!-- preamble -->
     <g transform="translate(178.099375 58.276563) scale(0.1 -0.1)">
      <use xlink:href="#DejaVuSans-70"/>
      <use xlink:href="#DejaVuSans-72" transform="translate(63.476562 0)"/>
      <use xlink:href="#DejaVuSans-65" transform="translate(102.339844 0)"/>
      <use xlink:href="#DejaVuSans-61" transform="translate(163.863281 0)"/>
      <use xlink:href="#DejaVuSans-6d" transform="translate(225.142578 0)"/>
      <use xlink:href="#DejaVuSans-62" transform="translate(322.554688 0)"/>
      <use xlink:href="#DejaVuSans-6c" transform="translate(386.03125 0)"/>
      <use xlink:href="#DejaVuSans-65" transform="translate(413.814453 0)"/>
     </g>
    </g>
    <g id="patch_13">
     <path d="M 150.099375 72.954688 
L 170.099375 72.954688 
L 170.099375 65.954688 
L 150.099375 65.954688 
z
" style="fill: #e377c2; fill-opacity: 0.7"/>
    </g>
    <g id="text_20">
     <!-- r1cs_aux -->
     <g transform="translate(178.099375 72.954688) scale(0.1 -0.1)">
      <defs>
       <path id="DejaVuSans-78" d="M 3513 3500 
L 2247 1797 
L 3578 0 
L 2900 0 
L 1881 1375 
L 863 0 
L 184 0 
L 1544 1831 
L 300 3500 
L 978 3500 
L 1906 2253 
L 2834 3500 
L 3513 3500 
z
" transform="scale(0.015625)"/>
      </defs>
      <use xlink:href="#DejaVuSans-72"/>
      <use xlink:href="#DejaVuSans-31" transform="translate(41.113281 0)"/>
      <use xlink:href="#DejaVuSans-63" transform="translate(104.736328 0)"/>
      <use xlink:href="#DejaVuSans-73" transform="translate(159.716797 0)"/>
      <use xlink:href="#DejaVuSans-5f" transform="translate(211.816406 0)"/>
      <use xlink:href="#DejaVuSans-61" transform="translate(261.816406 0)"/>
      <use xlink:href="#DejaVuSans-75" transform="translate(323.095703 0)"/>
      <use xlink:href="#DejaVuSans-78" transform="translate(386.474609 0)"/>
     </g>
    </g>
    <g id="patch_14">
     <path d="M 245.635313 43.598438 
L 265.635313 43.598438 
L 265.635313 36.598438 
L 245.635313 36.598438 
z
" style="fill: #7f7f7f; fill-opacity: 0.7"/>
    </g>
    <g id="text_21">
     <!-- r1cs_polys -->
     <g transform="translate(273.635313 43.598438) scale(0.1 -0.1)">
      <use xlink:href="#DejaVuSans-72"/>
      <use xlink:href="#DejaVuSans-31" transform="translate(41.113281 0)"/>
      <use xlink:href="#DejaVuSans-63" transform="translate(104.736328 0)"/>
      <use xlink:href="#DejaVuSans-73" transform="translate(159.716797 0)"/>
      <use xlink:href="#DejaVuSans-5f" transform="translate(211.816406 0)"/>
      <use xlink:href="#DejaVuSans-70" transform="translate(261.816406 0)"/>
      <use xlink:href="#DejaVuSans-6f" transform="translate(325.292969 0)"/>
      <use xlink:href="#DejaVuSans-6c" transform="translate(386.474609 0)"/>
      <use xlink:href="#DejaVuSans-79" transform="translate(414.257812 0)"/>
      <use xlink:href="#DejaVuSans-73" transform="translate(473.4375 0)"/>
     </g>
    </g>
    <g id="patch_15">
     <path d="M 245.635313 58.554688 
L 265.635313 58.554688 
L 265.635313 51.554688 
L 245.635313 51.554688 
z
" style="fill: #bcbd22; fill-opacity: 0.7"/>
    </g>
    <g id="text_22">
     <!-- r1cs_setup -->
     <g transform="translate(273.635313 58.554688) scale(0.1 -0.1)">
      <use xlink:href="#DejaVuSans-72"/>
      <use xlink:href="#DejaVuSans-31" transform="translate(41.113281 0)"/>
      <use xlink:href="#DejaVuSans-63" transform="translate(104.736328 0)"/>
      <use xlink:href="#DejaVuSans-73" transform="translate(159.716797 0)"/>
      <use xlink:href="#DejaVuSans-5f" transform="translate(211.816406 0)"/>
      <use xlink:href="#DejaVuSans-73" transform="translate(261.816406 0)"/>
      <use xlink:href="#DejaVuSans-65" transform="translate(313.916016 0)"/>
      <use xlink:href="#DejaVuSans-74" transform="translate(375.439453 0)"/>
      <use xlink:href="#DejaVuSans-75" transform="translate(414.648438 0)"/>
      <use xlink:href="#DejaVuSans-70" transform="translate(478.027344 0)"/>
     </g>
    </g>
    <g id="patch_16">
     <path d="M 245.635313 73.510938 
L 265.635313 73.510938 
L 265.635313 66.510938 
L 245.635313 66.510938 
z
" style="fill: #17becf; fill-opacity: 0.7"/>
    </g>
    <g id="text_23">
     <!-- rwm -->
     <g transform="translate(273.635313 73.510938) scale(0.1 -0.1)">
      <use xlink:href="#DejaVuSans-72"/>
      <use xlink:href="#DejaVuSans-77" transform="translate(41.113281 0)"/>
      <use xlink:href="#DejaVuSans-6d" transform="translate(122.900391 0)"/>
     </g>
    </g>
    <g id="patch_17">
     <path d="M 347.785313 43.598438 
L 367.785313 43.598438 
L 367.785313 36.598438 
L 347.785313 36.598438 
z
" style="fill: #1f77b4; fill-opacity: 0.7"/>
    </g>
    <g id="text_24">
     <!-- rwm_wit -->
     <g transform="translate(375.785313 43.598438) scale(0.1 -0.1)">
      <use xlink:href="#DejaVuSans-72"/>
      <use xlink:href="#DejaVuSans-77" transform="translate(41.113281 0)"/>
      <use xlink:href="#DejaVuSans-6d" transform="translate(122.900391 0)"/>
      <use xlink:href="#DejaVuSans-5f" transform="translate(220.3125 0)"/>
      <use xlink:href="#DejaVuSans-77" transform="translate(270.3125 0)"/>
      <use xlink:href="#DejaVuSans-69" transform="translate(352.099609 0)"/>
      <use xlink:href="#DejaVuSans-74" transform="translate(379.882812 0)"/>
     </g>
    </g>
    <g id="patch_18">
     <path d="M 347.785313 58.554688 
L 367.785313 58.554688 
L 367.785313 51.554688 
L 347.785313 51.554688 
z
" style="fill: #ff7f0e; fill-opacity: 0.7"/>
    </g>
    <g id="text_25">
     <!-- spartan -->
     <g transform="translate(375.785313 58.554688) scale(0.1 -0.1)">
      <use xlink:href="#DejaVuSans-73"/>
      <use xlink:href="#DejaVuSans-70" transform="translate(52.099609 0)"/>
      <use xlink:href="#DejaVuSans-61" transform="translate(115.576172 0)"/>
      <use xlink:href="#DejaVuSans-72" transform="translate(176.855469 0)"/>
      <use xlink:href="#DejaVuSans-74" transform="translate(217.96875 0)"/>
      <use xlink:href="#DejaVuSans-61" transform="translate(257.177734 0)"/>
      <use xlink:href="#DejaVuSans-6e" transform="translate(318.457031 0)"/>
     </g>
    </g>
    <g id="patch_19">
     <path d="M 347.785313 73.232813 
L 367.785313 73.232813 
L 367.785313 66.232813 
L 347.785313 66.232813 
z
" style="fill: #2ca02c; fill-opacity: 0.7"/>
    </g>
    <g id="text_26">
     <!-- wit_join -->
     <g transform="translate(375.785313 73.232813) scale(0.1 -0.1)">
      <defs>
       <path id="DejaVuSans-6a" d="M 603 3500 
L 1178 3500 
L 1178 -63 
Q 1178 -731 923 -1031 
Q 669 -1331 103 -1331 
L -116 -1331 
L -116 -844 
L 38 -844 
Q 366 -844 484 -692 
Q 603 -541 603 -63 
L 603 3500 
z
M 603 4863 
L 1178 4863 
L 1178 4134 
L 603 4134 
L 603 4863 
z
" transform="scale(0.015625)"/>
      </defs>
      <use xlink:href="#DejaVuSans-77"/>
      <use xlink:href="#DejaVuSans-69" transform="translate(81.787109 0)"/>
      <use xlink:href="#DejaVuSans-74" transform="translate(109.570312 0)"/>
      <use xlink:href="#DejaVuSans-5f" transform="translate(148.779297 0)"/>
      <use xlink:href="#DejaVuSans-6a" transform="translate(198.779297 0)"/>
      <use xlink:href="#DejaVuSans-6f" transform="translate(226.5625 0)"/>
      <use xlink:href="#DejaVuSans-69" transform="translate(287.744141 0)"/>
      <use xlink:href="#DejaVuSans-6e" transform="translate(315.527344 0)"/>
     </g>
    </g>
   </g>
  </g>
 </g>
 <defs>
  <clipPath id="pc28f82a2d7">
   <rect x="46.64" y="27" width="805.48" height="217.48"/>
  </clipPath>
 </defs>
</svg>
