<?xml version="1.0" encoding="utf-8" standalone="no"?>
<!DOCTYPE svg PUBLIC "-//W3C//DTD SVG 1.1//EN"
  "http://www.w3.org/Graphics/SVG/1.1/DTD/svg11.dtd">
<svg xmlns:xlink="http://www.w3.org/1999/xlink" width="864pt" height="288pt" viewBox="0 0 864 288" xmlns="http://www.w3.org/2000/svg" version="1.1">
 <metadata>
  <rdf:RDF xmlns:dc="http://purl.org/dc/elements/1.1/" xmlns:cc="http://creativecommons.org/ns#" xmlns:rdf="http://www.w3.org/1999/02/22-rdf-syntax-ns#">
   <cc:Work>
    <dc:type rdf:resource="http://purl.org/dc/dcmitype/StillImage"/>
    <dc:date>2025-09-10T11:05:38.458271</dc:date>
    <dc:format>image/svg+xml</dc:format>
    <dc:creator>
     <cc:Agent>
      <dc:title>Matplotlib v3.10.6, https://matplotlib.org/</dc:title>
     </cc:Agent>
    </dc:creator>
   </cc:Work>
  </rdf:RDF>
 </metadata>
 <defs>
  <style type="text/css">*{stroke-linejoin: round; stroke-linecap: butt}</style>
 </defs>
 <g id="figure_1">
  <g id="patch_1">
   <path d="M 0 288 
L 864 288 
L 864 0 
L 0 0 
z
" style="fill: #ffffff"/>
  </g>
  <g id="axes_1">
   <g id="patch_2">
    <path d="M 46.64 244.48 
L 852.12 244.48 
L 852.12 27 
L 46.64 27 
z
" style="fill: #ffffff"/>
   </g>
   <g id="FillBetweenPolyCollection_1">
    <path d="M 83.252727 234.358855 
L 83.252727 234.594545 
L 88.520746 234.594545 
L 93.788764 234.594545 
L 99.056782 234.594545 
L 104.324801 234.594545 
L 109.592819 234.594545 
L 114.860837 234.594545 
L 120.128855 234.594545 
L 125.396874 234.594545 
L 130.664892 234.594545 
L 135.93291 234.594545 
L 141.200929 234.594545 
L 146.468947 234.594545 
L 151.736965 234.594545 
L 157.004984 234.594545 
L 162.273002 234.594545 
L 167.54102 234.594545 
L 172.809039 234.594545 
L 178.077057 234.594545 
L 183.345075 234.594545 
L 188.613094 234.594545 
L 193.881112 234.594545 
L 199.14913 234.594545 
L 204.417148 234.594545 
L 209.685167 234.594545 
L 214.953185 234.594545 
L 220.221203 234.594545 
L 225.489222 234.594545 
L 230.75724 234.594545 
L 236.025258 234.594545 
L 241.293277 234.594545 
L 246.561295 234.594545 
L 251.829313 234.594545 
L 257.097332 234.594545 
L 262.36535 234.594545 
L 267.633368 234.594545 
L 272.901387 234.594545 
L 278.169405 234.594545 
L 283.437423 234.594545 
L 288.705441 234.594545 
L 293.97346 234.594545 
L 299.241478 234.594545 
L 304.509496 234.594545 
L 309.777515 234.594545 
L 315.045533 234.594545 
L 320.313551 234.594545 
L 325.58157 234.594545 
L 330.849588 234.594545 
L 336.117606 234.594545 
L 341.385625 234.594545 
L 351.921661 234.594545 
L 362.457698 234.594545 
L 372.993734 234.594545 
L 383.529771 234.594545 
L 394.065808 234.594545 
L 404.601844 234.594545 
L 415.137881 234.594545 
L 425.673918 234.594545 
L 436.209954 234.594545 
L 446.745991 234.594545 
L 457.282027 234.594545 
L 467.818064 234.594545 
L 478.354101 234.594545 
L 488.890137 234.594545 
L 499.426174 234.594545 
L 509.962211 234.594545 
L 520.498247 234.594545 
L 531.034284 234.594545 
L 541.57032 234.594545 
L 552.106357 234.594545 
L 562.642394 234.594545 
L 573.17843 234.594545 
L 583.714467 234.594545 
L 594.250504 234.594545 
L 604.78654 234.594545 
L 631.126632 234.594545 
L 657.466723 234.594545 
L 683.806815 234.594545 
L 710.146906 234.594545 
L 736.486998 234.594545 
L 762.82709 234.594545 
L 789.167181 234.594545 
L 815.507273 234.594545 
L 815.507273 232.185269 
L 815.507273 232.185269 
L 789.167181 232.185269 
L 762.82709 232.185269 
L 736.486998 232.202727 
L 710.146906 232.220186 
L 683.806815 232.211456 
L 657.466723 232.211456 
L 631.126632 232.237644 
L 604.78654 232.237644 
L 594.250504 232.237644 
L 583.714467 232.246374 
L 573.17843 232.237644 
L 562.642394 232.237644 
L 552.106357 232.246374 
L 541.57032 232.237644 
L 531.034284 232.255103 
L 520.498247 232.255103 
L 509.962211 232.255103 
L 499.426174 232.272561 
L 488.890137 232.263832 
L 478.354101 232.272561 
L 467.818064 232.272561 
L 457.282027 233.24151 
L 446.745991 233.24151 
L 436.209954 233.24151 
L 425.673918 233.24151 
L 415.137881 233.24151 
L 404.601844 233.250239 
L 394.065808 233.250239 
L 383.529771 233.250239 
L 372.993734 233.250239 
L 362.457698 233.258968 
L 351.921661 233.258968 
L 341.385625 233.267697 
L 336.117606 233.267697 
L 330.849588 233.267697 
L 325.58157 233.267697 
L 320.313551 233.276427 
L 315.045533 233.267697 
L 309.777515 233.276427 
L 304.509496 233.276427 
L 299.241478 233.285156 
L 293.97346 233.285156 
L 288.705441 233.276427 
L 283.437423 233.285156 
L 278.169405 233.285156 
L 272.901387 233.285156 
L 267.633368 233.765265 
L 262.36535 233.773995 
L 257.097332 233.773995 
L 251.829313 233.773995 
L 246.561295 233.773995 
L 241.293277 233.773995 
L 236.025258 233.773995 
L 230.75724 233.782724 
L 225.489222 233.782724 
L 220.221203 233.782724 
L 214.953185 233.782724 
L 209.685167 233.782724 
L 204.417148 233.782724 
L 199.14913 233.791453 
L 193.881112 233.791453 
L 188.613094 233.791453 
L 183.345075 233.791453 
L 178.077057 233.791453 
L 172.809039 233.791453 
L 167.54102 234.053331 
L 162.273002 234.07079 
L 157.004984 234.053331 
L 151.736965 234.06206 
L 146.468947 234.079519 
L 141.200929 234.06206 
L 135.93291 234.079519 
L 130.664892 234.088248 
L 125.396874 234.07079 
L 120.128855 234.201729 
L 114.860837 234.201729 
L 109.592819 234.201729 
L 104.324801 234.201729 
L 99.056782 234.29775 
L 93.788764 234.29775 
L 88.520746 234.358855 
L 83.252727 234.358855 
z
" clip-path="url(#pb2b521ab33)" style="fill: #1f77b4; fill-opacity: 0.7"/>
   </g>
   <g id="FillBetweenPolyCollection_2">
    <path d="M 83.252727 233.747807 
L 83.252727 234.358855 
L 88.520746 234.358855 
L 93.788764 234.29775 
L 99.056782 234.29775 
L 104.324801 234.201729 
L 109.592819 234.201729 
L 114.860837 234.201729 
L 120.128855 234.201729 
L 125.396874 234.07079 
L 130.664892 234.088248 
L 135.93291 234.079519 
L 141.200929 234.06206 
L 146.468947 234.079519 
L 151.736965 234.06206 
L 157.004984 234.053331 
L 162.273002 234.07079 
L 167.54102 234.053331 
L 172.809039 233.791453 
L 178.077057 233.791453 
L 183.345075 233.791453 
L 188.613094 233.791453 
L 193.881112 233.791453 
L 199.14913 233.791453 
L 204.417148 233.782724 
L 209.685167 233.782724 
L 214.953185 233.782724 
L 220.221203 233.782724 
L 225.489222 233.782724 
L 230.75724 233.782724 
L 236.025258 233.773995 
L 241.293277 233.773995 
L 246.561295 233.773995 
L 251.829313 233.773995 
L 257.097332 233.773995 
L 262.36535 233.773995 
L 267.633368 233.765265 
L 272.901387 233.285156 
L 278.169405 233.285156 
L 283.437423 233.285156 
L 288.705441 233.276427 
L 293.97346 233.285156 
L 299.241478 233.285156 
L 304.509496 233.276427 
L 309.777515 233.276427 
L 315.045533 233.267697 
L 320.313551 233.276427 
L 325.58157 233.267697 
L 330.849588 233.267697 
L 336.117606 233.267697 
L 341.385625 233.267697 
L 351.921661 233.258968 
L 362.457698 233.258968 
L 372.993734 233.250239 
L 383.529771 233.250239 
L 394.065808 233.250239 
L 404.601844 233.250239 
L 415.137881 233.24151 
L 425.673918 233.24151 
L 436.209954 233.24151 
L 446.745991 233.24151 
L 457.282027 233.24151 
L 467.818064 232.272561 
L 478.354101 232.272561 
L 488.890137 232.263832 
L 499.426174 232.272561 
L 509.962211 232.255103 
L 520.498247 232.255103 
L 531.034284 232.255103 
L 541.57032 232.237644 
L 552.106357 232.246374 
L 562.642394 232.237644 
L 573.17843 232.237644 
L 583.714467 232.246374 
L 594.250504 232.237644 
L 604.78654 232.237644 
L 631.126632 232.237644 
L 657.466723 232.211456 
L 683.806815 232.211456 
L 710.146906 232.220186 
L 736.486998 232.202727 
L 762.82709 232.185269 
L 789.167181 232.185269 
L 815.507273 232.185269 
L 815.507273 197.835617 
L 815.507273 197.835617 
L 789.167181 199.852076 
L 762.82709 199.433072 
L 736.486998 200.978151 
L 710.146906 201.10909 
L 683.806815 202.112956 
L 657.466723 202.217707 
L 631.126632 202.366104 
L 604.78654 203.815162 
L 594.250504 201.868536 
L 583.714467 203.36124 
L 573.17843 204.574608 
L 562.642394 204.400023 
L 552.106357 204.609525 
L 541.57032 204.19052 
L 531.034284 205.176927 
L 520.498247 205.7356 
L 509.962211 205.26422 
L 499.426174 205.176927 
L 488.890137 205.569744 
L 478.354101 205.691954 
L 467.818064 206.608526 
L 457.282027 215.538563 
L 446.745991 216.036131 
L 436.209954 215.45127 
L 425.673918 216.63845 
L 415.137881 217.074913 
L 404.601844 217.380438 
L 394.065808 217.555023 
L 383.529771 217.694691 
L 372.993734 218.139884 
L 362.457698 218.06132 
L 351.921661 218.314469 
L 341.385625 218.30574 
L 336.117606 218.864412 
L 330.849588 218.366844 
L 325.58157 218.646181 
L 320.313551 218.925517 
L 315.045533 219.213583 
L 309.777515 219.623858 
L 304.509496 219.449273 
L 299.241478 219.283417 
L 293.97346 219.658775 
L 288.705441 219.658775 
L 283.437423 219.71988 
L 278.169405 219.981758 
L 272.901387 219.911924 
L 267.633368 224.765395 
L 262.36535 225.105836 
L 257.097332 225.079648 
L 251.829313 224.809041 
L 246.561295 225.542299 
L 241.293277 225.437548 
L 236.025258 225.481194 
L 230.75724 225.524841 
L 225.489222 225.943845 
L 220.221203 225.926387 
L 214.953185 226.048596 
L 209.685167 225.900199 
L 204.417148 226.135889 
L 199.14913 226.214452 
L 193.881112 226.773125 
L 188.613094 226.624728 
L 183.345075 226.642186 
L 178.077057 226.607269 
L 172.809039 226.886606 
L 167.54102 229.583948 
L 162.273002 229.496656 
L 157.004984 229.828368 
L 151.736965 229.671241 
L 146.468947 230.072787 
L 141.200929 230.203726 
L 135.93291 230.413228 
L 130.664892 230.50925 
L 125.396874 230.605272 
L 120.128855 231.905932 
L 114.860837 231.949579 
L 109.592819 232.132893 
L 104.324801 232.202727 
L 99.056782 233.014549 
L 93.788764 233.154217 
L 88.520746 233.625597 
L 83.252727 233.747807 
z
" clip-path="url(#pb2b521ab33)" style="fill: #ff7f0e; fill-opacity: 0.7"/>
   </g>
   <g id="FillBetweenPolyCollection_3">
    <path d="M 83.252727 230.404499 
L 83.252727 233.747807 
L 88.520746 233.625597 
L 93.788764 233.154217 
L 99.056782 233.014549 
L 104.324801 232.202727 
L 109.592819 232.132893 
L 114.860837 231.949579 
L 120.128855 231.905932 
L 125.396874 230.605272 
L 130.664892 230.50925 
L 135.93291 230.413228 
L 141.200929 230.203726 
L 146.468947 230.072787 
L 151.736965 229.671241 
L 157.004984 229.828368 
L 162.273002 229.496656 
L 167.54102 229.583948 
L 172.809039 226.886606 
L 178.077057 226.607269 
L 183.345075 226.642186 
L 188.613094 226.624728 
L 193.881112 226.773125 
L 199.14913 226.214452 
L 204.417148 226.135889 
L 209.685167 225.900199 
L 214.953185 226.048596 
L 220.221203 225.926387 
L 225.489222 225.943845 
L 230.75724 225.524841 
L 236.025258 225.481194 
L 241.293277 225.437548 
L 246.561295 225.542299 
L 251.829313 224.809041 
L 257.097332 225.079648 
L 262.36535 225.105836 
L 267.633368 224.765395 
L 272.901387 219.911924 
L 278.169405 219.981758 
L 283.437423 219.71988 
L 288.705441 219.658775 
L 293.97346 219.658775 
L 299.241478 219.283417 
L 304.509496 219.449273 
L 309.777515 219.623858 
L 315.045533 219.213583 
L 320.313551 218.925517 
L 325.58157 218.646181 
L 330.849588 218.366844 
L 336.117606 218.864412 
L 341.385625 218.30574 
L 351.921661 218.314469 
L 362.457698 218.06132 
L 372.993734 218.139884 
L 383.529771 217.694691 
L 394.065808 217.555023 
L 404.601844 217.380438 
L 415.137881 217.074913 
L 425.673918 216.63845 
L 436.209954 215.45127 
L 446.745991 216.036131 
L 457.282027 215.538563 
L 467.818064 206.608526 
L 478.354101 205.691954 
L 488.890137 205.569744 
L 499.426174 205.176927 
L 509.962211 205.26422 
L 520.498247 205.7356 
L 531.034284 205.176927 
L 541.57032 204.19052 
L 552.106357 204.609525 
L 562.642394 204.400023 
L 573.17843 204.574608 
L 583.714467 203.36124 
L 594.250504 201.868536 
L 604.78654 203.815162 
L 631.126632 202.366104 
L 657.466723 202.217707 
L 683.806815 202.112956 
L 710.146906 201.10909 
L 736.486998 200.978151 
L 762.82709 199.433072 
L 789.167181 199.852076 
L 815.507273 197.835617 
L 815.507273 163.843864 
L 815.507273 163.843864 
L 789.167181 166.436455 
L 762.82709 166.645958 
L 736.486998 168.906837 
L 710.146906 169.526615 
L 683.806815 171.071694 
L 657.466723 171.770035 
L 631.126632 172.503294 
L 604.78654 174.641963 
L 594.250504 173.079425 
L 583.714467 174.694339 
L 573.17843 176.187043 
L 562.642394 176.143396 
L 552.106357 176.684611 
L 541.57032 176.414004 
L 531.034284 177.784498 
L 520.498247 178.552673 
L 509.962211 178.308254 
L 499.426174 178.561403 
L 488.890137 179.085158 
L 478.354101 179.460517 
L 467.818064 180.612779 
L 457.282027 197.652302 
L 446.745991 198.359372 
L 436.209954 198.03639 
L 425.673918 199.467989 
L 415.137881 200.096496 
L 404.601844 200.611522 
L 394.065808 201.013068 
L 383.529771 201.440802 
L 372.993734 202.217707 
L 362.457698 202.226436 
L 351.921661 202.758921 
L 341.385625 202.950965 
L 336.117606 203.666765 
L 330.849588 203.204114 
L 325.58157 203.623118 
L 320.313551 204.094498 
L 315.045533 204.478586 
L 309.777515 204.984883 
L 304.509496 204.853944 
L 299.241478 204.757923 
L 293.97346 205.360242 
L 288.705441 205.412617 
L 283.437423 205.604661 
L 278.169405 205.918915 
L 272.901387 205.97129 
L 267.633368 214.168069 
L 262.36535 214.665637 
L 257.097332 214.718012 
L 251.829313 214.578344 
L 246.561295 215.442541 
L 241.293277 215.442541 
L 236.025258 215.608397 
L 230.75724 215.756795 
L 225.489222 216.298009 
L 220.221203 216.359114 
L 214.953185 216.594804 
L 209.685167 216.586075 
L 204.417148 216.970162 
L 199.14913 217.188394 
L 193.881112 217.860547 
L 188.613094 217.851818 
L 183.345075 217.982757 
L 178.077057 218.087508 
L 172.809039 218.497783 
L 167.54102 222.766393 
L 162.273002 222.792581 
L 157.004984 223.290149 
L 151.736965 223.229044 
L 146.468947 223.717883 
L 141.200929 224.005949 
L 135.93291 224.355119 
L 130.664892 224.573351 
L 125.396874 224.774124 
L 120.128855 226.930252 
L 114.860837 227.096108 
L 109.592819 227.410362 
L 104.324801 227.584947 
L 99.056782 229.025275 
L 93.788764 229.278424 
L 88.520746 230.15135 
L 83.252727 230.404499 
z
" clip-path="url(#pb2b521ab33)" style="fill: #2ca02c; fill-opacity: 0.7"/>
   </g>
   <g id="FillBetweenPolyCollection_4">
    <path d="M 83.252727 230.27356 
L 83.252727 230.404499 
L 88.520746 230.15135 
L 93.788764 229.278424 
L 99.056782 229.025275 
L 104.324801 227.584947 
L 109.592819 227.410362 
L 114.860837 227.096108 
L 120.128855 226.930252 
L 125.396874 224.774124 
L 130.664892 224.573351 
L 135.93291 224.355119 
L 141.200929 224.005949 
L 146.468947 223.717883 
L 151.736965 223.229044 
L 157.004984 223.290149 
L 162.273002 222.792581 
L 167.54102 222.766393 
L 172.809039 218.497783 
L 178.077057 218.087508 
L 183.345075 217.982757 
L 188.613094 217.851818 
L 193.881112 217.860547 
L 199.14913 217.188394 
L 204.417148 216.970162 
L 209.685167 216.586075 
L 214.953185 216.594804 
L 220.221203 216.359114 
L 225.489222 216.298009 
L 230.75724 215.756795 
L 236.025258 215.608397 
L 241.293277 215.442541 
L 246.561295 215.442541 
L 251.829313 214.578344 
L 257.097332 214.718012 
L 262.36535 214.665637 
L 267.633368 214.168069 
L 272.901387 205.97129 
L 278.169405 205.918915 
L 283.437423 205.604661 
L 288.705441 205.412617 
L 293.97346 205.360242 
L 299.241478 204.757923 
L 304.509496 204.853944 
L 309.777515 204.984883 
L 315.045533 204.478586 
L 320.313551 204.094498 
L 325.58157 203.623118 
L 330.849588 203.204114 
L 336.117606 203.666765 
L 341.385625 202.950965 
L 351.921661 202.758921 
L 362.457698 202.226436 
L 372.993734 202.217707 
L 383.529771 201.440802 
L 394.065808 201.013068 
L 404.601844 200.611522 
L 415.137881 200.096496 
L 425.673918 199.467989 
L 436.209954 198.03639 
L 446.745991 198.359372 
L 457.282027 197.652302 
L 467.818064 180.612779 
L 478.354101 179.460517 
L 488.890137 179.085158 
L 499.426174 178.561403 
L 509.962211 178.308254 
L 520.498247 178.552673 
L 531.034284 177.784498 
L 541.57032 176.414004 
L 552.106357 176.684611 
L 562.642394 176.143396 
L 573.17843 176.187043 
L 583.714467 174.694339 
L 594.250504 173.079425 
L 604.78654 174.641963 
L 631.126632 172.503294 
L 657.466723 171.770035 
L 683.806815 171.071694 
L 710.146906 169.526615 
L 736.486998 168.906837 
L 762.82709 166.645958 
L 789.167181 166.436455 
L 815.507273 163.843864 
L 815.507273 153.534604 
L 815.507273 153.534604 
L 789.167181 156.214488 
L 762.82709 156.633492 
L 736.486998 158.824538 
L 710.146906 159.549066 
L 683.806815 161.059229 
L 657.466723 161.687736 
L 631.126632 162.534475 
L 604.78654 164.577122 
L 594.250504 162.517016 
L 583.714467 164.105742 
L 573.17843 165.214358 
L 562.642394 165.467507 
L 552.106357 165.615905 
L 541.57032 165.415132 
L 531.034284 166.689604 
L 520.498247 167.222089 
L 509.962211 167.056233 
L 499.426174 166.715792 
L 488.890137 167.92043 
L 478.354101 164.350161 
L 467.818064 160.055364 
L 457.282027 192.825019 
L 446.745991 193.846343 
L 436.209954 193.584465 
L 425.673918 194.693082 
L 415.137881 195.251754 
L 404.601844 195.845344 
L 394.065808 196.264349 
L 383.529771 196.596061 
L 372.993734 197.512634 
L 362.457698 197.495175 
L 351.921661 197.757053 
L 341.385625 197.765782 
L 336.117606 198.411748 
L 330.849588 198.368102 
L 325.58157 198.315726 
L 320.313551 198.787106 
L 315.045533 198.822023 
L 309.777515 200.471854 
L 304.509496 200.175059 
L 299.241478 198.542687 
L 293.97346 199.275945 
L 288.705441 200.63771 
L 283.437423 198.245892 
L 278.169405 199.441801 
L 272.901387 198.961692 
L 267.633368 211.645311 
L 262.36535 212.107962 
L 257.097332 212.177797 
L 251.829313 212.046858 
L 246.561295 212.919784 
L 241.293277 212.928513 
L 236.025258 213.138016 
L 230.75724 213.295142 
L 225.489222 213.853815 
L 220.221203 213.91492 
L 214.953185 214.176798 
L 209.685167 214.176798 
L 204.417148 214.587073 
L 199.14913 214.822763 
L 193.881112 215.381436 
L 188.613094 215.46 
L 183.345075 215.617126 
L 178.077057 215.590939 
L 172.809039 215.302873 
L 167.54102 221.544296 
L 162.273002 221.614131 
L 157.004984 222.085511 
L 151.736965 222.041864 
L 146.468947 222.626725 
L 141.200929 222.862415 
L 135.93291 223.263961 
L 130.664892 223.490922 
L 125.396874 223.595673 
L 120.128855 226.397767 
L 114.860837 226.572352 
L 109.592819 226.895335 
L 104.324801 227.07865 
L 99.056782 228.763397 
L 93.788764 229.016546 
L 88.520746 230.011682 
L 83.252727 230.27356 
z
" clip-path="url(#pb2b521ab33)" style="fill: #d62728; fill-opacity: 0.7"/>
   </g>
   <g id="FillBetweenPolyCollection_5">
    <path d="M 83.252727 228.152349 
L 83.252727 230.27356 
L 88.520746 230.011682 
L 93.788764 229.016546 
L 99.056782 228.763397 
L 104.324801 227.07865 
L 109.592819 226.895335 
L 114.860837 226.572352 
L 120.128855 226.397767 
L 125.396874 223.595673 
L 130.664892 223.490922 
L 135.93291 223.263961 
L 141.200929 222.862415 
L 146.468947 222.626725 
L 151.736965 222.041864 
L 157.004984 222.085511 
L 162.273002 221.614131 
L 167.54102 221.544296 
L 172.809039 215.302873 
L 178.077057 215.590939 
L 183.345075 215.617126 
L 188.613094 215.46 
L 193.881112 215.381436 
L 199.14913 214.822763 
L 204.417148 214.587073 
L 209.685167 214.176798 
L 214.953185 214.176798 
L 220.221203 213.91492 
L 225.489222 213.853815 
L 230.75724 213.295142 
L 236.025258 213.138016 
L 241.293277 212.928513 
L 246.561295 212.919784 
L 251.829313 212.046858 
L 257.097332 212.177797 
L 262.36535 212.107962 
L 267.633368 211.645311 
L 272.901387 198.961692 
L 278.169405 199.441801 
L 283.437423 198.245892 
L 288.705441 200.63771 
L 293.97346 199.275945 
L 299.241478 198.542687 
L 304.509496 200.175059 
L 309.777515 200.471854 
L 315.045533 198.822023 
L 320.313551 198.787106 
L 325.58157 198.315726 
L 330.849588 198.368102 
L 336.117606 198.411748 
L 341.385625 197.765782 
L 351.921661 197.757053 
L 362.457698 197.495175 
L 372.993734 197.512634 
L 383.529771 196.596061 
L 394.065808 196.264349 
L 404.601844 195.845344 
L 415.137881 195.251754 
L 425.673918 194.693082 
L 436.209954 193.584465 
L 446.745991 193.846343 
L 457.282027 192.825019 
L 467.818064 160.055364 
L 478.354101 164.350161 
L 488.890137 167.92043 
L 499.426174 166.715792 
L 509.962211 167.056233 
L 520.498247 167.222089 
L 531.034284 166.689604 
L 541.57032 165.415132 
L 552.106357 165.615905 
L 562.642394 165.467507 
L 573.17843 165.214358 
L 583.714467 164.105742 
L 594.250504 162.517016 
L 604.78654 164.577122 
L 631.126632 162.534475 
L 657.466723 161.687736 
L 683.806815 161.059229 
L 710.146906 159.549066 
L 736.486998 158.824538 
L 762.82709 156.633492 
L 789.167181 156.214488 
L 815.507273 153.534604 
L 815.507273 119.027825 
L 815.507273 119.027825 
L 789.167181 122.563177 
L 762.82709 123.008369 
L 736.486998 125.269248 
L 710.146906 125.880297 
L 683.806815 127.678525 
L 657.466723 128.106259 
L 631.126632 129.092666 
L 604.78654 131.039292 
L 594.250504 128.813329 
L 583.714467 130.445702 
L 573.17843 130.925811 
L 562.642394 131.615423 
L 552.106357 132.558183 
L 541.57032 132.182825 
L 531.034284 133.370005 
L 520.498247 133.90249 
L 509.962211 132.933542 
L 499.426174 133.370005 
L 488.890137 134.469892 
L 478.354101 130.759955 
L 467.818064 125.670794 
L 457.282027 175.383951 
L 446.745991 176.606047 
L 436.209954 176.256877 
L 425.673918 177.513891 
L 415.137881 177.959083 
L 404.601844 178.59632 
L 394.065808 179.224827 
L 383.529771 179.329578 
L 372.993734 180.298526 
L 362.457698 180.281067 
L 351.921661 180.542945 
L 341.385625 180.534216 
L 336.117606 181.19764 
L 330.849588 181.127806 
L 325.58157 181.08416 
L 320.313551 181.590457 
L 315.045533 181.634103 
L 309.777515 183.205371 
L 304.509496 182.969681 
L 299.241478 181.337308 
L 293.97346 182.26261 
L 288.705441 183.659292 
L 283.437423 181.153994 
L 278.169405 182.306257 
L 272.901387 182.000732 
L 267.633368 202.627982 
L 262.36535 203.090633 
L 257.097332 203.186655 
L 251.829313 202.959694 
L 246.561295 203.84135 
L 241.293277 203.946101 
L 236.025258 204.068311 
L 230.75724 204.277813 
L 225.489222 204.79284 
L 220.221203 204.853944 
L 214.953185 205.168198 
L 209.685167 205.185656 
L 204.417148 205.561015 
L 199.14913 205.875268 
L 193.881112 206.355378 
L 188.613094 206.364107 
L 183.345075 206.529963 
L 178.077057 206.556151 
L 172.809039 206.241897 
L 167.54102 217.153477 
L 162.273002 217.170935 
L 157.004984 217.607399 
L 151.736965 217.598669 
L 146.468947 218.157342 
L 141.200929 218.358115 
L 135.93291 218.77712 
L 130.664892 219.047727 
L 125.396874 219.178666 
L 120.128855 223.997219 
L 114.860837 224.197993 
L 109.592819 224.520975 
L 104.324801 224.678102 
L 99.056782 226.502518 
L 93.788764 226.781855 
L 88.520746 227.864283 
L 83.252727 228.152349 
z
" clip-path="url(#pb2b521ab33)" style="fill: #9467bd; fill-opacity: 0.7"/>
   </g>
   <g id="FillBetweenPolyCollection_6">
    <path d="M 83.252727 228.152349 
L 83.252727 228.152349 
L 88.520746 227.864283 
L 93.788764 226.781855 
L 99.056782 226.502518 
L 104.324801 224.678102 
L 109.592819 224.520975 
L 114.860837 224.197993 
L 120.128855 223.997219 
L 125.396874 219.178666 
L 130.664892 219.047727 
L 135.93291 218.77712 
L 141.200929 218.358115 
L 146.468947 218.157342 
L 151.736965 217.598669 
L 157.004984 217.607399 
L 162.273002 217.170935 
L 167.54102 217.153477 
L 172.809039 206.241897 
L 178.077057 206.556151 
L 183.345075 206.529963 
L 188.613094 206.364107 
L 193.881112 206.355378 
L 199.14913 205.875268 
L 204.417148 205.561015 
L 209.685167 205.185656 
L 214.953185 205.168198 
L 220.221203 204.853944 
L 225.489222 204.79284 
L 230.75724 204.277813 
L 236.025258 204.068311 
L 241.293277 203.946101 
L 246.561295 203.84135 
L 251.829313 202.959694 
L 257.097332 203.186655 
L 262.36535 203.090633 
L 267.633368 202.627982 
L 272.901387 182.000732 
L 278.169405 182.306257 
L 283.437423 181.153994 
L 288.705441 183.659292 
L 293.97346 182.26261 
L 299.241478 181.337308 
L 304.509496 182.969681 
L 309.777515 183.205371 
L 315.045533 181.634103 
L 320.313551 181.590457 
L 325.58157 181.08416 
L 330.849588 181.127806 
L 336.117606 181.19764 
L 341.385625 180.534216 
L 351.921661 180.542945 
L 362.457698 180.281067 
L 372.993734 180.298526 
L 383.529771 179.329578 
L 394.065808 179.224827 
L 404.601844 178.59632 
L 415.137881 177.959083 
L 425.673918 177.513891 
L 436.209954 176.256877 
L 446.745991 176.606047 
L 457.282027 175.383951 
L 467.818064 125.670794 
L 478.354101 130.759955 
L 488.890137 134.469892 
L 499.426174 133.370005 
L 509.962211 132.933542 
L 520.498247 133.90249 
L 531.034284 133.370005 
L 541.57032 132.182825 
L 552.106357 132.558183 
L 562.642394 131.615423 
L 573.17843 130.925811 
L 583.714467 130.445702 
L 594.250504 128.813329 
L 604.78654 131.039292 
L 631.126632 129.092666 
L 657.466723 128.106259 
L 683.806815 127.678525 
L 710.146906 125.880297 
L 736.486998 125.269248 
L 762.82709 123.008369 
L 789.167181 122.563177 
L 815.507273 119.027825 
L 815.507273 119.027825 
L 815.507273 119.027825 
L 789.167181 122.563177 
L 762.82709 123.008369 
L 736.486998 125.269248 
L 710.146906 125.880297 
L 683.806815 127.678525 
L 657.466723 128.106259 
L 631.126632 129.092666 
L 604.78654 131.039292 
L 594.250504 128.813329 
L 583.714467 130.445702 
L 573.17843 130.925811 
L 562.642394 131.615423 
L 552.106357 132.558183 
L 541.57032 132.182825 
L 531.034284 133.370005 
L 520.498247 133.90249 
L 509.962211 132.933542 
L 499.426174 133.370005 
L 488.890137 134.469892 
L 478.354101 130.759955 
L 467.818064 125.670794 
L 457.282027 175.383951 
L 446.745991 176.606047 
L 436.209954 176.256877 
L 425.673918 177.513891 
L 415.137881 177.959083 
L 404.601844 178.59632 
L 394.065808 179.224827 
L 383.529771 179.329578 
L 372.993734 180.298526 
L 362.457698 180.281067 
L 351.921661 180.542945 
L 341.385625 180.534216 
L 336.117606 181.19764 
L 330.849588 181.127806 
L 325.58157 181.08416 
L 320.313551 181.590457 
L 315.045533 181.634103 
L 309.777515 183.205371 
L 304.509496 182.969681 
L 299.241478 181.337308 
L 293.97346 182.26261 
L 288.705441 183.659292 
L 283.437423 181.153994 
L 278.169405 182.306257 
L 272.901387 182.000732 
L 267.633368 202.627982 
L 262.36535 203.090633 
L 257.097332 203.186655 
L 251.829313 202.959694 
L 246.561295 203.84135 
L 241.293277 203.946101 
L 236.025258 204.068311 
L 230.75724 204.277813 
L 225.489222 204.79284 
L 220.221203 204.853944 
L 214.953185 205.168198 
L 209.685167 205.185656 
L 204.417148 205.561015 
L 199.14913 205.875268 
L 193.881112 206.355378 
L 188.613094 206.364107 
L 183.345075 206.529963 
L 178.077057 206.556151 
L 172.809039 206.241897 
L 167.54102 217.153477 
L 162.273002 217.170935 
L 157.004984 217.607399 
L 151.736965 217.598669 
L 146.468947 218.157342 
L 141.200929 218.358115 
L 135.93291 218.77712 
L 130.664892 219.047727 
L 125.396874 219.178666 
L 120.128855 223.997219 
L 114.860837 224.197993 
L 109.592819 224.520975 
L 104.324801 224.678102 
L 99.056782 226.502518 
L 93.788764 226.781855 
L 88.520746 227.864283 
L 83.252727 228.152349 
z
" clip-path="url(#pb2b521ab33)" style="fill: #8c564b; fill-opacity: 0.7"/>
   </g>
   <g id="FillBetweenPolyCollection_7">
    <path d="M 83.252727 228.117432 
L 83.252727 228.152349 
L 88.520746 227.864283 
L 93.788764 226.781855 
L 99.056782 226.502518 
L 104.324801 224.678102 
L 109.592819 224.520975 
L 114.860837 224.197993 
L 120.128855 223.997219 
L 125.396874 219.178666 
L 130.664892 219.047727 
L 135.93291 218.77712 
L 141.200929 218.358115 
L 146.468947 218.157342 
L 151.736965 217.598669 
L 157.004984 217.607399 
L 162.273002 217.170935 
L 167.54102 217.153477 
L 172.809039 206.241897 
L 178.077057 206.556151 
L 183.345075 206.529963 
L 188.613094 206.364107 
L 193.881112 206.355378 
L 199.14913 205.875268 
L 204.417148 205.561015 
L 209.685167 205.185656 
L 214.953185 205.168198 
L 220.221203 204.853944 
L 225.489222 204.79284 
L 230.75724 204.277813 
L 236.025258 204.068311 
L 241.293277 203.946101 
L 246.561295 203.84135 
L 251.829313 202.959694 
L 257.097332 203.186655 
L 262.36535 203.090633 
L 267.633368 202.627982 
L 272.901387 182.000732 
L 278.169405 182.306257 
L 283.437423 181.153994 
L 288.705441 183.659292 
L 293.97346 182.26261 
L 299.241478 181.337308 
L 304.509496 182.969681 
L 309.777515 183.205371 
L 315.045533 181.634103 
L 320.313551 181.590457 
L 325.58157 181.08416 
L 330.849588 181.127806 
L 336.117606 181.19764 
L 341.385625 180.534216 
L 351.921661 180.542945 
L 362.457698 180.281067 
L 372.993734 180.298526 
L 383.529771 179.329578 
L 394.065808 179.224827 
L 404.601844 178.59632 
L 415.137881 177.959083 
L 425.673918 177.513891 
L 436.209954 176.256877 
L 446.745991 176.606047 
L 457.282027 175.383951 
L 467.818064 125.670794 
L 478.354101 130.759955 
L 488.890137 134.469892 
L 499.426174 133.370005 
L 509.962211 132.933542 
L 520.498247 133.90249 
L 531.034284 133.370005 
L 541.57032 132.182825 
L 552.106357 132.558183 
L 562.642394 131.615423 
L 573.17843 130.925811 
L 583.714467 130.445702 
L 594.250504 128.813329 
L 604.78654 131.039292 
L 631.126632 129.092666 
L 657.466723 128.106259 
L 683.806815 127.678525 
L 710.146906 125.880297 
L 736.486998 125.269248 
L 762.82709 123.008369 
L 789.167181 122.563177 
L 815.507273 119.027825 
L 815.507273 117.447828 
L 815.507273 117.447828 
L 789.167181 120.98318 
L 762.82709 121.437102 
L 736.486998 123.697981 
L 710.146906 124.309029 
L 683.806815 126.098528 
L 657.466723 126.534992 
L 631.126632 127.512669 
L 604.78654 129.468024 
L 594.250504 127.242062 
L 583.714467 128.883163 
L 573.17843 129.354544 
L 562.642394 130.052885 
L 552.106357 130.986916 
L 541.57032 130.611558 
L 531.034284 131.798737 
L 520.498247 132.331223 
L 509.962211 131.371004 
L 499.426174 131.807467 
L 488.890137 132.907354 
L 478.354101 129.197417 
L 467.818064 124.099527 
L 457.282027 174.572129 
L 446.745991 175.785497 
L 436.209954 175.436326 
L 425.673918 176.702069 
L 415.137881 177.138533 
L 404.601844 177.775769 
L 394.065808 178.413005 
L 383.529771 178.526485 
L 372.993734 179.469246 
L 362.457698 179.469246 
L 351.921661 179.731124 
L 341.385625 179.722395 
L 336.117606 180.394548 
L 330.849588 180.315984 
L 325.58157 180.272338 
L 320.313551 180.778635 
L 315.045533 180.831011 
L 309.777515 182.393549 
L 304.509496 182.061837 
L 299.241478 180.525487 
L 293.97346 181.450789 
L 288.705441 182.830012 
L 283.437423 180.350902 
L 278.169405 181.494435 
L 272.901387 181.188911 
L 267.633368 202.191519 
L 262.36535 202.662899 
L 257.097332 202.758921 
L 251.829313 202.53196 
L 246.561295 203.413616 
L 241.293277 203.518367 
L 236.025258 203.649306 
L 230.75724 203.850079 
L 225.489222 204.365106 
L 220.221203 204.426211 
L 214.953185 204.740464 
L 209.685167 204.766652 
L 204.417148 205.133281 
L 199.14913 205.456264 
L 193.881112 205.936373 
L 188.613094 205.945102 
L 183.345075 206.102229 
L 178.077057 206.128417 
L 172.809039 205.814163 
L 167.54102 216.917787 
L 162.273002 216.935245 
L 157.004984 217.380438 
L 151.736965 217.362979 
L 146.468947 217.912923 
L 141.200929 218.122425 
L 135.93291 218.5327 
L 130.664892 218.794578 
L 125.396874 218.951705 
L 120.128855 223.857551 
L 114.860837 224.058324 
L 109.592819 224.390036 
L 104.324801 224.547163 
L 99.056782 226.432684 
L 93.788764 226.71202 
L 88.520746 227.829366 
L 83.252727 228.117432 
z
" clip-path="url(#pb2b521ab33)" style="fill: #e377c2; fill-opacity: 0.7"/>
   </g>
   <g id="FillBetweenPolyCollection_8">
    <path d="M 83.252727 228.108703 
L 83.252727 228.117432 
L 88.520746 227.829366 
L 93.788764 226.71202 
L 99.056782 226.432684 
L 104.324801 224.547163 
L 109.592819 224.390036 
L 114.860837 224.058324 
L 120.128855 223.857551 
L 125.396874 218.951705 
L 130.664892 218.794578 
L 135.93291 218.5327 
L 141.200929 218.122425 
L 146.468947 217.912923 
L 151.736965 217.362979 
L 157.004984 217.380438 
L 162.273002 216.935245 
L 167.54102 216.917787 
L 172.809039 205.814163 
L 178.077057 206.128417 
L 183.345075 206.102229 
L 188.613094 205.945102 
L 193.881112 205.936373 
L 199.14913 205.456264 
L 204.417148 205.133281 
L 209.685167 204.766652 
L 214.953185 204.740464 
L 220.221203 204.426211 
L 225.489222 204.365106 
L 230.75724 203.850079 
L 236.025258 203.649306 
L 241.293277 203.518367 
L 246.561295 203.413616 
L 251.829313 202.53196 
L 257.097332 202.758921 
L 262.36535 202.662899 
L 267.633368 202.191519 
L 272.901387 181.188911 
L 278.169405 181.494435 
L 283.437423 180.350902 
L 288.705441 182.830012 
L 293.97346 181.450789 
L 299.241478 180.525487 
L 304.509496 182.061837 
L 309.777515 182.393549 
L 315.045533 180.831011 
L 320.313551 180.778635 
L 325.58157 180.272338 
L 330.849588 180.315984 
L 336.117606 180.394548 
L 341.385625 179.722395 
L 351.921661 179.731124 
L 362.457698 179.469246 
L 372.993734 179.469246 
L 383.529771 178.526485 
L 394.065808 178.413005 
L 404.601844 177.775769 
L 415.137881 177.138533 
L 425.673918 176.702069 
L 436.209954 175.436326 
L 446.745991 175.785497 
L 457.282027 174.572129 
L 467.818064 124.099527 
L 478.354101 129.197417 
L 488.890137 132.907354 
L 499.426174 131.807467 
L 509.962211 131.371004 
L 520.498247 132.331223 
L 531.034284 131.798737 
L 541.57032 130.611558 
L 552.106357 130.986916 
L 562.642394 130.052885 
L 573.17843 129.354544 
L 583.714467 128.883163 
L 594.250504 127.242062 
L 604.78654 129.468024 
L 631.126632 127.512669 
L 657.466723 126.534992 
L 683.806815 126.098528 
L 710.146906 124.309029 
L 736.486998 123.697981 
L 762.82709 121.437102 
L 789.167181 120.98318 
L 815.507273 117.447828 
L 815.507273 114.671922 
L 815.507273 114.671922 
L 789.167181 118.216003 
L 762.82709 118.687384 
L 736.486998 120.956992 
L 710.146906 121.594228 
L 683.806815 123.401186 
L 657.466723 123.855108 
L 631.126632 124.841514 
L 604.78654 126.823057 
L 594.250504 124.597095 
L 583.714467 126.255655 
L 573.17843 126.718306 
L 562.642394 127.416647 
L 552.106357 128.368137 
L 541.57032 127.992779 
L 531.034284 129.188688 
L 520.498247 129.721173 
L 509.962211 128.769683 
L 499.426174 129.223605 
L 488.890137 130.314763 
L 478.354101 126.622284 
L 467.818064 121.533124 
L 457.282027 173.044508 
L 446.745991 174.999863 
L 436.209954 174.231688 
L 425.673918 175.200636 
L 415.137881 175.645828 
L 404.601844 176.291794 
L 394.065808 176.920301 
L 383.529771 177.05124 
L 372.993734 178.00273 
L 362.457698 178.186044 
L 351.921661 178.282066 
L 341.385625 178.273337 
L 336.117606 178.954219 
L 330.849588 178.936761 
L 325.58157 178.840739 
L 320.313551 179.364495 
L 315.045533 179.408141 
L 309.777515 181.145265 
L 304.509496 181.651562 
L 299.241478 179.111346 
L 293.97346 180.106482 
L 288.705441 182.306257 
L 283.437423 179.006595 
L 278.169405 180.263609 
L 272.901387 180.045377 
L 267.633368 201.432073 
L 262.36535 201.93837 
L 257.097332 202.016934 
L 251.829313 201.781244 
L 246.561295 202.671629 
L 241.293277 202.811297 
L 236.025258 202.916048 
L 230.75724 203.143009 
L 225.489222 203.710411 
L 220.221203 203.701682 
L 214.953185 204.042123 
L 209.685167 204.050852 
L 204.417148 204.408752 
L 199.14913 204.801569 
L 193.881112 205.307866 
L 188.613094 205.325325 
L 183.345075 205.447534 
L 178.077057 205.552286 
L 172.809039 205.238032 
L 167.54102 216.629721 
L 162.273002 216.64718 
L 157.004984 217.092372 
L 151.736965 217.092372 
L 146.468947 217.773255 
L 141.200929 217.851818 
L 135.93291 218.401762 
L 130.664892 218.663639 
L 125.396874 218.689827 
L 120.128855 223.787717 
L 114.860837 223.936115 
L 109.592819 224.276556 
L 104.324801 224.442412 
L 99.056782 226.406496 
L 93.788764 226.685833 
L 88.520746 227.811908 
L 83.252727 228.108703 
z
" clip-path="url(#pb2b521ab33)" style="fill: #7f7f7f; fill-opacity: 0.7"/>
   </g>
   <g id="FillBetweenPolyCollection_9">
    <path d="M 83.252727 228.099973 
L 83.252727 228.108703 
L 88.520746 227.811908 
L 93.788764 226.685833 
L 99.056782 226.406496 
L 104.324801 224.442412 
L 109.592819 224.276556 
L 114.860837 223.936115 
L 120.128855 223.787717 
L 125.396874 218.689827 
L 130.664892 218.663639 
L 135.93291 218.401762 
L 141.200929 217.851818 
L 146.468947 217.773255 
L 151.736965 217.092372 
L 157.004984 217.092372 
L 162.273002 216.64718 
L 167.54102 216.629721 
L 172.809039 205.238032 
L 178.077057 205.552286 
L 183.345075 205.447534 
L 188.613094 205.325325 
L 193.881112 205.307866 
L 199.14913 204.801569 
L 204.417148 204.408752 
L 209.685167 204.050852 
L 214.953185 204.042123 
L 220.221203 203.701682 
L 225.489222 203.710411 
L 230.75724 203.143009 
L 236.025258 202.916048 
L 241.293277 202.811297 
L 246.561295 202.671629 
L 251.829313 201.781244 
L 257.097332 202.016934 
L 262.36535 201.93837 
L 267.633368 201.432073 
L 272.901387 180.045377 
L 278.169405 180.263609 
L 283.437423 179.006595 
L 288.705441 182.306257 
L 293.97346 180.106482 
L 299.241478 179.111346 
L 304.509496 181.651562 
L 309.777515 181.145265 
L 315.045533 179.408141 
L 320.313551 179.364495 
L 325.58157 178.840739 
L 330.849588 178.936761 
L 336.117606 178.954219 
L 341.385625 178.273337 
L 351.921661 178.282066 
L 362.457698 178.186044 
L 372.993734 178.00273 
L 383.529771 177.05124 
L 394.065808 176.920301 
L 404.601844 176.291794 
L 415.137881 175.645828 
L 425.673918 175.200636 
L 436.209954 174.231688 
L 446.745991 174.999863 
L 457.282027 173.044508 
L 467.818064 121.533124 
L 478.354101 126.622284 
L 488.890137 130.314763 
L 499.426174 129.223605 
L 509.962211 128.769683 
L 520.498247 129.721173 
L 531.034284 129.188688 
L 541.57032 127.992779 
L 552.106357 128.368137 
L 562.642394 127.416647 
L 573.17843 126.718306 
L 583.714467 126.255655 
L 594.250504 124.597095 
L 604.78654 126.823057 
L 631.126632 124.841514 
L 657.466723 123.855108 
L 683.806815 123.401186 
L 710.146906 121.594228 
L 736.486998 120.956992 
L 762.82709 118.687384 
L 789.167181 118.216003 
L 815.507273 114.671922 
L 815.507273 114.663193 
L 815.507273 114.663193 
L 789.167181 118.207274 
L 762.82709 118.678654 
L 736.486998 120.948263 
L 710.146906 121.585499 
L 683.806815 123.392457 
L 657.466723 123.846378 
L 631.126632 124.832785 
L 604.78654 126.814328 
L 594.250504 124.588366 
L 583.714467 126.246926 
L 573.17843 126.709577 
L 562.642394 127.407918 
L 552.106357 128.359408 
L 541.57032 127.984049 
L 531.034284 129.179958 
L 520.498247 129.712443 
L 509.962211 128.760954 
L 499.426174 129.214875 
L 488.890137 130.306033 
L 478.354101 126.613555 
L 467.818064 121.524394 
L 457.282027 173.035779 
L 446.745991 174.991134 
L 436.209954 174.222959 
L 425.673918 175.191907 
L 415.137881 175.637099 
L 404.601844 176.283065 
L 394.065808 176.911572 
L 383.529771 177.042511 
L 372.993734 177.994 
L 362.457698 178.177315 
L 351.921661 178.273337 
L 341.385625 178.264608 
L 336.117606 178.94549 
L 330.849588 178.928032 
L 325.58157 178.83201 
L 320.313551 179.355765 
L 315.045533 179.399412 
L 309.777515 181.136535 
L 304.509496 181.642833 
L 299.241478 179.102617 
L 293.97346 180.097753 
L 288.705441 182.297527 
L 283.437423 178.997866 
L 278.169405 180.25488 
L 272.901387 180.036648 
L 267.633368 201.423344 
L 262.36535 201.929641 
L 257.097332 202.008204 
L 251.829313 201.772514 
L 246.561295 202.662899 
L 241.293277 202.802567 
L 236.025258 202.907319 
L 230.75724 203.134279 
L 225.489222 203.701682 
L 220.221203 203.692952 
L 214.953185 204.033394 
L 209.685167 204.042123 
L 204.417148 204.400023 
L 199.14913 204.79284 
L 193.881112 205.299137 
L 188.613094 205.316595 
L 183.345075 205.438805 
L 178.077057 205.543556 
L 172.809039 205.229303 
L 167.54102 216.620992 
L 162.273002 216.63845 
L 157.004984 217.083643 
L 151.736965 217.083643 
L 146.468947 217.764525 
L 141.200929 217.843089 
L 135.93291 218.393032 
L 130.664892 218.65491 
L 125.396874 218.681098 
L 120.128855 223.778988 
L 114.860837 223.927385 
L 109.592819 224.267827 
L 104.324801 224.433683 
L 99.056782 226.397767 
L 93.788764 226.677103 
L 88.520746 227.803178 
L 83.252727 228.099973 
z
" clip-path="url(#pb2b521ab33)" style="fill: #bcbd22; fill-opacity: 0.7"/>
   </g>
   <g id="FillBetweenPolyCollection_10">
    <path d="M 83.252727 226.938981 
L 83.252727 228.099973 
L 88.520746 227.803178 
L 93.788764 226.677103 
L 99.056782 226.397767 
L 104.324801 224.433683 
L 109.592819 224.267827 
L 114.860837 223.927385 
L 120.128855 223.778988 
L 125.396874 218.681098 
L 130.664892 218.65491 
L 135.93291 218.393032 
L 141.200929 217.843089 
L 146.468947 217.764525 
L 151.736965 217.083643 
L 157.004984 217.083643 
L 162.273002 216.63845 
L 167.54102 216.620992 
L 172.809039 205.229303 
L 178.077057 205.543556 
L 183.345075 205.438805 
L 188.613094 205.316595 
L 193.881112 205.299137 
L 199.14913 204.79284 
L 204.417148 204.400023 
L 209.685167 204.042123 
L 214.953185 204.033394 
L 220.221203 203.692952 
L 225.489222 203.701682 
L 230.75724 203.134279 
L 236.025258 202.907319 
L 241.293277 202.802567 
L 246.561295 202.662899 
L 251.829313 201.772514 
L 257.097332 202.008204 
L 262.36535 201.929641 
L 267.633368 201.423344 
L 272.901387 180.036648 
L 278.169405 180.25488 
L 283.437423 178.997866 
L 288.705441 182.297527 
L 293.97346 180.097753 
L 299.241478 179.102617 
L 304.509496 181.642833 
L 309.777515 181.136535 
L 315.045533 179.399412 
L 320.313551 179.355765 
L 325.58157 178.83201 
L 330.849588 178.928032 
L 336.117606 178.94549 
L 341.385625 178.264608 
L 351.921661 178.273337 
L 362.457698 178.177315 
L 372.993734 177.994 
L 383.529771 177.042511 
L 394.065808 176.911572 
L 404.601844 176.283065 
L 415.137881 175.637099 
L 425.673918 175.191907 
L 436.209954 174.222959 
L 446.745991 174.991134 
L 457.282027 173.035779 
L 467.818064 121.524394 
L 478.354101 126.613555 
L 488.890137 130.306033 
L 499.426174 129.214875 
L 509.962211 128.760954 
L 520.498247 129.712443 
L 531.034284 129.179958 
L 541.57032 127.984049 
L 552.106357 128.359408 
L 562.642394 127.407918 
L 573.17843 126.709577 
L 583.714467 126.246926 
L 594.250504 124.588366 
L 604.78654 126.814328 
L 631.126632 124.832785 
L 657.466723 123.846378 
L 683.806815 123.392457 
L 710.146906 121.585499 
L 736.486998 120.948263 
L 762.82709 118.678654 
L 789.167181 118.207274 
L 815.507273 114.663193 
L 815.507273 87.235847 
L 815.507273 87.235847 
L 789.167181 90.814845 
L 762.82709 91.364789 
L 736.486998 93.643126 
L 710.146906 94.393843 
L 683.806815 96.20953 
L 657.466723 96.750744 
L 631.126632 97.719692 
L 604.78654 99.779799 
L 594.250504 97.606212 
L 583.714467 99.352065 
L 573.17843 99.76234 
L 562.642394 100.417035 
L 552.106357 101.429629 
L 541.57032 101.097917 
L 531.034284 102.215263 
L 520.498247 102.878687 
L 509.962211 101.953385 
L 499.426174 102.354931 
L 488.890137 103.550841 
L 478.354101 99.840904 
L 467.818064 94.804118 
L 457.282027 158.841996 
L 446.745991 163.136794 
L 436.209954 162.455911 
L 425.673918 163.459777 
L 415.137881 161.530609 
L 404.601844 162.333702 
L 394.065808 162.796352 
L 383.529771 162.927291 
L 372.993734 163.922427 
L 362.457698 164.105742 
L 351.921661 164.262869 
L 341.385625 164.271598 
L 336.117606 164.996127 
L 330.849588 164.935022 
L 325.58157 164.891376 
L 320.313551 167.833138 
L 315.045533 167.972806 
L 309.777515 167.152255 
L 304.509496 167.606177 
L 299.241478 165.170712 
L 293.97346 166.14839 
L 288.705441 168.321976 
L 283.437423 164.996127 
L 278.169405 166.296787 
L 272.901387 166.104743 
L 267.633368 193.959823 
L 262.36535 194.466121 
L 257.097332 194.457391 
L 251.829313 194.300265 
L 246.561295 195.269213 
L 241.293277 195.312859 
L 236.025258 195.496174 
L 230.75724 195.731864 
L 225.489222 196.220703 
L 220.221203 196.290537 
L 214.953185 196.674624 
L 209.685167 196.61352 
L 204.417148 197.049983 
L 199.14913 197.381695 
L 193.881112 197.853075 
L 188.613094 197.879263 
L 183.345075 198.010202 
L 178.077057 197.783241 
L 172.809039 197.565009 
L 167.54102 212.37857 
L 162.273002 212.457133 
L 157.004984 212.876138 
L 151.736965 212.954701 
L 146.468947 213.591937 
L 141.200929 213.626854 
L 135.93291 214.220444 
L 130.664892 214.525968 
L 125.396874 214.447405 
L 120.128855 221.02927 
L 114.860837 221.212584 
L 109.592819 221.544296 
L 104.324801 221.710152 
L 99.056782 224.70429 
L 93.788764 225.079648 
L 88.520746 226.633457 
L 83.252727 226.938981 
z
" clip-path="url(#pb2b521ab33)" style="fill: #17becf; fill-opacity: 0.7"/>
   </g>
   <g id="FillBetweenPolyCollection_11">
    <path d="M 83.252727 226.904064 
L 83.252727 226.938981 
L 88.520746 226.633457 
L 93.788764 225.079648 
L 99.056782 224.70429 
L 104.324801 221.710152 
L 109.592819 221.544296 
L 114.860837 221.212584 
L 120.128855 221.02927 
L 125.396874 214.447405 
L 130.664892 214.525968 
L 135.93291 214.220444 
L 141.200929 213.626854 
L 146.468947 213.591937 
L 151.736965 212.954701 
L 157.004984 212.876138 
L 162.273002 212.457133 
L 167.54102 212.37857 
L 172.809039 197.565009 
L 178.077057 197.783241 
L 183.345075 198.010202 
L 188.613094 197.879263 
L 193.881112 197.853075 
L 199.14913 197.381695 
L 204.417148 197.049983 
L 209.685167 196.61352 
L 214.953185 196.674624 
L 220.221203 196.290537 
L 225.489222 196.220703 
L 230.75724 195.731864 
L 236.025258 195.496174 
L 241.293277 195.312859 
L 246.561295 195.269213 
L 251.829313 194.300265 
L 257.097332 194.457391 
L 262.36535 194.466121 
L 267.633368 193.959823 
L 272.901387 166.104743 
L 278.169405 166.296787 
L 283.437423 164.996127 
L 288.705441 168.321976 
L 293.97346 166.14839 
L 299.241478 165.170712 
L 304.509496 167.606177 
L 309.777515 167.152255 
L 315.045533 167.972806 
L 320.313551 167.833138 
L 325.58157 164.891376 
L 330.849588 164.935022 
L 336.117606 164.996127 
L 341.385625 164.271598 
L 351.921661 164.262869 
L 362.457698 164.105742 
L 372.993734 163.922427 
L 383.529771 162.927291 
L 394.065808 162.796352 
L 404.601844 162.333702 
L 415.137881 161.530609 
L 425.673918 163.459777 
L 436.209954 162.455911 
L 446.745991 163.136794 
L 457.282027 158.841996 
L 467.818064 94.804118 
L 478.354101 99.840904 
L 488.890137 103.550841 
L 499.426174 102.354931 
L 509.962211 101.953385 
L 520.498247 102.878687 
L 531.034284 102.215263 
L 541.57032 101.097917 
L 552.106357 101.429629 
L 562.642394 100.417035 
L 573.17843 99.76234 
L 583.714467 99.352065 
L 594.250504 97.606212 
L 604.78654 99.779799 
L 631.126632 97.719692 
L 657.466723 96.750744 
L 683.806815 96.20953 
L 710.146906 94.393843 
L 736.486998 93.643126 
L 762.82709 91.364789 
L 789.167181 90.814845 
L 815.507273 87.235847 
L 815.507273 85.629662 
L 815.507273 85.629662 
L 789.167181 89.21739 
L 762.82709 89.793521 
L 736.486998 92.045671 
L 710.146906 92.813846 
L 683.806815 94.646992 
L 657.466723 95.196935 
L 631.126632 96.122237 
L 604.78654 98.208531 
L 594.250504 96.026215 
L 583.714467 97.763339 
L 573.17843 98.199802 
L 562.642394 98.880685 
L 552.106357 99.875821 
L 541.57032 99.552838 
L 531.034284 100.678913 
L 520.498247 101.342337 
L 509.962211 100.408306 
L 499.426174 100.774935 
L 488.890137 102.023219 
L 478.354101 98.295824 
L 467.818064 93.276497 
L 457.282027 158.073821 
L 446.745991 162.47337 
L 436.209954 161.801216 
L 425.673918 162.70906 
L 415.137881 160.762434 
L 404.601844 161.582985 
L 394.065808 162.028177 
L 383.529771 162.167845 
L 372.993734 163.171711 
L 362.457698 163.346296 
L 351.921661 163.512152 
L 341.385625 163.520881 
L 336.117606 164.24541 
L 330.849588 164.193035 
L 325.58157 164.149388 
L 320.313551 167.073692 
L 315.045533 167.222089 
L 309.777515 166.392809 
L 304.509496 166.995128 
L 299.241478 164.428725 
L 293.97346 165.406402 
L 288.705441 167.606177 
L 283.437423 164.254139 
L 278.169405 165.5548 
L 272.901387 165.380214 
L 267.633368 193.584465 
L 262.36535 194.082033 
L 257.097332 194.082033 
L 251.829313 193.924906 
L 246.561295 194.885125 
L 241.293277 194.937501 
L 236.025258 195.120816 
L 230.75724 195.365235 
L 225.489222 195.845344 
L 220.221203 195.923908 
L 214.953185 196.307995 
L 209.685167 196.246891 
L 204.417148 196.674624 
L 199.14913 197.015066 
L 193.881112 197.486446 
L 188.613094 197.512634 
L 183.345075 197.652302 
L 178.077057 197.416612 
L 172.809039 197.20711 
L 167.54102 212.195255 
L 162.273002 212.282548 
L 157.004984 212.692823 
L 151.736965 212.780116 
L 146.468947 213.434811 
L 141.200929 213.452269 
L 135.93291 214.072047 
L 130.664892 214.377571 
L 125.396874 214.264091 
L 120.128855 220.950706 
L 114.860837 221.14275 
L 109.592819 221.474462 
L 104.324801 221.640318 
L 99.056782 224.669373 
L 93.788764 225.036002 
L 88.520746 226.607269 
L 83.252727 226.904064 
z
" clip-path="url(#pb2b521ab33)" style="fill: #1f77b4; fill-opacity: 0.7"/>
   </g>
   <g id="FillBetweenPolyCollection_12">
    <path d="M 83.252727 226.013679 
L 83.252727 226.904064 
L 88.520746 226.607269 
L 93.788764 225.036002 
L 99.056782 224.669373 
L 104.324801 221.640318 
L 109.592819 221.474462 
L 114.860837 221.14275 
L 120.128855 220.950706 
L 125.396874 214.264091 
L 130.664892 214.377571 
L 135.93291 214.072047 
L 141.200929 213.452269 
L 146.468947 213.434811 
L 151.736965 212.780116 
L 157.004984 212.692823 
L 162.273002 212.282548 
L 167.54102 212.195255 
L 172.809039 197.20711 
L 178.077057 197.416612 
L 183.345075 197.652302 
L 188.613094 197.512634 
L 193.881112 197.486446 
L 199.14913 197.015066 
L 204.417148 196.674624 
L 209.685167 196.246891 
L 214.953185 196.307995 
L 220.221203 195.923908 
L 225.489222 195.845344 
L 230.75724 195.365235 
L 236.025258 195.120816 
L 241.293277 194.937501 
L 246.561295 194.885125 
L 251.829313 193.924906 
L 257.097332 194.082033 
L 262.36535 194.082033 
L 267.633368 193.584465 
L 272.901387 165.380214 
L 278.169405 165.5548 
L 283.437423 164.254139 
L 288.705441 167.606177 
L 293.97346 165.406402 
L 299.241478 164.428725 
L 304.509496 166.995128 
L 309.777515 166.392809 
L 315.045533 167.222089 
L 320.313551 167.073692 
L 325.58157 164.149388 
L 330.849588 164.193035 
L 336.117606 164.24541 
L 341.385625 163.520881 
L 351.921661 163.512152 
L 362.457698 163.346296 
L 372.993734 163.171711 
L 383.529771 162.167845 
L 394.065808 162.028177 
L 404.601844 161.582985 
L 415.137881 160.762434 
L 425.673918 162.70906 
L 436.209954 161.801216 
L 446.745991 162.47337 
L 457.282027 158.073821 
L 467.818064 93.276497 
L 478.354101 98.295824 
L 488.890137 102.023219 
L 499.426174 100.774935 
L 509.962211 100.408306 
L 520.498247 101.342337 
L 531.034284 100.678913 
L 541.57032 99.552838 
L 552.106357 99.875821 
L 562.642394 98.880685 
L 573.17843 98.199802 
L 583.714467 97.763339 
L 594.250504 96.026215 
L 604.78654 98.208531 
L 631.126632 96.122237 
L 657.466723 95.196935 
L 683.806815 94.646992 
L 710.146906 92.813846 
L 736.486998 92.045671 
L 762.82709 89.793521 
L 789.167181 89.21739 
L 815.507273 85.629662 
L 815.507273 38.587661 
L 815.507273 38.587661 
L 789.167181 42.576934 
L 762.82709 44.05218 
L 736.486998 46.993942 
L 710.146906 48.181122 
L 683.806815 50.660232 
L 657.466723 51.04432 
L 631.126632 52.842548 
L 604.78654 55.932708 
L 594.250504 54.073375 
L 583.714467 56.072376 
L 573.17843 56.709612 
L 562.642394 57.599997 
L 552.106357 58.979221 
L 541.57032 58.595133 
L 531.034284 59.965627 
L 520.498247 60.864742 
L 509.962211 60.227505 
L 499.426174 60.742532 
L 488.890137 62.147943 
L 478.354101 58.822094 
L 467.818064 53.898789 
L 457.282027 134.417517 
L 446.745991 138.974192 
L 436.209954 138.747231 
L 425.673918 139.82966 
L 415.137881 138.214746 
L 404.601844 139.305904 
L 394.065808 140.012975 
L 383.529771 140.440708 
L 372.993734 141.715181 
L 362.457698 142.160373 
L 351.921661 142.422251 
L 341.385625 142.780151 
L 336.117606 143.557056 
L 330.849588 143.696724 
L 325.58157 143.775287 
L 320.313551 146.743237 
L 315.045533 146.882905 
L 309.777515 145.99252 
L 304.509496 146.69959 
L 299.241478 144.316501 
L 293.97346 145.302908 
L 288.705441 147.555058 
L 283.437423 144.264126 
L 278.169405 146.027437 
L 272.901387 145.529869 
L 267.633368 176.728257 
L 262.36535 177.252013 
L 257.097332 177.574996 
L 251.829313 178.020188 
L 246.561295 178.255878 
L 241.293277 179.504163 
L 236.025258 179.914438 
L 230.75724 179.975543 
L 225.489222 180.647697 
L 220.221203 180.315984 
L 214.953185 181.136535 
L 209.685167 181.328579 
L 204.417148 181.983274 
L 199.14913 182.288798 
L 193.881112 186.941496 
L 188.613094 186.635971 
L 183.345075 185.536084 
L 178.077057 187.491439 
L 172.809039 187.299395 
L 167.54102 206.259356 
L 162.273002 206.503775 
L 157.004984 207.079907 
L 151.736965 207.315597 
L 146.468947 208.040126 
L 141.200929 208.214711 
L 135.93291 208.93924 
L 130.664892 209.349515 
L 125.396874 209.349515 
L 120.128855 217.188394 
L 114.860837 217.563752 
L 109.592819 218.026403 
L 104.324801 218.323198 
L 99.056782 223.115564 
L 93.788764 223.63059 
L 88.520746 225.577216 
L 83.252727 226.013679 
z
" clip-path="url(#pb2b521ab33)" style="fill: #ff7f0e; fill-opacity: 0.7"/>
   </g>
   <g id="FillBetweenPolyCollection_13">
    <path d="M 83.252727 226.00495 
L 83.252727 226.013679 
L 88.520746 225.577216 
L 93.788764 223.63059 
L 99.056782 223.115564 
L 104.324801 218.323198 
L 109.592819 218.026403 
L 114.860837 217.563752 
L 120.128855 217.188394 
L 125.396874 209.349515 
L 130.664892 209.349515 
L 135.93291 208.93924 
L 141.200929 208.214711 
L 146.468947 208.040126 
L 151.736965 207.315597 
L 157.004984 207.079907 
L 162.273002 206.503775 
L 167.54102 206.259356 
L 172.809039 187.299395 
L 178.077057 187.491439 
L 183.345075 185.536084 
L 188.613094 186.635971 
L 193.881112 186.941496 
L 199.14913 182.288798 
L 204.417148 181.983274 
L 209.685167 181.328579 
L 214.953185 181.136535 
L 220.221203 180.315984 
L 225.489222 180.647697 
L 230.75724 179.975543 
L 236.025258 179.914438 
L 241.293277 179.504163 
L 246.561295 178.255878 
L 251.829313 178.020188 
L 257.097332 177.574996 
L 262.36535 177.252013 
L 267.633368 176.728257 
L 272.901387 145.529869 
L 278.169405 146.027437 
L 283.437423 144.264126 
L 288.705441 147.555058 
L 293.97346 145.302908 
L 299.241478 144.316501 
L 304.509496 146.69959 
L 309.777515 145.99252 
L 315.045533 146.882905 
L 320.313551 146.743237 
L 325.58157 143.775287 
L 330.849588 143.696724 
L 336.117606 143.557056 
L 341.385625 142.780151 
L 351.921661 142.422251 
L 362.457698 142.160373 
L 372.993734 141.715181 
L 383.529771 140.440708 
L 394.065808 140.012975 
L 404.601844 139.305904 
L 415.137881 138.214746 
L 425.673918 139.82966 
L 436.209954 138.747231 
L 446.745991 138.974192 
L 457.282027 134.417517 
L 467.818064 53.898789 
L 478.354101 58.822094 
L 488.890137 62.147943 
L 499.426174 60.742532 
L 509.962211 60.227505 
L 520.498247 60.864742 
L 531.034284 59.965627 
L 541.57032 58.595133 
L 552.106357 58.979221 
L 562.642394 57.599997 
L 573.17843 56.709612 
L 583.714467 56.072376 
L 594.250504 54.073375 
L 604.78654 55.932708 
L 631.126632 52.842548 
L 657.466723 51.04432 
L 683.806815 50.660232 
L 710.146906 48.181122 
L 736.486998 46.993942 
L 762.82709 44.05218 
L 789.167181 42.576934 
L 815.507273 38.587661 
L 815.507273 36.885455 
L 815.507273 36.885455 
L 789.167181 40.857269 
L 762.82709 42.419808 
L 736.486998 45.248089 
L 710.146906 46.54002 
L 683.806815 49.010402 
L 657.466723 49.394489 
L 631.126632 51.122883 
L 604.78654 54.134479 
L 594.250504 52.310063 
L 583.714467 54.256689 
L 573.17843 54.972489 
L 562.642394 55.897791 
L 552.106357 57.277014 
L 541.57032 56.962761 
L 531.034284 58.27215 
L 520.498247 59.171264 
L 509.962211 58.560216 
L 499.426174 58.961762 
L 488.890137 60.454466 
L 478.354101 57.180992 
L 467.818064 52.240229 
L 457.282027 133.658071 
L 446.745991 138.432978 
L 436.209954 138.223475 
L 425.673918 139.12259 
L 415.137881 137.411654 
L 404.601844 138.52027 
L 394.065808 139.23607 
L 383.529771 139.751097 
L 372.993734 141.086674 
L 362.457698 141.505679 
L 351.921661 141.750098 
L 341.385625 142.073081 
L 336.117606 142.858714 
L 330.849588 143.02457 
L 325.58157 143.042029 
L 320.313551 146.079813 
L 315.045533 146.202022 
L 309.777515 145.364013 
L 304.509496 146.009979 
L 299.241478 143.705453 
L 293.97346 144.718048 
L 288.705441 146.917822 
L 283.437423 143.565785 
L 278.169405 145.267991 
L 272.901387 144.796611 
L 267.633368 176.422733 
L 262.36535 176.946489 
L 257.097332 177.243284 
L 251.829313 177.705935 
L 246.561295 177.967813 
L 241.293277 179.207368 
L 236.025258 179.617643 
L 230.75724 179.617643 
L 225.489222 180.324714 
L 220.221203 179.975543 
L 214.953185 180.857199 
L 209.685167 181.057972 
L 204.417148 181.66902 
L 199.14913 181.948357 
L 193.881112 186.609784 
L 188.613094 186.269342 
L 183.345075 185.213101 
L 178.077057 187.116081 
L 172.809039 186.958954 
L 167.54102 206.102229 
L 162.273002 206.346648 
L 157.004984 206.931509 
L 151.736965 207.15847 
L 146.468947 207.891728 
L 141.200929 208.057584 
L 135.93291 208.808301 
L 130.664892 209.201118 
L 125.396874 209.183659 
L 120.128855 217.127289 
L 114.860837 217.511377 
L 109.592819 217.965298 
L 104.324801 218.270823 
L 99.056782 223.089376 
L 93.788764 223.604403 
L 88.520746 225.559758 
L 83.252727 226.00495 
z
" clip-path="url(#pb2b521ab33)" style="fill: #2ca02c; fill-opacity: 0.7"/>
   </g>
   <g id="matplotlib.axis_1">
    <g id="xtick_1">
     <g id="line2d_1">
      <path d="M 77.984709 244.48 
L 77.984709 27 
" clip-path="url(#pb2b521ab33)" style="fill: none; stroke: #b0b0b0; stroke-opacity: 0.25; stroke-width: 0.8; stroke-linecap: square"/>
     </g>
     <g id="line2d_2">
      <defs>
       <path id="m7c4d574cad" d="M 0 0 
L 0 3.5 
" style="stroke: #000000; stroke-width: 0.8"/>
      </defs>
      <g>
       <use xlink:href="#m7c4d574cad" x="77.984709" y="244.48" style="stroke: #000000; stroke-width: 0.8"/>
      </g>
     </g>
     <g id="text_1">
      <!-- 0 -->
      <g transform="translate(74.803459 259.078438) scale(0.1 -0.1)">
       <defs>
        <path id="DejaVuSans-30" d="M 2034 4250 
Q 1547 4250 1301 3770 
Q 1056 3291 1056 2328 
Q 1056 1369 1301 889 
Q 1547 409 2034 409 
Q 2525 409 2770 889 
Q 3016 1369 3016 2328 
Q 3016 3291 2770 3770 
Q 2525 4250 2034 4250 
z
M 2034 4750 
Q 2819 4750 3233 4129 
Q 3647 3509 3647 2328 
Q 3647 1150 3233 529 
Q 2819 -91 2034 -91 
Q 1250 -91 836 529 
Q 422 1150 422 2328 
Q 422 3509 836 4129 
Q 1250 4750 2034 4750 
z
" transform="scale(0.015625)"/>
       </defs>
       <use xlink:href="#DejaVuSans-30"/>
      </g>
     </g>
    </g>
    <g id="xtick_2">
     <g id="line2d_3">
      <path d="M 183.345075 244.48 
L 183.345075 27 
" clip-path="url(#pb2b521ab33)" style="fill: none; stroke: #b0b0b0; stroke-opacity: 0.25; stroke-width: 0.8; stroke-linecap: square"/>
     </g>
     <g id="line2d_4">
      <g>
       <use xlink:href="#m7c4d574cad" x="183.345075" y="244.48" style="stroke: #000000; stroke-width: 0.8"/>
      </g>
     </g>
     <g id="text_2">
      <!-- 20 -->
      <g transform="translate(176.982575 259.078438) scale(0.1 -0.1)">
       <defs>
        <path id="DejaVuSans-32" d="M 1228 531 
L 3431 531 
L 3431 0 
L 469 0 
L 469 531 
Q 828 903 1448 1529 
Q 2069 2156 2228 2338 
Q 2531 2678 2651 2914 
Q 2772 3150 2772 3378 
Q 2772 3750 2511 3984 
Q 2250 4219 1831 4219 
Q 1534 4219 1204 4116 
Q 875 4013 500 3803 
L 500 4441 
Q 881 4594 1212 4672 
Q 1544 4750 1819 4750 
Q 2544 4750 2975 4387 
Q 3406 4025 3406 3419 
Q 3406 3131 3298 2873 
Q 3191 2616 2906 2266 
Q 2828 2175 2409 1742 
Q 1991 1309 1228 531 
z
" transform="scale(0.015625)"/>
       </defs>
       <use xlink:href="#DejaVuSans-32"/>
       <use xlink:href="#DejaVuSans-30" transform="translate(63.623047 0)"/>
      </g>
     </g>
    </g>
    <g id="xtick_3">
     <g id="line2d_5">
      <path d="M 288.705441 244.48 
L 288.705441 27 
" clip-path="url(#pb2b521ab33)" style="fill: none; stroke: #b0b0b0; stroke-opacity: 0.25; stroke-width: 0.8; stroke-linecap: square"/>
     </g>
     <g id="line2d_6">
      <g>
       <use xlink:href="#m7c4d574cad" x="288.705441" y="244.48" style="stroke: #000000; stroke-width: 0.8"/>
      </g>
     </g>
     <g id="text_3">
      <!-- 40 -->
      <g transform="translate(282.342941 259.078438) scale(0.1 -0.1)">
       <defs>
        <path id="DejaVuSans-34" d="M 2419 4116 
L 825 1625 
L 2419 1625 
L 2419 4116 
z
M 2253 4666 
L 3047 4666 
L 3047 1625 
L 3713 1625 
L 3713 1100 
L 3047 1100 
L 3047 0 
L 2419 0 
L 2419 1100 
L 313 1100 
L 313 1709 
L 2253 4666 
z
" transform="scale(0.015625)"/>
       </defs>
       <use xlink:href="#DejaVuSans-34"/>
       <use xlink:href="#DejaVuSans-30" transform="translate(63.623047 0)"/>
      </g>
     </g>
    </g>
    <g id="xtick_4">
     <g id="line2d_7">
      <path d="M 394.065808 244.48 
L 394.065808 27 
" clip-path="url(#pb2b521ab33)" style="fill: none; stroke: #b0b0b0; stroke-opacity: 0.25; stroke-width: 0.8; stroke-linecap: square"/>
     </g>
     <g id="line2d_8">
      <g>
       <use xlink:href="#m7c4d574cad" x="394.065808" y="244.48" style="stroke: #000000; stroke-width: 0.8"/>
      </g>
     </g>
     <g id="text_4">
      <!-- 60 -->
      <g transform="translate(387.703308 259.078438) scale(0.1 -0.1)">
       <defs>
        <path id="DejaVuSans-36" d="M 2113 2584 
Q 1688 2584 1439 2293 
Q 1191 2003 1191 1497 
Q 1191 994 1439 701 
Q 1688 409 2113 409 
Q 2538 409 2786 701 
Q 3034 994 3034 1497 
Q 3034 2003 2786 2293 
Q 2538 2584 2113 2584 
z
M 3366 4563 
L 3366 3988 
Q 3128 4100 2886 4159 
Q 2644 4219 2406 4219 
Q 1781 4219 1451 3797 
Q 1122 3375 1075 2522 
Q 1259 2794 1537 2939 
Q 1816 3084 2150 3084 
Q 2853 3084 3261 2657 
Q 3669 2231 3669 1497 
Q 3669 778 3244 343 
Q 2819 -91 2113 -91 
Q 1303 -91 875 529 
Q 447 1150 447 2328 
Q 447 3434 972 4092 
Q 1497 4750 2381 4750 
Q 2619 4750 2861 4703 
Q 3103 4656 3366 4563 
z
" transform="scale(0.015625)"/>
       </defs>
       <use xlink:href="#DejaVuSans-36"/>
       <use xlink:href="#DejaVuSans-30" transform="translate(63.623047 0)"/>
      </g>
     </g>
    </g>
    <g id="xtick_5">
     <g id="line2d_9">
      <path d="M 499.426174 244.48 
L 499.426174 27 
" clip-path="url(#pb2b521ab33)" style="fill: none; stroke: #b0b0b0; stroke-opacity: 0.25; stroke-width: 0.8; stroke-linecap: square"/>
     </g>
     <g id="line2d_10">
      <g>
       <use xlink:href="#m7c4d574cad" x="499.426174" y="244.48" style="stroke: #000000; stroke-width: 0.8"/>
      </g>
     </g>
     <g id="text_5">
      <!-- 80 -->
      <g transform="translate(493.063674 259.078438) scale(0.1 -0.1)">
       <defs>
        <path id="DejaVuSans-38" d="M 2034 2216 
Q 1584 2216 1326 1975 
Q 1069 1734 1069 1313 
Q 1069 891 1326 650 
Q 1584 409 2034 409 
Q 2484 409 2743 651 
Q 3003 894 3003 1313 
Q 3003 1734 2745 1975 
Q 2488 2216 2034 2216 
z
M 1403 2484 
Q 997 2584 770 2862 
Q 544 3141 544 3541 
Q 544 4100 942 4425 
Q 1341 4750 2034 4750 
Q 2731 4750 3128 4425 
Q 3525 4100 3525 3541 
Q 3525 3141 3298 2862 
Q 3072 2584 2669 2484 
Q 3125 2378 3379 2068 
Q 3634 1759 3634 1313 
Q 3634 634 3220 271 
Q 2806 -91 2034 -91 
Q 1263 -91 848 271 
Q 434 634 434 1313 
Q 434 1759 690 2068 
Q 947 2378 1403 2484 
z
M 1172 3481 
Q 1172 3119 1398 2916 
Q 1625 2713 2034 2713 
Q 2441 2713 2670 2916 
Q 2900 3119 2900 3481 
Q 2900 3844 2670 4047 
Q 2441 4250 2034 4250 
Q 1625 4250 1398 4047 
Q 1172 3844 1172 3481 
z
" transform="scale(0.015625)"/>
       </defs>
       <use xlink:href="#DejaVuSans-38"/>
       <use xlink:href="#DejaVuSans-30" transform="translate(63.623047 0)"/>
      </g>
     </g>
    </g>
    <g id="xtick_6">
     <g id="line2d_11">
      <path d="M 604.78654 244.48 
L 604.78654 27 
" clip-path="url(#pb2b521ab33)" style="fill: none; stroke: #b0b0b0; stroke-opacity: 0.25; stroke-width: 0.8; stroke-linecap: square"/>
     </g>
     <g id="line2d_12">
      <g>
       <use xlink:href="#m7c4d574cad" x="604.78654" y="244.48" style="stroke: #000000; stroke-width: 0.8"/>
      </g>
     </g>
     <g id="text_6">
      <!-- 100 -->
      <g transform="translate(595.24279 259.078438) scale(0.1 -0.1)">
       <defs>
        <path id="DejaVuSans-31" d="M 794 531 
L 1825 531 
L 1825 4091 
L 703 3866 
L 703 4441 
L 1819 4666 
L 2450 4666 
L 2450 531 
L 3481 531 
L 3481 0 
L 794 0 
L 794 531 
z
" transform="scale(0.015625)"/>
       </defs>
       <use xlink:href="#DejaVuSans-31"/>
       <use xlink:href="#DejaVuSans-30" transform="translate(63.623047 0)"/>
       <use xlink:href="#DejaVuSans-30" transform="translate(127.246094 0)"/>
      </g>
     </g>
    </g>
    <g id="xtick_7">
     <g id="line2d_13">
      <path d="M 710.146906 244.48 
L 710.146906 27 
" clip-path="url(#pb2b521ab33)" style="fill: none; stroke: #b0b0b0; stroke-opacity: 0.25; stroke-width: 0.8; stroke-linecap: square"/>
     </g>
     <g id="line2d_14">
      <g>
       <use xlink:href="#m7c4d574cad" x="710.146906" y="244.48" style="stroke: #000000; stroke-width: 0.8"/>
      </g>
     </g>
     <g id="text_7">
      <!-- 120 -->
      <g transform="translate(700.603156 259.078438) scale(0.1 -0.1)">
       <use xlink:href="#DejaVuSans-31"/>
       <use xlink:href="#DejaVuSans-32" transform="translate(63.623047 0)"/>
       <use xlink:href="#DejaVuSans-30" transform="translate(127.246094 0)"/>
      </g>
     </g>
    </g>
    <g id="xtick_8">
     <g id="line2d_15">
      <path d="M 815.507273 244.48 
L 815.507273 27 
" clip-path="url(#pb2b521ab33)" style="fill: none; stroke: #b0b0b0; stroke-opacity: 0.25; stroke-width: 0.8; stroke-linecap: square"/>
     </g>
     <g id="line2d_16">
      <g>
       <use xlink:href="#m7c4d574cad" x="815.507273" y="244.48" style="stroke: #000000; stroke-width: 0.8"/>
      </g>
     </g>
     <g id="text_8">
      <!-- 140 -->
      <g transform="translate(805.963523 259.078438) scale(0.1 -0.1)">
       <use xlink:href="#DejaVuSans-31"/>
       <use xlink:href="#DejaVuSans-34" transform="translate(63.623047 0)"/>
       <use xlink:href="#DejaVuSans-30" transform="translate(127.246094 0)"/>
      </g>
     </g>
    </g>
    <g id="text_9">
     <!-- Input -->
     <g transform="translate(435.138438 273.516406) scale(0.11 -0.11)">
      <defs>
       <path id="DejaVuSans-49" d="M 628 4666 
L 1259 4666 
L 1259 0 
L 628 0 
L 628 4666 
z
" transform="scale(0.015625)"/>
       <path id="DejaVuSans-6e" d="M 3513 2113 
L 3513 0 
L 2938 0 
L 2938 2094 
Q 2938 2591 2744 2837 
Q 2550 3084 2163 3084 
Q 1697 3084 1428 2787 
Q 1159 2491 1159 1978 
L 1159 0 
L 581 0 
L 581 3500 
L 1159 3500 
L 1159 2956 
Q 1366 3272 1645 3428 
Q 1925 3584 2291 3584 
Q 2894 3584 3203 3211 
Q 3513 2838 3513 2113 
z
" transform="scale(0.015625)"/>
       <path id="DejaVuSans-70" d="M 1159 525 
L 1159 -1331 
L 581 -1331 
L 581 3500 
L 1159 3500 
L 1159 2969 
Q 1341 3281 1617 3432 
Q 1894 3584 2278 3584 
Q 2916 3584 3314 3078 
Q 3713 2572 3713 1747 
Q 3713 922 3314 415 
Q 2916 -91 2278 -91 
Q 1894 -91 1617 61 
Q 1341 213 1159 525 
z
M 3116 1747 
Q 3116 2381 2855 2742 
Q 2594 3103 2138 3103 
Q 1681 3103 1420 2742 
Q 1159 2381 1159 1747 
Q 1159 1113 1420 752 
Q 1681 391 2138 391 
Q 2594 391 2855 752 
Q 3116 1113 3116 1747 
z
" transform="scale(0.015625)"/>
       <path id="DejaVuSans-75" d="M 544 1381 
L 544 3500 
L 1119 3500 
L 1119 1403 
Q 1119 906 1312 657 
Q 1506 409 1894 409 
Q 2359 409 2629 706 
Q 2900 1003 2900 1516 
L 2900 3500 
L 3475 3500 
L 3475 0 
L 2900 0 
L 2900 538 
Q 2691 219 2414 64 
Q 2138 -91 1772 -91 
Q 1169 -91 856 284 
Q 544 659 544 1381 
z
M 1991 3584 
L 1991 3584 
z
" transform="scale(0.015625)"/>
       <path id="DejaVuSans-74" d="M 1172 4494 
L 1172 3500 
L 2356 3500 
L 2356 3053 
L 1172 3053 
L 1172 1153 
Q 1172 725 1289 603 
Q 1406 481 1766 481 
L 2356 481 
L 2356 0 
L 1766 0 
Q 1100 0 847 248 
Q 594 497 594 1153 
L 594 3053 
L 172 3053 
L 172 3500 
L 594 3500 
L 594 4494 
L 1172 4494 
z
" transform="scale(0.015625)"/>
      </defs>
      <use xlink:href="#DejaVuSans-49"/>
      <use xlink:href="#DejaVuSans-6e" transform="translate(29.492188 0)"/>
      <use xlink:href="#DejaVuSans-70" transform="translate(92.871094 0)"/>
      <use xlink:href="#DejaVuSans-75" transform="translate(156.347656 0)"/>
      <use xlink:href="#DejaVuSans-74" transform="translate(219.726562 0)"/>
     </g>
    </g>
   </g>
   <g id="matplotlib.axis_2">
    <g id="ytick_1">
     <g id="line2d_17">
      <path d="M 46.64 234.594545 
L 852.12 234.594545 
" clip-path="url(#pb2b521ab33)" style="fill: none; stroke: #b0b0b0; stroke-opacity: 0.25; stroke-width: 0.8; stroke-linecap: square"/>
     </g>
     <g id="line2d_18">
      <defs>
       <path id="m1e5c21281c" d="M 0 0 
L -3.5 0 
" style="stroke: #000000; stroke-width: 0.8"/>
      </defs>
      <g>
       <use xlink:href="#m1e5c21281c" x="46.64" y="234.594545" style="stroke: #000000; stroke-width: 0.8"/>
      </g>
     </g>
     <g id="text_10">
      <!-- 0 -->
      <g transform="translate(33.2775 238.393764) scale(0.1 -0.1)">
       <use xlink:href="#DejaVuSans-30"/>
      </g>
     </g>
    </g>
    <g id="ytick_2">
     <g id="line2d_19">
      <path d="M 46.64 190.948228 
L 852.12 190.948228 
" clip-path="url(#pb2b521ab33)" style="fill: none; stroke: #b0b0b0; stroke-opacity: 0.25; stroke-width: 0.8; stroke-linecap: square"/>
     </g>
     <g id="line2d_20">
      <g>
       <use xlink:href="#m1e5c21281c" x="46.64" y="190.948228" style="stroke: #000000; stroke-width: 0.8"/>
      </g>
     </g>
     <g id="text_11">
      <!-- 5 -->
      <g transform="translate(33.2775 194.747446) scale(0.1 -0.1)">
       <defs>
        <path id="DejaVuSans-35" d="M 691 4666 
L 3169 4666 
L 3169 4134 
L 1269 4134 
L 1269 2991 
Q 1406 3038 1543 3061 
Q 1681 3084 1819 3084 
Q 2600 3084 3056 2656 
Q 3513 2228 3513 1497 
Q 3513 744 3044 326 
Q 2575 -91 1722 -91 
Q 1428 -91 1123 -41 
Q 819 9 494 109 
L 494 744 
Q 775 591 1075 516 
Q 1375 441 1709 441 
Q 2250 441 2565 725 
Q 2881 1009 2881 1497 
Q 2881 1984 2565 2268 
Q 2250 2553 1709 2553 
Q 1456 2553 1204 2497 
Q 953 2441 691 2322 
L 691 4666 
z
" transform="scale(0.015625)"/>
       </defs>
       <use xlink:href="#DejaVuSans-35"/>
      </g>
     </g>
    </g>
    <g id="ytick_3">
     <g id="line2d_21">
      <path d="M 46.64 147.30191 
L 852.12 147.30191 
" clip-path="url(#pb2b521ab33)" style="fill: none; stroke: #b0b0b0; stroke-opacity: 0.25; stroke-width: 0.8; stroke-linecap: square"/>
     </g>
     <g id="line2d_22">
      <g>
       <use xlink:href="#m1e5c21281c" x="46.64" y="147.30191" style="stroke: #000000; stroke-width: 0.8"/>
      </g>
     </g>
     <g id="text_12">
      <!-- 10 -->
      <g transform="translate(26.915 151.101128) scale(0.1 -0.1)">
       <use xlink:href="#DejaVuSans-31"/>
       <use xlink:href="#DejaVuSans-30" transform="translate(63.623047 0)"/>
      </g>
     </g>
    </g>
    <g id="ytick_4">
     <g id="line2d_23">
      <path d="M 46.64 103.655592 
L 852.12 103.655592 
" clip-path="url(#pb2b521ab33)" style="fill: none; stroke: #b0b0b0; stroke-opacity: 0.25; stroke-width: 0.8; stroke-linecap: square"/>
     </g>
     <g id="line2d_24">
      <g>
       <use xlink:href="#m1e5c21281c" x="46.64" y="103.655592" style="stroke: #000000; stroke-width: 0.8"/>
      </g>
     </g>
     <g id="text_13">
      <!-- 15 -->
      <g transform="translate(26.915 107.45481) scale(0.1 -0.1)">
       <use xlink:href="#DejaVuSans-31"/>
       <use xlink:href="#DejaVuSans-35" transform="translate(63.623047 0)"/>
      </g>
     </g>
    </g>
    <g id="ytick_5">
     <g id="line2d_25">
      <path d="M 46.64 60.009274 
L 852.12 60.009274 
" clip-path="url(#pb2b521ab33)" style="fill: none; stroke: #b0b0b0; stroke-opacity: 0.25; stroke-width: 0.8; stroke-linecap: square"/>
     </g>
     <g id="line2d_26">
      <g>
       <use xlink:href="#m1e5c21281c" x="46.64" y="60.009274" style="stroke: #000000; stroke-width: 0.8"/>
      </g>
     </g>
     <g id="text_14">
      <!-- 20 -->
      <g transform="translate(26.915 63.808493) scale(0.1 -0.1)">
       <use xlink:href="#DejaVuSans-32"/>
       <use xlink:href="#DejaVuSans-30" transform="translate(63.623047 0)"/>
      </g>
     </g>
    </g>
    <g id="text_15">
     <!-- Time (s) -->
     <g transform="translate(20.627344 158.101797) rotate(-90) scale(0.11 -0.11)">
      <defs>
       <path id="DejaVuSans-54" d="M -19 4666 
L 3928 4666 
L 3928 4134 
L 2272 4134 
L 2272 0 
L 1638 0 
L 1638 4134 
L -19 4134 
L -19 4666 
z
" transform="scale(0.015625)"/>
       <path id="DejaVuSans-69" d="M 603 3500 
L 1178 3500 
L 1178 0 
L 603 0 
L 603 3500 
z
M 603 4863 
L 1178 4863 
L 1178 4134 
L 603 4134 
L 603 4863 
z
" transform="scale(0.015625)"/>
       <path id="DejaVuSans-6d" d="M 3328 2828 
Q 3544 3216 3844 3400 
Q 4144 3584 4550 3584 
Q 5097 3584 5394 3201 
Q 5691 2819 5691 2113 
L 5691 0 
L 5113 0 
L 5113 2094 
Q 5113 2597 4934 2840 
Q 4756 3084 4391 3084 
Q 3944 3084 3684 2787 
Q 3425 2491 3425 1978 
L 3425 0 
L 2847 0 
L 2847 2094 
Q 2847 2600 2669 2842 
Q 2491 3084 2119 3084 
Q 1678 3084 1418 2786 
Q 1159 2488 1159 1978 
L 1159 0 
L 581 0 
L 581 3500 
L 1159 3500 
L 1159 2956 
Q 1356 3278 1631 3431 
Q 1906 3584 2284 3584 
Q 2666 3584 2933 3390 
Q 3200 3197 3328 2828 
z
" transform="scale(0.015625)"/>
       <path id="DejaVuSans-65" d="M 3597 1894 
L 3597 1613 
L 953 1613 
Q 991 1019 1311 708 
Q 1631 397 2203 397 
Q 2534 397 2845 478 
Q 3156 559 3463 722 
L 3463 178 
Q 3153 47 2828 -22 
Q 2503 -91 2169 -91 
Q 1331 -91 842 396 
Q 353 884 353 1716 
Q 353 2575 817 3079 
Q 1281 3584 2069 3584 
Q 2775 3584 3186 3129 
Q 3597 2675 3597 1894 
z
M 3022 2063 
Q 3016 2534 2758 2815 
Q 2500 3097 2075 3097 
Q 1594 3097 1305 2825 
Q 1016 2553 972 2059 
L 3022 2063 
z
" transform="scale(0.015625)"/>
       <path id="DejaVuSans-20" transform="scale(0.015625)"/>
       <path id="DejaVuSans-28" d="M 1984 4856 
Q 1566 4138 1362 3434 
Q 1159 2731 1159 2009 
Q 1159 1288 1364 580 
Q 1569 -128 1984 -844 
L 1484 -844 
Q 1016 -109 783 600 
Q 550 1309 550 2009 
Q 550 2706 781 3412 
Q 1013 4119 1484 4856 
L 1984 4856 
z
" transform="scale(0.015625)"/>
       <path id="DejaVuSans-73" d="M 2834 3397 
L 2834 2853 
Q 2591 2978 2328 3040 
Q 2066 3103 1784 3103 
Q 1356 3103 1142 2972 
Q 928 2841 928 2578 
Q 928 2378 1081 2264 
Q 1234 2150 1697 2047 
L 1894 2003 
Q 2506 1872 2764 1633 
Q 3022 1394 3022 966 
Q 3022 478 2636 193 
Q 2250 -91 1575 -91 
Q 1294 -91 989 -36 
Q 684 19 347 128 
L 347 722 
Q 666 556 975 473 
Q 1284 391 1588 391 
Q 1994 391 2212 530 
Q 2431 669 2431 922 
Q 2431 1156 2273 1281 
Q 2116 1406 1581 1522 
L 1381 1569 
Q 847 1681 609 1914 
Q 372 2147 372 2553 
Q 372 3047 722 3315 
Q 1072 3584 1716 3584 
Q 2034 3584 2315 3537 
Q 2597 3491 2834 3397 
z
" transform="scale(0.015625)"/>
       <path id="DejaVuSans-29" d="M 513 4856 
L 1013 4856 
Q 1481 4119 1714 3412 
Q 1947 2706 1947 2009 
Q 1947 1309 1714 600 
Q 1481 -109 1013 -844 
L 513 -844 
Q 928 -128 1133 580 
Q 1338 1288 1338 2009 
Q 1338 2731 1133 3434 
Q 928 4138 513 4856 
z
" transform="scale(0.015625)"/>
      </defs>
      <use xlink:href="#DejaVuSans-54"/>
      <use xlink:href="#DejaVuSans-69" transform="translate(57.958984 0)"/>
      <use xlink:href="#DejaVuSans-6d" transform="translate(85.742188 0)"/>
      <use xlink:href="#DejaVuSans-65" transform="translate(183.154297 0)"/>
      <use xlink:href="#DejaVuSans-20" transform="translate(244.677734 0)"/>
      <use xlink:href="#DejaVuSans-28" transform="translate(276.464844 0)"/>
      <use xlink:href="#DejaVuSans-73" transform="translate(315.478516 0)"/>
      <use xlink:href="#DejaVuSans-29" transform="translate(367.578125 0)"/>
     </g>
    </g>
   </g>
   <g id="patch_3">
    <path d="M 46.64 244.48 
L 46.64 27 
" style="fill: none; stroke: #000000; stroke-width: 0.8; stroke-linejoin: miter; stroke-linecap: square"/>
   </g>
   <g id="patch_4">
    <path d="M 852.12 244.48 
L 852.12 27 
" style="fill: none; stroke: #000000; stroke-width: 0.8; stroke-linejoin: miter; stroke-linecap: square"/>
   </g>
   <g id="patch_5">
    <path d="M 46.64 244.48 
L 852.12 244.48 
" style="fill: none; stroke: #000000; stroke-width: 0.8; stroke-linejoin: miter; stroke-linecap: square"/>
   </g>
   <g id="patch_6">
    <path d="M 46.64 27 
L 852.12 27 
" style="fill: none; stroke: #000000; stroke-width: 0.8; stroke-linejoin: miter; stroke-linecap: square"/>
   </g>
   <g id="text_16">
    <!-- SHA2 Chain  prove subphases (mem-batch) -->
    <g transform="translate(312.273438 21) scale(0.12 -0.12)">
     <defs>
      <path id="DejaVuSans-53" d="M 3425 4513 
L 3425 3897 
Q 3066 4069 2747 4153 
Q 2428 4238 2131 4238 
Q 1616 4238 1336 4038 
Q 1056 3838 1056 3469 
Q 1056 3159 1242 3001 
Q 1428 2844 1947 2747 
L 2328 2669 
Q 3034 2534 3370 2195 
Q 3706 1856 3706 1288 
Q 3706 609 3251 259 
Q 2797 -91 1919 -91 
Q 1588 -91 1214 -16 
Q 841 59 441 206 
L 441 856 
Q 825 641 1194 531 
Q 1563 422 1919 422 
Q 2459 422 2753 634 
Q 3047 847 3047 1241 
Q 3047 1584 2836 1778 
Q 2625 1972 2144 2069 
L 1759 2144 
Q 1053 2284 737 2584 
Q 422 2884 422 3419 
Q 422 4038 858 4394 
Q 1294 4750 2059 4750 
Q 2388 4750 2728 4690 
Q 3069 4631 3425 4513 
z
" transform="scale(0.015625)"/>
      <path id="DejaVuSans-48" d="M 628 4666 
L 1259 4666 
L 1259 2753 
L 3553 2753 
L 3553 4666 
L 4184 4666 
L 4184 0 
L 3553 0 
L 3553 2222 
L 1259 2222 
L 1259 0 
L 628 0 
L 628 4666 
z
" transform="scale(0.015625)"/>
      <path id="DejaVuSans-41" d="M 2188 4044 
L 1331 1722 
L 3047 1722 
L 2188 4044 
z
M 1831 4666 
L 2547 4666 
L 4325 0 
L 3669 0 
L 3244 1197 
L 1141 1197 
L 716 0 
L 50 0 
L 1831 4666 
z
" transform="scale(0.015625)"/>
      <path id="DejaVuSans-43" d="M 4122 4306 
L 4122 3641 
Q 3803 3938 3442 4084 
Q 3081 4231 2675 4231 
Q 1875 4231 1450 3742 
Q 1025 3253 1025 2328 
Q 1025 1406 1450 917 
Q 1875 428 2675 428 
Q 3081 428 3442 575 
Q 3803 722 4122 1019 
L 4122 359 
Q 3791 134 3420 21 
Q 3050 -91 2638 -91 
Q 1578 -91 968 557 
Q 359 1206 359 2328 
Q 359 3453 968 4101 
Q 1578 4750 2638 4750 
Q 3056 4750 3426 4639 
Q 3797 4528 4122 4306 
z
" transform="scale(0.015625)"/>
      <path id="DejaVuSans-68" d="M 3513 2113 
L 3513 0 
L 2938 0 
L 2938 2094 
Q 2938 2591 2744 2837 
Q 2550 3084 2163 3084 
Q 1697 3084 1428 2787 
Q 1159 2491 1159 1978 
L 1159 0 
L 581 0 
L 581 4863 
L 1159 4863 
L 1159 2956 
Q 1366 3272 1645 3428 
Q 1925 3584 2291 3584 
Q 2894 3584 3203 3211 
Q 3513 2838 3513 2113 
z
" transform="scale(0.015625)"/>
      <path id="DejaVuSans-61" d="M 2194 1759 
Q 1497 1759 1228 1600 
Q 959 1441 959 1056 
Q 959 750 1161 570 
Q 1363 391 1709 391 
Q 2188 391 2477 730 
Q 2766 1069 2766 1631 
L 2766 1759 
L 2194 1759 
z
M 3341 1997 
L 3341 0 
L 2766 0 
L 2766 531 
Q 2569 213 2275 61 
Q 1981 -91 1556 -91 
Q 1019 -91 701 211 
Q 384 513 384 1019 
Q 384 1609 779 1909 
Q 1175 2209 1959 2209 
L 2766 2209 
L 2766 2266 
Q 2766 2663 2505 2880 
Q 2244 3097 1772 3097 
Q 1472 3097 1187 3025 
Q 903 2953 641 2809 
L 641 3341 
Q 956 3463 1253 3523 
Q 1550 3584 1831 3584 
Q 2591 3584 2966 3190 
Q 3341 2797 3341 1997 
z
" transform="scale(0.015625)"/>
      <path id="DejaVuSans-2014" d="M 313 1978 
L 6088 1978 
L 6088 1528 
L 313 1528 
L 313 1978 
z
" transform="scale(0.015625)"/>
      <path id="DejaVuSans-72" d="M 2631 2963 
Q 2534 3019 2420 3045 
Q 2306 3072 2169 3072 
Q 1681 3072 1420 2755 
Q 1159 2438 1159 1844 
L 1159 0 
L 581 0 
L 581 3500 
L 1159 3500 
L 1159 2956 
Q 1341 3275 1631 3429 
Q 1922 3584 2338 3584 
Q 2397 3584 2469 3576 
Q 2541 3569 2628 3553 
L 2631 2963 
z
" transform="scale(0.015625)"/>
      <path id="DejaVuSans-6f" d="M 1959 3097 
Q 1497 3097 1228 2736 
Q 959 2375 959 1747 
Q 959 1119 1226 758 
Q 1494 397 1959 397 
Q 2419 397 2687 759 
Q 2956 1122 2956 1747 
Q 2956 2369 2687 2733 
Q 2419 3097 1959 3097 
z
M 1959 3584 
Q 2709 3584 3137 3096 
Q 3566 2609 3566 1747 
Q 3566 888 3137 398 
Q 2709 -91 1959 -91 
Q 1206 -91 779 398 
Q 353 888 353 1747 
Q 353 2609 779 3096 
Q 1206 3584 1959 3584 
z
" transform="scale(0.015625)"/>
      <path id="DejaVuSans-76" d="M 191 3500 
L 800 3500 
L 1894 563 
L 2988 3500 
L 3597 3500 
L 2284 0 
L 1503 0 
L 191 3500 
z
" transform="scale(0.015625)"/>
      <path id="DejaVuSans-62" d="M 3116 1747 
Q 3116 2381 2855 2742 
Q 2594 3103 2138 3103 
Q 1681 3103 1420 2742 
Q 1159 2381 1159 1747 
Q 1159 1113 1420 752 
Q 1681 391 2138 391 
Q 2594 391 2855 752 
Q 3116 1113 3116 1747 
z
M 1159 2969 
Q 1341 3281 1617 3432 
Q 1894 3584 2278 3584 
Q 2916 3584 3314 3078 
Q 3713 2572 3713 1747 
Q 3713 922 3314 415 
Q 2916 -91 2278 -91 
Q 1894 -91 1617 61 
Q 1341 213 1159 525 
L 1159 0 
L 581 0 
L 581 4863 
L 1159 4863 
L 1159 2969 
z
" transform="scale(0.015625)"/>
      <path id="DejaVuSans-2d" d="M 313 2009 
L 1997 2009 
L 1997 1497 
L 313 1497 
L 313 2009 
z
" transform="scale(0.015625)"/>
      <path id="DejaVuSans-63" d="M 3122 3366 
L 3122 2828 
Q 2878 2963 2633 3030 
Q 2388 3097 2138 3097 
Q 1578 3097 1268 2742 
Q 959 2388 959 1747 
Q 959 1106 1268 751 
Q 1578 397 2138 397 
Q 2388 397 2633 464 
Q 2878 531 3122 666 
L 3122 134 
Q 2881 22 2623 -34 
Q 2366 -91 2075 -91 
Q 1284 -91 818 406 
Q 353 903 353 1747 
Q 353 2603 823 3093 
Q 1294 3584 2113 3584 
Q 2378 3584 2631 3529 
Q 2884 3475 3122 3366 
z
" transform="scale(0.015625)"/>
     </defs>
     <use xlink:href="#DejaVuSans-53"/>
     <use xlink:href="#DejaVuSans-48" transform="translate(63.476562 0)"/>
     <use xlink:href="#DejaVuSans-41" transform="translate(138.671875 0)"/>
     <use xlink:href="#DejaVuSans-32" transform="translate(207.080078 0)"/>
     <use xlink:href="#DejaVuSans-20" transform="translate(270.703125 0)"/>
     <use xlink:href="#DejaVuSans-43" transform="translate(302.490234 0)"/>
     <use xlink:href="#DejaVuSans-68" transform="translate(372.314453 0)"/>
     <use xlink:href="#DejaVuSans-61" transform="translate(435.693359 0)"/>
     <use xlink:href="#DejaVuSans-69" transform="translate(496.972656 0)"/>
     <use xlink:href="#DejaVuSans-6e" transform="translate(524.755859 0)"/>
     <use xlink:href="#DejaVuSans-20" transform="translate(588.134766 0)"/>
     <use xlink:href="#DejaVuSans-2014" transform="translate(619.921875 0)"/>
     <use xlink:href="#DejaVuSans-20" transform="translate(719.921875 0)"/>
     <use xlink:href="#DejaVuSans-70" transform="translate(751.708984 0)"/>
     <use xlink:href="#DejaVuSans-72" transform="translate(815.185547 0)"/>
     <use xlink:href="#DejaVuSans-6f" transform="translate(854.048828 0)"/>
     <use xlink:href="#DejaVuSans-76" transform="translate(915.230469 0)"/>
     <use xlink:href="#DejaVuSans-65" transform="translate(974.410156 0)"/>
     <use xlink:href="#DejaVuSans-20" transform="translate(1035.933594 0)"/>
     <use xlink:href="#DejaVuSans-73" transform="translate(1067.720703 0)"/>
     <use xlink:href="#DejaVuSans-75" transform="translate(1119.820312 0)"/>
     <use xlink:href="#DejaVuSans-62" transform="translate(1183.199219 0)"/>
     <use xlink:href="#DejaVuSans-70" transform="translate(1246.675781 0)"/>
     <use xlink:href="#DejaVuSans-68" transform="translate(1310.152344 0)"/>
     <use xlink:href="#DejaVuSans-61" transform="translate(1373.53125 0)"/>
     <use xlink:href="#DejaVuSans-73" transform="translate(1434.810547 0)"/>
     <use xlink:href="#DejaVuSans-65" transform="translate(1486.910156 0)"/>
     <use xlink:href="#DejaVuSans-73" transform="translate(1548.433594 0)"/>
     <use xlink:href="#DejaVuSans-20" transform="translate(1600.533203 0)"/>
     <use xlink:href="#DejaVuSans-28" transform="translate(1632.320312 0)"/>
     <use xlink:href="#DejaVuSans-6d" transform="translate(1671.333984 0)"/>
     <use xlink:href="#DejaVuSans-65" transform="translate(1768.746094 0)"/>
     <use xlink:href="#DejaVuSans-6d" transform="translate(1830.269531 0)"/>
     <use xlink:href="#DejaVuSans-2d" transform="translate(1927.681641 0)"/>
     <use xlink:href="#DejaVuSans-62" transform="translate(1963.765625 0)"/>
     <use xlink:href="#DejaVuSans-61" transform="translate(2027.242188 0)"/>
     <use xlink:href="#DejaVuSans-74" transform="translate(2088.521484 0)"/>
     <use xlink:href="#DejaVuSans-63" transform="translate(2127.730469 0)"/>
     <use xlink:href="#DejaVuSans-68" transform="translate(2182.710938 0)"/>
     <use xlink:href="#DejaVuSans-29" transform="translate(2246.089844 0)"/>
    </g>
   </g>
   <g id="legend_1">
    <g id="patch_7">
     <path d="M 55.64 43.598438 
L 75.64 43.598438 
L 75.64 36.598438 
L 55.64 36.598438 
z
" style="fill: #1f77b4; fill-opacity: 0.7"/>
    </g>
    <g id="text_17">
     <!-- bytecode -->
     <g transform="translate(83.64 43.598438) scale(0.1 -0.1)">
      <defs>
       <path id="DejaVuSans-79" d="M 2059 -325 
Q 1816 -950 1584 -1140 
Q 1353 -1331 966 -1331 
L 506 -1331 
L 506 -850 
L 844 -850 
Q 1081 -850 1212 -737 
Q 1344 -625 1503 -206 
L 1606 56 
L 191 3500 
L 800 3500 
L 1894 763 
L 2988 3500 
L 3597 3500 
L 2059 -325 
z
" transform="scale(0.015625)"/>
       <path id="DejaVuSans-64" d="M 2906 2969 
L 2906 4863 
L 3481 4863 
L 3481 0 
L 2906 0 
L 2906 525 
Q 2725 213 2448 61 
Q 2172 -91 1784 -91 
Q 1150 -91 751 415 
Q 353 922 353 1747 
Q 353 2572 751 3078 
Q 1150 3584 1784 3584 
Q 2172 3584 2448 3432 
Q 2725 3281 2906 2969 
z
M 947 1747 
Q 947 1113 1208 752 
Q 1469 391 1925 391 
Q 2381 391 2643 752 
Q 2906 1113 2906 1747 
Q 2906 2381 2643 2742 
Q 2381 3103 1925 3103 
Q 1469 3103 1208 2742 
Q 947 2381 947 1747 
z
" transform="scale(0.015625)"/>
      </defs>
      <use xlink:href="#DejaVuSans-62"/>
      <use xlink:href="#DejaVuSans-79" transform="translate(63.476562 0)"/>
      <use xlink:href="#DejaVuSans-74" transform="translate(122.65625 0)"/>
      <use xlink:href="#DejaVuSans-65" transform="translate(161.865234 0)"/>
      <use xlink:href="#DejaVuSans-63" transform="translate(223.388672 0)"/>
      <use xlink:href="#DejaVuSans-6f" transform="translate(278.369141 0)"/>
      <use xlink:href="#DejaVuSans-64" transform="translate(339.550781 0)"/>
      <use xlink:href="#DejaVuSans-65" transform="translate(403.027344 0)"/>
     </g>
    </g>
    <g id="patch_8">
     <path d="M 55.64 58.276563 
L 75.64 58.276563 
L 75.64 51.276563 
L 55.64 51.276563 
z
" style="fill: #ff7f0e; fill-opacity: 0.7"/>
    </g>
    <g id="text_18">
     <!-- commit -->
     <g transform="translate(83.64 58.276563) scale(0.1 -0.1)">
      <use xlink:href="#DejaVuSans-63"/>
      <use xlink:href="#DejaVuSans-6f" transform="translate(54.980469 0)"/>
      <use xlink:href="#DejaVuSans-6d" transform="translate(116.162109 0)"/>
      <use xlink:href="#DejaVuSans-6d" transform="translate(213.574219 0)"/>
      <use xlink:href="#DejaVuSans-69" transform="translate(310.986328 0)"/>
      <use xlink:href="#DejaVuSans-74" transform="translate(338.769531 0)"/>
     </g>
    </g>
    <g id="patch_9">
     <path d="M 55.64 72.954688 
L 75.64 72.954688 
L 75.64 65.954688 
L 55.64 65.954688 
z
" style="fill: #2ca02c; fill-opacity: 0.7"/>
    </g>
    <g id="text_19">
     <!-- il -->
     <g transform="translate(83.64 72.954688) scale(0.1 -0.1)">
      <defs>
       <path id="DejaVuSans-6c" d="M 603 4863 
L 1178 4863 
L 1178 0 
L 603 0 
L 603 4863 
z
" transform="scale(0.015625)"/>
      </defs>
      <use xlink:href="#DejaVuSans-69"/>
      <use xlink:href="#DejaVuSans-6c" transform="translate(27.783203 0)"/>
     </g>
    </g>
    <g id="patch_10">
     <path d="M 55.64 87.632813 
L 75.64 87.632813 
L 75.64 80.632813 
L 55.64 80.632813 
z
" style="fill: #d62728; fill-opacity: 0.7"/>
    </g>
    <g id="text_20">
     <!-- il_wit -->
     <g transform="translate(83.64 87.632813) scale(0.1 -0.1)">
      <defs>
       <path id="DejaVuSans-5f" d="M 3263 -1063 
L 3263 -1509 
L -63 -1509 
L -63 -1063 
L 3263 -1063 
z
" transform="scale(0.015625)"/>
       <path id="DejaVuSans-77" d="M 269 3500 
L 844 3500 
L 1563 769 
L 2278 3500 
L 2956 3500 
L 3675 769 
L 4391 3500 
L 4966 3500 
L 4050 0 
L 3372 0 
L 2619 2869 
L 1863 0 
L 1184 0 
L 269 3500 
z
" transform="scale(0.015625)"/>
      </defs>
      <use xlink:href="#DejaVuSans-69"/>
      <use xlink:href="#DejaVuSans-6c" transform="translate(27.783203 0)"/>
      <use xlink:href="#DejaVuSans-5f" transform="translate(55.566406 0)"/>
      <use xlink:href="#DejaVuSans-77" transform="translate(105.566406 0)"/>
      <use xlink:href="#DejaVuSans-69" transform="translate(187.353516 0)"/>
      <use xlink:href="#DejaVuSans-74" transform="translate(215.136719 0)"/>
     </g>
    </g>
    <g id="patch_11">
     <path d="M 150.099375 43.598438 
L 170.099375 43.598438 
L 170.099375 36.598438 
L 150.099375 36.598438 
z
" style="fill: #9467bd; fill-opacity: 0.7"/>
    </g>
    <g id="text_21">
     <!-- openings -->
     <g transform="translate(178.099375 43.598438) scale(0.1 -0.1)">
      <defs>
       <path id="DejaVuSans-67" d="M 2906 1791 
Q 2906 2416 2648 2759 
Q 2391 3103 1925 3103 
Q 1463 3103 1205 2759 
Q 947 2416 947 1791 
Q 947 1169 1205 825 
Q 1463 481 1925 481 
Q 2391 481 2648 825 
Q 2906 1169 2906 1791 
z
M 3481 434 
Q 3481 -459 3084 -895 
Q 2688 -1331 1869 -1331 
Q 1566 -1331 1297 -1286 
Q 1028 -1241 775 -1147 
L 775 -588 
Q 1028 -725 1275 -790 
Q 1522 -856 1778 -856 
Q 2344 -856 2625 -561 
Q 2906 -266 2906 331 
L 2906 616 
Q 2728 306 2450 153 
Q 2172 0 1784 0 
Q 1141 0 747 490 
Q 353 981 353 1791 
Q 353 2603 747 3093 
Q 1141 3584 1784 3584 
Q 2172 3584 2450 3431 
Q 2728 3278 2906 2969 
L 2906 3500 
L 3481 3500 
L 3481 434 
z
" transform="scale(0.015625)"/>
      </defs>
      <use xlink:href="#DejaVuSans-6f"/>
      <use xlink:href="#DejaVuSans-70" transform="translate(61.181641 0)"/>
      <use xlink:href="#DejaVuSans-65" transform="translate(124.658203 0)"/>
      <use xlink:href="#DejaVuSans-6e" transform="translate(186.181641 0)"/>
      <use xlink:href="#DejaVuSans-69" transform="translate(249.560547 0)"/>
      <use xlink:href="#DejaVuSans-6e" transform="translate(277.34375 0)"/>
      <use xlink:href="#DejaVuSans-67" transform="translate(340.722656 0)"/>
      <use xlink:href="#DejaVuSans-73" transform="translate(404.199219 0)"/>
     </g>
    </g>
    <g id="patch_12">
     <path d="M 150.099375 58.276563 
L 170.099375 58.276563 
L 170.099375 51.276563 
L 150.099375 51.276563 
z
" style="fill: #8c564b; fill-opacity: 0.7"/>
    </g>
    <g id="text_22">
     <!-- preamble -->
     <g transform="translate(178.099375 58.276563) scale(0.1 -0.1)">
      <use xlink:href="#DejaVuSans-70"/>
      <use xlink:href="#DejaVuSans-72" transform="translate(63.476562 0)"/>
      <use xlink:href="#DejaVuSans-65" transform="translate(102.339844 0)"/>
      <use xlink:href="#DejaVuSans-61" transform="translate(163.863281 0)"/>
      <use xlink:href="#DejaVuSans-6d" transform="translate(225.142578 0)"/>
      <use xlink:href="#DejaVuSans-62" transform="translate(322.554688 0)"/>
      <use xlink:href="#DejaVuSans-6c" transform="translate(386.03125 0)"/>
      <use xlink:href="#DejaVuSans-65" transform="translate(413.814453 0)"/>
     </g>
    </g>
    <g id="patch_13">
     <path d="M 150.099375 72.954688 
L 170.099375 72.954688 
L 170.099375 65.954688 
L 150.099375 65.954688 
z
" style="fill: #e377c2; fill-opacity: 0.7"/>
    </g>
    <g id="text_23">
     <!-- r1cs_aux -->
     <g transform="translate(178.099375 72.954688) scale(0.1 -0.1)">
      <defs>
       <path id="DejaVuSans-78" d="M 3513 3500 
L 2247 1797 
L 3578 0 
L 2900 0 
L 1881 1375 
L 863 0 
L 184 0 
L 1544 1831 
L 300 3500 
L 978 3500 
L 1906 2253 
L 2834 3500 
L 3513 3500 
z
" transform="scale(0.015625)"/>
      </defs>
      <use xlink:href="#DejaVuSans-72"/>
      <use xlink:href="#DejaVuSans-31" transform="translate(41.113281 0)"/>
      <use xlink:href="#DejaVuSans-63" transform="translate(104.736328 0)"/>
      <use xlink:href="#DejaVuSans-73" transform="translate(159.716797 0)"/>
      <use xlink:href="#DejaVuSans-5f" transform="translate(211.816406 0)"/>
      <use xlink:href="#DejaVuSans-61" transform="translate(261.816406 0)"/>
      <use xlink:href="#DejaVuSans-75" transform="translate(323.095703 0)"/>
      <use xlink:href="#DejaVuSans-78" transform="translate(386.474609 0)"/>
     </g>
    </g>
    <g id="patch_14">
     <path d="M 245.635313 43.598438 
L 265.635313 43.598438 
L 265.635313 36.598438 
L 245.635313 36.598438 
z
" style="fill: #7f7f7f; fill-opacity: 0.7"/>
    </g>
    <g id="text_24">
     <!-- r1cs_polys -->
     <g transform="translate(273.635313 43.598438) scale(0.1 -0.1)">
      <use xlink:href="#DejaVuSans-72"/>
      <use xlink:href="#DejaVuSans-31" transform="translate(41.113281 0)"/>
      <use xlink:href="#DejaVuSans-63" transform="translate(104.736328 0)"/>
      <use xlink:href="#DejaVuSans-73" transform="translate(159.716797 0)"/>
      <use xlink:href="#DejaVuSans-5f" transform="translate(211.816406 0)"/>
      <use xlink:href="#DejaVuSans-70" transform="translate(261.816406 0)"/>
      <use xlink:href="#DejaVuSans-6f" transform="translate(325.292969 0)"/>
      <use xlink:href="#DejaVuSans-6c" transform="translate(386.474609 0)"/>
      <use xlink:href="#DejaVuSans-79" transform="translate(414.257812 0)"/>
      <use xlink:href="#DejaVuSans-73" transform="translate(473.4375 0)"/>
     </g>
    </g>
    <g id="patch_15">
     <path d="M 245.635313 58.554688 
L 265.635313 58.554688 
L 265.635313 51.554688 
L 245.635313 51.554688 
z
" style="fill: #bcbd22; fill-opacity: 0.7"/>
    </g>
    <g id="text_25">
     <!-- r1cs_setup -->
     <g transform="translate(273.635313 58.554688) scale(0.1 -0.1)">
      <use xlink:href="#DejaVuSans-72"/>
      <use xlink:href="#DejaVuSans-31" transform="translate(41.113281 0)"/>
      <use xlink:href="#DejaVuSans-63" transform="translate(104.736328 0)"/>
      <use xlink:href="#DejaVuSans-73" transform="translate(159.716797 0)"/>
      <use xlink:href="#DejaVuSans-5f" transform="translate(211.816406 0)"/>
      <use xlink:href="#DejaVuSans-73" transform="translate(261.816406 0)"/>
      <use xlink:href="#DejaVuSans-65" transform="translate(313.916016 0)"/>
      <use xlink:href="#DejaVuSans-74" transform="translate(375.439453 0)"/>
      <use xlink:href="#DejaVuSans-75" transform="translate(414.648438 0)"/>
      <use xlink:href="#DejaVuSans-70" transform="translate(478.027344 0)"/>
     </g>
    </g>
    <g id="patch_16">
     <path d="M 245.635313 73.510938 
L 265.635313 73.510938 
L 265.635313 66.510938 
L 245.635313 66.510938 
z
" style="fill: #17becf; fill-opacity: 0.7"/>
    </g>
    <g id="text_26">
     <!-- rwm -->
     <g transform="translate(273.635313 73.510938) scale(0.1 -0.1)">
      <use xlink:href="#DejaVuSans-72"/>
      <use xlink:href="#DejaVuSans-77" transform="translate(41.113281 0)"/>
      <use xlink:href="#DejaVuSans-6d" transform="translate(122.900391 0)"/>
     </g>
    </g>
    <g id="patch_17">
     <path d="M 347.785313 43.598438 
L 367.785313 43.598438 
L 367.785313 36.598438 
L 347.785313 36.598438 
z
" style="fill: #1f77b4; fill-opacity: 0.7"/>
    </g>
    <g id="text_27">
     <!-- rwm_wit -->
     <g transform="translate(375.785313 43.598438) scale(0.1 -0.1)">
      <use xlink:href="#DejaVuSans-72"/>
      <use xlink:href="#DejaVuSans-77" transform="translate(41.113281 0)"/>
      <use xlink:href="#DejaVuSans-6d" transform="translate(122.900391 0)"/>
      <use xlink:href="#DejaVuSans-5f" transform="translate(220.3125 0)"/>
      <use xlink:href="#DejaVuSans-77" transform="translate(270.3125 0)"/>
      <use xlink:href="#DejaVuSans-69" transform="translate(352.099609 0)"/>
      <use xlink:href="#DejaVuSans-74" transform="translate(379.882812 0)"/>
     </g>
    </g>
    <g id="patch_18">
     <path d="M 347.785313 58.554688 
L 367.785313 58.554688 
L 367.785313 51.554688 
L 347.785313 51.554688 
z
" style="fill: #ff7f0e; fill-opacity: 0.7"/>
    </g>
    <g id="text_28">
     <!-- spartan -->
     <g transform="translate(375.785313 58.554688) scale(0.1 -0.1)">
      <use xlink:href="#DejaVuSans-73"/>
      <use xlink:href="#DejaVuSans-70" transform="translate(52.099609 0)"/>
      <use xlink:href="#DejaVuSans-61" transform="translate(115.576172 0)"/>
      <use xlink:href="#DejaVuSans-72" transform="translate(176.855469 0)"/>
      <use xlink:href="#DejaVuSans-74" transform="translate(217.96875 0)"/>
      <use xlink:href="#DejaVuSans-61" transform="translate(257.177734 0)"/>
      <use xlink:href="#DejaVuSans-6e" transform="translate(318.457031 0)"/>
     </g>
    </g>
    <g id="patch_19">
     <path d="M 347.785313 73.232813 
L 367.785313 73.232813 
L 367.785313 66.232813 
L 347.785313 66.232813 
z
" style="fill: #2ca02c; fill-opacity: 0.7"/>
    </g>
    <g id="text_29">
     <!-- wit_join -->
     <g transform="translate(375.785313 73.232813) scale(0.1 -0.1)">
      <defs>
       <path id="DejaVuSans-6a" d="M 603 3500 
L 1178 3500 
L 1178 -63 
Q 1178 -731 923 -1031 
Q 669 -1331 103 -1331 
L -116 -1331 
L -116 -844 
L 38 -844 
Q 366 -844 484 -692 
Q 603 -541 603 -63 
L 603 3500 
z
M 603 4863 
L 1178 4863 
L 1178 4134 
L 603 4134 
L 603 4863 
z
" transform="scale(0.015625)"/>
      </defs>
      <use xlink:href="#DejaVuSans-77"/>
      <use xlink:href="#DejaVuSans-69" transform="translate(81.787109 0)"/>
      <use xlink:href="#DejaVuSans-74" transform="translate(109.570312 0)"/>
      <use xlink:href="#DejaVuSans-5f" transform="translate(148.779297 0)"/>
      <use xlink:href="#DejaVuSans-6a" transform="translate(198.779297 0)"/>
      <use xlink:href="#DejaVuSans-6f" transform="translate(226.5625 0)"/>
      <use xlink:href="#DejaVuSans-69" transform="translate(287.744141 0)"/>
      <use xlink:href="#DejaVuSans-6e" transform="translate(315.527344 0)"/>
     </g>
    </g>
   </g>
  </g>
 </g>
 <defs>
  <clipPath id="pb2b521ab33">
   <rect x="46.64" y="27" width="805.48" height="217.48"/>
  </clipPath>
 </defs>
</svg>
