<?xml version="1.0" encoding="utf-8" standalone="no"?>
<!DOCTYPE svg PUBLIC "-//W3C//DTD SVG 1.1//EN"
  "http://www.w3.org/Graphics/SVG/1.1/DTD/svg11.dtd">
<svg xmlns:xlink="http://www.w3.org/1999/xlink" width="864pt" height="288pt" viewBox="0 0 864 288" xmlns="http://www.w3.org/2000/svg" version="1.1">
 <metadata>
  <rdf:RDF xmlns:dc="http://purl.org/dc/elements/1.1/" xmlns:cc="http://creativecommons.org/ns#" xmlns:rdf="http://www.w3.org/1999/02/22-rdf-syntax-ns#">
   <cc:Work>
    <dc:type rdf:resource="http://purl.org/dc/dcmitype/StillImage"/>
    <dc:date>2025-09-10T11:05:36.937601</dc:date>
    <dc:format>image/svg+xml</dc:format>
    <dc:creator>
     <cc:Agent>
      <dc:title>Matplotlib v3.10.6, https://matplotlib.org/</dc:title>
     </cc:Agent>
    </dc:creator>
   </cc:Work>
  </rdf:RDF>
 </metadata>
 <defs>
  <style type="text/css">*{stroke-linejoin: round; stroke-linecap: butt}</style>
 </defs>
 <g id="figure_1">
  <g id="patch_1">
   <path d="M 0 288 
L 864 288 
L 864 0 
L 0 0 
z
" style="fill: #ffffff"/>
  </g>
  <g id="axes_1">
   <g id="patch_2">
    <path d="M 49.82 244.48 
L 852.12 244.48 
L 852.12 27 
L 49.82 27 
z
" style="fill: #ffffff"/>
   </g>
   <g id="FillBetweenPolyCollection_1">
    <path d="M 86.288182 234.594545 
L 86.288182 234.594545 
L 86.317358 234.594545 
L 86.346533 234.594545 
L 86.375709 234.594545 
L 86.404885 234.594545 
L 86.43406 234.594545 
L 86.463236 234.594545 
L 86.492412 234.594545 
L 86.521588 234.594545 
L 86.550763 234.594545 
L 86.579939 234.594545 
L 86.609115 234.594545 
L 86.63829 234.594545 
L 86.667466 234.594545 
L 86.696642 234.594545 
L 86.725818 234.594545 
L 86.754993 234.594545 
L 86.784169 234.594545 
L 86.813345 234.594545 
L 86.84252 234.594545 
L 86.871696 234.594545 
L 86.900872 234.594545 
L 86.930047 234.594545 
L 86.959223 234.594545 
L 86.988399 234.594545 
L 87.017575 234.594545 
L 87.04675 234.594545 
L 87.075926 234.594545 
L 87.105102 234.594545 
L 87.134277 234.594545 
L 87.163453 234.594545 
L 87.192629 234.594545 
L 87.221805 234.594545 
L 87.25098 234.594545 
L 87.280156 234.594545 
L 87.309332 234.594545 
L 87.338507 234.594545 
L 87.367683 234.594545 
L 87.396859 234.594545 
L 87.426035 234.594545 
L 87.45521 234.594545 
L 87.484386 234.594545 
L 87.513562 234.594545 
L 87.542737 234.594545 
L 87.571913 234.594545 
L 87.601089 234.594545 
L 87.630265 234.594545 
L 87.65944 234.594545 
L 87.688616 234.594545 
L 87.717792 234.594545 
L 87.776143 234.594545 
L 87.834495 234.594545 
L 87.892846 234.594545 
L 87.951197 234.594545 
L 88.009549 234.594545 
L 88.0679 234.594545 
L 88.126252 234.594545 
L 88.184603 234.594545 
L 88.242955 234.594545 
L 88.301306 234.594545 
L 88.359657 234.594545 
L 88.418009 234.594545 
L 88.47636 234.594545 
L 88.534712 234.594545 
L 88.593063 234.594545 
L 88.651415 234.594545 
L 88.709766 234.594545 
L 88.768117 234.594545 
L 88.826469 234.594545 
L 88.88482 234.594545 
L 88.943172 234.594545 
L 89.001523 234.594545 
L 89.059875 234.594545 
L 89.118226 234.594545 
L 89.176577 234.594545 
L 89.322456 234.594545 
L 89.468334 234.594545 
L 89.614213 234.594545 
L 89.760092 234.594545 
L 89.90597 234.594545 
L 90.051849 234.594545 
L 90.197727 234.594545 
L 90.343606 234.594545 
L 90.489484 234.594545 
L 90.635363 234.594545 
L 90.781242 234.594545 
L 90.92712 234.594545 
L 91.072999 234.594545 
L 91.218877 234.594545 
L 91.364756 234.594545 
L 91.510634 234.594545 
L 91.656513 234.594545 
L 91.802391 234.594545 
L 91.94827 234.594545 
L 92.094149 234.594545 
L 92.385906 234.594545 
L 92.677663 234.594545 
L 92.96942 234.594545 
L 93.261177 234.594545 
L 93.552934 234.594545 
L 100.846862 234.594545 
L 108.14079 234.594545 
L 115.434719 234.594545 
L 144.610431 234.594545 
L 173.786144 234.594545 
L 202.961856 234.594545 
L 232.137569 234.594545 
L 261.313281 234.594545 
L 290.488993 234.594545 
L 319.664706 234.594545 
L 348.840418 234.594545 
L 378.016131 234.594545 
L 450.955412 234.594545 
L 523.894693 234.594545 
L 596.833975 234.594545 
L 669.773256 234.594545 
L 815.651818 234.594545 
L 815.651818 234.594545 
L 815.651818 234.594545 
L 669.773256 234.594545 
L 596.833975 234.594545 
L 523.894693 234.594545 
L 450.955412 234.594545 
L 378.016131 234.594545 
L 348.840418 234.594545 
L 319.664706 234.594545 
L 290.488993 234.594545 
L 261.313281 234.594545 
L 232.137569 234.594545 
L 202.961856 234.594545 
L 173.786144 234.594545 
L 144.610431 234.594545 
L 115.434719 234.594545 
L 108.14079 234.594545 
L 100.846862 234.594545 
L 93.552934 234.594545 
L 93.261177 234.594545 
L 92.96942 234.594545 
L 92.677663 234.594545 
L 92.385906 234.594545 
L 92.094149 234.594545 
L 91.94827 234.594545 
L 91.802391 234.594545 
L 91.656513 234.594545 
L 91.510634 234.594545 
L 91.364756 234.594545 
L 91.218877 234.594545 
L 91.072999 234.594545 
L 90.92712 234.594545 
L 90.781242 234.594545 
L 90.635363 234.594545 
L 90.489484 234.594545 
L 90.343606 234.594545 
L 90.197727 234.594545 
L 90.051849 234.594545 
L 89.90597 234.594545 
L 89.760092 234.594545 
L 89.614213 234.594545 
L 89.468334 234.594545 
L 89.322456 234.594545 
L 89.176577 234.594545 
L 89.118226 234.594545 
L 89.059875 234.594545 
L 89.001523 234.594545 
L 88.943172 234.594545 
L 88.88482 234.594545 
L 88.826469 234.594545 
L 88.768117 234.594545 
L 88.709766 234.594545 
L 88.651415 234.594545 
L 88.593063 234.594545 
L 88.534712 234.594545 
L 88.47636 234.594545 
L 88.418009 234.594545 
L 88.359657 234.594545 
L 88.301306 234.594545 
L 88.242955 234.594545 
L 88.184603 234.594545 
L 88.126252 234.594545 
L 88.0679 234.594545 
L 88.009549 234.594545 
L 87.951197 234.594545 
L 87.892846 234.594545 
L 87.834495 234.594545 
L 87.776143 234.594545 
L 87.717792 234.594545 
L 87.688616 234.594545 
L 87.65944 234.594545 
L 87.630265 234.594545 
L 87.601089 234.594545 
L 87.571913 234.594545 
L 87.542737 234.594545 
L 87.513562 234.594545 
L 87.484386 234.594545 
L 87.45521 234.594545 
L 87.426035 234.594545 
L 87.396859 234.594545 
L 87.367683 234.594545 
L 87.338507 234.594545 
L 87.309332 234.594545 
L 87.280156 234.594545 
L 87.25098 234.594545 
L 87.221805 234.594545 
L 87.192629 234.594545 
L 87.163453 234.594545 
L 87.134277 234.594545 
L 87.105102 234.594545 
L 87.075926 234.594545 
L 87.04675 234.594545 
L 87.017575 234.594545 
L 86.988399 234.594545 
L 86.959223 234.594545 
L 86.930047 234.594545 
L 86.900872 234.594545 
L 86.871696 234.594545 
L 86.84252 234.594545 
L 86.813345 234.594545 
L 86.784169 234.594545 
L 86.754993 234.594545 
L 86.725818 234.594545 
L 86.696642 234.594545 
L 86.667466 234.594545 
L 86.63829 234.594545 
L 86.609115 234.594545 
L 86.579939 234.594545 
L 86.550763 234.594545 
L 86.521588 234.594545 
L 86.492412 234.594545 
L 86.463236 234.594545 
L 86.43406 234.594545 
L 86.404885 234.594545 
L 86.375709 234.594545 
L 86.346533 234.594545 
L 86.317358 234.594545 
L 86.288182 234.594545 
z
" clip-path="url(#pd6b4c26c09)" style="fill: #1f77b4; fill-opacity: 0.7"/>
   </g>
   <g id="FillBetweenPolyCollection_2">
    <path d="M 86.288182 234.594545 
L 86.288182 234.594545 
L 86.317358 234.594545 
L 86.346533 234.594545 
L 86.375709 234.594545 
L 86.404885 234.594545 
L 86.43406 234.594545 
L 86.463236 234.594545 
L 86.492412 234.594545 
L 86.521588 234.594545 
L 86.550763 234.594545 
L 86.579939 234.594545 
L 86.609115 234.594545 
L 86.63829 234.594545 
L 86.667466 234.594545 
L 86.696642 234.594545 
L 86.725818 234.594545 
L 86.754993 234.594545 
L 86.784169 234.594545 
L 86.813345 234.594545 
L 86.84252 234.594545 
L 86.871696 234.594545 
L 86.900872 234.594545 
L 86.930047 234.594545 
L 86.959223 234.594545 
L 86.988399 234.594545 
L 87.017575 234.594545 
L 87.04675 234.594545 
L 87.075926 234.594545 
L 87.105102 234.594545 
L 87.134277 234.594545 
L 87.163453 234.594545 
L 87.192629 234.594545 
L 87.221805 234.594545 
L 87.25098 234.594545 
L 87.280156 234.594545 
L 87.309332 234.594545 
L 87.338507 234.594545 
L 87.367683 234.594545 
L 87.396859 234.594545 
L 87.426035 234.594545 
L 87.45521 234.594545 
L 87.484386 234.594545 
L 87.513562 234.594545 
L 87.542737 234.594545 
L 87.571913 234.594545 
L 87.601089 234.594545 
L 87.630265 234.594545 
L 87.65944 234.594545 
L 87.688616 234.594545 
L 87.717792 234.594545 
L 87.776143 234.594545 
L 87.834495 234.594545 
L 87.892846 234.594545 
L 87.951197 234.594545 
L 88.009549 234.594545 
L 88.0679 234.594545 
L 88.126252 234.594545 
L 88.184603 234.594545 
L 88.242955 234.594545 
L 88.301306 234.594545 
L 88.359657 234.594545 
L 88.418009 234.594545 
L 88.47636 234.594545 
L 88.534712 234.594545 
L 88.593063 234.594545 
L 88.651415 234.594545 
L 88.709766 234.594545 
L 88.768117 234.594545 
L 88.826469 234.594545 
L 88.88482 234.594545 
L 88.943172 234.594545 
L 89.001523 234.594545 
L 89.059875 234.594545 
L 89.118226 234.594545 
L 89.176577 234.594545 
L 89.322456 234.594545 
L 89.468334 234.594545 
L 89.614213 234.594545 
L 89.760092 234.594545 
L 89.90597 234.594545 
L 90.051849 234.594545 
L 90.197727 234.594545 
L 90.343606 234.594545 
L 90.489484 234.594545 
L 90.635363 234.594545 
L 90.781242 234.594545 
L 90.92712 234.594545 
L 91.072999 234.594545 
L 91.218877 234.594545 
L 91.364756 234.594545 
L 91.510634 234.594545 
L 91.656513 234.594545 
L 91.802391 234.594545 
L 91.94827 234.594545 
L 92.094149 234.594545 
L 92.385906 234.594545 
L 92.677663 234.594545 
L 92.96942 234.594545 
L 93.261177 234.594545 
L 93.552934 234.594545 
L 100.846862 234.594545 
L 108.14079 234.594545 
L 115.434719 234.594545 
L 144.610431 234.594545 
L 173.786144 234.594545 
L 202.961856 234.594545 
L 232.137569 234.594545 
L 261.313281 234.594545 
L 290.488993 234.594545 
L 319.664706 234.594545 
L 348.840418 234.594545 
L 378.016131 234.594545 
L 450.955412 234.594545 
L 523.894693 234.594545 
L 596.833975 234.594545 
L 669.773256 234.594545 
L 815.651818 234.594545 
L 815.651818 234.594545 
L 815.651818 234.594545 
L 669.773256 234.594545 
L 596.833975 234.594545 
L 523.894693 234.594545 
L 450.955412 234.594545 
L 378.016131 234.594545 
L 348.840418 234.594545 
L 319.664706 234.594545 
L 290.488993 234.594545 
L 261.313281 234.594545 
L 232.137569 234.594545 
L 202.961856 234.594545 
L 173.786144 234.594545 
L 144.610431 234.594545 
L 115.434719 234.594545 
L 108.14079 234.594545 
L 100.846862 234.594545 
L 93.552934 234.594545 
L 93.261177 234.594545 
L 92.96942 234.594545 
L 92.677663 234.594545 
L 92.385906 234.594545 
L 92.094149 234.594545 
L 91.94827 234.594545 
L 91.802391 234.594545 
L 91.656513 234.594545 
L 91.510634 234.594545 
L 91.364756 234.594545 
L 91.218877 234.594545 
L 91.072999 234.594545 
L 90.92712 234.594545 
L 90.781242 234.594545 
L 90.635363 234.594545 
L 90.489484 234.594545 
L 90.343606 234.594545 
L 90.197727 234.594545 
L 90.051849 234.594545 
L 89.90597 234.594545 
L 89.760092 234.594545 
L 89.614213 234.594545 
L 89.468334 234.594545 
L 89.322456 234.594545 
L 89.176577 234.594545 
L 89.118226 234.594545 
L 89.059875 234.594545 
L 89.001523 234.594545 
L 88.943172 234.594545 
L 88.88482 234.594545 
L 88.826469 234.594545 
L 88.768117 234.594545 
L 88.709766 234.594545 
L 88.651415 234.594545 
L 88.593063 234.594545 
L 88.534712 234.594545 
L 88.47636 234.594545 
L 88.418009 234.594545 
L 88.359657 234.594545 
L 88.301306 234.594545 
L 88.242955 234.594545 
L 88.184603 234.594545 
L 88.126252 234.594545 
L 88.0679 234.594545 
L 88.009549 234.594545 
L 87.951197 234.594545 
L 87.892846 234.594545 
L 87.834495 234.594545 
L 87.776143 234.594545 
L 87.717792 234.594545 
L 87.688616 234.594545 
L 87.65944 234.594545 
L 87.630265 234.594545 
L 87.601089 234.594545 
L 87.571913 234.594545 
L 87.542737 234.594545 
L 87.513562 234.594545 
L 87.484386 234.594545 
L 87.45521 234.594545 
L 87.426035 234.594545 
L 87.396859 234.594545 
L 87.367683 234.594545 
L 87.338507 234.594545 
L 87.309332 234.594545 
L 87.280156 234.594545 
L 87.25098 234.594545 
L 87.221805 234.594545 
L 87.192629 234.594545 
L 87.163453 234.594545 
L 87.134277 234.594545 
L 87.105102 234.594545 
L 87.075926 234.594545 
L 87.04675 234.594545 
L 87.017575 234.594545 
L 86.988399 234.594545 
L 86.959223 234.594545 
L 86.930047 234.594545 
L 86.900872 234.594545 
L 86.871696 234.594545 
L 86.84252 234.594545 
L 86.813345 234.594545 
L 86.784169 234.594545 
L 86.754993 234.594545 
L 86.725818 234.594545 
L 86.696642 234.594545 
L 86.667466 234.594545 
L 86.63829 234.594545 
L 86.609115 234.594545 
L 86.579939 234.594545 
L 86.550763 234.594545 
L 86.521588 234.594545 
L 86.492412 234.594545 
L 86.463236 234.594545 
L 86.43406 234.594545 
L 86.404885 234.594545 
L 86.375709 234.594545 
L 86.346533 234.594545 
L 86.317358 234.594545 
L 86.288182 234.594545 
z
" clip-path="url(#pd6b4c26c09)" style="fill: #ff7f0e; fill-opacity: 0.7"/>
   </g>
   <g id="FillBetweenPolyCollection_3">
    <path d="M 86.288182 233.245722 
L 86.288182 234.594545 
L 86.317358 234.594545 
L 86.346533 234.594545 
L 86.375709 234.594545 
L 86.404885 234.594545 
L 86.43406 234.594545 
L 86.463236 234.594545 
L 86.492412 234.594545 
L 86.521588 234.594545 
L 86.550763 234.594545 
L 86.579939 234.594545 
L 86.609115 234.594545 
L 86.63829 234.594545 
L 86.667466 234.594545 
L 86.696642 234.594545 
L 86.725818 234.594545 
L 86.754993 234.594545 
L 86.784169 234.594545 
L 86.813345 234.594545 
L 86.84252 234.594545 
L 86.871696 234.594545 
L 86.900872 234.594545 
L 86.930047 234.594545 
L 86.959223 234.594545 
L 86.988399 234.594545 
L 87.017575 234.594545 
L 87.04675 234.594545 
L 87.075926 234.594545 
L 87.105102 234.594545 
L 87.134277 234.594545 
L 87.163453 234.594545 
L 87.192629 234.594545 
L 87.221805 234.594545 
L 87.25098 234.594545 
L 87.280156 234.594545 
L 87.309332 234.594545 
L 87.338507 234.594545 
L 87.367683 234.594545 
L 87.396859 234.594545 
L 87.426035 234.594545 
L 87.45521 234.594545 
L 87.484386 234.594545 
L 87.513562 234.594545 
L 87.542737 234.594545 
L 87.571913 234.594545 
L 87.601089 234.594545 
L 87.630265 234.594545 
L 87.65944 234.594545 
L 87.688616 234.594545 
L 87.717792 234.594545 
L 87.776143 234.594545 
L 87.834495 234.594545 
L 87.892846 234.594545 
L 87.951197 234.594545 
L 88.009549 234.594545 
L 88.0679 234.594545 
L 88.126252 234.594545 
L 88.184603 234.594545 
L 88.242955 234.594545 
L 88.301306 234.594545 
L 88.359657 234.594545 
L 88.418009 234.594545 
L 88.47636 234.594545 
L 88.534712 234.594545 
L 88.593063 234.594545 
L 88.651415 234.594545 
L 88.709766 234.594545 
L 88.768117 234.594545 
L 88.826469 234.594545 
L 88.88482 234.594545 
L 88.943172 234.594545 
L 89.001523 234.594545 
L 89.059875 234.594545 
L 89.118226 234.594545 
L 89.176577 234.594545 
L 89.322456 234.594545 
L 89.468334 234.594545 
L 89.614213 234.594545 
L 89.760092 234.594545 
L 89.90597 234.594545 
L 90.051849 234.594545 
L 90.197727 234.594545 
L 90.343606 234.594545 
L 90.489484 234.594545 
L 90.635363 234.594545 
L 90.781242 234.594545 
L 90.92712 234.594545 
L 91.072999 234.594545 
L 91.218877 234.594545 
L 91.364756 234.594545 
L 91.510634 234.594545 
L 91.656513 234.594545 
L 91.802391 234.594545 
L 91.94827 234.594545 
L 92.094149 234.594545 
L 92.385906 234.594545 
L 92.677663 234.594545 
L 92.96942 234.594545 
L 93.261177 234.594545 
L 93.552934 234.594545 
L 100.846862 234.594545 
L 108.14079 234.594545 
L 115.434719 234.594545 
L 144.610431 234.594545 
L 173.786144 234.594545 
L 202.961856 234.594545 
L 232.137569 234.594545 
L 261.313281 234.594545 
L 290.488993 234.594545 
L 319.664706 234.594545 
L 348.840418 234.594545 
L 378.016131 234.594545 
L 450.955412 234.594545 
L 523.894693 234.594545 
L 596.833975 234.594545 
L 669.773256 234.594545 
L 815.651818 234.594545 
L 815.651818 233.955629 
L 815.651818 233.955629 
L 669.773256 233.955629 
L 596.833975 233.955629 
L 523.894693 233.955629 
L 450.955412 233.955629 
L 378.016131 233.955629 
L 348.840418 233.955629 
L 319.664706 233.955629 
L 290.488993 233.955629 
L 261.313281 233.955629 
L 232.137569 233.955629 
L 202.961856 233.955629 
L 173.786144 233.955629 
L 144.610431 233.955629 
L 115.434719 233.955629 
L 108.14079 233.955629 
L 100.846862 233.955629 
L 93.552934 233.955629 
L 93.261177 233.955629 
L 92.96942 233.245722 
L 92.677663 233.955629 
L 92.385906 233.955629 
L 92.094149 233.955629 
L 91.94827 233.955629 
L 91.802391 233.955629 
L 91.656513 233.955629 
L 91.510634 233.245722 
L 91.364756 233.955629 
L 91.218877 233.955629 
L 91.072999 233.955629 
L 90.92712 233.955629 
L 90.781242 233.955629 
L 90.635363 233.316713 
L 90.489484 233.245722 
L 90.343606 233.245722 
L 90.197727 233.245722 
L 90.051849 233.245722 
L 89.90597 233.245722 
L 89.760092 233.245722 
L 89.614213 233.245722 
L 89.468334 233.245722 
L 89.322456 233.245722 
L 89.176577 233.245722 
L 89.118226 233.245722 
L 89.059875 233.245722 
L 89.001523 233.245722 
L 88.943172 233.245722 
L 88.88482 233.245722 
L 88.826469 233.245722 
L 88.768117 233.245722 
L 88.709766 233.245722 
L 88.651415 233.245722 
L 88.593063 233.245722 
L 88.534712 233.245722 
L 88.47636 233.245722 
L 88.418009 233.245722 
L 88.359657 233.245722 
L 88.301306 233.245722 
L 88.242955 233.245722 
L 88.184603 233.245722 
L 88.126252 233.245722 
L 88.0679 233.245722 
L 88.009549 233.245722 
L 87.951197 233.245722 
L 87.892846 233.245722 
L 87.834495 233.245722 
L 87.776143 233.245722 
L 87.717792 233.245722 
L 87.688616 233.245722 
L 87.65944 233.245722 
L 87.630265 233.245722 
L 87.601089 233.245722 
L 87.571913 233.245722 
L 87.542737 233.245722 
L 87.513562 233.245722 
L 87.484386 233.245722 
L 87.45521 233.245722 
L 87.426035 233.245722 
L 87.396859 233.245722 
L 87.367683 233.245722 
L 87.338507 233.245722 
L 87.309332 233.245722 
L 87.280156 233.245722 
L 87.25098 233.245722 
L 87.221805 233.245722 
L 87.192629 233.245722 
L 87.163453 233.245722 
L 87.134277 233.245722 
L 87.105102 233.245722 
L 87.075926 233.245722 
L 87.04675 233.245722 
L 87.017575 233.245722 
L 86.988399 233.245722 
L 86.959223 233.245722 
L 86.930047 233.316713 
L 86.900872 233.245722 
L 86.871696 233.316713 
L 86.84252 233.245722 
L 86.813345 233.245722 
L 86.784169 233.245722 
L 86.754993 233.245722 
L 86.725818 233.245722 
L 86.696642 233.245722 
L 86.667466 233.245722 
L 86.63829 233.245722 
L 86.609115 233.245722 
L 86.579939 233.245722 
L 86.550763 233.245722 
L 86.521588 233.245722 
L 86.492412 233.245722 
L 86.463236 233.245722 
L 86.43406 233.245722 
L 86.404885 233.245722 
L 86.375709 233.245722 
L 86.346533 233.245722 
L 86.317358 233.245722 
L 86.288182 233.245722 
z
" clip-path="url(#pd6b4c26c09)" style="fill: #2ca02c; fill-opacity: 0.7"/>
   </g>
   <g id="FillBetweenPolyCollection_4">
    <path d="M 86.288182 233.245722 
L 86.288182 233.245722 
L 86.317358 233.245722 
L 86.346533 233.245722 
L 86.375709 233.245722 
L 86.404885 233.245722 
L 86.43406 233.245722 
L 86.463236 233.245722 
L 86.492412 233.245722 
L 86.521588 233.245722 
L 86.550763 233.245722 
L 86.579939 233.245722 
L 86.609115 233.245722 
L 86.63829 233.245722 
L 86.667466 233.245722 
L 86.696642 233.245722 
L 86.725818 233.245722 
L 86.754993 233.245722 
L 86.784169 233.245722 
L 86.813345 233.245722 
L 86.84252 233.245722 
L 86.871696 233.316713 
L 86.900872 233.245722 
L 86.930047 233.316713 
L 86.959223 233.245722 
L 86.988399 233.245722 
L 87.017575 233.245722 
L 87.04675 233.245722 
L 87.075926 233.245722 
L 87.105102 233.245722 
L 87.134277 233.245722 
L 87.163453 233.245722 
L 87.192629 233.245722 
L 87.221805 233.245722 
L 87.25098 233.245722 
L 87.280156 233.245722 
L 87.309332 233.245722 
L 87.338507 233.245722 
L 87.367683 233.245722 
L 87.396859 233.245722 
L 87.426035 233.245722 
L 87.45521 233.245722 
L 87.484386 233.245722 
L 87.513562 233.245722 
L 87.542737 233.245722 
L 87.571913 233.245722 
L 87.601089 233.245722 
L 87.630265 233.245722 
L 87.65944 233.245722 
L 87.688616 233.245722 
L 87.717792 233.245722 
L 87.776143 233.245722 
L 87.834495 233.245722 
L 87.892846 233.245722 
L 87.951197 233.245722 
L 88.009549 233.245722 
L 88.0679 233.245722 
L 88.126252 233.245722 
L 88.184603 233.245722 
L 88.242955 233.245722 
L 88.301306 233.245722 
L 88.359657 233.245722 
L 88.418009 233.245722 
L 88.47636 233.245722 
L 88.534712 233.245722 
L 88.593063 233.245722 
L 88.651415 233.245722 
L 88.709766 233.245722 
L 88.768117 233.245722 
L 88.826469 233.245722 
L 88.88482 233.245722 
L 88.943172 233.245722 
L 89.001523 233.245722 
L 89.059875 233.245722 
L 89.118226 233.245722 
L 89.176577 233.245722 
L 89.322456 233.245722 
L 89.468334 233.245722 
L 89.614213 233.245722 
L 89.760092 233.245722 
L 89.90597 233.245722 
L 90.051849 233.245722 
L 90.197727 233.245722 
L 90.343606 233.245722 
L 90.489484 233.245722 
L 90.635363 233.316713 
L 90.781242 233.955629 
L 90.92712 233.955629 
L 91.072999 233.955629 
L 91.218877 233.955629 
L 91.364756 233.955629 
L 91.510634 233.245722 
L 91.656513 233.955629 
L 91.802391 233.955629 
L 91.94827 233.955629 
L 92.094149 233.955629 
L 92.385906 233.955629 
L 92.677663 233.955629 
L 92.96942 233.245722 
L 93.261177 233.955629 
L 93.552934 233.955629 
L 100.846862 233.955629 
L 108.14079 233.955629 
L 115.434719 233.955629 
L 144.610431 233.955629 
L 173.786144 233.955629 
L 202.961856 233.955629 
L 232.137569 233.955629 
L 261.313281 233.955629 
L 290.488993 233.955629 
L 319.664706 233.955629 
L 348.840418 233.955629 
L 378.016131 233.955629 
L 450.955412 233.955629 
L 523.894693 233.955629 
L 596.833975 233.955629 
L 669.773256 233.955629 
L 815.651818 233.955629 
L 815.651818 233.955629 
L 815.651818 233.955629 
L 669.773256 233.955629 
L 596.833975 233.955629 
L 523.894693 233.955629 
L 450.955412 233.955629 
L 378.016131 233.955629 
L 348.840418 233.955629 
L 319.664706 233.955629 
L 290.488993 233.955629 
L 261.313281 233.955629 
L 232.137569 233.955629 
L 202.961856 233.955629 
L 173.786144 233.955629 
L 144.610431 233.955629 
L 115.434719 233.955629 
L 108.14079 233.955629 
L 100.846862 233.955629 
L 93.552934 233.955629 
L 93.261177 233.955629 
L 92.96942 233.245722 
L 92.677663 233.955629 
L 92.385906 233.955629 
L 92.094149 233.955629 
L 91.94827 233.955629 
L 91.802391 233.955629 
L 91.656513 233.955629 
L 91.510634 233.245722 
L 91.364756 233.955629 
L 91.218877 233.955629 
L 91.072999 233.955629 
L 90.92712 233.955629 
L 90.781242 233.955629 
L 90.635363 233.316713 
L 90.489484 233.245722 
L 90.343606 233.245722 
L 90.197727 233.245722 
L 90.051849 233.245722 
L 89.90597 233.245722 
L 89.760092 233.245722 
L 89.614213 233.245722 
L 89.468334 233.245722 
L 89.322456 233.245722 
L 89.176577 233.245722 
L 89.118226 233.245722 
L 89.059875 233.245722 
L 89.001523 233.245722 
L 88.943172 233.245722 
L 88.88482 233.245722 
L 88.826469 233.245722 
L 88.768117 233.245722 
L 88.709766 233.245722 
L 88.651415 233.245722 
L 88.593063 233.245722 
L 88.534712 233.245722 
L 88.47636 233.245722 
L 88.418009 233.245722 
L 88.359657 233.245722 
L 88.301306 233.245722 
L 88.242955 233.245722 
L 88.184603 233.245722 
L 88.126252 233.245722 
L 88.0679 233.245722 
L 88.009549 233.245722 
L 87.951197 233.245722 
L 87.892846 233.245722 
L 87.834495 233.245722 
L 87.776143 233.245722 
L 87.717792 233.245722 
L 87.688616 233.245722 
L 87.65944 233.245722 
L 87.630265 233.245722 
L 87.601089 233.245722 
L 87.571913 233.245722 
L 87.542737 233.245722 
L 87.513562 233.245722 
L 87.484386 233.245722 
L 87.45521 233.245722 
L 87.426035 233.245722 
L 87.396859 233.245722 
L 87.367683 233.245722 
L 87.338507 233.245722 
L 87.309332 233.245722 
L 87.280156 233.245722 
L 87.25098 233.245722 
L 87.221805 233.245722 
L 87.192629 233.245722 
L 87.163453 233.245722 
L 87.134277 233.245722 
L 87.105102 233.245722 
L 87.075926 233.245722 
L 87.04675 233.245722 
L 87.017575 233.245722 
L 86.988399 233.245722 
L 86.959223 233.245722 
L 86.930047 233.316713 
L 86.900872 233.245722 
L 86.871696 233.316713 
L 86.84252 233.245722 
L 86.813345 233.245722 
L 86.784169 233.245722 
L 86.754993 233.245722 
L 86.725818 233.245722 
L 86.696642 233.245722 
L 86.667466 233.245722 
L 86.63829 233.245722 
L 86.609115 233.245722 
L 86.579939 233.245722 
L 86.550763 233.245722 
L 86.521588 233.245722 
L 86.492412 233.245722 
L 86.463236 233.245722 
L 86.43406 233.245722 
L 86.404885 233.245722 
L 86.375709 233.245722 
L 86.346533 233.245722 
L 86.317358 233.245722 
L 86.288182 233.245722 
z
" clip-path="url(#pd6b4c26c09)" style="fill: #d62728; fill-opacity: 0.7"/>
   </g>
   <g id="FillBetweenPolyCollection_5">
    <path d="M 86.288182 42.49372 
L 86.288182 233.245722 
L 86.317358 233.245722 
L 86.346533 233.245722 
L 86.375709 233.245722 
L 86.404885 233.245722 
L 86.43406 233.245722 
L 86.463236 233.245722 
L 86.492412 233.245722 
L 86.521588 233.245722 
L 86.550763 233.245722 
L 86.579939 233.245722 
L 86.609115 233.245722 
L 86.63829 233.245722 
L 86.667466 233.245722 
L 86.696642 233.245722 
L 86.725818 233.245722 
L 86.754993 233.245722 
L 86.784169 233.245722 
L 86.813345 233.245722 
L 86.84252 233.245722 
L 86.871696 233.316713 
L 86.900872 233.245722 
L 86.930047 233.316713 
L 86.959223 233.245722 
L 86.988399 233.245722 
L 87.017575 233.245722 
L 87.04675 233.245722 
L 87.075926 233.245722 
L 87.105102 233.245722 
L 87.134277 233.245722 
L 87.163453 233.245722 
L 87.192629 233.245722 
L 87.221805 233.245722 
L 87.25098 233.245722 
L 87.280156 233.245722 
L 87.309332 233.245722 
L 87.338507 233.245722 
L 87.367683 233.245722 
L 87.396859 233.245722 
L 87.426035 233.245722 
L 87.45521 233.245722 
L 87.484386 233.245722 
L 87.513562 233.245722 
L 87.542737 233.245722 
L 87.571913 233.245722 
L 87.601089 233.245722 
L 87.630265 233.245722 
L 87.65944 233.245722 
L 87.688616 233.245722 
L 87.717792 233.245722 
L 87.776143 233.245722 
L 87.834495 233.245722 
L 87.892846 233.245722 
L 87.951197 233.245722 
L 88.009549 233.245722 
L 88.0679 233.245722 
L 88.126252 233.245722 
L 88.184603 233.245722 
L 88.242955 233.245722 
L 88.301306 233.245722 
L 88.359657 233.245722 
L 88.418009 233.245722 
L 88.47636 233.245722 
L 88.534712 233.245722 
L 88.593063 233.245722 
L 88.651415 233.245722 
L 88.709766 233.245722 
L 88.768117 233.245722 
L 88.826469 233.245722 
L 88.88482 233.245722 
L 88.943172 233.245722 
L 89.001523 233.245722 
L 89.059875 233.245722 
L 89.118226 233.245722 
L 89.176577 233.245722 
L 89.322456 233.245722 
L 89.468334 233.245722 
L 89.614213 233.245722 
L 89.760092 233.245722 
L 89.90597 233.245722 
L 90.051849 233.245722 
L 90.197727 233.245722 
L 90.343606 233.245722 
L 90.489484 233.245722 
L 90.635363 233.316713 
L 90.781242 233.955629 
L 90.92712 233.955629 
L 91.072999 233.955629 
L 91.218877 233.955629 
L 91.364756 233.955629 
L 91.510634 233.245722 
L 91.656513 233.955629 
L 91.802391 233.955629 
L 91.94827 233.955629 
L 92.094149 233.955629 
L 92.385906 233.955629 
L 92.677663 233.955629 
L 92.96942 233.245722 
L 93.261177 233.955629 
L 93.552934 233.955629 
L 100.846862 233.955629 
L 108.14079 233.955629 
L 115.434719 233.955629 
L 144.610431 233.955629 
L 173.786144 233.955629 
L 202.961856 233.955629 
L 232.137569 233.955629 
L 261.313281 233.955629 
L 290.488993 233.955629 
L 319.664706 233.955629 
L 348.840418 233.955629 
L 378.016131 233.955629 
L 450.955412 233.955629 
L 523.894693 233.955629 
L 596.833975 233.955629 
L 669.773256 233.955629 
L 815.651818 233.955629 
L 815.651818 46.61118 
L 815.651818 46.61118 
L 669.773256 47.321087 
L 596.833975 46.61118 
L 523.894693 48.59892 
L 450.955412 48.882882 
L 378.016131 45.049385 
L 348.840418 49.237836 
L 319.664706 48.527929 
L 290.488993 48.101985 
L 261.313281 47.321087 
L 232.137569 48.66991 
L 202.961856 47.60505 
L 173.786144 44.197496 
L 144.610431 45.830282 
L 115.434719 47.037124 
L 108.14079 45.191366 
L 100.846862 46.966134 
L 93.552934 39.583101 
L 93.261177 38.802203 
L 92.96942 36.885455 
L 92.677663 37.666352 
L 92.385906 39.867064 
L 92.094149 40.718952 
L 91.94827 40.434989 
L 91.802391 38.518241 
L 91.656513 38.660222 
L 91.510634 38.44725 
L 91.364756 37.879324 
L 91.218877 38.873194 
L 91.072999 40.293008 
L 90.92712 42.067775 
L 90.781242 42.138766 
L 90.635363 44.268487 
L 90.489484 42.777682 
L 90.343606 42.351738 
L 90.197727 42.422729 
L 90.051849 43.203627 
L 89.90597 40.434989 
L 89.760092 43.700561 
L 89.614213 42.56471 
L 89.468334 42.209757 
L 89.322456 44.55245 
L 89.176577 44.410468 
L 89.118226 45.61731 
L 89.059875 44.197496 
L 89.001523 44.481459 
L 88.943172 44.268487 
L 88.88482 42.919664 
L 88.826469 46.327217 
L 88.768117 43.629571 
L 88.709766 44.836413 
L 88.651415 41.49985 
L 88.593063 41.996785 
L 88.534712 42.422729 
L 88.47636 41.49985 
L 88.418009 43.274617 
L 88.359657 42.777682 
L 88.301306 42.848673 
L 88.242955 44.907403 
L 88.184603 42.49372 
L 88.126252 41.925794 
L 88.0679 41.428859 
L 88.009549 38.660222 
L 87.951197 40.151027 
L 87.892846 43.416599 
L 87.834495 44.694431 
L 87.776143 43.487589 
L 87.717792 42.49372 
L 87.688616 43.842543 
L 87.65944 42.990654 
L 87.630265 42.919664 
L 87.601089 42.067775 
L 87.571913 41.570841 
L 87.542737 40.860934 
L 87.513562 39.51211 
L 87.484386 43.345608 
L 87.45521 42.067775 
L 87.426035 43.416599 
L 87.396859 42.138766 
L 87.367683 41.712822 
L 87.338507 40.293008 
L 87.309332 38.589231 
L 87.280156 39.370129 
L 87.25098 38.873194 
L 87.221805 43.274617 
L 87.192629 38.660222 
L 87.163453 38.731213 
L 87.134277 40.860934 
L 87.105102 41.215887 
L 87.075926 42.706692 
L 87.04675 42.777682 
L 87.017575 43.771552 
L 86.988399 42.919664 
L 86.959223 43.345608 
L 86.930047 45.404338 
L 86.900872 43.203627 
L 86.871696 40.434989 
L 86.84252 42.706692 
L 86.813345 43.132636 
L 86.784169 41.854803 
L 86.754993 42.848673 
L 86.725818 43.061645 
L 86.696642 44.055515 
L 86.667466 43.55858 
L 86.63829 44.907403 
L 86.609115 43.629571 
L 86.579939 42.422729 
L 86.550763 45.262357 
L 86.521588 45.333347 
L 86.492412 39.796073 
L 86.463236 42.280748 
L 86.43406 43.771552 
L 86.404885 43.842543 
L 86.375709 44.694431 
L 86.346533 45.191366 
L 86.317358 41.357868 
L 86.288182 42.49372 
z
" clip-path="url(#pd6b4c26c09)" style="fill: #9467bd; fill-opacity: 0.7"/>
   </g>
   <g id="FillBetweenPolyCollection_6">
    <path d="M 86.288182 42.49372 
L 86.288182 42.49372 
L 86.317358 41.357868 
L 86.346533 45.191366 
L 86.375709 44.694431 
L 86.404885 43.842543 
L 86.43406 43.771552 
L 86.463236 42.280748 
L 86.492412 39.796073 
L 86.521588 45.333347 
L 86.550763 45.262357 
L 86.579939 42.422729 
L 86.609115 43.629571 
L 86.63829 44.907403 
L 86.667466 43.55858 
L 86.696642 44.055515 
L 86.725818 43.061645 
L 86.754993 42.848673 
L 86.784169 41.854803 
L 86.813345 43.132636 
L 86.84252 42.706692 
L 86.871696 40.434989 
L 86.900872 43.203627 
L 86.930047 45.404338 
L 86.959223 43.345608 
L 86.988399 42.919664 
L 87.017575 43.771552 
L 87.04675 42.777682 
L 87.075926 42.706692 
L 87.105102 41.215887 
L 87.134277 40.860934 
L 87.163453 38.731213 
L 87.192629 38.660222 
L 87.221805 43.274617 
L 87.25098 38.873194 
L 87.280156 39.370129 
L 87.309332 38.589231 
L 87.338507 40.293008 
L 87.367683 41.712822 
L 87.396859 42.138766 
L 87.426035 43.416599 
L 87.45521 42.067775 
L 87.484386 43.345608 
L 87.513562 39.51211 
L 87.542737 40.860934 
L 87.571913 41.570841 
L 87.601089 42.067775 
L 87.630265 42.919664 
L 87.65944 42.990654 
L 87.688616 43.842543 
L 87.717792 42.49372 
L 87.776143 43.487589 
L 87.834495 44.694431 
L 87.892846 43.416599 
L 87.951197 40.151027 
L 88.009549 38.660222 
L 88.0679 41.428859 
L 88.126252 41.925794 
L 88.184603 42.49372 
L 88.242955 44.907403 
L 88.301306 42.848673 
L 88.359657 42.777682 
L 88.418009 43.274617 
L 88.47636 41.49985 
L 88.534712 42.422729 
L 88.593063 41.996785 
L 88.651415 41.49985 
L 88.709766 44.836413 
L 88.768117 43.629571 
L 88.826469 46.327217 
L 88.88482 42.919664 
L 88.943172 44.268487 
L 89.001523 44.481459 
L 89.059875 44.197496 
L 89.118226 45.61731 
L 89.176577 44.410468 
L 89.322456 44.55245 
L 89.468334 42.209757 
L 89.614213 42.56471 
L 89.760092 43.700561 
L 89.90597 40.434989 
L 90.051849 43.203627 
L 90.197727 42.422729 
L 90.343606 42.351738 
L 90.489484 42.777682 
L 90.635363 44.268487 
L 90.781242 42.138766 
L 90.92712 42.067775 
L 91.072999 40.293008 
L 91.218877 38.873194 
L 91.364756 37.879324 
L 91.510634 38.44725 
L 91.656513 38.660222 
L 91.802391 38.518241 
L 91.94827 40.434989 
L 92.094149 40.718952 
L 92.385906 39.867064 
L 92.677663 37.666352 
L 92.96942 36.885455 
L 93.261177 38.802203 
L 93.552934 39.583101 
L 100.846862 46.966134 
L 108.14079 45.191366 
L 115.434719 47.037124 
L 144.610431 45.830282 
L 173.786144 44.197496 
L 202.961856 47.60505 
L 232.137569 48.66991 
L 261.313281 47.321087 
L 290.488993 48.101985 
L 319.664706 48.527929 
L 348.840418 49.237836 
L 378.016131 45.049385 
L 450.955412 48.882882 
L 523.894693 48.59892 
L 596.833975 46.61118 
L 669.773256 47.321087 
L 815.651818 46.61118 
L 815.651818 46.61118 
L 815.651818 46.61118 
L 669.773256 47.321087 
L 596.833975 46.61118 
L 523.894693 48.59892 
L 450.955412 48.882882 
L 378.016131 45.049385 
L 348.840418 49.237836 
L 319.664706 48.527929 
L 290.488993 48.101985 
L 261.313281 47.321087 
L 232.137569 48.66991 
L 202.961856 47.60505 
L 173.786144 44.197496 
L 144.610431 45.830282 
L 115.434719 47.037124 
L 108.14079 45.191366 
L 100.846862 46.966134 
L 93.552934 39.583101 
L 93.261177 38.802203 
L 92.96942 36.885455 
L 92.677663 37.666352 
L 92.385906 39.867064 
L 92.094149 40.718952 
L 91.94827 40.434989 
L 91.802391 38.518241 
L 91.656513 38.660222 
L 91.510634 38.44725 
L 91.364756 37.879324 
L 91.218877 38.873194 
L 91.072999 40.293008 
L 90.92712 42.067775 
L 90.781242 42.138766 
L 90.635363 44.268487 
L 90.489484 42.777682 
L 90.343606 42.351738 
L 90.197727 42.422729 
L 90.051849 43.203627 
L 89.90597 40.434989 
L 89.760092 43.700561 
L 89.614213 42.56471 
L 89.468334 42.209757 
L 89.322456 44.55245 
L 89.176577 44.410468 
L 89.118226 45.61731 
L 89.059875 44.197496 
L 89.001523 44.481459 
L 88.943172 44.268487 
L 88.88482 42.919664 
L 88.826469 46.327217 
L 88.768117 43.629571 
L 88.709766 44.836413 
L 88.651415 41.49985 
L 88.593063 41.996785 
L 88.534712 42.422729 
L 88.47636 41.49985 
L 88.418009 43.274617 
L 88.359657 42.777682 
L 88.301306 42.848673 
L 88.242955 44.907403 
L 88.184603 42.49372 
L 88.126252 41.925794 
L 88.0679 41.428859 
L 88.009549 38.660222 
L 87.951197 40.151027 
L 87.892846 43.416599 
L 87.834495 44.694431 
L 87.776143 43.487589 
L 87.717792 42.49372 
L 87.688616 43.842543 
L 87.65944 42.990654 
L 87.630265 42.919664 
L 87.601089 42.067775 
L 87.571913 41.570841 
L 87.542737 40.860934 
L 87.513562 39.51211 
L 87.484386 43.345608 
L 87.45521 42.067775 
L 87.426035 43.416599 
L 87.396859 42.138766 
L 87.367683 41.712822 
L 87.338507 40.293008 
L 87.309332 38.589231 
L 87.280156 39.370129 
L 87.25098 38.873194 
L 87.221805 43.274617 
L 87.192629 38.660222 
L 87.163453 38.731213 
L 87.134277 40.860934 
L 87.105102 41.215887 
L 87.075926 42.706692 
L 87.04675 42.777682 
L 87.017575 43.771552 
L 86.988399 42.919664 
L 86.959223 43.345608 
L 86.930047 45.404338 
L 86.900872 43.203627 
L 86.871696 40.434989 
L 86.84252 42.706692 
L 86.813345 43.132636 
L 86.784169 41.854803 
L 86.754993 42.848673 
L 86.725818 43.061645 
L 86.696642 44.055515 
L 86.667466 43.55858 
L 86.63829 44.907403 
L 86.609115 43.629571 
L 86.579939 42.422729 
L 86.550763 45.262357 
L 86.521588 45.333347 
L 86.492412 39.796073 
L 86.463236 42.280748 
L 86.43406 43.771552 
L 86.404885 43.842543 
L 86.375709 44.694431 
L 86.346533 45.191366 
L 86.317358 41.357868 
L 86.288182 42.49372 
z
" clip-path="url(#pd6b4c26c09)" style="fill: #8c564b; fill-opacity: 0.7"/>
   </g>
   <g id="matplotlib.axis_1">
    <g id="xtick_1">
     <g id="line2d_1">
      <path d="M 86.259006 244.48 
L 86.259006 27 
" clip-path="url(#pd6b4c26c09)" style="fill: none; stroke: #b0b0b0; stroke-opacity: 0.25; stroke-width: 0.8; stroke-linecap: square"/>
     </g>
     <g id="line2d_2">
      <defs>
       <path id="mbe1730fb86" d="M 0 0 
L 0 3.5 
" style="stroke: #000000; stroke-width: 0.8"/>
      </defs>
      <g>
       <use xlink:href="#mbe1730fb86" x="86.259006" y="244.48" style="stroke: #000000; stroke-width: 0.8"/>
      </g>
     </g>
     <g id="text_1">
      <!-- 0 -->
      <g transform="translate(83.077756 259.078438) scale(0.1 -0.1)">
       <defs>
        <path id="DejaVuSans-30" d="M 2034 4250 
Q 1547 4250 1301 3770 
Q 1056 3291 1056 2328 
Q 1056 1369 1301 889 
Q 1547 409 2034 409 
Q 2525 409 2770 889 
Q 3016 1369 3016 2328 
Q 3016 3291 2770 3770 
Q 2525 4250 2034 4250 
z
M 2034 4750 
Q 2819 4750 3233 4129 
Q 3647 3509 3647 2328 
Q 3647 1150 3233 529 
Q 2819 -91 2034 -91 
Q 1250 -91 836 529 
Q 422 1150 422 2328 
Q 422 3509 836 4129 
Q 1250 4750 2034 4750 
z
" transform="scale(0.015625)"/>
       </defs>
       <use xlink:href="#DejaVuSans-30"/>
      </g>
     </g>
    </g>
    <g id="xtick_2">
     <g id="line2d_3">
      <path d="M 232.137569 244.48 
L 232.137569 27 
" clip-path="url(#pd6b4c26c09)" style="fill: none; stroke: #b0b0b0; stroke-opacity: 0.25; stroke-width: 0.8; stroke-linecap: square"/>
     </g>
     <g id="line2d_4">
      <g>
       <use xlink:href="#mbe1730fb86" x="232.137569" y="244.48" style="stroke: #000000; stroke-width: 0.8"/>
      </g>
     </g>
     <g id="text_2">
      <!-- 5000 -->
      <g transform="translate(219.412569 259.078438) scale(0.1 -0.1)">
       <defs>
        <path id="DejaVuSans-35" d="M 691 4666 
L 3169 4666 
L 3169 4134 
L 1269 4134 
L 1269 2991 
Q 1406 3038 1543 3061 
Q 1681 3084 1819 3084 
Q 2600 3084 3056 2656 
Q 3513 2228 3513 1497 
Q 3513 744 3044 326 
Q 2575 -91 1722 -91 
Q 1428 -91 1123 -41 
Q 819 9 494 109 
L 494 744 
Q 775 591 1075 516 
Q 1375 441 1709 441 
Q 2250 441 2565 725 
Q 2881 1009 2881 1497 
Q 2881 1984 2565 2268 
Q 2250 2553 1709 2553 
Q 1456 2553 1204 2497 
Q 953 2441 691 2322 
L 691 4666 
z
" transform="scale(0.015625)"/>
       </defs>
       <use xlink:href="#DejaVuSans-35"/>
       <use xlink:href="#DejaVuSans-30" transform="translate(63.623047 0)"/>
       <use xlink:href="#DejaVuSans-30" transform="translate(127.246094 0)"/>
       <use xlink:href="#DejaVuSans-30" transform="translate(190.869141 0)"/>
      </g>
     </g>
    </g>
    <g id="xtick_3">
     <g id="line2d_5">
      <path d="M 378.016131 244.48 
L 378.016131 27 
" clip-path="url(#pd6b4c26c09)" style="fill: none; stroke: #b0b0b0; stroke-opacity: 0.25; stroke-width: 0.8; stroke-linecap: square"/>
     </g>
     <g id="line2d_6">
      <g>
       <use xlink:href="#mbe1730fb86" x="378.016131" y="244.48" style="stroke: #000000; stroke-width: 0.8"/>
      </g>
     </g>
     <g id="text_3">
      <!-- 10000 -->
      <g transform="translate(362.109881 259.078438) scale(0.1 -0.1)">
       <defs>
        <path id="DejaVuSans-31" d="M 794 531 
L 1825 531 
L 1825 4091 
L 703 3866 
L 703 4441 
L 1819 4666 
L 2450 4666 
L 2450 531 
L 3481 531 
L 3481 0 
L 794 0 
L 794 531 
z
" transform="scale(0.015625)"/>
       </defs>
       <use xlink:href="#DejaVuSans-31"/>
       <use xlink:href="#DejaVuSans-30" transform="translate(63.623047 0)"/>
       <use xlink:href="#DejaVuSans-30" transform="translate(127.246094 0)"/>
       <use xlink:href="#DejaVuSans-30" transform="translate(190.869141 0)"/>
       <use xlink:href="#DejaVuSans-30" transform="translate(254.492188 0)"/>
      </g>
     </g>
    </g>
    <g id="xtick_4">
     <g id="line2d_7">
      <path d="M 523.894693 244.48 
L 523.894693 27 
" clip-path="url(#pd6b4c26c09)" style="fill: none; stroke: #b0b0b0; stroke-opacity: 0.25; stroke-width: 0.8; stroke-linecap: square"/>
     </g>
     <g id="line2d_8">
      <g>
       <use xlink:href="#mbe1730fb86" x="523.894693" y="244.48" style="stroke: #000000; stroke-width: 0.8"/>
      </g>
     </g>
     <g id="text_4">
      <!-- 15000 -->
      <g transform="translate(507.988443 259.078438) scale(0.1 -0.1)">
       <use xlink:href="#DejaVuSans-31"/>
       <use xlink:href="#DejaVuSans-35" transform="translate(63.623047 0)"/>
       <use xlink:href="#DejaVuSans-30" transform="translate(127.246094 0)"/>
       <use xlink:href="#DejaVuSans-30" transform="translate(190.869141 0)"/>
       <use xlink:href="#DejaVuSans-30" transform="translate(254.492188 0)"/>
      </g>
     </g>
    </g>
    <g id="xtick_5">
     <g id="line2d_9">
      <path d="M 669.773256 244.48 
L 669.773256 27 
" clip-path="url(#pd6b4c26c09)" style="fill: none; stroke: #b0b0b0; stroke-opacity: 0.25; stroke-width: 0.8; stroke-linecap: square"/>
     </g>
     <g id="line2d_10">
      <g>
       <use xlink:href="#mbe1730fb86" x="669.773256" y="244.48" style="stroke: #000000; stroke-width: 0.8"/>
      </g>
     </g>
     <g id="text_5">
      <!-- 20000 -->
      <g transform="translate(653.867006 259.078438) scale(0.1 -0.1)">
       <defs>
        <path id="DejaVuSans-32" d="M 1228 531 
L 3431 531 
L 3431 0 
L 469 0 
L 469 531 
Q 828 903 1448 1529 
Q 2069 2156 2228 2338 
Q 2531 2678 2651 2914 
Q 2772 3150 2772 3378 
Q 2772 3750 2511 3984 
Q 2250 4219 1831 4219 
Q 1534 4219 1204 4116 
Q 875 4013 500 3803 
L 500 4441 
Q 881 4594 1212 4672 
Q 1544 4750 1819 4750 
Q 2544 4750 2975 4387 
Q 3406 4025 3406 3419 
Q 3406 3131 3298 2873 
Q 3191 2616 2906 2266 
Q 2828 2175 2409 1742 
Q 1991 1309 1228 531 
z
" transform="scale(0.015625)"/>
       </defs>
       <use xlink:href="#DejaVuSans-32"/>
       <use xlink:href="#DejaVuSans-30" transform="translate(63.623047 0)"/>
       <use xlink:href="#DejaVuSans-30" transform="translate(127.246094 0)"/>
       <use xlink:href="#DejaVuSans-30" transform="translate(190.869141 0)"/>
       <use xlink:href="#DejaVuSans-30" transform="translate(254.492188 0)"/>
      </g>
     </g>
    </g>
    <g id="xtick_6">
     <g id="line2d_11">
      <path d="M 815.651818 244.48 
L 815.651818 27 
" clip-path="url(#pd6b4c26c09)" style="fill: none; stroke: #b0b0b0; stroke-opacity: 0.25; stroke-width: 0.8; stroke-linecap: square"/>
     </g>
     <g id="line2d_12">
      <g>
       <use xlink:href="#mbe1730fb86" x="815.651818" y="244.48" style="stroke: #000000; stroke-width: 0.8"/>
      </g>
     </g>
     <g id="text_6">
      <!-- 25000 -->
      <g transform="translate(799.745568 259.078438) scale(0.1 -0.1)">
       <use xlink:href="#DejaVuSans-32"/>
       <use xlink:href="#DejaVuSans-35" transform="translate(63.623047 0)"/>
       <use xlink:href="#DejaVuSans-30" transform="translate(127.246094 0)"/>
       <use xlink:href="#DejaVuSans-30" transform="translate(190.869141 0)"/>
       <use xlink:href="#DejaVuSans-30" transform="translate(254.492188 0)"/>
      </g>
     </g>
    </g>
    <g id="text_7">
     <!-- Input -->
     <g transform="translate(436.728437 273.516406) scale(0.11 -0.11)">
      <defs>
       <path id="DejaVuSans-49" d="M 628 4666 
L 1259 4666 
L 1259 0 
L 628 0 
L 628 4666 
z
" transform="scale(0.015625)"/>
       <path id="DejaVuSans-6e" d="M 3513 2113 
L 3513 0 
L 2938 0 
L 2938 2094 
Q 2938 2591 2744 2837 
Q 2550 3084 2163 3084 
Q 1697 3084 1428 2787 
Q 1159 2491 1159 1978 
L 1159 0 
L 581 0 
L 581 3500 
L 1159 3500 
L 1159 2956 
Q 1366 3272 1645 3428 
Q 1925 3584 2291 3584 
Q 2894 3584 3203 3211 
Q 3513 2838 3513 2113 
z
" transform="scale(0.015625)"/>
       <path id="DejaVuSans-70" d="M 1159 525 
L 1159 -1331 
L 581 -1331 
L 581 3500 
L 1159 3500 
L 1159 2969 
Q 1341 3281 1617 3432 
Q 1894 3584 2278 3584 
Q 2916 3584 3314 3078 
Q 3713 2572 3713 1747 
Q 3713 922 3314 415 
Q 2916 -91 2278 -91 
Q 1894 -91 1617 61 
Q 1341 213 1159 525 
z
M 3116 1747 
Q 3116 2381 2855 2742 
Q 2594 3103 2138 3103 
Q 1681 3103 1420 2742 
Q 1159 2381 1159 1747 
Q 1159 1113 1420 752 
Q 1681 391 2138 391 
Q 2594 391 2855 752 
Q 3116 1113 3116 1747 
z
" transform="scale(0.015625)"/>
       <path id="DejaVuSans-75" d="M 544 1381 
L 544 3500 
L 1119 3500 
L 1119 1403 
Q 1119 906 1312 657 
Q 1506 409 1894 409 
Q 2359 409 2629 706 
Q 2900 1003 2900 1516 
L 2900 3500 
L 3475 3500 
L 3475 0 
L 2900 0 
L 2900 538 
Q 2691 219 2414 64 
Q 2138 -91 1772 -91 
Q 1169 -91 856 284 
Q 544 659 544 1381 
z
M 1991 3584 
L 1991 3584 
z
" transform="scale(0.015625)"/>
       <path id="DejaVuSans-74" d="M 1172 4494 
L 1172 3500 
L 2356 3500 
L 2356 3053 
L 1172 3053 
L 1172 1153 
Q 1172 725 1289 603 
Q 1406 481 1766 481 
L 2356 481 
L 2356 0 
L 1766 0 
Q 1100 0 847 248 
Q 594 497 594 1153 
L 594 3053 
L 172 3053 
L 172 3500 
L 594 3500 
L 594 4494 
L 1172 4494 
z
" transform="scale(0.015625)"/>
      </defs>
      <use xlink:href="#DejaVuSans-49"/>
      <use xlink:href="#DejaVuSans-6e" transform="translate(29.492188 0)"/>
      <use xlink:href="#DejaVuSans-70" transform="translate(92.871094 0)"/>
      <use xlink:href="#DejaVuSans-75" transform="translate(156.347656 0)"/>
      <use xlink:href="#DejaVuSans-74" transform="translate(219.726562 0)"/>
     </g>
    </g>
   </g>
   <g id="matplotlib.axis_2">
    <g id="ytick_1">
     <g id="line2d_13">
      <path d="M 49.82 234.594545 
L 852.12 234.594545 
" clip-path="url(#pd6b4c26c09)" style="fill: none; stroke: #b0b0b0; stroke-opacity: 0.25; stroke-width: 0.8; stroke-linecap: square"/>
     </g>
     <g id="line2d_14">
      <defs>
       <path id="m0430cf8d5d" d="M 0 0 
L -3.5 0 
" style="stroke: #000000; stroke-width: 0.8"/>
      </defs>
      <g>
       <use xlink:href="#m0430cf8d5d" x="49.82" y="234.594545" style="stroke: #000000; stroke-width: 0.8"/>
      </g>
     </g>
     <g id="text_8">
      <!-- 0.0 -->
      <g transform="translate(26.916875 238.393764) scale(0.1 -0.1)">
       <defs>
        <path id="DejaVuSans-2e" d="M 684 794 
L 1344 794 
L 1344 0 
L 684 0 
L 684 794 
z
" transform="scale(0.015625)"/>
       </defs>
       <use xlink:href="#DejaVuSans-30"/>
       <use xlink:href="#DejaVuSans-2e" transform="translate(63.623047 0)"/>
       <use xlink:href="#DejaVuSans-30" transform="translate(95.410156 0)"/>
      </g>
     </g>
    </g>
    <g id="ytick_2">
     <g id="line2d_15">
      <path d="M 49.82 199.099197 
L 852.12 199.099197 
" clip-path="url(#pd6b4c26c09)" style="fill: none; stroke: #b0b0b0; stroke-opacity: 0.25; stroke-width: 0.8; stroke-linecap: square"/>
     </g>
     <g id="line2d_16">
      <g>
       <use xlink:href="#m0430cf8d5d" x="49.82" y="199.099197" style="stroke: #000000; stroke-width: 0.8"/>
      </g>
     </g>
     <g id="text_9">
      <!-- 0.5 -->
      <g transform="translate(26.916875 202.898416) scale(0.1 -0.1)">
       <use xlink:href="#DejaVuSans-30"/>
       <use xlink:href="#DejaVuSans-2e" transform="translate(63.623047 0)"/>
       <use xlink:href="#DejaVuSans-35" transform="translate(95.410156 0)"/>
      </g>
     </g>
    </g>
    <g id="ytick_3">
     <g id="line2d_17">
      <path d="M 49.82 163.603849 
L 852.12 163.603849 
" clip-path="url(#pd6b4c26c09)" style="fill: none; stroke: #b0b0b0; stroke-opacity: 0.25; stroke-width: 0.8; stroke-linecap: square"/>
     </g>
     <g id="line2d_18">
      <g>
       <use xlink:href="#m0430cf8d5d" x="49.82" y="163.603849" style="stroke: #000000; stroke-width: 0.8"/>
      </g>
     </g>
     <g id="text_10">
      <!-- 1.0 -->
      <g transform="translate(26.916875 167.403067) scale(0.1 -0.1)">
       <use xlink:href="#DejaVuSans-31"/>
       <use xlink:href="#DejaVuSans-2e" transform="translate(63.623047 0)"/>
       <use xlink:href="#DejaVuSans-30" transform="translate(95.410156 0)"/>
      </g>
     </g>
    </g>
    <g id="ytick_4">
     <g id="line2d_19">
      <path d="M 49.82 128.1085 
L 852.12 128.1085 
" clip-path="url(#pd6b4c26c09)" style="fill: none; stroke: #b0b0b0; stroke-opacity: 0.25; stroke-width: 0.8; stroke-linecap: square"/>
     </g>
     <g id="line2d_20">
      <g>
       <use xlink:href="#m0430cf8d5d" x="49.82" y="128.1085" style="stroke: #000000; stroke-width: 0.8"/>
      </g>
     </g>
     <g id="text_11">
      <!-- 1.5 -->
      <g transform="translate(26.916875 131.907719) scale(0.1 -0.1)">
       <use xlink:href="#DejaVuSans-31"/>
       <use xlink:href="#DejaVuSans-2e" transform="translate(63.623047 0)"/>
       <use xlink:href="#DejaVuSans-35" transform="translate(95.410156 0)"/>
      </g>
     </g>
    </g>
    <g id="ytick_5">
     <g id="line2d_21">
      <path d="M 49.82 92.613152 
L 852.12 92.613152 
" clip-path="url(#pd6b4c26c09)" style="fill: none; stroke: #b0b0b0; stroke-opacity: 0.25; stroke-width: 0.8; stroke-linecap: square"/>
     </g>
     <g id="line2d_22">
      <g>
       <use xlink:href="#m0430cf8d5d" x="49.82" y="92.613152" style="stroke: #000000; stroke-width: 0.8"/>
      </g>
     </g>
     <g id="text_12">
      <!-- 2.0 -->
      <g transform="translate(26.916875 96.41237) scale(0.1 -0.1)">
       <use xlink:href="#DejaVuSans-32"/>
       <use xlink:href="#DejaVuSans-2e" transform="translate(63.623047 0)"/>
       <use xlink:href="#DejaVuSans-30" transform="translate(95.410156 0)"/>
      </g>
     </g>
    </g>
    <g id="ytick_6">
     <g id="line2d_23">
      <path d="M 49.82 57.117803 
L 852.12 57.117803 
" clip-path="url(#pd6b4c26c09)" style="fill: none; stroke: #b0b0b0; stroke-opacity: 0.25; stroke-width: 0.8; stroke-linecap: square"/>
     </g>
     <g id="line2d_24">
      <g>
       <use xlink:href="#m0430cf8d5d" x="49.82" y="57.117803" style="stroke: #000000; stroke-width: 0.8"/>
      </g>
     </g>
     <g id="text_13">
      <!-- 2.5 -->
      <g transform="translate(26.916875 60.917022) scale(0.1 -0.1)">
       <use xlink:href="#DejaVuSans-32"/>
       <use xlink:href="#DejaVuSans-2e" transform="translate(63.623047 0)"/>
       <use xlink:href="#DejaVuSans-35" transform="translate(95.410156 0)"/>
      </g>
     </g>
    </g>
    <g id="text_14">
     <!-- Time (s) -->
     <g transform="translate(20.629219 158.101797) rotate(-90) scale(0.11 -0.11)">
      <defs>
       <path id="DejaVuSans-54" d="M -19 4666 
L 3928 4666 
L 3928 4134 
L 2272 4134 
L 2272 0 
L 1638 0 
L 1638 4134 
L -19 4134 
L -19 4666 
z
" transform="scale(0.015625)"/>
       <path id="DejaVuSans-69" d="M 603 3500 
L 1178 3500 
L 1178 0 
L 603 0 
L 603 3500 
z
M 603 4863 
L 1178 4863 
L 1178 4134 
L 603 4134 
L 603 4863 
z
" transform="scale(0.015625)"/>
       <path id="DejaVuSans-6d" d="M 3328 2828 
Q 3544 3216 3844 3400 
Q 4144 3584 4550 3584 
Q 5097 3584 5394 3201 
Q 5691 2819 5691 2113 
L 5691 0 
L 5113 0 
L 5113 2094 
Q 5113 2597 4934 2840 
Q 4756 3084 4391 3084 
Q 3944 3084 3684 2787 
Q 3425 2491 3425 1978 
L 3425 0 
L 2847 0 
L 2847 2094 
Q 2847 2600 2669 2842 
Q 2491 3084 2119 3084 
Q 1678 3084 1418 2786 
Q 1159 2488 1159 1978 
L 1159 0 
L 581 0 
L 581 3500 
L 1159 3500 
L 1159 2956 
Q 1356 3278 1631 3431 
Q 1906 3584 2284 3584 
Q 2666 3584 2933 3390 
Q 3200 3197 3328 2828 
z
" transform="scale(0.015625)"/>
       <path id="DejaVuSans-65" d="M 3597 1894 
L 3597 1613 
L 953 1613 
Q 991 1019 1311 708 
Q 1631 397 2203 397 
Q 2534 397 2845 478 
Q 3156 559 3463 722 
L 3463 178 
Q 3153 47 2828 -22 
Q 2503 -91 2169 -91 
Q 1331 -91 842 396 
Q 353 884 353 1716 
Q 353 2575 817 3079 
Q 1281 3584 2069 3584 
Q 2775 3584 3186 3129 
Q 3597 2675 3597 1894 
z
M 3022 2063 
Q 3016 2534 2758 2815 
Q 2500 3097 2075 3097 
Q 1594 3097 1305 2825 
Q 1016 2553 972 2059 
L 3022 2063 
z
" transform="scale(0.015625)"/>
       <path id="DejaVuSans-20" transform="scale(0.015625)"/>
       <path id="DejaVuSans-28" d="M 1984 4856 
Q 1566 4138 1362 3434 
Q 1159 2731 1159 2009 
Q 1159 1288 1364 580 
Q 1569 -128 1984 -844 
L 1484 -844 
Q 1016 -109 783 600 
Q 550 1309 550 2009 
Q 550 2706 781 3412 
Q 1013 4119 1484 4856 
L 1984 4856 
z
" transform="scale(0.015625)"/>
       <path id="DejaVuSans-73" d="M 2834 3397 
L 2834 2853 
Q 2591 2978 2328 3040 
Q 2066 3103 1784 3103 
Q 1356 3103 1142 2972 
Q 928 2841 928 2578 
Q 928 2378 1081 2264 
Q 1234 2150 1697 2047 
L 1894 2003 
Q 2506 1872 2764 1633 
Q 3022 1394 3022 966 
Q 3022 478 2636 193 
Q 2250 -91 1575 -91 
Q 1294 -91 989 -36 
Q 684 19 347 128 
L 347 722 
Q 666 556 975 473 
Q 1284 391 1588 391 
Q 1994 391 2212 530 
Q 2431 669 2431 922 
Q 2431 1156 2273 1281 
Q 2116 1406 1581 1522 
L 1381 1569 
Q 847 1681 609 1914 
Q 372 2147 372 2553 
Q 372 3047 722 3315 
Q 1072 3584 1716 3584 
Q 2034 3584 2315 3537 
Q 2597 3491 2834 3397 
z
" transform="scale(0.015625)"/>
       <path id="DejaVuSans-29" d="M 513 4856 
L 1013 4856 
Q 1481 4119 1714 3412 
Q 1947 2706 1947 2009 
Q 1947 1309 1714 600 
Q 1481 -109 1013 -844 
L 513 -844 
Q 928 -128 1133 580 
Q 1338 1288 1338 2009 
Q 1338 2731 1133 3434 
Q 928 4138 513 4856 
z
" transform="scale(0.015625)"/>
      </defs>
      <use xlink:href="#DejaVuSans-54"/>
      <use xlink:href="#DejaVuSans-69" transform="translate(57.958984 0)"/>
      <use xlink:href="#DejaVuSans-6d" transform="translate(85.742188 0)"/>
      <use xlink:href="#DejaVuSans-65" transform="translate(183.154297 0)"/>
      <use xlink:href="#DejaVuSans-20" transform="translate(244.677734 0)"/>
      <use xlink:href="#DejaVuSans-28" transform="translate(276.464844 0)"/>
      <use xlink:href="#DejaVuSans-73" transform="translate(315.478516 0)"/>
      <use xlink:href="#DejaVuSans-29" transform="translate(367.578125 0)"/>
     </g>
    </g>
   </g>
   <g id="patch_3">
    <path d="M 49.82 244.48 
L 49.82 27 
" style="fill: none; stroke: #000000; stroke-width: 0.8; stroke-linejoin: miter; stroke-linecap: square"/>
   </g>
   <g id="patch_4">
    <path d="M 852.12 244.48 
L 852.12 27 
" style="fill: none; stroke: #000000; stroke-width: 0.8; stroke-linejoin: miter; stroke-linecap: square"/>
   </g>
   <g id="patch_5">
    <path d="M 49.82 244.48 
L 852.12 244.48 
" style="fill: none; stroke: #000000; stroke-width: 0.8; stroke-linejoin: miter; stroke-linecap: square"/>
   </g>
   <g id="patch_6">
    <path d="M 49.82 27 
L 852.12 27 
" style="fill: none; stroke: #000000; stroke-width: 0.8; stroke-linejoin: miter; stroke-linecap: square"/>
   </g>
   <g id="text_15">
    <!-- Fibonacci  preprocess subphases (vanilla) -->
    <g transform="translate(320.189687 21) scale(0.12 -0.12)">
     <defs>
      <path id="DejaVuSans-46" d="M 628 4666 
L 3309 4666 
L 3309 4134 
L 1259 4134 
L 1259 2759 
L 3109 2759 
L 3109 2228 
L 1259 2228 
L 1259 0 
L 628 0 
L 628 4666 
z
" transform="scale(0.015625)"/>
      <path id="DejaVuSans-62" d="M 3116 1747 
Q 3116 2381 2855 2742 
Q 2594 3103 2138 3103 
Q 1681 3103 1420 2742 
Q 1159 2381 1159 1747 
Q 1159 1113 1420 752 
Q 1681 391 2138 391 
Q 2594 391 2855 752 
Q 3116 1113 3116 1747 
z
M 1159 2969 
Q 1341 3281 1617 3432 
Q 1894 3584 2278 3584 
Q 2916 3584 3314 3078 
Q 3713 2572 3713 1747 
Q 3713 922 3314 415 
Q 2916 -91 2278 -91 
Q 1894 -91 1617 61 
Q 1341 213 1159 525 
L 1159 0 
L 581 0 
L 581 4863 
L 1159 4863 
L 1159 2969 
z
" transform="scale(0.015625)"/>
      <path id="DejaVuSans-6f" d="M 1959 3097 
Q 1497 3097 1228 2736 
Q 959 2375 959 1747 
Q 959 1119 1226 758 
Q 1494 397 1959 397 
Q 2419 397 2687 759 
Q 2956 1122 2956 1747 
Q 2956 2369 2687 2733 
Q 2419 3097 1959 3097 
z
M 1959 3584 
Q 2709 3584 3137 3096 
Q 3566 2609 3566 1747 
Q 3566 888 3137 398 
Q 2709 -91 1959 -91 
Q 1206 -91 779 398 
Q 353 888 353 1747 
Q 353 2609 779 3096 
Q 1206 3584 1959 3584 
z
" transform="scale(0.015625)"/>
      <path id="DejaVuSans-61" d="M 2194 1759 
Q 1497 1759 1228 1600 
Q 959 1441 959 1056 
Q 959 750 1161 570 
Q 1363 391 1709 391 
Q 2188 391 2477 730 
Q 2766 1069 2766 1631 
L 2766 1759 
L 2194 1759 
z
M 3341 1997 
L 3341 0 
L 2766 0 
L 2766 531 
Q 2569 213 2275 61 
Q 1981 -91 1556 -91 
Q 1019 -91 701 211 
Q 384 513 384 1019 
Q 384 1609 779 1909 
Q 1175 2209 1959 2209 
L 2766 2209 
L 2766 2266 
Q 2766 2663 2505 2880 
Q 2244 3097 1772 3097 
Q 1472 3097 1187 3025 
Q 903 2953 641 2809 
L 641 3341 
Q 956 3463 1253 3523 
Q 1550 3584 1831 3584 
Q 2591 3584 2966 3190 
Q 3341 2797 3341 1997 
z
" transform="scale(0.015625)"/>
      <path id="DejaVuSans-63" d="M 3122 3366 
L 3122 2828 
Q 2878 2963 2633 3030 
Q 2388 3097 2138 3097 
Q 1578 3097 1268 2742 
Q 959 2388 959 1747 
Q 959 1106 1268 751 
Q 1578 397 2138 397 
Q 2388 397 2633 464 
Q 2878 531 3122 666 
L 3122 134 
Q 2881 22 2623 -34 
Q 2366 -91 2075 -91 
Q 1284 -91 818 406 
Q 353 903 353 1747 
Q 353 2603 823 3093 
Q 1294 3584 2113 3584 
Q 2378 3584 2631 3529 
Q 2884 3475 3122 3366 
z
" transform="scale(0.015625)"/>
      <path id="DejaVuSans-2014" d="M 313 1978 
L 6088 1978 
L 6088 1528 
L 313 1528 
L 313 1978 
z
" transform="scale(0.015625)"/>
      <path id="DejaVuSans-72" d="M 2631 2963 
Q 2534 3019 2420 3045 
Q 2306 3072 2169 3072 
Q 1681 3072 1420 2755 
Q 1159 2438 1159 1844 
L 1159 0 
L 581 0 
L 581 3500 
L 1159 3500 
L 1159 2956 
Q 1341 3275 1631 3429 
Q 1922 3584 2338 3584 
Q 2397 3584 2469 3576 
Q 2541 3569 2628 3553 
L 2631 2963 
z
" transform="scale(0.015625)"/>
      <path id="DejaVuSans-68" d="M 3513 2113 
L 3513 0 
L 2938 0 
L 2938 2094 
Q 2938 2591 2744 2837 
Q 2550 3084 2163 3084 
Q 1697 3084 1428 2787 
Q 1159 2491 1159 1978 
L 1159 0 
L 581 0 
L 581 4863 
L 1159 4863 
L 1159 2956 
Q 1366 3272 1645 3428 
Q 1925 3584 2291 3584 
Q 2894 3584 3203 3211 
Q 3513 2838 3513 2113 
z
" transform="scale(0.015625)"/>
      <path id="DejaVuSans-76" d="M 191 3500 
L 800 3500 
L 1894 563 
L 2988 3500 
L 3597 3500 
L 2284 0 
L 1503 0 
L 191 3500 
z
" transform="scale(0.015625)"/>
      <path id="DejaVuSans-6c" d="M 603 4863 
L 1178 4863 
L 1178 0 
L 603 0 
L 603 4863 
z
" transform="scale(0.015625)"/>
     </defs>
     <use xlink:href="#DejaVuSans-46"/>
     <use xlink:href="#DejaVuSans-69" transform="translate(50.269531 0)"/>
     <use xlink:href="#DejaVuSans-62" transform="translate(78.052734 0)"/>
     <use xlink:href="#DejaVuSans-6f" transform="translate(141.529297 0)"/>
     <use xlink:href="#DejaVuSans-6e" transform="translate(202.710938 0)"/>
     <use xlink:href="#DejaVuSans-61" transform="translate(266.089844 0)"/>
     <use xlink:href="#DejaVuSans-63" transform="translate(327.369141 0)"/>
     <use xlink:href="#DejaVuSans-63" transform="translate(382.349609 0)"/>
     <use xlink:href="#DejaVuSans-69" transform="translate(437.330078 0)"/>
     <use xlink:href="#DejaVuSans-20" transform="translate(465.113281 0)"/>
     <use xlink:href="#DejaVuSans-2014" transform="translate(496.900391 0)"/>
     <use xlink:href="#DejaVuSans-20" transform="translate(596.900391 0)"/>
     <use xlink:href="#DejaVuSans-70" transform="translate(628.6875 0)"/>
     <use xlink:href="#DejaVuSans-72" transform="translate(692.164062 0)"/>
     <use xlink:href="#DejaVuSans-65" transform="translate(731.027344 0)"/>
     <use xlink:href="#DejaVuSans-70" transform="translate(792.550781 0)"/>
     <use xlink:href="#DejaVuSans-72" transform="translate(856.027344 0)"/>
     <use xlink:href="#DejaVuSans-6f" transform="translate(894.890625 0)"/>
     <use xlink:href="#DejaVuSans-63" transform="translate(956.072266 0)"/>
     <use xlink:href="#DejaVuSans-65" transform="translate(1011.052734 0)"/>
     <use xlink:href="#DejaVuSans-73" transform="translate(1072.576172 0)"/>
     <use xlink:href="#DejaVuSans-73" transform="translate(1124.675781 0)"/>
     <use xlink:href="#DejaVuSans-20" transform="translate(1176.775391 0)"/>
     <use xlink:href="#DejaVuSans-73" transform="translate(1208.5625 0)"/>
     <use xlink:href="#DejaVuSans-75" transform="translate(1260.662109 0)"/>
     <use xlink:href="#DejaVuSans-62" transform="translate(1324.041016 0)"/>
     <use xlink:href="#DejaVuSans-70" transform="translate(1387.517578 0)"/>
     <use xlink:href="#DejaVuSans-68" transform="translate(1450.994141 0)"/>
     <use xlink:href="#DejaVuSans-61" transform="translate(1514.373047 0)"/>
     <use xlink:href="#DejaVuSans-73" transform="translate(1575.652344 0)"/>
     <use xlink:href="#DejaVuSans-65" transform="translate(1627.751953 0)"/>
     <use xlink:href="#DejaVuSans-73" transform="translate(1689.275391 0)"/>
     <use xlink:href="#DejaVuSans-20" transform="translate(1741.375 0)"/>
     <use xlink:href="#DejaVuSans-28" transform="translate(1773.162109 0)"/>
     <use xlink:href="#DejaVuSans-76" transform="translate(1812.175781 0)"/>
     <use xlink:href="#DejaVuSans-61" transform="translate(1871.355469 0)"/>
     <use xlink:href="#DejaVuSans-6e" transform="translate(1932.634766 0)"/>
     <use xlink:href="#DejaVuSans-69" transform="translate(1996.013672 0)"/>
     <use xlink:href="#DejaVuSans-6c" transform="translate(2023.796875 0)"/>
     <use xlink:href="#DejaVuSans-6c" transform="translate(2051.580078 0)"/>
     <use xlink:href="#DejaVuSans-61" transform="translate(2079.363281 0)"/>
     <use xlink:href="#DejaVuSans-29" transform="translate(2140.642578 0)"/>
    </g>
   </g>
   <g id="legend_1">
    <g id="patch_7">
     <path d="M 293.309844 130.882188 
L 313.309844 130.882188 
L 313.309844 123.882188 
L 293.309844 123.882188 
z
" style="fill: #1f77b4; fill-opacity: 0.7"/>
    </g>
    <g id="text_16">
     <!-- bc_pp -->
     <g transform="translate(321.309844 130.882188) scale(0.1 -0.1)">
      <defs>
       <path id="DejaVuSans-5f" d="M 3263 -1063 
L 3263 -1509 
L -63 -1509 
L -63 -1063 
L 3263 -1063 
z
" transform="scale(0.015625)"/>
      </defs>
      <use xlink:href="#DejaVuSans-62"/>
      <use xlink:href="#DejaVuSans-63" transform="translate(63.476562 0)"/>
      <use xlink:href="#DejaVuSans-5f" transform="translate(118.457031 0)"/>
      <use xlink:href="#DejaVuSans-70" transform="translate(168.457031 0)"/>
      <use xlink:href="#DejaVuSans-70" transform="translate(231.933594 0)"/>
     </g>
    </g>
    <g id="patch_8">
     <path d="M 293.309844 145.838437 
L 313.309844 145.838437 
L 313.309844 138.838437 
L 293.309844 138.838437 
z
" style="fill: #ff7f0e; fill-opacity: 0.7"/>
    </g>
    <g id="text_17">
     <!-- bc_rows -->
     <g transform="translate(321.309844 145.838437) scale(0.1 -0.1)">
      <defs>
       <path id="DejaVuSans-77" d="M 269 3500 
L 844 3500 
L 1563 769 
L 2278 3500 
L 2956 3500 
L 3675 769 
L 4391 3500 
L 4966 3500 
L 4050 0 
L 3372 0 
L 2619 2869 
L 1863 0 
L 1184 0 
L 269 3500 
z
" transform="scale(0.015625)"/>
      </defs>
      <use xlink:href="#DejaVuSans-62"/>
      <use xlink:href="#DejaVuSans-63" transform="translate(63.476562 0)"/>
      <use xlink:href="#DejaVuSans-5f" transform="translate(118.457031 0)"/>
      <use xlink:href="#DejaVuSans-72" transform="translate(168.457031 0)"/>
      <use xlink:href="#DejaVuSans-6f" transform="translate(207.320312 0)"/>
      <use xlink:href="#DejaVuSans-77" transform="translate(268.501953 0)"/>
      <use xlink:href="#DejaVuSans-73" transform="translate(350.289062 0)"/>
     </g>
    </g>
    <g id="patch_9">
     <path d="M 381.548906 130.882188 
L 401.548906 130.882188 
L 401.548906 123.882188 
L 381.548906 123.882188 
z
" style="fill: #2ca02c; fill-opacity: 0.7"/>
    </g>
    <g id="text_18">
     <!-- il_pp -->
     <g transform="translate(409.548906 130.882188) scale(0.1 -0.1)">
      <use xlink:href="#DejaVuSans-69"/>
      <use xlink:href="#DejaVuSans-6c" transform="translate(27.783203 0)"/>
      <use xlink:href="#DejaVuSans-5f" transform="translate(55.566406 0)"/>
      <use xlink:href="#DejaVuSans-70" transform="translate(105.566406 0)"/>
      <use xlink:href="#DejaVuSans-70" transform="translate(169.042969 0)"/>
     </g>
    </g>
    <g id="patch_10">
     <path d="M 381.548906 145.838437 
L 401.548906 145.838437 
L 401.548906 138.838437 
L 381.548906 138.838437 
z
" style="fill: #d62728; fill-opacity: 0.7"/>
    </g>
    <g id="text_19">
     <!-- rwm_pp -->
     <g transform="translate(409.548906 145.838437) scale(0.1 -0.1)">
      <use xlink:href="#DejaVuSans-72"/>
      <use xlink:href="#DejaVuSans-77" transform="translate(41.113281 0)"/>
      <use xlink:href="#DejaVuSans-6d" transform="translate(122.900391 0)"/>
      <use xlink:href="#DejaVuSans-5f" transform="translate(220.3125 0)"/>
      <use xlink:href="#DejaVuSans-70" transform="translate(270.3125 0)"/>
      <use xlink:href="#DejaVuSans-70" transform="translate(333.789062 0)"/>
     </g>
    </g>
    <g id="patch_11">
     <path d="M 469.275469 130.882188 
L 489.275469 130.882188 
L 489.275469 123.882188 
L 469.275469 123.882188 
z
" style="fill: #9467bd; fill-opacity: 0.7"/>
    </g>
    <g id="text_20">
     <!-- setup -->
     <g transform="translate(497.275469 130.882188) scale(0.1 -0.1)">
      <use xlink:href="#DejaVuSans-73"/>
      <use xlink:href="#DejaVuSans-65" transform="translate(52.099609 0)"/>
      <use xlink:href="#DejaVuSans-74" transform="translate(113.623047 0)"/>
      <use xlink:href="#DejaVuSans-75" transform="translate(152.832031 0)"/>
      <use xlink:href="#DejaVuSans-70" transform="translate(216.210938 0)"/>
     </g>
    </g>
    <g id="patch_12">
     <path d="M 545.244219 130.882188 
L 565.244219 130.882188 
L 565.244219 123.882188 
L 545.244219 123.882188 
z
" style="fill: #8c564b; fill-opacity: 0.7"/>
    </g>
    <g id="text_21">
     <!-- shapes -->
     <g transform="translate(573.244219 130.882188) scale(0.1 -0.1)">
      <use xlink:href="#DejaVuSans-73"/>
      <use xlink:href="#DejaVuSans-68" transform="translate(52.099609 0)"/>
      <use xlink:href="#DejaVuSans-61" transform="translate(115.478516 0)"/>
      <use xlink:href="#DejaVuSans-70" transform="translate(176.757812 0)"/>
      <use xlink:href="#DejaVuSans-65" transform="translate(240.234375 0)"/>
      <use xlink:href="#DejaVuSans-73" transform="translate(301.757812 0)"/>
     </g>
    </g>
   </g>
  </g>
 </g>
 <defs>
  <clipPath id="pd6b4c26c09">
   <rect x="49.82" y="27" width="802.3" height="217.48"/>
  </clipPath>
 </defs>
</svg>
