<?xml version="1.0" encoding="utf-8" standalone="no"?>
<!DOCTYPE svg PUBLIC "-//W3C//DTD SVG 1.1//EN"
  "http://www.w3.org/Graphics/SVG/1.1/DTD/svg11.dtd">
<svg xmlns:xlink="http://www.w3.org/1999/xlink" width="864pt" height="288pt" viewBox="0 0 864 288" xmlns="http://www.w3.org/2000/svg" version="1.1">
 <metadata>
  <rdf:RDF xmlns:dc="http://purl.org/dc/elements/1.1/" xmlns:cc="http://creativecommons.org/ns#" xmlns:rdf="http://www.w3.org/1999/02/22-rdf-syntax-ns#">
   <cc:Work>
    <dc:type rdf:resource="http://purl.org/dc/dcmitype/StillImage"/>
    <dc:date>2025-09-07T14:35:42.546626</dc:date>
    <dc:format>image/svg+xml</dc:format>
    <dc:creator>
     <cc:Agent>
      <dc:title>Matplotlib v3.10.6, https://matplotlib.org/</dc:title>
     </cc:Agent>
    </dc:creator>
   </cc:Work>
  </rdf:RDF>
 </metadata>
 <defs>
  <style type="text/css">*{stroke-linejoin: round; stroke-linecap: butt}</style>
 </defs>
 <g id="figure_1">
  <g id="patch_1">
   <path d="M 0 288 
L 864 288 
L 864 0 
L 0 0 
z
" style="fill: #ffffff"/>
  </g>
  <g id="axes_1">
   <g id="patch_2">
    <path d="M 46.64 244.48 
L 852.12 244.48 
L 852.12 27 
L 46.64 27 
z
" style="fill: #ffffff"/>
   </g>
   <g id="FillBetweenPolyCollection_1">
    <path d="M 83.252727 234.347398 
L 83.252727 234.594545 
L 88.520746 234.594545 
L 93.788764 234.594545 
L 99.056782 234.594545 
L 104.324801 234.594545 
L 109.592819 234.594545 
L 114.860837 234.594545 
L 120.128855 234.594545 
L 125.396874 234.594545 
L 130.664892 234.594545 
L 135.93291 234.594545 
L 141.200929 234.594545 
L 146.468947 234.594545 
L 151.736965 234.594545 
L 157.004984 234.594545 
L 162.273002 234.594545 
L 167.54102 234.594545 
L 172.809039 234.594545 
L 178.077057 234.594545 
L 183.345075 234.594545 
L 188.613094 234.594545 
L 193.881112 234.594545 
L 199.14913 234.594545 
L 204.417148 234.594545 
L 209.685167 234.594545 
L 214.953185 234.594545 
L 220.221203 234.594545 
L 225.489222 234.594545 
L 230.75724 234.594545 
L 236.025258 234.594545 
L 241.293277 234.594545 
L 246.561295 234.594545 
L 251.829313 234.594545 
L 257.097332 234.594545 
L 262.36535 234.594545 
L 267.633368 234.594545 
L 272.901387 234.594545 
L 278.169405 234.594545 
L 283.437423 234.594545 
L 288.705441 234.594545 
L 293.97346 234.594545 
L 299.241478 234.594545 
L 304.509496 234.594545 
L 309.777515 234.594545 
L 315.045533 234.594545 
L 320.313551 234.594545 
L 325.58157 234.594545 
L 330.849588 234.594545 
L 336.117606 234.594545 
L 341.385625 234.594545 
L 351.921661 234.594545 
L 362.457698 234.594545 
L 372.993734 234.594545 
L 383.529771 234.594545 
L 394.065808 234.594545 
L 404.601844 234.594545 
L 415.137881 234.594545 
L 425.673918 234.594545 
L 436.209954 234.594545 
L 446.745991 234.594545 
L 457.282027 234.594545 
L 467.818064 234.594545 
L 478.354101 234.594545 
L 488.890137 234.594545 
L 499.426174 234.594545 
L 509.962211 234.594545 
L 520.498247 234.594545 
L 531.034284 234.594545 
L 541.57032 234.594545 
L 552.106357 234.594545 
L 562.642394 234.594545 
L 573.17843 234.594545 
L 583.714467 234.594545 
L 594.250504 234.594545 
L 604.78654 234.594545 
L 631.126632 234.594545 
L 657.466723 234.594545 
L 683.806815 234.594545 
L 710.146906 234.594545 
L 736.486998 234.594545 
L 762.82709 234.594545 
L 789.167181 234.594545 
L 815.507273 234.594545 
L 815.507273 232.150528 
L 815.507273 232.150528 
L 789.167181 232.132221 
L 762.82709 232.150528 
L 736.486998 232.150528 
L 710.146906 232.168836 
L 683.806815 232.168836 
L 657.466723 232.168836 
L 631.126632 232.187143 
L 604.78654 232.196296 
L 594.250504 232.196296 
L 583.714467 232.196296 
L 573.17843 232.20545 
L 562.642394 232.214604 
L 552.106357 232.232911 
L 541.57032 232.251218 
L 531.034284 232.242064 
L 520.498247 232.242064 
L 509.962211 232.251218 
L 499.426174 232.168836 
L 488.890137 232.187143 
L 478.354101 232.187143 
L 467.818064 232.260372 
L 457.282027 233.239809 
L 446.745991 233.248963 
L 436.209954 233.258117 
L 425.673918 233.248963 
L 415.137881 233.258117 
L 404.601844 233.276424 
L 394.065808 233.248963 
L 383.529771 233.239809 
L 372.993734 233.239809 
L 362.457698 233.303885 
L 351.921661 233.239809 
L 341.385625 233.248963 
L 336.117606 233.239809 
L 330.849588 233.248963 
L 325.58157 233.248963 
L 320.313551 233.258117 
L 315.045533 233.258117 
L 309.777515 233.248963 
L 304.509496 233.248963 
L 299.241478 233.276424 
L 293.97346 233.276424 
L 288.705441 233.26727 
L 283.437423 233.26727 
L 278.169405 233.26727 
L 272.901387 233.276424 
L 267.633368 233.761566 
L 262.36535 233.761566 
L 257.097332 233.761566 
L 251.829313 233.779873 
L 246.561295 233.770719 
L 241.293277 233.761566 
L 236.025258 233.770719 
L 230.75724 233.770719 
L 225.489222 233.779873 
L 220.221203 233.770719 
L 214.953185 233.779873 
L 209.685167 233.779873 
L 204.417148 233.789027 
L 199.14913 233.789027 
L 193.881112 233.779873 
L 188.613094 233.779873 
L 183.345075 233.789027 
L 178.077057 233.789027 
L 172.809039 233.789027 
L 167.54102 234.054482 
L 162.273002 234.081943 
L 157.004984 234.063635 
L 151.736965 234.072789 
L 146.468947 234.081943 
L 141.200929 234.063635 
L 135.93291 234.063635 
L 130.664892 234.081943 
L 125.396874 234.081943 
L 120.128855 234.182632 
L 114.860837 234.191786 
L 109.592819 234.191786 
L 104.324801 234.20094 
L 99.056782 234.292476 
L 93.788764 234.292476 
L 88.520746 234.347398 
L 83.252727 234.347398 
z
" clip-path="url(#p8df8c27a99)" style="fill: #1f77b4; fill-opacity: 0.7"/>
   </g>
   <g id="FillBetweenPolyCollection_2">
    <path d="M 83.252727 233.743259 
L 83.252727 234.347398 
L 88.520746 234.347398 
L 93.788764 234.292476 
L 99.056782 234.292476 
L 104.324801 234.20094 
L 109.592819 234.191786 
L 114.860837 234.191786 
L 120.128855 234.182632 
L 125.396874 234.081943 
L 130.664892 234.081943 
L 135.93291 234.063635 
L 141.200929 234.063635 
L 146.468947 234.081943 
L 151.736965 234.072789 
L 157.004984 234.063635 
L 162.273002 234.081943 
L 167.54102 234.054482 
L 172.809039 233.789027 
L 178.077057 233.789027 
L 183.345075 233.789027 
L 188.613094 233.779873 
L 193.881112 233.779873 
L 199.14913 233.789027 
L 204.417148 233.789027 
L 209.685167 233.779873 
L 214.953185 233.779873 
L 220.221203 233.770719 
L 225.489222 233.779873 
L 230.75724 233.770719 
L 236.025258 233.770719 
L 241.293277 233.761566 
L 246.561295 233.770719 
L 251.829313 233.779873 
L 257.097332 233.761566 
L 262.36535 233.761566 
L 267.633368 233.761566 
L 272.901387 233.276424 
L 278.169405 233.26727 
L 283.437423 233.26727 
L 288.705441 233.26727 
L 293.97346 233.276424 
L 299.241478 233.276424 
L 304.509496 233.248963 
L 309.777515 233.248963 
L 315.045533 233.258117 
L 320.313551 233.258117 
L 325.58157 233.248963 
L 330.849588 233.248963 
L 336.117606 233.239809 
L 341.385625 233.248963 
L 351.921661 233.239809 
L 362.457698 233.303885 
L 372.993734 233.239809 
L 383.529771 233.239809 
L 394.065808 233.248963 
L 404.601844 233.276424 
L 415.137881 233.258117 
L 425.673918 233.248963 
L 436.209954 233.258117 
L 446.745991 233.248963 
L 457.282027 233.239809 
L 467.818064 232.260372 
L 478.354101 232.187143 
L 488.890137 232.187143 
L 499.426174 232.168836 
L 509.962211 232.251218 
L 520.498247 232.242064 
L 531.034284 232.242064 
L 541.57032 232.251218 
L 552.106357 232.232911 
L 562.642394 232.214604 
L 573.17843 232.20545 
L 583.714467 232.196296 
L 594.250504 232.196296 
L 604.78654 232.196296 
L 631.126632 232.187143 
L 657.466723 232.168836 
L 683.806815 232.168836 
L 710.146906 232.168836 
L 736.486998 232.150528 
L 762.82709 232.150528 
L 789.167181 232.132221 
L 815.507273 232.150528 
L 815.507273 199.746705 
L 815.507273 199.746705 
L 789.167181 200.176925 
L 762.82709 200.21354 
L 736.486998 200.753603 
L 710.146906 202.00765 
L 683.806815 203.042009 
L 657.466723 202.593481 
L 631.126632 203.572919 
L 604.78654 203.728531 
L 594.250504 203.124392 
L 583.714467 205.019191 
L 573.17843 204.744583 
L 562.642394 204.936809 
L 552.106357 205.62333 
L 541.57032 206.172548 
L 531.034284 205.348722 
L 520.498247 205.861325 
L 509.962211 206.566154 
L 499.426174 205.943707 
L 488.890137 206.465464 
L 478.354101 206.401388 
L 467.818064 207.692049 
L 457.282027 217.001283 
L 446.745991 217.294199 
L 436.209954 217.834263 
L 425.673918 217.440657 
L 415.137881 217.907492 
L 404.601844 218.099718 
L 394.065808 218.237022 
L 383.529771 218.291944 
L 372.993734 218.731318 
L 362.457698 219.381225 
L 351.921661 218.118025 
L 341.385625 219.271382 
L 336.117606 218.758779 
L 330.849588 219.353764 
L 325.58157 218.978466 
L 320.313551 219.070002 
L 315.045533 219.500222 
L 309.777515 219.875521 
L 304.509496 219.335457 
L 299.241478 219.756523 
L 293.97346 219.417839 
L 288.705441 220.140976 
L 283.437423 220.525428 
L 278.169405 220.681039 
L 272.901387 220.104361 
L 267.633368 225.212082 
L 262.36535 225.001549 
L 257.097332 225.367694 
L 251.829313 225.285311 
L 246.561295 225.633149 
L 241.293277 225.623995 
L 236.025258 226.035908 
L 230.75724 226.136598 
L 225.489222 226.072523 
L 220.221203 225.843682 
L 214.953185 226.402053 
L 209.685167 226.218981 
L 204.417148 226.667508 
L 199.14913 226.82312 
L 193.881112 226.978732 
L 188.613094 226.795659 
L 183.345075 226.914656 
L 178.077057 227.116036 
L 172.809039 227.308262 
L 167.54102 229.770586 
L 162.273002 229.843815 
L 157.004984 230.036041 
L 151.736965 230.045195 
L 146.468947 230.292343 
L 141.200929 230.393033 
L 135.93291 230.429647 
L 130.664892 230.521183 
L 125.396874 230.731717 
L 120.128855 231.976609 
L 114.860837 232.068146 
L 109.592819 232.159682 
L 104.324801 232.296986 
L 99.056782 233.093351 
L 93.788764 233.239809 
L 88.520746 233.651722 
L 83.252727 233.743259 
z
" clip-path="url(#p8df8c27a99)" style="fill: #ff7f0e; fill-opacity: 0.7"/>
   </g>
   <g id="FillBetweenPolyCollection_3">
    <path d="M 83.252727 230.402186 
L 83.252727 233.743259 
L 88.520746 233.651722 
L 93.788764 233.239809 
L 99.056782 233.093351 
L 104.324801 232.296986 
L 109.592819 232.159682 
L 114.860837 232.068146 
L 120.128855 231.976609 
L 125.396874 230.731717 
L 130.664892 230.521183 
L 135.93291 230.429647 
L 141.200929 230.393033 
L 146.468947 230.292343 
L 151.736965 230.045195 
L 157.004984 230.036041 
L 162.273002 229.843815 
L 167.54102 229.770586 
L 172.809039 227.308262 
L 178.077057 227.116036 
L 183.345075 226.914656 
L 188.613094 226.795659 
L 193.881112 226.978732 
L 199.14913 226.82312 
L 204.417148 226.667508 
L 209.685167 226.218981 
L 214.953185 226.402053 
L 220.221203 225.843682 
L 225.489222 226.072523 
L 230.75724 226.136598 
L 236.025258 226.035908 
L 241.293277 225.623995 
L 246.561295 225.633149 
L 251.829313 225.285311 
L 257.097332 225.367694 
L 262.36535 225.001549 
L 267.633368 225.212082 
L 272.901387 220.104361 
L 278.169405 220.681039 
L 283.437423 220.525428 
L 288.705441 220.140976 
L 293.97346 219.417839 
L 299.241478 219.756523 
L 304.509496 219.335457 
L 309.777515 219.875521 
L 315.045533 219.500222 
L 320.313551 219.070002 
L 325.58157 218.978466 
L 330.849588 219.353764 
L 336.117606 218.758779 
L 341.385625 219.271382 
L 351.921661 218.118025 
L 362.457698 219.381225 
L 372.993734 218.731318 
L 383.529771 218.291944 
L 394.065808 218.237022 
L 404.601844 218.099718 
L 415.137881 217.907492 
L 425.673918 217.440657 
L 436.209954 217.834263 
L 446.745991 217.294199 
L 457.282027 217.001283 
L 467.818064 207.692049 
L 478.354101 206.401388 
L 488.890137 206.465464 
L 499.426174 205.943707 
L 509.962211 206.566154 
L 520.498247 205.861325 
L 531.034284 205.348722 
L 541.57032 206.172548 
L 552.106357 205.62333 
L 562.642394 204.936809 
L 573.17843 204.744583 
L 583.714467 205.019191 
L 594.250504 203.124392 
L 604.78654 203.728531 
L 631.126632 203.572919 
L 657.466723 202.593481 
L 683.806815 203.042009 
L 710.146906 202.00765 
L 736.486998 200.753603 
L 762.82709 200.21354 
L 789.167181 200.176925 
L 815.507273 199.746705 
L 815.507273 165.503003 
L 815.507273 165.503003 
L 789.167181 166.500748 
L 762.82709 167.08658 
L 736.486998 168.203322 
L 710.146906 170.070661 
L 683.806815 171.782388 
L 657.466723 171.864771 
L 631.126632 173.265275 
L 604.78654 174.198945 
L 594.250504 173.860261 
L 583.714467 175.883211 
L 573.17843 175.883211 
L 562.642394 176.285971 
L 552.106357 177.366098 
L 541.57032 178.043466 
L 531.034284 177.659014 
L 520.498247 178.38215 
L 509.962211 179.553814 
L 499.426174 179.205976 
L 488.890137 179.929112 
L 478.354101 180.157953 
L 467.818064 181.787298 
L 457.282027 199.499557 
L 446.745991 200.103696 
L 436.209954 200.826832 
L 425.673918 200.515609 
L 415.137881 201.238745 
L 404.601844 201.943574 
L 394.065808 201.751348 
L 383.529771 202.025957 
L 372.993734 202.685018 
L 362.457698 204.186212 
L 351.921661 202.447023 
L 341.385625 203.82922 
L 336.117606 203.344078 
L 330.849588 204.204519 
L 325.58157 203.920757 
L 320.313551 204.0306 
L 315.045533 204.616432 
L 309.777515 205.09242 
L 304.509496 204.552357 
L 299.241478 205.257186 
L 293.97346 205.064959 
L 288.705441 205.742328 
L 283.437423 206.346467 
L 278.169405 206.557 
L 272.901387 206.12678 
L 267.633368 214.59388 
L 262.36535 214.548112 
L 257.097332 215.024101 
L 251.829313 215.033254 
L 246.561295 215.490935 
L 241.293277 215.619086 
L 236.025258 216.131689 
L 230.75724 216.38799 
L 225.489222 216.452066 
L 220.221203 216.278147 
L 214.953185 217.01959 
L 209.685167 216.900593 
L 204.417148 217.468118 
L 199.14913 217.761034 
L 193.881112 218.035642 
L 188.613094 217.971567 
L 183.345075 218.218715 
L 178.077057 218.493324 
L 172.809039 218.850315 
L 167.54102 222.923677 
L 162.273002 223.125057 
L 157.004984 223.445433 
L 151.736965 223.527816 
L 146.468947 223.912268 
L 141.200929 224.113648 
L 135.93291 224.278413 
L 130.664892 224.488946 
L 125.396874 224.82763 
L 120.128855 227.006192 
L 114.860837 227.170958 
L 109.592819 227.35403 
L 104.324801 227.6561 
L 99.056782 229.093218 
L 93.788764 229.376981 
L 88.520746 230.200807 
L 83.252727 230.402186 
z
" clip-path="url(#p8df8c27a99)" style="fill: #2ca02c; fill-opacity: 0.7"/>
   </g>
   <g id="FillBetweenPolyCollection_4">
    <path d="M 83.252727 230.264882 
L 83.252727 230.402186 
L 88.520746 230.200807 
L 93.788764 229.376981 
L 99.056782 229.093218 
L 104.324801 227.6561 
L 109.592819 227.35403 
L 114.860837 227.170958 
L 120.128855 227.006192 
L 125.396874 224.82763 
L 130.664892 224.488946 
L 135.93291 224.278413 
L 141.200929 224.113648 
L 146.468947 223.912268 
L 151.736965 223.527816 
L 157.004984 223.445433 
L 162.273002 223.125057 
L 167.54102 222.923677 
L 172.809039 218.850315 
L 178.077057 218.493324 
L 183.345075 218.218715 
L 188.613094 217.971567 
L 193.881112 218.035642 
L 199.14913 217.761034 
L 204.417148 217.468118 
L 209.685167 216.900593 
L 214.953185 217.01959 
L 220.221203 216.278147 
L 225.489222 216.452066 
L 230.75724 216.38799 
L 236.025258 216.131689 
L 241.293277 215.619086 
L 246.561295 215.490935 
L 251.829313 215.033254 
L 257.097332 215.024101 
L 262.36535 214.548112 
L 267.633368 214.59388 
L 272.901387 206.12678 
L 278.169405 206.557 
L 283.437423 206.346467 
L 288.705441 205.742328 
L 293.97346 205.064959 
L 299.241478 205.257186 
L 304.509496 204.552357 
L 309.777515 205.09242 
L 315.045533 204.616432 
L 320.313551 204.0306 
L 325.58157 203.920757 
L 330.849588 204.204519 
L 336.117606 203.344078 
L 341.385625 203.82922 
L 351.921661 202.447023 
L 362.457698 204.186212 
L 372.993734 202.685018 
L 383.529771 202.025957 
L 394.065808 201.751348 
L 404.601844 201.943574 
L 415.137881 201.238745 
L 425.673918 200.515609 
L 436.209954 200.826832 
L 446.745991 200.103696 
L 457.282027 199.499557 
L 467.818064 181.787298 
L 478.354101 180.157953 
L 488.890137 179.929112 
L 499.426174 179.205976 
L 509.962211 179.553814 
L 520.498247 178.38215 
L 531.034284 177.659014 
L 541.57032 178.043466 
L 552.106357 177.366098 
L 562.642394 176.285971 
L 573.17843 175.883211 
L 583.714467 175.883211 
L 594.250504 173.860261 
L 604.78654 174.198945 
L 631.126632 173.265275 
L 657.466723 171.864771 
L 683.806815 171.782388 
L 710.146906 170.070661 
L 736.486998 168.203322 
L 762.82709 167.08658 
L 789.167181 166.500748 
L 815.507273 165.503003 
L 815.507273 153.676523 
L 815.507273 153.676523 
L 789.167181 155.012952 
L 762.82709 156.074772 
L 736.486998 156.440917 
L 710.146906 158.170952 
L 683.806815 159.772836 
L 657.466723 156.971827 
L 631.126632 161.40218 
L 604.78654 160.788888 
L 594.250504 159.333462 
L 583.714467 163.461746 
L 573.17843 163.516667 
L 562.642394 162.500615 
L 552.106357 162.152778 
L 541.57032 161.978859 
L 531.034284 163.361056 
L 520.498247 161.731711 
L 509.962211 164.313032 
L 499.426174 165.228395 
L 488.890137 167.525954 
L 478.354101 162.253467 
L 467.818064 161.969705 
L 457.282027 194.492526 
L 446.745991 194.822056 
L 436.209954 195.59096 
L 425.673918 195.325505 
L 415.137881 195.911337 
L 404.601844 196.716856 
L 394.065808 196.716856 
L 383.529771 196.771778 
L 372.993734 197.522375 
L 362.457698 199.060183 
L 351.921661 197.751215 
L 341.385625 198.666577 
L 336.117606 198.144821 
L 330.849588 199.005261 
L 325.58157 198.904572 
L 320.313551 198.64827 
L 315.045533 199.188334 
L 309.777515 199.646015 
L 304.509496 198.401122 
L 299.241478 199.307331 
L 293.97346 199.371406 
L 288.705441 200.140311 
L 283.437423 200.286769 
L 278.169405 199.05103 
L 272.901387 199.627708 
L 267.633368 211.975944 
L 262.36535 211.966791 
L 257.097332 212.433626 
L 251.829313 212.442779 
L 246.561295 212.927921 
L 241.293277 213.028611 
L 236.025258 213.541214 
L 230.75724 213.83413 
L 225.489222 213.925666 
L 220.221203 213.73344 
L 214.953185 214.474883 
L 209.685167 214.346733 
L 204.417148 214.886796 
L 199.14913 215.399399 
L 193.881112 215.719776 
L 188.613094 215.509243 
L 183.345075 215.62824 
L 178.077057 215.783851 
L 172.809039 215.564164 
L 167.54102 221.715399 
L 162.273002 221.907625 
L 157.004984 222.145619 
L 151.736965 222.228002 
L 146.468947 222.639915 
L 141.200929 222.868755 
L 135.93291 223.015213 
L 130.664892 223.33559 
L 125.396874 223.655967 
L 120.128855 226.402053 
L 114.860837 226.594279 
L 109.592819 226.777352 
L 104.324801 227.079421 
L 99.056782 228.800302 
L 93.788764 229.093218 
L 88.520746 230.054349 
L 83.252727 230.264882 
z
" clip-path="url(#p8df8c27a99)" style="fill: #d62728; fill-opacity: 0.7"/>
   </g>
   <g id="FillBetweenPolyCollection_5">
    <path d="M 83.252727 228.251085 
L 83.252727 230.264882 
L 88.520746 230.054349 
L 93.788764 229.093218 
L 99.056782 228.800302 
L 104.324801 227.079421 
L 109.592819 226.777352 
L 114.860837 226.594279 
L 120.128855 226.402053 
L 125.396874 223.655967 
L 130.664892 223.33559 
L 135.93291 223.015213 
L 141.200929 222.868755 
L 146.468947 222.639915 
L 151.736965 222.228002 
L 157.004984 222.145619 
L 162.273002 221.907625 
L 167.54102 221.715399 
L 172.809039 215.564164 
L 178.077057 215.783851 
L 183.345075 215.62824 
L 188.613094 215.509243 
L 193.881112 215.719776 
L 199.14913 215.399399 
L 204.417148 214.886796 
L 209.685167 214.346733 
L 214.953185 214.474883 
L 220.221203 213.73344 
L 225.489222 213.925666 
L 230.75724 213.83413 
L 236.025258 213.541214 
L 241.293277 213.028611 
L 246.561295 212.927921 
L 251.829313 212.442779 
L 257.097332 212.433626 
L 262.36535 211.966791 
L 267.633368 211.975944 
L 272.901387 199.627708 
L 278.169405 199.05103 
L 283.437423 200.286769 
L 288.705441 200.140311 
L 293.97346 199.371406 
L 299.241478 199.307331 
L 304.509496 198.401122 
L 309.777515 199.646015 
L 315.045533 199.188334 
L 320.313551 198.64827 
L 325.58157 198.904572 
L 330.849588 199.005261 
L 336.117606 198.144821 
L 341.385625 198.666577 
L 351.921661 197.751215 
L 362.457698 199.060183 
L 372.993734 197.522375 
L 383.529771 196.771778 
L 394.065808 196.716856 
L 404.601844 196.716856 
L 415.137881 195.911337 
L 425.673918 195.325505 
L 436.209954 195.59096 
L 446.745991 194.822056 
L 457.282027 194.492526 
L 467.818064 161.969705 
L 478.354101 162.253467 
L 488.890137 167.525954 
L 499.426174 165.228395 
L 509.962211 164.313032 
L 520.498247 161.731711 
L 531.034284 163.361056 
L 541.57032 161.978859 
L 552.106357 162.152778 
L 562.642394 162.500615 
L 573.17843 163.516667 
L 583.714467 163.461746 
L 594.250504 159.333462 
L 604.78654 160.788888 
L 631.126632 161.40218 
L 657.466723 156.971827 
L 683.806815 159.772836 
L 710.146906 158.170952 
L 736.486998 156.440917 
L 762.82709 156.074772 
L 789.167181 155.012952 
L 815.507273 153.676523 
L 815.507273 120.329877 
L 815.507273 120.329877 
L 789.167181 121.574769 
L 762.82709 123.048502 
L 736.486998 123.213268 
L 710.146906 124.412392 
L 683.806815 126.774027 
L 657.466723 123.551952 
L 631.126632 127.890769 
L 604.78654 127.497163 
L 594.250504 125.977662 
L 583.714467 129.895412 
L 573.17843 129.968641 
L 562.642394 129.199737 
L 552.106357 129.291273 
L 541.57032 129.272966 
L 531.034284 130.3714 
L 520.498247 129.391963 
L 509.962211 131.515603 
L 499.426174 132.522502 
L 488.890137 135.003133 
L 478.354101 129.950334 
L 467.818064 129.565882 
L 457.282027 178.327228 
L 446.745991 178.858138 
L 436.209954 179.434817 
L 425.673918 179.233437 
L 415.137881 179.855883 
L 404.601844 180.990932 
L 394.065808 180.551559 
L 383.529771 180.368486 
L 372.993734 181.219773 
L 362.457698 183.425796 
L 351.921661 181.613379 
L 341.385625 182.235825 
L 336.117606 181.74153 
L 330.849588 182.428051 
L 325.58157 182.345669 
L 320.313551 181.979524 
L 315.045533 182.666045 
L 309.777515 182.894886 
L 304.509496 181.723222 
L 299.241478 182.958961 
L 293.97346 182.876579 
L 288.705441 183.553947 
L 283.437423 183.801095 
L 278.169405 182.574509 
L 272.901387 183.114573 
L 267.633368 203.60038 
L 262.36535 203.344078 
L 257.097332 203.737684 
L 251.829313 203.884142 
L 246.561295 204.250287 
L 241.293277 204.543203 
L 236.025258 204.900194 
L 230.75724 205.229725 
L 225.489222 205.312107 
L 220.221203 205.174803 
L 214.953185 206.035243 
L 209.685167 205.760635 
L 204.417148 206.328159 
L 199.14913 206.98722 
L 193.881112 207.234368 
L 188.613094 207.032988 
L 183.345075 207.133678 
L 178.077057 207.298443 
L 172.809039 207.032988 
L 167.54102 217.413196 
L 162.273002 217.642037 
L 157.004984 217.925799 
L 151.736965 217.916645 
L 146.468947 218.356019 
L 141.200929 218.575706 
L 135.93291 218.767932 
L 130.664892 219.060848 
L 125.396874 219.372071 
L 120.128855 224.077033 
L 114.860837 224.287567 
L 109.592819 224.470639 
L 104.324801 224.772709 
L 99.056782 226.667508 
L 93.788764 226.951271 
L 88.520746 227.994784 
L 83.252727 228.251085 
z
" clip-path="url(#p8df8c27a99)" style="fill: #9467bd; fill-opacity: 0.7"/>
   </g>
   <g id="FillBetweenPolyCollection_6">
    <path d="M 83.252727 228.251085 
L 83.252727 228.251085 
L 88.520746 227.994784 
L 93.788764 226.951271 
L 99.056782 226.667508 
L 104.324801 224.772709 
L 109.592819 224.470639 
L 114.860837 224.287567 
L 120.128855 224.077033 
L 125.396874 219.372071 
L 130.664892 219.060848 
L 135.93291 218.767932 
L 141.200929 218.575706 
L 146.468947 218.356019 
L 151.736965 217.916645 
L 157.004984 217.925799 
L 162.273002 217.642037 
L 167.54102 217.413196 
L 172.809039 207.032988 
L 178.077057 207.298443 
L 183.345075 207.133678 
L 188.613094 207.032988 
L 193.881112 207.234368 
L 199.14913 206.98722 
L 204.417148 206.328159 
L 209.685167 205.760635 
L 214.953185 206.035243 
L 220.221203 205.174803 
L 225.489222 205.312107 
L 230.75724 205.229725 
L 236.025258 204.900194 
L 241.293277 204.543203 
L 246.561295 204.250287 
L 251.829313 203.884142 
L 257.097332 203.737684 
L 262.36535 203.344078 
L 267.633368 203.60038 
L 272.901387 183.114573 
L 278.169405 182.574509 
L 283.437423 183.801095 
L 288.705441 183.553947 
L 293.97346 182.876579 
L 299.241478 182.958961 
L 304.509496 181.723222 
L 309.777515 182.894886 
L 315.045533 182.666045 
L 320.313551 181.979524 
L 325.58157 182.345669 
L 330.849588 182.428051 
L 336.117606 181.74153 
L 341.385625 182.235825 
L 351.921661 181.613379 
L 362.457698 183.425796 
L 372.993734 181.219773 
L 383.529771 180.368486 
L 394.065808 180.551559 
L 404.601844 180.990932 
L 415.137881 179.855883 
L 425.673918 179.233437 
L 436.209954 179.434817 
L 446.745991 178.858138 
L 457.282027 178.327228 
L 467.818064 129.565882 
L 478.354101 129.950334 
L 488.890137 135.003133 
L 499.426174 132.522502 
L 509.962211 131.515603 
L 520.498247 129.391963 
L 531.034284 130.3714 
L 541.57032 129.272966 
L 552.106357 129.291273 
L 562.642394 129.199737 
L 573.17843 129.968641 
L 583.714467 129.895412 
L 594.250504 125.977662 
L 604.78654 127.497163 
L 631.126632 127.890769 
L 657.466723 123.551952 
L 683.806815 126.774027 
L 710.146906 124.412392 
L 736.486998 123.213268 
L 762.82709 123.048502 
L 789.167181 121.574769 
L 815.507273 120.329877 
L 815.507273 120.329877 
L 815.507273 120.329877 
L 789.167181 121.574769 
L 762.82709 123.048502 
L 736.486998 123.213268 
L 710.146906 124.412392 
L 683.806815 126.774027 
L 657.466723 123.551952 
L 631.126632 127.890769 
L 604.78654 127.497163 
L 594.250504 125.977662 
L 583.714467 129.895412 
L 573.17843 129.968641 
L 562.642394 129.199737 
L 552.106357 129.291273 
L 541.57032 129.272966 
L 531.034284 130.3714 
L 520.498247 129.391963 
L 509.962211 131.515603 
L 499.426174 132.522502 
L 488.890137 135.003133 
L 478.354101 129.950334 
L 467.818064 129.565882 
L 457.282027 178.327228 
L 446.745991 178.858138 
L 436.209954 179.434817 
L 425.673918 179.233437 
L 415.137881 179.855883 
L 404.601844 180.990932 
L 394.065808 180.551559 
L 383.529771 180.368486 
L 372.993734 181.219773 
L 362.457698 183.425796 
L 351.921661 181.613379 
L 341.385625 182.235825 
L 336.117606 181.74153 
L 330.849588 182.428051 
L 325.58157 182.345669 
L 320.313551 181.979524 
L 315.045533 182.666045 
L 309.777515 182.894886 
L 304.509496 181.723222 
L 299.241478 182.958961 
L 293.97346 182.876579 
L 288.705441 183.553947 
L 283.437423 183.801095 
L 278.169405 182.574509 
L 272.901387 183.114573 
L 267.633368 203.60038 
L 262.36535 203.344078 
L 257.097332 203.737684 
L 251.829313 203.884142 
L 246.561295 204.250287 
L 241.293277 204.543203 
L 236.025258 204.900194 
L 230.75724 205.229725 
L 225.489222 205.312107 
L 220.221203 205.174803 
L 214.953185 206.035243 
L 209.685167 205.760635 
L 204.417148 206.328159 
L 199.14913 206.98722 
L 193.881112 207.234368 
L 188.613094 207.032988 
L 183.345075 207.133678 
L 178.077057 207.298443 
L 172.809039 207.032988 
L 167.54102 217.413196 
L 162.273002 217.642037 
L 157.004984 217.925799 
L 151.736965 217.916645 
L 146.468947 218.356019 
L 141.200929 218.575706 
L 135.93291 218.767932 
L 130.664892 219.060848 
L 125.396874 219.372071 
L 120.128855 224.077033 
L 114.860837 224.287567 
L 109.592819 224.470639 
L 104.324801 224.772709 
L 99.056782 226.667508 
L 93.788764 226.951271 
L 88.520746 227.994784 
L 83.252727 228.251085 
z
" clip-path="url(#p8df8c27a99)" style="fill: #8c564b; fill-opacity: 0.7"/>
   </g>
   <g id="FillBetweenPolyCollection_7">
    <path d="M 83.252727 228.214471 
L 83.252727 228.251085 
L 88.520746 227.994784 
L 93.788764 226.951271 
L 99.056782 226.667508 
L 104.324801 224.772709 
L 109.592819 224.470639 
L 114.860837 224.287567 
L 120.128855 224.077033 
L 125.396874 219.372071 
L 130.664892 219.060848 
L 135.93291 218.767932 
L 141.200929 218.575706 
L 146.468947 218.356019 
L 151.736965 217.916645 
L 157.004984 217.925799 
L 162.273002 217.642037 
L 167.54102 217.413196 
L 172.809039 207.032988 
L 178.077057 207.298443 
L 183.345075 207.133678 
L 188.613094 207.032988 
L 193.881112 207.234368 
L 199.14913 206.98722 
L 204.417148 206.328159 
L 209.685167 205.760635 
L 214.953185 206.035243 
L 220.221203 205.174803 
L 225.489222 205.312107 
L 230.75724 205.229725 
L 236.025258 204.900194 
L 241.293277 204.543203 
L 246.561295 204.250287 
L 251.829313 203.884142 
L 257.097332 203.737684 
L 262.36535 203.344078 
L 267.633368 203.60038 
L 272.901387 183.114573 
L 278.169405 182.574509 
L 283.437423 183.801095 
L 288.705441 183.553947 
L 293.97346 182.876579 
L 299.241478 182.958961 
L 304.509496 181.723222 
L 309.777515 182.894886 
L 315.045533 182.666045 
L 320.313551 181.979524 
L 325.58157 182.345669 
L 330.849588 182.428051 
L 336.117606 181.74153 
L 341.385625 182.235825 
L 351.921661 181.613379 
L 362.457698 183.425796 
L 372.993734 181.219773 
L 383.529771 180.368486 
L 394.065808 180.551559 
L 404.601844 180.990932 
L 415.137881 179.855883 
L 425.673918 179.233437 
L 436.209954 179.434817 
L 446.745991 178.858138 
L 457.282027 178.327228 
L 467.818064 129.565882 
L 478.354101 129.950334 
L 488.890137 135.003133 
L 499.426174 132.522502 
L 509.962211 131.515603 
L 520.498247 129.391963 
L 531.034284 130.3714 
L 541.57032 129.272966 
L 552.106357 129.291273 
L 562.642394 129.199737 
L 573.17843 129.968641 
L 583.714467 129.895412 
L 594.250504 125.977662 
L 604.78654 127.497163 
L 631.126632 127.890769 
L 657.466723 123.551952 
L 683.806815 126.774027 
L 710.146906 124.412392 
L 736.486998 123.213268 
L 762.82709 123.048502 
L 789.167181 121.574769 
L 815.507273 120.329877 
L 815.507273 118.727993 
L 815.507273 118.727993 
L 789.167181 119.991193 
L 762.82709 121.474079 
L 736.486998 121.620537 
L 710.146906 122.828816 
L 683.806815 125.19045 
L 657.466723 121.968375 
L 631.126632 126.307192 
L 604.78654 125.92274 
L 594.250504 124.403239 
L 583.714467 128.311835 
L 573.17843 128.394218 
L 562.642394 127.634467 
L 552.106357 127.735157 
L 541.57032 127.707696 
L 531.034284 128.806131 
L 520.498247 127.835847 
L 509.962211 129.950334 
L 499.426174 130.97554 
L 488.890137 133.465325 
L 478.354101 128.403372 
L 467.818064 128.028073 
L 457.282027 177.540017 
L 446.745991 178.070927 
L 436.209954 178.647605 
L 425.673918 178.437072 
L 415.137881 179.059518 
L 404.601844 180.222028 
L 394.065808 179.736886 
L 383.529771 179.562967 
L 372.993734 180.423408 
L 362.457698 182.666045 
L 351.921661 180.80786 
L 341.385625 181.421153 
L 336.117606 180.926857 
L 330.849588 181.622532 
L 325.58157 181.54015 
L 320.313551 181.164851 
L 315.045533 181.860527 
L 309.777515 182.089367 
L 304.509496 180.926857 
L 299.241478 182.162596 
L 293.97346 182.080214 
L 288.705441 182.757582 
L 283.437423 183.004729 
L 278.169405 181.778144 
L 272.901387 182.318208 
L 267.633368 203.179313 
L 262.36535 202.923012 
L 257.097332 203.316618 
L 251.829313 203.463076 
L 246.561295 203.82922 
L 241.293277 204.122136 
L 236.025258 204.479128 
L 230.75724 204.808658 
L 225.489222 204.891041 
L 220.221203 204.753736 
L 214.953185 205.614177 
L 209.685167 205.339568 
L 204.417148 205.907093 
L 199.14913 206.566154 
L 193.881112 206.813301 
L 188.613094 206.611922 
L 183.345075 206.721765 
L 178.077057 206.877377 
L 172.809039 206.611922 
L 167.54102 217.184356 
L 162.273002 217.404043 
L 157.004984 217.696958 
L 151.736965 217.687805 
L 146.468947 218.127179 
L 141.200929 218.346866 
L 135.93291 218.539092 
L 130.664892 218.8137 
L 125.396874 219.134077 
L 120.128855 223.939729 
L 114.860837 224.150262 
L 109.592819 224.333335 
L 104.324801 224.635404 
L 99.056782 226.594279 
L 93.788764 226.868888 
L 88.520746 227.958169 
L 83.252727 228.214471 
z
" clip-path="url(#p8df8c27a99)" style="fill: #e377c2; fill-opacity: 0.7"/>
   </g>
   <g id="FillBetweenPolyCollection_8">
    <path d="M 83.252727 228.205317 
L 83.252727 228.214471 
L 88.520746 227.958169 
L 93.788764 226.868888 
L 99.056782 226.594279 
L 104.324801 224.635404 
L 109.592819 224.333335 
L 114.860837 224.150262 
L 120.128855 223.939729 
L 125.396874 219.134077 
L 130.664892 218.8137 
L 135.93291 218.539092 
L 141.200929 218.346866 
L 146.468947 218.127179 
L 151.736965 217.687805 
L 157.004984 217.696958 
L 162.273002 217.404043 
L 167.54102 217.184356 
L 172.809039 206.611922 
L 178.077057 206.877377 
L 183.345075 206.721765 
L 188.613094 206.611922 
L 193.881112 206.813301 
L 199.14913 206.566154 
L 204.417148 205.907093 
L 209.685167 205.339568 
L 214.953185 205.614177 
L 220.221203 204.753736 
L 225.489222 204.891041 
L 230.75724 204.808658 
L 236.025258 204.479128 
L 241.293277 204.122136 
L 246.561295 203.82922 
L 251.829313 203.463076 
L 257.097332 203.316618 
L 262.36535 202.923012 
L 267.633368 203.179313 
L 272.901387 182.318208 
L 278.169405 181.778144 
L 283.437423 183.004729 
L 288.705441 182.757582 
L 293.97346 182.080214 
L 299.241478 182.162596 
L 304.509496 180.926857 
L 309.777515 182.089367 
L 315.045533 181.860527 
L 320.313551 181.164851 
L 325.58157 181.54015 
L 330.849588 181.622532 
L 336.117606 180.926857 
L 341.385625 181.421153 
L 351.921661 180.80786 
L 362.457698 182.666045 
L 372.993734 180.423408 
L 383.529771 179.562967 
L 394.065808 179.736886 
L 404.601844 180.222028 
L 415.137881 179.059518 
L 425.673918 178.437072 
L 436.209954 178.647605 
L 446.745991 178.070927 
L 457.282027 177.540017 
L 467.818064 128.028073 
L 478.354101 128.403372 
L 488.890137 133.465325 
L 499.426174 130.97554 
L 509.962211 129.950334 
L 520.498247 127.835847 
L 531.034284 128.806131 
L 541.57032 127.707696 
L 552.106357 127.735157 
L 562.642394 127.634467 
L 573.17843 128.394218 
L 583.714467 128.311835 
L 594.250504 124.403239 
L 604.78654 125.92274 
L 631.126632 126.307192 
L 657.466723 121.968375 
L 683.806815 125.19045 
L 710.146906 122.828816 
L 736.486998 121.620537 
L 762.82709 121.474079 
L 789.167181 119.991193 
L 815.507273 118.727993 
L 815.507273 115.899523 
L 815.507273 115.899523 
L 789.167181 117.181031 
L 762.82709 118.682225 
L 736.486998 118.828683 
L 710.146906 120.046114 
L 683.806815 122.444363 
L 657.466723 119.203981 
L 631.126632 123.59772 
L 604.78654 123.231575 
L 594.250504 121.712074 
L 583.714467 125.611517 
L 573.17843 125.703053 
L 562.642394 124.970763 
L 552.106357 125.080607 
L 541.57032 125.053146 
L 531.034284 126.160734 
L 520.498247 125.199604 
L 509.962211 128.101302 
L 499.426174 129.483499 
L 488.890137 131.83598 
L 478.354101 126.65503 
L 467.818064 126.078352 
L 457.282027 176.002208 
L 446.745991 176.551426 
L 436.209954 177.137257 
L 425.673918 177.036568 
L 415.137881 177.686475 
L 404.601844 178.739141 
L 394.065808 178.244846 
L 383.529771 178.061773 
L 372.993734 178.995443 
L 362.457698 181.366231 
L 351.921661 179.352434 
L 341.385625 179.956573 
L 336.117606 179.562967 
L 330.849588 180.157953 
L 325.58157 180.07557 
L 320.313551 179.709425 
L 315.045533 180.414254 
L 309.777515 180.643095 
L 304.509496 179.480585 
L 299.241478 180.725477 
L 293.97346 180.643095 
L 288.705441 181.375385 
L 283.437423 181.576764 
L 278.169405 180.359333 
L 272.901387 180.990932 
L 267.633368 202.401255 
L 262.36535 202.154108 
L 257.097332 202.556867 
L 251.829313 202.730786 
L 246.561295 203.106084 
L 241.293277 203.463076 
L 236.025258 203.792606 
L 230.75724 204.094676 
L 225.489222 204.250287 
L 220.221203 204.0306 
L 214.953185 205.000884 
L 209.685167 204.707968 
L 204.417148 205.284646 
L 199.14913 205.9254 
L 193.881112 206.181701 
L 188.613094 205.989475 
L 183.345075 206.108472 
L 178.077057 206.245777 
L 172.809039 206.02609 
L 167.54102 216.863979 
L 162.273002 217.202663 
L 157.004984 217.376582 
L 151.736965 217.376582 
L 146.468947 217.85257 
L 141.200929 218.072257 
L 135.93291 218.28279 
L 130.664892 218.68555 
L 125.396874 219.005926 
L 120.128855 223.820732 
L 114.860837 224.022112 
L 109.592819 224.205184 
L 104.324801 224.507254 
L 99.056782 226.566819 
L 93.788764 226.841427 
L 88.520746 227.939862 
L 83.252727 228.205317 
z
" clip-path="url(#p8df8c27a99)" style="fill: #7f7f7f; fill-opacity: 0.7"/>
   </g>
   <g id="FillBetweenPolyCollection_9">
    <path d="M 83.252727 228.205317 
L 83.252727 228.205317 
L 88.520746 227.939862 
L 93.788764 226.841427 
L 99.056782 226.566819 
L 104.324801 224.507254 
L 109.592819 224.205184 
L 114.860837 224.022112 
L 120.128855 223.820732 
L 125.396874 219.005926 
L 130.664892 218.68555 
L 135.93291 218.28279 
L 141.200929 218.072257 
L 146.468947 217.85257 
L 151.736965 217.376582 
L 157.004984 217.376582 
L 162.273002 217.202663 
L 167.54102 216.863979 
L 172.809039 206.02609 
L 178.077057 206.245777 
L 183.345075 206.108472 
L 188.613094 205.989475 
L 193.881112 206.181701 
L 199.14913 205.9254 
L 204.417148 205.284646 
L 209.685167 204.707968 
L 214.953185 205.000884 
L 220.221203 204.0306 
L 225.489222 204.250287 
L 230.75724 204.094676 
L 236.025258 203.792606 
L 241.293277 203.463076 
L 246.561295 203.106084 
L 251.829313 202.730786 
L 257.097332 202.556867 
L 262.36535 202.154108 
L 267.633368 202.401255 
L 272.901387 180.990932 
L 278.169405 180.359333 
L 283.437423 181.576764 
L 288.705441 181.375385 
L 293.97346 180.643095 
L 299.241478 180.725477 
L 304.509496 179.480585 
L 309.777515 180.643095 
L 315.045533 180.414254 
L 320.313551 179.709425 
L 325.58157 180.07557 
L 330.849588 180.157953 
L 336.117606 179.562967 
L 341.385625 179.956573 
L 351.921661 179.352434 
L 362.457698 181.366231 
L 372.993734 178.995443 
L 383.529771 178.061773 
L 394.065808 178.244846 
L 404.601844 178.739141 
L 415.137881 177.686475 
L 425.673918 177.036568 
L 436.209954 177.137257 
L 446.745991 176.551426 
L 457.282027 176.002208 
L 467.818064 126.078352 
L 478.354101 126.65503 
L 488.890137 131.83598 
L 499.426174 129.483499 
L 509.962211 128.101302 
L 520.498247 125.199604 
L 531.034284 126.160734 
L 541.57032 125.053146 
L 552.106357 125.080607 
L 562.642394 124.970763 
L 573.17843 125.703053 
L 583.714467 125.611517 
L 594.250504 121.712074 
L 604.78654 123.231575 
L 631.126632 123.59772 
L 657.466723 119.203981 
L 683.806815 122.444363 
L 710.146906 120.046114 
L 736.486998 118.828683 
L 762.82709 118.682225 
L 789.167181 117.181031 
L 815.507273 115.899523 
L 815.507273 115.89037 
L 815.507273 115.89037 
L 789.167181 117.171877 
L 762.82709 118.673071 
L 736.486998 118.819529 
L 710.146906 120.036961 
L 683.806815 122.43521 
L 657.466723 119.194827 
L 631.126632 123.59772 
L 604.78654 123.222421 
L 594.250504 121.70292 
L 583.714467 125.602363 
L 573.17843 125.703053 
L 562.642394 124.96161 
L 552.106357 125.080607 
L 541.57032 125.053146 
L 531.034284 126.151581 
L 520.498247 125.199604 
L 509.962211 128.101302 
L 499.426174 129.483499 
L 488.890137 131.83598 
L 478.354101 126.65503 
L 467.818064 126.069198 
L 457.282027 176.002208 
L 446.745991 176.551426 
L 436.209954 177.128104 
L 425.673918 177.036568 
L 415.137881 177.686475 
L 404.601844 178.739141 
L 394.065808 178.244846 
L 383.529771 178.061773 
L 372.993734 178.986289 
L 362.457698 181.366231 
L 351.921661 179.34328 
L 341.385625 179.956573 
L 336.117606 179.562967 
L 330.849588 180.148799 
L 325.58157 180.07557 
L 320.313551 179.709425 
L 315.045533 180.414254 
L 309.777515 180.633941 
L 304.509496 179.480585 
L 299.241478 180.725477 
L 293.97346 180.633941 
L 288.705441 181.366231 
L 283.437423 181.576764 
L 278.169405 180.359333 
L 272.901387 180.990932 
L 267.633368 202.401255 
L 262.36535 202.154108 
L 257.097332 202.556867 
L 251.829313 202.730786 
L 246.561295 203.106084 
L 241.293277 203.463076 
L 236.025258 203.792606 
L 230.75724 204.094676 
L 225.489222 204.250287 
L 220.221203 204.0306 
L 214.953185 205.000884 
L 209.685167 204.707968 
L 204.417148 205.284646 
L 199.14913 205.9254 
L 193.881112 206.181701 
L 188.613094 205.989475 
L 183.345075 206.108472 
L 178.077057 206.245777 
L 172.809039 206.02609 
L 167.54102 216.863979 
L 162.273002 217.202663 
L 157.004984 217.376582 
L 151.736965 217.376582 
L 146.468947 217.85257 
L 141.200929 218.072257 
L 135.93291 218.28279 
L 130.664892 218.68555 
L 125.396874 219.005926 
L 120.128855 223.820732 
L 114.860837 224.022112 
L 109.592819 224.205184 
L 104.324801 224.4981 
L 99.056782 226.566819 
L 93.788764 226.841427 
L 88.520746 227.939862 
L 83.252727 228.205317 
z
" clip-path="url(#p8df8c27a99)" style="fill: #bcbd22; fill-opacity: 0.7"/>
   </g>
   <g id="FillBetweenPolyCollection_10">
    <path d="M 83.252727 227.033653 
L 83.252727 228.205317 
L 88.520746 227.939862 
L 93.788764 226.841427 
L 99.056782 226.566819 
L 104.324801 224.4981 
L 109.592819 224.205184 
L 114.860837 224.022112 
L 120.128855 223.820732 
L 125.396874 219.005926 
L 130.664892 218.68555 
L 135.93291 218.28279 
L 141.200929 218.072257 
L 146.468947 217.85257 
L 151.736965 217.376582 
L 157.004984 217.376582 
L 162.273002 217.202663 
L 167.54102 216.863979 
L 172.809039 206.02609 
L 178.077057 206.245777 
L 183.345075 206.108472 
L 188.613094 205.989475 
L 193.881112 206.181701 
L 199.14913 205.9254 
L 204.417148 205.284646 
L 209.685167 204.707968 
L 214.953185 205.000884 
L 220.221203 204.0306 
L 225.489222 204.250287 
L 230.75724 204.094676 
L 236.025258 203.792606 
L 241.293277 203.463076 
L 246.561295 203.106084 
L 251.829313 202.730786 
L 257.097332 202.556867 
L 262.36535 202.154108 
L 267.633368 202.401255 
L 272.901387 180.990932 
L 278.169405 180.359333 
L 283.437423 181.576764 
L 288.705441 181.366231 
L 293.97346 180.633941 
L 299.241478 180.725477 
L 304.509496 179.480585 
L 309.777515 180.633941 
L 315.045533 180.414254 
L 320.313551 179.709425 
L 325.58157 180.07557 
L 330.849588 180.148799 
L 336.117606 179.562967 
L 341.385625 179.956573 
L 351.921661 179.34328 
L 362.457698 181.366231 
L 372.993734 178.986289 
L 383.529771 178.061773 
L 394.065808 178.244846 
L 404.601844 178.739141 
L 415.137881 177.686475 
L 425.673918 177.036568 
L 436.209954 177.128104 
L 446.745991 176.551426 
L 457.282027 176.002208 
L 467.818064 126.069198 
L 478.354101 126.65503 
L 488.890137 131.83598 
L 499.426174 129.483499 
L 509.962211 128.101302 
L 520.498247 125.199604 
L 531.034284 126.151581 
L 541.57032 125.053146 
L 552.106357 125.080607 
L 562.642394 124.96161 
L 573.17843 125.703053 
L 583.714467 125.602363 
L 594.250504 121.70292 
L 604.78654 123.222421 
L 631.126632 123.59772 
L 657.466723 119.194827 
L 683.806815 122.43521 
L 710.146906 120.036961 
L 736.486998 118.819529 
L 762.82709 118.673071 
L 789.167181 117.171877 
L 815.507273 115.89037 
L 815.507273 88.017589 
L 815.507273 88.017589 
L 789.167181 89.335711 
L 762.82709 90.983363 
L 736.486998 91.157282 
L 710.146906 92.383867 
L 683.806815 94.837038 
L 657.466723 91.669885 
L 631.126632 96.182621 
L 604.78654 95.889705 
L 594.250504 94.36105 
L 583.714467 98.242186 
L 573.17843 98.406951 
L 562.642394 97.738736 
L 552.106357 97.94927 
L 541.57032 97.958423 
L 531.034284 99.01109 
L 520.498247 98.324568 
L 509.962211 101.308649 
L 499.426174 102.773229 
L 488.890137 105.198939 
L 478.354101 100.017988 
L 467.818064 99.496232 
L 457.282027 161.832401 
L 446.745991 162.445693 
L 436.209954 163.022372 
L 425.673918 162.820992 
L 415.137881 163.589896 
L 404.601844 164.889711 
L 394.065808 164.047577 
L 383.529771 163.782122 
L 372.993734 164.679177 
L 362.457698 167.71818 
L 351.921661 165.118551 
L 341.385625 165.631154 
L 336.117606 165.319931 
L 330.849588 165.969838 
L 325.58157 165.905763 
L 320.313551 165.530464 
L 315.045533 166.198679 
L 309.777515 166.491595 
L 304.509496 165.237548 
L 299.241478 166.592284 
L 293.97346 166.546516 
L 288.705441 167.297113 
L 283.437423 167.498493 
L 278.169405 166.2536 
L 272.901387 166.976737 
L 267.633368 195.032589 
L 262.36535 194.52914 
L 257.097332 195.014282 
L 251.829313 195.124126 
L 246.561295 195.545192 
L 241.293277 195.755725 
L 236.025258 196.140178 
L 230.75724 196.597859 
L 225.489222 196.671088 
L 220.221203 196.433094 
L 214.953185 197.348456 
L 209.685167 197.092154 
L 204.417148 197.696293 
L 199.14913 198.355354 
L 193.881112 198.584195 
L 188.613094 198.410276 
L 183.345075 198.510966 
L 178.077057 198.694038 
L 172.809039 198.309586 
L 167.54102 212.699081 
L 162.273002 213.019457 
L 157.004984 213.220837 
L 151.736965 213.156762 
L 146.468947 213.586982 
L 141.200929 213.861591 
L 135.93291 214.026356 
L 130.664892 214.438269 
L 125.396874 214.758646 
L 120.128855 221.038031 
L 114.860837 221.349254 
L 109.592819 221.514019 
L 104.324801 221.925932 
L 99.056782 224.964935 
L 93.788764 225.267004 
L 88.520746 226.759045 
L 83.252727 227.033653 
z
" clip-path="url(#p8df8c27a99)" style="fill: #17becf; fill-opacity: 0.7"/>
   </g>
   <g id="FillBetweenPolyCollection_11">
    <path d="M 83.252727 226.997039 
L 83.252727 227.033653 
L 88.520746 226.759045 
L 93.788764 225.267004 
L 99.056782 224.964935 
L 104.324801 221.925932 
L 109.592819 221.514019 
L 114.860837 221.349254 
L 120.128855 221.038031 
L 125.396874 214.758646 
L 130.664892 214.438269 
L 135.93291 214.026356 
L 141.200929 213.861591 
L 146.468947 213.586982 
L 151.736965 213.156762 
L 157.004984 213.220837 
L 162.273002 213.019457 
L 167.54102 212.699081 
L 172.809039 198.309586 
L 178.077057 198.694038 
L 183.345075 198.510966 
L 188.613094 198.410276 
L 193.881112 198.584195 
L 199.14913 198.355354 
L 204.417148 197.696293 
L 209.685167 197.092154 
L 214.953185 197.348456 
L 220.221203 196.433094 
L 225.489222 196.671088 
L 230.75724 196.597859 
L 236.025258 196.140178 
L 241.293277 195.755725 
L 246.561295 195.545192 
L 251.829313 195.124126 
L 257.097332 195.014282 
L 262.36535 194.52914 
L 267.633368 195.032589 
L 272.901387 166.976737 
L 278.169405 166.2536 
L 283.437423 167.498493 
L 288.705441 167.297113 
L 293.97346 166.546516 
L 299.241478 166.592284 
L 304.509496 165.237548 
L 309.777515 166.491595 
L 315.045533 166.198679 
L 320.313551 165.530464 
L 325.58157 165.905763 
L 330.849588 165.969838 
L 336.117606 165.319931 
L 341.385625 165.631154 
L 351.921661 165.118551 
L 362.457698 167.71818 
L 372.993734 164.679177 
L 383.529771 163.782122 
L 394.065808 164.047577 
L 404.601844 164.889711 
L 415.137881 163.589896 
L 425.673918 162.820992 
L 436.209954 163.022372 
L 446.745991 162.445693 
L 457.282027 161.832401 
L 467.818064 99.496232 
L 478.354101 100.017988 
L 488.890137 105.198939 
L 499.426174 102.773229 
L 509.962211 101.308649 
L 520.498247 98.324568 
L 531.034284 99.01109 
L 541.57032 97.958423 
L 552.106357 97.94927 
L 562.642394 97.738736 
L 573.17843 98.406951 
L 583.714467 98.242186 
L 594.250504 94.36105 
L 604.78654 95.889705 
L 631.126632 96.182621 
L 657.466723 91.669885 
L 683.806815 94.837038 
L 710.146906 92.383867 
L 736.486998 91.157282 
L 762.82709 90.983363 
L 789.167181 89.335711 
L 815.507273 88.017589 
L 815.507273 86.287555 
L 815.507273 86.287555 
L 789.167181 87.651445 
L 762.82709 89.30825 
L 736.486998 89.50963 
L 710.146906 90.717908 
L 683.806815 93.171079 
L 657.466723 90.031386 
L 631.126632 94.516661 
L 604.78654 94.242053 
L 594.250504 92.713398 
L 583.714467 96.58538 
L 573.17843 96.759299 
L 562.642394 96.100238 
L 552.106357 96.283311 
L 541.57032 96.274157 
L 531.034284 97.390899 
L 520.498247 96.695224 
L 509.962211 99.990528 
L 499.426174 101.464261 
L 488.890137 103.825895 
L 478.354101 98.718174 
L 467.818064 98.168957 
L 457.282027 161.036036 
L 446.745991 161.649328 
L 436.209954 162.226007 
L 425.673918 162.03378 
L 415.137881 162.784377 
L 404.601844 164.102499 
L 394.065808 163.260366 
L 383.529771 162.985757 
L 372.993734 163.901119 
L 362.457698 166.940122 
L 351.921661 164.33134 
L 341.385625 164.825635 
L 336.117606 164.514412 
L 330.849588 165.173473 
L 325.58157 165.100244 
L 320.313551 164.724945 
L 315.045533 165.402313 
L 309.777515 165.686076 
L 304.509496 164.43203 
L 299.241478 165.805073 
L 293.97346 165.740998 
L 288.705441 166.500748 
L 283.437423 166.692974 
L 278.169405 165.457235 
L 272.901387 166.198679 
L 267.633368 194.620676 
L 262.36535 194.126381 
L 257.097332 194.620676 
L 251.829313 194.73052 
L 246.561295 195.142433 
L 241.293277 195.352966 
L 236.025258 195.737418 
L 230.75724 196.195099 
L 225.489222 196.268328 
L 220.221203 196.030334 
L 214.953185 196.945696 
L 209.685167 196.689395 
L 204.417148 197.302688 
L 199.14913 197.961748 
L 193.881112 198.236357 
L 188.613094 198.034977 
L 183.345075 198.11736 
L 178.077057 198.300433 
L 172.809039 197.91598 
L 167.54102 212.525162 
L 162.273002 212.845539 
L 157.004984 213.028611 
L 151.736965 212.964536 
L 146.468947 213.394756 
L 141.200929 213.669365 
L 135.93291 213.83413 
L 130.664892 214.273504 
L 125.396874 214.59388 
L 120.128855 220.955648 
L 114.860837 221.248564 
L 109.592819 221.413329 
L 104.324801 221.825242 
L 99.056782 224.919167 
L 93.788764 225.221236 
L 88.520746 226.731584 
L 83.252727 226.997039 
z
" clip-path="url(#p8df8c27a99)" style="fill: #1f77b4; fill-opacity: 0.7"/>
   </g>
   <g id="FillBetweenPolyCollection_12">
    <path d="M 83.252727 226.099984 
L 83.252727 226.997039 
L 88.520746 226.731584 
L 93.788764 225.221236 
L 99.056782 224.919167 
L 104.324801 221.825242 
L 109.592819 221.413329 
L 114.860837 221.248564 
L 120.128855 220.955648 
L 125.396874 214.59388 
L 130.664892 214.273504 
L 135.93291 213.83413 
L 141.200929 213.669365 
L 146.468947 213.394756 
L 151.736965 212.964536 
L 157.004984 213.028611 
L 162.273002 212.845539 
L 167.54102 212.525162 
L 172.809039 197.91598 
L 178.077057 198.300433 
L 183.345075 198.11736 
L 188.613094 198.034977 
L 193.881112 198.236357 
L 199.14913 197.961748 
L 204.417148 197.302688 
L 209.685167 196.689395 
L 214.953185 196.945696 
L 220.221203 196.030334 
L 225.489222 196.268328 
L 230.75724 196.195099 
L 236.025258 195.737418 
L 241.293277 195.352966 
L 246.561295 195.142433 
L 251.829313 194.73052 
L 257.097332 194.620676 
L 262.36535 194.126381 
L 267.633368 194.620676 
L 272.901387 166.198679 
L 278.169405 165.457235 
L 283.437423 166.692974 
L 288.705441 166.500748 
L 293.97346 165.740998 
L 299.241478 165.805073 
L 304.509496 164.43203 
L 309.777515 165.686076 
L 315.045533 165.402313 
L 320.313551 164.724945 
L 325.58157 165.100244 
L 330.849588 165.173473 
L 336.117606 164.514412 
L 341.385625 164.825635 
L 351.921661 164.33134 
L 362.457698 166.940122 
L 372.993734 163.901119 
L 383.529771 162.985757 
L 394.065808 163.260366 
L 404.601844 164.102499 
L 415.137881 162.784377 
L 425.673918 162.03378 
L 436.209954 162.226007 
L 446.745991 161.649328 
L 457.282027 161.036036 
L 467.818064 98.168957 
L 478.354101 98.718174 
L 488.890137 103.825895 
L 499.426174 101.464261 
L 509.962211 99.990528 
L 520.498247 96.695224 
L 531.034284 97.390899 
L 541.57032 96.274157 
L 552.106357 96.283311 
L 562.642394 96.100238 
L 573.17843 96.759299 
L 583.714467 96.58538 
L 594.250504 92.713398 
L 604.78654 94.242053 
L 631.126632 94.516661 
L 657.466723 90.031386 
L 683.806815 93.171079 
L 710.146906 90.717908 
L 736.486998 89.50963 
L 762.82709 89.30825 
L 789.167181 87.651445 
L 815.507273 86.287555 
L 815.507273 38.597182 
L 815.507273 38.597182 
L 789.167181 40.098376 
L 762.82709 42.881077 
L 736.486998 43.768979 
L 710.146906 45.462399 
L 683.806815 48.583784 
L 657.466723 45.563089 
L 631.126632 50.67081 
L 604.78654 51.4031 
L 594.250504 50.34128 
L 583.714467 54.313952 
L 573.17843 54.625175 
L 562.642394 54.625175 
L 552.106357 55.027934 
L 541.57032 55.137778 
L 531.034284 56.446746 
L 520.498247 56.007372 
L 509.962211 59.861047 
L 499.426174 61.444624 
L 488.890137 63.952716 
L 478.354101 58.982299 
L 467.818064 58.762612 
L 457.282027 137.730913 
L 446.745991 138.902577 
L 436.209954 139.662327 
L 425.673918 139.488408 
L 415.137881 140.495307 
L 404.601844 142.609794 
L 394.065808 141.154368 
L 383.529771 141.071985 
L 372.993734 142.326031 
L 362.457698 146.500083 
L 351.921661 143.149857 
L 341.385625 143.808918 
L 336.117606 143.66246 
L 330.849588 144.330675 
L 325.58157 144.440518 
L 320.313551 144.312367 
L 315.045533 144.641898 
L 309.777515 145.145347 
L 304.509496 143.909608 
L 299.241478 145.566414 
L 293.97346 145.502338 
L 288.705441 146.536698 
L 283.437423 146.765538 
L 278.169405 145.639643 
L 272.901387 146.609927 
L 267.633368 177.915315 
L 262.36535 180.871935 
L 257.097332 181.759837 
L 251.829313 181.897141 
L 246.561295 182.9315 
L 241.293277 183.315953 
L 236.025258 184.103164 
L 230.75724 183.682097 
L 225.489222 184.249622 
L 220.221203 182.775889 
L 214.953185 185.924735 
L 209.685167 185.576897 
L 204.417148 186.748561 
L 199.14913 187.178781 
L 193.881112 188.011761 
L 188.613094 187.792074 
L 183.345075 188.066683 
L 178.077057 188.130758 
L 172.809039 188.048375 
L 167.54102 204.360131 
L 162.273002 205.129035 
L 157.004984 207.005527 
L 151.736965 207.08791 
L 146.468947 207.646281 
L 141.200929 208.314495 
L 135.93291 208.543336 
L 130.664892 209.165782 
L 125.396874 209.541081 
L 120.128855 217.047051 
L 114.860837 218.237022 
L 109.592819 217.934953 
L 104.324801 219.161538 
L 99.056782 223.381358 
L 93.788764 223.820732 
L 88.520746 225.697224 
L 83.252727 226.099984 
z
" clip-path="url(#p8df8c27a99)" style="fill: #ff7f0e; fill-opacity: 0.7"/>
   </g>
   <g id="FillBetweenPolyCollection_13">
    <path d="M 83.252727 226.09083 
L 83.252727 226.099984 
L 88.520746 225.697224 
L 93.788764 223.820732 
L 99.056782 223.381358 
L 104.324801 219.161538 
L 109.592819 217.934953 
L 114.860837 218.237022 
L 120.128855 217.047051 
L 125.396874 209.541081 
L 130.664892 209.165782 
L 135.93291 208.543336 
L 141.200929 208.314495 
L 146.468947 207.646281 
L 151.736965 207.08791 
L 157.004984 207.005527 
L 162.273002 205.129035 
L 167.54102 204.360131 
L 172.809039 188.048375 
L 178.077057 188.130758 
L 183.345075 188.066683 
L 188.613094 187.792074 
L 193.881112 188.011761 
L 199.14913 187.178781 
L 204.417148 186.748561 
L 209.685167 185.576897 
L 214.953185 185.924735 
L 220.221203 182.775889 
L 225.489222 184.249622 
L 230.75724 183.682097 
L 236.025258 184.103164 
L 241.293277 183.315953 
L 246.561295 182.9315 
L 251.829313 181.897141 
L 257.097332 181.759837 
L 262.36535 180.871935 
L 267.633368 177.915315 
L 272.901387 146.609927 
L 278.169405 145.639643 
L 283.437423 146.765538 
L 288.705441 146.536698 
L 293.97346 145.502338 
L 299.241478 145.566414 
L 304.509496 143.909608 
L 309.777515 145.145347 
L 315.045533 144.641898 
L 320.313551 144.312367 
L 325.58157 144.440518 
L 330.849588 144.330675 
L 336.117606 143.66246 
L 341.385625 143.808918 
L 351.921661 143.149857 
L 362.457698 146.500083 
L 372.993734 142.326031 
L 383.529771 141.071985 
L 394.065808 141.154368 
L 404.601844 142.609794 
L 415.137881 140.495307 
L 425.673918 139.488408 
L 436.209954 139.662327 
L 446.745991 138.902577 
L 457.282027 137.730913 
L 467.818064 58.762612 
L 478.354101 58.982299 
L 488.890137 63.952716 
L 499.426174 61.444624 
L 509.962211 59.861047 
L 520.498247 56.007372 
L 531.034284 56.446746 
L 541.57032 55.137778 
L 552.106357 55.027934 
L 562.642394 54.625175 
L 573.17843 54.625175 
L 583.714467 54.313952 
L 594.250504 50.34128 
L 604.78654 51.4031 
L 631.126632 50.67081 
L 657.466723 45.563089 
L 683.806815 48.583784 
L 710.146906 45.462399 
L 736.486998 43.768979 
L 762.82709 42.881077 
L 789.167181 40.098376 
L 815.507273 38.597182 
L 815.507273 36.885455 
L 815.507273 36.885455 
L 789.167181 38.478185 
L 762.82709 41.37073 
L 736.486998 42.112173 
L 710.146906 43.805593 
L 683.806815 46.890364 
L 657.466723 43.92459 
L 631.126632 49.059772 
L 604.78654 49.764601 
L 594.250504 48.556323 
L 583.714467 52.657146 
L 573.17843 52.968369 
L 562.642394 53.014137 
L 552.106357 53.252131 
L 541.57032 53.416897 
L 531.034284 54.744172 
L 520.498247 54.332259 
L 509.962211 58.112705 
L 499.426174 59.769511 
L 488.890137 62.277603 
L 478.354101 57.380415 
L 467.818064 57.188189 
L 457.282027 137.11762 
L 446.745991 138.289284 
L 436.209954 139.039881 
L 425.673918 138.865962 
L 415.137881 139.854553 
L 404.601844 141.950733 
L 394.065808 140.541075 
L 383.529771 140.477 
L 372.993734 141.685278 
L 362.457698 145.85933 
L 351.921661 142.445028 
L 341.385625 143.149857 
L 336.117606 143.076628 
L 330.849588 143.744843 
L 325.58157 143.836379 
L 320.313551 143.653307 
L 315.045533 143.909608 
L 309.777515 144.321521 
L 304.509496 143.177318 
L 299.241478 144.879892 
L 293.97346 144.797509 
L 288.705441 145.813561 
L 283.437423 146.097324 
L 278.169405 144.934814 
L 272.901387 145.877637 
L 267.633368 177.585785 
L 262.36535 180.542405 
L 257.097332 181.476074 
L 251.829313 181.622532 
L 246.561295 182.611124 
L 241.293277 182.986422 
L 236.025258 183.810248 
L 230.75724 183.398335 
L 225.489222 183.938399 
L 220.221203 182.492127 
L 214.953185 185.586051 
L 209.685167 185.22906 
L 204.417148 186.400723 
L 199.14913 186.867558 
L 193.881112 187.673077 
L 188.613094 187.45339 
L 183.345075 187.718845 
L 178.077057 187.810381 
L 172.809039 187.709691 
L 167.54102 204.213673 
L 162.273002 204.982577 
L 157.004984 206.859069 
L 151.736965 206.950606 
L 146.468947 207.508977 
L 141.200929 208.177191 
L 135.93291 208.396878 
L 130.664892 209.001017 
L 125.396874 209.403777 
L 120.128855 216.982976 
L 114.860837 218.172947 
L 109.592819 217.85257 
L 104.324801 219.088309 
L 99.056782 223.353897 
L 93.788764 223.774964 
L 88.520746 225.678917 
L 83.252727 226.09083 
z
" clip-path="url(#p8df8c27a99)" style="fill: #2ca02c; fill-opacity: 0.7"/>
   </g>
   <g id="matplotlib.axis_1">
    <g id="xtick_1">
     <g id="line2d_1">
      <path d="M 77.984709 244.48 
L 77.984709 27 
" clip-path="url(#p8df8c27a99)" style="fill: none; stroke: #b0b0b0; stroke-opacity: 0.25; stroke-width: 0.8; stroke-linecap: square"/>
     </g>
     <g id="line2d_2">
      <defs>
       <path id="me487ebfe3e" d="M 0 0 
L 0 3.5 
" style="stroke: #000000; stroke-width: 0.8"/>
      </defs>
      <g>
       <use xlink:href="#me487ebfe3e" x="77.984709" y="244.48" style="stroke: #000000; stroke-width: 0.8"/>
      </g>
     </g>
     <g id="text_1">
      <!-- 0 -->
      <g transform="translate(74.803459 259.078438) scale(0.1 -0.1)">
       <defs>
        <path id="DejaVuSans-30" d="M 2034 4250 
Q 1547 4250 1301 3770 
Q 1056 3291 1056 2328 
Q 1056 1369 1301 889 
Q 1547 409 2034 409 
Q 2525 409 2770 889 
Q 3016 1369 3016 2328 
Q 3016 3291 2770 3770 
Q 2525 4250 2034 4250 
z
M 2034 4750 
Q 2819 4750 3233 4129 
Q 3647 3509 3647 2328 
Q 3647 1150 3233 529 
Q 2819 -91 2034 -91 
Q 1250 -91 836 529 
Q 422 1150 422 2328 
Q 422 3509 836 4129 
Q 1250 4750 2034 4750 
z
" transform="scale(0.015625)"/>
       </defs>
       <use xlink:href="#DejaVuSans-30"/>
      </g>
     </g>
    </g>
    <g id="xtick_2">
     <g id="line2d_3">
      <path d="M 183.345075 244.48 
L 183.345075 27 
" clip-path="url(#p8df8c27a99)" style="fill: none; stroke: #b0b0b0; stroke-opacity: 0.25; stroke-width: 0.8; stroke-linecap: square"/>
     </g>
     <g id="line2d_4">
      <g>
       <use xlink:href="#me487ebfe3e" x="183.345075" y="244.48" style="stroke: #000000; stroke-width: 0.8"/>
      </g>
     </g>
     <g id="text_2">
      <!-- 20 -->
      <g transform="translate(176.982575 259.078438) scale(0.1 -0.1)">
       <defs>
        <path id="DejaVuSans-32" d="M 1228 531 
L 3431 531 
L 3431 0 
L 469 0 
L 469 531 
Q 828 903 1448 1529 
Q 2069 2156 2228 2338 
Q 2531 2678 2651 2914 
Q 2772 3150 2772 3378 
Q 2772 3750 2511 3984 
Q 2250 4219 1831 4219 
Q 1534 4219 1204 4116 
Q 875 4013 500 3803 
L 500 4441 
Q 881 4594 1212 4672 
Q 1544 4750 1819 4750 
Q 2544 4750 2975 4387 
Q 3406 4025 3406 3419 
Q 3406 3131 3298 2873 
Q 3191 2616 2906 2266 
Q 2828 2175 2409 1742 
Q 1991 1309 1228 531 
z
" transform="scale(0.015625)"/>
       </defs>
       <use xlink:href="#DejaVuSans-32"/>
       <use xlink:href="#DejaVuSans-30" transform="translate(63.623047 0)"/>
      </g>
     </g>
    </g>
    <g id="xtick_3">
     <g id="line2d_5">
      <path d="M 288.705441 244.48 
L 288.705441 27 
" clip-path="url(#p8df8c27a99)" style="fill: none; stroke: #b0b0b0; stroke-opacity: 0.25; stroke-width: 0.8; stroke-linecap: square"/>
     </g>
     <g id="line2d_6">
      <g>
       <use xlink:href="#me487ebfe3e" x="288.705441" y="244.48" style="stroke: #000000; stroke-width: 0.8"/>
      </g>
     </g>
     <g id="text_3">
      <!-- 40 -->
      <g transform="translate(282.342941 259.078438) scale(0.1 -0.1)">
       <defs>
        <path id="DejaVuSans-34" d="M 2419 4116 
L 825 1625 
L 2419 1625 
L 2419 4116 
z
M 2253 4666 
L 3047 4666 
L 3047 1625 
L 3713 1625 
L 3713 1100 
L 3047 1100 
L 3047 0 
L 2419 0 
L 2419 1100 
L 313 1100 
L 313 1709 
L 2253 4666 
z
" transform="scale(0.015625)"/>
       </defs>
       <use xlink:href="#DejaVuSans-34"/>
       <use xlink:href="#DejaVuSans-30" transform="translate(63.623047 0)"/>
      </g>
     </g>
    </g>
    <g id="xtick_4">
     <g id="line2d_7">
      <path d="M 394.065808 244.48 
L 394.065808 27 
" clip-path="url(#p8df8c27a99)" style="fill: none; stroke: #b0b0b0; stroke-opacity: 0.25; stroke-width: 0.8; stroke-linecap: square"/>
     </g>
     <g id="line2d_8">
      <g>
       <use xlink:href="#me487ebfe3e" x="394.065808" y="244.48" style="stroke: #000000; stroke-width: 0.8"/>
      </g>
     </g>
     <g id="text_4">
      <!-- 60 -->
      <g transform="translate(387.703308 259.078438) scale(0.1 -0.1)">
       <defs>
        <path id="DejaVuSans-36" d="M 2113 2584 
Q 1688 2584 1439 2293 
Q 1191 2003 1191 1497 
Q 1191 994 1439 701 
Q 1688 409 2113 409 
Q 2538 409 2786 701 
Q 3034 994 3034 1497 
Q 3034 2003 2786 2293 
Q 2538 2584 2113 2584 
z
M 3366 4563 
L 3366 3988 
Q 3128 4100 2886 4159 
Q 2644 4219 2406 4219 
Q 1781 4219 1451 3797 
Q 1122 3375 1075 2522 
Q 1259 2794 1537 2939 
Q 1816 3084 2150 3084 
Q 2853 3084 3261 2657 
Q 3669 2231 3669 1497 
Q 3669 778 3244 343 
Q 2819 -91 2113 -91 
Q 1303 -91 875 529 
Q 447 1150 447 2328 
Q 447 3434 972 4092 
Q 1497 4750 2381 4750 
Q 2619 4750 2861 4703 
Q 3103 4656 3366 4563 
z
" transform="scale(0.015625)"/>
       </defs>
       <use xlink:href="#DejaVuSans-36"/>
       <use xlink:href="#DejaVuSans-30" transform="translate(63.623047 0)"/>
      </g>
     </g>
    </g>
    <g id="xtick_5">
     <g id="line2d_9">
      <path d="M 499.426174 244.48 
L 499.426174 27 
" clip-path="url(#p8df8c27a99)" style="fill: none; stroke: #b0b0b0; stroke-opacity: 0.25; stroke-width: 0.8; stroke-linecap: square"/>
     </g>
     <g id="line2d_10">
      <g>
       <use xlink:href="#me487ebfe3e" x="499.426174" y="244.48" style="stroke: #000000; stroke-width: 0.8"/>
      </g>
     </g>
     <g id="text_5">
      <!-- 80 -->
      <g transform="translate(493.063674 259.078438) scale(0.1 -0.1)">
       <defs>
        <path id="DejaVuSans-38" d="M 2034 2216 
Q 1584 2216 1326 1975 
Q 1069 1734 1069 1313 
Q 1069 891 1326 650 
Q 1584 409 2034 409 
Q 2484 409 2743 651 
Q 3003 894 3003 1313 
Q 3003 1734 2745 1975 
Q 2488 2216 2034 2216 
z
M 1403 2484 
Q 997 2584 770 2862 
Q 544 3141 544 3541 
Q 544 4100 942 4425 
Q 1341 4750 2034 4750 
Q 2731 4750 3128 4425 
Q 3525 4100 3525 3541 
Q 3525 3141 3298 2862 
Q 3072 2584 2669 2484 
Q 3125 2378 3379 2068 
Q 3634 1759 3634 1313 
Q 3634 634 3220 271 
Q 2806 -91 2034 -91 
Q 1263 -91 848 271 
Q 434 634 434 1313 
Q 434 1759 690 2068 
Q 947 2378 1403 2484 
z
M 1172 3481 
Q 1172 3119 1398 2916 
Q 1625 2713 2034 2713 
Q 2441 2713 2670 2916 
Q 2900 3119 2900 3481 
Q 2900 3844 2670 4047 
Q 2441 4250 2034 4250 
Q 1625 4250 1398 4047 
Q 1172 3844 1172 3481 
z
" transform="scale(0.015625)"/>
       </defs>
       <use xlink:href="#DejaVuSans-38"/>
       <use xlink:href="#DejaVuSans-30" transform="translate(63.623047 0)"/>
      </g>
     </g>
    </g>
    <g id="xtick_6">
     <g id="line2d_11">
      <path d="M 604.78654 244.48 
L 604.78654 27 
" clip-path="url(#p8df8c27a99)" style="fill: none; stroke: #b0b0b0; stroke-opacity: 0.25; stroke-width: 0.8; stroke-linecap: square"/>
     </g>
     <g id="line2d_12">
      <g>
       <use xlink:href="#me487ebfe3e" x="604.78654" y="244.48" style="stroke: #000000; stroke-width: 0.8"/>
      </g>
     </g>
     <g id="text_6">
      <!-- 100 -->
      <g transform="translate(595.24279 259.078438) scale(0.1 -0.1)">
       <defs>
        <path id="DejaVuSans-31" d="M 794 531 
L 1825 531 
L 1825 4091 
L 703 3866 
L 703 4441 
L 1819 4666 
L 2450 4666 
L 2450 531 
L 3481 531 
L 3481 0 
L 794 0 
L 794 531 
z
" transform="scale(0.015625)"/>
       </defs>
       <use xlink:href="#DejaVuSans-31"/>
       <use xlink:href="#DejaVuSans-30" transform="translate(63.623047 0)"/>
       <use xlink:href="#DejaVuSans-30" transform="translate(127.246094 0)"/>
      </g>
     </g>
    </g>
    <g id="xtick_7">
     <g id="line2d_13">
      <path d="M 710.146906 244.48 
L 710.146906 27 
" clip-path="url(#p8df8c27a99)" style="fill: none; stroke: #b0b0b0; stroke-opacity: 0.25; stroke-width: 0.8; stroke-linecap: square"/>
     </g>
     <g id="line2d_14">
      <g>
       <use xlink:href="#me487ebfe3e" x="710.146906" y="244.48" style="stroke: #000000; stroke-width: 0.8"/>
      </g>
     </g>
     <g id="text_7">
      <!-- 120 -->
      <g transform="translate(700.603156 259.078438) scale(0.1 -0.1)">
       <use xlink:href="#DejaVuSans-31"/>
       <use xlink:href="#DejaVuSans-32" transform="translate(63.623047 0)"/>
       <use xlink:href="#DejaVuSans-30" transform="translate(127.246094 0)"/>
      </g>
     </g>
    </g>
    <g id="xtick_8">
     <g id="line2d_15">
      <path d="M 815.507273 244.48 
L 815.507273 27 
" clip-path="url(#p8df8c27a99)" style="fill: none; stroke: #b0b0b0; stroke-opacity: 0.25; stroke-width: 0.8; stroke-linecap: square"/>
     </g>
     <g id="line2d_16">
      <g>
       <use xlink:href="#me487ebfe3e" x="815.507273" y="244.48" style="stroke: #000000; stroke-width: 0.8"/>
      </g>
     </g>
     <g id="text_8">
      <!-- 140 -->
      <g transform="translate(805.963523 259.078438) scale(0.1 -0.1)">
       <use xlink:href="#DejaVuSans-31"/>
       <use xlink:href="#DejaVuSans-34" transform="translate(63.623047 0)"/>
       <use xlink:href="#DejaVuSans-30" transform="translate(127.246094 0)"/>
      </g>
     </g>
    </g>
    <g id="text_9">
     <!-- Input -->
     <g transform="translate(435.138438 273.516406) scale(0.11 -0.11)">
      <defs>
       <path id="DejaVuSans-49" d="M 628 4666 
L 1259 4666 
L 1259 0 
L 628 0 
L 628 4666 
z
" transform="scale(0.015625)"/>
       <path id="DejaVuSans-6e" d="M 3513 2113 
L 3513 0 
L 2938 0 
L 2938 2094 
Q 2938 2591 2744 2837 
Q 2550 3084 2163 3084 
Q 1697 3084 1428 2787 
Q 1159 2491 1159 1978 
L 1159 0 
L 581 0 
L 581 3500 
L 1159 3500 
L 1159 2956 
Q 1366 3272 1645 3428 
Q 1925 3584 2291 3584 
Q 2894 3584 3203 3211 
Q 3513 2838 3513 2113 
z
" transform="scale(0.015625)"/>
       <path id="DejaVuSans-70" d="M 1159 525 
L 1159 -1331 
L 581 -1331 
L 581 3500 
L 1159 3500 
L 1159 2969 
Q 1341 3281 1617 3432 
Q 1894 3584 2278 3584 
Q 2916 3584 3314 3078 
Q 3713 2572 3713 1747 
Q 3713 922 3314 415 
Q 2916 -91 2278 -91 
Q 1894 -91 1617 61 
Q 1341 213 1159 525 
z
M 3116 1747 
Q 3116 2381 2855 2742 
Q 2594 3103 2138 3103 
Q 1681 3103 1420 2742 
Q 1159 2381 1159 1747 
Q 1159 1113 1420 752 
Q 1681 391 2138 391 
Q 2594 391 2855 752 
Q 3116 1113 3116 1747 
z
" transform="scale(0.015625)"/>
       <path id="DejaVuSans-75" d="M 544 1381 
L 544 3500 
L 1119 3500 
L 1119 1403 
Q 1119 906 1312 657 
Q 1506 409 1894 409 
Q 2359 409 2629 706 
Q 2900 1003 2900 1516 
L 2900 3500 
L 3475 3500 
L 3475 0 
L 2900 0 
L 2900 538 
Q 2691 219 2414 64 
Q 2138 -91 1772 -91 
Q 1169 -91 856 284 
Q 544 659 544 1381 
z
M 1991 3584 
L 1991 3584 
z
" transform="scale(0.015625)"/>
       <path id="DejaVuSans-74" d="M 1172 4494 
L 1172 3500 
L 2356 3500 
L 2356 3053 
L 1172 3053 
L 1172 1153 
Q 1172 725 1289 603 
Q 1406 481 1766 481 
L 2356 481 
L 2356 0 
L 1766 0 
Q 1100 0 847 248 
Q 594 497 594 1153 
L 594 3053 
L 172 3053 
L 172 3500 
L 594 3500 
L 594 4494 
L 1172 4494 
z
" transform="scale(0.015625)"/>
      </defs>
      <use xlink:href="#DejaVuSans-49"/>
      <use xlink:href="#DejaVuSans-6e" transform="translate(29.492188 0)"/>
      <use xlink:href="#DejaVuSans-70" transform="translate(92.871094 0)"/>
      <use xlink:href="#DejaVuSans-75" transform="translate(156.347656 0)"/>
      <use xlink:href="#DejaVuSans-74" transform="translate(219.726562 0)"/>
     </g>
    </g>
   </g>
   <g id="matplotlib.axis_2">
    <g id="ytick_1">
     <g id="line2d_17">
      <path d="M 46.64 234.594545 
L 852.12 234.594545 
" clip-path="url(#p8df8c27a99)" style="fill: none; stroke: #b0b0b0; stroke-opacity: 0.25; stroke-width: 0.8; stroke-linecap: square"/>
     </g>
     <g id="line2d_18">
      <defs>
       <path id="me6299a6cff" d="M 0 0 
L -3.5 0 
" style="stroke: #000000; stroke-width: 0.8"/>
      </defs>
      <g>
       <use xlink:href="#me6299a6cff" x="46.64" y="234.594545" style="stroke: #000000; stroke-width: 0.8"/>
      </g>
     </g>
     <g id="text_10">
      <!-- 0 -->
      <g transform="translate(33.2775 238.393764) scale(0.1 -0.1)">
       <use xlink:href="#DejaVuSans-30"/>
      </g>
     </g>
    </g>
    <g id="ytick_2">
     <g id="line2d_19">
      <path d="M 46.64 188.826433 
L 852.12 188.826433 
" clip-path="url(#p8df8c27a99)" style="fill: none; stroke: #b0b0b0; stroke-opacity: 0.25; stroke-width: 0.8; stroke-linecap: square"/>
     </g>
     <g id="line2d_20">
      <g>
       <use xlink:href="#me6299a6cff" x="46.64" y="188.826433" style="stroke: #000000; stroke-width: 0.8"/>
      </g>
     </g>
     <g id="text_11">
      <!-- 5 -->
      <g transform="translate(33.2775 192.625652) scale(0.1 -0.1)">
       <defs>
        <path id="DejaVuSans-35" d="M 691 4666 
L 3169 4666 
L 3169 4134 
L 1269 4134 
L 1269 2991 
Q 1406 3038 1543 3061 
Q 1681 3084 1819 3084 
Q 2600 3084 3056 2656 
Q 3513 2228 3513 1497 
Q 3513 744 3044 326 
Q 2575 -91 1722 -91 
Q 1428 -91 1123 -41 
Q 819 9 494 109 
L 494 744 
Q 775 591 1075 516 
Q 1375 441 1709 441 
Q 2250 441 2565 725 
Q 2881 1009 2881 1497 
Q 2881 1984 2565 2268 
Q 2250 2553 1709 2553 
Q 1456 2553 1204 2497 
Q 953 2441 691 2322 
L 691 4666 
z
" transform="scale(0.015625)"/>
       </defs>
       <use xlink:href="#DejaVuSans-35"/>
      </g>
     </g>
    </g>
    <g id="ytick_3">
     <g id="line2d_21">
      <path d="M 46.64 143.058321 
L 852.12 143.058321 
" clip-path="url(#p8df8c27a99)" style="fill: none; stroke: #b0b0b0; stroke-opacity: 0.25; stroke-width: 0.8; stroke-linecap: square"/>
     </g>
     <g id="line2d_22">
      <g>
       <use xlink:href="#me6299a6cff" x="46.64" y="143.058321" style="stroke: #000000; stroke-width: 0.8"/>
      </g>
     </g>
     <g id="text_12">
      <!-- 10 -->
      <g transform="translate(26.915 146.85754) scale(0.1 -0.1)">
       <use xlink:href="#DejaVuSans-31"/>
       <use xlink:href="#DejaVuSans-30" transform="translate(63.623047 0)"/>
      </g>
     </g>
    </g>
    <g id="ytick_4">
     <g id="line2d_23">
      <path d="M 46.64 97.290209 
L 852.12 97.290209 
" clip-path="url(#p8df8c27a99)" style="fill: none; stroke: #b0b0b0; stroke-opacity: 0.25; stroke-width: 0.8; stroke-linecap: square"/>
     </g>
     <g id="line2d_24">
      <g>
       <use xlink:href="#me6299a6cff" x="46.64" y="97.290209" style="stroke: #000000; stroke-width: 0.8"/>
      </g>
     </g>
     <g id="text_13">
      <!-- 15 -->
      <g transform="translate(26.915 101.089428) scale(0.1 -0.1)">
       <use xlink:href="#DejaVuSans-31"/>
       <use xlink:href="#DejaVuSans-35" transform="translate(63.623047 0)"/>
      </g>
     </g>
    </g>
    <g id="ytick_5">
     <g id="line2d_25">
      <path d="M 46.64 51.522097 
L 852.12 51.522097 
" clip-path="url(#p8df8c27a99)" style="fill: none; stroke: #b0b0b0; stroke-opacity: 0.25; stroke-width: 0.8; stroke-linecap: square"/>
     </g>
     <g id="line2d_26">
      <g>
       <use xlink:href="#me6299a6cff" x="46.64" y="51.522097" style="stroke: #000000; stroke-width: 0.8"/>
      </g>
     </g>
     <g id="text_14">
      <!-- 20 -->
      <g transform="translate(26.915 55.321316) scale(0.1 -0.1)">
       <use xlink:href="#DejaVuSans-32"/>
       <use xlink:href="#DejaVuSans-30" transform="translate(63.623047 0)"/>
      </g>
     </g>
    </g>
    <g id="text_15">
     <!-- Time (s) -->
     <g transform="translate(20.627344 158.101797) rotate(-90) scale(0.11 -0.11)">
      <defs>
       <path id="DejaVuSans-54" d="M -19 4666 
L 3928 4666 
L 3928 4134 
L 2272 4134 
L 2272 0 
L 1638 0 
L 1638 4134 
L -19 4134 
L -19 4666 
z
" transform="scale(0.015625)"/>
       <path id="DejaVuSans-69" d="M 603 3500 
L 1178 3500 
L 1178 0 
L 603 0 
L 603 3500 
z
M 603 4863 
L 1178 4863 
L 1178 4134 
L 603 4134 
L 603 4863 
z
" transform="scale(0.015625)"/>
       <path id="DejaVuSans-6d" d="M 3328 2828 
Q 3544 3216 3844 3400 
Q 4144 3584 4550 3584 
Q 5097 3584 5394 3201 
Q 5691 2819 5691 2113 
L 5691 0 
L 5113 0 
L 5113 2094 
Q 5113 2597 4934 2840 
Q 4756 3084 4391 3084 
Q 3944 3084 3684 2787 
Q 3425 2491 3425 1978 
L 3425 0 
L 2847 0 
L 2847 2094 
Q 2847 2600 2669 2842 
Q 2491 3084 2119 3084 
Q 1678 3084 1418 2786 
Q 1159 2488 1159 1978 
L 1159 0 
L 581 0 
L 581 3500 
L 1159 3500 
L 1159 2956 
Q 1356 3278 1631 3431 
Q 1906 3584 2284 3584 
Q 2666 3584 2933 3390 
Q 3200 3197 3328 2828 
z
" transform="scale(0.015625)"/>
       <path id="DejaVuSans-65" d="M 3597 1894 
L 3597 1613 
L 953 1613 
Q 991 1019 1311 708 
Q 1631 397 2203 397 
Q 2534 397 2845 478 
Q 3156 559 3463 722 
L 3463 178 
Q 3153 47 2828 -22 
Q 2503 -91 2169 -91 
Q 1331 -91 842 396 
Q 353 884 353 1716 
Q 353 2575 817 3079 
Q 1281 3584 2069 3584 
Q 2775 3584 3186 3129 
Q 3597 2675 3597 1894 
z
M 3022 2063 
Q 3016 2534 2758 2815 
Q 2500 3097 2075 3097 
Q 1594 3097 1305 2825 
Q 1016 2553 972 2059 
L 3022 2063 
z
" transform="scale(0.015625)"/>
       <path id="DejaVuSans-20" transform="scale(0.015625)"/>
       <path id="DejaVuSans-28" d="M 1984 4856 
Q 1566 4138 1362 3434 
Q 1159 2731 1159 2009 
Q 1159 1288 1364 580 
Q 1569 -128 1984 -844 
L 1484 -844 
Q 1016 -109 783 600 
Q 550 1309 550 2009 
Q 550 2706 781 3412 
Q 1013 4119 1484 4856 
L 1984 4856 
z
" transform="scale(0.015625)"/>
       <path id="DejaVuSans-73" d="M 2834 3397 
L 2834 2853 
Q 2591 2978 2328 3040 
Q 2066 3103 1784 3103 
Q 1356 3103 1142 2972 
Q 928 2841 928 2578 
Q 928 2378 1081 2264 
Q 1234 2150 1697 2047 
L 1894 2003 
Q 2506 1872 2764 1633 
Q 3022 1394 3022 966 
Q 3022 478 2636 193 
Q 2250 -91 1575 -91 
Q 1294 -91 989 -36 
Q 684 19 347 128 
L 347 722 
Q 666 556 975 473 
Q 1284 391 1588 391 
Q 1994 391 2212 530 
Q 2431 669 2431 922 
Q 2431 1156 2273 1281 
Q 2116 1406 1581 1522 
L 1381 1569 
Q 847 1681 609 1914 
Q 372 2147 372 2553 
Q 372 3047 722 3315 
Q 1072 3584 1716 3584 
Q 2034 3584 2315 3537 
Q 2597 3491 2834 3397 
z
" transform="scale(0.015625)"/>
       <path id="DejaVuSans-29" d="M 513 4856 
L 1013 4856 
Q 1481 4119 1714 3412 
Q 1947 2706 1947 2009 
Q 1947 1309 1714 600 
Q 1481 -109 1013 -844 
L 513 -844 
Q 928 -128 1133 580 
Q 1338 1288 1338 2009 
Q 1338 2731 1133 3434 
Q 928 4138 513 4856 
z
" transform="scale(0.015625)"/>
      </defs>
      <use xlink:href="#DejaVuSans-54"/>
      <use xlink:href="#DejaVuSans-69" transform="translate(57.958984 0)"/>
      <use xlink:href="#DejaVuSans-6d" transform="translate(85.742188 0)"/>
      <use xlink:href="#DejaVuSans-65" transform="translate(183.154297 0)"/>
      <use xlink:href="#DejaVuSans-20" transform="translate(244.677734 0)"/>
      <use xlink:href="#DejaVuSans-28" transform="translate(276.464844 0)"/>
      <use xlink:href="#DejaVuSans-73" transform="translate(315.478516 0)"/>
      <use xlink:href="#DejaVuSans-29" transform="translate(367.578125 0)"/>
     </g>
    </g>
   </g>
   <g id="patch_3">
    <path d="M 46.64 244.48 
L 46.64 27 
" style="fill: none; stroke: #000000; stroke-width: 0.8; stroke-linejoin: miter; stroke-linecap: square"/>
   </g>
   <g id="patch_4">
    <path d="M 852.12 244.48 
L 852.12 27 
" style="fill: none; stroke: #000000; stroke-width: 0.8; stroke-linejoin: miter; stroke-linecap: square"/>
   </g>
   <g id="patch_5">
    <path d="M 46.64 244.48 
L 852.12 244.48 
" style="fill: none; stroke: #000000; stroke-width: 0.8; stroke-linejoin: miter; stroke-linecap: square"/>
   </g>
   <g id="patch_6">
    <path d="M 46.64 27 
L 852.12 27 
" style="fill: none; stroke: #000000; stroke-width: 0.8; stroke-linejoin: miter; stroke-linecap: square"/>
   </g>
   <g id="text_16">
    <!-- SHA2 Chain  prove subphases (vanilla) -->
    <g transform="translate(327.050313 21) scale(0.12 -0.12)">
     <defs>
      <path id="DejaVuSans-53" d="M 3425 4513 
L 3425 3897 
Q 3066 4069 2747 4153 
Q 2428 4238 2131 4238 
Q 1616 4238 1336 4038 
Q 1056 3838 1056 3469 
Q 1056 3159 1242 3001 
Q 1428 2844 1947 2747 
L 2328 2669 
Q 3034 2534 3370 2195 
Q 3706 1856 3706 1288 
Q 3706 609 3251 259 
Q 2797 -91 1919 -91 
Q 1588 -91 1214 -16 
Q 841 59 441 206 
L 441 856 
Q 825 641 1194 531 
Q 1563 422 1919 422 
Q 2459 422 2753 634 
Q 3047 847 3047 1241 
Q 3047 1584 2836 1778 
Q 2625 1972 2144 2069 
L 1759 2144 
Q 1053 2284 737 2584 
Q 422 2884 422 3419 
Q 422 4038 858 4394 
Q 1294 4750 2059 4750 
Q 2388 4750 2728 4690 
Q 3069 4631 3425 4513 
z
" transform="scale(0.015625)"/>
      <path id="DejaVuSans-48" d="M 628 4666 
L 1259 4666 
L 1259 2753 
L 3553 2753 
L 3553 4666 
L 4184 4666 
L 4184 0 
L 3553 0 
L 3553 2222 
L 1259 2222 
L 1259 0 
L 628 0 
L 628 4666 
z
" transform="scale(0.015625)"/>
      <path id="DejaVuSans-41" d="M 2188 4044 
L 1331 1722 
L 3047 1722 
L 2188 4044 
z
M 1831 4666 
L 2547 4666 
L 4325 0 
L 3669 0 
L 3244 1197 
L 1141 1197 
L 716 0 
L 50 0 
L 1831 4666 
z
" transform="scale(0.015625)"/>
      <path id="DejaVuSans-43" d="M 4122 4306 
L 4122 3641 
Q 3803 3938 3442 4084 
Q 3081 4231 2675 4231 
Q 1875 4231 1450 3742 
Q 1025 3253 1025 2328 
Q 1025 1406 1450 917 
Q 1875 428 2675 428 
Q 3081 428 3442 575 
Q 3803 722 4122 1019 
L 4122 359 
Q 3791 134 3420 21 
Q 3050 -91 2638 -91 
Q 1578 -91 968 557 
Q 359 1206 359 2328 
Q 359 3453 968 4101 
Q 1578 4750 2638 4750 
Q 3056 4750 3426 4639 
Q 3797 4528 4122 4306 
z
" transform="scale(0.015625)"/>
      <path id="DejaVuSans-68" d="M 3513 2113 
L 3513 0 
L 2938 0 
L 2938 2094 
Q 2938 2591 2744 2837 
Q 2550 3084 2163 3084 
Q 1697 3084 1428 2787 
Q 1159 2491 1159 1978 
L 1159 0 
L 581 0 
L 581 4863 
L 1159 4863 
L 1159 2956 
Q 1366 3272 1645 3428 
Q 1925 3584 2291 3584 
Q 2894 3584 3203 3211 
Q 3513 2838 3513 2113 
z
" transform="scale(0.015625)"/>
      <path id="DejaVuSans-61" d="M 2194 1759 
Q 1497 1759 1228 1600 
Q 959 1441 959 1056 
Q 959 750 1161 570 
Q 1363 391 1709 391 
Q 2188 391 2477 730 
Q 2766 1069 2766 1631 
L 2766 1759 
L 2194 1759 
z
M 3341 1997 
L 3341 0 
L 2766 0 
L 2766 531 
Q 2569 213 2275 61 
Q 1981 -91 1556 -91 
Q 1019 -91 701 211 
Q 384 513 384 1019 
Q 384 1609 779 1909 
Q 1175 2209 1959 2209 
L 2766 2209 
L 2766 2266 
Q 2766 2663 2505 2880 
Q 2244 3097 1772 3097 
Q 1472 3097 1187 3025 
Q 903 2953 641 2809 
L 641 3341 
Q 956 3463 1253 3523 
Q 1550 3584 1831 3584 
Q 2591 3584 2966 3190 
Q 3341 2797 3341 1997 
z
" transform="scale(0.015625)"/>
      <path id="DejaVuSans-2014" d="M 313 1978 
L 6088 1978 
L 6088 1528 
L 313 1528 
L 313 1978 
z
" transform="scale(0.015625)"/>
      <path id="DejaVuSans-72" d="M 2631 2963 
Q 2534 3019 2420 3045 
Q 2306 3072 2169 3072 
Q 1681 3072 1420 2755 
Q 1159 2438 1159 1844 
L 1159 0 
L 581 0 
L 581 3500 
L 1159 3500 
L 1159 2956 
Q 1341 3275 1631 3429 
Q 1922 3584 2338 3584 
Q 2397 3584 2469 3576 
Q 2541 3569 2628 3553 
L 2631 2963 
z
" transform="scale(0.015625)"/>
      <path id="DejaVuSans-6f" d="M 1959 3097 
Q 1497 3097 1228 2736 
Q 959 2375 959 1747 
Q 959 1119 1226 758 
Q 1494 397 1959 397 
Q 2419 397 2687 759 
Q 2956 1122 2956 1747 
Q 2956 2369 2687 2733 
Q 2419 3097 1959 3097 
z
M 1959 3584 
Q 2709 3584 3137 3096 
Q 3566 2609 3566 1747 
Q 3566 888 3137 398 
Q 2709 -91 1959 -91 
Q 1206 -91 779 398 
Q 353 888 353 1747 
Q 353 2609 779 3096 
Q 1206 3584 1959 3584 
z
" transform="scale(0.015625)"/>
      <path id="DejaVuSans-76" d="M 191 3500 
L 800 3500 
L 1894 563 
L 2988 3500 
L 3597 3500 
L 2284 0 
L 1503 0 
L 191 3500 
z
" transform="scale(0.015625)"/>
      <path id="DejaVuSans-62" d="M 3116 1747 
Q 3116 2381 2855 2742 
Q 2594 3103 2138 3103 
Q 1681 3103 1420 2742 
Q 1159 2381 1159 1747 
Q 1159 1113 1420 752 
Q 1681 391 2138 391 
Q 2594 391 2855 752 
Q 3116 1113 3116 1747 
z
M 1159 2969 
Q 1341 3281 1617 3432 
Q 1894 3584 2278 3584 
Q 2916 3584 3314 3078 
Q 3713 2572 3713 1747 
Q 3713 922 3314 415 
Q 2916 -91 2278 -91 
Q 1894 -91 1617 61 
Q 1341 213 1159 525 
L 1159 0 
L 581 0 
L 581 4863 
L 1159 4863 
L 1159 2969 
z
" transform="scale(0.015625)"/>
      <path id="DejaVuSans-6c" d="M 603 4863 
L 1178 4863 
L 1178 0 
L 603 0 
L 603 4863 
z
" transform="scale(0.015625)"/>
     </defs>
     <use xlink:href="#DejaVuSans-53"/>
     <use xlink:href="#DejaVuSans-48" transform="translate(63.476562 0)"/>
     <use xlink:href="#DejaVuSans-41" transform="translate(138.671875 0)"/>
     <use xlink:href="#DejaVuSans-32" transform="translate(207.080078 0)"/>
     <use xlink:href="#DejaVuSans-20" transform="translate(270.703125 0)"/>
     <use xlink:href="#DejaVuSans-43" transform="translate(302.490234 0)"/>
     <use xlink:href="#DejaVuSans-68" transform="translate(372.314453 0)"/>
     <use xlink:href="#DejaVuSans-61" transform="translate(435.693359 0)"/>
     <use xlink:href="#DejaVuSans-69" transform="translate(496.972656 0)"/>
     <use xlink:href="#DejaVuSans-6e" transform="translate(524.755859 0)"/>
     <use xlink:href="#DejaVuSans-20" transform="translate(588.134766 0)"/>
     <use xlink:href="#DejaVuSans-2014" transform="translate(619.921875 0)"/>
     <use xlink:href="#DejaVuSans-20" transform="translate(719.921875 0)"/>
     <use xlink:href="#DejaVuSans-70" transform="translate(751.708984 0)"/>
     <use xlink:href="#DejaVuSans-72" transform="translate(815.185547 0)"/>
     <use xlink:href="#DejaVuSans-6f" transform="translate(854.048828 0)"/>
     <use xlink:href="#DejaVuSans-76" transform="translate(915.230469 0)"/>
     <use xlink:href="#DejaVuSans-65" transform="translate(974.410156 0)"/>
     <use xlink:href="#DejaVuSans-20" transform="translate(1035.933594 0)"/>
     <use xlink:href="#DejaVuSans-73" transform="translate(1067.720703 0)"/>
     <use xlink:href="#DejaVuSans-75" transform="translate(1119.820312 0)"/>
     <use xlink:href="#DejaVuSans-62" transform="translate(1183.199219 0)"/>
     <use xlink:href="#DejaVuSans-70" transform="translate(1246.675781 0)"/>
     <use xlink:href="#DejaVuSans-68" transform="translate(1310.152344 0)"/>
     <use xlink:href="#DejaVuSans-61" transform="translate(1373.53125 0)"/>
     <use xlink:href="#DejaVuSans-73" transform="translate(1434.810547 0)"/>
     <use xlink:href="#DejaVuSans-65" transform="translate(1486.910156 0)"/>
     <use xlink:href="#DejaVuSans-73" transform="translate(1548.433594 0)"/>
     <use xlink:href="#DejaVuSans-20" transform="translate(1600.533203 0)"/>
     <use xlink:href="#DejaVuSans-28" transform="translate(1632.320312 0)"/>
     <use xlink:href="#DejaVuSans-76" transform="translate(1671.333984 0)"/>
     <use xlink:href="#DejaVuSans-61" transform="translate(1730.513672 0)"/>
     <use xlink:href="#DejaVuSans-6e" transform="translate(1791.792969 0)"/>
     <use xlink:href="#DejaVuSans-69" transform="translate(1855.171875 0)"/>
     <use xlink:href="#DejaVuSans-6c" transform="translate(1882.955078 0)"/>
     <use xlink:href="#DejaVuSans-6c" transform="translate(1910.738281 0)"/>
     <use xlink:href="#DejaVuSans-61" transform="translate(1938.521484 0)"/>
     <use xlink:href="#DejaVuSans-29" transform="translate(1999.800781 0)"/>
    </g>
   </g>
   <g id="legend_1">
    <g id="patch_7">
     <path d="M 55.64 43.598438 
L 75.64 43.598438 
L 75.64 36.598438 
L 55.64 36.598438 
z
" style="fill: #1f77b4; fill-opacity: 0.7"/>
    </g>
    <g id="text_17">
     <!-- bytecode -->
     <g transform="translate(83.64 43.598438) scale(0.1 -0.1)">
      <defs>
       <path id="DejaVuSans-79" d="M 2059 -325 
Q 1816 -950 1584 -1140 
Q 1353 -1331 966 -1331 
L 506 -1331 
L 506 -850 
L 844 -850 
Q 1081 -850 1212 -737 
Q 1344 -625 1503 -206 
L 1606 56 
L 191 3500 
L 800 3500 
L 1894 763 
L 2988 3500 
L 3597 3500 
L 2059 -325 
z
" transform="scale(0.015625)"/>
       <path id="DejaVuSans-63" d="M 3122 3366 
L 3122 2828 
Q 2878 2963 2633 3030 
Q 2388 3097 2138 3097 
Q 1578 3097 1268 2742 
Q 959 2388 959 1747 
Q 959 1106 1268 751 
Q 1578 397 2138 397 
Q 2388 397 2633 464 
Q 2878 531 3122 666 
L 3122 134 
Q 2881 22 2623 -34 
Q 2366 -91 2075 -91 
Q 1284 -91 818 406 
Q 353 903 353 1747 
Q 353 2603 823 3093 
Q 1294 3584 2113 3584 
Q 2378 3584 2631 3529 
Q 2884 3475 3122 3366 
z
" transform="scale(0.015625)"/>
       <path id="DejaVuSans-64" d="M 2906 2969 
L 2906 4863 
L 3481 4863 
L 3481 0 
L 2906 0 
L 2906 525 
Q 2725 213 2448 61 
Q 2172 -91 1784 -91 
Q 1150 -91 751 415 
Q 353 922 353 1747 
Q 353 2572 751 3078 
Q 1150 3584 1784 3584 
Q 2172 3584 2448 3432 
Q 2725 3281 2906 2969 
z
M 947 1747 
Q 947 1113 1208 752 
Q 1469 391 1925 391 
Q 2381 391 2643 752 
Q 2906 1113 2906 1747 
Q 2906 2381 2643 2742 
Q 2381 3103 1925 3103 
Q 1469 3103 1208 2742 
Q 947 2381 947 1747 
z
" transform="scale(0.015625)"/>
      </defs>
      <use xlink:href="#DejaVuSans-62"/>
      <use xlink:href="#DejaVuSans-79" transform="translate(63.476562 0)"/>
      <use xlink:href="#DejaVuSans-74" transform="translate(122.65625 0)"/>
      <use xlink:href="#DejaVuSans-65" transform="translate(161.865234 0)"/>
      <use xlink:href="#DejaVuSans-63" transform="translate(223.388672 0)"/>
      <use xlink:href="#DejaVuSans-6f" transform="translate(278.369141 0)"/>
      <use xlink:href="#DejaVuSans-64" transform="translate(339.550781 0)"/>
      <use xlink:href="#DejaVuSans-65" transform="translate(403.027344 0)"/>
     </g>
    </g>
    <g id="patch_8">
     <path d="M 55.64 58.276563 
L 75.64 58.276563 
L 75.64 51.276563 
L 55.64 51.276563 
z
" style="fill: #ff7f0e; fill-opacity: 0.7"/>
    </g>
    <g id="text_18">
     <!-- commit -->
     <g transform="translate(83.64 58.276563) scale(0.1 -0.1)">
      <use xlink:href="#DejaVuSans-63"/>
      <use xlink:href="#DejaVuSans-6f" transform="translate(54.980469 0)"/>
      <use xlink:href="#DejaVuSans-6d" transform="translate(116.162109 0)"/>
      <use xlink:href="#DejaVuSans-6d" transform="translate(213.574219 0)"/>
      <use xlink:href="#DejaVuSans-69" transform="translate(310.986328 0)"/>
      <use xlink:href="#DejaVuSans-74" transform="translate(338.769531 0)"/>
     </g>
    </g>
    <g id="patch_9">
     <path d="M 55.64 72.954688 
L 75.64 72.954688 
L 75.64 65.954688 
L 55.64 65.954688 
z
" style="fill: #2ca02c; fill-opacity: 0.7"/>
    </g>
    <g id="text_19">
     <!-- il -->
     <g transform="translate(83.64 72.954688) scale(0.1 -0.1)">
      <use xlink:href="#DejaVuSans-69"/>
      <use xlink:href="#DejaVuSans-6c" transform="translate(27.783203 0)"/>
     </g>
    </g>
    <g id="patch_10">
     <path d="M 55.64 87.632813 
L 75.64 87.632813 
L 75.64 80.632813 
L 55.64 80.632813 
z
" style="fill: #d62728; fill-opacity: 0.7"/>
    </g>
    <g id="text_20">
     <!-- il_wit -->
     <g transform="translate(83.64 87.632813) scale(0.1 -0.1)">
      <defs>
       <path id="DejaVuSans-5f" d="M 3263 -1063 
L 3263 -1509 
L -63 -1509 
L -63 -1063 
L 3263 -1063 
z
" transform="scale(0.015625)"/>
       <path id="DejaVuSans-77" d="M 269 3500 
L 844 3500 
L 1563 769 
L 2278 3500 
L 2956 3500 
L 3675 769 
L 4391 3500 
L 4966 3500 
L 4050 0 
L 3372 0 
L 2619 2869 
L 1863 0 
L 1184 0 
L 269 3500 
z
" transform="scale(0.015625)"/>
      </defs>
      <use xlink:href="#DejaVuSans-69"/>
      <use xlink:href="#DejaVuSans-6c" transform="translate(27.783203 0)"/>
      <use xlink:href="#DejaVuSans-5f" transform="translate(55.566406 0)"/>
      <use xlink:href="#DejaVuSans-77" transform="translate(105.566406 0)"/>
      <use xlink:href="#DejaVuSans-69" transform="translate(187.353516 0)"/>
      <use xlink:href="#DejaVuSans-74" transform="translate(215.136719 0)"/>
     </g>
    </g>
    <g id="patch_11">
     <path d="M 150.099375 43.598438 
L 170.099375 43.598438 
L 170.099375 36.598438 
L 150.099375 36.598438 
z
" style="fill: #9467bd; fill-opacity: 0.7"/>
    </g>
    <g id="text_21">
     <!-- openings -->
     <g transform="translate(178.099375 43.598438) scale(0.1 -0.1)">
      <defs>
       <path id="DejaVuSans-67" d="M 2906 1791 
Q 2906 2416 2648 2759 
Q 2391 3103 1925 3103 
Q 1463 3103 1205 2759 
Q 947 2416 947 1791 
Q 947 1169 1205 825 
Q 1463 481 1925 481 
Q 2391 481 2648 825 
Q 2906 1169 2906 1791 
z
M 3481 434 
Q 3481 -459 3084 -895 
Q 2688 -1331 1869 -1331 
Q 1566 -1331 1297 -1286 
Q 1028 -1241 775 -1147 
L 775 -588 
Q 1028 -725 1275 -790 
Q 1522 -856 1778 -856 
Q 2344 -856 2625 -561 
Q 2906 -266 2906 331 
L 2906 616 
Q 2728 306 2450 153 
Q 2172 0 1784 0 
Q 1141 0 747 490 
Q 353 981 353 1791 
Q 353 2603 747 3093 
Q 1141 3584 1784 3584 
Q 2172 3584 2450 3431 
Q 2728 3278 2906 2969 
L 2906 3500 
L 3481 3500 
L 3481 434 
z
" transform="scale(0.015625)"/>
      </defs>
      <use xlink:href="#DejaVuSans-6f"/>
      <use xlink:href="#DejaVuSans-70" transform="translate(61.181641 0)"/>
      <use xlink:href="#DejaVuSans-65" transform="translate(124.658203 0)"/>
      <use xlink:href="#DejaVuSans-6e" transform="translate(186.181641 0)"/>
      <use xlink:href="#DejaVuSans-69" transform="translate(249.560547 0)"/>
      <use xlink:href="#DejaVuSans-6e" transform="translate(277.34375 0)"/>
      <use xlink:href="#DejaVuSans-67" transform="translate(340.722656 0)"/>
      <use xlink:href="#DejaVuSans-73" transform="translate(404.199219 0)"/>
     </g>
    </g>
    <g id="patch_12">
     <path d="M 150.099375 58.276563 
L 170.099375 58.276563 
L 170.099375 51.276563 
L 150.099375 51.276563 
z
" style="fill: #8c564b; fill-opacity: 0.7"/>
    </g>
    <g id="text_22">
     <!-- preamble -->
     <g transform="translate(178.099375 58.276563) scale(0.1 -0.1)">
      <use xlink:href="#DejaVuSans-70"/>
      <use xlink:href="#DejaVuSans-72" transform="translate(63.476562 0)"/>
      <use xlink:href="#DejaVuSans-65" transform="translate(102.339844 0)"/>
      <use xlink:href="#DejaVuSans-61" transform="translate(163.863281 0)"/>
      <use xlink:href="#DejaVuSans-6d" transform="translate(225.142578 0)"/>
      <use xlink:href="#DejaVuSans-62" transform="translate(322.554688 0)"/>
      <use xlink:href="#DejaVuSans-6c" transform="translate(386.03125 0)"/>
      <use xlink:href="#DejaVuSans-65" transform="translate(413.814453 0)"/>
     </g>
    </g>
    <g id="patch_13">
     <path d="M 150.099375 72.954688 
L 170.099375 72.954688 
L 170.099375 65.954688 
L 150.099375 65.954688 
z
" style="fill: #e377c2; fill-opacity: 0.7"/>
    </g>
    <g id="text_23">
     <!-- r1cs_aux -->
     <g transform="translate(178.099375 72.954688) scale(0.1 -0.1)">
      <defs>
       <path id="DejaVuSans-78" d="M 3513 3500 
L 2247 1797 
L 3578 0 
L 2900 0 
L 1881 1375 
L 863 0 
L 184 0 
L 1544 1831 
L 300 3500 
L 978 3500 
L 1906 2253 
L 2834 3500 
L 3513 3500 
z
" transform="scale(0.015625)"/>
      </defs>
      <use xlink:href="#DejaVuSans-72"/>
      <use xlink:href="#DejaVuSans-31" transform="translate(41.113281 0)"/>
      <use xlink:href="#DejaVuSans-63" transform="translate(104.736328 0)"/>
      <use xlink:href="#DejaVuSans-73" transform="translate(159.716797 0)"/>
      <use xlink:href="#DejaVuSans-5f" transform="translate(211.816406 0)"/>
      <use xlink:href="#DejaVuSans-61" transform="translate(261.816406 0)"/>
      <use xlink:href="#DejaVuSans-75" transform="translate(323.095703 0)"/>
      <use xlink:href="#DejaVuSans-78" transform="translate(386.474609 0)"/>
     </g>
    </g>
    <g id="patch_14">
     <path d="M 245.635313 43.598438 
L 265.635313 43.598438 
L 265.635313 36.598438 
L 245.635313 36.598438 
z
" style="fill: #7f7f7f; fill-opacity: 0.7"/>
    </g>
    <g id="text_24">
     <!-- r1cs_polys -->
     <g transform="translate(273.635313 43.598438) scale(0.1 -0.1)">
      <use xlink:href="#DejaVuSans-72"/>
      <use xlink:href="#DejaVuSans-31" transform="translate(41.113281 0)"/>
      <use xlink:href="#DejaVuSans-63" transform="translate(104.736328 0)"/>
      <use xlink:href="#DejaVuSans-73" transform="translate(159.716797 0)"/>
      <use xlink:href="#DejaVuSans-5f" transform="translate(211.816406 0)"/>
      <use xlink:href="#DejaVuSans-70" transform="translate(261.816406 0)"/>
      <use xlink:href="#DejaVuSans-6f" transform="translate(325.292969 0)"/>
      <use xlink:href="#DejaVuSans-6c" transform="translate(386.474609 0)"/>
      <use xlink:href="#DejaVuSans-79" transform="translate(414.257812 0)"/>
      <use xlink:href="#DejaVuSans-73" transform="translate(473.4375 0)"/>
     </g>
    </g>
    <g id="patch_15">
     <path d="M 245.635313 58.554688 
L 265.635313 58.554688 
L 265.635313 51.554688 
L 245.635313 51.554688 
z
" style="fill: #bcbd22; fill-opacity: 0.7"/>
    </g>
    <g id="text_25">
     <!-- r1cs_setup -->
     <g transform="translate(273.635313 58.554688) scale(0.1 -0.1)">
      <use xlink:href="#DejaVuSans-72"/>
      <use xlink:href="#DejaVuSans-31" transform="translate(41.113281 0)"/>
      <use xlink:href="#DejaVuSans-63" transform="translate(104.736328 0)"/>
      <use xlink:href="#DejaVuSans-73" transform="translate(159.716797 0)"/>
      <use xlink:href="#DejaVuSans-5f" transform="translate(211.816406 0)"/>
      <use xlink:href="#DejaVuSans-73" transform="translate(261.816406 0)"/>
      <use xlink:href="#DejaVuSans-65" transform="translate(313.916016 0)"/>
      <use xlink:href="#DejaVuSans-74" transform="translate(375.439453 0)"/>
      <use xlink:href="#DejaVuSans-75" transform="translate(414.648438 0)"/>
      <use xlink:href="#DejaVuSans-70" transform="translate(478.027344 0)"/>
     </g>
    </g>
    <g id="patch_16">
     <path d="M 245.635313 73.510938 
L 265.635313 73.510938 
L 265.635313 66.510938 
L 245.635313 66.510938 
z
" style="fill: #17becf; fill-opacity: 0.7"/>
    </g>
    <g id="text_26">
     <!-- rwm -->
     <g transform="translate(273.635313 73.510938) scale(0.1 -0.1)">
      <use xlink:href="#DejaVuSans-72"/>
      <use xlink:href="#DejaVuSans-77" transform="translate(41.113281 0)"/>
      <use xlink:href="#DejaVuSans-6d" transform="translate(122.900391 0)"/>
     </g>
    </g>
    <g id="patch_17">
     <path d="M 347.785313 43.598438 
L 367.785313 43.598438 
L 367.785313 36.598438 
L 347.785313 36.598438 
z
" style="fill: #1f77b4; fill-opacity: 0.7"/>
    </g>
    <g id="text_27">
     <!-- rwm_wit -->
     <g transform="translate(375.785313 43.598438) scale(0.1 -0.1)">
      <use xlink:href="#DejaVuSans-72"/>
      <use xlink:href="#DejaVuSans-77" transform="translate(41.113281 0)"/>
      <use xlink:href="#DejaVuSans-6d" transform="translate(122.900391 0)"/>
      <use xlink:href="#DejaVuSans-5f" transform="translate(220.3125 0)"/>
      <use xlink:href="#DejaVuSans-77" transform="translate(270.3125 0)"/>
      <use xlink:href="#DejaVuSans-69" transform="translate(352.099609 0)"/>
      <use xlink:href="#DejaVuSans-74" transform="translate(379.882812 0)"/>
     </g>
    </g>
    <g id="patch_18">
     <path d="M 347.785313 58.554688 
L 367.785313 58.554688 
L 367.785313 51.554688 
L 347.785313 51.554688 
z
" style="fill: #ff7f0e; fill-opacity: 0.7"/>
    </g>
    <g id="text_28">
     <!-- spartan -->
     <g transform="translate(375.785313 58.554688) scale(0.1 -0.1)">
      <use xlink:href="#DejaVuSans-73"/>
      <use xlink:href="#DejaVuSans-70" transform="translate(52.099609 0)"/>
      <use xlink:href="#DejaVuSans-61" transform="translate(115.576172 0)"/>
      <use xlink:href="#DejaVuSans-72" transform="translate(176.855469 0)"/>
      <use xlink:href="#DejaVuSans-74" transform="translate(217.96875 0)"/>
      <use xlink:href="#DejaVuSans-61" transform="translate(257.177734 0)"/>
      <use xlink:href="#DejaVuSans-6e" transform="translate(318.457031 0)"/>
     </g>
    </g>
    <g id="patch_19">
     <path d="M 347.785313 73.232813 
L 367.785313 73.232813 
L 367.785313 66.232813 
L 347.785313 66.232813 
z
" style="fill: #2ca02c; fill-opacity: 0.7"/>
    </g>
    <g id="text_29">
     <!-- wit_join -->
     <g transform="translate(375.785313 73.232813) scale(0.1 -0.1)">
      <defs>
       <path id="DejaVuSans-6a" d="M 603 3500 
L 1178 3500 
L 1178 -63 
Q 1178 -731 923 -1031 
Q 669 -1331 103 -1331 
L -116 -1331 
L -116 -844 
L 38 -844 
Q 366 -844 484 -692 
Q 603 -541 603 -63 
L 603 3500 
z
M 603 4863 
L 1178 4863 
L 1178 4134 
L 603 4134 
L 603 4863 
z
" transform="scale(0.015625)"/>
      </defs>
      <use xlink:href="#DejaVuSans-77"/>
      <use xlink:href="#DejaVuSans-69" transform="translate(81.787109 0)"/>
      <use xlink:href="#DejaVuSans-74" transform="translate(109.570312 0)"/>
      <use xlink:href="#DejaVuSans-5f" transform="translate(148.779297 0)"/>
      <use xlink:href="#DejaVuSans-6a" transform="translate(198.779297 0)"/>
      <use xlink:href="#DejaVuSans-6f" transform="translate(226.5625 0)"/>
      <use xlink:href="#DejaVuSans-69" transform="translate(287.744141 0)"/>
      <use xlink:href="#DejaVuSans-6e" transform="translate(315.527344 0)"/>
     </g>
    </g>
   </g>
  </g>
 </g>
 <defs>
  <clipPath id="p8df8c27a99">
   <rect x="46.64" y="27" width="805.48" height="217.48"/>
  </clipPath>
 </defs>
</svg>
