<?xml version="1.0" encoding="utf-8" standalone="no"?>
<!DOCTYPE svg PUBLIC "-//W3C//DTD SVG 1.1//EN"
  "http://www.w3.org/Graphics/SVG/1.1/DTD/svg11.dtd">
<svg xmlns:xlink="http://www.w3.org/1999/xlink" width="864pt" height="288pt" viewBox="0 0 864 288" xmlns="http://www.w3.org/2000/svg" version="1.1">
 <metadata>
  <rdf:RDF xmlns:dc="http://purl.org/dc/elements/1.1/" xmlns:cc="http://creativecommons.org/ns#" xmlns:rdf="http://www.w3.org/1999/02/22-rdf-syntax-ns#">
   <cc:Work>
    <dc:type rdf:resource="http://purl.org/dc/dcmitype/StillImage"/>
    <dc:date>2025-09-07T14:35:41.100714</dc:date>
    <dc:format>image/svg+xml</dc:format>
    <dc:creator>
     <cc:Agent>
      <dc:title>Matplotlib v3.10.6, https://matplotlib.org/</dc:title>
     </cc:Agent>
    </dc:creator>
   </cc:Work>
  </rdf:RDF>
 </metadata>
 <defs>
  <style type="text/css">*{stroke-linejoin: round; stroke-linecap: butt}</style>
 </defs>
 <g id="figure_1">
  <g id="patch_1">
   <path d="M 0 288 
L 864 288 
L 864 0 
L 0 0 
z
" style="fill: #ffffff"/>
  </g>
  <g id="axes_1">
   <g id="patch_2">
    <path d="M 62.54 244.48 
L 852.12 244.48 
L 852.12 27 
L 62.54 27 
z
" style="fill: #ffffff"/>
   </g>
   <g id="FillBetweenPolyCollection_1">
    <path d="M 98.43 221.83912 
L 98.43 234.594545 
L 98.458713 234.594545 
L 98.487426 234.594545 
L 98.516139 234.594545 
L 98.544853 234.594545 
L 98.573566 234.594545 
L 98.602279 234.594545 
L 98.630992 234.594545 
L 98.659705 234.594545 
L 98.688418 234.594545 
L 98.717131 234.594545 
L 98.745845 234.594545 
L 98.774558 234.594545 
L 98.803271 234.594545 
L 98.831984 234.594545 
L 98.860697 234.594545 
L 98.88941 234.594545 
L 98.918124 234.594545 
L 98.946837 234.594545 
L 98.97555 234.594545 
L 99.004263 234.594545 
L 99.032976 234.594545 
L 99.061689 234.594545 
L 99.090402 234.594545 
L 99.119116 234.594545 
L 99.147829 234.594545 
L 99.176542 234.594545 
L 99.205255 234.594545 
L 99.233968 234.594545 
L 99.262681 234.594545 
L 99.291394 234.594545 
L 99.320108 234.594545 
L 99.348821 234.594545 
L 99.377534 234.594545 
L 99.406247 234.594545 
L 99.43496 234.594545 
L 99.463673 234.594545 
L 99.492386 234.594545 
L 99.5211 234.594545 
L 99.549813 234.594545 
L 99.578526 234.594545 
L 99.607239 234.594545 
L 99.635952 234.594545 
L 99.664665 234.594545 
L 99.693379 234.594545 
L 99.722092 234.594545 
L 99.750805 234.594545 
L 99.779518 234.594545 
L 99.808231 234.594545 
L 99.836944 234.594545 
L 99.894371 234.594545 
L 99.951797 234.594545 
L 100.009223 234.594545 
L 100.066649 234.594545 
L 100.124076 234.594545 
L 100.181502 234.594545 
L 100.238928 234.594545 
L 100.296355 234.594545 
L 100.353781 234.594545 
L 100.411207 234.594545 
L 100.468634 234.594545 
L 100.52606 234.594545 
L 100.583486 234.594545 
L 100.640912 234.594545 
L 100.698339 234.594545 
L 100.755765 234.594545 
L 100.813191 234.594545 
L 100.870618 234.594545 
L 100.928044 234.594545 
L 100.98547 234.594545 
L 101.042897 234.594545 
L 101.100323 234.594545 
L 101.157749 234.594545 
L 101.215175 234.594545 
L 101.272602 234.594545 
L 101.416167 234.594545 
L 101.559733 234.594545 
L 101.703299 234.594545 
L 101.846865 234.594545 
L 101.99043 234.594545 
L 102.133996 234.594545 
L 102.277562 234.594545 
L 102.421128 234.594545 
L 102.564693 234.594545 
L 102.708259 234.594545 
L 102.851825 234.594545 
L 102.995391 234.594545 
L 103.138956 234.594545 
L 103.282522 234.594545 
L 103.426088 234.594545 
L 103.569654 234.594545 
L 103.713219 234.594545 
L 103.856785 234.594545 
L 104.000351 234.594545 
L 104.143917 234.594545 
L 104.431048 234.594545 
L 104.71818 234.594545 
L 105.005311 234.594545 
L 105.292442 234.594545 
L 105.579574 234.594545 
L 112.757861 234.594545 
L 119.936148 234.594545 
L 127.114435 234.594545 
L 155.827584 234.594545 
L 184.540732 234.594545 
L 213.253881 234.594545 
L 241.967029 234.594545 
L 270.680178 234.594545 
L 299.393327 234.594545 
L 328.106475 234.594545 
L 356.819624 234.594545 
L 385.532772 234.594545 
L 457.315643 234.594545 
L 529.098515 234.594545 
L 600.881386 234.594545 
L 672.664257 234.594545 
L 816.23 234.594545 
L 816.23 221.83912 
L 816.23 221.83912 
L 672.664257 221.83912 
L 600.881386 221.83912 
L 529.098515 221.83912 
L 457.315643 221.83912 
L 385.532772 221.83912 
L 356.819624 221.83912 
L 328.106475 221.83912 
L 299.393327 221.83912 
L 270.680178 221.83912 
L 241.967029 221.83912 
L 213.253881 221.83912 
L 184.540732 221.83912 
L 155.827584 221.83912 
L 127.114435 221.83912 
L 119.936148 221.83912 
L 112.757861 221.83912 
L 105.579574 221.83912 
L 105.292442 221.83912 
L 105.005311 221.83912 
L 104.71818 221.83912 
L 104.431048 221.83912 
L 104.143917 221.83912 
L 104.000351 221.83912 
L 103.856785 221.83912 
L 103.713219 221.83912 
L 103.569654 221.83912 
L 103.426088 221.83912 
L 103.282522 221.83912 
L 103.138956 221.83912 
L 102.995391 221.83912 
L 102.851825 221.83912 
L 102.708259 221.83912 
L 102.564693 221.83912 
L 102.421128 221.83912 
L 102.277562 221.83912 
L 102.133996 221.83912 
L 101.99043 221.83912 
L 101.846865 221.83912 
L 101.703299 221.83912 
L 101.559733 221.83912 
L 101.416167 221.83912 
L 101.272602 221.83912 
L 101.215175 221.83912 
L 101.157749 221.83912 
L 101.100323 221.83912 
L 101.042897 221.83912 
L 100.98547 221.83912 
L 100.928044 221.83912 
L 100.870618 221.83912 
L 100.813191 221.83912 
L 100.755765 221.83912 
L 100.698339 221.83912 
L 100.640912 221.83912 
L 100.583486 221.83912 
L 100.52606 221.83912 
L 100.468634 221.83912 
L 100.411207 221.83912 
L 100.353781 221.83912 
L 100.296355 221.83912 
L 100.238928 221.83912 
L 100.181502 221.83912 
L 100.124076 221.83912 
L 100.066649 221.83912 
L 100.009223 221.83912 
L 99.951797 221.83912 
L 99.894371 221.83912 
L 99.836944 221.83912 
L 99.808231 221.83912 
L 99.779518 221.83912 
L 99.750805 221.83912 
L 99.722092 221.83912 
L 99.693379 221.83912 
L 99.664665 221.83912 
L 99.635952 221.83912 
L 99.607239 221.83912 
L 99.578526 221.83912 
L 99.549813 221.83912 
L 99.5211 221.83912 
L 99.492386 221.83912 
L 99.463673 221.83912 
L 99.43496 221.83912 
L 99.406247 221.83912 
L 99.377534 221.83912 
L 99.348821 221.83912 
L 99.320108 221.83912 
L 99.291394 221.83912 
L 99.262681 221.83912 
L 99.233968 221.83912 
L 99.205255 221.83912 
L 99.176542 221.83912 
L 99.147829 221.83912 
L 99.119116 221.83912 
L 99.090402 221.83912 
L 99.061689 221.83912 
L 99.032976 221.83912 
L 99.004263 221.83912 
L 98.97555 221.83912 
L 98.946837 221.83912 
L 98.918124 221.83912 
L 98.88941 221.83912 
L 98.860697 221.83912 
L 98.831984 221.83912 
L 98.803271 221.83912 
L 98.774558 221.83912 
L 98.745845 221.83912 
L 98.717131 221.83912 
L 98.688418 221.83912 
L 98.659705 221.83912 
L 98.630992 221.83912 
L 98.602279 221.83912 
L 98.573566 221.83912 
L 98.544853 221.83912 
L 98.516139 221.83912 
L 98.487426 221.83912 
L 98.458713 221.83912 
L 98.43 221.83912 
z
" clip-path="url(#pa75d1cf6a2)" style="fill: #1f77b4; fill-opacity: 0.7"/>
   </g>
   <g id="FillBetweenPolyCollection_2">
    <path d="M 98.43 126.173431 
L 98.43 221.83912 
L 98.458713 221.83912 
L 98.487426 221.83912 
L 98.516139 221.83912 
L 98.544853 221.83912 
L 98.573566 221.83912 
L 98.602279 221.83912 
L 98.630992 221.83912 
L 98.659705 221.83912 
L 98.688418 221.83912 
L 98.717131 221.83912 
L 98.745845 221.83912 
L 98.774558 221.83912 
L 98.803271 221.83912 
L 98.831984 221.83912 
L 98.860697 221.83912 
L 98.88941 221.83912 
L 98.918124 221.83912 
L 98.946837 221.83912 
L 98.97555 221.83912 
L 99.004263 221.83912 
L 99.032976 221.83912 
L 99.061689 221.83912 
L 99.090402 221.83912 
L 99.119116 221.83912 
L 99.147829 221.83912 
L 99.176542 221.83912 
L 99.205255 221.83912 
L 99.233968 221.83912 
L 99.262681 221.83912 
L 99.291394 221.83912 
L 99.320108 221.83912 
L 99.348821 221.83912 
L 99.377534 221.83912 
L 99.406247 221.83912 
L 99.43496 221.83912 
L 99.463673 221.83912 
L 99.492386 221.83912 
L 99.5211 221.83912 
L 99.549813 221.83912 
L 99.578526 221.83912 
L 99.607239 221.83912 
L 99.635952 221.83912 
L 99.664665 221.83912 
L 99.693379 221.83912 
L 99.722092 221.83912 
L 99.750805 221.83912 
L 99.779518 221.83912 
L 99.808231 221.83912 
L 99.836944 221.83912 
L 99.894371 221.83912 
L 99.951797 221.83912 
L 100.009223 221.83912 
L 100.066649 221.83912 
L 100.124076 221.83912 
L 100.181502 221.83912 
L 100.238928 221.83912 
L 100.296355 221.83912 
L 100.353781 221.83912 
L 100.411207 221.83912 
L 100.468634 221.83912 
L 100.52606 221.83912 
L 100.583486 221.83912 
L 100.640912 221.83912 
L 100.698339 221.83912 
L 100.755765 221.83912 
L 100.813191 221.83912 
L 100.870618 221.83912 
L 100.928044 221.83912 
L 100.98547 221.83912 
L 101.042897 221.83912 
L 101.100323 221.83912 
L 101.157749 221.83912 
L 101.215175 221.83912 
L 101.272602 221.83912 
L 101.416167 221.83912 
L 101.559733 221.83912 
L 101.703299 221.83912 
L 101.846865 221.83912 
L 101.99043 221.83912 
L 102.133996 221.83912 
L 102.277562 221.83912 
L 102.421128 221.83912 
L 102.564693 221.83912 
L 102.708259 221.83912 
L 102.851825 221.83912 
L 102.995391 221.83912 
L 103.138956 221.83912 
L 103.282522 221.83912 
L 103.426088 221.83912 
L 103.569654 221.83912 
L 103.713219 221.83912 
L 103.856785 221.83912 
L 104.000351 221.83912 
L 104.143917 221.83912 
L 104.431048 221.83912 
L 104.71818 221.83912 
L 105.005311 221.83912 
L 105.292442 221.83912 
L 105.579574 221.83912 
L 112.757861 221.83912 
L 119.936148 221.83912 
L 127.114435 221.83912 
L 155.827584 221.83912 
L 184.540732 221.83912 
L 213.253881 221.83912 
L 241.967029 221.83912 
L 270.680178 221.83912 
L 299.393327 221.83912 
L 328.106475 221.83912 
L 356.819624 221.83912 
L 385.532772 221.83912 
L 457.315643 221.83912 
L 529.098515 221.83912 
L 600.881386 221.83912 
L 672.664257 221.83912 
L 816.23 221.83912 
L 816.23 119.795718 
L 816.23 119.795718 
L 672.664257 119.795718 
L 600.881386 119.795718 
L 529.098515 113.418006 
L 457.315643 119.795718 
L 385.532772 119.795718 
L 356.819624 119.795718 
L 328.106475 119.795718 
L 299.393327 119.795718 
L 270.680178 119.795718 
L 241.967029 119.795718 
L 213.253881 119.795718 
L 184.540732 119.795718 
L 155.827584 119.795718 
L 127.114435 119.795718 
L 119.936148 119.795718 
L 112.757861 119.795718 
L 105.579574 119.795718 
L 105.292442 126.173431 
L 105.005311 119.795718 
L 104.71818 119.795718 
L 104.431048 126.173431 
L 104.143917 126.173431 
L 104.000351 119.795718 
L 103.856785 119.795718 
L 103.713219 119.795718 
L 103.569654 126.173431 
L 103.426088 119.795718 
L 103.282522 119.795718 
L 103.138956 119.795718 
L 102.995391 126.173431 
L 102.851825 119.795718 
L 102.708259 126.173431 
L 102.564693 119.795718 
L 102.421128 126.173431 
L 102.277562 119.795718 
L 102.133996 126.173431 
L 101.99043 119.795718 
L 101.846865 126.173431 
L 101.703299 126.173431 
L 101.559733 119.795718 
L 101.416167 126.173431 
L 101.272602 126.173431 
L 101.215175 126.173431 
L 101.157749 126.173431 
L 101.100323 126.173431 
L 101.042897 126.173431 
L 100.98547 126.173431 
L 100.928044 126.173431 
L 100.870618 126.173431 
L 100.813191 126.173431 
L 100.755765 119.795718 
L 100.698339 126.173431 
L 100.640912 126.173431 
L 100.583486 126.173431 
L 100.52606 126.173431 
L 100.468634 126.173431 
L 100.411207 126.173431 
L 100.353781 126.173431 
L 100.296355 126.173431 
L 100.238928 132.551144 
L 100.181502 119.795718 
L 100.124076 126.173431 
L 100.066649 126.173431 
L 100.009223 126.173431 
L 99.951797 119.795718 
L 99.894371 132.551144 
L 99.836944 126.173431 
L 99.808231 126.173431 
L 99.779518 126.173431 
L 99.750805 126.173431 
L 99.722092 126.173431 
L 99.693379 126.173431 
L 99.664665 126.173431 
L 99.635952 126.173431 
L 99.607239 126.173431 
L 99.578526 126.173431 
L 99.549813 126.173431 
L 99.5211 126.173431 
L 99.492386 126.173431 
L 99.463673 126.173431 
L 99.43496 126.173431 
L 99.406247 126.173431 
L 99.377534 126.173431 
L 99.348821 126.173431 
L 99.320108 126.173431 
L 99.291394 126.173431 
L 99.262681 126.173431 
L 99.233968 126.173431 
L 99.205255 126.173431 
L 99.176542 119.795718 
L 99.147829 132.551144 
L 99.119116 132.551144 
L 99.090402 126.173431 
L 99.061689 126.173431 
L 99.032976 126.173431 
L 99.004263 126.173431 
L 98.97555 126.173431 
L 98.946837 126.173431 
L 98.918124 126.173431 
L 98.88941 126.173431 
L 98.860697 126.173431 
L 98.831984 126.173431 
L 98.803271 126.173431 
L 98.774558 132.551144 
L 98.745845 126.173431 
L 98.717131 132.551144 
L 98.688418 126.173431 
L 98.659705 126.173431 
L 98.630992 132.551144 
L 98.602279 132.551144 
L 98.573566 126.173431 
L 98.544853 126.173431 
L 98.516139 126.173431 
L 98.487426 126.173431 
L 98.458713 126.173431 
L 98.43 126.173431 
z
" clip-path="url(#pa75d1cf6a2)" style="fill: #ff7f0e; fill-opacity: 0.7"/>
   </g>
   <g id="FillBetweenPolyCollection_3">
    <path d="M 98.43 49.64088 
L 98.43 126.173431 
L 98.458713 126.173431 
L 98.487426 126.173431 
L 98.516139 126.173431 
L 98.544853 126.173431 
L 98.573566 126.173431 
L 98.602279 132.551144 
L 98.630992 132.551144 
L 98.659705 126.173431 
L 98.688418 126.173431 
L 98.717131 132.551144 
L 98.745845 126.173431 
L 98.774558 132.551144 
L 98.803271 126.173431 
L 98.831984 126.173431 
L 98.860697 126.173431 
L 98.88941 126.173431 
L 98.918124 126.173431 
L 98.946837 126.173431 
L 98.97555 126.173431 
L 99.004263 126.173431 
L 99.032976 126.173431 
L 99.061689 126.173431 
L 99.090402 126.173431 
L 99.119116 132.551144 
L 99.147829 132.551144 
L 99.176542 119.795718 
L 99.205255 126.173431 
L 99.233968 126.173431 
L 99.262681 126.173431 
L 99.291394 126.173431 
L 99.320108 126.173431 
L 99.348821 126.173431 
L 99.377534 126.173431 
L 99.406247 126.173431 
L 99.43496 126.173431 
L 99.463673 126.173431 
L 99.492386 126.173431 
L 99.5211 126.173431 
L 99.549813 126.173431 
L 99.578526 126.173431 
L 99.607239 126.173431 
L 99.635952 126.173431 
L 99.664665 126.173431 
L 99.693379 126.173431 
L 99.722092 126.173431 
L 99.750805 126.173431 
L 99.779518 126.173431 
L 99.808231 126.173431 
L 99.836944 126.173431 
L 99.894371 132.551144 
L 99.951797 119.795718 
L 100.009223 126.173431 
L 100.066649 126.173431 
L 100.124076 126.173431 
L 100.181502 119.795718 
L 100.238928 132.551144 
L 100.296355 126.173431 
L 100.353781 126.173431 
L 100.411207 126.173431 
L 100.468634 126.173431 
L 100.52606 126.173431 
L 100.583486 126.173431 
L 100.640912 126.173431 
L 100.698339 126.173431 
L 100.755765 119.795718 
L 100.813191 126.173431 
L 100.870618 126.173431 
L 100.928044 126.173431 
L 100.98547 126.173431 
L 101.042897 126.173431 
L 101.100323 126.173431 
L 101.157749 126.173431 
L 101.215175 126.173431 
L 101.272602 126.173431 
L 101.416167 126.173431 
L 101.559733 119.795718 
L 101.703299 126.173431 
L 101.846865 126.173431 
L 101.99043 119.795718 
L 102.133996 126.173431 
L 102.277562 119.795718 
L 102.421128 126.173431 
L 102.564693 119.795718 
L 102.708259 126.173431 
L 102.851825 119.795718 
L 102.995391 126.173431 
L 103.138956 119.795718 
L 103.282522 119.795718 
L 103.426088 119.795718 
L 103.569654 126.173431 
L 103.713219 119.795718 
L 103.856785 119.795718 
L 104.000351 119.795718 
L 104.143917 126.173431 
L 104.431048 126.173431 
L 104.71818 119.795718 
L 105.005311 119.795718 
L 105.292442 126.173431 
L 105.579574 119.795718 
L 112.757861 119.795718 
L 119.936148 119.795718 
L 127.114435 119.795718 
L 155.827584 119.795718 
L 184.540732 119.795718 
L 213.253881 119.795718 
L 241.967029 119.795718 
L 270.680178 119.795718 
L 299.393327 119.795718 
L 328.106475 119.795718 
L 356.819624 119.795718 
L 385.532772 119.795718 
L 457.315643 119.795718 
L 529.098515 113.418006 
L 600.881386 119.795718 
L 672.664257 119.795718 
L 816.23 119.795718 
L 816.23 43.263167 
L 816.23 43.263167 
L 672.664257 43.263167 
L 600.881386 43.263167 
L 529.098515 36.885455 
L 457.315643 43.263167 
L 385.532772 43.263167 
L 356.819624 43.263167 
L 328.106475 43.263167 
L 299.393327 43.263167 
L 270.680178 43.263167 
L 241.967029 43.263167 
L 213.253881 36.885455 
L 184.540732 36.885455 
L 155.827584 36.885455 
L 127.114435 43.263167 
L 119.936148 43.263167 
L 112.757861 43.263167 
L 105.579574 36.885455 
L 105.292442 49.64088 
L 105.005311 43.263167 
L 104.71818 43.263167 
L 104.431048 49.64088 
L 104.143917 49.64088 
L 104.000351 43.263167 
L 103.856785 43.263167 
L 103.713219 36.885455 
L 103.569654 49.64088 
L 103.426088 36.885455 
L 103.282522 43.263167 
L 103.138956 36.885455 
L 102.995391 49.64088 
L 102.851825 43.263167 
L 102.708259 49.64088 
L 102.564693 43.263167 
L 102.421128 49.64088 
L 102.277562 43.263167 
L 102.133996 49.64088 
L 101.99043 43.263167 
L 101.846865 49.64088 
L 101.703299 49.64088 
L 101.559733 43.263167 
L 101.416167 49.64088 
L 101.272602 49.64088 
L 101.215175 49.64088 
L 101.157749 49.64088 
L 101.100323 49.64088 
L 101.042897 49.64088 
L 100.98547 49.64088 
L 100.928044 49.64088 
L 100.870618 49.64088 
L 100.813191 49.64088 
L 100.755765 36.885455 
L 100.698339 49.64088 
L 100.640912 49.64088 
L 100.583486 49.64088 
L 100.52606 49.64088 
L 100.468634 49.64088 
L 100.411207 56.018592 
L 100.353781 49.64088 
L 100.296355 49.64088 
L 100.238928 56.018592 
L 100.181502 43.263167 
L 100.124076 49.64088 
L 100.066649 49.64088 
L 100.009223 49.64088 
L 99.951797 43.263167 
L 99.894371 56.018592 
L 99.836944 49.64088 
L 99.808231 49.64088 
L 99.779518 49.64088 
L 99.750805 49.64088 
L 99.722092 49.64088 
L 99.693379 49.64088 
L 99.664665 49.64088 
L 99.635952 49.64088 
L 99.607239 49.64088 
L 99.578526 49.64088 
L 99.549813 49.64088 
L 99.5211 49.64088 
L 99.492386 49.64088 
L 99.463673 49.64088 
L 99.43496 49.64088 
L 99.406247 49.64088 
L 99.377534 49.64088 
L 99.348821 49.64088 
L 99.320108 49.64088 
L 99.291394 49.64088 
L 99.262681 49.64088 
L 99.233968 49.64088 
L 99.205255 49.64088 
L 99.176542 43.263167 
L 99.147829 56.018592 
L 99.119116 56.018592 
L 99.090402 49.64088 
L 99.061689 49.64088 
L 99.032976 49.64088 
L 99.004263 49.64088 
L 98.97555 49.64088 
L 98.946837 49.64088 
L 98.918124 49.64088 
L 98.88941 49.64088 
L 98.860697 49.64088 
L 98.831984 49.64088 
L 98.803271 49.64088 
L 98.774558 56.018592 
L 98.745845 49.64088 
L 98.717131 56.018592 
L 98.688418 49.64088 
L 98.659705 49.64088 
L 98.630992 56.018592 
L 98.602279 56.018592 
L 98.573566 49.64088 
L 98.544853 49.64088 
L 98.516139 49.64088 
L 98.487426 49.64088 
L 98.458713 49.64088 
L 98.43 49.64088 
z
" clip-path="url(#pa75d1cf6a2)" style="fill: #2ca02c; fill-opacity: 0.7"/>
   </g>
   <g id="matplotlib.axis_1">
    <g id="xtick_1">
     <g id="line2d_1">
      <path d="M 98.401287 244.48 
L 98.401287 27 
" clip-path="url(#pa75d1cf6a2)" style="fill: none; stroke: #b0b0b0; stroke-opacity: 0.25; stroke-width: 0.8; stroke-linecap: square"/>
     </g>
     <g id="line2d_2">
      <defs>
       <path id="m72d4eb1d98" d="M 0 0 
L 0 3.5 
" style="stroke: #000000; stroke-width: 0.8"/>
      </defs>
      <g>
       <use xlink:href="#m72d4eb1d98" x="98.401287" y="244.48" style="stroke: #000000; stroke-width: 0.8"/>
      </g>
     </g>
     <g id="text_1">
      <!-- 0 -->
      <g transform="translate(95.220037 259.078438) scale(0.1 -0.1)">
       <defs>
        <path id="DejaVuSans-30" d="M 2034 4250 
Q 1547 4250 1301 3770 
Q 1056 3291 1056 2328 
Q 1056 1369 1301 889 
Q 1547 409 2034 409 
Q 2525 409 2770 889 
Q 3016 1369 3016 2328 
Q 3016 3291 2770 3770 
Q 2525 4250 2034 4250 
z
M 2034 4750 
Q 2819 4750 3233 4129 
Q 3647 3509 3647 2328 
Q 3647 1150 3233 529 
Q 2819 -91 2034 -91 
Q 1250 -91 836 529 
Q 422 1150 422 2328 
Q 422 3509 836 4129 
Q 1250 4750 2034 4750 
z
" transform="scale(0.015625)"/>
       </defs>
       <use xlink:href="#DejaVuSans-30"/>
      </g>
     </g>
    </g>
    <g id="xtick_2">
     <g id="line2d_3">
      <path d="M 241.967029 244.48 
L 241.967029 27 
" clip-path="url(#pa75d1cf6a2)" style="fill: none; stroke: #b0b0b0; stroke-opacity: 0.25; stroke-width: 0.8; stroke-linecap: square"/>
     </g>
     <g id="line2d_4">
      <g>
       <use xlink:href="#m72d4eb1d98" x="241.967029" y="244.48" style="stroke: #000000; stroke-width: 0.8"/>
      </g>
     </g>
     <g id="text_2">
      <!-- 5000 -->
      <g transform="translate(229.242029 259.078438) scale(0.1 -0.1)">
       <defs>
        <path id="DejaVuSans-35" d="M 691 4666 
L 3169 4666 
L 3169 4134 
L 1269 4134 
L 1269 2991 
Q 1406 3038 1543 3061 
Q 1681 3084 1819 3084 
Q 2600 3084 3056 2656 
Q 3513 2228 3513 1497 
Q 3513 744 3044 326 
Q 2575 -91 1722 -91 
Q 1428 -91 1123 -41 
Q 819 9 494 109 
L 494 744 
Q 775 591 1075 516 
Q 1375 441 1709 441 
Q 2250 441 2565 725 
Q 2881 1009 2881 1497 
Q 2881 1984 2565 2268 
Q 2250 2553 1709 2553 
Q 1456 2553 1204 2497 
Q 953 2441 691 2322 
L 691 4666 
z
" transform="scale(0.015625)"/>
       </defs>
       <use xlink:href="#DejaVuSans-35"/>
       <use xlink:href="#DejaVuSans-30" transform="translate(63.623047 0)"/>
       <use xlink:href="#DejaVuSans-30" transform="translate(127.246094 0)"/>
       <use xlink:href="#DejaVuSans-30" transform="translate(190.869141 0)"/>
      </g>
     </g>
    </g>
    <g id="xtick_3">
     <g id="line2d_5">
      <path d="M 385.532772 244.48 
L 385.532772 27 
" clip-path="url(#pa75d1cf6a2)" style="fill: none; stroke: #b0b0b0; stroke-opacity: 0.25; stroke-width: 0.8; stroke-linecap: square"/>
     </g>
     <g id="line2d_6">
      <g>
       <use xlink:href="#m72d4eb1d98" x="385.532772" y="244.48" style="stroke: #000000; stroke-width: 0.8"/>
      </g>
     </g>
     <g id="text_3">
      <!-- 10000 -->
      <g transform="translate(369.626522 259.078438) scale(0.1 -0.1)">
       <defs>
        <path id="DejaVuSans-31" d="M 794 531 
L 1825 531 
L 1825 4091 
L 703 3866 
L 703 4441 
L 1819 4666 
L 2450 4666 
L 2450 531 
L 3481 531 
L 3481 0 
L 794 0 
L 794 531 
z
" transform="scale(0.015625)"/>
       </defs>
       <use xlink:href="#DejaVuSans-31"/>
       <use xlink:href="#DejaVuSans-30" transform="translate(63.623047 0)"/>
       <use xlink:href="#DejaVuSans-30" transform="translate(127.246094 0)"/>
       <use xlink:href="#DejaVuSans-30" transform="translate(190.869141 0)"/>
       <use xlink:href="#DejaVuSans-30" transform="translate(254.492188 0)"/>
      </g>
     </g>
    </g>
    <g id="xtick_4">
     <g id="line2d_7">
      <path d="M 529.098515 244.48 
L 529.098515 27 
" clip-path="url(#pa75d1cf6a2)" style="fill: none; stroke: #b0b0b0; stroke-opacity: 0.25; stroke-width: 0.8; stroke-linecap: square"/>
     </g>
     <g id="line2d_8">
      <g>
       <use xlink:href="#m72d4eb1d98" x="529.098515" y="244.48" style="stroke: #000000; stroke-width: 0.8"/>
      </g>
     </g>
     <g id="text_4">
      <!-- 15000 -->
      <g transform="translate(513.192265 259.078438) scale(0.1 -0.1)">
       <use xlink:href="#DejaVuSans-31"/>
       <use xlink:href="#DejaVuSans-35" transform="translate(63.623047 0)"/>
       <use xlink:href="#DejaVuSans-30" transform="translate(127.246094 0)"/>
       <use xlink:href="#DejaVuSans-30" transform="translate(190.869141 0)"/>
       <use xlink:href="#DejaVuSans-30" transform="translate(254.492188 0)"/>
      </g>
     </g>
    </g>
    <g id="xtick_5">
     <g id="line2d_9">
      <path d="M 672.664257 244.48 
L 672.664257 27 
" clip-path="url(#pa75d1cf6a2)" style="fill: none; stroke: #b0b0b0; stroke-opacity: 0.25; stroke-width: 0.8; stroke-linecap: square"/>
     </g>
     <g id="line2d_10">
      <g>
       <use xlink:href="#m72d4eb1d98" x="672.664257" y="244.48" style="stroke: #000000; stroke-width: 0.8"/>
      </g>
     </g>
     <g id="text_5">
      <!-- 20000 -->
      <g transform="translate(656.758007 259.078438) scale(0.1 -0.1)">
       <defs>
        <path id="DejaVuSans-32" d="M 1228 531 
L 3431 531 
L 3431 0 
L 469 0 
L 469 531 
Q 828 903 1448 1529 
Q 2069 2156 2228 2338 
Q 2531 2678 2651 2914 
Q 2772 3150 2772 3378 
Q 2772 3750 2511 3984 
Q 2250 4219 1831 4219 
Q 1534 4219 1204 4116 
Q 875 4013 500 3803 
L 500 4441 
Q 881 4594 1212 4672 
Q 1544 4750 1819 4750 
Q 2544 4750 2975 4387 
Q 3406 4025 3406 3419 
Q 3406 3131 3298 2873 
Q 3191 2616 2906 2266 
Q 2828 2175 2409 1742 
Q 1991 1309 1228 531 
z
" transform="scale(0.015625)"/>
       </defs>
       <use xlink:href="#DejaVuSans-32"/>
       <use xlink:href="#DejaVuSans-30" transform="translate(63.623047 0)"/>
       <use xlink:href="#DejaVuSans-30" transform="translate(127.246094 0)"/>
       <use xlink:href="#DejaVuSans-30" transform="translate(190.869141 0)"/>
       <use xlink:href="#DejaVuSans-30" transform="translate(254.492188 0)"/>
      </g>
     </g>
    </g>
    <g id="xtick_6">
     <g id="line2d_11">
      <path d="M 816.23 244.48 
L 816.23 27 
" clip-path="url(#pa75d1cf6a2)" style="fill: none; stroke: #b0b0b0; stroke-opacity: 0.25; stroke-width: 0.8; stroke-linecap: square"/>
     </g>
     <g id="line2d_12">
      <g>
       <use xlink:href="#m72d4eb1d98" x="816.23" y="244.48" style="stroke: #000000; stroke-width: 0.8"/>
      </g>
     </g>
     <g id="text_6">
      <!-- 25000 -->
      <g transform="translate(800.32375 259.078438) scale(0.1 -0.1)">
       <use xlink:href="#DejaVuSans-32"/>
       <use xlink:href="#DejaVuSans-35" transform="translate(63.623047 0)"/>
       <use xlink:href="#DejaVuSans-30" transform="translate(127.246094 0)"/>
       <use xlink:href="#DejaVuSans-30" transform="translate(190.869141 0)"/>
       <use xlink:href="#DejaVuSans-30" transform="translate(254.492188 0)"/>
      </g>
     </g>
    </g>
    <g id="text_7">
     <!-- Input -->
     <g transform="translate(443.088438 273.516406) scale(0.11 -0.11)">
      <defs>
       <path id="DejaVuSans-49" d="M 628 4666 
L 1259 4666 
L 1259 0 
L 628 0 
L 628 4666 
z
" transform="scale(0.015625)"/>
       <path id="DejaVuSans-6e" d="M 3513 2113 
L 3513 0 
L 2938 0 
L 2938 2094 
Q 2938 2591 2744 2837 
Q 2550 3084 2163 3084 
Q 1697 3084 1428 2787 
Q 1159 2491 1159 1978 
L 1159 0 
L 581 0 
L 581 3500 
L 1159 3500 
L 1159 2956 
Q 1366 3272 1645 3428 
Q 1925 3584 2291 3584 
Q 2894 3584 3203 3211 
Q 3513 2838 3513 2113 
z
" transform="scale(0.015625)"/>
       <path id="DejaVuSans-70" d="M 1159 525 
L 1159 -1331 
L 581 -1331 
L 581 3500 
L 1159 3500 
L 1159 2969 
Q 1341 3281 1617 3432 
Q 1894 3584 2278 3584 
Q 2916 3584 3314 3078 
Q 3713 2572 3713 1747 
Q 3713 922 3314 415 
Q 2916 -91 2278 -91 
Q 1894 -91 1617 61 
Q 1341 213 1159 525 
z
M 3116 1747 
Q 3116 2381 2855 2742 
Q 2594 3103 2138 3103 
Q 1681 3103 1420 2742 
Q 1159 2381 1159 1747 
Q 1159 1113 1420 752 
Q 1681 391 2138 391 
Q 2594 391 2855 752 
Q 3116 1113 3116 1747 
z
" transform="scale(0.015625)"/>
       <path id="DejaVuSans-75" d="M 544 1381 
L 544 3500 
L 1119 3500 
L 1119 1403 
Q 1119 906 1312 657 
Q 1506 409 1894 409 
Q 2359 409 2629 706 
Q 2900 1003 2900 1516 
L 2900 3500 
L 3475 3500 
L 3475 0 
L 2900 0 
L 2900 538 
Q 2691 219 2414 64 
Q 2138 -91 1772 -91 
Q 1169 -91 856 284 
Q 544 659 544 1381 
z
M 1991 3584 
L 1991 3584 
z
" transform="scale(0.015625)"/>
       <path id="DejaVuSans-74" d="M 1172 4494 
L 1172 3500 
L 2356 3500 
L 2356 3053 
L 1172 3053 
L 1172 1153 
Q 1172 725 1289 603 
Q 1406 481 1766 481 
L 2356 481 
L 2356 0 
L 1766 0 
Q 1100 0 847 248 
Q 594 497 594 1153 
L 594 3053 
L 172 3053 
L 172 3500 
L 594 3500 
L 594 4494 
L 1172 4494 
z
" transform="scale(0.015625)"/>
      </defs>
      <use xlink:href="#DejaVuSans-49"/>
      <use xlink:href="#DejaVuSans-6e" transform="translate(29.492188 0)"/>
      <use xlink:href="#DejaVuSans-70" transform="translate(92.871094 0)"/>
      <use xlink:href="#DejaVuSans-75" transform="translate(156.347656 0)"/>
      <use xlink:href="#DejaVuSans-74" transform="translate(219.726562 0)"/>
     </g>
    </g>
   </g>
   <g id="matplotlib.axis_2">
    <g id="ytick_1">
     <g id="line2d_13">
      <path d="M 62.54 234.594545 
L 852.12 234.594545 
" clip-path="url(#pa75d1cf6a2)" style="fill: none; stroke: #b0b0b0; stroke-opacity: 0.25; stroke-width: 0.8; stroke-linecap: square"/>
     </g>
     <g id="line2d_14">
      <defs>
       <path id="mddbc8e089b" d="M 0 0 
L -3.5 0 
" style="stroke: #000000; stroke-width: 0.8"/>
      </defs>
      <g>
       <use xlink:href="#mddbc8e089b" x="62.54" y="234.594545" style="stroke: #000000; stroke-width: 0.8"/>
      </g>
     </g>
     <g id="text_8">
      <!-- 0.000 -->
      <g transform="translate(26.911875 238.393764) scale(0.1 -0.1)">
       <defs>
        <path id="DejaVuSans-2e" d="M 684 794 
L 1344 794 
L 1344 0 
L 684 0 
L 684 794 
z
" transform="scale(0.015625)"/>
       </defs>
       <use xlink:href="#DejaVuSans-30"/>
       <use xlink:href="#DejaVuSans-2e" transform="translate(63.623047 0)"/>
       <use xlink:href="#DejaVuSans-30" transform="translate(95.410156 0)"/>
       <use xlink:href="#DejaVuSans-30" transform="translate(159.033203 0)"/>
       <use xlink:href="#DejaVuSans-30" transform="translate(222.65625 0)"/>
      </g>
     </g>
    </g>
    <g id="ytick_2">
     <g id="line2d_15">
      <path d="M 62.54 202.705982 
L 852.12 202.705982 
" clip-path="url(#pa75d1cf6a2)" style="fill: none; stroke: #b0b0b0; stroke-opacity: 0.25; stroke-width: 0.8; stroke-linecap: square"/>
     </g>
     <g id="line2d_16">
      <g>
       <use xlink:href="#mddbc8e089b" x="62.54" y="202.705982" style="stroke: #000000; stroke-width: 0.8"/>
      </g>
     </g>
     <g id="text_9">
      <!-- 0.005 -->
      <g transform="translate(26.911875 206.505201) scale(0.1 -0.1)">
       <use xlink:href="#DejaVuSans-30"/>
       <use xlink:href="#DejaVuSans-2e" transform="translate(63.623047 0)"/>
       <use xlink:href="#DejaVuSans-30" transform="translate(95.410156 0)"/>
       <use xlink:href="#DejaVuSans-30" transform="translate(159.033203 0)"/>
       <use xlink:href="#DejaVuSans-35" transform="translate(222.65625 0)"/>
      </g>
     </g>
    </g>
    <g id="ytick_3">
     <g id="line2d_17">
      <path d="M 62.54 170.817419 
L 852.12 170.817419 
" clip-path="url(#pa75d1cf6a2)" style="fill: none; stroke: #b0b0b0; stroke-opacity: 0.25; stroke-width: 0.8; stroke-linecap: square"/>
     </g>
     <g id="line2d_18">
      <g>
       <use xlink:href="#mddbc8e089b" x="62.54" y="170.817419" style="stroke: #000000; stroke-width: 0.8"/>
      </g>
     </g>
     <g id="text_10">
      <!-- 0.010 -->
      <g transform="translate(26.911875 174.616638) scale(0.1 -0.1)">
       <use xlink:href="#DejaVuSans-30"/>
       <use xlink:href="#DejaVuSans-2e" transform="translate(63.623047 0)"/>
       <use xlink:href="#DejaVuSans-30" transform="translate(95.410156 0)"/>
       <use xlink:href="#DejaVuSans-31" transform="translate(159.033203 0)"/>
       <use xlink:href="#DejaVuSans-30" transform="translate(222.65625 0)"/>
      </g>
     </g>
    </g>
    <g id="ytick_4">
     <g id="line2d_19">
      <path d="M 62.54 138.928856 
L 852.12 138.928856 
" clip-path="url(#pa75d1cf6a2)" style="fill: none; stroke: #b0b0b0; stroke-opacity: 0.25; stroke-width: 0.8; stroke-linecap: square"/>
     </g>
     <g id="line2d_20">
      <g>
       <use xlink:href="#mddbc8e089b" x="62.54" y="138.928856" style="stroke: #000000; stroke-width: 0.8"/>
      </g>
     </g>
     <g id="text_11">
      <!-- 0.015 -->
      <g transform="translate(26.911875 142.728075) scale(0.1 -0.1)">
       <use xlink:href="#DejaVuSans-30"/>
       <use xlink:href="#DejaVuSans-2e" transform="translate(63.623047 0)"/>
       <use xlink:href="#DejaVuSans-30" transform="translate(95.410156 0)"/>
       <use xlink:href="#DejaVuSans-31" transform="translate(159.033203 0)"/>
       <use xlink:href="#DejaVuSans-35" transform="translate(222.65625 0)"/>
      </g>
     </g>
    </g>
    <g id="ytick_5">
     <g id="line2d_21">
      <path d="M 62.54 107.040293 
L 852.12 107.040293 
" clip-path="url(#pa75d1cf6a2)" style="fill: none; stroke: #b0b0b0; stroke-opacity: 0.25; stroke-width: 0.8; stroke-linecap: square"/>
     </g>
     <g id="line2d_22">
      <g>
       <use xlink:href="#mddbc8e089b" x="62.54" y="107.040293" style="stroke: #000000; stroke-width: 0.8"/>
      </g>
     </g>
     <g id="text_12">
      <!-- 0.020 -->
      <g transform="translate(26.911875 110.839512) scale(0.1 -0.1)">
       <use xlink:href="#DejaVuSans-30"/>
       <use xlink:href="#DejaVuSans-2e" transform="translate(63.623047 0)"/>
       <use xlink:href="#DejaVuSans-30" transform="translate(95.410156 0)"/>
       <use xlink:href="#DejaVuSans-32" transform="translate(159.033203 0)"/>
       <use xlink:href="#DejaVuSans-30" transform="translate(222.65625 0)"/>
      </g>
     </g>
    </g>
    <g id="ytick_6">
     <g id="line2d_23">
      <path d="M 62.54 75.15173 
L 852.12 75.15173 
" clip-path="url(#pa75d1cf6a2)" style="fill: none; stroke: #b0b0b0; stroke-opacity: 0.25; stroke-width: 0.8; stroke-linecap: square"/>
     </g>
     <g id="line2d_24">
      <g>
       <use xlink:href="#mddbc8e089b" x="62.54" y="75.15173" style="stroke: #000000; stroke-width: 0.8"/>
      </g>
     </g>
     <g id="text_13">
      <!-- 0.025 -->
      <g transform="translate(26.911875 78.950949) scale(0.1 -0.1)">
       <use xlink:href="#DejaVuSans-30"/>
       <use xlink:href="#DejaVuSans-2e" transform="translate(63.623047 0)"/>
       <use xlink:href="#DejaVuSans-30" transform="translate(95.410156 0)"/>
       <use xlink:href="#DejaVuSans-32" transform="translate(159.033203 0)"/>
       <use xlink:href="#DejaVuSans-35" transform="translate(222.65625 0)"/>
      </g>
     </g>
    </g>
    <g id="ytick_7">
     <g id="line2d_25">
      <path d="M 62.54 43.263167 
L 852.12 43.263167 
" clip-path="url(#pa75d1cf6a2)" style="fill: none; stroke: #b0b0b0; stroke-opacity: 0.25; stroke-width: 0.8; stroke-linecap: square"/>
     </g>
     <g id="line2d_26">
      <g>
       <use xlink:href="#mddbc8e089b" x="62.54" y="43.263167" style="stroke: #000000; stroke-width: 0.8"/>
      </g>
     </g>
     <g id="text_14">
      <!-- 0.030 -->
      <g transform="translate(26.911875 47.062386) scale(0.1 -0.1)">
       <defs>
        <path id="DejaVuSans-33" d="M 2597 2516 
Q 3050 2419 3304 2112 
Q 3559 1806 3559 1356 
Q 3559 666 3084 287 
Q 2609 -91 1734 -91 
Q 1441 -91 1130 -33 
Q 819 25 488 141 
L 488 750 
Q 750 597 1062 519 
Q 1375 441 1716 441 
Q 2309 441 2620 675 
Q 2931 909 2931 1356 
Q 2931 1769 2642 2001 
Q 2353 2234 1838 2234 
L 1294 2234 
L 1294 2753 
L 1863 2753 
Q 2328 2753 2575 2939 
Q 2822 3125 2822 3475 
Q 2822 3834 2567 4026 
Q 2313 4219 1838 4219 
Q 1578 4219 1281 4162 
Q 984 4106 628 3988 
L 628 4550 
Q 988 4650 1302 4700 
Q 1616 4750 1894 4750 
Q 2613 4750 3031 4423 
Q 3450 4097 3450 3541 
Q 3450 3153 3228 2886 
Q 3006 2619 2597 2516 
z
" transform="scale(0.015625)"/>
       </defs>
       <use xlink:href="#DejaVuSans-30"/>
       <use xlink:href="#DejaVuSans-2e" transform="translate(63.623047 0)"/>
       <use xlink:href="#DejaVuSans-30" transform="translate(95.410156 0)"/>
       <use xlink:href="#DejaVuSans-33" transform="translate(159.033203 0)"/>
       <use xlink:href="#DejaVuSans-30" transform="translate(222.65625 0)"/>
      </g>
     </g>
    </g>
    <g id="text_15">
     <!-- Time (s) -->
     <g transform="translate(20.624219 158.101797) rotate(-90) scale(0.11 -0.11)">
      <defs>
       <path id="DejaVuSans-54" d="M -19 4666 
L 3928 4666 
L 3928 4134 
L 2272 4134 
L 2272 0 
L 1638 0 
L 1638 4134 
L -19 4134 
L -19 4666 
z
" transform="scale(0.015625)"/>
       <path id="DejaVuSans-69" d="M 603 3500 
L 1178 3500 
L 1178 0 
L 603 0 
L 603 3500 
z
M 603 4863 
L 1178 4863 
L 1178 4134 
L 603 4134 
L 603 4863 
z
" transform="scale(0.015625)"/>
       <path id="DejaVuSans-6d" d="M 3328 2828 
Q 3544 3216 3844 3400 
Q 4144 3584 4550 3584 
Q 5097 3584 5394 3201 
Q 5691 2819 5691 2113 
L 5691 0 
L 5113 0 
L 5113 2094 
Q 5113 2597 4934 2840 
Q 4756 3084 4391 3084 
Q 3944 3084 3684 2787 
Q 3425 2491 3425 1978 
L 3425 0 
L 2847 0 
L 2847 2094 
Q 2847 2600 2669 2842 
Q 2491 3084 2119 3084 
Q 1678 3084 1418 2786 
Q 1159 2488 1159 1978 
L 1159 0 
L 581 0 
L 581 3500 
L 1159 3500 
L 1159 2956 
Q 1356 3278 1631 3431 
Q 1906 3584 2284 3584 
Q 2666 3584 2933 3390 
Q 3200 3197 3328 2828 
z
" transform="scale(0.015625)"/>
       <path id="DejaVuSans-65" d="M 3597 1894 
L 3597 1613 
L 953 1613 
Q 991 1019 1311 708 
Q 1631 397 2203 397 
Q 2534 397 2845 478 
Q 3156 559 3463 722 
L 3463 178 
Q 3153 47 2828 -22 
Q 2503 -91 2169 -91 
Q 1331 -91 842 396 
Q 353 884 353 1716 
Q 353 2575 817 3079 
Q 1281 3584 2069 3584 
Q 2775 3584 3186 3129 
Q 3597 2675 3597 1894 
z
M 3022 2063 
Q 3016 2534 2758 2815 
Q 2500 3097 2075 3097 
Q 1594 3097 1305 2825 
Q 1016 2553 972 2059 
L 3022 2063 
z
" transform="scale(0.015625)"/>
       <path id="DejaVuSans-20" transform="scale(0.015625)"/>
       <path id="DejaVuSans-28" d="M 1984 4856 
Q 1566 4138 1362 3434 
Q 1159 2731 1159 2009 
Q 1159 1288 1364 580 
Q 1569 -128 1984 -844 
L 1484 -844 
Q 1016 -109 783 600 
Q 550 1309 550 2009 
Q 550 2706 781 3412 
Q 1013 4119 1484 4856 
L 1984 4856 
z
" transform="scale(0.015625)"/>
       <path id="DejaVuSans-73" d="M 2834 3397 
L 2834 2853 
Q 2591 2978 2328 3040 
Q 2066 3103 1784 3103 
Q 1356 3103 1142 2972 
Q 928 2841 928 2578 
Q 928 2378 1081 2264 
Q 1234 2150 1697 2047 
L 1894 2003 
Q 2506 1872 2764 1633 
Q 3022 1394 3022 966 
Q 3022 478 2636 193 
Q 2250 -91 1575 -91 
Q 1294 -91 989 -36 
Q 684 19 347 128 
L 347 722 
Q 666 556 975 473 
Q 1284 391 1588 391 
Q 1994 391 2212 530 
Q 2431 669 2431 922 
Q 2431 1156 2273 1281 
Q 2116 1406 1581 1522 
L 1381 1569 
Q 847 1681 609 1914 
Q 372 2147 372 2553 
Q 372 3047 722 3315 
Q 1072 3584 1716 3584 
Q 2034 3584 2315 3537 
Q 2597 3491 2834 3397 
z
" transform="scale(0.015625)"/>
       <path id="DejaVuSans-29" d="M 513 4856 
L 1013 4856 
Q 1481 4119 1714 3412 
Q 1947 2706 1947 2009 
Q 1947 1309 1714 600 
Q 1481 -109 1013 -844 
L 513 -844 
Q 928 -128 1133 580 
Q 1338 1288 1338 2009 
Q 1338 2731 1133 3434 
Q 928 4138 513 4856 
z
" transform="scale(0.015625)"/>
      </defs>
      <use xlink:href="#DejaVuSans-54"/>
      <use xlink:href="#DejaVuSans-69" transform="translate(57.958984 0)"/>
      <use xlink:href="#DejaVuSans-6d" transform="translate(85.742188 0)"/>
      <use xlink:href="#DejaVuSans-65" transform="translate(183.154297 0)"/>
      <use xlink:href="#DejaVuSans-20" transform="translate(244.677734 0)"/>
      <use xlink:href="#DejaVuSans-28" transform="translate(276.464844 0)"/>
      <use xlink:href="#DejaVuSans-73" transform="translate(315.478516 0)"/>
      <use xlink:href="#DejaVuSans-29" transform="translate(367.578125 0)"/>
     </g>
    </g>
   </g>
   <g id="patch_3">
    <path d="M 62.54 244.48 
L 62.54 27 
" style="fill: none; stroke: #000000; stroke-width: 0.8; stroke-linejoin: miter; stroke-linecap: square"/>
   </g>
   <g id="patch_4">
    <path d="M 852.12 244.48 
L 852.12 27 
" style="fill: none; stroke: #000000; stroke-width: 0.8; stroke-linejoin: miter; stroke-linecap: square"/>
   </g>
   <g id="patch_5">
    <path d="M 62.54 244.48 
L 852.12 244.48 
" style="fill: none; stroke: #000000; stroke-width: 0.8; stroke-linejoin: miter; stroke-linecap: square"/>
   </g>
   <g id="patch_6">
    <path d="M 62.54 27 
L 852.12 27 
" style="fill: none; stroke: #000000; stroke-width: 0.8; stroke-linejoin: miter; stroke-linecap: square"/>
   </g>
   <g id="text_16">
    <!-- Collatz — verify subphases (vanilla) -->
    <g transform="translate(350.035938 21) scale(0.12 -0.12)">
     <defs>
      <path id="DejaVuSans-43" d="M 4122 4306 
L 4122 3641 
Q 3803 3938 3442 4084 
Q 3081 4231 2675 4231 
Q 1875 4231 1450 3742 
Q 1025 3253 1025 2328 
Q 1025 1406 1450 917 
Q 1875 428 2675 428 
Q 3081 428 3442 575 
Q 3803 722 4122 1019 
L 4122 359 
Q 3791 134 3420 21 
Q 3050 -91 2638 -91 
Q 1578 -91 968 557 
Q 359 1206 359 2328 
Q 359 3453 968 4101 
Q 1578 4750 2638 4750 
Q 3056 4750 3426 4639 
Q 3797 4528 4122 4306 
z
" transform="scale(0.015625)"/>
      <path id="DejaVuSans-6f" d="M 1959 3097 
Q 1497 3097 1228 2736 
Q 959 2375 959 1747 
Q 959 1119 1226 758 
Q 1494 397 1959 397 
Q 2419 397 2687 759 
Q 2956 1122 2956 1747 
Q 2956 2369 2687 2733 
Q 2419 3097 1959 3097 
z
M 1959 3584 
Q 2709 3584 3137 3096 
Q 3566 2609 3566 1747 
Q 3566 888 3137 398 
Q 2709 -91 1959 -91 
Q 1206 -91 779 398 
Q 353 888 353 1747 
Q 353 2609 779 3096 
Q 1206 3584 1959 3584 
z
" transform="scale(0.015625)"/>
      <path id="DejaVuSans-6c" d="M 603 4863 
L 1178 4863 
L 1178 0 
L 603 0 
L 603 4863 
z
" transform="scale(0.015625)"/>
      <path id="DejaVuSans-61" d="M 2194 1759 
Q 1497 1759 1228 1600 
Q 959 1441 959 1056 
Q 959 750 1161 570 
Q 1363 391 1709 391 
Q 2188 391 2477 730 
Q 2766 1069 2766 1631 
L 2766 1759 
L 2194 1759 
z
M 3341 1997 
L 3341 0 
L 2766 0 
L 2766 531 
Q 2569 213 2275 61 
Q 1981 -91 1556 -91 
Q 1019 -91 701 211 
Q 384 513 384 1019 
Q 384 1609 779 1909 
Q 1175 2209 1959 2209 
L 2766 2209 
L 2766 2266 
Q 2766 2663 2505 2880 
Q 2244 3097 1772 3097 
Q 1472 3097 1187 3025 
Q 903 2953 641 2809 
L 641 3341 
Q 956 3463 1253 3523 
Q 1550 3584 1831 3584 
Q 2591 3584 2966 3190 
Q 3341 2797 3341 1997 
z
" transform="scale(0.015625)"/>
      <path id="DejaVuSans-7a" d="M 353 3500 
L 3084 3500 
L 3084 2975 
L 922 459 
L 3084 459 
L 3084 0 
L 275 0 
L 275 525 
L 2438 3041 
L 353 3041 
L 353 3500 
z
" transform="scale(0.015625)"/>
      <path id="DejaVuSans-2014" d="M 313 1978 
L 6088 1978 
L 6088 1528 
L 313 1528 
L 313 1978 
z
" transform="scale(0.015625)"/>
      <path id="DejaVuSans-76" d="M 191 3500 
L 800 3500 
L 1894 563 
L 2988 3500 
L 3597 3500 
L 2284 0 
L 1503 0 
L 191 3500 
z
" transform="scale(0.015625)"/>
      <path id="DejaVuSans-72" d="M 2631 2963 
Q 2534 3019 2420 3045 
Q 2306 3072 2169 3072 
Q 1681 3072 1420 2755 
Q 1159 2438 1159 1844 
L 1159 0 
L 581 0 
L 581 3500 
L 1159 3500 
L 1159 2956 
Q 1341 3275 1631 3429 
Q 1922 3584 2338 3584 
Q 2397 3584 2469 3576 
Q 2541 3569 2628 3553 
L 2631 2963 
z
" transform="scale(0.015625)"/>
      <path id="DejaVuSans-66" d="M 2375 4863 
L 2375 4384 
L 1825 4384 
Q 1516 4384 1395 4259 
Q 1275 4134 1275 3809 
L 1275 3500 
L 2222 3500 
L 2222 3053 
L 1275 3053 
L 1275 0 
L 697 0 
L 697 3053 
L 147 3053 
L 147 3500 
L 697 3500 
L 697 3744 
Q 697 4328 969 4595 
Q 1241 4863 1831 4863 
L 2375 4863 
z
" transform="scale(0.015625)"/>
      <path id="DejaVuSans-79" d="M 2059 -325 
Q 1816 -950 1584 -1140 
Q 1353 -1331 966 -1331 
L 506 -1331 
L 506 -850 
L 844 -850 
Q 1081 -850 1212 -737 
Q 1344 -625 1503 -206 
L 1606 56 
L 191 3500 
L 800 3500 
L 1894 763 
L 2988 3500 
L 3597 3500 
L 2059 -325 
z
" transform="scale(0.015625)"/>
      <path id="DejaVuSans-62" d="M 3116 1747 
Q 3116 2381 2855 2742 
Q 2594 3103 2138 3103 
Q 1681 3103 1420 2742 
Q 1159 2381 1159 1747 
Q 1159 1113 1420 752 
Q 1681 391 2138 391 
Q 2594 391 2855 752 
Q 3116 1113 3116 1747 
z
M 1159 2969 
Q 1341 3281 1617 3432 
Q 1894 3584 2278 3584 
Q 2916 3584 3314 3078 
Q 3713 2572 3713 1747 
Q 3713 922 3314 415 
Q 2916 -91 2278 -91 
Q 1894 -91 1617 61 
Q 1341 213 1159 525 
L 1159 0 
L 581 0 
L 581 4863 
L 1159 4863 
L 1159 2969 
z
" transform="scale(0.015625)"/>
      <path id="DejaVuSans-68" d="M 3513 2113 
L 3513 0 
L 2938 0 
L 2938 2094 
Q 2938 2591 2744 2837 
Q 2550 3084 2163 3084 
Q 1697 3084 1428 2787 
Q 1159 2491 1159 1978 
L 1159 0 
L 581 0 
L 581 4863 
L 1159 4863 
L 1159 2956 
Q 1366 3272 1645 3428 
Q 1925 3584 2291 3584 
Q 2894 3584 3203 3211 
Q 3513 2838 3513 2113 
z
" transform="scale(0.015625)"/>
     </defs>
     <use xlink:href="#DejaVuSans-43"/>
     <use xlink:href="#DejaVuSans-6f" transform="translate(69.824219 0)"/>
     <use xlink:href="#DejaVuSans-6c" transform="translate(131.005859 0)"/>
     <use xlink:href="#DejaVuSans-6c" transform="translate(158.789062 0)"/>
     <use xlink:href="#DejaVuSans-61" transform="translate(186.572266 0)"/>
     <use xlink:href="#DejaVuSans-74" transform="translate(247.851562 0)"/>
     <use xlink:href="#DejaVuSans-7a" transform="translate(287.060547 0)"/>
     <use xlink:href="#DejaVuSans-20" transform="translate(339.550781 0)"/>
     <use xlink:href="#DejaVuSans-2014" transform="translate(371.337891 0)"/>
     <use xlink:href="#DejaVuSans-20" transform="translate(471.337891 0)"/>
     <use xlink:href="#DejaVuSans-76" transform="translate(503.125 0)"/>
     <use xlink:href="#DejaVuSans-65" transform="translate(562.304688 0)"/>
     <use xlink:href="#DejaVuSans-72" transform="translate(623.828125 0)"/>
     <use xlink:href="#DejaVuSans-69" transform="translate(664.941406 0)"/>
     <use xlink:href="#DejaVuSans-66" transform="translate(692.724609 0)"/>
     <use xlink:href="#DejaVuSans-79" transform="translate(726.179688 0)"/>
     <use xlink:href="#DejaVuSans-20" transform="translate(785.359375 0)"/>
     <use xlink:href="#DejaVuSans-73" transform="translate(817.146484 0)"/>
     <use xlink:href="#DejaVuSans-75" transform="translate(869.246094 0)"/>
     <use xlink:href="#DejaVuSans-62" transform="translate(932.625 0)"/>
     <use xlink:href="#DejaVuSans-70" transform="translate(996.101562 0)"/>
     <use xlink:href="#DejaVuSans-68" transform="translate(1059.578125 0)"/>
     <use xlink:href="#DejaVuSans-61" transform="translate(1122.957031 0)"/>
     <use xlink:href="#DejaVuSans-73" transform="translate(1184.236328 0)"/>
     <use xlink:href="#DejaVuSans-65" transform="translate(1236.335938 0)"/>
     <use xlink:href="#DejaVuSans-73" transform="translate(1297.859375 0)"/>
     <use xlink:href="#DejaVuSans-20" transform="translate(1349.958984 0)"/>
     <use xlink:href="#DejaVuSans-28" transform="translate(1381.746094 0)"/>
     <use xlink:href="#DejaVuSans-76" transform="translate(1420.759766 0)"/>
     <use xlink:href="#DejaVuSans-61" transform="translate(1479.939453 0)"/>
     <use xlink:href="#DejaVuSans-6e" transform="translate(1541.21875 0)"/>
     <use xlink:href="#DejaVuSans-69" transform="translate(1604.597656 0)"/>
     <use xlink:href="#DejaVuSans-6c" transform="translate(1632.380859 0)"/>
     <use xlink:href="#DejaVuSans-6c" transform="translate(1660.164062 0)"/>
     <use xlink:href="#DejaVuSans-61" transform="translate(1687.947266 0)"/>
     <use xlink:href="#DejaVuSans-29" transform="translate(1749.226562 0)"/>
    </g>
   </g>
   <g id="legend_1">
    <g id="patch_7">
     <path d="M 302.840937 138.360313 
L 322.840937 138.360313 
L 322.840937 131.360313 
L 302.840937 131.360313 
z
" style="fill: #1f77b4; fill-opacity: 0.7"/>
    </g>
    <g id="text_17">
     <!-- bytecode -->
     <g transform="translate(330.840937 138.360313) scale(0.1 -0.1)">
      <defs>
       <path id="DejaVuSans-63" d="M 3122 3366 
L 3122 2828 
Q 2878 2963 2633 3030 
Q 2388 3097 2138 3097 
Q 1578 3097 1268 2742 
Q 959 2388 959 1747 
Q 959 1106 1268 751 
Q 1578 397 2138 397 
Q 2388 397 2633 464 
Q 2878 531 3122 666 
L 3122 134 
Q 2881 22 2623 -34 
Q 2366 -91 2075 -91 
Q 1284 -91 818 406 
Q 353 903 353 1747 
Q 353 2603 823 3093 
Q 1294 3584 2113 3584 
Q 2378 3584 2631 3529 
Q 2884 3475 3122 3366 
z
" transform="scale(0.015625)"/>
       <path id="DejaVuSans-64" d="M 2906 2969 
L 2906 4863 
L 3481 4863 
L 3481 0 
L 2906 0 
L 2906 525 
Q 2725 213 2448 61 
Q 2172 -91 1784 -91 
Q 1150 -91 751 415 
Q 353 922 353 1747 
Q 353 2572 751 3078 
Q 1150 3584 1784 3584 
Q 2172 3584 2448 3432 
Q 2725 3281 2906 2969 
z
M 947 1747 
Q 947 1113 1208 752 
Q 1469 391 1925 391 
Q 2381 391 2643 752 
Q 2906 1113 2906 1747 
Q 2906 2381 2643 2742 
Q 2381 3103 1925 3103 
Q 1469 3103 1208 2742 
Q 947 2381 947 1747 
z
" transform="scale(0.015625)"/>
      </defs>
      <use xlink:href="#DejaVuSans-62"/>
      <use xlink:href="#DejaVuSans-79" transform="translate(63.476562 0)"/>
      <use xlink:href="#DejaVuSans-74" transform="translate(122.65625 0)"/>
      <use xlink:href="#DejaVuSans-65" transform="translate(161.865234 0)"/>
      <use xlink:href="#DejaVuSans-63" transform="translate(223.388672 0)"/>
      <use xlink:href="#DejaVuSans-6f" transform="translate(278.369141 0)"/>
      <use xlink:href="#DejaVuSans-64" transform="translate(339.550781 0)"/>
      <use xlink:href="#DejaVuSans-65" transform="translate(403.027344 0)"/>
     </g>
    </g>
    <g id="patch_8">
     <path d="M 397.300313 138.360313 
L 417.300313 138.360313 
L 417.300313 131.360313 
L 397.300313 131.360313 
z
" style="fill: #ff7f0e; fill-opacity: 0.7"/>
    </g>
    <g id="text_18">
     <!-- instruction_lookups -->
     <g transform="translate(425.300313 138.360313) scale(0.1 -0.1)">
      <defs>
       <path id="DejaVuSans-5f" d="M 3263 -1063 
L 3263 -1509 
L -63 -1509 
L -63 -1063 
L 3263 -1063 
z
" transform="scale(0.015625)"/>
       <path id="DejaVuSans-6b" d="M 581 4863 
L 1159 4863 
L 1159 1991 
L 2875 3500 
L 3609 3500 
L 1753 1863 
L 3688 0 
L 2938 0 
L 1159 1709 
L 1159 0 
L 581 0 
L 581 4863 
z
" transform="scale(0.015625)"/>
      </defs>
      <use xlink:href="#DejaVuSans-69"/>
      <use xlink:href="#DejaVuSans-6e" transform="translate(27.783203 0)"/>
      <use xlink:href="#DejaVuSans-73" transform="translate(91.162109 0)"/>
      <use xlink:href="#DejaVuSans-74" transform="translate(143.261719 0)"/>
      <use xlink:href="#DejaVuSans-72" transform="translate(182.470703 0)"/>
      <use xlink:href="#DejaVuSans-75" transform="translate(223.583984 0)"/>
      <use xlink:href="#DejaVuSans-63" transform="translate(286.962891 0)"/>
      <use xlink:href="#DejaVuSans-74" transform="translate(341.943359 0)"/>
      <use xlink:href="#DejaVuSans-69" transform="translate(381.152344 0)"/>
      <use xlink:href="#DejaVuSans-6f" transform="translate(408.935547 0)"/>
      <use xlink:href="#DejaVuSans-6e" transform="translate(470.117188 0)"/>
      <use xlink:href="#DejaVuSans-5f" transform="translate(533.496094 0)"/>
      <use xlink:href="#DejaVuSans-6c" transform="translate(583.496094 0)"/>
      <use xlink:href="#DejaVuSans-6f" transform="translate(611.279297 0)"/>
      <use xlink:href="#DejaVuSans-6f" transform="translate(672.460938 0)"/>
      <use xlink:href="#DejaVuSans-6b" transform="translate(733.642578 0)"/>
      <use xlink:href="#DejaVuSans-75" transform="translate(788.427734 0)"/>
      <use xlink:href="#DejaVuSans-70" transform="translate(851.806641 0)"/>
      <use xlink:href="#DejaVuSans-73" transform="translate(915.283203 0)"/>
     </g>
    </g>
    <g id="patch_9">
     <path d="M 542.03625 138.360313 
L 562.03625 138.360313 
L 562.03625 131.360313 
L 542.03625 131.360313 
z
" style="fill: #2ca02c; fill-opacity: 0.7"/>
    </g>
    <g id="text_19">
     <!-- memory -->
     <g transform="translate(570.03625 138.360313) scale(0.1 -0.1)">
      <use xlink:href="#DejaVuSans-6d"/>
      <use xlink:href="#DejaVuSans-65" transform="translate(97.412109 0)"/>
      <use xlink:href="#DejaVuSans-6d" transform="translate(158.935547 0)"/>
      <use xlink:href="#DejaVuSans-6f" transform="translate(256.347656 0)"/>
      <use xlink:href="#DejaVuSans-72" transform="translate(317.529297 0)"/>
      <use xlink:href="#DejaVuSans-79" transform="translate(358.642578 0)"/>
     </g>
    </g>
   </g>
  </g>
 </g>
 <defs>
  <clipPath id="pa75d1cf6a2">
   <rect x="62.54" y="27" width="789.58" height="217.48"/>
  </clipPath>
 </defs>
</svg>
