<?xml version="1.0" encoding="utf-8" standalone="no"?>
<!DOCTYPE svg PUBLIC "-//W3C//DTD SVG 1.1//EN"
  "http://www.w3.org/Graphics/SVG/1.1/DTD/svg11.dtd">
<svg xmlns:xlink="http://www.w3.org/1999/xlink" width="864pt" height="288pt" viewBox="0 0 864 288" xmlns="http://www.w3.org/2000/svg" version="1.1">
 <metadata>
  <rdf:RDF xmlns:dc="http://purl.org/dc/elements/1.1/" xmlns:cc="http://creativecommons.org/ns#" xmlns:rdf="http://www.w3.org/1999/02/22-rdf-syntax-ns#">
   <cc:Work>
    <dc:type rdf:resource="http://purl.org/dc/dcmitype/StillImage"/>
    <dc:date>2025-09-10T11:05:38.983118</dc:date>
    <dc:format>image/svg+xml</dc:format>
    <dc:creator>
     <cc:Agent>
      <dc:title>Matplotlib v3.10.6, https://matplotlib.org/</dc:title>
     </cc:Agent>
    </dc:creator>
   </cc:Work>
  </rdf:RDF>
 </metadata>
 <defs>
  <style type="text/css">*{stroke-linejoin: round; stroke-linecap: butt}</style>
 </defs>
 <g id="figure_1">
  <g id="patch_1">
   <path d="M 0 288 
L 864 288 
L 864 0 
L 0 0 
z
" style="fill: #ffffff"/>
  </g>
  <g id="axes_1">
   <g id="patch_2">
    <path d="M 56.24 244.48 
L 852.12 244.48 
L 852.12 27 
L 56.24 27 
z
" style="fill: #ffffff"/>
   </g>
   <g id="FillBetweenPolyCollection_1">
    <path d="M 92.416364 229.102626 
L 92.416364 234.594545 
L 97.621596 234.594545 
L 102.826828 234.594545 
L 108.03206 234.594545 
L 113.237292 234.594545 
L 118.442525 234.594545 
L 123.647757 234.594545 
L 128.852989 234.594545 
L 134.058221 234.594545 
L 139.263453 234.594545 
L 144.468685 234.594545 
L 149.673918 234.594545 
L 154.87915 234.594545 
L 160.084382 234.594545 
L 165.289614 234.594545 
L 170.494846 234.594545 
L 175.700078 234.594545 
L 180.905311 234.594545 
L 186.110543 234.594545 
L 191.315775 234.594545 
L 196.521007 234.594545 
L 201.726239 234.594545 
L 206.931472 234.594545 
L 212.136704 234.594545 
L 217.341936 234.594545 
L 222.547168 234.594545 
L 227.7524 234.594545 
L 232.957632 234.594545 
L 238.162865 234.594545 
L 243.368097 234.594545 
L 248.573329 234.594545 
L 253.778561 234.594545 
L 258.983793 234.594545 
L 264.189026 234.594545 
L 269.394258 234.594545 
L 274.59949 234.594545 
L 279.804722 234.594545 
L 285.009954 234.594545 
L 290.215186 234.594545 
L 295.420419 234.594545 
L 300.625651 234.594545 
L 305.830883 234.594545 
L 311.036115 234.594545 
L 316.241347 234.594545 
L 321.446579 234.594545 
L 326.651812 234.594545 
L 331.857044 234.594545 
L 337.062276 234.594545 
L 342.267508 234.594545 
L 347.47274 234.594545 
L 357.883205 234.594545 
L 368.293669 234.594545 
L 378.704133 234.594545 
L 389.114598 234.594545 
L 399.525062 234.594545 
L 409.935526 234.594545 
L 420.345991 234.594545 
L 430.756455 234.594545 
L 441.16692 234.594545 
L 451.577384 234.594545 
L 461.987848 234.594545 
L 472.398313 234.594545 
L 482.808777 234.594545 
L 493.219241 234.594545 
L 503.629706 234.594545 
L 514.04017 234.594545 
L 524.450634 234.594545 
L 534.861099 234.594545 
L 545.271563 234.594545 
L 555.682027 234.594545 
L 566.092492 234.594545 
L 576.502956 234.594545 
L 586.913421 234.594545 
L 597.323885 234.594545 
L 607.734349 234.594545 
L 633.76051 234.594545 
L 659.786671 234.594545 
L 685.812832 234.594545 
L 711.838993 234.594545 
L 737.865154 234.594545 
L 763.891315 234.594545 
L 789.917475 234.594545 
L 815.943636 234.594545 
L 815.943636 226.356667 
L 815.943636 226.356667 
L 789.917475 226.356667 
L 763.891315 226.356667 
L 737.865154 226.356667 
L 711.838993 226.356667 
L 685.812832 226.356667 
L 659.786671 226.356667 
L 633.76051 226.356667 
L 607.734349 226.356667 
L 597.323885 226.356667 
L 586.913421 226.356667 
L 576.502956 226.356667 
L 566.092492 226.356667 
L 555.682027 226.356667 
L 545.271563 226.356667 
L 534.861099 226.356667 
L 524.450634 226.356667 
L 514.04017 226.356667 
L 503.629706 226.356667 
L 493.219241 226.356667 
L 482.808777 226.356667 
L 472.398313 226.356667 
L 461.987848 226.356667 
L 451.577384 226.356667 
L 441.16692 229.102626 
L 430.756455 226.356667 
L 420.345991 226.356667 
L 409.935526 226.356667 
L 399.525062 226.356667 
L 389.114598 226.356667 
L 378.704133 226.356667 
L 368.293669 226.356667 
L 357.883205 226.356667 
L 347.47274 226.356667 
L 342.267508 226.356667 
L 337.062276 226.356667 
L 331.857044 226.356667 
L 326.651812 226.356667 
L 321.446579 226.356667 
L 316.241347 226.356667 
L 311.036115 226.356667 
L 305.830883 226.356667 
L 300.625651 226.356667 
L 295.420419 226.356667 
L 290.215186 226.356667 
L 285.009954 226.356667 
L 279.804722 226.356667 
L 274.59949 226.356667 
L 269.394258 229.102626 
L 264.189026 226.356667 
L 258.983793 226.356667 
L 253.778561 226.356667 
L 248.573329 226.356667 
L 243.368097 226.356667 
L 238.162865 226.356667 
L 232.957632 226.356667 
L 227.7524 226.356667 
L 222.547168 226.356667 
L 217.341936 229.102626 
L 212.136704 226.356667 
L 206.931472 226.356667 
L 201.726239 226.356667 
L 196.521007 226.356667 
L 191.315775 226.356667 
L 186.110543 229.102626 
L 180.905311 226.356667 
L 175.700078 229.102626 
L 170.494846 226.356667 
L 165.289614 229.102626 
L 160.084382 229.102626 
L 154.87915 229.102626 
L 149.673918 229.102626 
L 144.468685 229.102626 
L 139.263453 229.102626 
L 134.058221 226.356667 
L 128.852989 229.102626 
L 123.647757 229.102626 
L 118.442525 229.102626 
L 113.237292 229.102626 
L 108.03206 229.102626 
L 102.826828 229.102626 
L 97.621596 229.102626 
L 92.416364 229.102626 
z
" clip-path="url(#p5b197ccaa4)" style="fill: #1f77b4; fill-opacity: 0.7"/>
   </g>
   <g id="FillBetweenPolyCollection_2">
    <path d="M 92.416364 185.167273 
L 92.416364 229.102626 
L 97.621596 229.102626 
L 102.826828 229.102626 
L 108.03206 229.102626 
L 113.237292 229.102626 
L 118.442525 229.102626 
L 123.647757 229.102626 
L 128.852989 229.102626 
L 134.058221 226.356667 
L 139.263453 229.102626 
L 144.468685 229.102626 
L 149.673918 229.102626 
L 154.87915 229.102626 
L 160.084382 229.102626 
L 165.289614 229.102626 
L 170.494846 226.356667 
L 175.700078 229.102626 
L 180.905311 226.356667 
L 186.110543 229.102626 
L 191.315775 226.356667 
L 196.521007 226.356667 
L 201.726239 226.356667 
L 206.931472 226.356667 
L 212.136704 226.356667 
L 217.341936 229.102626 
L 222.547168 226.356667 
L 227.7524 226.356667 
L 232.957632 226.356667 
L 238.162865 226.356667 
L 243.368097 226.356667 
L 248.573329 226.356667 
L 253.778561 226.356667 
L 258.983793 226.356667 
L 264.189026 226.356667 
L 269.394258 229.102626 
L 274.59949 226.356667 
L 279.804722 226.356667 
L 285.009954 226.356667 
L 290.215186 226.356667 
L 295.420419 226.356667 
L 300.625651 226.356667 
L 305.830883 226.356667 
L 311.036115 226.356667 
L 316.241347 226.356667 
L 321.446579 226.356667 
L 326.651812 226.356667 
L 331.857044 226.356667 
L 337.062276 226.356667 
L 342.267508 226.356667 
L 347.47274 226.356667 
L 357.883205 226.356667 
L 368.293669 226.356667 
L 378.704133 226.356667 
L 389.114598 226.356667 
L 399.525062 226.356667 
L 409.935526 226.356667 
L 420.345991 226.356667 
L 430.756455 226.356667 
L 441.16692 229.102626 
L 451.577384 226.356667 
L 461.987848 226.356667 
L 472.398313 226.356667 
L 482.808777 226.356667 
L 493.219241 226.356667 
L 503.629706 226.356667 
L 514.04017 226.356667 
L 524.450634 226.356667 
L 534.861099 226.356667 
L 545.271563 226.356667 
L 555.682027 226.356667 
L 566.092492 226.356667 
L 576.502956 226.356667 
L 586.913421 226.356667 
L 597.323885 226.356667 
L 607.734349 226.356667 
L 633.76051 226.356667 
L 659.786671 226.356667 
L 685.812832 226.356667 
L 711.838993 226.356667 
L 737.865154 226.356667 
L 763.891315 226.356667 
L 789.917475 226.356667 
L 815.943636 226.356667 
L 815.943636 176.929394 
L 815.943636 176.929394 
L 789.917475 179.675354 
L 763.891315 176.929394 
L 737.865154 179.675354 
L 711.838993 179.675354 
L 685.812832 176.929394 
L 659.786671 179.675354 
L 633.76051 179.675354 
L 607.734349 179.675354 
L 597.323885 179.675354 
L 586.913421 179.675354 
L 576.502956 179.675354 
L 566.092492 179.675354 
L 555.682027 179.675354 
L 545.271563 179.675354 
L 534.861099 179.675354 
L 524.450634 179.675354 
L 514.04017 179.675354 
L 503.629706 179.675354 
L 493.219241 179.675354 
L 482.808777 179.675354 
L 472.398313 179.675354 
L 461.987848 179.675354 
L 451.577384 179.675354 
L 441.16692 182.421313 
L 430.756455 179.675354 
L 420.345991 179.675354 
L 409.935526 179.675354 
L 399.525062 179.675354 
L 389.114598 179.675354 
L 378.704133 179.675354 
L 368.293669 179.675354 
L 357.883205 179.675354 
L 347.47274 179.675354 
L 342.267508 179.675354 
L 337.062276 179.675354 
L 331.857044 179.675354 
L 326.651812 179.675354 
L 321.446579 179.675354 
L 316.241347 179.675354 
L 311.036115 75.328889 
L 305.830883 154.961717 
L 300.625651 108.280404 
L 295.420419 165.945556 
L 290.215186 135.74 
L 285.009954 80.820808 
L 279.804722 179.675354 
L 274.59949 179.675354 
L 269.394258 182.421313 
L 264.189026 179.675354 
L 258.983793 179.675354 
L 253.778561 179.675354 
L 248.573329 157.707677 
L 243.368097 179.675354 
L 238.162865 179.675354 
L 232.957632 179.675354 
L 227.7524 179.675354 
L 222.547168 179.675354 
L 217.341936 157.707677 
L 212.136704 165.945556 
L 206.931472 163.199596 
L 201.726239 168.691515 
L 196.521007 179.675354 
L 191.315775 157.707677 
L 186.110543 154.961717 
L 180.905311 168.691515 
L 175.700078 182.421313 
L 170.494846 182.421313 
L 165.289614 182.421313 
L 160.084382 182.421313 
L 154.87915 182.421313 
L 149.673918 185.167273 
L 144.468685 185.167273 
L 139.263453 182.421313 
L 134.058221 182.421313 
L 128.852989 185.167273 
L 123.647757 185.167273 
L 118.442525 182.421313 
L 113.237292 182.421313 
L 108.03206 185.167273 
L 102.826828 185.167273 
L 97.621596 185.167273 
L 92.416364 185.167273 
z
" clip-path="url(#p5b197ccaa4)" style="fill: #ff7f0e; fill-opacity: 0.7"/>
   </g>
   <g id="FillBetweenPolyCollection_3">
    <path d="M 92.416364 152.215758 
L 92.416364 185.167273 
L 97.621596 185.167273 
L 102.826828 185.167273 
L 108.03206 185.167273 
L 113.237292 182.421313 
L 118.442525 182.421313 
L 123.647757 185.167273 
L 128.852989 185.167273 
L 134.058221 182.421313 
L 139.263453 182.421313 
L 144.468685 185.167273 
L 149.673918 185.167273 
L 154.87915 182.421313 
L 160.084382 182.421313 
L 165.289614 182.421313 
L 170.494846 182.421313 
L 175.700078 182.421313 
L 180.905311 168.691515 
L 186.110543 154.961717 
L 191.315775 157.707677 
L 196.521007 179.675354 
L 201.726239 168.691515 
L 206.931472 163.199596 
L 212.136704 165.945556 
L 217.341936 157.707677 
L 222.547168 179.675354 
L 227.7524 179.675354 
L 232.957632 179.675354 
L 238.162865 179.675354 
L 243.368097 179.675354 
L 248.573329 157.707677 
L 253.778561 179.675354 
L 258.983793 179.675354 
L 264.189026 179.675354 
L 269.394258 182.421313 
L 274.59949 179.675354 
L 279.804722 179.675354 
L 285.009954 80.820808 
L 290.215186 135.74 
L 295.420419 165.945556 
L 300.625651 108.280404 
L 305.830883 154.961717 
L 311.036115 75.328889 
L 316.241347 179.675354 
L 321.446579 179.675354 
L 326.651812 179.675354 
L 331.857044 179.675354 
L 337.062276 179.675354 
L 342.267508 179.675354 
L 347.47274 179.675354 
L 357.883205 179.675354 
L 368.293669 179.675354 
L 378.704133 179.675354 
L 389.114598 179.675354 
L 399.525062 179.675354 
L 409.935526 179.675354 
L 420.345991 179.675354 
L 430.756455 179.675354 
L 441.16692 182.421313 
L 451.577384 179.675354 
L 461.987848 179.675354 
L 472.398313 179.675354 
L 482.808777 179.675354 
L 493.219241 179.675354 
L 503.629706 179.675354 
L 514.04017 179.675354 
L 524.450634 179.675354 
L 534.861099 179.675354 
L 545.271563 179.675354 
L 555.682027 179.675354 
L 566.092492 179.675354 
L 576.502956 179.675354 
L 586.913421 179.675354 
L 597.323885 179.675354 
L 607.734349 179.675354 
L 633.76051 179.675354 
L 659.786671 179.675354 
L 685.812832 176.929394 
L 711.838993 179.675354 
L 737.865154 179.675354 
L 763.891315 176.929394 
L 789.917475 179.675354 
L 815.943636 176.929394 
L 815.943636 100.042525 
L 815.943636 100.042525 
L 789.917475 108.280404 
L 763.891315 100.042525 
L 737.865154 113.772323 
L 711.838993 105.534444 
L 685.812832 100.042525 
L 659.786671 113.772323 
L 633.76051 100.042525 
L 607.734349 91.804646 
L 597.323885 97.296566 
L 586.913421 108.280404 
L 576.502956 100.042525 
L 566.092492 102.788485 
L 555.682027 97.296566 
L 545.271563 94.550606 
L 534.861099 141.231919 
L 524.450634 100.042525 
L 514.04017 141.231919 
L 503.629706 143.977879 
L 493.219241 143.977879 
L 482.808777 143.977879 
L 472.398313 143.977879 
L 461.987848 141.231919 
L 451.577384 143.977879 
L 441.16692 146.723838 
L 430.756455 143.977879 
L 420.345991 143.977879 
L 409.935526 143.977879 
L 399.525062 143.977879 
L 389.114598 143.977879 
L 378.704133 143.977879 
L 368.293669 143.977879 
L 357.883205 143.977879 
L 347.47274 143.977879 
L 342.267508 143.977879 
L 337.062276 141.231919 
L 331.857044 143.977879 
L 326.651812 141.231919 
L 321.446579 143.977879 
L 316.241347 141.231919 
L 311.036115 36.885455 
L 305.830883 119.264242 
L 300.625651 72.582929 
L 295.420419 130.248081 
L 290.215186 100.042525 
L 285.009954 45.123333 
L 279.804722 143.977879 
L 274.59949 143.977879 
L 269.394258 146.723838 
L 264.189026 143.977879 
L 258.983793 143.977879 
L 253.778561 143.977879 
L 248.573329 122.010202 
L 243.368097 143.977879 
L 238.162865 143.977879 
L 232.957632 143.977879 
L 227.7524 143.977879 
L 222.547168 143.977879 
L 217.341936 122.010202 
L 212.136704 130.248081 
L 206.931472 127.502121 
L 201.726239 132.99404 
L 196.521007 143.977879 
L 191.315775 122.010202 
L 186.110543 119.264242 
L 180.905311 132.99404 
L 175.700078 146.723838 
L 170.494846 146.723838 
L 165.289614 146.723838 
L 160.084382 146.723838 
L 154.87915 146.723838 
L 149.673918 149.469798 
L 144.468685 149.469798 
L 139.263453 146.723838 
L 134.058221 146.723838 
L 128.852989 149.469798 
L 123.647757 149.469798 
L 118.442525 149.469798 
L 113.237292 146.723838 
L 108.03206 152.215758 
L 102.826828 152.215758 
L 97.621596 152.215758 
L 92.416364 152.215758 
z
" clip-path="url(#p5b197ccaa4)" style="fill: #2ca02c; fill-opacity: 0.7"/>
   </g>
   <g id="matplotlib.axis_1">
    <g id="xtick_1">
     <g id="line2d_1">
      <path d="M 87.211131 244.48 
L 87.211131 27 
" clip-path="url(#p5b197ccaa4)" style="fill: none; stroke: #b0b0b0; stroke-opacity: 0.25; stroke-width: 0.8; stroke-linecap: square"/>
     </g>
     <g id="line2d_2">
      <defs>
       <path id="maa66c8a581" d="M 0 0 
L 0 3.5 
" style="stroke: #000000; stroke-width: 0.8"/>
      </defs>
      <g>
       <use xlink:href="#maa66c8a581" x="87.211131" y="244.48" style="stroke: #000000; stroke-width: 0.8"/>
      </g>
     </g>
     <g id="text_1">
      <!-- 0 -->
      <g transform="translate(84.029881 259.078438) scale(0.1 -0.1)">
       <defs>
        <path id="DejaVuSans-30" d="M 2034 4250 
Q 1547 4250 1301 3770 
Q 1056 3291 1056 2328 
Q 1056 1369 1301 889 
Q 1547 409 2034 409 
Q 2525 409 2770 889 
Q 3016 1369 3016 2328 
Q 3016 3291 2770 3770 
Q 2525 4250 2034 4250 
z
M 2034 4750 
Q 2819 4750 3233 4129 
Q 3647 3509 3647 2328 
Q 3647 1150 3233 529 
Q 2819 -91 2034 -91 
Q 1250 -91 836 529 
Q 422 1150 422 2328 
Q 422 3509 836 4129 
Q 1250 4750 2034 4750 
z
" transform="scale(0.015625)"/>
       </defs>
       <use xlink:href="#DejaVuSans-30"/>
      </g>
     </g>
    </g>
    <g id="xtick_2">
     <g id="line2d_3">
      <path d="M 191.315775 244.48 
L 191.315775 27 
" clip-path="url(#p5b197ccaa4)" style="fill: none; stroke: #b0b0b0; stroke-opacity: 0.25; stroke-width: 0.8; stroke-linecap: square"/>
     </g>
     <g id="line2d_4">
      <g>
       <use xlink:href="#maa66c8a581" x="191.315775" y="244.48" style="stroke: #000000; stroke-width: 0.8"/>
      </g>
     </g>
     <g id="text_2">
      <!-- 20 -->
      <g transform="translate(184.953275 259.078438) scale(0.1 -0.1)">
       <defs>
        <path id="DejaVuSans-32" d="M 1228 531 
L 3431 531 
L 3431 0 
L 469 0 
L 469 531 
Q 828 903 1448 1529 
Q 2069 2156 2228 2338 
Q 2531 2678 2651 2914 
Q 2772 3150 2772 3378 
Q 2772 3750 2511 3984 
Q 2250 4219 1831 4219 
Q 1534 4219 1204 4116 
Q 875 4013 500 3803 
L 500 4441 
Q 881 4594 1212 4672 
Q 1544 4750 1819 4750 
Q 2544 4750 2975 4387 
Q 3406 4025 3406 3419 
Q 3406 3131 3298 2873 
Q 3191 2616 2906 2266 
Q 2828 2175 2409 1742 
Q 1991 1309 1228 531 
z
" transform="scale(0.015625)"/>
       </defs>
       <use xlink:href="#DejaVuSans-32"/>
       <use xlink:href="#DejaVuSans-30" transform="translate(63.623047 0)"/>
      </g>
     </g>
    </g>
    <g id="xtick_3">
     <g id="line2d_5">
      <path d="M 295.420419 244.48 
L 295.420419 27 
" clip-path="url(#p5b197ccaa4)" style="fill: none; stroke: #b0b0b0; stroke-opacity: 0.25; stroke-width: 0.8; stroke-linecap: square"/>
     </g>
     <g id="line2d_6">
      <g>
       <use xlink:href="#maa66c8a581" x="295.420419" y="244.48" style="stroke: #000000; stroke-width: 0.8"/>
      </g>
     </g>
     <g id="text_3">
      <!-- 40 -->
      <g transform="translate(289.057919 259.078438) scale(0.1 -0.1)">
       <defs>
        <path id="DejaVuSans-34" d="M 2419 4116 
L 825 1625 
L 2419 1625 
L 2419 4116 
z
M 2253 4666 
L 3047 4666 
L 3047 1625 
L 3713 1625 
L 3713 1100 
L 3047 1100 
L 3047 0 
L 2419 0 
L 2419 1100 
L 313 1100 
L 313 1709 
L 2253 4666 
z
" transform="scale(0.015625)"/>
       </defs>
       <use xlink:href="#DejaVuSans-34"/>
       <use xlink:href="#DejaVuSans-30" transform="translate(63.623047 0)"/>
      </g>
     </g>
    </g>
    <g id="xtick_4">
     <g id="line2d_7">
      <path d="M 399.525062 244.48 
L 399.525062 27 
" clip-path="url(#p5b197ccaa4)" style="fill: none; stroke: #b0b0b0; stroke-opacity: 0.25; stroke-width: 0.8; stroke-linecap: square"/>
     </g>
     <g id="line2d_8">
      <g>
       <use xlink:href="#maa66c8a581" x="399.525062" y="244.48" style="stroke: #000000; stroke-width: 0.8"/>
      </g>
     </g>
     <g id="text_4">
      <!-- 60 -->
      <g transform="translate(393.162562 259.078438) scale(0.1 -0.1)">
       <defs>
        <path id="DejaVuSans-36" d="M 2113 2584 
Q 1688 2584 1439 2293 
Q 1191 2003 1191 1497 
Q 1191 994 1439 701 
Q 1688 409 2113 409 
Q 2538 409 2786 701 
Q 3034 994 3034 1497 
Q 3034 2003 2786 2293 
Q 2538 2584 2113 2584 
z
M 3366 4563 
L 3366 3988 
Q 3128 4100 2886 4159 
Q 2644 4219 2406 4219 
Q 1781 4219 1451 3797 
Q 1122 3375 1075 2522 
Q 1259 2794 1537 2939 
Q 1816 3084 2150 3084 
Q 2853 3084 3261 2657 
Q 3669 2231 3669 1497 
Q 3669 778 3244 343 
Q 2819 -91 2113 -91 
Q 1303 -91 875 529 
Q 447 1150 447 2328 
Q 447 3434 972 4092 
Q 1497 4750 2381 4750 
Q 2619 4750 2861 4703 
Q 3103 4656 3366 4563 
z
" transform="scale(0.015625)"/>
       </defs>
       <use xlink:href="#DejaVuSans-36"/>
       <use xlink:href="#DejaVuSans-30" transform="translate(63.623047 0)"/>
      </g>
     </g>
    </g>
    <g id="xtick_5">
     <g id="line2d_9">
      <path d="M 503.629706 244.48 
L 503.629706 27 
" clip-path="url(#p5b197ccaa4)" style="fill: none; stroke: #b0b0b0; stroke-opacity: 0.25; stroke-width: 0.8; stroke-linecap: square"/>
     </g>
     <g id="line2d_10">
      <g>
       <use xlink:href="#maa66c8a581" x="503.629706" y="244.48" style="stroke: #000000; stroke-width: 0.8"/>
      </g>
     </g>
     <g id="text_5">
      <!-- 80 -->
      <g transform="translate(497.267206 259.078438) scale(0.1 -0.1)">
       <defs>
        <path id="DejaVuSans-38" d="M 2034 2216 
Q 1584 2216 1326 1975 
Q 1069 1734 1069 1313 
Q 1069 891 1326 650 
Q 1584 409 2034 409 
Q 2484 409 2743 651 
Q 3003 894 3003 1313 
Q 3003 1734 2745 1975 
Q 2488 2216 2034 2216 
z
M 1403 2484 
Q 997 2584 770 2862 
Q 544 3141 544 3541 
Q 544 4100 942 4425 
Q 1341 4750 2034 4750 
Q 2731 4750 3128 4425 
Q 3525 4100 3525 3541 
Q 3525 3141 3298 2862 
Q 3072 2584 2669 2484 
Q 3125 2378 3379 2068 
Q 3634 1759 3634 1313 
Q 3634 634 3220 271 
Q 2806 -91 2034 -91 
Q 1263 -91 848 271 
Q 434 634 434 1313 
Q 434 1759 690 2068 
Q 947 2378 1403 2484 
z
M 1172 3481 
Q 1172 3119 1398 2916 
Q 1625 2713 2034 2713 
Q 2441 2713 2670 2916 
Q 2900 3119 2900 3481 
Q 2900 3844 2670 4047 
Q 2441 4250 2034 4250 
Q 1625 4250 1398 4047 
Q 1172 3844 1172 3481 
z
" transform="scale(0.015625)"/>
       </defs>
       <use xlink:href="#DejaVuSans-38"/>
       <use xlink:href="#DejaVuSans-30" transform="translate(63.623047 0)"/>
      </g>
     </g>
    </g>
    <g id="xtick_6">
     <g id="line2d_11">
      <path d="M 607.734349 244.48 
L 607.734349 27 
" clip-path="url(#p5b197ccaa4)" style="fill: none; stroke: #b0b0b0; stroke-opacity: 0.25; stroke-width: 0.8; stroke-linecap: square"/>
     </g>
     <g id="line2d_12">
      <g>
       <use xlink:href="#maa66c8a581" x="607.734349" y="244.48" style="stroke: #000000; stroke-width: 0.8"/>
      </g>
     </g>
     <g id="text_6">
      <!-- 100 -->
      <g transform="translate(598.190599 259.078438) scale(0.1 -0.1)">
       <defs>
        <path id="DejaVuSans-31" d="M 794 531 
L 1825 531 
L 1825 4091 
L 703 3866 
L 703 4441 
L 1819 4666 
L 2450 4666 
L 2450 531 
L 3481 531 
L 3481 0 
L 794 0 
L 794 531 
z
" transform="scale(0.015625)"/>
       </defs>
       <use xlink:href="#DejaVuSans-31"/>
       <use xlink:href="#DejaVuSans-30" transform="translate(63.623047 0)"/>
       <use xlink:href="#DejaVuSans-30" transform="translate(127.246094 0)"/>
      </g>
     </g>
    </g>
    <g id="xtick_7">
     <g id="line2d_13">
      <path d="M 711.838993 244.48 
L 711.838993 27 
" clip-path="url(#p5b197ccaa4)" style="fill: none; stroke: #b0b0b0; stroke-opacity: 0.25; stroke-width: 0.8; stroke-linecap: square"/>
     </g>
     <g id="line2d_14">
      <g>
       <use xlink:href="#maa66c8a581" x="711.838993" y="244.48" style="stroke: #000000; stroke-width: 0.8"/>
      </g>
     </g>
     <g id="text_7">
      <!-- 120 -->
      <g transform="translate(702.295243 259.078438) scale(0.1 -0.1)">
       <use xlink:href="#DejaVuSans-31"/>
       <use xlink:href="#DejaVuSans-32" transform="translate(63.623047 0)"/>
       <use xlink:href="#DejaVuSans-30" transform="translate(127.246094 0)"/>
      </g>
     </g>
    </g>
    <g id="xtick_8">
     <g id="line2d_15">
      <path d="M 815.943636 244.48 
L 815.943636 27 
" clip-path="url(#p5b197ccaa4)" style="fill: none; stroke: #b0b0b0; stroke-opacity: 0.25; stroke-width: 0.8; stroke-linecap: square"/>
     </g>
     <g id="line2d_16">
      <g>
       <use xlink:href="#maa66c8a581" x="815.943636" y="244.48" style="stroke: #000000; stroke-width: 0.8"/>
      </g>
     </g>
     <g id="text_8">
      <!-- 140 -->
      <g transform="translate(806.399886 259.078438) scale(0.1 -0.1)">
       <use xlink:href="#DejaVuSans-31"/>
       <use xlink:href="#DejaVuSans-34" transform="translate(63.623047 0)"/>
       <use xlink:href="#DejaVuSans-30" transform="translate(127.246094 0)"/>
      </g>
     </g>
    </g>
    <g id="text_9">
     <!-- Input -->
     <g transform="translate(439.938438 273.516406) scale(0.11 -0.11)">
      <defs>
       <path id="DejaVuSans-49" d="M 628 4666 
L 1259 4666 
L 1259 0 
L 628 0 
L 628 4666 
z
" transform="scale(0.015625)"/>
       <path id="DejaVuSans-6e" d="M 3513 2113 
L 3513 0 
L 2938 0 
L 2938 2094 
Q 2938 2591 2744 2837 
Q 2550 3084 2163 3084 
Q 1697 3084 1428 2787 
Q 1159 2491 1159 1978 
L 1159 0 
L 581 0 
L 581 3500 
L 1159 3500 
L 1159 2956 
Q 1366 3272 1645 3428 
Q 1925 3584 2291 3584 
Q 2894 3584 3203 3211 
Q 3513 2838 3513 2113 
z
" transform="scale(0.015625)"/>
       <path id="DejaVuSans-70" d="M 1159 525 
L 1159 -1331 
L 581 -1331 
L 581 3500 
L 1159 3500 
L 1159 2969 
Q 1341 3281 1617 3432 
Q 1894 3584 2278 3584 
Q 2916 3584 3314 3078 
Q 3713 2572 3713 1747 
Q 3713 922 3314 415 
Q 2916 -91 2278 -91 
Q 1894 -91 1617 61 
Q 1341 213 1159 525 
z
M 3116 1747 
Q 3116 2381 2855 2742 
Q 2594 3103 2138 3103 
Q 1681 3103 1420 2742 
Q 1159 2381 1159 1747 
Q 1159 1113 1420 752 
Q 1681 391 2138 391 
Q 2594 391 2855 752 
Q 3116 1113 3116 1747 
z
" transform="scale(0.015625)"/>
       <path id="DejaVuSans-75" d="M 544 1381 
L 544 3500 
L 1119 3500 
L 1119 1403 
Q 1119 906 1312 657 
Q 1506 409 1894 409 
Q 2359 409 2629 706 
Q 2900 1003 2900 1516 
L 2900 3500 
L 3475 3500 
L 3475 0 
L 2900 0 
L 2900 538 
Q 2691 219 2414 64 
Q 2138 -91 1772 -91 
Q 1169 -91 856 284 
Q 544 659 544 1381 
z
M 1991 3584 
L 1991 3584 
z
" transform="scale(0.015625)"/>
       <path id="DejaVuSans-74" d="M 1172 4494 
L 1172 3500 
L 2356 3500 
L 2356 3053 
L 1172 3053 
L 1172 1153 
Q 1172 725 1289 603 
Q 1406 481 1766 481 
L 2356 481 
L 2356 0 
L 1766 0 
Q 1100 0 847 248 
Q 594 497 594 1153 
L 594 3053 
L 172 3053 
L 172 3500 
L 594 3500 
L 594 4494 
L 1172 4494 
z
" transform="scale(0.015625)"/>
      </defs>
      <use xlink:href="#DejaVuSans-49"/>
      <use xlink:href="#DejaVuSans-6e" transform="translate(29.492188 0)"/>
      <use xlink:href="#DejaVuSans-70" transform="translate(92.871094 0)"/>
      <use xlink:href="#DejaVuSans-75" transform="translate(156.347656 0)"/>
      <use xlink:href="#DejaVuSans-74" transform="translate(219.726562 0)"/>
     </g>
    </g>
   </g>
   <g id="matplotlib.axis_2">
    <g id="ytick_1">
     <g id="line2d_17">
      <path d="M 56.24 234.594545 
L 852.12 234.594545 
" clip-path="url(#p5b197ccaa4)" style="fill: none; stroke: #b0b0b0; stroke-opacity: 0.25; stroke-width: 0.8; stroke-linecap: square"/>
     </g>
     <g id="line2d_18">
      <defs>
       <path id="m6108e40f49" d="M 0 0 
L -3.5 0 
" style="stroke: #000000; stroke-width: 0.8"/>
      </defs>
      <g>
       <use xlink:href="#m6108e40f49" x="56.24" y="234.594545" style="stroke: #000000; stroke-width: 0.8"/>
      </g>
     </g>
     <g id="text_10">
      <!-- 0.00 -->
      <g transform="translate(26.974375 238.393764) scale(0.1 -0.1)">
       <defs>
        <path id="DejaVuSans-2e" d="M 684 794 
L 1344 794 
L 1344 0 
L 684 0 
L 684 794 
z
" transform="scale(0.015625)"/>
       </defs>
       <use xlink:href="#DejaVuSans-30"/>
       <use xlink:href="#DejaVuSans-2e" transform="translate(63.623047 0)"/>
       <use xlink:href="#DejaVuSans-30" transform="translate(95.410156 0)"/>
       <use xlink:href="#DejaVuSans-30" transform="translate(159.033203 0)"/>
      </g>
     </g>
    </g>
    <g id="ytick_2">
     <g id="line2d_19">
      <path d="M 56.24 207.134949 
L 852.12 207.134949 
" clip-path="url(#p5b197ccaa4)" style="fill: none; stroke: #b0b0b0; stroke-opacity: 0.25; stroke-width: 0.8; stroke-linecap: square"/>
     </g>
     <g id="line2d_20">
      <g>
       <use xlink:href="#m6108e40f49" x="56.24" y="207.134949" style="stroke: #000000; stroke-width: 0.8"/>
      </g>
     </g>
     <g id="text_11">
      <!-- 0.01 -->
      <g transform="translate(26.974375 210.934168) scale(0.1 -0.1)">
       <use xlink:href="#DejaVuSans-30"/>
       <use xlink:href="#DejaVuSans-2e" transform="translate(63.623047 0)"/>
       <use xlink:href="#DejaVuSans-30" transform="translate(95.410156 0)"/>
       <use xlink:href="#DejaVuSans-31" transform="translate(159.033203 0)"/>
      </g>
     </g>
    </g>
    <g id="ytick_3">
     <g id="line2d_21">
      <path d="M 56.24 179.675354 
L 852.12 179.675354 
" clip-path="url(#p5b197ccaa4)" style="fill: none; stroke: #b0b0b0; stroke-opacity: 0.25; stroke-width: 0.8; stroke-linecap: square"/>
     </g>
     <g id="line2d_22">
      <g>
       <use xlink:href="#m6108e40f49" x="56.24" y="179.675354" style="stroke: #000000; stroke-width: 0.8"/>
      </g>
     </g>
     <g id="text_12">
      <!-- 0.02 -->
      <g transform="translate(26.974375 183.474572) scale(0.1 -0.1)">
       <use xlink:href="#DejaVuSans-30"/>
       <use xlink:href="#DejaVuSans-2e" transform="translate(63.623047 0)"/>
       <use xlink:href="#DejaVuSans-30" transform="translate(95.410156 0)"/>
       <use xlink:href="#DejaVuSans-32" transform="translate(159.033203 0)"/>
      </g>
     </g>
    </g>
    <g id="ytick_4">
     <g id="line2d_23">
      <path d="M 56.24 152.215758 
L 852.12 152.215758 
" clip-path="url(#p5b197ccaa4)" style="fill: none; stroke: #b0b0b0; stroke-opacity: 0.25; stroke-width: 0.8; stroke-linecap: square"/>
     </g>
     <g id="line2d_24">
      <g>
       <use xlink:href="#m6108e40f49" x="56.24" y="152.215758" style="stroke: #000000; stroke-width: 0.8"/>
      </g>
     </g>
     <g id="text_13">
      <!-- 0.03 -->
      <g transform="translate(26.974375 156.014976) scale(0.1 -0.1)">
       <defs>
        <path id="DejaVuSans-33" d="M 2597 2516 
Q 3050 2419 3304 2112 
Q 3559 1806 3559 1356 
Q 3559 666 3084 287 
Q 2609 -91 1734 -91 
Q 1441 -91 1130 -33 
Q 819 25 488 141 
L 488 750 
Q 750 597 1062 519 
Q 1375 441 1716 441 
Q 2309 441 2620 675 
Q 2931 909 2931 1356 
Q 2931 1769 2642 2001 
Q 2353 2234 1838 2234 
L 1294 2234 
L 1294 2753 
L 1863 2753 
Q 2328 2753 2575 2939 
Q 2822 3125 2822 3475 
Q 2822 3834 2567 4026 
Q 2313 4219 1838 4219 
Q 1578 4219 1281 4162 
Q 984 4106 628 3988 
L 628 4550 
Q 988 4650 1302 4700 
Q 1616 4750 1894 4750 
Q 2613 4750 3031 4423 
Q 3450 4097 3450 3541 
Q 3450 3153 3228 2886 
Q 3006 2619 2597 2516 
z
" transform="scale(0.015625)"/>
       </defs>
       <use xlink:href="#DejaVuSans-30"/>
       <use xlink:href="#DejaVuSans-2e" transform="translate(63.623047 0)"/>
       <use xlink:href="#DejaVuSans-30" transform="translate(95.410156 0)"/>
       <use xlink:href="#DejaVuSans-33" transform="translate(159.033203 0)"/>
      </g>
     </g>
    </g>
    <g id="ytick_5">
     <g id="line2d_25">
      <path d="M 56.24 124.756162 
L 852.12 124.756162 
" clip-path="url(#p5b197ccaa4)" style="fill: none; stroke: #b0b0b0; stroke-opacity: 0.25; stroke-width: 0.8; stroke-linecap: square"/>
     </g>
     <g id="line2d_26">
      <g>
       <use xlink:href="#m6108e40f49" x="56.24" y="124.756162" style="stroke: #000000; stroke-width: 0.8"/>
      </g>
     </g>
     <g id="text_14">
      <!-- 0.04 -->
      <g transform="translate(26.974375 128.55538) scale(0.1 -0.1)">
       <use xlink:href="#DejaVuSans-30"/>
       <use xlink:href="#DejaVuSans-2e" transform="translate(63.623047 0)"/>
       <use xlink:href="#DejaVuSans-30" transform="translate(95.410156 0)"/>
       <use xlink:href="#DejaVuSans-34" transform="translate(159.033203 0)"/>
      </g>
     </g>
    </g>
    <g id="ytick_6">
     <g id="line2d_27">
      <path d="M 56.24 97.296566 
L 852.12 97.296566 
" clip-path="url(#p5b197ccaa4)" style="fill: none; stroke: #b0b0b0; stroke-opacity: 0.25; stroke-width: 0.8; stroke-linecap: square"/>
     </g>
     <g id="line2d_28">
      <g>
       <use xlink:href="#m6108e40f49" x="56.24" y="97.296566" style="stroke: #000000; stroke-width: 0.8"/>
      </g>
     </g>
     <g id="text_15">
      <!-- 0.05 -->
      <g transform="translate(26.974375 101.095784) scale(0.1 -0.1)">
       <defs>
        <path id="DejaVuSans-35" d="M 691 4666 
L 3169 4666 
L 3169 4134 
L 1269 4134 
L 1269 2991 
Q 1406 3038 1543 3061 
Q 1681 3084 1819 3084 
Q 2600 3084 3056 2656 
Q 3513 2228 3513 1497 
Q 3513 744 3044 326 
Q 2575 -91 1722 -91 
Q 1428 -91 1123 -41 
Q 819 9 494 109 
L 494 744 
Q 775 591 1075 516 
Q 1375 441 1709 441 
Q 2250 441 2565 725 
Q 2881 1009 2881 1497 
Q 2881 1984 2565 2268 
Q 2250 2553 1709 2553 
Q 1456 2553 1204 2497 
Q 953 2441 691 2322 
L 691 4666 
z
" transform="scale(0.015625)"/>
       </defs>
       <use xlink:href="#DejaVuSans-30"/>
       <use xlink:href="#DejaVuSans-2e" transform="translate(63.623047 0)"/>
       <use xlink:href="#DejaVuSans-30" transform="translate(95.410156 0)"/>
       <use xlink:href="#DejaVuSans-35" transform="translate(159.033203 0)"/>
      </g>
     </g>
    </g>
    <g id="ytick_7">
     <g id="line2d_29">
      <path d="M 56.24 69.83697 
L 852.12 69.83697 
" clip-path="url(#p5b197ccaa4)" style="fill: none; stroke: #b0b0b0; stroke-opacity: 0.25; stroke-width: 0.8; stroke-linecap: square"/>
     </g>
     <g id="line2d_30">
      <g>
       <use xlink:href="#m6108e40f49" x="56.24" y="69.83697" style="stroke: #000000; stroke-width: 0.8"/>
      </g>
     </g>
     <g id="text_16">
      <!-- 0.06 -->
      <g transform="translate(26.974375 73.636188) scale(0.1 -0.1)">
       <use xlink:href="#DejaVuSans-30"/>
       <use xlink:href="#DejaVuSans-2e" transform="translate(63.623047 0)"/>
       <use xlink:href="#DejaVuSans-30" transform="translate(95.410156 0)"/>
       <use xlink:href="#DejaVuSans-36" transform="translate(159.033203 0)"/>
      </g>
     </g>
    </g>
    <g id="ytick_8">
     <g id="line2d_31">
      <path d="M 56.24 42.377374 
L 852.12 42.377374 
" clip-path="url(#p5b197ccaa4)" style="fill: none; stroke: #b0b0b0; stroke-opacity: 0.25; stroke-width: 0.8; stroke-linecap: square"/>
     </g>
     <g id="line2d_32">
      <g>
       <use xlink:href="#m6108e40f49" x="56.24" y="42.377374" style="stroke: #000000; stroke-width: 0.8"/>
      </g>
     </g>
     <g id="text_17">
      <!-- 0.07 -->
      <g transform="translate(26.974375 46.176592) scale(0.1 -0.1)">
       <defs>
        <path id="DejaVuSans-37" d="M 525 4666 
L 3525 4666 
L 3525 4397 
L 1831 0 
L 1172 0 
L 2766 4134 
L 525 4134 
L 525 4666 
z
" transform="scale(0.015625)"/>
       </defs>
       <use xlink:href="#DejaVuSans-30"/>
       <use xlink:href="#DejaVuSans-2e" transform="translate(63.623047 0)"/>
       <use xlink:href="#DejaVuSans-30" transform="translate(95.410156 0)"/>
       <use xlink:href="#DejaVuSans-37" transform="translate(159.033203 0)"/>
      </g>
     </g>
    </g>
    <g id="text_18">
     <!-- Time (s) -->
     <g transform="translate(20.686719 158.101797) rotate(-90) scale(0.11 -0.11)">
      <defs>
       <path id="DejaVuSans-54" d="M -19 4666 
L 3928 4666 
L 3928 4134 
L 2272 4134 
L 2272 0 
L 1638 0 
L 1638 4134 
L -19 4134 
L -19 4666 
z
" transform="scale(0.015625)"/>
       <path id="DejaVuSans-69" d="M 603 3500 
L 1178 3500 
L 1178 0 
L 603 0 
L 603 3500 
z
M 603 4863 
L 1178 4863 
L 1178 4134 
L 603 4134 
L 603 4863 
z
" transform="scale(0.015625)"/>
       <path id="DejaVuSans-6d" d="M 3328 2828 
Q 3544 3216 3844 3400 
Q 4144 3584 4550 3584 
Q 5097 3584 5394 3201 
Q 5691 2819 5691 2113 
L 5691 0 
L 5113 0 
L 5113 2094 
Q 5113 2597 4934 2840 
Q 4756 3084 4391 3084 
Q 3944 3084 3684 2787 
Q 3425 2491 3425 1978 
L 3425 0 
L 2847 0 
L 2847 2094 
Q 2847 2600 2669 2842 
Q 2491 3084 2119 3084 
Q 1678 3084 1418 2786 
Q 1159 2488 1159 1978 
L 1159 0 
L 581 0 
L 581 3500 
L 1159 3500 
L 1159 2956 
Q 1356 3278 1631 3431 
Q 1906 3584 2284 3584 
Q 2666 3584 2933 3390 
Q 3200 3197 3328 2828 
z
" transform="scale(0.015625)"/>
       <path id="DejaVuSans-65" d="M 3597 1894 
L 3597 1613 
L 953 1613 
Q 991 1019 1311 708 
Q 1631 397 2203 397 
Q 2534 397 2845 478 
Q 3156 559 3463 722 
L 3463 178 
Q 3153 47 2828 -22 
Q 2503 -91 2169 -91 
Q 1331 -91 842 396 
Q 353 884 353 1716 
Q 353 2575 817 3079 
Q 1281 3584 2069 3584 
Q 2775 3584 3186 3129 
Q 3597 2675 3597 1894 
z
M 3022 2063 
Q 3016 2534 2758 2815 
Q 2500 3097 2075 3097 
Q 1594 3097 1305 2825 
Q 1016 2553 972 2059 
L 3022 2063 
z
" transform="scale(0.015625)"/>
       <path id="DejaVuSans-20" transform="scale(0.015625)"/>
       <path id="DejaVuSans-28" d="M 1984 4856 
Q 1566 4138 1362 3434 
Q 1159 2731 1159 2009 
Q 1159 1288 1364 580 
Q 1569 -128 1984 -844 
L 1484 -844 
Q 1016 -109 783 600 
Q 550 1309 550 2009 
Q 550 2706 781 3412 
Q 1013 4119 1484 4856 
L 1984 4856 
z
" transform="scale(0.015625)"/>
       <path id="DejaVuSans-73" d="M 2834 3397 
L 2834 2853 
Q 2591 2978 2328 3040 
Q 2066 3103 1784 3103 
Q 1356 3103 1142 2972 
Q 928 2841 928 2578 
Q 928 2378 1081 2264 
Q 1234 2150 1697 2047 
L 1894 2003 
Q 2506 1872 2764 1633 
Q 3022 1394 3022 966 
Q 3022 478 2636 193 
Q 2250 -91 1575 -91 
Q 1294 -91 989 -36 
Q 684 19 347 128 
L 347 722 
Q 666 556 975 473 
Q 1284 391 1588 391 
Q 1994 391 2212 530 
Q 2431 669 2431 922 
Q 2431 1156 2273 1281 
Q 2116 1406 1581 1522 
L 1381 1569 
Q 847 1681 609 1914 
Q 372 2147 372 2553 
Q 372 3047 722 3315 
Q 1072 3584 1716 3584 
Q 2034 3584 2315 3537 
Q 2597 3491 2834 3397 
z
" transform="scale(0.015625)"/>
       <path id="DejaVuSans-29" d="M 513 4856 
L 1013 4856 
Q 1481 4119 1714 3412 
Q 1947 2706 1947 2009 
Q 1947 1309 1714 600 
Q 1481 -109 1013 -844 
L 513 -844 
Q 928 -128 1133 580 
Q 1338 1288 1338 2009 
Q 1338 2731 1133 3434 
Q 928 4138 513 4856 
z
" transform="scale(0.015625)"/>
      </defs>
      <use xlink:href="#DejaVuSans-54"/>
      <use xlink:href="#DejaVuSans-69" transform="translate(57.958984 0)"/>
      <use xlink:href="#DejaVuSans-6d" transform="translate(85.742188 0)"/>
      <use xlink:href="#DejaVuSans-65" transform="translate(183.154297 0)"/>
      <use xlink:href="#DejaVuSans-20" transform="translate(244.677734 0)"/>
      <use xlink:href="#DejaVuSans-28" transform="translate(276.464844 0)"/>
      <use xlink:href="#DejaVuSans-73" transform="translate(315.478516 0)"/>
      <use xlink:href="#DejaVuSans-29" transform="translate(367.578125 0)"/>
     </g>
    </g>
   </g>
   <g id="patch_3">
    <path d="M 56.24 244.48 
L 56.24 27 
" style="fill: none; stroke: #000000; stroke-width: 0.8; stroke-linejoin: miter; stroke-linecap: square"/>
   </g>
   <g id="patch_4">
    <path d="M 852.12 244.48 
L 852.12 27 
" style="fill: none; stroke: #000000; stroke-width: 0.8; stroke-linejoin: miter; stroke-linecap: square"/>
   </g>
   <g id="patch_5">
    <path d="M 56.24 244.48 
L 852.12 244.48 
" style="fill: none; stroke: #000000; stroke-width: 0.8; stroke-linejoin: miter; stroke-linecap: square"/>
   </g>
   <g id="patch_6">
    <path d="M 56.24 27 
L 852.12 27 
" style="fill: none; stroke: #000000; stroke-width: 0.8; stroke-linejoin: miter; stroke-linecap: square"/>
   </g>
   <g id="text_19">
    <!-- SHA2 Chain — verify subphases (vanilla) -->
    <g transform="translate(331.970312 21) scale(0.12 -0.12)">
     <defs>
      <path id="DejaVuSans-53" d="M 3425 4513 
L 3425 3897 
Q 3066 4069 2747 4153 
Q 2428 4238 2131 4238 
Q 1616 4238 1336 4038 
Q 1056 3838 1056 3469 
Q 1056 3159 1242 3001 
Q 1428 2844 1947 2747 
L 2328 2669 
Q 3034 2534 3370 2195 
Q 3706 1856 3706 1288 
Q 3706 609 3251 259 
Q 2797 -91 1919 -91 
Q 1588 -91 1214 -16 
Q 841 59 441 206 
L 441 856 
Q 825 641 1194 531 
Q 1563 422 1919 422 
Q 2459 422 2753 634 
Q 3047 847 3047 1241 
Q 3047 1584 2836 1778 
Q 2625 1972 2144 2069 
L 1759 2144 
Q 1053 2284 737 2584 
Q 422 2884 422 3419 
Q 422 4038 858 4394 
Q 1294 4750 2059 4750 
Q 2388 4750 2728 4690 
Q 3069 4631 3425 4513 
z
" transform="scale(0.015625)"/>
      <path id="DejaVuSans-48" d="M 628 4666 
L 1259 4666 
L 1259 2753 
L 3553 2753 
L 3553 4666 
L 4184 4666 
L 4184 0 
L 3553 0 
L 3553 2222 
L 1259 2222 
L 1259 0 
L 628 0 
L 628 4666 
z
" transform="scale(0.015625)"/>
      <path id="DejaVuSans-41" d="M 2188 4044 
L 1331 1722 
L 3047 1722 
L 2188 4044 
z
M 1831 4666 
L 2547 4666 
L 4325 0 
L 3669 0 
L 3244 1197 
L 1141 1197 
L 716 0 
L 50 0 
L 1831 4666 
z
" transform="scale(0.015625)"/>
      <path id="DejaVuSans-43" d="M 4122 4306 
L 4122 3641 
Q 3803 3938 3442 4084 
Q 3081 4231 2675 4231 
Q 1875 4231 1450 3742 
Q 1025 3253 1025 2328 
Q 1025 1406 1450 917 
Q 1875 428 2675 428 
Q 3081 428 3442 575 
Q 3803 722 4122 1019 
L 4122 359 
Q 3791 134 3420 21 
Q 3050 -91 2638 -91 
Q 1578 -91 968 557 
Q 359 1206 359 2328 
Q 359 3453 968 4101 
Q 1578 4750 2638 4750 
Q 3056 4750 3426 4639 
Q 3797 4528 4122 4306 
z
" transform="scale(0.015625)"/>
      <path id="DejaVuSans-68" d="M 3513 2113 
L 3513 0 
L 2938 0 
L 2938 2094 
Q 2938 2591 2744 2837 
Q 2550 3084 2163 3084 
Q 1697 3084 1428 2787 
Q 1159 2491 1159 1978 
L 1159 0 
L 581 0 
L 581 4863 
L 1159 4863 
L 1159 2956 
Q 1366 3272 1645 3428 
Q 1925 3584 2291 3584 
Q 2894 3584 3203 3211 
Q 3513 2838 3513 2113 
z
" transform="scale(0.015625)"/>
      <path id="DejaVuSans-61" d="M 2194 1759 
Q 1497 1759 1228 1600 
Q 959 1441 959 1056 
Q 959 750 1161 570 
Q 1363 391 1709 391 
Q 2188 391 2477 730 
Q 2766 1069 2766 1631 
L 2766 1759 
L 2194 1759 
z
M 3341 1997 
L 3341 0 
L 2766 0 
L 2766 531 
Q 2569 213 2275 61 
Q 1981 -91 1556 -91 
Q 1019 -91 701 211 
Q 384 513 384 1019 
Q 384 1609 779 1909 
Q 1175 2209 1959 2209 
L 2766 2209 
L 2766 2266 
Q 2766 2663 2505 2880 
Q 2244 3097 1772 3097 
Q 1472 3097 1187 3025 
Q 903 2953 641 2809 
L 641 3341 
Q 956 3463 1253 3523 
Q 1550 3584 1831 3584 
Q 2591 3584 2966 3190 
Q 3341 2797 3341 1997 
z
" transform="scale(0.015625)"/>
      <path id="DejaVuSans-2014" d="M 313 1978 
L 6088 1978 
L 6088 1528 
L 313 1528 
L 313 1978 
z
" transform="scale(0.015625)"/>
      <path id="DejaVuSans-76" d="M 191 3500 
L 800 3500 
L 1894 563 
L 2988 3500 
L 3597 3500 
L 2284 0 
L 1503 0 
L 191 3500 
z
" transform="scale(0.015625)"/>
      <path id="DejaVuSans-72" d="M 2631 2963 
Q 2534 3019 2420 3045 
Q 2306 3072 2169 3072 
Q 1681 3072 1420 2755 
Q 1159 2438 1159 1844 
L 1159 0 
L 581 0 
L 581 3500 
L 1159 3500 
L 1159 2956 
Q 1341 3275 1631 3429 
Q 1922 3584 2338 3584 
Q 2397 3584 2469 3576 
Q 2541 3569 2628 3553 
L 2631 2963 
z
" transform="scale(0.015625)"/>
      <path id="DejaVuSans-66" d="M 2375 4863 
L 2375 4384 
L 1825 4384 
Q 1516 4384 1395 4259 
Q 1275 4134 1275 3809 
L 1275 3500 
L 2222 3500 
L 2222 3053 
L 1275 3053 
L 1275 0 
L 697 0 
L 697 3053 
L 147 3053 
L 147 3500 
L 697 3500 
L 697 3744 
Q 697 4328 969 4595 
Q 1241 4863 1831 4863 
L 2375 4863 
z
" transform="scale(0.015625)"/>
      <path id="DejaVuSans-79" d="M 2059 -325 
Q 1816 -950 1584 -1140 
Q 1353 -1331 966 -1331 
L 506 -1331 
L 506 -850 
L 844 -850 
Q 1081 -850 1212 -737 
Q 1344 -625 1503 -206 
L 1606 56 
L 191 3500 
L 800 3500 
L 1894 763 
L 2988 3500 
L 3597 3500 
L 2059 -325 
z
" transform="scale(0.015625)"/>
      <path id="DejaVuSans-62" d="M 3116 1747 
Q 3116 2381 2855 2742 
Q 2594 3103 2138 3103 
Q 1681 3103 1420 2742 
Q 1159 2381 1159 1747 
Q 1159 1113 1420 752 
Q 1681 391 2138 391 
Q 2594 391 2855 752 
Q 3116 1113 3116 1747 
z
M 1159 2969 
Q 1341 3281 1617 3432 
Q 1894 3584 2278 3584 
Q 2916 3584 3314 3078 
Q 3713 2572 3713 1747 
Q 3713 922 3314 415 
Q 2916 -91 2278 -91 
Q 1894 -91 1617 61 
Q 1341 213 1159 525 
L 1159 0 
L 581 0 
L 581 4863 
L 1159 4863 
L 1159 2969 
z
" transform="scale(0.015625)"/>
      <path id="DejaVuSans-6c" d="M 603 4863 
L 1178 4863 
L 1178 0 
L 603 0 
L 603 4863 
z
" transform="scale(0.015625)"/>
     </defs>
     <use xlink:href="#DejaVuSans-53"/>
     <use xlink:href="#DejaVuSans-48" transform="translate(63.476562 0)"/>
     <use xlink:href="#DejaVuSans-41" transform="translate(138.671875 0)"/>
     <use xlink:href="#DejaVuSans-32" transform="translate(207.080078 0)"/>
     <use xlink:href="#DejaVuSans-20" transform="translate(270.703125 0)"/>
     <use xlink:href="#DejaVuSans-43" transform="translate(302.490234 0)"/>
     <use xlink:href="#DejaVuSans-68" transform="translate(372.314453 0)"/>
     <use xlink:href="#DejaVuSans-61" transform="translate(435.693359 0)"/>
     <use xlink:href="#DejaVuSans-69" transform="translate(496.972656 0)"/>
     <use xlink:href="#DejaVuSans-6e" transform="translate(524.755859 0)"/>
     <use xlink:href="#DejaVuSans-20" transform="translate(588.134766 0)"/>
     <use xlink:href="#DejaVuSans-2014" transform="translate(619.921875 0)"/>
     <use xlink:href="#DejaVuSans-20" transform="translate(719.921875 0)"/>
     <use xlink:href="#DejaVuSans-76" transform="translate(751.708984 0)"/>
     <use xlink:href="#DejaVuSans-65" transform="translate(810.888672 0)"/>
     <use xlink:href="#DejaVuSans-72" transform="translate(872.412109 0)"/>
     <use xlink:href="#DejaVuSans-69" transform="translate(913.525391 0)"/>
     <use xlink:href="#DejaVuSans-66" transform="translate(941.308594 0)"/>
     <use xlink:href="#DejaVuSans-79" transform="translate(974.763672 0)"/>
     <use xlink:href="#DejaVuSans-20" transform="translate(1033.943359 0)"/>
     <use xlink:href="#DejaVuSans-73" transform="translate(1065.730469 0)"/>
     <use xlink:href="#DejaVuSans-75" transform="translate(1117.830078 0)"/>
     <use xlink:href="#DejaVuSans-62" transform="translate(1181.208984 0)"/>
     <use xlink:href="#DejaVuSans-70" transform="translate(1244.685547 0)"/>
     <use xlink:href="#DejaVuSans-68" transform="translate(1308.162109 0)"/>
     <use xlink:href="#DejaVuSans-61" transform="translate(1371.541016 0)"/>
     <use xlink:href="#DejaVuSans-73" transform="translate(1432.820312 0)"/>
     <use xlink:href="#DejaVuSans-65" transform="translate(1484.919922 0)"/>
     <use xlink:href="#DejaVuSans-73" transform="translate(1546.443359 0)"/>
     <use xlink:href="#DejaVuSans-20" transform="translate(1598.542969 0)"/>
     <use xlink:href="#DejaVuSans-28" transform="translate(1630.330078 0)"/>
     <use xlink:href="#DejaVuSans-76" transform="translate(1669.34375 0)"/>
     <use xlink:href="#DejaVuSans-61" transform="translate(1728.523438 0)"/>
     <use xlink:href="#DejaVuSans-6e" transform="translate(1789.802734 0)"/>
     <use xlink:href="#DejaVuSans-69" transform="translate(1853.181641 0)"/>
     <use xlink:href="#DejaVuSans-6c" transform="translate(1880.964844 0)"/>
     <use xlink:href="#DejaVuSans-6c" transform="translate(1908.748047 0)"/>
     <use xlink:href="#DejaVuSans-61" transform="translate(1936.53125 0)"/>
     <use xlink:href="#DejaVuSans-29" transform="translate(1997.810547 0)"/>
    </g>
   </g>
   <g id="legend_1">
    <g id="patch_7">
     <path d="M 534.141875 43.598438 
L 554.141875 43.598438 
L 554.141875 36.598438 
L 534.141875 36.598438 
z
" style="fill: #1f77b4; fill-opacity: 0.7"/>
    </g>
    <g id="text_20">
     <!-- bytecode -->
     <g transform="translate(562.141875 43.598438) scale(0.1 -0.1)">
      <defs>
       <path id="DejaVuSans-63" d="M 3122 3366 
L 3122 2828 
Q 2878 2963 2633 3030 
Q 2388 3097 2138 3097 
Q 1578 3097 1268 2742 
Q 959 2388 959 1747 
Q 959 1106 1268 751 
Q 1578 397 2138 397 
Q 2388 397 2633 464 
Q 2878 531 3122 666 
L 3122 134 
Q 2881 22 2623 -34 
Q 2366 -91 2075 -91 
Q 1284 -91 818 406 
Q 353 903 353 1747 
Q 353 2603 823 3093 
Q 1294 3584 2113 3584 
Q 2378 3584 2631 3529 
Q 2884 3475 3122 3366 
z
" transform="scale(0.015625)"/>
       <path id="DejaVuSans-6f" d="M 1959 3097 
Q 1497 3097 1228 2736 
Q 959 2375 959 1747 
Q 959 1119 1226 758 
Q 1494 397 1959 397 
Q 2419 397 2687 759 
Q 2956 1122 2956 1747 
Q 2956 2369 2687 2733 
Q 2419 3097 1959 3097 
z
M 1959 3584 
Q 2709 3584 3137 3096 
Q 3566 2609 3566 1747 
Q 3566 888 3137 398 
Q 2709 -91 1959 -91 
Q 1206 -91 779 398 
Q 353 888 353 1747 
Q 353 2609 779 3096 
Q 1206 3584 1959 3584 
z
" transform="scale(0.015625)"/>
       <path id="DejaVuSans-64" d="M 2906 2969 
L 2906 4863 
L 3481 4863 
L 3481 0 
L 2906 0 
L 2906 525 
Q 2725 213 2448 61 
Q 2172 -91 1784 -91 
Q 1150 -91 751 415 
Q 353 922 353 1747 
Q 353 2572 751 3078 
Q 1150 3584 1784 3584 
Q 2172 3584 2448 3432 
Q 2725 3281 2906 2969 
z
M 947 1747 
Q 947 1113 1208 752 
Q 1469 391 1925 391 
Q 2381 391 2643 752 
Q 2906 1113 2906 1747 
Q 2906 2381 2643 2742 
Q 2381 3103 1925 3103 
Q 1469 3103 1208 2742 
Q 947 2381 947 1747 
z
" transform="scale(0.015625)"/>
      </defs>
      <use xlink:href="#DejaVuSans-62"/>
      <use xlink:href="#DejaVuSans-79" transform="translate(63.476562 0)"/>
      <use xlink:href="#DejaVuSans-74" transform="translate(122.65625 0)"/>
      <use xlink:href="#DejaVuSans-65" transform="translate(161.865234 0)"/>
      <use xlink:href="#DejaVuSans-63" transform="translate(223.388672 0)"/>
      <use xlink:href="#DejaVuSans-6f" transform="translate(278.369141 0)"/>
      <use xlink:href="#DejaVuSans-64" transform="translate(339.550781 0)"/>
      <use xlink:href="#DejaVuSans-65" transform="translate(403.027344 0)"/>
     </g>
    </g>
    <g id="patch_8">
     <path d="M 628.60125 43.598438 
L 648.60125 43.598438 
L 648.60125 36.598438 
L 628.60125 36.598438 
z
" style="fill: #ff7f0e; fill-opacity: 0.7"/>
    </g>
    <g id="text_21">
     <!-- instruction_lookups -->
     <g transform="translate(656.60125 43.598438) scale(0.1 -0.1)">
      <defs>
       <path id="DejaVuSans-5f" d="M 3263 -1063 
L 3263 -1509 
L -63 -1509 
L -63 -1063 
L 3263 -1063 
z
" transform="scale(0.015625)"/>
       <path id="DejaVuSans-6b" d="M 581 4863 
L 1159 4863 
L 1159 1991 
L 2875 3500 
L 3609 3500 
L 1753 1863 
L 3688 0 
L 2938 0 
L 1159 1709 
L 1159 0 
L 581 0 
L 581 4863 
z
" transform="scale(0.015625)"/>
      </defs>
      <use xlink:href="#DejaVuSans-69"/>
      <use xlink:href="#DejaVuSans-6e" transform="translate(27.783203 0)"/>
      <use xlink:href="#DejaVuSans-73" transform="translate(91.162109 0)"/>
      <use xlink:href="#DejaVuSans-74" transform="translate(143.261719 0)"/>
      <use xlink:href="#DejaVuSans-72" transform="translate(182.470703 0)"/>
      <use xlink:href="#DejaVuSans-75" transform="translate(223.583984 0)"/>
      <use xlink:href="#DejaVuSans-63" transform="translate(286.962891 0)"/>
      <use xlink:href="#DejaVuSans-74" transform="translate(341.943359 0)"/>
      <use xlink:href="#DejaVuSans-69" transform="translate(381.152344 0)"/>
      <use xlink:href="#DejaVuSans-6f" transform="translate(408.935547 0)"/>
      <use xlink:href="#DejaVuSans-6e" transform="translate(470.117188 0)"/>
      <use xlink:href="#DejaVuSans-5f" transform="translate(533.496094 0)"/>
      <use xlink:href="#DejaVuSans-6c" transform="translate(583.496094 0)"/>
      <use xlink:href="#DejaVuSans-6f" transform="translate(611.279297 0)"/>
      <use xlink:href="#DejaVuSans-6f" transform="translate(672.460938 0)"/>
      <use xlink:href="#DejaVuSans-6b" transform="translate(733.642578 0)"/>
      <use xlink:href="#DejaVuSans-75" transform="translate(788.427734 0)"/>
      <use xlink:href="#DejaVuSans-70" transform="translate(851.806641 0)"/>
      <use xlink:href="#DejaVuSans-73" transform="translate(915.283203 0)"/>
     </g>
    </g>
    <g id="patch_9">
     <path d="M 773.337188 43.598438 
L 793.337188 43.598438 
L 793.337188 36.598438 
L 773.337188 36.598438 
z
" style="fill: #2ca02c; fill-opacity: 0.7"/>
    </g>
    <g id="text_22">
     <!-- memory -->
     <g transform="translate(801.337188 43.598438) scale(0.1 -0.1)">
      <use xlink:href="#DejaVuSans-6d"/>
      <use xlink:href="#DejaVuSans-65" transform="translate(97.412109 0)"/>
      <use xlink:href="#DejaVuSans-6d" transform="translate(158.935547 0)"/>
      <use xlink:href="#DejaVuSans-6f" transform="translate(256.347656 0)"/>
      <use xlink:href="#DejaVuSans-72" transform="translate(317.529297 0)"/>
      <use xlink:href="#DejaVuSans-79" transform="translate(358.642578 0)"/>
     </g>
    </g>
   </g>
  </g>
 </g>
 <defs>
  <clipPath id="p5b197ccaa4">
   <rect x="56.24" y="27" width="795.88" height="217.48"/>
  </clipPath>
 </defs>
</svg>
