<?xml version="1.0" encoding="utf-8" standalone="no"?>
<!DOCTYPE svg PUBLIC "-//W3C//DTD SVG 1.1//EN"
  "http://www.w3.org/Graphics/SVG/1.1/DTD/svg11.dtd">
<svg xmlns:xlink="http://www.w3.org/1999/xlink" width="864pt" height="288pt" viewBox="0 0 864 288" xmlns="http://www.w3.org/2000/svg" version="1.1">
 <metadata>
  <rdf:RDF xmlns:dc="http://purl.org/dc/elements/1.1/" xmlns:cc="http://creativecommons.org/ns#" xmlns:rdf="http://www.w3.org/1999/02/22-rdf-syntax-ns#">
   <cc:Work>
    <dc:type rdf:resource="http://purl.org/dc/dcmitype/StillImage"/>
    <dc:date>2025-09-10T11:05:39.378354</dc:date>
    <dc:format>image/svg+xml</dc:format>
    <dc:creator>
     <cc:Agent>
      <dc:title>Matplotlib v3.10.6, https://matplotlib.org/</dc:title>
     </cc:Agent>
    </dc:creator>
   </cc:Work>
  </rdf:RDF>
 </metadata>
 <defs>
  <style type="text/css">*{stroke-linejoin: round; stroke-linecap: butt}</style>
 </defs>
 <g id="figure_1">
  <g id="patch_1">
   <path d="M 0 288 
L 864 288 
L 864 0 
L 0 0 
z
" style="fill: #ffffff"/>
  </g>
  <g id="axes_1">
   <g id="patch_2">
    <path d="M 46.64 244.48 
L 852.12 244.48 
L 852.12 27 
L 46.64 27 
z
" style="fill: #ffffff"/>
   </g>
   <g id="FillBetweenPolyCollection_1">
    <path d="M 83.252727 234.314256 
L 83.252727 234.594545 
L 99.525051 234.594545 
L 115.797374 234.594545 
L 132.069697 234.594545 
L 148.34202 234.594545 
L 164.614343 234.594545 
L 180.886667 234.594545 
L 197.15899 234.594545 
L 213.431313 234.594545 
L 229.703636 234.594545 
L 245.97596 234.594545 
L 262.248283 234.594545 
L 278.520606 234.594545 
L 294.792929 234.594545 
L 311.065253 234.594545 
L 327.337576 234.594545 
L 343.609899 234.594545 
L 359.882222 234.594545 
L 376.154545 234.594545 
L 392.426869 234.594545 
L 408.699192 234.594545 
L 424.971515 234.594545 
L 441.243838 234.594545 
L 457.516162 234.594545 
L 473.788485 234.594545 
L 490.060808 234.594545 
L 506.333131 234.594545 
L 522.605455 234.594545 
L 538.877778 234.594545 
L 555.150101 234.594545 
L 571.422424 234.594545 
L 587.694747 234.594545 
L 603.967071 234.594545 
L 620.239394 234.594545 
L 636.511717 234.594545 
L 652.78404 234.594545 
L 669.056364 234.594545 
L 685.328687 234.594545 
L 701.60101 234.594545 
L 717.873333 234.594545 
L 734.145657 234.594545 
L 750.41798 234.594545 
L 766.690303 234.594545 
L 782.962626 234.594545 
L 799.234949 234.594545 
L 815.507273 234.594545 
L 815.507273 232.17705 
L 815.507273 232.17705 
L 799.234949 232.0807 
L 782.962626 232.08946 
L 766.690303 232.08946 
L 750.41798 232.098219 
L 734.145657 232.098219 
L 717.873333 232.106978 
L 701.60101 232.106978 
L 685.328687 232.115737 
L 669.056364 232.124496 
L 652.78404 232.124496 
L 636.511717 232.133255 
L 620.239394 232.133255 
L 603.967071 232.133255 
L 587.694747 232.142014 
L 571.422424 232.150773 
L 555.150101 232.159532 
L 538.877778 232.159532 
L 522.605455 232.159532 
L 506.333131 232.168291 
L 490.060808 232.185809 
L 473.788485 232.17705 
L 457.516162 232.203327 
L 441.243838 233.236894 
L 424.971515 233.245653 
L 408.699192 233.254412 
L 392.426869 233.254412 
L 376.154545 233.263171 
L 359.882222 233.263171 
L 343.609899 233.263171 
L 327.337576 233.27193 
L 311.065253 233.280689 
L 294.792929 233.289448 
L 278.520606 233.289448 
L 262.248283 233.289448 
L 245.97596 233.788714 
L 229.703636 233.788714 
L 213.431313 233.797473 
L 197.15899 233.797473 
L 180.886667 233.806232 
L 164.614343 233.806232 
L 148.34202 234.077762 
L 132.069697 234.077762 
L 115.797374 234.086521 
L 99.525051 234.217907 
L 83.252727 234.314256 
z
" clip-path="url(#p583b10839e)" style="fill: #1f77b4; fill-opacity: 0.7"/>
   </g>
   <g id="FillBetweenPolyCollection_2">
    <path d="M 83.252727 233.140545 
L 83.252727 234.314256 
L 99.525051 234.217907 
L 115.797374 234.086521 
L 132.069697 234.077762 
L 148.34202 234.077762 
L 164.614343 233.806232 
L 180.886667 233.806232 
L 197.15899 233.797473 
L 213.431313 233.797473 
L 229.703636 233.788714 
L 245.97596 233.788714 
L 262.248283 233.289448 
L 278.520606 233.289448 
L 294.792929 233.289448 
L 311.065253 233.280689 
L 327.337576 233.27193 
L 343.609899 233.263171 
L 359.882222 233.263171 
L 376.154545 233.263171 
L 392.426869 233.254412 
L 408.699192 233.254412 
L 424.971515 233.245653 
L 441.243838 233.236894 
L 457.516162 232.203327 
L 473.788485 232.17705 
L 490.060808 232.185809 
L 506.333131 232.168291 
L 522.605455 232.159532 
L 538.877778 232.159532 
L 555.150101 232.159532 
L 571.422424 232.150773 
L 587.694747 232.142014 
L 603.967071 232.133255 
L 620.239394 232.133255 
L 636.511717 232.133255 
L 652.78404 232.124496 
L 669.056364 232.124496 
L 685.328687 232.115737 
L 701.60101 232.106978 
L 717.873333 232.106978 
L 734.145657 232.098219 
L 750.41798 232.098219 
L 766.690303 232.08946 
L 782.962626 232.08946 
L 799.234949 232.0807 
L 815.507273 232.17705 
L 815.507273 198.244522 
L 815.507273 198.244522 
L 799.234949 196.939425 
L 782.962626 197.780293 
L 766.690303 198.805101 
L 750.41798 199.260571 
L 734.145657 199.059113 
L 717.873333 201.012379 
L 701.60101 200.390487 
L 685.328687 199.90874 
L 669.056364 201.511645 
L 652.78404 201.55544 
L 636.511717 201.012379 
L 620.239394 202.159814 
L 603.967071 202.518934 
L 587.694747 202.334995 
L 571.422424 203.464911 
L 555.150101 203.911622 
L 538.877778 204.332056 
L 522.605455 204.332056 
L 506.333131 203.972935 
L 490.060808 204.647382 
L 473.788485 205.12037 
L 457.516162 206.372913 
L 441.243838 215.421003 
L 424.971515 215.832678 
L 408.699192 216.752377 
L 392.426869 216.708582 
L 376.154545 216.839968 
L 359.882222 217.707113 
L 343.609899 217.969884 
L 327.337576 218.302728 
L 311.065253 218.942138 
L 294.792929 219.003451 
L 278.520606 219.493957 
L 262.248283 219.625343 
L 245.97596 224.836973 
L 229.703636 225.432588 
L 213.431313 225.800468 
L 197.15899 226.299733 
L 180.886667 226.553745 
L 164.614343 226.956661 
L 148.34202 229.750795 
L 132.069697 230.057362 
L 115.797374 230.460278 
L 99.525051 232.071941 
L 83.252727 233.140545 
z
" clip-path="url(#p583b10839e)" style="fill: #ff7f0e; fill-opacity: 0.7"/>
   </g>
   <g id="FillBetweenPolyCollection_3">
    <path d="M 83.252727 229.269048 
L 83.252727 233.140545 
L 99.525051 232.071941 
L 115.797374 230.460278 
L 132.069697 230.057362 
L 148.34202 229.750795 
L 164.614343 226.956661 
L 180.886667 226.553745 
L 197.15899 226.299733 
L 213.431313 225.800468 
L 229.703636 225.432588 
L 245.97596 224.836973 
L 262.248283 219.625343 
L 278.520606 219.493957 
L 294.792929 219.003451 
L 311.065253 218.942138 
L 327.337576 218.302728 
L 343.609899 217.969884 
L 359.882222 217.707113 
L 376.154545 216.839968 
L 392.426869 216.708582 
L 408.699192 216.752377 
L 424.971515 215.832678 
L 441.243838 215.421003 
L 457.516162 206.372913 
L 473.788485 205.12037 
L 490.060808 204.647382 
L 506.333131 203.972935 
L 522.605455 204.332056 
L 538.877778 204.332056 
L 555.150101 203.911622 
L 571.422424 203.464911 
L 587.694747 202.334995 
L 603.967071 202.518934 
L 620.239394 202.159814 
L 636.511717 201.012379 
L 652.78404 201.55544 
L 669.056364 201.511645 
L 685.328687 199.90874 
L 701.60101 200.390487 
L 717.873333 201.012379 
L 734.145657 199.059113 
L 750.41798 199.260571 
L 766.690303 198.805101 
L 782.962626 197.780293 
L 799.234949 196.939425 
L 815.507273 198.244522 
L 815.507273 164.71491 
L 815.507273 164.71491 
L 799.234949 163.839006 
L 782.962626 164.977681 
L 766.690303 166.422923 
L 750.41798 167.088611 
L 734.145657 167.307587 
L 717.873333 169.55866 
L 701.60101 169.278371 
L 685.328687 169.208299 
L 669.056364 171.170324 
L 652.78404 171.529445 
L 636.511717 171.345505 
L 620.239394 172.746951 
L 603.967071 173.49147 
L 587.694747 173.631615 
L 571.422424 175.094375 
L 555.150101 176.031592 
L 538.877778 176.679761 
L 522.605455 177.021364 
L 506.333131 177.126472 
L 490.060808 178.046172 
L 473.788485 178.957112 
L 457.516162 180.568776 
L 441.243838 197.815329 
L 424.971515 198.603643 
L 408.699192 199.864945 
L 392.426869 200.206547 
L 376.154545 200.670777 
L 359.882222 201.844488 
L 343.609899 202.422585 
L 327.337576 203.10579 
L 311.065253 203.972935 
L 294.792929 204.577309 
L 278.520606 205.251756 
L 262.248283 205.610876 
L 245.97596 214.527581 
L 229.703636 215.54363 
L 213.431313 216.218076 
L 197.15899 217.076462 
L 180.886667 217.715872 
L 164.614343 218.477909 
L 148.34202 223.146478 
L 132.069697 223.76837 
L 115.797374 224.547925 
L 99.525051 227.324541 
L 83.252727 229.269048 
z
" clip-path="url(#p583b10839e)" style="fill: #2ca02c; fill-opacity: 0.7"/>
   </g>
   <g id="FillBetweenPolyCollection_4">
    <path d="M 83.252727 229.006277 
L 83.252727 229.269048 
L 99.525051 227.324541 
L 115.797374 224.547925 
L 132.069697 223.76837 
L 148.34202 223.146478 
L 164.614343 218.477909 
L 180.886667 217.715872 
L 197.15899 217.076462 
L 213.431313 216.218076 
L 229.703636 215.54363 
L 245.97596 214.527581 
L 262.248283 205.610876 
L 278.520606 205.251756 
L 294.792929 204.577309 
L 311.065253 203.972935 
L 327.337576 203.10579 
L 343.609899 202.422585 
L 359.882222 201.844488 
L 376.154545 200.670777 
L 392.426869 200.206547 
L 408.699192 199.864945 
L 424.971515 198.603643 
L 441.243838 197.815329 
L 457.516162 180.568776 
L 473.788485 178.957112 
L 490.060808 178.046172 
L 506.333131 177.126472 
L 522.605455 177.021364 
L 538.877778 176.679761 
L 555.150101 176.031592 
L 571.422424 175.094375 
L 587.694747 173.631615 
L 603.967071 173.49147 
L 620.239394 172.746951 
L 636.511717 171.345505 
L 652.78404 171.529445 
L 669.056364 171.170324 
L 685.328687 169.208299 
L 701.60101 169.278371 
L 717.873333 169.55866 
L 734.145657 167.307587 
L 750.41798 167.088611 
L 766.690303 166.422923 
L 782.962626 164.977681 
L 799.234949 163.839006 
L 815.507273 164.71491 
L 815.507273 154.790916 
L 815.507273 154.790916 
L 799.234949 153.371951 
L 782.962626 153.573409 
L 766.690303 156.227399 
L 750.41798 154.869747 
L 734.145657 156.542724 
L 717.873333 159.424449 
L 701.60101 158.942702 
L 685.328687 159.012774 
L 669.056364 160.668233 
L 652.78404 161.097426 
L 636.511717 160.536847 
L 620.239394 161.88574 
L 603.967071 162.61274 
L 587.694747 163.514921 
L 571.422424 164.566006 
L 555.150101 164.005428 
L 538.877778 165.021477 
L 522.605455 164.846296 
L 506.333131 161.920776 
L 490.060808 160.081377 
L 473.788485 160.475534 
L 457.516162 160.939763 
L 441.243838 192.945302 
L 424.971515 193.540917 
L 408.699192 194.460616 
L 392.426869 195.06499 
L 376.154545 195.43287 
L 359.882222 196.562786 
L 343.609899 197.473726 
L 327.337576 197.745257 
L 311.065253 198.279558 
L 294.792929 198.883932 
L 278.520606 197.999269 
L 262.248283 198.594884 
L 245.97596 212.06629 
L 229.703636 213.126134 
L 213.431313 213.853135 
L 197.15899 214.72028 
L 180.886667 215.158232 
L 164.614343 215.841437 
L 148.34202 221.920212 
L 132.069697 222.568381 
L 115.797374 223.374213 
L 99.525051 226.798998 
L 83.252727 229.006277 
z
" clip-path="url(#p583b10839e)" style="fill: #d62728; fill-opacity: 0.7"/>
   </g>
   <g id="FillBetweenPolyCollection_5">
    <path d="M 83.252727 226.772721 
L 83.252727 229.006277 
L 99.525051 226.798998 
L 115.797374 223.374213 
L 132.069697 222.568381 
L 148.34202 221.920212 
L 164.614343 215.841437 
L 180.886667 215.158232 
L 197.15899 214.72028 
L 213.431313 213.853135 
L 229.703636 213.126134 
L 245.97596 212.06629 
L 262.248283 198.594884 
L 278.520606 197.999269 
L 294.792929 198.883932 
L 311.065253 198.279558 
L 327.337576 197.745257 
L 343.609899 197.473726 
L 359.882222 196.562786 
L 376.154545 195.43287 
L 392.426869 195.06499 
L 408.699192 194.460616 
L 424.971515 193.540917 
L 441.243838 192.945302 
L 457.516162 160.939763 
L 473.788485 160.475534 
L 490.060808 160.081377 
L 506.333131 161.920776 
L 522.605455 164.846296 
L 538.877778 165.021477 
L 555.150101 164.005428 
L 571.422424 164.566006 
L 587.694747 163.514921 
L 603.967071 162.61274 
L 620.239394 161.88574 
L 636.511717 160.536847 
L 652.78404 161.097426 
L 669.056364 160.668233 
L 685.328687 159.012774 
L 701.60101 158.942702 
L 717.873333 159.424449 
L 734.145657 156.542724 
L 750.41798 154.869747 
L 766.690303 156.227399 
L 782.962626 153.573409 
L 799.234949 153.371951 
L 815.507273 154.790916 
L 815.507273 122.618955 
L 815.507273 122.618955 
L 799.234949 121.156195 
L 782.962626 121.48028 
L 766.690303 123.906535 
L 750.41798 122.732823 
L 734.145657 124.388282 
L 717.873333 126.980958 
L 701.60101 126.709428 
L 685.328687 126.788259 
L 669.056364 128.627658 
L 652.78404 128.767803 
L 636.511717 128.312333 
L 620.239394 129.792611 
L 603.967071 130.396985 
L 587.694747 131.35172 
L 571.422424 132.271419 
L 555.150101 131.693323 
L 538.877778 132.972143 
L 522.605455 132.683094 
L 506.333131 129.722538 
L 490.060808 127.961971 
L 473.788485 128.207224 
L 457.516162 128.837875 
L 441.243838 176.487062 
L 424.971515 177.091436 
L 408.699192 177.818437 
L 392.426869 178.913317 
L 376.154545 178.957112 
L 359.882222 180.157101 
L 343.609899 180.971692 
L 327.337576 181.243222 
L 311.065253 181.777524 
L 294.792929 182.285548 
L 278.520606 181.576066 
L 262.248283 181.908909 
L 245.97596 203.316007 
L 229.703636 204.358333 
L 213.431313 205.129129 
L 197.15899 205.996274 
L 180.886667 206.495539 
L 164.614343 207.12619 
L 148.34202 217.531932 
L 132.069697 218.145065 
L 115.797374 219.01221 
L 99.525051 224.416539 
L 83.252727 226.772721 
z
" clip-path="url(#p583b10839e)" style="fill: #9467bd; fill-opacity: 0.7"/>
   </g>
   <g id="FillBetweenPolyCollection_6">
    <path d="M 83.252727 226.772721 
L 83.252727 226.772721 
L 99.525051 224.416539 
L 115.797374 219.01221 
L 132.069697 218.145065 
L 148.34202 217.531932 
L 164.614343 207.12619 
L 180.886667 206.495539 
L 197.15899 205.996274 
L 213.431313 205.129129 
L 229.703636 204.358333 
L 245.97596 203.316007 
L 262.248283 181.908909 
L 278.520606 181.576066 
L 294.792929 182.285548 
L 311.065253 181.777524 
L 327.337576 181.243222 
L 343.609899 180.971692 
L 359.882222 180.157101 
L 376.154545 178.957112 
L 392.426869 178.913317 
L 408.699192 177.818437 
L 424.971515 177.091436 
L 441.243838 176.487062 
L 457.516162 128.837875 
L 473.788485 128.207224 
L 490.060808 127.961971 
L 506.333131 129.722538 
L 522.605455 132.683094 
L 538.877778 132.972143 
L 555.150101 131.693323 
L 571.422424 132.271419 
L 587.694747 131.35172 
L 603.967071 130.396985 
L 620.239394 129.792611 
L 636.511717 128.312333 
L 652.78404 128.767803 
L 669.056364 128.627658 
L 685.328687 126.788259 
L 701.60101 126.709428 
L 717.873333 126.980958 
L 734.145657 124.388282 
L 750.41798 122.732823 
L 766.690303 123.906535 
L 782.962626 121.48028 
L 799.234949 121.156195 
L 815.507273 122.618955 
L 815.507273 122.618955 
L 815.507273 122.618955 
L 799.234949 121.156195 
L 782.962626 121.48028 
L 766.690303 123.906535 
L 750.41798 122.732823 
L 734.145657 124.388282 
L 717.873333 126.980958 
L 701.60101 126.709428 
L 685.328687 126.788259 
L 669.056364 128.627658 
L 652.78404 128.767803 
L 636.511717 128.312333 
L 620.239394 129.792611 
L 603.967071 130.396985 
L 587.694747 131.35172 
L 571.422424 132.271419 
L 555.150101 131.693323 
L 538.877778 132.972143 
L 522.605455 132.683094 
L 506.333131 129.722538 
L 490.060808 127.961971 
L 473.788485 128.207224 
L 457.516162 128.837875 
L 441.243838 176.487062 
L 424.971515 177.091436 
L 408.699192 177.818437 
L 392.426869 178.913317 
L 376.154545 178.957112 
L 359.882222 180.157101 
L 343.609899 180.971692 
L 327.337576 181.243222 
L 311.065253 181.777524 
L 294.792929 182.285548 
L 278.520606 181.576066 
L 262.248283 181.908909 
L 245.97596 203.316007 
L 229.703636 204.358333 
L 213.431313 205.129129 
L 197.15899 205.996274 
L 180.886667 206.495539 
L 164.614343 207.12619 
L 148.34202 217.531932 
L 132.069697 218.145065 
L 115.797374 219.01221 
L 99.525051 224.416539 
L 83.252727 226.772721 
z
" clip-path="url(#p583b10839e)" style="fill: #8c564b; fill-opacity: 0.7"/>
   </g>
   <g id="FillBetweenPolyCollection_7">
    <path d="M 83.252727 226.702649 
L 83.252727 226.772721 
L 99.525051 224.416539 
L 115.797374 219.01221 
L 132.069697 218.145065 
L 148.34202 217.531932 
L 164.614343 207.12619 
L 180.886667 206.495539 
L 197.15899 205.996274 
L 213.431313 205.129129 
L 229.703636 204.358333 
L 245.97596 203.316007 
L 262.248283 181.908909 
L 278.520606 181.576066 
L 294.792929 182.285548 
L 311.065253 181.777524 
L 327.337576 181.243222 
L 343.609899 180.971692 
L 359.882222 180.157101 
L 376.154545 178.957112 
L 392.426869 178.913317 
L 408.699192 177.818437 
L 424.971515 177.091436 
L 441.243838 176.487062 
L 457.516162 128.837875 
L 473.788485 128.207224 
L 490.060808 127.961971 
L 506.333131 129.722538 
L 522.605455 132.683094 
L 538.877778 132.972143 
L 555.150101 131.693323 
L 571.422424 132.271419 
L 587.694747 131.35172 
L 603.967071 130.396985 
L 620.239394 129.792611 
L 636.511717 128.312333 
L 652.78404 128.767803 
L 669.056364 128.627658 
L 685.328687 126.788259 
L 701.60101 126.709428 
L 717.873333 126.980958 
L 734.145657 124.388282 
L 750.41798 122.732823 
L 766.690303 123.906535 
L 782.962626 121.48028 
L 799.234949 121.156195 
L 815.507273 122.618955 
L 815.507273 121.033569 
L 815.507273 121.033569 
L 799.234949 119.579568 
L 782.962626 119.903652 
L 766.690303 122.321148 
L 750.41798 121.147436 
L 734.145657 122.802895 
L 717.873333 125.404331 
L 701.60101 125.1328 
L 685.328687 125.220391 
L 669.056364 127.05979 
L 652.78404 127.191175 
L 636.511717 126.735705 
L 620.239394 128.224742 
L 603.967071 128.829116 
L 587.694747 129.783852 
L 571.422424 130.703551 
L 555.150101 130.107936 
L 538.877778 131.386756 
L 522.605455 131.106467 
L 506.333131 128.145911 
L 490.060808 126.385343 
L 473.788485 126.630597 
L 457.516162 127.261248 
L 441.243838 175.672471 
L 424.971515 176.276845 
L 408.699192 177.003846 
L 392.426869 178.098726 
L 376.154545 178.142521 
L 359.882222 179.34251 
L 343.609899 180.16586 
L 327.337576 180.43739 
L 311.065253 180.962933 
L 294.792929 181.479716 
L 278.520606 180.761475 
L 262.248283 181.103077 
L 245.97596 202.886814 
L 229.703636 203.92914 
L 213.431313 204.699936 
L 197.15899 205.57584 
L 180.886667 206.066346 
L 164.614343 206.705756 
L 148.34202 217.295438 
L 132.069697 217.91733 
L 115.797374 218.784475 
L 99.525051 224.285153 
L 83.252727 226.702649 
z
" clip-path="url(#p583b10839e)" style="fill: #e377c2; fill-opacity: 0.7"/>
   </g>
   <g id="FillBetweenPolyCollection_8">
    <path d="M 83.252727 226.676372 
L 83.252727 226.702649 
L 99.525051 224.285153 
L 115.797374 218.784475 
L 132.069697 217.91733 
L 148.34202 217.295438 
L 164.614343 206.705756 
L 180.886667 206.066346 
L 197.15899 205.57584 
L 213.431313 204.699936 
L 229.703636 203.92914 
L 245.97596 202.886814 
L 262.248283 181.103077 
L 278.520606 180.761475 
L 294.792929 181.479716 
L 311.065253 180.962933 
L 327.337576 180.43739 
L 343.609899 180.16586 
L 359.882222 179.34251 
L 376.154545 178.142521 
L 392.426869 178.098726 
L 408.699192 177.003846 
L 424.971515 176.276845 
L 441.243838 175.672471 
L 457.516162 127.261248 
L 473.788485 126.630597 
L 490.060808 126.385343 
L 506.333131 128.145911 
L 522.605455 131.106467 
L 538.877778 131.386756 
L 555.150101 130.107936 
L 571.422424 130.703551 
L 587.694747 129.783852 
L 603.967071 128.829116 
L 620.239394 128.224742 
L 636.511717 126.735705 
L 652.78404 127.191175 
L 669.056364 127.05979 
L 685.328687 125.220391 
L 701.60101 125.1328 
L 717.873333 125.404331 
L 734.145657 122.802895 
L 750.41798 121.147436 
L 766.690303 122.321148 
L 782.962626 119.903652 
L 799.234949 119.579568 
L 815.507273 121.033569 
L 815.507273 118.221916 
L 815.507273 118.221916 
L 799.234949 116.662807 
L 782.962626 116.995651 
L 766.690303 119.421905 
L 750.41798 118.265712 
L 734.145657 119.92993 
L 717.873333 122.513847 
L 701.60101 122.277353 
L 685.328687 122.382461 
L 669.056364 124.22186 
L 652.78404 124.370764 
L 636.511717 123.915294 
L 620.239394 125.430608 
L 603.967071 126.043741 
L 587.694747 127.007235 
L 571.422424 127.935694 
L 555.150101 127.348838 
L 538.877778 128.636417 
L 522.605455 128.364887 
L 506.333131 125.41309 
L 490.060808 123.661281 
L 473.788485 123.924053 
L 457.516162 124.572222 
L 441.243838 174.139639 
L 424.971515 174.761531 
L 408.699192 175.497291 
L 392.426869 176.618448 
L 376.154545 176.671002 
L 359.882222 177.870991 
L 343.609899 178.7031 
L 327.337576 179.044703 
L 311.065253 179.535209 
L 294.792929 180.104547 
L 278.520606 179.500173 
L 262.248283 179.89433 
L 245.97596 202.238645 
L 229.703636 203.28973 
L 213.431313 204.016731 
L 197.15899 204.910153 
L 180.886667 205.479491 
L 164.614343 206.03131 
L 148.34202 216.971353 
L 132.069697 217.637041 
L 115.797374 218.521704 
L 99.525051 224.215081 
L 83.252727 226.676372 
z
" clip-path="url(#p583b10839e)" style="fill: #7f7f7f; fill-opacity: 0.7"/>
   </g>
   <g id="FillBetweenPolyCollection_9">
    <path d="M 83.252727 226.667613 
L 83.252727 226.676372 
L 99.525051 224.215081 
L 115.797374 218.521704 
L 132.069697 217.637041 
L 148.34202 216.971353 
L 164.614343 206.03131 
L 180.886667 205.479491 
L 197.15899 204.910153 
L 213.431313 204.016731 
L 229.703636 203.28973 
L 245.97596 202.238645 
L 262.248283 179.89433 
L 278.520606 179.500173 
L 294.792929 180.104547 
L 311.065253 179.535209 
L 327.337576 179.044703 
L 343.609899 178.7031 
L 359.882222 177.870991 
L 376.154545 176.671002 
L 392.426869 176.618448 
L 408.699192 175.497291 
L 424.971515 174.761531 
L 441.243838 174.139639 
L 457.516162 124.572222 
L 473.788485 123.924053 
L 490.060808 123.661281 
L 506.333131 125.41309 
L 522.605455 128.364887 
L 538.877778 128.636417 
L 555.150101 127.348838 
L 571.422424 127.935694 
L 587.694747 127.007235 
L 603.967071 126.043741 
L 620.239394 125.430608 
L 636.511717 123.915294 
L 652.78404 124.370764 
L 669.056364 124.22186 
L 685.328687 122.382461 
L 701.60101 122.277353 
L 717.873333 122.513847 
L 734.145657 119.92993 
L 750.41798 118.265712 
L 766.690303 119.421905 
L 782.962626 116.995651 
L 799.234949 116.662807 
L 815.507273 118.221916 
L 815.507273 118.213157 
L 815.507273 118.213157 
L 799.234949 116.654048 
L 782.962626 116.986892 
L 766.690303 119.413146 
L 750.41798 118.256953 
L 734.145657 119.921171 
L 717.873333 122.505088 
L 701.60101 122.268594 
L 685.328687 122.373702 
L 669.056364 124.213101 
L 652.78404 124.362005 
L 636.511717 123.906535 
L 620.239394 125.421849 
L 603.967071 126.034982 
L 587.694747 126.998476 
L 571.422424 127.926935 
L 555.150101 127.340079 
L 538.877778 128.627658 
L 522.605455 128.356128 
L 506.333131 125.404331 
L 490.060808 123.652522 
L 473.788485 123.915294 
L 457.516162 124.563463 
L 441.243838 174.13088 
L 424.971515 174.752772 
L 408.699192 175.488532 
L 392.426869 176.609689 
L 376.154545 176.662243 
L 359.882222 177.862232 
L 343.609899 178.694341 
L 327.337576 179.035943 
L 311.065253 179.52645 
L 294.792929 180.095788 
L 278.520606 179.491414 
L 262.248283 179.885571 
L 245.97596 202.229886 
L 229.703636 203.280971 
L 213.431313 204.007972 
L 197.15899 204.901394 
L 180.886667 205.470732 
L 164.614343 206.022551 
L 148.34202 216.962594 
L 132.069697 217.628282 
L 115.797374 218.512945 
L 99.525051 224.206322 
L 83.252727 226.667613 
z
" clip-path="url(#p583b10839e)" style="fill: #bcbd22; fill-opacity: 0.7"/>
   </g>
   <g id="FillBetweenPolyCollection_10">
    <path d="M 83.252727 224.968359 
L 83.252727 226.667613 
L 99.525051 224.206322 
L 115.797374 218.512945 
L 132.069697 217.628282 
L 148.34202 216.962594 
L 164.614343 206.022551 
L 180.886667 205.470732 
L 197.15899 204.901394 
L 213.431313 204.007972 
L 229.703636 203.280971 
L 245.97596 202.229886 
L 262.248283 179.885571 
L 278.520606 179.491414 
L 294.792929 180.095788 
L 311.065253 179.52645 
L 327.337576 179.035943 
L 343.609899 178.694341 
L 359.882222 177.862232 
L 376.154545 176.662243 
L 392.426869 176.609689 
L 408.699192 175.488532 
L 424.971515 174.752772 
L 441.243838 174.13088 
L 457.516162 124.563463 
L 473.788485 123.915294 
L 490.060808 123.652522 
L 506.333131 125.404331 
L 522.605455 128.356128 
L 538.877778 128.627658 
L 555.150101 127.340079 
L 571.422424 127.926935 
L 587.694747 126.998476 
L 603.967071 126.034982 
L 620.239394 125.421849 
L 636.511717 123.906535 
L 652.78404 124.362005 
L 669.056364 124.213101 
L 685.328687 122.373702 
L 701.60101 122.268594 
L 717.873333 122.505088 
L 734.145657 119.921171 
L 750.41798 118.256953 
L 766.690303 119.413146 
L 782.962626 116.986892 
L 799.234949 116.654048 
L 815.507273 118.213157 
L 815.507273 90.21926 
L 815.507273 90.21926 
L 799.234949 88.765259 
L 782.962626 89.133139 
L 766.690303 91.664502 
L 750.41798 90.455754 
L 734.145657 92.260117 
L 717.873333 94.773962 
L 701.60101 94.625058 
L 685.328687 94.712648 
L 669.056364 96.674674 
L 652.78404 96.832336 
L 636.511717 96.376866 
L 620.239394 97.997289 
L 603.967071 98.619181 
L 587.694747 99.600194 
L 571.422424 100.554929 
L 555.150101 100.046905 
L 538.877778 101.378279 
L 522.605455 101.133026 
L 506.333131 98.233783 
L 490.060808 96.560806 
L 473.788485 96.823577 
L 457.516162 97.471746 
L 441.243838 159.617148 
L 424.971515 160.23904 
L 408.699192 160.957281 
L 392.426869 162.166029 
L 376.154545 162.271138 
L 359.882222 163.549958 
L 343.609899 164.373308 
L 327.337576 164.697392 
L 311.065253 165.275489 
L 294.792929 165.879863 
L 278.520606 165.319284 
L 262.248283 165.704682 
L 245.97596 194.653315 
L 229.703636 195.573014 
L 213.431313 196.34381 
L 197.15899 197.07081 
L 180.886667 197.797811 
L 164.614343 198.481016 
L 148.34202 212.653146 
L 132.069697 213.318833 
L 115.797374 214.203496 
L 99.525051 221.552332 
L 83.252727 224.968359 
z
" clip-path="url(#p583b10839e)" style="fill: #17becf; fill-opacity: 0.7"/>
   </g>
   <g id="FillBetweenPolyCollection_11">
    <path d="M 83.252727 224.933322 
L 83.252727 224.968359 
L 99.525051 221.552332 
L 115.797374 214.203496 
L 132.069697 213.318833 
L 148.34202 212.653146 
L 164.614343 198.481016 
L 180.886667 197.797811 
L 197.15899 197.07081 
L 213.431313 196.34381 
L 229.703636 195.573014 
L 245.97596 194.653315 
L 262.248283 165.704682 
L 278.520606 165.319284 
L 294.792929 165.879863 
L 311.065253 165.275489 
L 327.337576 164.697392 
L 343.609899 164.373308 
L 359.882222 163.549958 
L 376.154545 162.271138 
L 392.426869 162.166029 
L 408.699192 160.957281 
L 424.971515 160.23904 
L 441.243838 159.617148 
L 457.516162 97.471746 
L 473.788485 96.823577 
L 490.060808 96.560806 
L 506.333131 98.233783 
L 522.605455 101.133026 
L 538.877778 101.378279 
L 555.150101 100.046905 
L 571.422424 100.554929 
L 587.694747 99.600194 
L 603.967071 98.619181 
L 620.239394 97.997289 
L 636.511717 96.376866 
L 652.78404 96.832336 
L 669.056364 96.674674 
L 685.328687 94.712648 
L 701.60101 94.625058 
L 717.873333 94.773962 
L 734.145657 92.260117 
L 750.41798 90.455754 
L 766.690303 91.664502 
L 782.962626 89.133139 
L 799.234949 88.765259 
L 815.507273 90.21926 
L 815.507273 88.598837 
L 815.507273 88.598837 
L 799.234949 87.153595 
L 782.962626 87.521475 
L 766.690303 90.070356 
L 750.41798 88.826572 
L 734.145657 90.648453 
L 717.873333 93.162298 
L 701.60101 93.030912 
L 685.328687 93.153539 
L 669.056364 95.089287 
L 652.78404 95.255709 
L 636.511717 94.800239 
L 620.239394 96.429421 
L 603.967071 97.051312 
L 587.694747 98.032325 
L 571.422424 98.960784 
L 555.150101 98.470277 
L 538.877778 99.801652 
L 522.605455 99.565157 
L 506.333131 96.639638 
L 490.060808 95.010456 
L 473.788485 95.211914 
L 457.516162 95.912637 
L 441.243838 158.828834 
L 424.971515 159.441967 
L 408.699192 160.177727 
L 392.426869 161.403992 
L 376.154545 161.500342 
L 359.882222 162.779162 
L 343.609899 163.611271 
L 327.337576 163.926596 
L 311.065253 164.513452 
L 294.792929 165.126585 
L 278.520606 164.557247 
L 262.248283 164.951404 
L 245.97596 194.250399 
L 229.703636 195.187617 
L 213.431313 195.958412 
L 197.15899 196.694172 
L 180.886667 197.421172 
L 164.614343 198.104377 
L 148.34202 212.460447 
L 132.069697 213.134893 
L 115.797374 214.019556 
L 99.525051 221.48226 
L 83.252727 224.933322 
z
" clip-path="url(#p583b10839e)" style="fill: #1f77b4; fill-opacity: 0.7"/>
   </g>
   <g id="FillBetweenPolyCollection_12">
    <path d="M 83.252727 223.470562 
L 83.252727 224.933322 
L 99.525051 221.48226 
L 115.797374 214.019556 
L 132.069697 213.134893 
L 148.34202 212.460447 
L 164.614343 198.104377 
L 180.886667 197.421172 
L 197.15899 196.694172 
L 213.431313 195.958412 
L 229.703636 195.187617 
L 245.97596 194.250399 
L 262.248283 164.951404 
L 278.520606 164.557247 
L 294.792929 165.126585 
L 311.065253 164.513452 
L 327.337576 163.926596 
L 343.609899 163.611271 
L 359.882222 162.779162 
L 376.154545 161.500342 
L 392.426869 161.403992 
L 408.699192 160.177727 
L 424.971515 159.441967 
L 441.243838 158.828834 
L 457.516162 95.912637 
L 473.788485 95.211914 
L 490.060808 95.010456 
L 506.333131 96.639638 
L 522.605455 99.565157 
L 538.877778 99.801652 
L 555.150101 98.470277 
L 571.422424 98.960784 
L 587.694747 98.032325 
L 603.967071 97.051312 
L 620.239394 96.429421 
L 636.511717 94.800239 
L 652.78404 95.255709 
L 669.056364 95.089287 
L 685.328687 93.153539 
L 701.60101 93.030912 
L 717.873333 93.162298 
L 734.145657 90.648453 
L 750.41798 88.826572 
L 766.690303 90.070356 
L 782.962626 87.521475 
L 799.234949 87.153595 
L 815.507273 88.598837 
L 815.507273 39.618276 
L 815.507273 39.618276 
L 799.234949 38.593468 
L 782.962626 39.250396 
L 766.690303 42.456205 
L 750.41798 41.116072 
L 734.145657 43.586122 
L 717.873333 46.634268 
L 701.60101 46.914557 
L 685.328687 47.431341 
L 669.056364 50.067812 
L 652.78404 50.059053 
L 636.511717 50.321825 
L 620.239394 52.415236 
L 603.967071 53.702815 
L 587.694747 54.885285 
L 571.422424 56.277973 
L 555.150101 55.524695 
L 538.877778 57.092564 
L 522.605455 57.548034 
L 506.333131 55.261924 
L 490.060808 53.729092 
L 473.788485 54.219598 
L 457.516162 55.831262 
L 441.243838 134.636361 
L 424.971515 135.634891 
L 408.699192 136.878675 
L 392.426869 138.612966 
L 376.154545 139.103472 
L 359.882222 140.723895 
L 343.609899 141.976438 
L 327.337576 142.41439 
L 311.065253 143.430439 
L 294.792929 144.51656 
L 278.520606 144.192475 
L 262.248283 144.954512 
L 245.97596 178.387774 
L 229.703636 182.460729 
L 213.431313 184.484067 
L 197.15899 185.745369 
L 180.886667 186.270912 
L 164.614343 187.593527 
L 148.34202 206.513058 
L 132.069697 207.616697 
L 115.797374 208.886758 
L 99.525051 218.583017 
L 83.252727 223.470562 
z
" clip-path="url(#p583b10839e)" style="fill: #ff7f0e; fill-opacity: 0.7"/>
   </g>
   <g id="FillBetweenPolyCollection_13">
    <path d="M 83.252727 223.444285 
L 83.252727 223.470562 
L 99.525051 218.583017 
L 115.797374 208.886758 
L 132.069697 207.616697 
L 148.34202 206.513058 
L 164.614343 187.593527 
L 180.886667 186.270912 
L 197.15899 185.745369 
L 213.431313 184.484067 
L 229.703636 182.460729 
L 245.97596 178.387774 
L 262.248283 144.954512 
L 278.520606 144.192475 
L 294.792929 144.51656 
L 311.065253 143.430439 
L 327.337576 142.41439 
L 343.609899 141.976438 
L 359.882222 140.723895 
L 376.154545 139.103472 
L 392.426869 138.612966 
L 408.699192 136.878675 
L 424.971515 135.634891 
L 441.243838 134.636361 
L 457.516162 55.831262 
L 473.788485 54.219598 
L 490.060808 53.729092 
L 506.333131 55.261924 
L 522.605455 57.548034 
L 538.877778 57.092564 
L 555.150101 55.524695 
L 571.422424 56.277973 
L 587.694747 54.885285 
L 603.967071 53.702815 
L 620.239394 52.415236 
L 636.511717 50.321825 
L 652.78404 50.059053 
L 669.056364 50.067812 
L 685.328687 47.431341 
L 701.60101 46.914557 
L 717.873333 46.634268 
L 734.145657 43.586122 
L 750.41798 41.116072 
L 766.690303 42.456205 
L 782.962626 39.250396 
L 799.234949 38.593468 
L 815.507273 39.618276 
L 815.507273 38.094202 
L 815.507273 38.094202 
L 799.234949 36.885455 
L 782.962626 37.594937 
L 766.690303 40.809505 
L 750.41798 39.451854 
L 734.145657 42.000735 
L 717.873333 44.952532 
L 701.60101 45.294135 
L 685.328687 45.740846 
L 669.056364 48.412354 
L 652.78404 48.508703 
L 636.511717 48.613811 
L 620.239394 50.724741 
L 603.967071 51.889693 
L 587.694747 53.115959 
L 571.422424 54.596237 
L 555.150101 53.764128 
L 538.877778 55.323237 
L 522.605455 55.752431 
L 506.333131 53.47508 
L 490.060808 51.951006 
L 473.788485 52.511585 
L 457.516162 54.149526 
L 441.243838 133.944396 
L 424.971515 135.083072 
L 408.699192 136.125398 
L 392.426869 137.894724 
L 376.154545 138.429026 
L 359.882222 140.049449 
L 343.609899 141.240678 
L 327.337576 141.687389 
L 311.065253 142.720956 
L 294.792929 143.868391 
L 278.520606 143.474234 
L 262.248283 144.174957 
L 245.97596 178.037413 
L 229.703636 182.092849 
L 213.431313 184.177501 
L 197.15899 185.438803 
L 180.886667 185.938068 
L 164.614343 187.251925 
L 148.34202 206.372913 
L 132.069697 207.450275 
L 115.797374 208.711577 
L 99.525051 218.504186 
L 83.252727 223.444285 
z
" clip-path="url(#p583b10839e)" style="fill: #2ca02c; fill-opacity: 0.7"/>
   </g>
   <g id="matplotlib.axis_1">
    <g id="xtick_1">
     <g id="line2d_1">
      <path d="M 66.980404 244.48 
L 66.980404 27 
" clip-path="url(#p583b10839e)" style="fill: none; stroke: #b0b0b0; stroke-opacity: 0.25; stroke-width: 0.8; stroke-linecap: square"/>
     </g>
     <g id="line2d_2">
      <defs>
       <path id="mdc4e4db7ec" d="M 0 0 
L 0 3.5 
" style="stroke: #000000; stroke-width: 0.8"/>
      </defs>
      <g>
       <use xlink:href="#mdc4e4db7ec" x="66.980404" y="244.48" style="stroke: #000000; stroke-width: 0.8"/>
      </g>
     </g>
     <g id="text_1">
      <!-- 0 -->
      <g transform="translate(63.799154 259.078438) scale(0.1 -0.1)">
       <defs>
        <path id="DejaVuSans-30" d="M 2034 4250 
Q 1547 4250 1301 3770 
Q 1056 3291 1056 2328 
Q 1056 1369 1301 889 
Q 1547 409 2034 409 
Q 2525 409 2770 889 
Q 3016 1369 3016 2328 
Q 3016 3291 2770 3770 
Q 2525 4250 2034 4250 
z
M 2034 4750 
Q 2819 4750 3233 4129 
Q 3647 3509 3647 2328 
Q 3647 1150 3233 529 
Q 2819 -91 2034 -91 
Q 1250 -91 836 529 
Q 422 1150 422 2328 
Q 422 3509 836 4129 
Q 1250 4750 2034 4750 
z
" transform="scale(0.015625)"/>
       </defs>
       <use xlink:href="#DejaVuSans-30"/>
      </g>
     </g>
    </g>
    <g id="xtick_2">
     <g id="line2d_3">
      <path d="M 229.703636 244.48 
L 229.703636 27 
" clip-path="url(#p583b10839e)" style="fill: none; stroke: #b0b0b0; stroke-opacity: 0.25; stroke-width: 0.8; stroke-linecap: square"/>
     </g>
     <g id="line2d_4">
      <g>
       <use xlink:href="#mdc4e4db7ec" x="229.703636" y="244.48" style="stroke: #000000; stroke-width: 0.8"/>
      </g>
     </g>
     <g id="text_2">
      <!-- 10 -->
      <g transform="translate(223.341136 259.078438) scale(0.1 -0.1)">
       <defs>
        <path id="DejaVuSans-31" d="M 794 531 
L 1825 531 
L 1825 4091 
L 703 3866 
L 703 4441 
L 1819 4666 
L 2450 4666 
L 2450 531 
L 3481 531 
L 3481 0 
L 794 0 
L 794 531 
z
" transform="scale(0.015625)"/>
       </defs>
       <use xlink:href="#DejaVuSans-31"/>
       <use xlink:href="#DejaVuSans-30" transform="translate(63.623047 0)"/>
      </g>
     </g>
    </g>
    <g id="xtick_3">
     <g id="line2d_5">
      <path d="M 392.426869 244.48 
L 392.426869 27 
" clip-path="url(#p583b10839e)" style="fill: none; stroke: #b0b0b0; stroke-opacity: 0.25; stroke-width: 0.8; stroke-linecap: square"/>
     </g>
     <g id="line2d_6">
      <g>
       <use xlink:href="#mdc4e4db7ec" x="392.426869" y="244.48" style="stroke: #000000; stroke-width: 0.8"/>
      </g>
     </g>
     <g id="text_3">
      <!-- 20 -->
      <g transform="translate(386.064369 259.078438) scale(0.1 -0.1)">
       <defs>
        <path id="DejaVuSans-32" d="M 1228 531 
L 3431 531 
L 3431 0 
L 469 0 
L 469 531 
Q 828 903 1448 1529 
Q 2069 2156 2228 2338 
Q 2531 2678 2651 2914 
Q 2772 3150 2772 3378 
Q 2772 3750 2511 3984 
Q 2250 4219 1831 4219 
Q 1534 4219 1204 4116 
Q 875 4013 500 3803 
L 500 4441 
Q 881 4594 1212 4672 
Q 1544 4750 1819 4750 
Q 2544 4750 2975 4387 
Q 3406 4025 3406 3419 
Q 3406 3131 3298 2873 
Q 3191 2616 2906 2266 
Q 2828 2175 2409 1742 
Q 1991 1309 1228 531 
z
" transform="scale(0.015625)"/>
       </defs>
       <use xlink:href="#DejaVuSans-32"/>
       <use xlink:href="#DejaVuSans-30" transform="translate(63.623047 0)"/>
      </g>
     </g>
    </g>
    <g id="xtick_4">
     <g id="line2d_7">
      <path d="M 555.150101 244.48 
L 555.150101 27 
" clip-path="url(#p583b10839e)" style="fill: none; stroke: #b0b0b0; stroke-opacity: 0.25; stroke-width: 0.8; stroke-linecap: square"/>
     </g>
     <g id="line2d_8">
      <g>
       <use xlink:href="#mdc4e4db7ec" x="555.150101" y="244.48" style="stroke: #000000; stroke-width: 0.8"/>
      </g>
     </g>
     <g id="text_4">
      <!-- 30 -->
      <g transform="translate(548.787601 259.078438) scale(0.1 -0.1)">
       <defs>
        <path id="DejaVuSans-33" d="M 2597 2516 
Q 3050 2419 3304 2112 
Q 3559 1806 3559 1356 
Q 3559 666 3084 287 
Q 2609 -91 1734 -91 
Q 1441 -91 1130 -33 
Q 819 25 488 141 
L 488 750 
Q 750 597 1062 519 
Q 1375 441 1716 441 
Q 2309 441 2620 675 
Q 2931 909 2931 1356 
Q 2931 1769 2642 2001 
Q 2353 2234 1838 2234 
L 1294 2234 
L 1294 2753 
L 1863 2753 
Q 2328 2753 2575 2939 
Q 2822 3125 2822 3475 
Q 2822 3834 2567 4026 
Q 2313 4219 1838 4219 
Q 1578 4219 1281 4162 
Q 984 4106 628 3988 
L 628 4550 
Q 988 4650 1302 4700 
Q 1616 4750 1894 4750 
Q 2613 4750 3031 4423 
Q 3450 4097 3450 3541 
Q 3450 3153 3228 2886 
Q 3006 2619 2597 2516 
z
" transform="scale(0.015625)"/>
       </defs>
       <use xlink:href="#DejaVuSans-33"/>
       <use xlink:href="#DejaVuSans-30" transform="translate(63.623047 0)"/>
      </g>
     </g>
    </g>
    <g id="xtick_5">
     <g id="line2d_9">
      <path d="M 717.873333 244.48 
L 717.873333 27 
" clip-path="url(#p583b10839e)" style="fill: none; stroke: #b0b0b0; stroke-opacity: 0.25; stroke-width: 0.8; stroke-linecap: square"/>
     </g>
     <g id="line2d_10">
      <g>
       <use xlink:href="#mdc4e4db7ec" x="717.873333" y="244.48" style="stroke: #000000; stroke-width: 0.8"/>
      </g>
     </g>
     <g id="text_5">
      <!-- 40 -->
      <g transform="translate(711.510833 259.078438) scale(0.1 -0.1)">
       <defs>
        <path id="DejaVuSans-34" d="M 2419 4116 
L 825 1625 
L 2419 1625 
L 2419 4116 
z
M 2253 4666 
L 3047 4666 
L 3047 1625 
L 3713 1625 
L 3713 1100 
L 3047 1100 
L 3047 0 
L 2419 0 
L 2419 1100 
L 313 1100 
L 313 1709 
L 2253 4666 
z
" transform="scale(0.015625)"/>
       </defs>
       <use xlink:href="#DejaVuSans-34"/>
       <use xlink:href="#DejaVuSans-30" transform="translate(63.623047 0)"/>
      </g>
     </g>
    </g>
    <g id="text_6">
     <!-- Input -->
     <g transform="translate(435.138438 273.516406) scale(0.11 -0.11)">
      <defs>
       <path id="DejaVuSans-49" d="M 628 4666 
L 1259 4666 
L 1259 0 
L 628 0 
L 628 4666 
z
" transform="scale(0.015625)"/>
       <path id="DejaVuSans-6e" d="M 3513 2113 
L 3513 0 
L 2938 0 
L 2938 2094 
Q 2938 2591 2744 2837 
Q 2550 3084 2163 3084 
Q 1697 3084 1428 2787 
Q 1159 2491 1159 1978 
L 1159 0 
L 581 0 
L 581 3500 
L 1159 3500 
L 1159 2956 
Q 1366 3272 1645 3428 
Q 1925 3584 2291 3584 
Q 2894 3584 3203 3211 
Q 3513 2838 3513 2113 
z
" transform="scale(0.015625)"/>
       <path id="DejaVuSans-70" d="M 1159 525 
L 1159 -1331 
L 581 -1331 
L 581 3500 
L 1159 3500 
L 1159 2969 
Q 1341 3281 1617 3432 
Q 1894 3584 2278 3584 
Q 2916 3584 3314 3078 
Q 3713 2572 3713 1747 
Q 3713 922 3314 415 
Q 2916 -91 2278 -91 
Q 1894 -91 1617 61 
Q 1341 213 1159 525 
z
M 3116 1747 
Q 3116 2381 2855 2742 
Q 2594 3103 2138 3103 
Q 1681 3103 1420 2742 
Q 1159 2381 1159 1747 
Q 1159 1113 1420 752 
Q 1681 391 2138 391 
Q 2594 391 2855 752 
Q 3116 1113 3116 1747 
z
" transform="scale(0.015625)"/>
       <path id="DejaVuSans-75" d="M 544 1381 
L 544 3500 
L 1119 3500 
L 1119 1403 
Q 1119 906 1312 657 
Q 1506 409 1894 409 
Q 2359 409 2629 706 
Q 2900 1003 2900 1516 
L 2900 3500 
L 3475 3500 
L 3475 0 
L 2900 0 
L 2900 538 
Q 2691 219 2414 64 
Q 2138 -91 1772 -91 
Q 1169 -91 856 284 
Q 544 659 544 1381 
z
M 1991 3584 
L 1991 3584 
z
" transform="scale(0.015625)"/>
       <path id="DejaVuSans-74" d="M 1172 4494 
L 1172 3500 
L 2356 3500 
L 2356 3053 
L 1172 3053 
L 1172 1153 
Q 1172 725 1289 603 
Q 1406 481 1766 481 
L 2356 481 
L 2356 0 
L 1766 0 
Q 1100 0 847 248 
Q 594 497 594 1153 
L 594 3053 
L 172 3053 
L 172 3500 
L 594 3500 
L 594 4494 
L 1172 4494 
z
" transform="scale(0.015625)"/>
      </defs>
      <use xlink:href="#DejaVuSans-49"/>
      <use xlink:href="#DejaVuSans-6e" transform="translate(29.492188 0)"/>
      <use xlink:href="#DejaVuSans-70" transform="translate(92.871094 0)"/>
      <use xlink:href="#DejaVuSans-75" transform="translate(156.347656 0)"/>
      <use xlink:href="#DejaVuSans-74" transform="translate(219.726562 0)"/>
     </g>
    </g>
   </g>
   <g id="matplotlib.axis_2">
    <g id="ytick_1">
     <g id="line2d_11">
      <path d="M 46.64 234.594545 
L 852.12 234.594545 
" clip-path="url(#p583b10839e)" style="fill: none; stroke: #b0b0b0; stroke-opacity: 0.25; stroke-width: 0.8; stroke-linecap: square"/>
     </g>
     <g id="line2d_12">
      <defs>
       <path id="m015801ee36" d="M 0 0 
L -3.5 0 
" style="stroke: #000000; stroke-width: 0.8"/>
      </defs>
      <g>
       <use xlink:href="#m015801ee36" x="46.64" y="234.594545" style="stroke: #000000; stroke-width: 0.8"/>
      </g>
     </g>
     <g id="text_7">
      <!-- 0 -->
      <g transform="translate(33.2775 238.393764) scale(0.1 -0.1)">
       <use xlink:href="#DejaVuSans-30"/>
      </g>
     </g>
    </g>
    <g id="ytick_2">
     <g id="line2d_13">
      <path d="M 46.64 190.799337 
L 852.12 190.799337 
" clip-path="url(#p583b10839e)" style="fill: none; stroke: #b0b0b0; stroke-opacity: 0.25; stroke-width: 0.8; stroke-linecap: square"/>
     </g>
     <g id="line2d_14">
      <g>
       <use xlink:href="#m015801ee36" x="46.64" y="190.799337" style="stroke: #000000; stroke-width: 0.8"/>
      </g>
     </g>
     <g id="text_8">
      <!-- 5 -->
      <g transform="translate(33.2775 194.598555) scale(0.1 -0.1)">
       <defs>
        <path id="DejaVuSans-35" d="M 691 4666 
L 3169 4666 
L 3169 4134 
L 1269 4134 
L 1269 2991 
Q 1406 3038 1543 3061 
Q 1681 3084 1819 3084 
Q 2600 3084 3056 2656 
Q 3513 2228 3513 1497 
Q 3513 744 3044 326 
Q 2575 -91 1722 -91 
Q 1428 -91 1123 -41 
Q 819 9 494 109 
L 494 744 
Q 775 591 1075 516 
Q 1375 441 1709 441 
Q 2250 441 2565 725 
Q 2881 1009 2881 1497 
Q 2881 1984 2565 2268 
Q 2250 2553 1709 2553 
Q 1456 2553 1204 2497 
Q 953 2441 691 2322 
L 691 4666 
z
" transform="scale(0.015625)"/>
       </defs>
       <use xlink:href="#DejaVuSans-35"/>
      </g>
     </g>
    </g>
    <g id="ytick_3">
     <g id="line2d_15">
      <path d="M 46.64 147.004128 
L 852.12 147.004128 
" clip-path="url(#p583b10839e)" style="fill: none; stroke: #b0b0b0; stroke-opacity: 0.25; stroke-width: 0.8; stroke-linecap: square"/>
     </g>
     <g id="line2d_16">
      <g>
       <use xlink:href="#m015801ee36" x="46.64" y="147.004128" style="stroke: #000000; stroke-width: 0.8"/>
      </g>
     </g>
     <g id="text_9">
      <!-- 10 -->
      <g transform="translate(26.915 150.803346) scale(0.1 -0.1)">
       <use xlink:href="#DejaVuSans-31"/>
       <use xlink:href="#DejaVuSans-30" transform="translate(63.623047 0)"/>
      </g>
     </g>
    </g>
    <g id="ytick_4">
     <g id="line2d_17">
      <path d="M 46.64 103.208919 
L 852.12 103.208919 
" clip-path="url(#p583b10839e)" style="fill: none; stroke: #b0b0b0; stroke-opacity: 0.25; stroke-width: 0.8; stroke-linecap: square"/>
     </g>
     <g id="line2d_18">
      <g>
       <use xlink:href="#m015801ee36" x="46.64" y="103.208919" style="stroke: #000000; stroke-width: 0.8"/>
      </g>
     </g>
     <g id="text_10">
      <!-- 15 -->
      <g transform="translate(26.915 107.008138) scale(0.1 -0.1)">
       <use xlink:href="#DejaVuSans-31"/>
       <use xlink:href="#DejaVuSans-35" transform="translate(63.623047 0)"/>
      </g>
     </g>
    </g>
    <g id="ytick_5">
     <g id="line2d_19">
      <path d="M 46.64 59.41371 
L 852.12 59.41371 
" clip-path="url(#p583b10839e)" style="fill: none; stroke: #b0b0b0; stroke-opacity: 0.25; stroke-width: 0.8; stroke-linecap: square"/>
     </g>
     <g id="line2d_20">
      <g>
       <use xlink:href="#m015801ee36" x="46.64" y="59.41371" style="stroke: #000000; stroke-width: 0.8"/>
      </g>
     </g>
     <g id="text_11">
      <!-- 20 -->
      <g transform="translate(26.915 63.212929) scale(0.1 -0.1)">
       <use xlink:href="#DejaVuSans-32"/>
       <use xlink:href="#DejaVuSans-30" transform="translate(63.623047 0)"/>
      </g>
     </g>
    </g>
    <g id="text_12">
     <!-- Time (s) -->
     <g transform="translate(20.627344 158.101797) rotate(-90) scale(0.11 -0.11)">
      <defs>
       <path id="DejaVuSans-54" d="M -19 4666 
L 3928 4666 
L 3928 4134 
L 2272 4134 
L 2272 0 
L 1638 0 
L 1638 4134 
L -19 4134 
L -19 4666 
z
" transform="scale(0.015625)"/>
       <path id="DejaVuSans-69" d="M 603 3500 
L 1178 3500 
L 1178 0 
L 603 0 
L 603 3500 
z
M 603 4863 
L 1178 4863 
L 1178 4134 
L 603 4134 
L 603 4863 
z
" transform="scale(0.015625)"/>
       <path id="DejaVuSans-6d" d="M 3328 2828 
Q 3544 3216 3844 3400 
Q 4144 3584 4550 3584 
Q 5097 3584 5394 3201 
Q 5691 2819 5691 2113 
L 5691 0 
L 5113 0 
L 5113 2094 
Q 5113 2597 4934 2840 
Q 4756 3084 4391 3084 
Q 3944 3084 3684 2787 
Q 3425 2491 3425 1978 
L 3425 0 
L 2847 0 
L 2847 2094 
Q 2847 2600 2669 2842 
Q 2491 3084 2119 3084 
Q 1678 3084 1418 2786 
Q 1159 2488 1159 1978 
L 1159 0 
L 581 0 
L 581 3500 
L 1159 3500 
L 1159 2956 
Q 1356 3278 1631 3431 
Q 1906 3584 2284 3584 
Q 2666 3584 2933 3390 
Q 3200 3197 3328 2828 
z
" transform="scale(0.015625)"/>
       <path id="DejaVuSans-65" d="M 3597 1894 
L 3597 1613 
L 953 1613 
Q 991 1019 1311 708 
Q 1631 397 2203 397 
Q 2534 397 2845 478 
Q 3156 559 3463 722 
L 3463 178 
Q 3153 47 2828 -22 
Q 2503 -91 2169 -91 
Q 1331 -91 842 396 
Q 353 884 353 1716 
Q 353 2575 817 3079 
Q 1281 3584 2069 3584 
Q 2775 3584 3186 3129 
Q 3597 2675 3597 1894 
z
M 3022 2063 
Q 3016 2534 2758 2815 
Q 2500 3097 2075 3097 
Q 1594 3097 1305 2825 
Q 1016 2553 972 2059 
L 3022 2063 
z
" transform="scale(0.015625)"/>
       <path id="DejaVuSans-20" transform="scale(0.015625)"/>
       <path id="DejaVuSans-28" d="M 1984 4856 
Q 1566 4138 1362 3434 
Q 1159 2731 1159 2009 
Q 1159 1288 1364 580 
Q 1569 -128 1984 -844 
L 1484 -844 
Q 1016 -109 783 600 
Q 550 1309 550 2009 
Q 550 2706 781 3412 
Q 1013 4119 1484 4856 
L 1984 4856 
z
" transform="scale(0.015625)"/>
       <path id="DejaVuSans-73" d="M 2834 3397 
L 2834 2853 
Q 2591 2978 2328 3040 
Q 2066 3103 1784 3103 
Q 1356 3103 1142 2972 
Q 928 2841 928 2578 
Q 928 2378 1081 2264 
Q 1234 2150 1697 2047 
L 1894 2003 
Q 2506 1872 2764 1633 
Q 3022 1394 3022 966 
Q 3022 478 2636 193 
Q 2250 -91 1575 -91 
Q 1294 -91 989 -36 
Q 684 19 347 128 
L 347 722 
Q 666 556 975 473 
Q 1284 391 1588 391 
Q 1994 391 2212 530 
Q 2431 669 2431 922 
Q 2431 1156 2273 1281 
Q 2116 1406 1581 1522 
L 1381 1569 
Q 847 1681 609 1914 
Q 372 2147 372 2553 
Q 372 3047 722 3315 
Q 1072 3584 1716 3584 
Q 2034 3584 2315 3537 
Q 2597 3491 2834 3397 
z
" transform="scale(0.015625)"/>
       <path id="DejaVuSans-29" d="M 513 4856 
L 1013 4856 
Q 1481 4119 1714 3412 
Q 1947 2706 1947 2009 
Q 1947 1309 1714 600 
Q 1481 -109 1013 -844 
L 513 -844 
Q 928 -128 1133 580 
Q 1338 1288 1338 2009 
Q 1338 2731 1133 3434 
Q 928 4138 513 4856 
z
" transform="scale(0.015625)"/>
      </defs>
      <use xlink:href="#DejaVuSans-54"/>
      <use xlink:href="#DejaVuSans-69" transform="translate(57.958984 0)"/>
      <use xlink:href="#DejaVuSans-6d" transform="translate(85.742188 0)"/>
      <use xlink:href="#DejaVuSans-65" transform="translate(183.154297 0)"/>
      <use xlink:href="#DejaVuSans-20" transform="translate(244.677734 0)"/>
      <use xlink:href="#DejaVuSans-28" transform="translate(276.464844 0)"/>
      <use xlink:href="#DejaVuSans-73" transform="translate(315.478516 0)"/>
      <use xlink:href="#DejaVuSans-29" transform="translate(367.578125 0)"/>
     </g>
    </g>
   </g>
   <g id="patch_3">
    <path d="M 46.64 244.48 
L 46.64 27 
" style="fill: none; stroke: #000000; stroke-width: 0.8; stroke-linejoin: miter; stroke-linecap: square"/>
   </g>
   <g id="patch_4">
    <path d="M 852.12 244.48 
L 852.12 27 
" style="fill: none; stroke: #000000; stroke-width: 0.8; stroke-linejoin: miter; stroke-linecap: square"/>
   </g>
   <g id="patch_5">
    <path d="M 46.64 244.48 
L 852.12 244.48 
" style="fill: none; stroke: #000000; stroke-width: 0.8; stroke-linejoin: miter; stroke-linecap: square"/>
   </g>
   <g id="patch_6">
    <path d="M 46.64 27 
L 852.12 27 
" style="fill: none; stroke: #000000; stroke-width: 0.8; stroke-linejoin: miter; stroke-linecap: square"/>
   </g>
   <g id="text_13">
    <!-- SHA3 Chain — prove subphases (mem-batch) -->
    <g transform="translate(312.273438 21) scale(0.12 -0.12)">
     <defs>
      <path id="DejaVuSans-53" d="M 3425 4513 
L 3425 3897 
Q 3066 4069 2747 4153 
Q 2428 4238 2131 4238 
Q 1616 4238 1336 4038 
Q 1056 3838 1056 3469 
Q 1056 3159 1242 3001 
Q 1428 2844 1947 2747 
L 2328 2669 
Q 3034 2534 3370 2195 
Q 3706 1856 3706 1288 
Q 3706 609 3251 259 
Q 2797 -91 1919 -91 
Q 1588 -91 1214 -16 
Q 841 59 441 206 
L 441 856 
Q 825 641 1194 531 
Q 1563 422 1919 422 
Q 2459 422 2753 634 
Q 3047 847 3047 1241 
Q 3047 1584 2836 1778 
Q 2625 1972 2144 2069 
L 1759 2144 
Q 1053 2284 737 2584 
Q 422 2884 422 3419 
Q 422 4038 858 4394 
Q 1294 4750 2059 4750 
Q 2388 4750 2728 4690 
Q 3069 4631 3425 4513 
z
" transform="scale(0.015625)"/>
      <path id="DejaVuSans-48" d="M 628 4666 
L 1259 4666 
L 1259 2753 
L 3553 2753 
L 3553 4666 
L 4184 4666 
L 4184 0 
L 3553 0 
L 3553 2222 
L 1259 2222 
L 1259 0 
L 628 0 
L 628 4666 
z
" transform="scale(0.015625)"/>
      <path id="DejaVuSans-41" d="M 2188 4044 
L 1331 1722 
L 3047 1722 
L 2188 4044 
z
M 1831 4666 
L 2547 4666 
L 4325 0 
L 3669 0 
L 3244 1197 
L 1141 1197 
L 716 0 
L 50 0 
L 1831 4666 
z
" transform="scale(0.015625)"/>
      <path id="DejaVuSans-43" d="M 4122 4306 
L 4122 3641 
Q 3803 3938 3442 4084 
Q 3081 4231 2675 4231 
Q 1875 4231 1450 3742 
Q 1025 3253 1025 2328 
Q 1025 1406 1450 917 
Q 1875 428 2675 428 
Q 3081 428 3442 575 
Q 3803 722 4122 1019 
L 4122 359 
Q 3791 134 3420 21 
Q 3050 -91 2638 -91 
Q 1578 -91 968 557 
Q 359 1206 359 2328 
Q 359 3453 968 4101 
Q 1578 4750 2638 4750 
Q 3056 4750 3426 4639 
Q 3797 4528 4122 4306 
z
" transform="scale(0.015625)"/>
      <path id="DejaVuSans-68" d="M 3513 2113 
L 3513 0 
L 2938 0 
L 2938 2094 
Q 2938 2591 2744 2837 
Q 2550 3084 2163 3084 
Q 1697 3084 1428 2787 
Q 1159 2491 1159 1978 
L 1159 0 
L 581 0 
L 581 4863 
L 1159 4863 
L 1159 2956 
Q 1366 3272 1645 3428 
Q 1925 3584 2291 3584 
Q 2894 3584 3203 3211 
Q 3513 2838 3513 2113 
z
" transform="scale(0.015625)"/>
      <path id="DejaVuSans-61" d="M 2194 1759 
Q 1497 1759 1228 1600 
Q 959 1441 959 1056 
Q 959 750 1161 570 
Q 1363 391 1709 391 
Q 2188 391 2477 730 
Q 2766 1069 2766 1631 
L 2766 1759 
L 2194 1759 
z
M 3341 1997 
L 3341 0 
L 2766 0 
L 2766 531 
Q 2569 213 2275 61 
Q 1981 -91 1556 -91 
Q 1019 -91 701 211 
Q 384 513 384 1019 
Q 384 1609 779 1909 
Q 1175 2209 1959 2209 
L 2766 2209 
L 2766 2266 
Q 2766 2663 2505 2880 
Q 2244 3097 1772 3097 
Q 1472 3097 1187 3025 
Q 903 2953 641 2809 
L 641 3341 
Q 956 3463 1253 3523 
Q 1550 3584 1831 3584 
Q 2591 3584 2966 3190 
Q 3341 2797 3341 1997 
z
" transform="scale(0.015625)"/>
      <path id="DejaVuSans-2014" d="M 313 1978 
L 6088 1978 
L 6088 1528 
L 313 1528 
L 313 1978 
z
" transform="scale(0.015625)"/>
      <path id="DejaVuSans-72" d="M 2631 2963 
Q 2534 3019 2420 3045 
Q 2306 3072 2169 3072 
Q 1681 3072 1420 2755 
Q 1159 2438 1159 1844 
L 1159 0 
L 581 0 
L 581 3500 
L 1159 3500 
L 1159 2956 
Q 1341 3275 1631 3429 
Q 1922 3584 2338 3584 
Q 2397 3584 2469 3576 
Q 2541 3569 2628 3553 
L 2631 2963 
z
" transform="scale(0.015625)"/>
      <path id="DejaVuSans-6f" d="M 1959 3097 
Q 1497 3097 1228 2736 
Q 959 2375 959 1747 
Q 959 1119 1226 758 
Q 1494 397 1959 397 
Q 2419 397 2687 759 
Q 2956 1122 2956 1747 
Q 2956 2369 2687 2733 
Q 2419 3097 1959 3097 
z
M 1959 3584 
Q 2709 3584 3137 3096 
Q 3566 2609 3566 1747 
Q 3566 888 3137 398 
Q 2709 -91 1959 -91 
Q 1206 -91 779 398 
Q 353 888 353 1747 
Q 353 2609 779 3096 
Q 1206 3584 1959 3584 
z
" transform="scale(0.015625)"/>
      <path id="DejaVuSans-76" d="M 191 3500 
L 800 3500 
L 1894 563 
L 2988 3500 
L 3597 3500 
L 2284 0 
L 1503 0 
L 191 3500 
z
" transform="scale(0.015625)"/>
      <path id="DejaVuSans-62" d="M 3116 1747 
Q 3116 2381 2855 2742 
Q 2594 3103 2138 3103 
Q 1681 3103 1420 2742 
Q 1159 2381 1159 1747 
Q 1159 1113 1420 752 
Q 1681 391 2138 391 
Q 2594 391 2855 752 
Q 3116 1113 3116 1747 
z
M 1159 2969 
Q 1341 3281 1617 3432 
Q 1894 3584 2278 3584 
Q 2916 3584 3314 3078 
Q 3713 2572 3713 1747 
Q 3713 922 3314 415 
Q 2916 -91 2278 -91 
Q 1894 -91 1617 61 
Q 1341 213 1159 525 
L 1159 0 
L 581 0 
L 581 4863 
L 1159 4863 
L 1159 2969 
z
" transform="scale(0.015625)"/>
      <path id="DejaVuSans-2d" d="M 313 2009 
L 1997 2009 
L 1997 1497 
L 313 1497 
L 313 2009 
z
" transform="scale(0.015625)"/>
      <path id="DejaVuSans-63" d="M 3122 3366 
L 3122 2828 
Q 2878 2963 2633 3030 
Q 2388 3097 2138 3097 
Q 1578 3097 1268 2742 
Q 959 2388 959 1747 
Q 959 1106 1268 751 
Q 1578 397 2138 397 
Q 2388 397 2633 464 
Q 2878 531 3122 666 
L 3122 134 
Q 2881 22 2623 -34 
Q 2366 -91 2075 -91 
Q 1284 -91 818 406 
Q 353 903 353 1747 
Q 353 2603 823 3093 
Q 1294 3584 2113 3584 
Q 2378 3584 2631 3529 
Q 2884 3475 3122 3366 
z
" transform="scale(0.015625)"/>
     </defs>
     <use xlink:href="#DejaVuSans-53"/>
     <use xlink:href="#DejaVuSans-48" transform="translate(63.476562 0)"/>
     <use xlink:href="#DejaVuSans-41" transform="translate(138.671875 0)"/>
     <use xlink:href="#DejaVuSans-33" transform="translate(207.080078 0)"/>
     <use xlink:href="#DejaVuSans-20" transform="translate(270.703125 0)"/>
     <use xlink:href="#DejaVuSans-43" transform="translate(302.490234 0)"/>
     <use xlink:href="#DejaVuSans-68" transform="translate(372.314453 0)"/>
     <use xlink:href="#DejaVuSans-61" transform="translate(435.693359 0)"/>
     <use xlink:href="#DejaVuSans-69" transform="translate(496.972656 0)"/>
     <use xlink:href="#DejaVuSans-6e" transform="translate(524.755859 0)"/>
     <use xlink:href="#DejaVuSans-20" transform="translate(588.134766 0)"/>
     <use xlink:href="#DejaVuSans-2014" transform="translate(619.921875 0)"/>
     <use xlink:href="#DejaVuSans-20" transform="translate(719.921875 0)"/>
     <use xlink:href="#DejaVuSans-70" transform="translate(751.708984 0)"/>
     <use xlink:href="#DejaVuSans-72" transform="translate(815.185547 0)"/>
     <use xlink:href="#DejaVuSans-6f" transform="translate(854.048828 0)"/>
     <use xlink:href="#DejaVuSans-76" transform="translate(915.230469 0)"/>
     <use xlink:href="#DejaVuSans-65" transform="translate(974.410156 0)"/>
     <use xlink:href="#DejaVuSans-20" transform="translate(1035.933594 0)"/>
     <use xlink:href="#DejaVuSans-73" transform="translate(1067.720703 0)"/>
     <use xlink:href="#DejaVuSans-75" transform="translate(1119.820312 0)"/>
     <use xlink:href="#DejaVuSans-62" transform="translate(1183.199219 0)"/>
     <use xlink:href="#DejaVuSans-70" transform="translate(1246.675781 0)"/>
     <use xlink:href="#DejaVuSans-68" transform="translate(1310.152344 0)"/>
     <use xlink:href="#DejaVuSans-61" transform="translate(1373.53125 0)"/>
     <use xlink:href="#DejaVuSans-73" transform="translate(1434.810547 0)"/>
     <use xlink:href="#DejaVuSans-65" transform="translate(1486.910156 0)"/>
     <use xlink:href="#DejaVuSans-73" transform="translate(1548.433594 0)"/>
     <use xlink:href="#DejaVuSans-20" transform="translate(1600.533203 0)"/>
     <use xlink:href="#DejaVuSans-28" transform="translate(1632.320312 0)"/>
     <use xlink:href="#DejaVuSans-6d" transform="translate(1671.333984 0)"/>
     <use xlink:href="#DejaVuSans-65" transform="translate(1768.746094 0)"/>
     <use xlink:href="#DejaVuSans-6d" transform="translate(1830.269531 0)"/>
     <use xlink:href="#DejaVuSans-2d" transform="translate(1927.681641 0)"/>
     <use xlink:href="#DejaVuSans-62" transform="translate(1963.765625 0)"/>
     <use xlink:href="#DejaVuSans-61" transform="translate(2027.242188 0)"/>
     <use xlink:href="#DejaVuSans-74" transform="translate(2088.521484 0)"/>
     <use xlink:href="#DejaVuSans-63" transform="translate(2127.730469 0)"/>
     <use xlink:href="#DejaVuSans-68" transform="translate(2182.710938 0)"/>
     <use xlink:href="#DejaVuSans-29" transform="translate(2246.089844 0)"/>
    </g>
   </g>
   <g id="legend_1">
    <g id="patch_7">
     <path d="M 55.64 43.598438 
L 75.64 43.598438 
L 75.64 36.598438 
L 55.64 36.598438 
z
" style="fill: #1f77b4; fill-opacity: 0.7"/>
    </g>
    <g id="text_14">
     <!-- bytecode -->
     <g transform="translate(83.64 43.598438) scale(0.1 -0.1)">
      <defs>
       <path id="DejaVuSans-79" d="M 2059 -325 
Q 1816 -950 1584 -1140 
Q 1353 -1331 966 -1331 
L 506 -1331 
L 506 -850 
L 844 -850 
Q 1081 -850 1212 -737 
Q 1344 -625 1503 -206 
L 1606 56 
L 191 3500 
L 800 3500 
L 1894 763 
L 2988 3500 
L 3597 3500 
L 2059 -325 
z
" transform="scale(0.015625)"/>
       <path id="DejaVuSans-64" d="M 2906 2969 
L 2906 4863 
L 3481 4863 
L 3481 0 
L 2906 0 
L 2906 525 
Q 2725 213 2448 61 
Q 2172 -91 1784 -91 
Q 1150 -91 751 415 
Q 353 922 353 1747 
Q 353 2572 751 3078 
Q 1150 3584 1784 3584 
Q 2172 3584 2448 3432 
Q 2725 3281 2906 2969 
z
M 947 1747 
Q 947 1113 1208 752 
Q 1469 391 1925 391 
Q 2381 391 2643 752 
Q 2906 1113 2906 1747 
Q 2906 2381 2643 2742 
Q 2381 3103 1925 3103 
Q 1469 3103 1208 2742 
Q 947 2381 947 1747 
z
" transform="scale(0.015625)"/>
      </defs>
      <use xlink:href="#DejaVuSans-62"/>
      <use xlink:href="#DejaVuSans-79" transform="translate(63.476562 0)"/>
      <use xlink:href="#DejaVuSans-74" transform="translate(122.65625 0)"/>
      <use xlink:href="#DejaVuSans-65" transform="translate(161.865234 0)"/>
      <use xlink:href="#DejaVuSans-63" transform="translate(223.388672 0)"/>
      <use xlink:href="#DejaVuSans-6f" transform="translate(278.369141 0)"/>
      <use xlink:href="#DejaVuSans-64" transform="translate(339.550781 0)"/>
      <use xlink:href="#DejaVuSans-65" transform="translate(403.027344 0)"/>
     </g>
    </g>
    <g id="patch_8">
     <path d="M 55.64 58.276563 
L 75.64 58.276563 
L 75.64 51.276563 
L 55.64 51.276563 
z
" style="fill: #ff7f0e; fill-opacity: 0.7"/>
    </g>
    <g id="text_15">
     <!-- commit -->
     <g transform="translate(83.64 58.276563) scale(0.1 -0.1)">
      <use xlink:href="#DejaVuSans-63"/>
      <use xlink:href="#DejaVuSans-6f" transform="translate(54.980469 0)"/>
      <use xlink:href="#DejaVuSans-6d" transform="translate(116.162109 0)"/>
      <use xlink:href="#DejaVuSans-6d" transform="translate(213.574219 0)"/>
      <use xlink:href="#DejaVuSans-69" transform="translate(310.986328 0)"/>
      <use xlink:href="#DejaVuSans-74" transform="translate(338.769531 0)"/>
     </g>
    </g>
    <g id="patch_9">
     <path d="M 55.64 72.954688 
L 75.64 72.954688 
L 75.64 65.954688 
L 55.64 65.954688 
z
" style="fill: #2ca02c; fill-opacity: 0.7"/>
    </g>
    <g id="text_16">
     <!-- il -->
     <g transform="translate(83.64 72.954688) scale(0.1 -0.1)">
      <defs>
       <path id="DejaVuSans-6c" d="M 603 4863 
L 1178 4863 
L 1178 0 
L 603 0 
L 603 4863 
z
" transform="scale(0.015625)"/>
      </defs>
      <use xlink:href="#DejaVuSans-69"/>
      <use xlink:href="#DejaVuSans-6c" transform="translate(27.783203 0)"/>
     </g>
    </g>
    <g id="patch_10">
     <path d="M 55.64 87.632813 
L 75.64 87.632813 
L 75.64 80.632813 
L 55.64 80.632813 
z
" style="fill: #d62728; fill-opacity: 0.7"/>
    </g>
    <g id="text_17">
     <!-- il_wit -->
     <g transform="translate(83.64 87.632813) scale(0.1 -0.1)">
      <defs>
       <path id="DejaVuSans-5f" d="M 3263 -1063 
L 3263 -1509 
L -63 -1509 
L -63 -1063 
L 3263 -1063 
z
" transform="scale(0.015625)"/>
       <path id="DejaVuSans-77" d="M 269 3500 
L 844 3500 
L 1563 769 
L 2278 3500 
L 2956 3500 
L 3675 769 
L 4391 3500 
L 4966 3500 
L 4050 0 
L 3372 0 
L 2619 2869 
L 1863 0 
L 1184 0 
L 269 3500 
z
" transform="scale(0.015625)"/>
      </defs>
      <use xlink:href="#DejaVuSans-69"/>
      <use xlink:href="#DejaVuSans-6c" transform="translate(27.783203 0)"/>
      <use xlink:href="#DejaVuSans-5f" transform="translate(55.566406 0)"/>
      <use xlink:href="#DejaVuSans-77" transform="translate(105.566406 0)"/>
      <use xlink:href="#DejaVuSans-69" transform="translate(187.353516 0)"/>
      <use xlink:href="#DejaVuSans-74" transform="translate(215.136719 0)"/>
     </g>
    </g>
    <g id="patch_11">
     <path d="M 150.099375 43.598438 
L 170.099375 43.598438 
L 170.099375 36.598438 
L 150.099375 36.598438 
z
" style="fill: #9467bd; fill-opacity: 0.7"/>
    </g>
    <g id="text_18">
     <!-- openings -->
     <g transform="translate(178.099375 43.598438) scale(0.1 -0.1)">
      <defs>
       <path id="DejaVuSans-67" d="M 2906 1791 
Q 2906 2416 2648 2759 
Q 2391 3103 1925 3103 
Q 1463 3103 1205 2759 
Q 947 2416 947 1791 
Q 947 1169 1205 825 
Q 1463 481 1925 481 
Q 2391 481 2648 825 
Q 2906 1169 2906 1791 
z
M 3481 434 
Q 3481 -459 3084 -895 
Q 2688 -1331 1869 -1331 
Q 1566 -1331 1297 -1286 
Q 1028 -1241 775 -1147 
L 775 -588 
Q 1028 -725 1275 -790 
Q 1522 -856 1778 -856 
Q 2344 -856 2625 -561 
Q 2906 -266 2906 331 
L 2906 616 
Q 2728 306 2450 153 
Q 2172 0 1784 0 
Q 1141 0 747 490 
Q 353 981 353 1791 
Q 353 2603 747 3093 
Q 1141 3584 1784 3584 
Q 2172 3584 2450 3431 
Q 2728 3278 2906 2969 
L 2906 3500 
L 3481 3500 
L 3481 434 
z
" transform="scale(0.015625)"/>
      </defs>
      <use xlink:href="#DejaVuSans-6f"/>
      <use xlink:href="#DejaVuSans-70" transform="translate(61.181641 0)"/>
      <use xlink:href="#DejaVuSans-65" transform="translate(124.658203 0)"/>
      <use xlink:href="#DejaVuSans-6e" transform="translate(186.181641 0)"/>
      <use xlink:href="#DejaVuSans-69" transform="translate(249.560547 0)"/>
      <use xlink:href="#DejaVuSans-6e" transform="translate(277.34375 0)"/>
      <use xlink:href="#DejaVuSans-67" transform="translate(340.722656 0)"/>
      <use xlink:href="#DejaVuSans-73" transform="translate(404.199219 0)"/>
     </g>
    </g>
    <g id="patch_12">
     <path d="M 150.099375 58.276563 
L 170.099375 58.276563 
L 170.099375 51.276563 
L 150.099375 51.276563 
z
" style="fill: #8c564b; fill-opacity: 0.7"/>
    </g>
    <g id="text_19">
     <!-- preamble -->
     <g transform="translate(178.099375 58.276563) scale(0.1 -0.1)">
      <use xlink:href="#DejaVuSans-70"/>
      <use xlink:href="#DejaVuSans-72" transform="translate(63.476562 0)"/>
      <use xlink:href="#DejaVuSans-65" transform="translate(102.339844 0)"/>
      <use xlink:href="#DejaVuSans-61" transform="translate(163.863281 0)"/>
      <use xlink:href="#DejaVuSans-6d" transform="translate(225.142578 0)"/>
      <use xlink:href="#DejaVuSans-62" transform="translate(322.554688 0)"/>
      <use xlink:href="#DejaVuSans-6c" transform="translate(386.03125 0)"/>
      <use xlink:href="#DejaVuSans-65" transform="translate(413.814453 0)"/>
     </g>
    </g>
    <g id="patch_13">
     <path d="M 150.099375 72.954688 
L 170.099375 72.954688 
L 170.099375 65.954688 
L 150.099375 65.954688 
z
" style="fill: #e377c2; fill-opacity: 0.7"/>
    </g>
    <g id="text_20">
     <!-- r1cs_aux -->
     <g transform="translate(178.099375 72.954688) scale(0.1 -0.1)">
      <defs>
       <path id="DejaVuSans-78" d="M 3513 3500 
L 2247 1797 
L 3578 0 
L 2900 0 
L 1881 1375 
L 863 0 
L 184 0 
L 1544 1831 
L 300 3500 
L 978 3500 
L 1906 2253 
L 2834 3500 
L 3513 3500 
z
" transform="scale(0.015625)"/>
      </defs>
      <use xlink:href="#DejaVuSans-72"/>
      <use xlink:href="#DejaVuSans-31" transform="translate(41.113281 0)"/>
      <use xlink:href="#DejaVuSans-63" transform="translate(104.736328 0)"/>
      <use xlink:href="#DejaVuSans-73" transform="translate(159.716797 0)"/>
      <use xlink:href="#DejaVuSans-5f" transform="translate(211.816406 0)"/>
      <use xlink:href="#DejaVuSans-61" transform="translate(261.816406 0)"/>
      <use xlink:href="#DejaVuSans-75" transform="translate(323.095703 0)"/>
      <use xlink:href="#DejaVuSans-78" transform="translate(386.474609 0)"/>
     </g>
    </g>
    <g id="patch_14">
     <path d="M 245.635313 43.598438 
L 265.635313 43.598438 
L 265.635313 36.598438 
L 245.635313 36.598438 
z
" style="fill: #7f7f7f; fill-opacity: 0.7"/>
    </g>
    <g id="text_21">
     <!-- r1cs_polys -->
     <g transform="translate(273.635313 43.598438) scale(0.1 -0.1)">
      <use xlink:href="#DejaVuSans-72"/>
      <use xlink:href="#DejaVuSans-31" transform="translate(41.113281 0)"/>
      <use xlink:href="#DejaVuSans-63" transform="translate(104.736328 0)"/>
      <use xlink:href="#DejaVuSans-73" transform="translate(159.716797 0)"/>
      <use xlink:href="#DejaVuSans-5f" transform="translate(211.816406 0)"/>
      <use xlink:href="#DejaVuSans-70" transform="translate(261.816406 0)"/>
      <use xlink:href="#DejaVuSans-6f" transform="translate(325.292969 0)"/>
      <use xlink:href="#DejaVuSans-6c" transform="translate(386.474609 0)"/>
      <use xlink:href="#DejaVuSans-79" transform="translate(414.257812 0)"/>
      <use xlink:href="#DejaVuSans-73" transform="translate(473.4375 0)"/>
     </g>
    </g>
    <g id="patch_15">
     <path d="M 245.635313 58.554688 
L 265.635313 58.554688 
L 265.635313 51.554688 
L 245.635313 51.554688 
z
" style="fill: #bcbd22; fill-opacity: 0.7"/>
    </g>
    <g id="text_22">
     <!-- r1cs_setup -->
     <g transform="translate(273.635313 58.554688) scale(0.1 -0.1)">
      <use xlink:href="#DejaVuSans-72"/>
      <use xlink:href="#DejaVuSans-31" transform="translate(41.113281 0)"/>
      <use xlink:href="#DejaVuSans-63" transform="translate(104.736328 0)"/>
      <use xlink:href="#DejaVuSans-73" transform="translate(159.716797 0)"/>
      <use xlink:href="#DejaVuSans-5f" transform="translate(211.816406 0)"/>
      <use xlink:href="#DejaVuSans-73" transform="translate(261.816406 0)"/>
      <use xlink:href="#DejaVuSans-65" transform="translate(313.916016 0)"/>
      <use xlink:href="#DejaVuSans-74" transform="translate(375.439453 0)"/>
      <use xlink:href="#DejaVuSans-75" transform="translate(414.648438 0)"/>
      <use xlink:href="#DejaVuSans-70" transform="translate(478.027344 0)"/>
     </g>
    </g>
    <g id="patch_16">
     <path d="M 245.635313 73.510938 
L 265.635313 73.510938 
L 265.635313 66.510938 
L 245.635313 66.510938 
z
" style="fill: #17becf; fill-opacity: 0.7"/>
    </g>
    <g id="text_23">
     <!-- rwm -->
     <g transform="translate(273.635313 73.510938) scale(0.1 -0.1)">
      <use xlink:href="#DejaVuSans-72"/>
      <use xlink:href="#DejaVuSans-77" transform="translate(41.113281 0)"/>
      <use xlink:href="#DejaVuSans-6d" transform="translate(122.900391 0)"/>
     </g>
    </g>
    <g id="patch_17">
     <path d="M 347.785313 43.598438 
L 367.785313 43.598438 
L 367.785313 36.598438 
L 347.785313 36.598438 
z
" style="fill: #1f77b4; fill-opacity: 0.7"/>
    </g>
    <g id="text_24">
     <!-- rwm_wit -->
     <g transform="translate(375.785313 43.598438) scale(0.1 -0.1)">
      <use xlink:href="#DejaVuSans-72"/>
      <use xlink:href="#DejaVuSans-77" transform="translate(41.113281 0)"/>
      <use xlink:href="#DejaVuSans-6d" transform="translate(122.900391 0)"/>
      <use xlink:href="#DejaVuSans-5f" transform="translate(220.3125 0)"/>
      <use xlink:href="#DejaVuSans-77" transform="translate(270.3125 0)"/>
      <use xlink:href="#DejaVuSans-69" transform="translate(352.099609 0)"/>
      <use xlink:href="#DejaVuSans-74" transform="translate(379.882812 0)"/>
     </g>
    </g>
    <g id="patch_18">
     <path d="M 347.785313 58.554688 
L 367.785313 58.554688 
L 367.785313 51.554688 
L 347.785313 51.554688 
z
" style="fill: #ff7f0e; fill-opacity: 0.7"/>
    </g>
    <g id="text_25">
     <!-- spartan -->
     <g transform="translate(375.785313 58.554688) scale(0.1 -0.1)">
      <use xlink:href="#DejaVuSans-73"/>
      <use xlink:href="#DejaVuSans-70" transform="translate(52.099609 0)"/>
      <use xlink:href="#DejaVuSans-61" transform="translate(115.576172 0)"/>
      <use xlink:href="#DejaVuSans-72" transform="translate(176.855469 0)"/>
      <use xlink:href="#DejaVuSans-74" transform="translate(217.96875 0)"/>
      <use xlink:href="#DejaVuSans-61" transform="translate(257.177734 0)"/>
      <use xlink:href="#DejaVuSans-6e" transform="translate(318.457031 0)"/>
     </g>
    </g>
    <g id="patch_19">
     <path d="M 347.785313 73.232813 
L 367.785313 73.232813 
L 367.785313 66.232813 
L 347.785313 66.232813 
z
" style="fill: #2ca02c; fill-opacity: 0.7"/>
    </g>
    <g id="text_26">
     <!-- wit_join -->
     <g transform="translate(375.785313 73.232813) scale(0.1 -0.1)">
      <defs>
       <path id="DejaVuSans-6a" d="M 603 3500 
L 1178 3500 
L 1178 -63 
Q 1178 -731 923 -1031 
Q 669 -1331 103 -1331 
L -116 -1331 
L -116 -844 
L 38 -844 
Q 366 -844 484 -692 
Q 603 -541 603 -63 
L 603 3500 
z
M 603 4863 
L 1178 4863 
L 1178 4134 
L 603 4134 
L 603 4863 
z
" transform="scale(0.015625)"/>
      </defs>
      <use xlink:href="#DejaVuSans-77"/>
      <use xlink:href="#DejaVuSans-69" transform="translate(81.787109 0)"/>
      <use xlink:href="#DejaVuSans-74" transform="translate(109.570312 0)"/>
      <use xlink:href="#DejaVuSans-5f" transform="translate(148.779297 0)"/>
      <use xlink:href="#DejaVuSans-6a" transform="translate(198.779297 0)"/>
      <use xlink:href="#DejaVuSans-6f" transform="translate(226.5625 0)"/>
      <use xlink:href="#DejaVuSans-69" transform="translate(287.744141 0)"/>
      <use xlink:href="#DejaVuSans-6e" transform="translate(315.527344 0)"/>
     </g>
    </g>
   </g>
  </g>
 </g>
 <defs>
  <clipPath id="p583b10839e">
   <rect x="46.64" y="27" width="805.48" height="217.48"/>
  </clipPath>
 </defs>
</svg>
